/* XPM */
static const char *fileopen[] = {
/* columns rows colors chars-per-pixel */
"16 16 223 2",
"   c #000CA4",
".  c #000DA6",
"X  c #000EA6",
"o  c #000FA6",
"O  c #000BBB",
"+  c #000BBC",
"@  c #000CB9",
"#  c #0010A6",
"$  c #0010A7",
"%  c #0012A6",
"&  c #0011A8",
"*  c #0013A9",
"=  c #0012AB",
"-  c #0016A9",
";  c #0014AE",
":  c #0017AC",
">  c #0016AE",
",  c #001AAF",
"<  c #011DAF",
"1  c #0012B0",
"2  c #0010B5",
"3  c #0017B2",
"4  c #001AB0",
"5  c #001CB0",
"6  c #001CB2",
"7  c #001EB2",
"8  c #041FB6",
"9  c #0018BC",
"0  c #0F29AE",
"q  c #0422B1",
"w  c #0D2AB2",
"e  c #082AB8",
"r  c #0431BF",
"t  c #152BB7",
"y  c #1633AA",
"u  c #1A33AC",
"i  c #1D3AAE",
"p  c #0015C0",
"a  c #0019C8",
"s  c #001EC9",
"d  c #0726C9",
"f  c #0024D2",
"g  c #0029DA",
"h  c #0333C3",
"j  c #083FCA",
"k  c #0630DA",
"l  c #083CE4",
"z  c #2140B2",
"x  c #2547B8",
"c  c #2B4FBD",
"v  c #3951BB",
"b  c #114ACF",
"n  c #1650D1",
"m  c #164BE3",
"M  c #164FED",
"N  c #1D59EB",
"B  c #215CD3",
"V  c #235ED5",
"C  c #2F58D1",
"Z  c #3148C4",
"A  c #3156C4",
"S  c #375DCA",
"D  c #3853CE",
"F  c #3B5EDA",
"G  c #265DE7",
"H  c #2963D7",
"J  c #3A62D0",
"K  c #3967D3",
"L  c #3C65D0",
"P  c #396BDB",
"I  c #3870DB",
"U  c #2767F6",
"Y  c #2864F2",
"T  c #2E7DFC",
"R  c #306AF3",
"E  c #414CAF",
"W  c #4651B1",
"Q  c #4756B7",
"!  c #4B58B7",
"~  c #555FB7",
"^  c #565FB7",
"/  c #5A63BB",
"(  c #5D65B8",
")  c #5D68BB",
"_  c #666EBE",
"`  c #6B74BD",
"'  c #6D75BE",
"]  c #4E64C0",
"[  c #4169D2",
"{  c #416BD5",
"}  c #446ED5",
"|  c #4670DA",
" . c #447CDD",
".. c #467FDE",
"X. c #5167C2",
"o. c #5D6BC3",
"O. c #5A7BD8",
"+. c #4067E1",
"@. c #587DE8",
"#. c #6872C0",
"$. c #6E75C0",
"%. c #727AC5",
"&. c #3786FE",
"*. c #3C80FB",
"=. c #4880DE",
"-. c #4881DE",
";. c #4980E0",
":. c #4981E0",
">. c #4B83E0",
",. c #4B83E7",
"<. c #4F86E0",
"1. c #4E84E7",
"2. c #4F8EE7",
"3. c #4784F9",
"4. c #4C88FB",
"5. c #4690FE",
"6. c #4B96FE",
"7. c #5288E4",
"8. c #5088E8",
"9. c #5389E8",
"0. c #588DE8",
"q. c #5590E3",
"w. c #5E92E9",
"e. c #5798F9",
"r. c #5998FC",
"t. c #5E9CFC",
"y. c #6F82CF",
"u. c #6E8FDD",
"i. c #7491DE",
"p. c #6087E2",
"a. c #618FE7",
"s. c #648DE2",
"d. c #6C96E6",
"f. c #6599F3",
"g. c #789FF3",
"h. c #64A4F9",
"j. c #65A4FE",
"k. c #6FA3F2",
"l. c #6FABFE",
"z. c #76ABEE",
"x. c #7DB8FD",
"c. c #8288CC",
"v. c #8995D7",
"b. c #9BA1DB",
"n. c #86A0E7",
"m. c #86A3E8",
"M. c #89A8E8",
"N. c #8DABEB",
"B. c #80AFF3",
"V. c #88AEF7",
"C. c #85BFF5",
"Z. c #8FBDF1",
"A. c #8FBCF5",
"S. c #97B6E8",
"D. c #95BBEC",
"F. c #92B2F0",
"G. c #AAAACA",
"H. c #A1AADD",
"J. c #A3A8DD",
"K. c #B5B2CF",
"L. c #B5B2D6",
"P. c #BFBDD7",
"I. c #BBB8DA",
"U. c #85CCFE",
"Y. c #8FC4FB",
"T. c #97C0FC",
"R. c #9FC2F0",
"E. c #9FC5F7",
"W. c #9BDAFC",
"Q. c #A7C2F5",
"!. c #A2D5F8",
"~. c #A6DEFC",
"^. c #A9DEFE",
"/. c #AFDAFE",
"(. c #B1C5F1",
"). c #B8D8F8",
"_. c #AFE6FC",
"`. c #B9ECFC",
"'. c #B9EDFE",
"]. c #BFF2FE",
"[. c #C5C3E0",
"{. c #C4C3E4",
"}. c #CECAE1",
"|. c #C8CEF3",
" X c #CED0F0",
".X c #D1CEE6",
"XX c #D1D3ED",
"oX c #DBD7EC",
"OX c #DCD8E9",
"+X c #DCDEF7",
"@X c #DEDEF7",
"#X c #C8EDFE",
"$X c #C8FBFE",
"%X c #CAFCFE",
"&X c #CBFDFE",
"*X c #CFFEFE",
"=X c #D0E4F8",
"-X c #DAEBFC",
";X c #D5FBFD",
":X c #E2DEF1",
">X c #E3E2F8",
",X c #E6E4FB",
"<X c #E6E6FB",
"1X c #EBE7F2",
"2X c #ECE9F7",
"3X c #E8E8FB",
"4X c #E9E9FB",
"5X c #ECEBFC",
"6X c #EEEEFE",
"7X c #E1FEFE",
"8X c #F1F1FB",
"9X c #F2F1FE",
"0X c #F2F2FE",
"qX c #F6F3FC",
"wX c #F7F7FE",
"eX c #F9F6FB",
"rX c #FBF6FE",
"tX c #FDF8FE",
"yX c #FCFCFE",
"uX c #FEFDFE",
"iX c #FEFEFE",
"pX c gray100",
"aX c None",
/* pixels */
"aXaXaXaXaXaXaXaXaXaXaXaXaXaXaXaX",
"aXaXaXaXaXaXaXaX( #.%.~ aXaXaXaX",
"aXaXaXaXaXaXaX( c. X+X/ aXaXaXaX",
"B 0.1.1.b ] ' H.4X9X5Xb.E aXaXaX",
":.`.~.W.z.y.XXyX9X<X,X+Xo.5 aXaX",
"<.%X_.D.H.8XpXwX6X4X>X|.v.u ; 4 ",
":.%XS.{.pXyXpXpXtXrXi.| p.J C e ",
":.&XZ.u.S.N.m.m.m.O.P e.5.6.G 8 ",
"..*X2.s.Q.Q.A.x.k.f.j.&.T N 9 ; ",
"..].I -X=X;X^.x.f.T U m d + 2 ; ",
"..C.a.7XW.A.l.4.R M k s p + ; - ",
"-.0.R.`.U.h.f.3.U l g f a @ = * ",
"H 7.).#X/.A.V.g.@.+.F D Z t * aX",
"j d.yXpXpXqX2X:XoX.X[.I.L.v o aX",
"r (.yXyXpXpXeX1XOX}.P.K.G.0   aX",
"r K } } [ L S A c x z i u $ aXaX"
};
