<?xml version="1.0" encoding="UTF-8" standalone="no"?>
<!-- Created with Inkscape (http://www.inkscape.org/) -->
<svg
   xmlns:dc="http://purl.org/dc/elements/1.1/"
   xmlns:cc="http://web.resource.org/cc/"
   xmlns:rdf="http://www.w3.org/1999/02/22-rdf-syntax-ns#"
   xmlns:svg="http://www.w3.org/2000/svg"
   xmlns="http://www.w3.org/2000/svg"
   xmlns:sodipodi="http://sodipodi.sourceforge.net/DTD/sodipodi-0.dtd"
   xmlns:inkscape="http://www.inkscape.org/namespaces/inkscape"
   width="128"
   height="128"
   id="svg2"
   sodipodi:version="0.32"
   inkscape:version="0.45.1"
   version="1.0"
   sodipodi:docbase="/home/jonatan/astade/trunk/Source/icons_png"
   sodipodi:docname="generate.svg"
   inkscape:output_extension="org.inkscape.output.svg.inkscape">
  <defs
     id="defs4">
    <filter
       inkscape:collect="always"
       id="filter5161">
      <feGaussianBlur
         inkscape:collect="always"
         stdDeviation="0.47544583"
         id="feGaussianBlur5163" />
    </filter>
    <filter
       inkscape:collect="always"
       id="filter5165">
      <feGaussianBlur
         inkscape:collect="always"
         stdDeviation="0.17019297"
         id="feGaussianBlur5167" />
    </filter>
    <filter
       inkscape:collect="always"
       id="filter5169">
      <feGaussianBlur
         inkscape:collect="always"
         stdDeviation="0.40082305"
         id="feGaussianBlur5171" />
    </filter>
    <filter
       inkscape:collect="always"
       id="filter5173">
      <feGaussianBlur
         inkscape:collect="always"
         stdDeviation="0.16118252"
         id="feGaussianBlur5175" />
    </filter>
    <filter
       inkscape:collect="always"
       id="filter5177">
      <feGaussianBlur
         inkscape:collect="always"
         stdDeviation="0.18198456"
         id="feGaussianBlur5179" />
    </filter>
    <filter
       inkscape:collect="always"
       id="filter5181">
      <feGaussianBlur
         inkscape:collect="always"
         stdDeviation="0.51231824"
         id="feGaussianBlur5183" />
    </filter>
    <filter
       inkscape:collect="always"
       id="filter6167">
      <feGaussianBlur
         inkscape:collect="always"
         stdDeviation="0.27667687"
         id="feGaussianBlur6169" />
    </filter>
  </defs>
  <sodipodi:namedview
     id="base"
     pagecolor="#ffffff"
     bordercolor="#666666"
     borderopacity="1.0"
     inkscape:pageopacity="0.0"
     inkscape:pageshadow="2"
     inkscape:zoom="5.6953125"
     inkscape:cx="64"
     inkscape:cy="78.046639"
     inkscape:document-units="px"
     inkscape:current-layer="layer1"
     width="128px"
     height="128px"
     showguides="true"
     inkscape:guide-bbox="true"
     inkscape:window-width="1280"
     inkscape:window-height="949"
     inkscape:window-x="0"
     inkscape:window-y="25" />
  <metadata
     id="metadata7">
    <rdf:RDF>
      <cc:Work
         rdf:about="">
        <dc:format>image/svg+xml</dc:format>
        <dc:type
           rdf:resource="http://purl.org/dc/dcmitype/StillImage" />
      </cc:Work>
    </rdf:RDF>
  </metadata>
  <g
     inkscape:label="Ebene 1"
     inkscape:groupmode="layer"
     id="layer1">
    <path
       style="font-size:56px;font-style:normal;font-variant:normal;font-weight:normal;font-stretch:normal;text-align:start;line-height:100%;writing-mode:lr-tb;text-anchor:start;fill:#000000;fill-opacity:1;stroke:none;stroke-width:1px;stroke-linecap:butt;stroke-linejoin:miter;stroke-opacity:1;font-family:Nimbus Roman No9 L;filter:url(#filter6167)"
       d="M 50.174532,88.821368 C 49.982532,86.37337 49.454531,84.789366 48.494532,83.397368 C 46.766534,81.04537 43.742529,79.653368 40.238532,79.653368 C 33.470539,79.653368 29.054532,85.029376 29.054532,93.381368 C 29.054532,101.49336 33.374539,106.62937 40.190532,106.62937 C 46.190526,106.62937 49.982533,103.02936 50.462532,96.885368 L 46.430532,96.885368 C 45.758533,100.91736 43.694529,102.93337 40.286532,102.93337 C 35.870537,102.93337 33.230532,99.333362 33.230532,93.381368 C 33.230532,87.093374 35.822537,83.349368 40.190532,83.349368 C 43.550529,83.349368 45.662533,85.317371 46.142532,88.821368 L 50.174532,88.821368 M 54.158532,115.98937 L 58.190532,115.98937 L 58.190532,102.88537 C 60.30253,105.47737 62.654535,106.62937 65.918532,106.62937 C 72.398526,106.62937 76.670532,101.39736 76.670532,93.381368 C 76.670532,84.933376 72.542525,79.653368 65.870532,79.653368 C 62.462536,79.653368 59.72653,81.189371 57.854532,84.165368 L 57.854532,80.373368 L 54.158532,80.373368 L 54.158532,115.98937 M 65.198532,83.397368 C 69.614528,83.397368 72.494532,87.285374 72.494532,93.285368 C 72.494532,98.997362 69.566528,102.88537 65.198532,102.88537 C 60.974536,102.88537 58.190532,99.045362 58.190532,93.141368 C 58.190532,87.237374 60.974536,83.397368 65.198532,83.397368 M 80.877282,115.98937 L 84.909282,115.98937 L 84.909282,102.88537 C 87.02128,105.47737 89.373285,106.62937 92.637282,106.62937 C 99.117276,106.62937 103.38928,101.39736 103.38928,93.381368 C 103.38928,84.933376 99.261275,79.653368 92.589282,79.653368 C 89.181286,79.653368 86.44528,81.189371 84.573282,84.165368 L 84.573282,80.373368 L 80.877282,80.373368 L 80.877282,115.98937 M 91.917282,83.397368 C 96.333278,83.397368 99.213282,87.285374 99.213282,93.285368 C 99.213282,98.997362 96.285278,102.88537 91.917282,102.88537 C 87.693286,102.88537 84.909282,99.045362 84.909282,93.141368 C 84.909282,87.237374 87.693286,83.397368 91.917282,83.397368"
       id="text2160" />
    <path
       style="fill:none;fill-rule:evenodd;stroke:#007800;stroke-width:4;stroke-linecap:round;stroke-linejoin:miter;stroke-miterlimit:4;stroke-dasharray:none;stroke-opacity:1;filter:url(#filter5181)"
       d="M 11.061728,9.3058982 C 16.57324,14.982879 24.499118,21.108041 31.253772,29.322359 C 35.205498,34.128043 38.23925,39.079323 41.086419,44.773662 C 43.00232,48.605463 44.826814,52.536338 45.82716,56.537723 C 46.623252,59.722092 47.056241,62.563426 47.056241,65.843621 C 47.056241,66.487426 47.056241,67.13123 47.056241,67.775034"
       id="path2164"
       sodipodi:nodetypes="cssssc" />
    <path
       style="fill:none;fill-rule:evenodd;stroke:#000078;stroke-width:4;stroke-linecap:round;stroke-linejoin:miter;stroke-miterlimit:4;stroke-dasharray:none;stroke-opacity:1;fill-opacity:1;opacity:1;filter:url(#filter5169)"
       d="M 79.714678,9.8326471 C 79.714678,10.040778 74.942413,27.155369 74.447188,28.971193 C 71.91112,38.270109 71.068725,40.244853 69.179698,49.689986 C 68.535,52.913477 66.897119,63.775272 66.897119,67.072702 C 66.897119,67.758329 66.826898,68.58267 66.721536,69.004115"
       id="path2166"
       sodipodi:nodetypes="csssc" />
    <path
       style="fill:none;fill-rule:evenodd;stroke:#780000;stroke-width:4;stroke-linecap:round;stroke-linejoin:miter;stroke-miterlimit:4;stroke-dasharray:none;stroke-opacity:1;filter:url(#filter5161)"
       d="M 119.04527,10.886145 C 119.04527,11.196966 106.14712,17.865521 102.01372,24.581618 C 95.629373,34.95512 95.884267,34.669474 92.883402,44.949245 C 90.151015,53.484951 90.993449,57.509852 89.898491,68.828532"
       id="path2168"
       sodipodi:nodetypes="cscc" />
    <path
       style="fill:none;fill-rule:evenodd;stroke:#007800;stroke-width:4;stroke-linecap:round;stroke-linejoin:miter;stroke-miterlimit:4;stroke-dasharray:none;stroke-opacity:1;filter:url(#filter5177)"
       d="M 38.773149,59.810716 C 41.76386,62.269988 45.058233,67.487765 47.059215,71.314093 C 49.744833,66.805784 50.945115,63.902314 55.666683,60.271022"
       id="path2170"
       sodipodi:nodetypes="ccc" />
    <path
       style="fill:none;fill-rule:evenodd;stroke:#000078;stroke-width:4;stroke-linecap:round;stroke-linejoin:miter;stroke-miterlimit:4;stroke-dasharray:none;stroke-opacity:1;filter:url(#filter5165)"
       d="M 59.030658,62.855044 C 62.431562,65.914433 65.424413,69.097731 66.780561,71.84906 C 68.500774,69.766461 70.901177,67.150162 76.075237,64.037984"
       id="path2172"
       sodipodi:nodetypes="ccc" />
    <path
       style="fill:none;fill-rule:evenodd;stroke:#780000;stroke-width:4;stroke-linecap:round;stroke-linejoin:miter;stroke-miterlimit:4;stroke-dasharray:none;stroke-opacity:1;filter:url(#filter5173)"
       d="M 82.930575,63.409643 C 85.826608,65.807224 87.723301,67.888085 89.46069,71.654059 C 92.932692,67.988267 93.75378,67.488527 98.922664,64.294055"
       id="path2174"
       sodipodi:nodetypes="ccc" />
  </g>
</svg>
