/* XPM */
static char *association[] = {
/* columns rows colors chars-per-pixel */
"48 48 145 2",
"   c #F71615",
".  c #F7171B",
"X  c #F41D1F",
"o  c #FA1413",
"O  c #FB1618",
"+  c #FD1C1C",
"@  c #F21E22",
"#  c #F5211A",
"$  c #FA201A",
"%  c #E62B29",
"&  c #EF2124",
"*  c #EB2E35",
"=  c #EE332C",
"-  c #E43739",
";  c #EA3435",
":  c #ED333A",
">  c #F42323",
",  c #F32628",
"<  c #F12827",
"1  c #F42C2C",
"2  c #FA2424",
"3  c #FB2529",
"4  c #FA2A25",
"5  c #FC2B2B",
"6  c #FD2F30",
"7  c #FC3227",
"8  c #FA312C",
"9  c #F33131",
"0  c #F6363F",
"q  c #F63937",
"w  c #F43A3B",
"e  c #FD3333",
"r  c #FB3238",
"t  c #FB3A35",
"y  c #FC393B",
"u  c #F73C41",
"i  c #FC3C40",
"p  c #EF403C",
"a  c #FB413D",
"s  c #E54C4B",
"d  c #EC4244",
"f  c #EE424A",
"g  c #ED4945",
"h  c #EC4D4C",
"j  c #EB4C51",
"k  c #ED5253",
"l  c #EB5A54",
"z  c #EC5D5E",
"x  c #F34246",
"c  c #F3454A",
"v  c #F34B4D",
"b  c #FC4343",
"n  c #FE4448",
"m  c #FC4947",
"M  c #FD4B4A",
"N  c #F24E52",
"B  c #F94A51",
"V  c #F55053",
"C  c #F25558",
"Z  c #F05A50",
"A  c #F35A5C",
"S  c #FA5352",
"D  c #FC565C",
"F  c #FC5D5A",
"G  c #FF5B61",
"H  c #EC615F",
"J  c #F1615C",
"K  c #E7686D",
"L  c #EF6062",
"P  c #E96670",
"I  c #EB7573",
"U  c #ED777A",
"Y  c #EE7C77",
"T  c #F26161",
"R  c #F76964",
"E  c #F36D6A",
"W  c #FB6362",
"Q  c #FF6769",
"!  c #FD6A6D",
"~  c #F46D70",
"^  c #FE6C71",
"/  c #F2726F",
"(  c #F9706D",
")  c #F37273",
"_  c #F57C7B",
"`  c #FA7572",
"'  c #F9767B",
"]  c #FC7B7D",
"[  c #F17E80",
"{  c #FA7D81",
"}  c #F8807B",
"|  c #EF8989",
" . c #ED8C94",
".. c #F58283",
"X. c #F38688",
"o. c #F38B89",
"O. c #FC8487",
"+. c #FB8985",
"@. c #FC8B89",
"#. c #FA8D91",
"$. c #FB928F",
"%. c #F19495",
"&. c #F29F9A",
"*. c #FD9292",
"=. c #FD9C96",
"-. c #FC9C9A",
";. c #FB9DA2",
":. c #FDA19F",
">. c #EDB4B3",
",. c #F5A3A3",
"<. c #FCA3A3",
"1. c #F8ABA5",
"2. c #FEACAB",
"3. c #FDB3AD",
"4. c #F7B5B1",
"5. c #F0B6BA",
"6. c #FEB3B3",
"7. c #FFBBB5",
"8. c #FEBCBA",
"9. c #FFBFC2",
"0. c #F4C1BF",
"q. c #FEC2BE",
"w. c #EFD2D3",
"e. c #FDC3C3",
"r. c #FEC6C9",
"t. c #FDC9C5",
"y. c #FFCDCC",
"u. c #FDCFD1",
"i. c #FFCDD8",
"p. c #FFD5CF",
"a. c #FDD3D2",
"s. c #FDD2D8",
"d. c #FEDBD5",
"f. c #FFDCDB",
"g. c #FFDFE0",
"h. c #FFE1DE",
"j. c #FEE4E3",
"k. c #FFE8E3",
"l. c #FEECEA",
"z. c #FFEFF1",
"x. c #FFF2ED",
"c. c #FEF4F3",
"v. c #FFF5FA",
"b. c #FEFAF5",
"n. c #FEFEFE",
/* pixels */
"n.n.n.n.n.n.n.n.n.n.n.n.n.n.n.n.n.n.n.n.n.n.n.n.n.n.n.n.n.n.n.n.n.n.n.n.n.n.n.n.n.n.n.n.n.n.n.n.",
"n.n.n.n.n.n.n.n.n.n.n.n.n.n.n.n.n.n.n.n.n.n.n.n.n.n.n.n.n.n.n.n.n.n.n.n.n.n.n.n.n.n.n.n.n.n.n.n.",
"n.n.n.n.n.n.n.n.n.n.n.n.n.n.n.n.n.n.n.n.n.n.n.n.n.n.n.n.n.n.n.n.n.n.n.n.n.n.n.n.n.n.n.n.n.n.n.n.",
"n.n.n.n.n.n.n.n.n.n.n.n.n.n.n.n.n.n.n.n.n.n.n.n.n.n.n.n.n.n.n.n.n.n.n.n.n.n.n.n.n.n.n.n.n.n.n.n.",
"n.n.n.n.n.n.n.n.n.n.n.n.n.n.n.n.n.n.n.n.n.n.n.n.n.n.n.n.n.n.n.n.n.n.n.n.n.n.n.n.n.n.n.n.n.n.n.n.",
"n.n.n.n.n.n.n.n.n.n.n.n.n.n.n.n.n.n.n.n.n.n.n.n.n.n.n.n.n.n.n.n.n.n.n.n.n.n.n.n.n.n.n.n.n.n.n.n.",
"n.n.n.n.n.n.n.n.n.n.n.n.n.n.n.n.n.n.n.n.n.n.n.n.n.n.n.n.n.n.n.n.n.n.n.n.n.n.n.n.n.n.n.n.n.n.n.n.",
"n.n.n.n.n.n.n.n.n.n.n.n.n.n.n.n.n.n.n.n.n.n.n.n.n.n.n.n.n.n.n.n.n.n.n.n.n.n.n.n.n.n.n.n.n.n.n.n.",
"n.n.n.n.n.n.n.n.n.n.n.n.n.n.n.n.n.n.n.n.n.n.n.n.n.n.n.n.n.n.n.n.n.n.n.n.n.n.n.n.n.n.n.n.n.n.n.n.",
"n.n.n.n.n.n.n.n.n.n.n.n.n.n.n.n.n.n.n.n.n.n.n.n.n.n.n.n.n.n.n.n.n.n.n.n.n.n.n.n.n.n.n.n.n.n.n.n.",
"n.n.n.n.n.n.n.n.n.n.n.n.n.n.n.n.n.n.n.n.n.n.n.n.n.n.n.n.n.n.n.n.n.n.n.n.n.n.n.n.n.n.n.n.n.n.n.n.",
"n.n.n.n.n.n.n.n.n.n.n.n.n.n.n.n.n.n.n.n.n.n.n.n.n.n.n.n.n.n.n.n.n.n.n.n.n.n.n.n.n.n.n.n.n.n.n.n.",
"n.n.n.n.n.n.n.n.n.n.n.n.n.n.n.n.n.n.n.n.n.n.n.n.n.n.n.n.n.n.n.n.n.n.n.n.n.n.n.n.n.n.n.n.n.n.n.n.",
"n.n.n.n.n.n.n.n.n.n.n.n.n.n.n.n.n.n.n.n.n.n.n.n.n.n.n.n.n.n.n.n.n.n.n.n.n.v.n.n.n.n.n.n.n.n.n.n.",
"n.n.n.n.n.n.n.n.n.n.n.n.n.n.n.n.n.n.n.n.n.n.n.n.n.n.n.n.n.n.n.n.n.n.n.n.n.n.n.n.n.n.n.n.n.n.n.n.",
"n.n.n.n.n.n.n.n.n.n.n.n.n.n.n.n.n.n.n.n.n.n.n.n.n.n.n.n.n.n.n.n.n.n.n.n.n.n.n.v.n.n.n.n.n.n.n.n.",
"n.n.n.n.n.n.n.n.n.n.n.n.n.n.n.n.n.n.n.n.n.n.n.n.n.b.n.c.g.d.f.d.g.d.i.y.a.k.x.w.j.x.v.n.n.n.n.n.",
"n.n.n.n.n.n.n.n.n.n.n.n.n.n.n.n.n.n.n.n.n.n.n.n.n.n.n.w.P j l V N C k N k Y 8.e.1.,.i.n.n.b.n.n.",
"n.n.n.n.n.n.n.n.n.n.n.n.n.n.n.n.n.n.n.n.n.n.n.n.n.n.n.t.c 8 7 5 y b u b y J ..<.L E e.x.b.b.n.n.",
"n.n.n.n.n.n.n.n.n.n.n.n.n.n.n.n.n.n.n.n.n.n.n.n.n.n.b.t.c 5 # . > 8 1 5 4 9 D D w = A -.d.b.n.n.",
"n.n.n.n.n.n.n.n.n.n.n.n.n.n.n.n.n.n.n.n.n.n.n.n.v.n.b.d.P x 1 @ < M b 5 + > r M 8   4 f  .l.b.n.",
"n.n.n.n.n.n.n.n.n.n.n.n.n.n.n.n.n.n.n.n.n.n.n.n.n.n.n.c.g.6.$.@.! ] { ^ V S D m $ + 5 d 6.v.n.n.",
"n.n.n.n.n.n.n.n.n.n.n.n.n.n.n.n.n.n.n.n.n.n.n.n.n.n.n.n.n.v.k.a.2.<.2.4.*.} ( q o + 8 z f.n.n.n.",
"n.n.n.n.n.n.n.n.n.n.n.n.n.n.n.n.n.n.n.n.n.n.n.n.n.n.n.v.j.8.,._ I @.<.4.:.2.*.1 O 3 9 +.x.n.n.b.",
"n.n.n.n.n.n.n.n.n.n.n.n.b.n.n.n.n.n.n.n.n.n.n.n.c.j.t.:.( l J ! ^ '  .0.h.f.O.y @ b - 4.b.n.n.n.",
"n.n.n.n.n.n.n.n.n.n.n.n.n.n.n.n.n.n.n.n.n.n.l.r.%.I N * y S J b B U r.l.z.a.] b t y Z w.n.n.n.n.",
"n.n.n.n.n.n.n.n.b.n.n.n.b.n.n.b.v.n.n.b.c.u.| J d ; b b n e 4 = R e.c.b.x.%.M 1 b w  .x.n.n.n.n.",
"n.n.n.n.n.n.n.n.n.v.n.n.n.n.n.n.n.n.n.j.:.h a a m b t # X 4 d @.d.n.n.n.r.s 1 r t d e.n.n.v.n.n.",
"n.n.n.n.n.n.n.n.n.n.n.n.n.n.n.n.v.l.e.} p 8 e e 6 5 > # q E q.z.n.n.n.v.<.9 # m t / l.n.n.b.n.n.",
"n.n.n.n.n.n.n.n.n.n.n.n.n.b.b.x.w.@.s m y y > & y N z | 6.f.v.n.n.v.b.l._ = a u v 7.n.n.n.n.n.n.",
"n.n.n.n.n.n.n.n.b.b.v.n.b.k.8.} h % y G w n c T #.e.h.c.v.n.n.n.n.n.b.d...W ! s  .l.b.n.n.b.n.n.",
"n.n.n.n.n.n.n.n.n.b.k.a.;.E x 1 t y 5 r v ` $.8.k.v.n.n.n.n.n.n.n.n.l.3.-.-.{ ;.g.n.n.b.n.n.n.n.",
"n.n.n.n.n.n.n.l.y.2.{ z : , 6 5 # $ 5 F } 6.d.z.n.n.n.n.n.n.n.n.n.b.5.| %.4.r.j.n.n.n.n.n.n.n.n.",
"n.n.n.n.v.j.3._ v ; q 3 r + + O O & - I t.x.n.n.n.n.n.n.n.n.n.n.n.l.9.&.| e.a.c.n.n.n.n.n.n.n.n.",
"n.n.c.a.<.J w e r y 5 + o O , ; k X.0.l.n.v.n.n.n.n.n.n.n.n.n.n.n.n.l.>.>.w.j.v.n.n.n.n.n.n.n.n.",
"n.x.q.I m 5 3 5 e 5 3 @ < v O.7.w.x.b.n.n.n.n.n.n.n.n.n.n.n.n.n.n.n.v.l.c.b.n.n.n.n.n.n.n.n.n.n.",
"n.g.%.A t 2 > , w v A I <.p.x.n.n.n.n.v.n.n.n.n.n.n.n.n.n.n.n.n.n.n.b.n.n.n.n.n.n.n.n.n.n.n.n.n.",
"n.v.w.U u 0 d E =.8.d.z.b.n.n.n.n.n.n.n.n.n.n.n.n.n.n.n.n.n.n.n.n.n.n.n.n.n.n.n.b.n.n.n.n.n.n.n.",
"n.n.x.t.;.;.y.l.b.n.n.n.n.n.n.b.n.b.n.n.n.n.n.n.n.n.n.n.n.n.n.n.n.n.n.n.n.n.n.b.n.n.n.n.n.n.n.n.",
"n.b.n.c.c.n.n.n.n.n.n.v.n.n.n.n.n.b.n.n.n.n.n.n.n.n.n.n.n.n.n.n.n.n.n.n.n.n.n.n.n.n.n.n.n.n.n.n.",
"n.n.n.n.n.n.n.n.n.v.n.n.b.n.n.n.n.n.n.n.n.n.n.n.n.n.n.n.n.n.n.n.n.n.n.n.n.n.n.n.n.n.n.n.n.n.n.n.",
"n.n.n.n.n.n.n.n.n.n.n.n.n.n.n.n.n.n.n.n.n.n.n.n.n.n.n.n.n.n.n.n.n.n.n.n.n.n.n.n.n.n.n.n.n.n.n.n.",
"n.n.n.n.n.n.n.n.n.n.n.n.n.n.n.n.n.n.n.n.n.n.n.n.n.n.n.n.n.n.n.n.n.n.n.n.n.n.n.n.n.n.n.n.n.n.n.n.",
"n.n.n.n.n.n.n.n.n.n.n.n.n.n.n.n.n.n.n.n.n.n.n.n.n.n.n.n.n.n.n.n.n.n.n.n.n.n.n.n.n.n.n.n.n.n.n.n.",
"n.n.n.n.n.n.n.n.n.n.n.n.n.n.n.n.n.n.n.n.n.n.n.n.n.n.n.n.n.n.n.n.n.n.n.n.n.n.n.n.n.n.n.n.n.n.n.n.",
"n.n.n.n.n.n.n.n.n.n.n.n.n.n.n.n.n.n.n.n.n.n.n.n.n.n.n.n.n.n.n.n.n.n.n.n.n.n.n.n.n.n.n.n.n.n.n.n.",
"n.n.n.n.n.n.n.n.n.n.n.n.n.n.n.n.n.n.n.n.n.n.n.n.n.n.n.n.n.n.n.n.n.n.n.n.n.n.n.n.n.n.n.n.n.n.n.n.",
"n.n.n.n.n.n.n.n.n.n.n.n.n.n.n.n.n.n.n.n.n.n.n.n.n.n.n.n.n.n.n.n.n.n.n.n.n.n.n.n.n.n.n.n.n.n.n.n."
};
