/* XPM */
static char *assosiations[] = {
/* columns rows colors chars-per-pixel */
"48 48 256 2",
"   c #D62B00",
".  c #DC2D00",
"X  c #DE3800",
"o  c #E71700",
"O  c #E61800",
"+  c #E81600",
"@  c #ED1B00",
"#  c #F60E00",
"$  c #F21300",
"%  c #F21C00",
"&  c #FD1401",
"*  c #FC1B01",
"=  c #FF190B",
"-  c #FF1B14",
";  c #E42800",
":  c #EC2500",
">  c #EB2C00",
",  c #E43400",
"<  c #E43A00",
"1  c #EC3400",
"2  c #EF3800",
"3  c #F32400",
"4  c #F32A00",
"5  c #FC2302",
"6  c #FD2209",
"7  c #FC2A03",
"8  c #F62E0A",
"9  c #FE2613",
"0  c #FF2C13",
"q  c #F43402",
"w  c #F43C01",
"e  c #FC3301",
"r  c #FD330B",
"t  c #FB3B02",
"y  c #FA3B09",
"u  c #FF3511",
"i  c #FF311D",
"p  c #DB4000",
"a  c #DA4C00",
"s  c #DD5100",
"d  c #E64500",
"f  c #EA4100",
"g  c #EA4B00",
"h  c #E34B00",
"j  c #E55300",
"k  c #ED5301",
"l  c #F44402",
"z  c #F54B01",
"x  c #FC4101",
"c  c #FC4B03",
"v  c #FE4A0A",
"b  c #FF4810",
"n  c #F25401",
"m  c #F45906",
"M  c #F25B09",
"N  c #F95D02",
"B  c #F85E09",
"V  c #F95409",
"C  c #FF5D11",
"Z  c #FF5C1A",
"A  c #E76701",
"S  c #EB6301",
"D  c #EA6C06",
"F  c #EB7400",
"G  c #E77A01",
"H  c #F26202",
"J  c #F56508",
"K  c #F26D05",
"L  c #F76F0B",
"P  c #FC6603",
"I  c #FF6905",
"U  c #FD6A0A",
"Y  c #FC640C",
"T  c #FF6012",
"R  c #F47201",
"E  c #F37309",
"W  c #F57B0B",
"Q  c #FE7404",
"!  c #FB750A",
"~  c #FB7D04",
"^  c #FB790B",
"/  c #F67C05",
"(  c #F77010",
")  c #FF7F1A",
"_  c #FB7519",
"`  c #EE8102",
"'  c #EE9D00",
"]  c #E99603",
"[  c #F68008",
"{  c #FD8305",
"}  c #FE840D",
"|  c #F88903",
" . c #FE880B",
".. c #F5880C",
"X. c #FB8512",
"o. c #FF831B",
"O. c #FD8812",
"+. c #FF8F18",
"@. c #F69806",
"#. c #FF930C",
"$. c #FF9A06",
"%. c #FD9C09",
"&. c #F79504",
"*. c #FE9110",
"=. c #FF9319",
"-. c #FA9B18",
";. c #FF9622",
":. c #FF9A21",
">. c #FF982D",
",. c #FBA205",
"<. c #FBA10A",
"1. c #FEAA05",
"2. c #FEAA0C",
"3. c #F4A20D",
"4. c #FEA312",
"5. c #FFA41D",
"6. c #FEA913",
"7. c #FEAB1B",
"8. c #FFB20C",
"9. c #FCBD01",
"0. c #FEBD0D",
"q. c #FEB412",
"w. c #FFB41A",
"e. c #FFBB13",
"r. c #FFBA1B",
"t. c #FFAD21",
"y. c #FFB523",
"u. c #FFB42B",
"i. c #FFBD23",
"p. c #FFBC2A",
"a. c #FFBD3D",
"s. c #ECCE0B",
"d. c #ECCC1B",
"f. c #ECD402",
"g. c #EAD606",
"h. c #F5CD02",
"j. c #F6CD0C",
"k. c #FEC403",
"l. c #FEC50B",
"z. c #FECC03",
"x. c #FDCC0B",
"c. c #F4CC14",
"v. c #F6CC1D",
"b. c #FEC313",
"n. c #FEC41A",
"m. c #FDCC12",
"M. c #FDCD1A",
"N. c #F5D301",
"B. c #F5D20B",
"V. c #FCD102",
"C. c #FDD10B",
"Z. c #FCDB03",
"A. c #FBDA0C",
"S. c #F0DA04",
"D. c #F5D310",
"F. c #FED212",
"G. c #FDD319",
"H. c #FDD916",
"J. c #FFDC1B",
"K. c #EACF2D",
"L. c #EDCB34",
"P. c #EED02F",
"I. c #EBD424",
"U. c #EED637",
"Y. c #F6CC23",
"T. c #FFC221",
"R. c #FFC72E",
"E. c #FDCC22",
"W. c #FDCB29",
"Q. c #F7CB2D",
"!. c #F0CC37",
"~. c #FFCE38",
"^. c #F7CB3B",
"/. c #F3D323",
"(. c #F6DC26",
"). c #FDD222",
"_. c #FBD42A",
"`. c #FEDA22",
"'. c #FFD82A",
"]. c #F2D12B",
"[. c #F2D233",
"{. c #F2D33C",
"}. c #FED533",
"|. c #FBD33B",
" X c #FEDB35",
".X c #FEDB3A",
"XX c #F4DE3E",
"oX c #EFD242",
"OX c #EFD843",
"+X c #EED84A",
"@X c #EEDD5E",
"#X c #F3CF47",
"$X c #F3CF48",
"%X c #F2D24A",
"&X c #F7DD47",
"*X c #FCD24C",
"=X c #FFDA40",
"-X c #F9D646",
";X c #F9D352",
":X c #F9DE53",
">X c #F3D656",
",X c #FFD960",
"<X c #F8D167",
"1X c #FED477",
"2X c #FDDC73",
"3X c #FFDC78",
"4X c #F6D471",
"5X c #FFE54F",
"6X c #FFE244",
"7X c #F4E05C",
"8X c #FFE95C",
"9X c #FFF55E",
"0X c #FCE36C",
"qX c #FEE162",
"wX c #FFE074",
"eX c #FDE57D",
"rX c #F6E779",
"tX c #FFF56F",
"yX c #FBF07E",
"uX c #FEDA86",
"iX c #FCE782",
"pX c #FAE58C",
"aX c #FAEB8D",
"sX c #F5ED8D",
"dX c #FFE099",
"fX c #FEEA93",
"gX c #FFE89A",
"hX c #FFF089",
"jX c #FFF88A",
"kX c #FFF285",
"lX c #FFF297",
"zX c #FDE2A2",
"xX c #FEECA9",
"cX c #FFECB7",
"vX c #FFECBB",
"bX c #FFF2A3",
"nX c #FFF4A8",
"mX c #FFFDA1",
"MX c #FCF9AF",
"NX c #FFF0B5",
"BX c #FFFFB5",
"VX c #FFFCBB",
"CX c #FEF5C3",
"ZX c #FFF3CE",
"AX c #FEF9C4",
"SX c #FEF9C8",
"DX c #FFF6D2",
"FX c #FFF6DE",
"GX c #FFFCD5",
"HX c #FFFDDB",
"JX c #FFF6EA",
"KX c #FEFCEC",
"LX c #F2FEFF",
"PX c #FFF6F3",
"IX c #FFFDF4",
"UX c #FCFDFC",
/* pixels */
"LXUXKXHXDXNXhX9XtXjXmXBXVXBXmXkX].z.z.z.z.k.z.x.z.x.z.x.z.x.z.z.x.x.F.M.F.m.m.m.x.F.:XvXKXPXUXUX",
"UXKXAXxXuX<X!.d.U.oX>X1X3XwX,X&XG.z.z.z.z.z.z.k.z.z.x.x.x.z.z.x.x.x.x.x.x.z.k.x.x.z.~.1XdXAXGXKX",
"IXCXrXOX].v.c.h.h.l.n.R.R.R.M.x.z.z.z.k.z.z.z.z.z.z.x.x.x.z.x.z.z.z.z.z.x.x.V.V.V.V.m.Q.oX@XsXSX",
"KXxX+Xs.h.h.h.V.z.z.z.z.z.z.z.z.z.z.z.z.z.V.z.z.z.x.z.z.z.x.z.x.z.z.z.z.z.V.V.z.z.z.z.z.B.(.7XxX",
"JXzX{.N.V.V.V.V.h.V.h.V.V.h.z.h.z.x.x.x.V.h.h.z.z.z.x.z.z.z.z.z.z.z.z.z.z.z.z.z.z.x.x.V.V.J.:XxX",
"FXdX!.h.V.z.x.x.h.N.V.N.C.N.h.f.D.m.M.m.j.h.h.h.h.z.z.z.z.x.z.z.V.V.z.z.z.z.z.z.x.m.m.l.x.c.oXzX",
"VXeX!.x.x.x.x.x.j.x.C.x.C.C.x.x.M.Y.Y.v.m.m.j.h.z.k.z.x.z.x.z.x.x.x.x.x.z.z.z.z.x.c.m.n.l.n.#XgX",
"hX:XI.B.x.M.D.N.x.m.x.x.x.x.x.F.}.=X.X}._.`.G.B.x.x.x.x.V.x.x.x.x.x.x.m.x.m.F.x.V.A.G.E.G.W.-XiX",
"_.v.B.x.x.x.x.x.z.z.V.z.z.z.V.C.`.'.'.).'.`.F.j.B.D.x.x.x.x.z.V.V.m.m.x.b.x.k.z.V.x.F.M.M.m.M.}.",
"x.x.x.x.z.z.z.k.V.z.V.V.z.V.V.V.m.M.M.M.F.F.x.x.B.D.B.x.x.z.V.V.V.V.x.x.x.k.z.k.z.l.x.x.x.x.m.m.",
"F.x.x.V.x.z.z.z.V.V.z.V.x.V.z.V.j.x.x.x.h.z.z.h.N.N.x.z.z.z.V.V.N.V.V.V.z.z.z.z.z.m.x.x.x.m.x.l.",
"m.D.x.x.z.z.z.z.z.x.V.z.V.V.h.z.z.x.x.h.h.z.z.V.z.z.z.z.z.V.V.N.N.N.N.N.V.z.z.k.z.x.x.x.x.z.z.z.",
").G.M.m.F.x.z.z.V.C.C.C.V.h.x.h.B.C.x.h.V.V.V.V.z.z.z.z.V.z.z.V.h.z.V.V.N.V.z.z.l.z.z.z.z.z.z.z.",
".X|._.G.c.x.x.x.x.x.x.x.x.x.F.x.F.H.F.C.x.V.V.V.V.z.V.V.V.x.z.x.b.n.k.h.N.N.V.x.x.x.x.z.z.z.z.z.",
"8X8X5X6X X'.m.x.x.F.F.F.F.x.x.m.m.F.F.x.x.x.x.V.z.V.j.x.x.b.b.n.6.$.e.x.h.N.V.x.x.z.z.z.z.z.z.z.",
";X*X*X-X.X}.).M.F.F.F.F.F.x.x.j.m.M.M.M.m.D.x.x.x.x.B.j.M.M.n.$.S j | 0.z.N.N.z.x.z.V.z.z.z.z.z.",
"Y.E.E.E.M.m.x.x.x.z.x.h.N.V.N.N.h.m.x.x.x.x.x.x.F.M.D.f.N.l.4.a 1 8 g <.x.N.f.s.s.x.x.m.x.x.x.x.",
"x.z.x.x.z.z.z.z.z.x.z.z.h.h.V.V.V.x.x.x.x.m.F.F._.}.G.f.N.0.5.d 6 & 4 p 7.n.(.I.(.).G.E.).).`.`.",
"l.l.k.z.k.z.z.z.k.l.l.x.x.x.x.B.m.b.m.m.m.m.M.G.W.R.G.V.V.l.y.E ; & 0 8 l o.a.~. X X.X X X.X X.X",
"x.x.z.z.z.z.V.z.z.z.z.x.x.F.D.G.m.x.x.x.x.z.x.x.m.b.x.V.N.x.n.5.J 3 * 9 9 q _ u.W.E.).v.v.v.).R.",
"h.j.V.h.h.V.h.V.V.z.h.Z.A.A.D.H.A.Z.N.N.N.V.N.Z.V.V.V.h.N.N.j.l.<.k v 5 i r h 4.e.n.x.x.j.N.x.c.",
"f.f.f.B.j.x.x.m.z.z.V.z.V.F.J.F.h.V.h.h.N.V.N.N.h.k.z.z.z.z.x.h.l.%.Q 1 : x k | 1.%.e.9.V.N.N.N.",
"f.N.j.x.n.r.p.u.y.w.w.w.i.i.r.T.n.b.b.b.0.0.0.0.b.r.w.t.7.7.2.8.b.r.*.k   , U } ^ k #.e.V.V.N.h.",
"h.z.k.e.&.K J B J m k M E L L ^ }  .} } O.X.W E K H m l w w z P [ -.:.>._ V C l ; > d 5.0.x.N.h.",
"z.z.k.e.~ , 4 6 3 3 @ O @ 3 4 4 4 3 3 3 > 1 1 1 , q q 7 6 r b v m / X.o.U C b O $ 9 > D r.m.x.x.",
"z.z.k.w.} , 5 - * * & # $ & & & = = = 6 6 6 u r q q e 7 5 5 3 2 k R  ./ A Y Z y * 6 2 a 2.0.l.k.",
"h.z.z.b.$.a . : 3 e 3 o + % % @ @ # $ % 3 4 y y > > 4 4 ; ; < h F ' 1.<.-.) C e 5 * v R 1.9.z.x.",
"h.x.x.l.e.@.F W P I N n m B m k c l l < < d P U I I P m S } 5.y.e.x.x.w.:.Y q 5 * 3 T ~ ' k.h.V.",
"C.x.B.B.G.M.b.n.0.0.2.e.r.i.r.w.6.7.7.7.6.2.q.2.1.2.q.b.b.l.b.l.x.e.4.E < : % 5 5 , I 6.9.z.N.V.",
"C.x.F.G.H.H.F.x.V.V.N.V.V.N.V.V.x.h.z.x.V.V.V.V.z.z.h.f.f.f.V.z.8.+.U t % * 5 3 q H 4.e.z.V.N.h.",
"z.x.F.H.J.J.C.V.N.S.N.N.N.N.N.N.N.N.N.N.S.N.N.S.V.z.S.S.S.x.n.$.H l e r 5 7 > d R 6.b.k.V.z.z.j.",
"k.z.m.M.G.m.x.z.z.z.z.z.x.x.x.m.F.M.m.D.x.x.x.x.x.x.C.B.G.i.o.t : 4 7 7 e q S 1.m.k.k.V.h.z.x.b.",
"z.z.x.m.x.x.x.z.x.l.z.l.l.x.b.m.M.m.m.m.x.x.x.l.z.k.b.n.w.;.z 4 7 t t 1 g { e.z.h.z.V.V.x.V.x.n.",
"x.z.z.x.x.x.x.z.x.x.x.z.x.x.x.x.z.z.z.z.z.z.z.k.h.z.k.q...Q ! I c 4 X A 3.0.x.z.z.V.x.M.M.x.F.).",
"z.z.x.z.x.z.x.z.x.x.z.x.x.z.z.x.z.V.z.z.z.z.z.z.z.z.9.&.G / O.S H I =.y.T.M.x.z.z.V.V.M.m.V.C.G.",
"x.x.z.x.z.x.z.x.z.z.x.z.z.z.x.z.z.V.z.V.z.z.z.z.k.z.x.,.G / 7.7.7.w.r.b.j.h.V.z.V.V.x.m.x.h.h.M.",
"z.z.z.z.z.x.x.z.x.z.z.z.x.z.x.z.x.z.z.z.z.z.z.z.z.k.l.1.,.6.] w.m.x.A.F.B.B.V.h.V.V.x.x.V.V.V./.",
"x.z.z.z.z.z.z.z.z.x.z.z.z.x.z.x.V.z.V.z.z.V.z.z.z.z.l.b.e.n.0.x.C.N.N.N.N.B.x.x.V.B.x.x.V.V.D.&X",
"V.x.z.x.k.z.z.z.z.k.z.z.x.V.z.x.z.z.V.z.z.z.V.z.V.x.x.m.b.b.x.h.N.N.N.B.C.V.x.z.x.B.x.z.z.h./.0X",
"F.x.z.z.x.x.z.x.x.x.x.z.x.z.x.z.V.z.z.z.z.V.z.z.h.N.x.x.x.x.z.N.h.B.x.x.x.x.z.z.x.N.x.z.z.z.L.fX",
"A.V.z.z.F.m.F.V.C.C.F.C.C.x.x.V.x.x.V.x.x.V.V.x.C.B.F.F.G.A.C.V.V.z.z.z.z.x.z.z.V.N.x.z.z.z.{.nX",
"Z.N.V.z.n.T.M.V.V.x.C.x.x.x.x.x.x.M.m.F.x.x.V.V.V.x.x.F.x.x.x.x.V.V.z.z.z.V.V.V.N.S.x.x.z.z.XXMX",
" Xc.h.x.m.n.m.h.C.F.F.C.H.F.F.x.m.G.G.F.x.V.x.V.x.x.B.x.x.x.j.h.x.m.m.m.x.x.x.x.V.V.x.k.z.M.@XSX",
"iX*XM.V.V.m.m.V.A.F.F.F.C.C.x.j.F.G.F.F.x.C.V.x.C.x.x.x.x.x.x.x.M.R.W.n.M.x.x.k.z.V.z.k.x.Y.eXHX",
"VX3XE.N.z.z.z.z.z.x.x.j.j.z.x.j.x.x.x.x.x.x.x.x.x.x.x.x.F.C.F.F.M.).).G.C.x.z.z.z.V.z.z.x.^.aXHX",
"GXgX{.N.V.h.h.V.j.z.h.x.x.x.x.x.C.x.V.x.x.x.x.m.x.B.x.x.x.x.x.x.x.m.x.V.V.z.z.l.l.x.z.N.c.>XlXGX",
"IXSXrXU.].(.G.D.V.j.j.x.j.x.x.F.C.C.C.x.J.J.J.`.H.F.F.F.x.x.x.x.z.z.z.V.N.c.Y.|.;X+XK.I.+XpXSXHX",
"UXIXAXpX4X<X%X[.J.x.x.x.x.x.x.F.C.V.V.x.B.x.j.m.m.x.C.x.F.x.x.x.x.k.z.x.c.[.0XfXcXvXaXyXlXDXPXIX"
};
