/* XPM */
static char *composition[] = {
/* columns rows colors chars-per-pixel */
"48 48 158 2",
"   c #EC1A1B",
".  c #F60505",
"X  c #F60609",
"o  c #F50A06",
"O  c #F50C0B",
"+  c #FB0503",
"@  c #FC0509",
"#  c #FC0A06",
"$  c #FB0B0A",
"%  c #F40E12",
"&  c #FF0511",
"*  c #FB0C12",
"=  c #F6120D",
"-  c #FB120D",
";  c #F51314",
":  c #F3151A",
">  c #F31A14",
",  c #F61C1D",
"<  c #FC1413",
"1  c #FC1419",
"2  c #FC1A14",
"3  c #FC1A1A",
"4  c #F41E21",
"5  c #FD1D22",
"6  c #F5211C",
"7  c #FC221E",
"8  c #E7242D",
"9  c #E52B2E",
"0  c #EC2424",
"q  c #EE2529",
"w  c #EC2925",
"e  c #ED2831",
"r  c #E73637",
"t  c #EC3533",
"y  c #EC353B",
"u  c #EC3A3B",
"i  c #F32322",
"p  c #F32429",
"a  c #F42822",
"s  c #F62D2A",
"d  c #FC2423",
"f  c #FA252A",
"g  c #FC2A24",
"h  c #FD2B2B",
"j  c #F12530",
"k  c #F32D32",
"l  c #FD2E31",
"z  c #F4312E",
"x  c #FD312C",
"c  c #F33334",
"v  c #F33539",
"b  c #F13936",
"n  c #F43B38",
"m  c #FD3233",
"M  c #FC353A",
"N  c #F93833",
"B  c #FE3C3B",
"V  c #EA3F41",
"C  c #F13643",
"Z  c #F23D42",
"A  c #F53C4A",
"S  c #FC3E45",
"D  c #F54239",
"F  c #FD433E",
"G  c #E54746",
"H  c #ED4245",
"J  c #EE404B",
"K  c #EA4B4B",
"L  c #EC4F50",
"P  c #EE524F",
"I  c #E1545F",
"U  c #EA575D",
"Y  c #EC5959",
"T  c #F44342",
"R  c #F24844",
"E  c #F04C4F",
"W  c #FD4444",
"Q  c #FC444A",
"!  c #F94843",
"~  c #FF4F4F",
"^  c #F04D55",
"/  c #FE534E",
"(  c #F35252",
")  c #F45059",
"_  c #F05F5E",
"`  c #FB5252",
"'  c #FC5A5B",
"]  c #E65F65",
"[  c #EA5F62",
"{  c #F55B62",
"}  c #FF5E63",
"|  c #F0615F",
" . c #FC6359",
".. c #EE666B",
"X. c #F16367",
"o. c #F26A6A",
"O. c #F86363",
"+. c #F96768",
"@. c #FE6A63",
"#. c #FC6C6C",
"$. c #F66C70",
"%. c #FB6D70",
"&. c #FB716A",
"*. c #F37475",
"=. c #F7747B",
"-. c #F37B7C",
";. c #FB7473",
":. c #FB7B7A",
">. c #FD7E84",
",. c #FD847D",
"<. c #F68585",
"1. c #F7878D",
"2. c #F58C8E",
"3. c #FB8382",
"4. c #FB838B",
"5. c #FA8885",
"6. c #FB8A8A",
"7. c #FC8D94",
"8. c #FC918C",
"9. c #F49293",
"0. c #FC9294",
"q. c #FC959A",
"w. c #FE9A93",
"e. c #FE9D9E",
"r. c #FAA19D",
"t. c #F5A6AE",
"y. c #FEA3A3",
"u. c #FDA5A8",
"i. c #FEACAD",
"p. c #FCAFB3",
"a. c #FDB3B2",
"s. c #F8B7BB",
"d. c #FDBDB6",
"f. c #FEBBBC",
"g. c #FFC9B5",
"h. c #FEC5C3",
"j. c #FFC5C9",
"k. c #FECBCB",
"l. c #FFCDD4",
"z. c #FFD2CD",
"x. c #FED4D1",
"c. c #FFD2D8",
"v. c #FFDCD5",
"b. c #FFDBDA",
"n. c #FFDDE1",
"m. c #FFE1DA",
"M. c #FFE3E3",
"N. c #FFE5E9",
"B. c #FFE9E4",
"V. c #FEECEB",
"C. c #FFEEF0",
"Z. c #FFF0E4",
"A. c #FFF3ED",
"S. c #F6FFFE",
"D. c #FFF3F3",
"F. c #FFF7F8",
"G. c #FDFBF5",
"H. c #FEFEFE",
/* pixels */
"H.H.H.H.H.H.H.H.H.H.H.H.H.H.H.H.H.H.H.H.H.H.H.H.H.H.H.H.H.H.H.H.S.H.H.H.S.H.H.H.H.H.H.H.H.S.S.H.",
"H.H.H.H.H.H.H.H.H.H.H.H.H.H.H.H.H.H.H.H.H.H.H.H.H.H.H.H.H.H.H.H.H.H.H.F.H.H.H.H.S.H.S.H.H.H.H.H.",
"H.H.H.H.H.H.H.H.H.H.H.H.H.H.H.H.H.H.H.H.H.H.H.H.H.H.H.H.H.H.H.H.H.H.H.F.H.S.H.H.H.H.H.H.H.H.H.H.",
"H.H.H.H.H.H.H.H.H.H.H.H.H.H.H.H.H.H.H.H.H.H.H.H.H.H.H.H.H.H.H.H.H.H.H.S.S.H.H.H.H.H.F.H.H.H.H.H.",
"H.H.H.H.H.H.H.H.H.H.H.H.H.H.H.H.H.H.H.H.H.H.H.H.H.H.H.H.H.H.H.H.H.H.S.S.S.H.H.H.H.S.H.G.D.V.V.S.",
"H.H.H.H.H.H.H.H.H.H.H.H.H.H.H.H.H.H.H.H.H.H.H.H.H.H.H.H.H.H.H.H.H.H.H.H.H.H.H.S.G.V.j.9.u.u.x.G.",
"H.H.H.H.H.H.H.H.H.H.H.H.H.H.H.H.H.H.H.H.H.H.H.H.H.H.H.H.H.H.H.H.H.H.H.F.H.H.G.G.M.<.A p e ;.z.B.",
"H.H.H.H.H.H.H.H.H.H.H.H.H.H.H.H.H.H.H.H.H.H.H.H.H.H.H.H.H.H.H.H.H.H.H.H.H.S.H.n.4.q 1 2 2 v 9.A.",
"H.H.H.H.H.H.H.H.H.H.H.H.H.H.H.H.H.H.H.H.H.H.H.H.H.H.H.H.H.H.S.H.G.S.H.F.H.S.V.6.8 ; 2 7 2 H s.H.",
"H.H.H.H.H.H.H.H.H.H.H.H.H.H.H.H.H.H.H.H.H.H.H.H.H.H.H.H.H.H.S.G.H.H.H.H.H.D.i.' h 3 g   ( f.D.H.",
"H.H.H.H.H.H.H.H.H.H.H.H.H.H.H.H.H.H.H.H.H.H.H.H.H.H.H.H.H.H.H.H.H.H.H.S.C.7.y , : g   { l.F.G.G.",
"H.H.H.H.H.H.H.H.H.H.H.H.H.H.H.H.H.H.H.H.H.H.H.H.H.H.H.G.S.H.H.H.H.H.F.b.>.q $ < < < V j.H.H.S.G.",
"H.H.H.H.H.H.H.H.H.H.H.H.H.H.H.H.H.H.H.H.H.H.H.H.H.H.H.G.G.H.H.S.S.G.j.#.a - $ $ $ 0 e.F.H.H.H.H.",
"H.H.H.H.H.H.H.H.H.H.H.H.H.H.H.H.H.H.H.H.H.H.H.H.H.H.H.H.H.H.H.H.A.d.Y z h 1 $ X   ,.A.H.H.G.H.H.",
"H.H.H.H.H.H.H.H.H.H.H.H.H.H.H.H.H.H.H.H.H.H.H.H.H.H.S.H.H.H.G.A.a.P B f d 1 1 k 5.B.G.H.G.G.H.S.",
"H.H.H.H.H.H.H.H.H.H.H.H.H.H.H.H.H.H.H.H.H.H.H.H.H.H.S.H.H.S.G.k.X.q l d > 0 ( i.D.H.H.S.H.H.H.G.",
"H.H.H.H.H.H.H.H.H.H.H.H.H.H.H.H.H.H.H.H.H.H.H.H.H.H.H.S.S.G.b.*.Z S f   t &.a.D.S.H.H.H.H.H.H.H.",
"H.H.H.H.H.H.H.H.H.H.H.H.H.H.H.H.H.H.H.H.H.H.H.H.S.F.H.H.F.z.:.r / v Q ' w.z.V.H.H.H.H.H.H.H.H.H.",
"H.H.H.H.H.H.H.H.H.H.H.H.H.H.H.H.H.S.H.H.H.H.H.H.H.H.H.D.f.O.c S N n #.y.n.F.H.S.H.H.H.H.H.H.H.H.",
"H.H.H.H.H.H.H.H.H.H.H.H.H.H.H.H.H.G.H.H.H.H.S.G.H.G.B.y.E k m d g ` 1.n.H.H.S.H.H.H.H.H.H.H.H.H.",
"H.H.H.H.H.H.H.H.H.H.H.H.H.H.H.H.H.F.F.H.G.H.H.H.F.b.8.R s h 6 : p [ k.H.S.H.H.H.H.H.H.H.H.H.H.H.",
"H.H.H.H.H.H.H.H.H.H.H.H.H.H.H.H.H.S.S.H.H.H.H.D.j.*.Z h 7 < 4 u 5.x.F.S.H.G.G.H.H.H.H.H.H.H.H.H.",
"H.H.H.H.H.H.H.H.H.H.H.H.H.H.H.H.H.S.S.H.D.A.m.a.[ c M h 5 4 ' d.B.G.H.H.G.H.G.H.H.H.H.H.H.H.H.H.",
"H.H.H.H.H.H.H.H.H.H.H.H.H.H.H.H.H.H.D.k.q.<.,.( l l h s y o.k.D.S.H.H.H.S.H.H.H.S.H.H.H.H.H.H.H.",
"H.H.H.H.H.S.H.H.H.H.H.H.H.H.H.H.D.z.0.^ n T s g 3 d b  .r.b.F.S.S.H.H.H.H.H.H.H.S.H.H.H.H.H.H.H.",
"H.H.S.H.F.S.F.H.S.H.G.H.F.D.C.c.y.Y u N S B h : i H 5.k.D.H.H.H.H.H.H.H.H.H.H.H.H.H.H.H.H.H.H.H.",
"H.H.H.H.H.H.H.F.V.m.x.h.i.q.>._ y k B s , 1 h d Z a.B.G.F.H.H.H.S.H.H.H.H.H.H.H.H.H.H.H.H.H.H.H.",
"H.H.H.H.D.V.B.s.6.#.K H u v m h h g 1 1 1 : m N o.V.G.S.H.S.S.H.H.H.H.H.H.H.H.H.H.H.H.H.H.H.H.H.",
"H.H.H.D.i.] ;.} S l f h h m 7 3 < 2 < < 1 d W ! 2.D.H.H.H.S.S.H.H.H.H.H.H.H.H.H.H.H.H.H.H.H.H.H.",
"G.H.S.B.$.f d ; O O $ - O O < $ @ $ 3 3 7 N W T i.F.S.H.H.H.H.H.H.H.H.H.H.H.H.H.H.H.H.H.H.H.H.H.",
"S.S.G.z.( g g o $ $ - < < 3 3 @ + @ $ @ 6 F v X.b.S.H.H.H.S.H.F.H.H.H.H.H.H.H.H.H.H.H.H.H.H.H.H.",
"H.H.H.f.9 = 2 o * * 2 3 5 h 5 @ + # @ $ g N A a.G.H.S.H.F.H.H.H.H.H.H.H.H.H.H.H.H.H.H.H.H.H.H.H.",
"H.H.F.y.p 2 1 3 d $ * % 3 , - + @ # + < M b <.N.H.H.S.H.H.H.G.H.H.H.H.H.H.H.H.H.H.H.H.H.H.H.H.H.",
"F.H.N.*.h d ; h m < g m ` Q - + @ + # m W X.z.H.H.H.H.H.H.H.H.H.H.H.H.H.H.H.H.H.H.H.H.H.H.H.H.H.",
"H.H.j.Z 3 < $ + 1 $ > p @.T f < * X 3 g H a.A.S.H.H.H.H.H.H.H.H.H.H.H.H.H.H.H.H.H.H.H.H.H.H.H.H.",
"H.F.e.p $ @ X + h $ s T #.#.B p 1 * d 2 K b.G.H.H.H.H.H.H.H.H.H.H.H.H.H.H.H.H.H.H.H.H.H.H.H.H.H.",
"S.m.O.6 - $ $ $ h 3 a  .w.Q > l $ 5 5 % ( n.H.F.H.H.H.H.H.H.H.H.H.H.H.H.H.H.H.H.H.H.H.H.H.H.H.H.",
"G.y.p > g $ = $ g x h ! Q 4 d 7 X g d h :.C.S.H.H.H.H.H.H.H.H.H.H.H.H.H.H.H.H.H.H.H.H.H.H.H.H.H.",
"V...l , g @ $ $ 5 d x / c : 7 - O g z ` f.F.S.F.G.H.H.H.H.H.H.H.H.H.H.H.H.H.H.H.H.H.H.H.H.H.H.H.",
"k.;.n h 5 * # @ 1 $ # : k w h o < 2 W 4.M.H.H.H.H.H.H.H.H.H.H.H.H.H.H.H.H.H.H.H.H.H.H.H.H.H.H.H.",
"y.#.b m % d 3 3 3 - @ 3 @.@.< : < O y t.H.H.H.H.H.H.H.H.H.H.H.H.H.H.H.H.H.H.H.H.H.H.H.H.H.H.H.H.",
"w.Q k s ; 3 = % = = * ; W B 3 3 = 4 4.V.S.H.H.H.H.H.H.H.H.H.H.H.H.H.H.H.H.H.H.H.H.H.H.H.H.H.H.H.",
"8.v p F B M l f : * & * * X < < : +.m.F.H.H.H.H.H.H.H.H.H.H.H.H.H.H.H.H.H.H.H.H.H.H.H.H.H.H.H.H.",
"g._ l d < < % g h h d - # X ; i ) f.G.H.H.H.H.H.H.H.H.H.H.H.H.H.H.H.H.H.H.H.H.H.H.H.H.H.H.H.H.H.",
"A.a.=.L u T T T w a 7 > 3 s :.-.p.D.S.H.H.S.H.H.H.H.H.H.H.H.H.H.H.H.H.H.H.H.H.H.H.H.H.H.H.H.H.H.",
"H.H.N.z.k.x.z.k.0.o.| G C I B.G.H.H.H.H.H.G.H.H.H.H.H.H.H.H.H.H.H.H.H.H.H.H.H.H.H.H.H.H.H.H.H.H.",
"H.G.F.G.F.S.S.H.G.F.D.M.c.l.F.H.H.H.H.G.G.H.S.H.H.H.H.H.H.H.H.H.H.H.H.H.H.H.H.H.H.H.H.H.H.H.H.H.",
"F.S.G.H.S.H.H.H.H.H.H.H.H.H.H.S.S.H.H.H.H.H.H.H.H.H.H.H.H.H.H.H.H.H.H.H.H.H.H.H.H.H.H.H.H.H.H.H."
};
