/* XPM */
static char * h_xpm[] = {
"48 48 574 2",
"  	c #FFFFFF",
". 	c #FFFAE3",
"+ 	c #FFEEAD",
"@ 	c #FFF1B8",
"# 	c #FFF4C9",
"$ 	c #FFF8DB",
"% 	c #FFFBEA",
"& 	c #FFFEFA",
"* 	c #FFD8EF",
"= 	c #FFBDE5",
"- 	c #C4D9BE",
"; 	c #9FD074",
"> 	c #D1D144",
", 	c #DAD13E",
"' 	c #ECD74D",
") 	c #EDD74D",
"! 	c #F3DB56",
"~ 	c #FFEFB0",
"{ 	c #FFFEFE",
"] 	c #FFA6DB",
"^ 	c #F17BBE",
"/ 	c #3F9A35",
"( 	c #21A519",
"_ 	c #37A91A",
": 	c #3BA918",
"< 	c #51B22B",
"[ 	c #65B631",
"} 	c #D3D24B",
"| 	c #FFE88C",
"1 	c #FD8ACF",
"2 	c #A85D76",
"3 	c #1D9015",
"4 	c #0C9E0C",
"5 	c #0B9E0B",
"6 	c #0D9F0D",
"7 	c #2CAB2C",
"8 	c #42AF2C",
"9 	c #CFD355",
"0 	c #FFEC9D",
"a 	c #FFFCFE",
"b 	c #F874C1",
"c 	c #74664D",
"d 	c #0B9809",
"e 	c #0A9D0A",
"f 	c #15A215",
"g 	c #34AE34",
"h 	c #49AF27",
"i 	c #DED75A",
"j 	c #FFF0B2",
"k 	c #FFF1FA",
"l 	c #F06CB8",
"m 	c #5C6B3B",
"n 	c #049A04",
"o 	c #069B06",
"p 	c #039A03",
"q 	c #0F9E0F",
"r 	c #32AE32",
"s 	c #56B22B",
"t 	c #E6D95A",
"u 	c #FFF3C0",
"v 	c #FFE7F6",
"w 	c #E76CB0",
"x 	c #537337",
"y 	c #099D09",
"z 	c #029A02",
"A 	c #2FAB2F",
"B 	c #51B11F",
"C 	c #EDDB5C",
"D 	c #FFF5CE",
"E 	c #FFDFF3",
"F 	c #DE68A7",
"G 	c #48732E",
"H 	c #049B04",
"I 	c #13A113",
"J 	c #3BB03B",
"K 	c #53B019",
"L 	c #F0DA56",
"M 	c #FFF8DA",
"N 	c #FFDBF1",
"O 	c #D4689E",
"P 	c #407427",
"Q 	c #029902",
"R 	c #18A218",
"S 	c #4BB74B",
"T 	c #53AD13",
"U 	c #F6DC5A",
"V 	c #FFFAE6",
"W 	c #CA6595",
"X 	c #467A2F",
"Y 	c #0B9D0B",
"Z 	c #0E9F0E",
"` 	c #38B038",
" .	c #44B342",
"..	c #64B219",
"+.	c #FCDC5C",
"@.	c #FFFCF0",
"#.	c #FED5ED",
"$.	c #C66892",
"%.	c #407C2A",
"&.	c #10A010",
"*.	c #12A012",
"=.	c #3CB23C",
"-.	c #62C05D",
";.	c #7FB923",
">.	c #FCDE5F",
",.	c #FFFEF7",
"'.	c #FCCFE9",
").	c #BC6489",
"!.	c #3E7F29",
"~.	c #019A01",
"{.	c #059A05",
"].	c #059B05",
"^.	c #14A214",
"/.	c #4CB646",
"(.	c #77B519",
"_.	c #FCE168",
":.	c #FFFFFD",
"<.	c #FDCCE9",
"[.	c #BB6086",
"}.	c #3B7E27",
"|.	c #17A217",
"1.	c #54BC53",
"2.	c #70BE4A",
"3.	c #FBEFB2",
"4.	c #FAC7E5",
"5.	c #A15B6F",
"6.	c #338121",
"7.	c #2BAA2B",
"8.	c #45B545",
"9.	c #40B13E",
"0.	c #FEFEFA",
"a.	c #F4FAF4",
"b.	c #C7E9C7",
"c.	c #97D697",
"d.	c #86CF86",
"e.	c #85CF85",
"f.	c #7BCA7B",
"g.	c #7DCB7D",
"h.	c #7CCB7C",
"i.	c #70C570",
"j.	c #80CD80",
"k.	c #95D595",
"l.	c #ADDFAD",
"m.	c #E0F2E0",
"n.	c #FDFEFD",
"o.	c #F7BEDE",
"p.	c #A2596F",
"q.	c #2D801C",
"r.	c #29A929",
"s.	c #3AB03A",
"t.	c #30AC30",
"u.	c #80CC80",
"v.	c #4FB94F",
"w.	c #3CB13C",
"x.	c #47B547",
"y.	c #42B442",
"z.	c #58BC58",
"A.	c #36AF36",
"B.	c #31AC31",
"C.	c #43B443",
"D.	c #52B952",
"E.	c #5EBE5E",
"F.	c #79C979",
"G.	c #D9E5A2",
"H.	c #FEF0B3",
"I.	c #FFFDF7",
"J.	c #FFFFFE",
"K.	c #FEBDE4",
"L.	c #A36172",
"M.	c #27861A",
"N.	c #089C08",
"O.	c #33AD33",
"P.	c #20A620",
"Q.	c #16A216",
"R.	c #3EB23E",
"S.	c #34AD34",
"T.	c #39B039",
"U.	c #41B341",
"V.	c #37B037",
"W.	c #21A721",
"X.	c #2DAB2D",
"Y.	c #3BB13B",
"Z.	c #47B647",
"`.	c #49B649",
" +	c #48B648",
".+	c #6DBD4A",
"++	c #E7CF26",
"@+	c #FCDF61",
"#+	c #FFF7D9",
"$+	c #FFFFFC",
"%+	c #FEAFDE",
"&+	c #AE647D",
"*+	c #278E1D",
"=+	c #23A723",
"-+	c #0C9D0C",
";+	c #19A319",
">+	c #109F10",
",+	c #29AA29",
"'+	c #33AE33",
")+	c #37AF37",
"!+	c #32AD32",
"~+	c #26A826",
"{+	c #27A827",
"]+	c #56BC56",
"^+	c #54BB54",
"/+	c #5BB841",
"(+	c #C3C829",
"_+	c #FCDD55",
":+	c #FFF4CB",
"<+	c #FFFEFC",
"[+	c #FEA3DA",
"}+	c #D176A2",
"|+	c #41A03A",
"1+	c #25A825",
"2+	c #2EAB2E",
"3+	c #11A011",
"4+	c #1FA51F",
"5+	c #38AF38",
"6+	c #46B546",
"7+	c #45B445",
"8+	c #57BD57",
"9+	c #4DB84D",
"0+	c #4BB84B",
"a+	c #3DB13D",
"b+	c #35AE35",
"c+	c #18A318",
"d+	c #4FB53C",
"e+	c #B3C632",
"f+	c #FFF7D8",
"g+	c #FD97D4",
"h+	c #DD7AAE",
"i+	c #5CB358",
"j+	c #2FAD2F",
"k+	c #1CA51C",
"l+	c #1EA51E",
"m+	c #3FB33F",
"n+	c #4EB94E",
"o+	c #28A928",
"p+	c #079C07",
"q+	c #0E9E0E",
"r+	c #44B444",
"s+	c #4EB432",
"t+	c #D7D34F",
"u+	c #FFE789",
"v+	c #FFFCF2",
"w+	c #FFFBFD",
"x+	c #FB8DCE",
"y+	c #DB80AE",
"z+	c #42AF40",
"A+	c #0D9E0D",
"B+	c #3FB23F",
"C+	c #22A622",
"D+	c #4AB64A",
"E+	c #21A621",
"F+	c #1BA41B",
"G+	c #42B342",
"H+	c #40B440",
"I+	c #5DBE5D",
"J+	c #51BA51",
"K+	c #26A926",
"L+	c #24A824",
"M+	c #099C09",
"N+	c #41B33F",
"O+	c #84C245",
"P+	c #FCE169",
"Q+	c #FFF4C7",
"R+	c #FFF2F9",
"S+	c #FE87CD",
"T+	c #C3839B",
"U+	c #53BA52",
"V+	c #31AD31",
"W+	c #40B340",
"X+	c #53BA53",
"Y+	c #83CE83",
"Z+	c #B0DFB0",
"`+	c #D6EFD6",
" @	c #EEF8EE",
".@	c #F8FCF8",
"+@	c #F7FCF7",
"@@	c #C8E9C8",
"#@	c #50B850",
"$@	c #1EA61E",
"%@	c #2AAA2A",
"&@	c #58B94A",
"*@	c #E7DD6E",
"=@	c #FFE891",
"-@	c #FFFDF4",
";@	c #FFE8F6",
">@	c #F983C8",
",@	c #B18A8F",
"'@	c #4EB84E",
")@	c #089B08",
"!@	c #30AD30",
"~@	c #3EB037",
"{@	c #92C342",
"]@	c #D9E396",
"^@	c #FFFEFB",
"/@	c #E2F4E2",
"(@	c #17A317",
"_@	c #3CB13B",
":@	c #C1D879",
"<@	c #FFE475",
"[@	c #FFF8D7",
"}@	c #FFDBF0",
"|@	c #BA6186",
"1@	c #6B7A4E",
"2@	c #1BA31B",
"3@	c #2FAC2F",
"4@	c #36AF35",
"5@	c #A2CE63",
"6@	c #FDDC54",
"7@	c #FFEFB4",
"8@	c #FFFEFD",
"9@	c #8CD18C",
"0@	c #51B951",
"a@	c #069C06",
"b@	c #70C158",
"c@	c #FDE069",
"d@	c #FFF1B9",
"e@	c #FDD3EC",
"f@	c #9F5B6D",
"g@	c #52813B",
"h@	c #95CE79",
"i@	c #FFE271",
"j@	c #FFE688",
"k@	c #CDEBCD",
"l@	c #F1DF70",
"m@	c #FFEB96",
"n@	c #FFFCF3",
"o@	c #EFC2D9",
"p@	c #A75571",
"q@	c #598A45",
"r@	c #14A114",
"s@	c #079B07",
"t@	c #48B543",
"u@	c #FEEFAD",
"v@	c #FFE064",
"w@	c #FFFBE6",
"x@	c #CBD66C",
"y@	c #FFE682",
"z@	c #FFFAE7",
"A@	c #D6B2BE",
"B@	c #A04F68",
"C@	c #418930",
"D@	c #13A013",
"E@	c #6DC056",
"F@	c #FFE373",
"G@	c #FFECA0",
"H@	c #EAF6EA",
"I@	c #0F9F0F",
"J@	c #0C9F0C",
"K@	c #0A9C0A",
"L@	c #6AB525",
"M@	c #FDE272",
"N@	c #FFF9DF",
"O@	c #D2AFB9",
"P@	c #985364",
"Q@	c #29881C",
"R@	c #1DA41D",
"S@	c #23A722",
"T@	c #C8E096",
"U@	c #FFDC52",
"V@	c #FFF9E1",
"W@	c #1CA41C",
"X@	c #5BB322",
"Y@	c #F2DC5E",
"Z@	c #E7B4CC",
"`@	c #924D5C",
" #	c #2D8D21",
".#	c #27A927",
"+#	c #22A722",
"@#	c #59BC53",
"##	c #F6E793",
"$#	c #FFDD55",
"%#	c #FFFEF8",
"&#	c #FEFEFE",
"*#	c #61C061",
"=#	c #24A724",
"-#	c #15A115",
";#	c #49AD16",
">#	c #E0D448",
",#	c #FFF7D7",
"'#	c #D6A9BB",
")#	c #904859",
"!#	c #268B1A",
"~#	c #019901",
"{#	c #4CB742",
"]#	c #F2DC5A",
"^#	c #FFD942",
"/#	c #5ABD5A",
"(#	c #26A726",
"_#	c #52BA52",
":#	c #74BD45",
"<#	c #D6CF38",
"[#	c #FFF6D4",
"}#	c #BE9EA2",
"|#	c #A64F6D",
"1#	c #318F25",
"2#	c #31AB23",
"3#	c #E3CD1F",
"4#	c #FFD83E",
"5#	c #FFF9E3",
"6#	c #A6DBA6",
"7#	c #25A725",
"8#	c #20A720",
"9#	c #5CBD5C",
"0#	c #56B42D",
"a#	c #D0CB2F",
"b#	c #FFF6D3",
"c#	c #D6A9BA",
"d#	c #BB5582",
"e#	c #449638",
"f#	c #25A619",
"g#	c #C6C61E",
"h#	c #FEDD59",
"i#	c #ACDDAC",
"j#	c #57BC57",
"k#	c #4BB025",
"l#	c #D9D13B",
"m#	c #CEA9B3",
"n#	c #B3557C",
"o#	c #2D891F",
"p#	c #22A419",
"q#	c #9BBF24",
"r#	c #FCE275",
"s#	c #EBF7EB",
"t#	c #29A829",
"u#	c #1AA31A",
"v#	c #40AB18",
"w#	c #D8CF37",
"x#	c #FFF6D2",
"y#	c #D8B1BF",
"z#	c #A1546C",
"A#	c #308A23",
"B#	c #B4C837",
"C#	c #EFE180",
"D#	c #EAF7EA",
"E#	c #059C05",
"F#	c #6EC56E",
"G#	c #4EB124",
"H#	c #E6D542",
"I#	c #CCB0B4",
"J#	c #995365",
"K#	c #2C861D",
"L#	c #3AAF2F",
"M#	c #BDC833",
"N#	c #F3E793",
"O#	c #B3E0B3",
"P#	c #009900",
"Q#	c #87CE87",
"R#	c #61B83A",
"S#	c #F0D94F",
"T#	c #C8B0B1",
"U#	c #92505C",
"V#	c #308420",
"W#	c #2AA61E",
"X#	c #A3BD13",
"Y#	c #E9E694",
"Z#	c #A3DBA3",
"`#	c #75C875",
" $	c #7FC459",
".$	c #F8DB59",
"+$	c #F3C3DC",
"@$	c #9D5167",
"#$	c #398226",
"$$	c #039B03",
"%$	c #16A00A",
"&$	c #A2BC0E",
"*$	c #E7E597",
"=$	c #A1D9A1",
"-$	c #4AB74A",
";$	c #8BD18B",
">$	c #B4D784",
",$	c #FBDD5A",
"'$	c #FFF7D4",
")$	c #FDCAE8",
"!$	c #AD5877",
"~$	c #468131",
"{$	c #149F08",
"]$	c #ACC11A",
"^$	c #D5E087",
"/$	c #95D495",
"($	c #6BC36B",
"_$	c #C3E6C3",
":$	c #C8DC88",
"<$	c #F2DA57",
"[$	c #FFCDEB",
"}$	c #D0679B",
"|$	c #688D53",
"1$	c #27A81B",
"2$	c #ACC117",
"3$	c #F0E8A0",
"4$	c #A7DBA7",
"5$	c #70C670",
"6$	c #89D089",
"7$	c #CDD871",
"8$	c #F2DE65",
"9$	c #FFFAE2",
"0$	c #FFCFEC",
"a$	c #EB71B6",
"b$	c #A2A08B",
"c$	c #34AA27",
"d$	c #B9C31B",
"e$	c #FFEDA9",
"f$	c #F1FAF1",
"g$	c #6CC46C",
"h$	c #63C163",
"i$	c #3EB13E",
"j$	c #75C773",
"k$	c #CBCF49",
"l$	c #F7E37B",
"m$	c #FFFCEE",
"n$	c #FFCEEC",
"o$	c #F86FC0",
"p$	c #9F9A86",
"q$	c #119F11",
"r$	c #39AD2D",
"s$	c #C6CA31",
"t$	c #FFEDA3",
"u$	c #F0F9F0",
"v$	c #A5DCA5",
"w$	c #82CA73",
"x$	c #E9D850",
"y$	c #FEECA1",
"z$	c #FFFFFA",
"A$	c #FFD9F0",
"B$	c #FD7EC9",
"C$	c #CA5A91",
"D$	c #B24D78",
"E$	c #A34868",
"F$	c #D45F9B",
"G$	c #EF68B5",
"H$	c #F96FBD",
"I$	c #FE749E",
"J$	c #FFDAD4",
"K$	c #84CE84",
"L$	c #B5ACA0",
"M$	c #796451",
"N$	c #7B6554",
"O$	c #7B5F50",
"P$	c #697249",
"Q$	c #70AF4C",
"R$	c #D3CF3C",
"S$	c #FFF1BA",
"T$	c #FFFAFD",
"U$	c #FFE5F4",
"V$	c #C19EA5",
"W$	c #D090AB",
"X$	c #9F817C",
"Y$	c #F59FD0",
"Z$	c #FF9ED8",
"`$	c #FF99D6",
" %	c #FFA3D9",
".%	c #FFF6FA",
"+%	c #FCAEDD",
"@%	c #E56FAF",
"#%	c #DC6DA8",
"$%	c #A0536B",
"%%	c #AD7D86",
"&%	c #7EC071",
"*%	c #CCD76E",
"=%	c #FFF6D1",
"-%	c #EBF5EA",
";%	c #F5F9F4",
">%	c #C9E8C8",
",%	c #F6FAF5",
"'%	c #FFFDFE",
")%	c #FFFBFE",
"!%	c #F8F8F6",
"~%	c #D3EAD2",
"{%	c #F7F9F6",
"]%	c #E9F6E9",
"^%	c #F9F8E3",
"/%	c #FFFDF3",
"                                                                                                ",
"                                                                                                ",
"                          . + @ # $ % &                                                         ",
"                    * = - ; > , ' ) ! ~ {                                                       ",
"                    ] ^ / ( _ : < [ } |                                                         ",
"                    1 2 3 4 5 6 7 8 9 0                                                         ",
"                  a b c d 4 e f g h i j                                                         ",
"                  k l m n o p q r s t u                                                         ",
"                  v w x p y z e A B C D                                                         ",
"                  E F G H e z I J K L M                                                         ",
"                  N O P Q I z R S T U V                                                         ",
"                  * W X H Y Z `  ...+.@.                                                        ",
"                  #.$.%.z &.*.=.-.;.>.,.                                                        ",
"                  '.).!.~.{.].^./.(._.:.                                                        ",
"                  <.[.}.H o o |.1.2.3.                                                          ",
"                  4.5.6.].H p 7.8.9.0.a.b.c.d.e.f.g.h.i.j.k.l.m.n.                              ",
"                  o.p.q.].p z r.s.t.u.v.w.x.y.z.S A.B.J C.y.D.E.F.G.H.I.J.                      ",
"                  K.L.M.Z N.~.O.P.Q.R.S.T.w.U.A.V.W.X.w.Y.Z.U.`. +.+++@+#+$+                    ",
"                  %+&+*+=+-+p ;+>+=+,+t.'+)+A.!+~+R ;+{+7 )+` ]+'+^+/+(+_+:+<+                  ",
"                  [+}+|+1+2+3+3+Q.4+X.!+g 5+r 6+7+8+6+9+0+a+b+O.c+W.O.d+e+@+f+                  ",
"                  g+h+i+j+b+k+7 >+l+m+n+5+b+w.w.`.a+S a+C.o+A.p+e q+2+r+s+t+u+v+                ",
"                w+x+y+z+b+7 A+T.B+C+D+6+E+F+U.x.G+H+I+J+C.K+L+e p+*.M+l+N+O+P+Q+                ",
"                R+S+T+U+&.=+5 q+V+g W+J A.X+Y+Z+`+ @.@+@@@#@7.5 o $@Z p+%@&@*@=@-@              ",
"                ;@>@,@'@Y %@I )@!@T.~@{@]@^@              /@U.5+(@5 >+4 p+_@:@<@[@              ",
"                }@|@1@2@5 !@4 q 3@4@5@6@7@8@                9@0@P.].p N.a@&.b@c@d@J.            ",
"                e@f@g@Z y 4+N.&.!+h@i@j@,.                  k@>+p+3+y o o >+;+l@m@n@            ",
"                o@p@q@3+o r@s@6 t@u@v@w@                    k@A+Y A+Q.].H X.4 x@y@z@            ",
"                A@B@C@D@H ].p p+E@F@G@                      H@P.5 I@$@J@l+K@P.L@M@N@            ",
"                O@P@Q@R@o c+A+S@T@U@V@                      .@7 p W@y W+3+A+3@X@Y@#+            ",
"                Z@`@ #.#H =++#@###$#%#                      &#*#Y F+3+H+=#-#R.;#>#,#            ",
"                '#)#!#|.~#I@,+{#]#^#V@                        /#~+I@R@(#!@I _#:#<#[#            ",
"                }#|#1#;+Q I@R@2#3#4#5#                        6#b+Q.O.7#%@8#9#0#a#b#            ",
"                c#d#e#F+o p N.f#g#h#&                         i#D+o '+9+k+*.j#k#l#b#            ",
"                m#n#o#p z ~.M+p#q#r#                          s#R n t#u#F+k+'@v#w#x#            ",
"                y#z#A#~#n ~.a@p#B#C#                          D#5 ~.-+E#+#Z F#G#H#x#            ",
"                I#J#K#z z ~.I@L#M#N#                          O#a@P#q+&.7 I Q#R#S#x#            ",
"                T#U#V#~.~#P#].W#X#Y#                          Z#5 H -#l+I+s.`# $.$b#            ",
"                +$@$#$z ~#P#$$%$&$*$                          =$-$Q.=+7#^+6+;$>$,$'$            ",
"                )$!$~$Q z P#n {$]$^$                          /$s.5 Y c+t.($_$:$<$f+            ",
"                [$}$|$p p P#o 1$2$3$                          4$o+>+I W.r+5$6$7$8$9$            ",
"                0$a$b$4 -+~#*.c$d$e$                          f$g$8.P.h$i$h$j$k$l$m$            ",
"                n$o$p$|.q$H |.r$s$t$                          u$v$]+!@l+k+b+w$x$y$z$            ",
"                A$B$C$D$E$F$G$H$I$J$                            K$L$M$N$O$P$Q$R$S$J.            ",
"                T$U$V$W$X$Y$Z$`$ %.%                            n.+%@%#%$%%%&%*%=%              ",
"                    -%;%>%,%a a '%                                a )%!%~%{%]%^%/%              ",
"                        n.                                              &#                      ",
"                                                                                                ",
"                                                                                                "};
