/* XPM */
static char * imprelation_xpm[] = {
"48 48 557 2",
"  	c None",
". 	c #FFFFFF",
"+ 	c #FEFFFF",
"@ 	c #EDF4FF",
"# 	c #D4E5FF",
"$ 	c #D9E8FF",
"% 	c #ECF4FF",
"& 	c #FCFDFF",
"* 	c #FEFEFF",
"= 	c #DBEAFF",
"- 	c #3C8AFF",
"; 	c #1D77FF",
"> 	c #237BFF",
", 	c #448FFF",
"' 	c #97C1FF",
") 	c #C5DCFF",
"! 	c #CEE2FF",
"~ 	c #D5E6FF",
"{ 	c #DDEBFF",
"] 	c #F2F7FF",
"^ 	c #F8FBFF",
"/ 	c #F9FBFF",
"( 	c #FDFEFF",
"_ 	c #B2D1FF",
": 	c #3E8BFF",
"< 	c #0367FF",
"[ 	c #0166FF",
"} 	c #0267FF",
"| 	c #0569FF",
"1 	c #0D6EFF",
"2 	c #1271FF",
"3 	c #1774FF",
"4 	c #2F82FF",
"5 	c #4D95FF",
"6 	c #569AFF",
"7 	c #579AFF",
"8 	c #86B7FF",
"9 	c #90BDFF",
"0 	c #B6D3FF",
"a 	c #FAFCFF",
"b 	c #217AFF",
"c 	c #0066FF",
"d 	c #0167FF",
"e 	c #0469FF",
"f 	c #1A75FF",
"g 	c #2A7FFF",
"h 	c #60A0FF",
"i 	c #75ACFF",
"j 	c #67A4FF",
"k 	c #B7D4FF",
"l 	c #F3F8FF",
"m 	c #83B5FF",
"n 	c #88B8FF",
"o 	c #EFF5FF",
"p 	c #E0ECFF",
"q 	c #EBF3FF",
"r 	c #EAF2FF",
"s 	c #0F6FFF",
"t 	c #0065FF",
"u 	c #9EC5FF",
"v 	c #3F8CFF",
"w 	c #1572FF",
"x 	c #A5C9FF",
"y 	c #E0EDFF",
"z 	c #267DFF",
"A 	c #0368FF",
"B 	c #086BFF",
"C 	c #1673FF",
"D 	c #3E8CFF",
"E 	c #E1EDFF",
"F 	c #C1D9FF",
"G 	c #70A9FF",
"H 	c #65A3FF",
"I 	c #5599FF",
"J 	c #3888FF",
"K 	c #1473FF",
"L 	c #0166FE",
"M 	c #0265FD",
"N 	c #0365FC",
"O 	c #0468FF",
"P 	c #61A0FF",
"Q 	c #F8FAFF",
"R 	c #F5F9FF",
"S 	c #E2EEFF",
"T 	c #277DFF",
"U 	c #0C63F4",
"V 	c #4F48B1",
"W 	c #1F59E0",
"X 	c #185CE6",
"Y 	c #1A5BE6",
"Z 	c #185CE7",
"` 	c #155EEA",
" .	c #87B7FF",
"..	c #E5F0FF",
"+.	c #458FFF",
"@.	c #693F99",
"#.	c #404DBF",
"$.	c #4D47B2",
"%.	c #6C3B94",
"&.	c #D4122B",
"*.	c #CC1533",
"=.	c #B31F4C",
"-.	c #2558DB",
";.	c #0563F9",
">.	c #096CFF",
",.	c #599BFF",
"'.	c #D3E4FF",
").	c #F0F6FF",
"!.	c #CCE0FF",
"~.	c #80B2FE",
"{.	c #307BF7",
"].	c #5F41A1",
"^.	c #9F2761",
"/.	c #F90206",
"(.	c #F70308",
"_.	c #EA0815",
":.	c #CE1431",
"<.	c #633E9C",
"[.	c #0D61F3",
"}.	c #2E82FF",
"|.	c #9DC5FF",
"1.	c #DEEBFF",
"2.	c #93BEFF",
"3.	c #2078FC",
"4.	c #2662DA",
"5.	c #6E3A92",
"6.	c #F5040A",
"7.	c #FB0204",
"8.	c #FD0102",
"9.	c #FC0103",
"0.	c #FA0205",
"a.	c #EB0814",
"b.	c #DC0E23",
"c.	c #643E9A",
"d.	c #0E60F1",
"e.	c #1F79FF",
"f.	c #F4F8FF",
"g.	c #BCD7FF",
"h.	c #7CB1FF",
"i.	c #4C4FB4",
"j.	c #C95C37",
"k.	c #E40B1B",
"l.	c #F3050C",
"m.	c #ED0712",
"n.	c #DE0D21",
"o.	c #E70A18",
"p.	c #F2050D",
"q.	c #E90A17",
"r.	c #D1132F",
"s.	c #7E3482",
"t.	c #0463FB",
"u.	c #297FFF",
"v.	c #C6DCFF",
"w.	c #FBFDFF",
"x.	c #F7FAFF",
"y.	c #98C2FF",
"z.	c #5D9DFF",
"A.	c #1B76FF",
"B.	c #0A6DFF",
"C.	c #0268FF",
"D.	c #1D6EE2",
"E.	c #EB9A14",
"F.	c #E50A1A",
"G.	c #C3183C",
"H.	c #A2255D",
"I.	c #A6255A",
"J.	c #BD1B43",
"K.	c #DC1227",
"L.	c #DF1629",
"M.	c #B42C59",
"N.	c #76388A",
"O.	c #CBE0FF",
"P.	c #DFECFF",
"Q.	c #90BCFF",
"R.	c #6EA8FF",
"S.	c #4E94FF",
"T.	c #287EFF",
"U.	c #0A6CFF",
"V.	c #AE9651",
"W.	c #F4500B",
"X.	c #F0060F",
"Y.	c #EF0610",
"Z.	c #E00C1F",
"`.	c #9A2865",
" +	c #4154C6",
".+	c #1F76FC",
"++	c #4D75E0",
"@+	c #7B7AC9",
"#+	c #A2588F",
"$+	c #983B79",
"%+	c #3055D1",
"&+	c #2F83FF",
"*+	c #C1DAFF",
"=+	c #6DA7FF",
"-+	c #3787FF",
";+	c #247CFF",
">+	c #0669FF",
",+	c #4C7DB3",
"'+	c #DE4321",
")+	c #E90916",
"!+	c #E50B1B",
"~+	c #CF1C39",
"{+	c #846EB7",
"]+	c #8FBCFF",
"^+	c #3586FF",
"/+	c #0B62F5",
"(+	c #145FEC",
"_+	c #0664F9",
":+	c #428EFF",
"<+	c #CFE3FF",
"[+	c #1A76FF",
"}+	c #637F9D",
"|+	c #E6301A",
"1+	c #F3070E",
"2+	c #F4080F",
"3+	c #E62A39",
"4+	c #E96976",
"5+	c #72AAFF",
"6+	c #1874FF",
"7+	c #066AFF",
"8+	c #5FA0FF",
"9+	c #E2EDFF",
"0+	c #1573FF",
"a+	c #2779F4",
"b+	c #BA886C",
"c+	c #F82716",
"d+	c #FF0606",
"e+	c #FE1415",
"f+	c #F43D44",
"g+	c #6B66BF",
"h+	c #B4D2FF",
"i+	c #2D81FF",
"j+	c #7EB1FF",
"k+	c #BDD8FF",
"l+	c #E5E7E5",
"m+	c #FF7325",
"n+	c #FF1212",
"o+	c #FF0707",
"p+	c #FE1E1F",
"q+	c #84438C",
"r+	c #076BFF",
"s+	c #C4DCFF",
"t+	c #68A4FF",
"u+	c #1070FF",
"v+	c #4790FF",
"w+	c #C9DFFF",
"x+	c #FFF4E3",
"y+	c #FF6A1C",
"z+	c #FF0D0D",
"A+	c #FF0909",
"B+	c #FB383B",
"C+	c #565DC1",
"D+	c #076AFF",
"E+	c #3384FF",
"F+	c #A0C6FF",
"G+	c #3184FF",
"H+	c #3083FF",
"I+	c #CADFFF",
"J+	c #FF691B",
"K+	c #FF1010",
"L+	c #FF0F0F",
"M+	c #BA4B75",
"N+	c #BAC4ED",
"O+	c #2E81FF",
"P+	c #1E78FF",
"Q+	c #5699FF",
"R+	c #7AAFFF",
"S+	c #257CFF",
"T+	c #4691FF",
"U+	c #B9D5FF",
"V+	c #FFF4E2",
"W+	c #FF6A1B",
"X+	c #FF1313",
"Y+	c #FF0A0A",
"Z+	c #BD3961",
"`+	c #C9ADCE",
" @	c #7FB2FF",
".@	c #0E6FFF",
"+@	c #C6DDFF",
"@@	c #FFF5E3",
"#@	c #FF7526",
"$@	c #FF1111",
"%@	c #FF0808",
"&@	c #BE3158",
"*@	c #C8A9C9",
"=@	c #106FFF",
"-@	c #3989FF",
";@	c #5D9EFF",
">@	c #5182EB",
",@	c #4D8BF5",
"'@	c #4C94FF",
")@	c #FFE9B8",
"!@	c #FF6B33",
"~@	c #BD3159",
"{@	c #C8CBEC",
"]@	c #C8DFFF",
"^@	c #71AAFF",
"/@	c #E8F1FF",
"(@	c #CADAFA",
"_@	c #C9D5F6",
":@	c #C9DBFB",
"<@	c #C7DDFF",
"[@	c #EDF2FC",
"}@	c #9F92CB",
"|@	c #84549E",
"1@	c #FF2E2E",
"2@	c #FF3535",
"3@	c #905598",
"4@	c #5B92F4",
"5@	c #E2ECFD",
"6@	c #FFC549",
"7@	c #FF4B4B",
"8@	c #BD3259",
"9@	c #C8CDEE",
"0@	c #F2F5FD",
"a@	c #7699EB",
"b@	c #9F5A93",
"c@	c #B8426D",
"d@	c #B8537D",
"e@	c #6479D6",
"f@	c #A3C8FF",
"g@	c #A19AD2",
"h@	c #E44757",
"i@	c #FF2121",
"j@	c #FF2727",
"k@	c #FF2626",
"l@	c #A9497D",
"m@	c #BBBAE3",
"n@	c #FFC344",
"o@	c #FF5757",
"p@	c #FF0C0C",
"q@	c #BC335B",
"r@	c #C7CFF0",
"s@	c #6B88E0",
"t@	c #F25059",
"u@	c #FB2C2E",
"v@	c #FF2828",
"w@	c #F53B41",
"x@	c #A499D0",
"y@	c #F65C61",
"z@	c #FF2222",
"A@	c #FF2525",
"B@	c #FF3D3D",
"C@	c #F13840",
"D@	c #D7758D",
"E@	c #FFBD3E",
"F@	c #FF4D4D",
"G@	c #FF0E0E",
"H@	c #BC4069",
"I@	c #C6D0F1",
"J@	c #90B7FA",
"K@	c #7E5EAC",
"L@	c #FF2D2D",
"M@	c #FF2020",
"N@	c #FF2B2B",
"O@	c #FF6767",
"P@	c #FF3426",
"Q@	c #FF1515",
"R@	c #FF9797",
"S@	c #FFA3A3",
"T@	c #FF5D5D",
"U@	c #FF3A3A",
"V@	c #FF4747",
"W@	c #FFB539",
"X@	c #FF3939",
"Y@	c #BB4670",
"Z@	c #C6D0F2",
"`@	c #FFFCFC",
" #	c #FFFBFB",
".#	c #FFC2C2",
"+#	c #FF2929",
"@#	c #FF9D9D",
"##	c #FF5B5B",
"$#	c #FF6813",
"%#	c #FFF0F0",
"&#	c #FFD9D9",
"*#	c #FF5F5F",
"=#	c #FF4343",
"-#	c #FFB637",
";#	c #FF2C2C",
">#	c #BC4972",
",#	c #FFF5F5",
"'#	c #FFE4E4",
")#	c #FFEBEB",
"!#	c #FFBC5C",
"~#	c #FF1919",
"{#	c #FF5353",
"]#	c #FFF7F7",
"^#	c #FF6464",
"/#	c #FF3737",
"(#	c #FF8B08",
"_#	c #FF2516",
":#	c #FF8080",
"<#	c #FFD4D4",
"[#	c #FF4A4A",
"}#	c #FF3636",
"|#	c #FF4141",
"1#	c #FFC645",
"2#	c #B93760",
"3#	c #C5CFF2",
"4#	c #FFB0B0",
"5#	c #FF5A5A",
"6#	c #FFA226",
"7#	c #FF3030",
"8#	c #FF8585",
"9#	c #FF4F4F",
"0#	c #FF9605",
"a#	c #FF1616",
"b#	c #FF2323",
"c#	c #FF9A9A",
"d#	c #FFD7D7",
"e#	c #FF4545",
"f#	c #FFC94B",
"g#	c #B73D68",
"h#	c #C2C7EB",
"i#	c #FFE8E8",
"j#	c #FF6969",
"k#	c #FF1F1F",
"l#	c #FF3131",
"m#	c #FF931D",
"n#	c #FF1D1D",
"o#	c #FFDEDE",
"p#	c #FF3E3E",
"q#	c #FF9005",
"r#	c #FF1B1B",
"s#	c #FFA7A7",
"t#	c #FFBBBB",
"u#	c #FF5050",
"v#	c #FF5E5E",
"w#	c #FFCB4C",
"x#	c #FF4646",
"y#	c #FF1818",
"z#	c #BA345E",
"A#	c #7179CF",
"B#	c #FFBFBF",
"C#	c #FF6565",
"D#	c #FF3838",
"E#	c #FF9423",
"F#	c #FF2424",
"G#	c #FF7777",
"H#	c #FFACAC",
"I#	c #FF4040",
"J#	c #FF980D",
"K#	c #FF3232",
"L#	c #FF3B3B",
"M#	c #FFAFAF",
"N#	c #FFDADA",
"O#	c #FFB6B6",
"P#	c #FF8E8E",
"Q#	c #FF7474",
"R#	c #FFB5B5",
"S#	c #FFCF4C",
"T#	c #FF5555",
"U#	c #E32739",
"V#	c #FF6D6D",
"W#	c #FFF1F1",
"X#	c #FFEFEF",
"Y#	c #FF9F2E",
"Z#	c #FF3C3C",
"`#	c #FFAEAE",
" $	c #FF9090",
".$	c #FF6060",
"+$	c #FFA618",
"@$	c #FF3F3F",
"#$	c #FF4949",
"$$	c #FFBDBD",
"%$	c #F49FA6",
"&$	c #EBA3AF",
"*$	c #9D96D2",
"=$	c #FFECEC",
"-$	c #FFD64A",
";$	c #FF7752",
">$	c #FF0B0B",
",$	c #FF3333",
"'$	c #FF8686",
")$	c #FFBCBC",
"!$	c #FF4C4C",
"~$	c #FF1717",
"{$	c #FF6A6A",
"]$	c #FFB03E",
"^$	c #FF4848",
"/$	c #FF9E9E",
"($	c #E6A6B5",
"_$	c #EB8693",
":$	c #FFA013",
"<$	c #FF3434",
"[$	c #FFB4B4",
"}$	c #B688B4",
"|$	c #7980CF",
"1$	c #8C98DD",
"2$	c #FFEAEA",
"3$	c #FFF1BA",
"4$	c #FF9E46",
"5$	c #FF1A1A",
"6$	c #FFBA46",
"7$	c #F6A5AA",
"8$	c #7696E8",
"9$	c #CF7F9D",
"0$	c #FF990A",
"a$	c #8B8CD1",
"b$	c #6E88E0",
"c$	c #CFC7E3",
"d$	c #F9ECF0",
"e$	c #FFFAE7",
"f$	c #FFCC75",
"g$	c #FF5B59",
"h$	c #FF2A2A",
"i$	c #FFEDED",
"j$	c #FFB641",
"k$	c #8758A0",
"l$	c #64A3FF",
"m$	c #FF1E1E",
"n$	c #FFF1B7",
"o$	c #FFBB89",
"p$	c #FFB740",
"q$	c #FF8888",
"r$	c #FF8282",
"s$	c #FF9604",
"t$	c #FFFBEA",
"u$	c #FFF3C6",
"v$	c #FFD3CE",
"w$	c #FF5C5C",
"x$	c #FF5252",
"y$	c #FFC0C0",
"z$	c #FFFAFA",
"A$	c #FFB13A",
"B$	c #FFA6A6",
"C$	c #FF7F7F",
"D$	c #FF9905",
"E$	c #FFF6F6",
"F$	c #FFFEFE",
"G$	c #FFFDFD",
"H$	c #FF6868",
"I$	c #FFCACA",
"J$	c #FFC9C9",
"K$	c #FFA026",
"L$	c #FFD0D0",
"M$	c #FF9494",
"N$	c #FFA107",
"O$	c #FFE9E9",
"P$	c #FFE0E0",
"Q$	c #FFCFCF",
"R$	c #FFCECE",
"S$	c #FF920D",
"T$	c #FF5656",
"U$	c #FFE3E3",
"V$	c #FFBD7C",
"W$	c #FF7070",
"X$	c #FFDCDC",
"Y$	c #FFBABA",
"Z$	c #FF8F57",
"`$	c #FF9898",
" %	c #FFF1D4",
".%	c #FFE5E5",
"+%	c #FFF8F5",
"@%	c #FFF9F9",
"#%	c #FFF2F2",
". . . . . . . . . . . . . . . . . . . . . . . . . . . . . . . . . . . . . . . . . . . . . . . . ",
". . . . . . . . . . . . . . . . . . . . . . . . . . . . . . . . . . . . . . . . . . . . . . . . ",
". . . . . . . . . . . . . . . . . . . . . . . . . . . . . . . . . . . . . . . . . . . . . . . . ",
". . . . . . . . . . . . . . . . . . . . . . . . . . . . . . . . . . . . . . . . . . . . . . . . ",
". . . . . . . . . . . . . . . . . . . . . . . . . . . . . . . . . . . . . . . . . . . . . . . . ",
". . . . . . . . . . . . . . . . . . . . + @ # $ % & . . . . . . . . . . . . . . . . . . . . . . ",
". . . . . . . . . . . . . . . . . . . * = - ; > , ' ) ! ~ { ] ^ ^ / ( . . . . . . . . . . . . . ",
". . . . . . . . . . . . . . . . . . . _ : < [ } } | 1 2 3 3 4 5 6 7 8 9 0 { a . . . . . . . . . ",
". . . . . . . . . . . . . . . . . . . b [ c c c d d [ [ [ } } } } } e 1 f g - h i j k l . . . . ",
". . . . . . . . . . . . . . . . . . m | d c c c c c c c c [ d [ [ } } } } [ } } } < n o . . p q ",
". . . . . . . . . . . . . . . . . r s } [ c c c c c c c c c c c c c c c c t t [ c d i a u v w x ",
". . . . . . . . . . . . . . . . . y z | A } } d c t c t d d c c c c c c c c t d c c B C e } D E ",
". . . . . . . . . . . . . . . . . & F G H I J K c c L M N c c c c c c c t c t c c t c c } O P Q ",
". . . . . . . . . . . . . . . . . . . . . R S T } U V W X Y Z ` c c c c c c c c c c c c } B  .( ",
". . . . . . . . . . . . . . . . . . . . . * ..+.@.#.$.%.&.*.=.-.;.c c c c c t c c c c } >.,.'.. ",
". . . . . . . . . . . . . . . . . . . ).!.~.{.].^./.(.(.(./._.:.<.[.c t c c c c c A }.|.1.& . . ",
". . . . . . . . . . . . . . . . R $ 2.7 3.4.5.6.7.8.9.0./.7./.a.b.c.d.t c c c c e. .r . . . . . ",
". . . . . . . . . . . . & f.S g.h.b A A i.j.k././.l.m.n.o.p./.q.r.s.t.c c c c u.v.w.. . . . . . ",
". . . . . . . . . . x.{ y.z.A.B.A A C.D.E.F.p.(.o.G.H.I.J.K.L.M.N.c c c c c z O.+ . . . . . . . ",
". . . . . a P.O.Q.R.S.T.U.} [ C.d c c V.W.X.Y.Z.`. +.+++@+#+$+%+c c c c d &+*+w.. . . . . . . . ",
". . @ ) =+-+}.;+>+A } [ [ d c c c c ,+'+)+p.!+~+{+i ]+9 ^+/+(+_+c c c e :+<+( . . . . . . . . . ",
". ] i [+A A } } t t c c c c c c c c }+|+1+2+3+4+_ 5+6+O d c c c c c 7+8+9+. . . . . . . . . . . ",
". S 0+} d [ c c c c c c c c c [ 1 a+b+c+d+e+f+g+1 O } d [ c c c c >.' ^ . . . . . . . . . . . . ",
". h+C c c c c c c c c d | U.i+j+k+l+m+n+o+p+q+>+d } } } [ c c r+S.s+& . . . . . . . . . . . . . ",
"t+u+d c c c c c c c 1 v+n w+. . . x+y+z+A+B+C+A d } } } < D+E+F++ . . . . . . . . . . . . . . . ",
"G+d c c c c t d B H+I+. . . . . . x+J+K+L+M+N+O+} } O P+Q+I+( . . . . . . . . . . . . . . . . . ",
"R+[ c | f S+T+U+p & . . . . . . . V+W+X+Y+Z+`+ @>+B I ! x.. . . . . . . . . . . . . . . . . . . ",
"I+.@- m +@% . . . . . . . . . . . @@#@$@%@&@*@]+=@-@% . . . . . . . . . . . . . . . ;@>@,@'@. . ",
". U+. . . . . . . . . . . . . . . )@!@K+%@~@{@]@^@S . . . . . . . . /@(@_@:@<@. [@}@|@1@2@3@4@5@",
". . . . . . . . . . . . . . . . . 6@7@z+A+8@9@( . . . . . . . . . 0@a@b@c@d@e@f@g@h@1@i@j@k@l@m@",
". . . . . . . . . . . . . . . . . n@o@p@A+q@r@. . . . . . . . . . s@t@u@v@k@w@x@y@z@A@B@1@1@C@D@",
". . . . . . . . . . . . . . . . . E@F@n+G@H@I@. . . . . . . . . J@K@L@j@M@N@1@O@P@z+Q@R@S@T@U@V@",
". . . . . . . . . . . . . . . . . W@X@$@K+Y@Z@. . . . . . . `@ #.#+#Q@L@@###B@j@$#A@F@%#&#*#X@=#",
". . . . . . . . . . . . . . . . . -#;#z+X+>#I@. . . . . . ,#'#)#!#M@~#{#]#^#/#(#_#L@:#. <#[#}#|#",
". . . . . . . . . . . . . . . . . 1#;#%@G@2#3#. . . . . . 4#{#5#6#;#7#8#,#9#U@0#a#b#c#. d#B@X@e#",
". . . . . . . . . . . . . . . . . f#2@z+p@g#h#. . . . `@i#j#k#l#m#n#k@:#o#p#/#q#r#v@s#`@t#u#u#v#",
". . . . . . . . . . . . . . . . . w#x#y#p@z#A#. . . . B#C#j@r#D#E#M@F#G#H#5#I#J#K#L#M#N#O#P#Q#R#",
". . . . . . . . . . . . . . . . . S#T#y#p@a#U#V#W#. X#o@r#d+n+e#Y#Z#v@^#`# $.$+$@$#$$$S@%$&$*$=$",
". . . . . . . . . . . . . . . . . -$;$~#>$z+i@,$'$)$!$z@G@%@~${$]$x#;#^$/$($_$:$<$=#[$}$|$1$2$. ",
". . . . . . . . . . . . . . . . . 3$4$v@r#z+5$,$L#l#F#L+A+K+M@S@6$<$+#p#7$8$9$0$7#e#a$b$c$d$. . ",
". . . . . . . . . . . . . . . . . e$f$g$M@A@K+G@j@h$z+G@a#Q@C#i$j$M@k@k$l$. P#0#m$x#,#. . . . . ",
". . . . . . . . . . . . . . . . . . n$o$7@A@5$n+>$G@Q@b#A@|#B# #p$N@<$q$. . r$s$Q@=#,#. . . . . ",
". . . . . . . . . . . . . . . . . . t$u$v$w$k#~$Q@n#A@k@x$y$z$z$A$v@N@B$. . C$D$r#u#E$. . . . . ",
". . . . . . . . . . . . . . . . . . . F$. G$@#2@b#k@=#H$I$. . J$K$k@}#L$. . M$N$m$x$E$. . . . . ",
". . . . . . . . . . . . . . . . . . . . . . . . O$P$F$. . . . Q$6#~#;#R$. . /$S$i@T$E$. . . . . ",
". . . . . . . . . . . . . . . . . . . . . . . . . . . . . . . U$V$W$u#X$. . Y$Z${$`$z$. . . . . ",
". . . . . . . . . . . . . . . . . . . . . . . . . . . . . . . F$ %.%U$G$. . L$+%E$@%. . . . . . ",
". . . . . . . . . . . . . . . . . . . . . . . . . . . . . . . . . #%@%. . . . . . . . . . . . . "};
