/* XPM */
static char *inaggregation[] = {
/* columns rows colors chars-per-pixel */
"48 48 161 2",
"   c #EE160F",
".  c #ED1911",
"X  c #EB1B1C",
"o  c #F70F0A",
"O  c #FB0B0B",
"+  c #FA0E12",
"@  c #FB120E",
"#  c #F41314",
"$  c #F71719",
"%  c #F51914",
"&  c #F41C1B",
"*  c #FB1315",
"=  c #FC1519",
"-  c #FC1A13",
";  c #FB1B1B",
":  c #F31C21",
">  c #FC1C21",
",  c #EF251E",
"<  c #F5211D",
"1  c #FB211E",
"2  c #E7242D",
"3  c #E62B2E",
"4  c #EC2424",
"5  c #E92A2D",
"6  c #ED2831",
"7  c #E73637",
"8  c #E73E3F",
"9  c #ED3532",
"0  c #EC3639",
"q  c #EA3A35",
"w  c #EC3A3B",
"e  c #F32323",
"r  c #F4242A",
"t  c #F22923",
"y  c #F32A2B",
"u  c #FB2423",
"i  c #FC242B",
"p  c #FC2925",
"a  c #FC2A2A",
"s  c #F12530",
"d  c #F32E33",
"f  c #FA2E32",
"g  c #FC2E38",
"h  c #F73027",
"j  c #F4302E",
"k  c #FF3127",
"l  c #FC312B",
"z  c #F23434",
"x  c #F2353A",
"c  c #F33832",
"v  c #F23B3B",
"b  c #FD3334",
"n  c #FB3438",
"m  c #FF3A37",
"M  c #FD3B3A",
"N  c #EC3541",
"B  c #EA3E43",
"V  c #F23740",
"C  c #F23E42",
"Z  c #F53C4A",
"A  c #FB3D40",
"S  c #F54239",
"D  c #FE423C",
"F  c #DD575C",
"G  c #EC4344",
"H  c #EE4947",
"J  c #ED4A4B",
"K  c #E84B50",
"L  c #EB4F58",
"P  c #EE524F",
"I  c #EE5454",
"U  c #EA575D",
"Y  c #EC5A59",
"T  c #F34443",
"R  c #F34448",
"E  c #F24844",
"W  c #F04C4F",
"Q  c #FC4343",
"!  c #FD444A",
"~  c #FC4C4E",
"^  c #F54E53",
"/  c #FE4F50",
"(  c #F45152",
")  c #F35659",
"_  c #F35F5E",
"`  c #FA5150",
"'  c #FE5758",
"]  c #FB5A5B",
"[  c #E95D63",
"{  c #F25B61",
"}  c #F85C61",
"|  c #FA645E",
" . c #EB6666",
".. c #EE6669",
"X. c #EE6A6C",
"o. c #F26264",
"O. c #F06269",
"+. c #F26C6B",
"@. c #F86463",
"#. c #FC6668",
"$. c #FB6E6C",
"%. c #F66C70",
"&. c #FB6C70",
"*. c #FB716A",
"=. c #F47373",
"-. c #F57E7C",
";. c #FB7473",
":. c #FD7B76",
">. c #F87B7B",
",. c #FD847D",
"<. c #F38382",
"1. c #F7878D",
"2. c #F58C8B",
"3. c #FB8282",
"4. c #FC848B",
"5. c #FB8885",
"6. c #FC8B8B",
"7. c #FC8D94",
"8. c #FC938D",
"9. c #F49293",
"0. c #FB9396",
"q. c #F9959A",
"w. c #FE9995",
"e. c #FD9A9A",
"r. c #FCA19C",
"t. c #F3A7A4",
"y. c #FDA3A3",
"u. c #FDA5A8",
"i. c #FEABAA",
"p. c #FDADB1",
"a. c #FFB2AB",
"s. c #FEB3B1",
"d. c #F8B7BB",
"f. c #FDBDB6",
"g. c #FEBBBB",
"h. c #FFC8BB",
"j. c #FEC3C4",
"k. c #FFC6CA",
"l. c #FDC9C5",
"z. c #FECACB",
"x. c #FECED3",
"c. c #FFD3CB",
"v. c #FED3D2",
"b. c #FFD6D9",
"n. c #FFDBD6",
"m. c #FEDCDC",
"M. c #FFDDE1",
"N. c #FFE1DA",
"B. c #FFE3E3",
"V. c #FFE3E8",
"C. c #FFEAE3",
"Z. c #FEECEB",
"A. c #FFEDF2",
"S. c #FFF0E4",
"D. c #FFF2ED",
"F. c #FFFAEC",
"G. c #F6FFFD",
"H. c #FFF3F3",
"J. c #FFF5F8",
"K. c #FDFBF5",
"L. c #FEFEFE",
/* pixels */
"L.L.L.F.h.w.8.y.x.Z.J.L.L.L.L.L.L.L.G.J.G.L.L.L.L.L.L.L.L.L.L.L.L.L.L.L.L.L.L.L.L.L.L.L.L.L.L.L.",
"G.L.J.s.{ N ! *.;...y.N.K.J.L.L.L.G.L.L.L.L.G.L.L.L.L.L.L.L.L.L.L.L.L.L.L.L.L.L.L.L.L.L.L.L.L.L.",
"K.L.B.;.n r y c m f 5 #.r.l.N.K.L.G.G.L.L.J.L.L.L.L.L.L.L.L.L.L.L.L.L.L.L.L.L.L.L.L.L.L.L.L.L.L.",
"G.K.v.L u D h M n & = ; r G ;.y.g.l.B.K.L.L.G.L.L.L.L.L.L.L.L.L.L.L.L.L.L.L.L.L.L.L.L.L.L.L.L.L.",
"G.L.k.8 % D $ & f m p ; $ i g y 5 ~ &.p.H.L.L.L.L.L.L.L.L.L.L.L.L.L.L.L.L.L.L.L.L.L.L.L.L.L.L.L.",
"L.L.b.R   M r ' ] 0 y l t b a =   p r [ V.L.L.L.L.L.L.L.L.L.L.L.L.L.L.L.L.L.L.L.L.L.L.L.L.L.L.L.",
"L.G.x.G   M 0 y.m.f.<.o.H c u $ ; l a ;.C.G.L.L.L.L.L.L.L.L.L.L.L.L.L.L.L.L.L.L.L.L.L.L.L.L.L.L.",
"L.G.k.C p A ) b.L.L.H.V.l.y.=.~ X < p #.f.J.L.L.L.L.L.L.L.L.L.L.L.L.L.L.L.L.L.L.L.L.L.L.L.L.L.L.",
"J.J.q.3 k e J M.L.G.L.G.K.H.B.z.4.M u Q 2.Z.L.L.L.L.L.L.L.L.L.L.L.L.L.L.L.L.L.L.L.L.L.L.L.L.L.L.",
"L.H.X.t a = G x.L.L.L.L.L.L.L.J.j.H p n +.m.L.L.L.L.L.L.L.L.L.L.L.L.L.L.L.L.L.L.L.L.L.L.L.L.L.L.",
"L.D._ u 1 p { z.L.J.J.L.L.G.L.K.v.J u r K v.J.L.L.L.L.L.L.L.L.L.L.L.L.L.L.L.L.L.L.L.L.L.L.L.L.L.",
"L.C.G 1 * 1  .m.L.L.L.L.L.G.L.L.x.^ p b G l.L.L.L.L.L.L.L.L.L.L.L.L.L.L.L.L.L.L.L.L.L.L.L.L.L.L.",
"L.v.N u O # 5.H.L.L.L.L.L.G.L.L.x.] a b w s.J.L.L.L.L.L.L.L.L.L.L.L.L.L.L.L.L.L.L.L.L.L.L.L.L.L.",
"L.x.F y O + ' j.D.L.L.L.G.L.K.G.m.[ p l n e.H.L.L.L.L.L.L.L.L.L.L.L.L.L.L.L.L.L.L.L.L.L.L.L.L.L.",
"L.K.B.:.% > u 0 >.c.D.J.L.L.J.L.m._ > ; a 3.D.L.L.L.L.L.L.L.L.L.L.L.L.L.L.L.L.L.L.L.L.L.L.L.L.L.",
"K.L.J.:., > ; ; X H 6.j.Z.L.L.J.V.+.& ; y _ v.L.L.L.L.L.L.L.L.L.L.L.L.L.L.L.L.L.L.L.L.L.L.L.L.L.",
"L.L.L.i.^ : o * > > e v ;.g.m.m.n.8.4 - k 0 y.D.L.L.L.J.L.L.L.L.L.L.L.L.L.L.L.L.L.L.L.L.L.L.L.L.",
"L.L.L.H.g.#.& # ; a i i 4 B ) 6.i.a.v $ p a Y v.L.L.G.L.L.L.L.L.L.L.L.L.L.L.L.L.L.L.L.L.L.L.L.L.",
"L.G.L.G.G.m.4.q D f i i a a > X q @./ = & D x 0.D.G.G.G.L.L.L.G.L.L.L.L.L.L.L.L.L.L.L.L.L.L.L.L.",
"L.J.L.L.L.L.Z.t.,.) f $ % t M = * ; p = $ i n L k.L.L.L.L.L.L.L.L.L.L.L.L.L.L.L.L.L.L.L.L.L.L.L.",
"L.J.L.L.J.L.L.J.B.f.,.U H T v b a & 1 - = = D B q.K.J.K.L.L.L.L.L.L.L.L.L.L.L.L.L.L.L.L.L.L.L.L.",
"L.L.L.L.L.L.G.L.L.J.Z.m.n.a.+.z m Q b e = + D Q <.D.L.L.L.L.L.L.L.L.L.L.L.L.L.L.L.L.L.L.L.L.L.L.",
"L.G.G.L.L.L.L.L.G.L.L.L.L.D.c.<.G x ! ! g a p t ,.C.G.L.L.L.J.L.L.L.L.L.L.L.L.L.L.L.L.L.L.L.L.L.",
"L.L.L.L.L.L.L.G.L.G.L.L.L.L.L.Z.s...R Q b e ; u ` p.H.L.L.L.L.L.L.L.L.L.L.L.L.L.L.L.L.L.L.L.L.L.",
"L.L.L.L.L.L.L.L.L.L.L.L.L.L.L.L.L.n.i.1.X.C 4 1 f U k.J.L.L.J.L.J.L.L.L.L.L.L.L.L.L.L.L.L.L.L.L.",
"L.L.L.L.L.L.L.L.L.L.L.L.L.L.L.L.L.G.L.D.Z.a.T u l z =.m.L.L.L.L.L.L.L.L.L.L.L.L.L.L.L.L.L.L.L.L.",
"L.L.L.L.L.L.L.L.L.L.L.L.L.L.L.L.G.G.L.L.L.C.5.9 l n C 8.C.L.L.L.G.G.L.K.L.L.L.L.L.L.L.L.L.L.L.L.",
"L.L.L.L.L.L.L.L.L.L.L.L.L.L.L.L.L.L.G.L.L.K.z.@.z i a E y.D.L.L.L.L.L.L.L.L.L.L.L.L.L.L.L.L.L.L.",
"L.L.L.L.L.L.L.L.L.L.L.L.L.L.L.L.L.L.L.L.L.L.Z.e.0 = u a K g.J.L.L.L.L.L.G.L.L.L.L.L.L.L.L.L.L.L.",
"L.L.L.L.L.L.L.L.L.L.L.L.L.L.L.L.L.K.L.L.L.J.L.m.%.: - a d @.c.G.L.L.L.L.L.G.L.L.L.L.L.L.L.L.L.L.",
"L.L.L.L.L.L.L.L.L.L.L.L.L.L.L.L.L.L.L.G.G.L.L.J.l.] : < b z >.n.K.G.G.L.L.L.L.L.L.L.L.L.L.L.L.L.",
"L.L.L.L.L.L.L.L.L.L.L.L.L.L.L.L.L.L.G.L.L.L.L.L.K.g.w $ u A 7 =.z.D.L.L.L.L.L.L.L.L.L.L.L.L.L.L.",
"L.L.L.L.L.L.L.L.L.L.L.L.L.L.L.L.L.L.L.L.L.L.L.L.G.C.5.e u c ` V o.s.K.L.L.L.L.L.L.L.L.L.L.L.L.G.",
"L.L.L.L.L.L.L.L.L.L.L.L.L.L.L.L.L.L.L.L.L.L.L.L.L.L.v.[ ` S n ! t I f.J.J.L.L.L.L.L.G.L.L.L.L.L.",
"L.L.L.L.L.L.L.L.L.L.L.L.L.L.L.L.L.L.L.L.L.L.L.L.L.L.J.x.2.&.! i g m Y l.J.L.L.L.L.L.L.G.L.L.L.L.",
"L.L.L.L.L.L.L.L.L.L.L.L.L.L.L.L.L.L.L.L.L.L.L.L.L.L.G.L.M.y.] X u a j +.m.L.L.J.L.L.L.G.G.J.L.L.",
"L.L.L.L.L.L.L.L.L.L.L.L.L.L.L.L.L.L.L.L.L.L.L.L.L.G.L.G.J.B.w.q % u a e ,.A.G.L.L.L.L.G.G.L.L.G.",
"L.L.L.L.L.L.L.L.L.L.L.L.L.L.L.L.L.L.L.L.L.L.L.L.L.K.K.L.L.K.z.$.4 = = O r 7.K.L.G.L.J.L.L.L.L.L.",
"L.L.L.L.L.L.L.L.L.L.L.L.L.L.L.L.L.L.L.L.L.L.L.L.L.L.K.L.L.L.Z.s.L = O O + w i.Z.J.L.L.L.L.L.L.J.",
"L.L.L.L.L.L.L.L.L.L.L.L.L.L.L.L.L.L.L.L.L.L.L.L.L.J.L.L.L.L.G.D.i.z O O @ ; ] 1.B.K.L.L.L.L.L.L.",
"L.L.L.L.L.L.L.L.L.L.L.L.L.L.L.L.L.L.L.L.L.L.L.L.L.L.L.L.L.L.L.L.A.6.X o - $ i 2 4.B.K.L.L.L.L.L.",
"L.L.L.L.L.L.L.L.L.L.L.L.L.L.L.L.L.L.L.L.L.L.L.L.L.L.L.L.L.L.L.L.L.C.,.4 * p ; * 4 5.D.L.L.G.L.L.",
"L.L.L.L.L.L.L.L.L.L.L.L.L.L.L.L.L.L.L.L.L.L.L.L.L.L.L.L.L.L.L.L.L.L.Z.e.T X p - = Z k.L.L.L.G.L.",
"L.L.L.L.L.L.L.L.L.L.L.L.L.L.L.L.L.L.L.L.L.L.L.L.L.L.L.L.L.L.L.L.G.L.L.L.k.} . 1 * r 9.L.L.L.L.L.",
"L.L.L.L.L.L.L.L.L.L.L.L.L.L.L.L.L.L.L.L.L.L.L.L.L.L.L.L.L.L.L.L.L.L.K.L.L.x.^ $ % 6 u.D.L.L.L.L.",
"L.L.L.L.L.L.L.L.L.L.L.L.L.L.L.L.L.L.L.L.L.L.L.L.L.L.L.L.L.L.L.L.L.K.K.L.L.K.g.B v &.u.Z.G.L.L.G.",
"L.L.L.L.L.L.L.L.L.L.L.L.L.L.L.L.L.L.L.L.L.L.L.L.L.L.L.L.L.L.L.L.L.L.L.L.K.K.K.d.8.c.v.Z.L.J.L.G.",
"L.L.L.L.L.L.L.L.L.L.L.L.L.L.L.L.L.L.L.L.L.L.L.L.L.L.L.L.L.L.L.L.K.L.L.L.G.J.L.L.D.Z.J.G.L.L.L.L."
};
