/* XPM */
static char *inassociation[] = {
/* columns rows colors chars-per-pixel */
"48 48 145 2",
"   c #F71615",
".  c #F7171B",
"X  c #F41D1F",
"o  c #FA1413",
"O  c #FB1618",
"+  c #FD1C1C",
"@  c #F21E22",
"#  c #F5211A",
"$  c #FA201A",
"%  c #E62B29",
"&  c #EF2124",
"*  c #EB2E35",
"=  c #EE332C",
"-  c #E43739",
";  c #EA3435",
":  c #ED333A",
">  c #F42323",
",  c #F32628",
"<  c #F12827",
"1  c #F42C2C",
"2  c #FA2424",
"3  c #FB2529",
"4  c #FA2A25",
"5  c #FC2B2B",
"6  c #FD2F30",
"7  c #FC3227",
"8  c #FA312C",
"9  c #F33131",
"0  c #F6363F",
"q  c #F63937",
"w  c #F43A3B",
"e  c #FD3333",
"r  c #FB3238",
"t  c #FB3A35",
"y  c #FC393B",
"u  c #F73C41",
"i  c #FC3C40",
"p  c #EF403C",
"a  c #FB413D",
"s  c #E54C4B",
"d  c #EC4244",
"f  c #EE424A",
"g  c #ED4945",
"h  c #EC4D4C",
"j  c #EB4C51",
"k  c #ED5253",
"l  c #EB5A54",
"z  c #EC5D5E",
"x  c #F34246",
"c  c #F3454A",
"v  c #F34B4D",
"b  c #FC4343",
"n  c #FE4448",
"m  c #FC4947",
"M  c #FD4B4A",
"N  c #F24E52",
"B  c #F94A51",
"V  c #F55053",
"C  c #F25558",
"Z  c #F05A50",
"A  c #F35A5C",
"S  c #FA5352",
"D  c #FC565C",
"F  c #FC5D5A",
"G  c #FF5B61",
"H  c #EC615F",
"J  c #F1615C",
"K  c #E7686D",
"L  c #EF6062",
"P  c #E96670",
"I  c #EB7573",
"U  c #ED777A",
"Y  c #EE7C77",
"T  c #F26161",
"R  c #F76964",
"E  c #F36D6A",
"W  c #FB6362",
"Q  c #FF6769",
"!  c #FD6A6D",
"~  c #F46D70",
"^  c #FE6C71",
"/  c #F2726F",
"(  c #F9706D",
")  c #F37273",
"_  c #F57C7B",
"`  c #FA7572",
"'  c #F9767B",
"]  c #FC7B7D",
"[  c #F17E80",
"{  c #FA7D81",
"}  c #F8807B",
"|  c #EF8989",
" . c #ED8C94",
".. c #F58283",
"X. c #F38688",
"o. c #F38B89",
"O. c #FC8487",
"+. c #FB8985",
"@. c #FC8B89",
"#. c #FA8D91",
"$. c #FB928F",
"%. c #F19495",
"&. c #F29F9A",
"*. c #FD9292",
"=. c #FD9C96",
"-. c #FC9C9A",
";. c #FB9DA2",
":. c #FDA19F",
">. c #EDB4B3",
",. c #F5A3A3",
"<. c #FCA3A3",
"1. c #F8ABA5",
"2. c #FEACAB",
"3. c #FDB3AD",
"4. c #F7B5B1",
"5. c #F0B6BA",
"6. c #FEB3B3",
"7. c #FFBBB5",
"8. c #FEBCBA",
"9. c #FFBFC2",
"0. c #F4C1BF",
"q. c #FEC2BE",
"w. c #EFD2D3",
"e. c #FDC3C3",
"r. c #FEC6C9",
"t. c #FDC9C5",
"y. c #FFCDCC",
"u. c #FDCFD1",
"i. c #FFCDD8",
"p. c #FFD5CF",
"a. c #FDD3D2",
"s. c #FDD2D8",
"d. c #FEDBD5",
"f. c #FFDCDB",
"g. c #FFDFE0",
"h. c #FFE1DE",
"j. c #FEE4E3",
"k. c #FFE8E3",
"l. c #FEECEA",
"z. c #FFEFF1",
"x. c #FFF2ED",
"c. c #FEF4F3",
"v. c #FFF5FA",
"b. c #FEFAF5",
"n. c #FEFEFE",
/* pixels */
"n.n.n.n.n.n.n.n.n.n.b.n.n.n.n.n.n.n.n.n.n.n.n.n.n.n.n.n.n.n.n.n.n.n.n.n.n.n.n.n.n.n.n.n.n.n.n.n.",
"n.n.n.n.n.n.n.n.n.b.v.j.z.n.n.n.n.n.n.n.n.n.n.n.n.n.n.n.n.n.n.n.n.n.n.n.n.n.n.n.n.n.n.n.n.n.n.n.",
"n.n.n.n.n.n.n.n.n.x.y.%.5.b.n.n.n.n.n.n.n.n.n.n.n.n.n.n.n.n.n.n.n.n.n.n.n.n.n.n.n.n.n.n.n.n.n.n.",
"n.n.n.n.n.n.n.n.b.y.U A I d.n.n.n.n.n.n.n.n.n.n.n.n.n.n.n.n.n.n.n.n.n.n.n.n.n.n.n.n.n.n.n.n.n.n.",
"n.n.n.n.n.n.n.n.c.;.f y c <.c.n.n.n.n.n.n.n.n.n.n.n.n.n.n.n.n.n.n.n.n.n.n.n.n.n.n.n.n.n.n.n.n.n.",
"n.n.n.n.n.n.n.n.b.;.: 3 8 L h.n.n.n.n.n.n.n.n.n.n.n.n.n.n.n.n.n.n.n.n.n.n.n.n.n.n.n.n.n.n.n.n.n.",
"n.n.n.n.n.n.n.n.n.y.u 2 5 w 6.n.n.n.n.n.n.n.n.n.n.n.n.n.n.n.n.n.n.n.n.n.n.n.n.n.n.n.n.n.n.n.n.n.",
"n.n.n.n.n.n.n.n.n.l.E 4 5 e { l.n.n.n.n.n.n.n.n.n.n.n.n.n.n.n.n.n.n.n.n.n.n.n.n.n.n.n.n.n.n.n.n.",
"n.n.n.n.n.n.n.n.n.c.=.w e r N p.b.n.n.n.n.b.n.n.n.n.n.n.n.n.n.n.n.n.n.n.n.n.n.n.n.n.n.n.n.n.n.n.",
"n.n.n.n.n.n.n.n.n.n.8.M 5 y ; <.b.b.n.n.n.n.b.n.n.n.n.n.n.n.n.n.n.n.n.n.n.n.n.n.n.n.n.n.n.n.n.n.",
"n.n.n.n.n.n.n.b.n.n.d.A 3 5 q { j.n.n.n.n.n.n.n.n.n.n.n.n.n.n.n.n.n.n.n.n.n.n.n.n.n.n.n.n.n.n.n.",
"n.n.n.n.n.n.n.n.n.n.x.` @ . 3 A w.n.n.b.n.n.n.n.n.n.n.n.n.n.n.n.n.n.n.n.n.n.n.n.n.n.n.n.n.n.n.n.",
"n.n.n.n.n.n.n.n.n.n.b.,.< o e : &.b.n.n.n.n.n.n.n.n.n.n.n.n.n.n.n.n.n.n.n.n.n.n.n.n.n.n.n.n.n.n.",
"n.n.n.n.n.n.n.n.n.v.n.w.v   + , P k.b.b.n.n.n.n.n.n.n.n.n.n.n.n.n.n.n.n.n.n.n.n.n.n.n.n.n.n.n.n.",
"n.n.n.n.n.n.n.n.n.n.n.x.O.> + e g 8.b.n.n.n.n.n.n.n.n.n.n.n.n.n.n.n.n.n.n.n.n.n.n.n.n.n.n.n.n.n.",
"n.n.n.n.n.n.n.n.n.n.n.b.8.; O 5 1 [ x.n.n.b.n.n.n.n.n.n.n.n.n.n.n.n.n.n.n.n.n.n.n.n.n.n.n.n.n.n.",
"n.n.n.n.n.n.n.n.n.b.n.n.d.h O > e g u.n.n.n.n.n.n.n.n.n.n.n.n.n.n.n.n.n.n.n.n.n.n.n.n.n.n.n.n.n.",
"n.n.n.n.n.n.n.n.n.b.n.n.x.O.> . a % #.l.n.n.v.n.n.n.n.n.n.n.n.n.n.n.n.n.n.n.n.n.n.n.n.n.n.n.n.n.",
"n.n.n.n.n.n.n.n.n.n.n.n.v.q.- 5 6 y s q.b.n.n.n.n.n.n.n.n.n.n.n.n.n.n.n.n.n.n.n.n.n.n.n.n.n.n.n.",
"n.n.n.n.n.n.n.n.n.b.n.n.n.x.I F r G m } k.v.n.n.n.n.n.n.n.n.n.n.n.n.n.n.n.n.n.n.n.n.n.n.n.n.n.n.",
"n.n.n.n.n.n.n.n.n.n.n.n.n.b.t.Y v u a p :.b.n.n.n.n.n.n.n.n.n.n.n.n.n.n.n.n.n.n.n.n.n.n.n.n.n.n.",
"n.n.n.n.n.n.n.n.n.n.n.n.n.n.x.4.` n y 5 h u.b.n.n.n.n.n.n.n.n.n.n.n.n.n.n.n.n.n.n.n.n.n.n.n.n.n.",
"n.n.n.n.n.n.n.n.n.n.n.n.v.n.n.f.@.f & 8 b o.c.n.n.n.n.n.n.n.n.n.n.n.n.n.n.n.n.n.n.n.n.n.n.n.n.n.",
"n.n.n.n.n.n.n.n.n.n.n.n.n.n.n.x.8.T < e w A r.n.n.n.n.n.n.n.n.n.n.n.n.n.n.n.n.n.n.n.n.n.n.n.n.n.",
"n.n.n.n.n.n.n.n.n.n.n.n.n.n.n.n.k.#.y e M u %.c.n.n.n.n.n.n.n.n.n.n.n.n.n.n.n.n.n.n.n.n.n.n.n.n.",
"n.n.n.n.n.n.n.n.n.n.n.n.n.n.n.n.v.9.V 5 b : ` k.n.n.b.b.n.n.n.b.n.n.n.n.n.n.n.n.n.n.n.n.n.n.n.n.",
"n.n.n.n.n.n.n.n.n.n.n.n.n.n.n.n.n.h.H 2 t x N t.n.n.n.n.n.n.n.b.n.n.n.n.n.n.n.n.n.n.n.n.n.n.n.n.",
"n.n.n.n.n.n.n.n.n.n.n.n.n.n.n.n.n.c.} > # n = :.c.n.v.d.t.r.w.c.n.n.n.n.n.n.n.n.n.n.n.n.n.n.n.n.",
"n.n.n.n.n.n.n.n.n.n.n.n.n.n.n.n.n.v.6.w X n y ( g.n.j.K d B P f.n.n.n.n.n.n.n.n.n.n.n.n.n.n.n.n.",
"n.n.n.n.n.n.n.n.n.n.n.n.n.n.n.n.n.n.f.E 4 e S l 8.b.6.x 1 8 k s.n.n.n.n.n.n.n.n.n.n.n.n.n.n.n.n.",
"n.n.n.n.n.n.n.n.n.n.n.n.n.n.n.n.n.n.n.8.d < J A ,.l.$.5 # 7 l d.n.n.n.n.n.n.n.n.n.n.n.n.n.n.n.n.",
"n.n.n.n.n.n.n.n.n.n.n.n.n.n.n.n.n.n.n.l.@.= b ! [ u.@.@ . 5 V d.n.n.n.n.n.n.n.n.n.n.n.n.n.n.n.n.",
"n.n.n.n.n.n.n.n.n.n.n.n.n.n.n.n.n.n.n.n.d.R B ^ I 2.~ , @ y N f.n.n.n.n.n.n.n.n.n.n.n.n.n.n.n.n.",
"n.n.n.n.n.n.n.n.n.n.n.n.n.n.l.c.v.n.n.b.b.t.U ' @.<.] M 8 b C f.n.n.n.n.n.n.n.n.n.n.n.n.n.n.n.n.",
"n.n.n.n.n.n.n.n.n.n.n.n.v.l.0.>.l.b.n.n.n.b.e. .<.2.{ n 1 b k u.n.n.n.n.n.n.n.n.n.n.n.n.n.n.n.n.",
"n.n.n.n.n.n.n.n.n.n.n.b.l.>.&.| 3.d.k.v.n.b.l.0.4.6.! 5 5 b V y.n.n.n.n.n.n.n.n.n.n.n.n.n.n.n.n.",
"n.n.n.n.n.n.n.n.n.n.n.n.c.>.| $.-.X._ <.t.l.c.h.&.*.S X 4 a k p.n.n.n.n.n.n.n.n.n.n.n.n.n.n.n.n.",
"n.n.n.n.n.n.n.n.n.n.n.n.n.a.e.6.-.W 1 1 s -.i.f.2.{ S 2 9 F Y k.n.n.v.n.n.n.n.n.n.n.n.n.n.n.n.n.",
"n.n.n.n.n.n.n.n.n.v.n.n.n.j.a.e.] Q a # 1 c ] O.*.( F r D [ 8.c.n.n.n.n.n.n.n.n.n.n.n.n.n.n.n.n.",
"n.n.n.n.n.n.n.n.n.n.n.v.n.n.c.k.,.j x n e 1 b y 1 q m m G ;.q.w.v.n.n.n.n.n.n.n.n.n.n.n.n.n.n.n.",
"n.n.n.n.n.n.n.n.n.n.n.n.n.n.n.n.w. .s q t m w @ O o $ 7 w L ,.j.n.n.n.n.n.n.n.n.n.n.n.n.n.n.n.n.",
"n.n.n.n.n.n.n.n.n.n.n.n.n.n.n.n.n.c.5.I g w y y 3 + + O = E ,.c.n.n.n.n.n.n.n.n.n.n.n.n.n.n.n.n.",
"n.n.n.n.n.n.n.n.n.n.n.n.n.n.n.b.b.b.b.l.q.*.C ; 9 8 8 , z e.i.v.n.n.n.n.n.n.n.n.n.n.n.n.n.n.n.n.",
"n.n.n.n.n.n.n.n.n.n.n.n.n.n.n.n.n.n.n.n.n.c.d.3.+.H d f -.l.n.n.n.n.n.n.n.n.n.n.n.n.n.n.n.n.n.n.",
"n.n.n.n.n.n.n.n.n.n.n.n.n.n.n.n.n.n.n.n.n.n.n.n.l.f.6. .d.b.b.n.n.n.n.n.n.n.n.n.n.n.n.n.n.n.n.n.",
"n.n.n.n.n.n.n.n.n.n.n.n.n.n.n.n.n.n.b.n.b.n.b.n.n.n.b.l.b.b.n.n.n.n.n.n.n.n.n.n.n.n.n.n.n.n.n.n.",
"n.n.n.n.n.n.n.n.n.n.n.n.n.n.n.n.n.b.n.n.n.n.n.n.v.n.n.n.n.n.n.n.n.n.n.n.n.n.n.n.n.n.n.n.n.n.n.n.",
"n.n.n.n.n.n.n.n.n.n.n.n.n.n.n.n.n.n.n.n.n.n.n.n.b.n.n.n.n.n.n.n.n.n.n.n.n.n.n.n.n.n.n.n.n.n.n.n."
};
