/* XPM */
static char *incomposition[] = {
/* columns rows colors chars-per-pixel */
"48 48 158 2",
"   c #EC1A1B",
".  c #F60505",
"X  c #F60609",
"o  c #F50A06",
"O  c #F50C0B",
"+  c #FB0503",
"@  c #FC0509",
"#  c #FC0A06",
"$  c #FB0B0A",
"%  c #F40E12",
"&  c #FF0511",
"*  c #FB0C12",
"=  c #F6120D",
"-  c #FB120D",
";  c #F51314",
":  c #F3151A",
">  c #F31A14",
",  c #F61C1D",
"<  c #FC1413",
"1  c #FC1419",
"2  c #FC1A14",
"3  c #FC1A1A",
"4  c #F41E21",
"5  c #FD1D22",
"6  c #F5211C",
"7  c #FC221E",
"8  c #E7242D",
"9  c #E52B2E",
"0  c #EC2424",
"q  c #EE2529",
"w  c #EC2925",
"e  c #ED2831",
"r  c #E73637",
"t  c #EC3533",
"y  c #EC353B",
"u  c #EC3A3B",
"i  c #F32322",
"p  c #F32429",
"a  c #F42822",
"s  c #F62D2A",
"d  c #FC2423",
"f  c #FA252A",
"g  c #FC2A24",
"h  c #FD2B2B",
"j  c #F12530",
"k  c #F32D32",
"l  c #FD2E31",
"z  c #F4312E",
"x  c #FD312C",
"c  c #F33334",
"v  c #F33539",
"b  c #F13936",
"n  c #F43B38",
"m  c #FD3233",
"M  c #FC353A",
"N  c #F93833",
"B  c #FE3C3B",
"V  c #EA3F41",
"C  c #F13643",
"Z  c #F23D42",
"A  c #F53C4A",
"S  c #FC3E45",
"D  c #F54239",
"F  c #FD433E",
"G  c #E54746",
"H  c #ED4245",
"J  c #EE404B",
"K  c #EA4B4B",
"L  c #EC4F50",
"P  c #EE524F",
"I  c #E1545F",
"U  c #EA575D",
"Y  c #EC5959",
"T  c #F44342",
"R  c #F24844",
"E  c #F04C4F",
"W  c #FD4444",
"Q  c #FC444A",
"!  c #F94843",
"~  c #FF4F4F",
"^  c #F04D55",
"/  c #FE534E",
"(  c #F35252",
")  c #F45059",
"_  c #F05F5E",
"`  c #FB5252",
"'  c #FC5A5B",
"]  c #E65F65",
"[  c #EA5F62",
"{  c #F55B62",
"}  c #FF5E63",
"|  c #F0615F",
" . c #FC6359",
".. c #EE666B",
"X. c #F16367",
"o. c #F26A6A",
"O. c #F86363",
"+. c #F96768",
"@. c #FE6A63",
"#. c #FC6C6C",
"$. c #F66C70",
"%. c #FB6D70",
"&. c #FB716A",
"*. c #F37475",
"=. c #F7747B",
"-. c #F37B7C",
";. c #FB7473",
":. c #FB7B7A",
">. c #FD7E84",
",. c #FD847D",
"<. c #F68585",
"1. c #F7878D",
"2. c #F58C8E",
"3. c #FB8382",
"4. c #FB838B",
"5. c #FA8885",
"6. c #FB8A8A",
"7. c #FC8D94",
"8. c #FC918C",
"9. c #F49293",
"0. c #FC9294",
"q. c #FC959A",
"w. c #FE9A93",
"e. c #FE9D9E",
"r. c #FAA19D",
"t. c #F5A6AE",
"y. c #FEA3A3",
"u. c #FDA5A8",
"i. c #FEACAD",
"p. c #FCAFB3",
"a. c #FDB3B2",
"s. c #F8B7BB",
"d. c #FDBDB6",
"f. c #FEBBBC",
"g. c #FFC9B5",
"h. c #FEC5C3",
"j. c #FFC5C9",
"k. c #FECBCB",
"l. c #FFCDD4",
"z. c #FFD2CD",
"x. c #FED4D1",
"c. c #FFD2D8",
"v. c #FFDCD5",
"b. c #FFDBDA",
"n. c #FFDDE1",
"m. c #FFE1DA",
"M. c #FFE3E3",
"N. c #FFE5E9",
"B. c #FFE9E4",
"V. c #FEECEB",
"C. c #FFEEF0",
"Z. c #FFF0E4",
"A. c #FFF3ED",
"S. c #F6FFFE",
"D. c #FFF3F3",
"F. c #FFF7F8",
"G. c #FDFBF5",
"H. c #FEFEFE",
/* pixels */
"F.H.H.G.g.8.w.y.k.V.H.S.H.H.H.H.H.H.H.S.H.H.F.H.H.H.H.H.H.H.H.H.H.H.H.H.H.H.H.H.H.H.H.H.H.H.H.H.",
"G.H.H.a.Y v Q #.;...y.m.A.H.H.H.H.H.H.H.H.H.H.H.H.H.H.H.H.H.H.H.H.H.H.H.H.H.H.H.H.H.H.H.H.H.H.H.",
"G.G.N.=.m f k b n x p O.e.j.N.F.G.S.S.F.F.H.S.H.H.H.H.H.H.H.H.H.H.H.H.H.H.H.H.H.H.H.H.H.H.H.H.H.",
"H.G.x.K i F s l h , > , p Z *.y.f.z.M.D.H.H.H.H.H.H.H.H.H.H.H.H.H.H.H.H.H.H.H.H.H.H.H.H.H.H.H.H.",
"S.G.k.D 1 B ; % 5 d d < O 3 x p 9 ( #.i.D.H.H.H.H.H.H.H.H.H.H.H.H.H.H.H.H.H.H.H.H.H.H.H.H.H.H.H.",
"H.H.x.Z < M 3 7 < @ $ $ # < 7 < = g p ..B.H.H.S.H.H.H.H.H.H.H.H.H.H.H.H.H.H.H.H.H.H.H.H.H.H.H.H.",
"H.S.z.T % h O 3 # $ - $ @ $ ; 1 2 g g ;.B.F.H.H.H.H.H.H.H.H.H.H.H.H.H.H.H.H.H.H.H.H.H.H.H.H.H.H.",
"H.H.j.Z h f ; 7 @ $ $ # . @ h 5 X o ;  .s.H.H.H.H.H.H.H.H.H.H.H.H.H.H.H.H.H.H.H.H.H.H.H.H.H.H.H.",
"H.H.9.0 l ; ; 3 1 5 d h h 1 x d < $ $ S 6.V.H.H.H.H.H.H.H.H.H.H.H.H.H.H.H.H.H.H.H.H.H.H.H.H.H.H.",
"H.D.o.f h * O - # g x 3 % $ < $ * $ O l o.m.H.H.H.H.H.H.H.H.H.H.H.H.H.H.H.H.H.H.H.H.H.H.H.H.H.H.",
"H.A.Y 7 d & * # # x x g h > d $ 2 $ O f K x.H.F.H.H.H.H.H.H.H.H.H.H.H.H.H.H.H.H.H.H.H.H.H.H.H.H.",
"H.B.G 6 - & ; 3 : / T  .T p m ; 3 < - h H h.H.H.H.H.H.H.H.H.H.H.H.H.H.H.H.H.H.H.H.H.H.H.H.H.H.H.",
"H.c.C 3 # $ W @.c k Q w.#.@.` d 7 1 O x u p.F.H.H.H.H.H.H.H.H.H.H.H.H.H.H.H.H.H.H.H.H.H.H.H.H.H.",
"H.l.I s o X B @.w : 5 Q #.R W > f 3 * x v q.D.H.H.H.H.H.H.H.H.H.H.H.H.H.H.H.H.H.H.H.H.H.H.H.H.H.",
"H.F.m.:.; 1 3 ; h 7 g   M f = - 5 3 < 7 l >.V.H.H.H.H.H.H.H.H.H.H.H.H.H.H.H.H.H.H.H.H.H.H.H.H.H.",
"H.H.H.-.i < 3 1 . - 7 h f < + . # @ $ 2 g { b.H.H.H.H.H.H.H.H.H.H.H.H.H.H.H.H.H.H.H.H.H.H.H.H.H.",
"H.H.F.p.) : O < 1 $ O @ 1 * @ # @ @ @ - h y y.A.H.H.H.H.H.H.H.H.H.H.H.H.H.H.H.H.H.H.H.H.H.H.H.H.",
"H.H.H.D.f.+.4 % 2 d d 3 * X + # # @ # > h k Y x.H.H.G.H.H.S.H.H.H.H.H.H.H.H.H.H.H.H.H.H.H.H.H.H.",
"S.H.H.H.G.m.4.y W z d d d 3 $ + @ @ 3 1 3 B u q.D.S.S.H.H.H.H.H.H.H.H.H.H.H.H.H.H.H.H.H.H.H.H.H.",
"H.G.H.H.H.H.V.t.4.` h < ; g x 2 # $ 3 < < s m L k.H.H.F.H.H.G.S.H.H.H.H.H.H.H.H.H.H.H.H.H.H.H.H.",
"H.G.H.H.H.H.S.H.N.d.:.( K H Z N g 7 3 3 3 : B Z 9.G.F.H.H.H.H.H.H.H.H.H.H.H.H.H.H.H.H.H.H.H.H.H.",
"H.H.H.H.H.H.H.F.H.G.C.n.b.a.o.t N F N d 5 1 B ! <.A.H.F.H.H.H.H.H.H.H.H.H.H.H.H.H.H.H.H.H.H.H.H.",
"H.S.H.H.H.H.H.F.H.H.H.H.H.V.x.<.J M W W l l f w ,.B.H.S.H.H.H.H.H.H.H.H.H.H.H.H.H.H.H.H.H.H.H.H.",
"H.S.H.H.H.S.H.H.H.H.H.H.H.H.H.N.a.X.R T v 5 1 g ^ p.C.H.H.H.H.H.H.H.H.H.H.H.H.H.H.H.H.H.H.H.H.H.",
"H.H.H.H.H.H.H.H.H.H.H.H.H.H.H.H.G.m.t.2.o.n , 7 l Y j.F.H.H.H.H.H.H.H.H.H.H.H.H.H.H.H.H.H.H.H.H.",
"H.H.H.H.H.H.H.H.H.H.H.H.H.H.H.H.H.G.H.C.V.a.R d h v *.b.H.H.G.H.H.G.H.H.H.H.H.H.H.H.H.H.H.H.H.H.",
"H.H.H.H.H.H.H.H.H.H.H.H.H.H.H.H.S.H.H.H.H.Z.5.t x M Z 8.B.H.H.H.S.H.H.H.H.H.H.H.H.H.H.H.H.H.H.H.",
"H.H.H.H.H.H.H.H.H.H.H.H.H.H.H.H.H.H.H.H.S.G.k.| z f h R y.A.H.H.H.H.G.H.F.H.H.H.H.H.H.H.H.H.H.H.",
"H.H.H.H.H.H.H.H.H.H.H.H.H.H.H.H.H.H.H.H.H.H.V.e.y 3 d s K f.F.H.H.H.H.H.G.H.H.H.H.H.H.H.H.H.H.H.",
"H.H.H.H.H.H.H.H.H.H.H.H.H.H.H.H.S.G.H.S.H.H.H.b.#.4 1 h k +.z.H.S.H.H.H.H.S.H.H.H.H.H.H.H.H.H.H.",
"H.H.H.H.H.H.H.H.H.H.H.H.H.H.H.H.H.H.H.S.S.H.H.F.j.' 4 6 M e -.v.G.G.S.H.H.H.H.H.H.H.H.H.H.H.H.H.",
"H.H.H.H.H.H.H.H.H.H.H.H.H.H.H.H.H.H.H.H.H.H.H.H.D.d.u ; g B r *.k.A.H.S.H.H.H.H.H.H.H.H.H.H.H.H.",
"H.H.H.H.H.H.H.H.H.H.H.H.H.H.H.H.H.H.H.H.H.H.H.H.S.B.<.p f z / Z X.a.G.H.S.H.F.H.H.H.H.H.H.H.H.H.",
"H.H.H.H.H.H.H.H.H.H.H.H.H.H.H.H.H.H.H.H.H.H.H.H.H.H.x.[ ` D v W i P d.H.H.H.H.H.H.H.H.H.H.H.H.S.",
"H.H.H.H.H.H.H.H.H.H.H.H.H.H.H.H.H.H.H.H.H.H.H.H.H.H.F.k.2.#.Q f m M Y h.D.H.H.H.H.H.H.S.H.H.H.H.",
"H.H.H.H.H.H.H.H.H.H.H.H.H.H.H.H.H.H.H.H.H.H.H.H.G.H.H.H.n.y.'   d g z o.b.H.H.H.H.H.H.S.H.F.H.H.",
"H.H.H.H.H.H.H.H.H.H.H.H.H.H.H.H.H.H.H.H.H.H.H.H.H.H.H.G.H.b.w.r ; f g i 3.C.H.H.H.F.F.S.S.H.H.S.",
"H.H.H.H.H.H.H.H.H.H.H.H.H.H.H.H.H.H.H.H.H.H.H.H.S.G.G.H.H.F.z.&.0 1 3 - p 7.D.G.S.H.H.H.S.H.H.H.",
"H.H.H.H.H.H.H.H.H.H.H.H.H.H.H.H.H.H.H.H.H.H.H.H.H.H.G.H.H.H.V.a.( 1 @ $ * v i.V.F.H.H.H.H.H.H.F.",
"H.H.H.H.H.H.H.H.H.H.H.H.H.H.H.H.H.H.H.H.H.H.H.H.H.H.H.H.S.H.H.C.a.k $ $ < , ' 1.b.H.H.H.H.H.H.H.",
"H.H.H.H.H.H.H.H.H.H.H.H.H.H.H.H.H.H.H.H.H.H.H.H.H.H.H.H.H.H.H.H.C.6.  O 2 2 f 8 1.m.G.H.H.H.S.H.",
"H.H.H.H.H.H.H.H.H.H.H.H.H.H.H.H.H.H.H.H.H.H.H.H.H.H.H.H.H.H.H.H.H.B.,.0 < f 3 ; 0 6.A.H.H.H.H.H.",
"H.H.H.H.H.H.H.H.H.H.H.H.H.H.H.H.H.H.H.H.H.H.H.H.H.H.H.H.H.H.H.H.H.H.V.e.H   g 3 3 A j.F.H.H.S.H.",
"H.H.H.H.H.H.H.H.H.H.H.H.H.H.H.H.H.H.H.H.H.H.H.H.H.H.H.H.H.H.H.H.G.H.H.F.k.O.> 2 1 p 9.H.H.H.H.H.",
"H.H.H.H.H.H.H.H.H.H.H.H.H.H.H.H.H.H.H.H.H.H.H.H.H.H.H.H.H.H.H.H.H.H.H.H.H.l.^ > 2 e u.A.H.H.H.H.",
"H.H.H.H.H.H.H.H.H.H.H.H.H.H.H.H.H.H.H.H.H.H.H.H.H.H.H.H.H.H.H.H.H.G.G.F.H.G.f.V v %.t.V.H.H.H.S.",
"H.H.H.H.H.H.H.H.H.H.H.H.H.H.H.H.H.H.H.H.H.H.H.H.H.H.H.H.H.H.H.H.G.H.H.H.G.G.G.s.9.z.z.V.H.F.H.S.",
"H.H.H.H.H.H.H.H.H.H.H.H.H.H.H.H.H.H.H.H.H.H.H.H.H.H.H.H.H.H.H.H.H.H.H.H.G.H.H.H.V.V.F.S.H.H.H.H."
};
