/* XPM */
static char *ingeneralisation[] = {
/* columns rows colors chars-per-pixel */
"48 48 158 2",
"   c #1D69DF",
".  c #0D6FEE",
"X  c #0266FE",
"o  c #036AFD",
"O  c #0E67FE",
"+  c #0E6AF5",
"@  c #0B6BFB",
"#  c #0670FC",
"$  c #0E71FC",
"%  c #156DE6",
"&  c #136BE9",
"*  c #1B6DE3",
"=  c #136CF3",
"-  c #136DFD",
";  c #196FF6",
":  c #1E6FFB",
">  c #1172EF",
",  c #1673F6",
"<  c #1372FD",
"1  c #1B74F3",
"2  c #1B74FC",
"3  c #1C7AF3",
"4  c #1C7AFD",
"5  c #206FF3",
"6  c #2274EB",
"7  c #257BEF",
"8  c #2A75EA",
"9  c #2B7BE6",
"0  c #2B7AEA",
"q  c #2376F4",
"w  c #2276FB",
"e  c #257AF3",
"r  c #237AFC",
"t  c #2976F3",
"y  c #2976FA",
"u  c #2B7AF3",
"i  c #2B7CFB",
"p  c #3377EB",
"a  c #327BEC",
"s  c #397EE6",
"d  c #3A7EED",
"f  c #337CF4",
"g  c #327DFB",
"h  c #3B7BF2",
"j  c #2482FC",
"k  c #278AF9",
"l  c #2E83F5",
"z  c #2C82FC",
"x  c #2D8AFF",
"c  c #3480ED",
"v  c #3D85ED",
"b  c #3B88ED",
"n  c #3582F3",
"m  c #3283FC",
"M  c #358BFE",
"N  c #3A84F4",
"B  c #3A84FB",
"V  c #3E8BF2",
"C  c #3D8AFB",
"Z  c #3B91FE",
"A  c #4180E5",
"S  c #4387EC",
"D  c #438AEB",
"F  c #4C85E4",
"G  c #4D8AEB",
"H  c #4284F2",
"J  c #4087FA",
"K  c #438AF2",
"L  c #428CFC",
"P  c #4B8CF3",
"I  c #4594EC",
"U  c #4490F0",
"Y  c #4594FE",
"T  c #4D90F4",
"R  c #4C94FC",
"E  c #4F9CFE",
"W  c #548DF0",
"Q  c #5293EC",
"!  c #5B94E7",
"~  c #5A94EC",
"^  c #5F9BED",
"/  c #5393F4",
"(  c #5494FA",
")  c #5299F6",
"_  c #539AFC",
"`  c #5999F3",
"'  c #5B9BFB",
"]  c #53A1FF",
"[  c #5DA4FE",
"{  c #6095ED",
"}  c #649AEB",
"|  c #6A9DE7",
" . c #6A9BEA",
".. c #659EF5",
"X. c #639CFC",
"o. c #689BF7",
"O. c #63A1F9",
"+. c #61ACFF",
"@. c #6DA4F2",
"#. c #6BA3FC",
"$. c #6FA8F4",
"%. c #71A2E6",
"&. c #72A5EB",
"*. c #72A5F3",
"=. c #75ABF4",
"-. c #72AEFE",
";. c #7CACF4",
":. c #7AADFA",
">. c #74B4FC",
",. c #7DB0F5",
"<. c #78B5FD",
"1. c #79BBFF",
"2. c #84AFEF",
"3. c #81ABF0",
"4. c #86B4F4",
"5. c #82B1FB",
"6. c #85BAFB",
"7. c #8EB6FA",
"8. c #88BDFE",
"9. c #91B5F1",
"0. c #95BEF6",
"q. c #93BBFB",
"w. c #9BBEFB",
"e. c #8EC4FF",
"r. c #94C0F5",
"t. c #91C0F9",
"y. c #96C9FF",
"u. c #9BC2FC",
"i. c #9ACBFD",
"p. c #9ED1FF",
"a. c #A5C5FD",
"s. c #A4CDFC",
"d. c #AECEF6",
"f. c #ABCDFD",
"g. c #A3D1FF",
"h. c #ABD2FE",
"j. c #B4D3FE",
"k. c #B5DAFE",
"l. c #BAD4FD",
"z. c #BDDBFE",
"x. c #B5E0FF",
"c. c #C2DEFE",
"v. c #C4E2FE",
"b. c #C3E9FE",
"n. c #CBE5FE",
"m. c #CCEAFF",
"M. c #D1E5FE",
"N. c #D3EBFF",
"B. c #DAEBFF",
"V. c #D1F0FF",
"C. c #DDF5FF",
"Z. c #E3F3FF",
"A. c #E4F8FF",
"S. c #EBF6FE",
"D. c #EBFAFE",
"F. c #F4FCFE",
"G. c #FEFDF5",
"H. c #FEFEFE",
/* pixels */
"H.H.H.H.H.H.H.H.H.F.G.H.H.H.H.H.H.H.H.H.H.H.H.H.H.H.H.H.H.H.H.H.H.H.H.H.H.H.H.H.H.H.H.H.H.H.H.H.",
"H.H.H.H.H.H.H.H.H.H.H.F.H.H.G.H.H.H.H.H.H.H.H.H.H.H.H.H.H.H.H.H.H.H.H.H.H.H.H.H.H.H.H.H.H.H.H.H.",
"H.H.H.H.H.H.H.H.G.H.B.n.F.H.H.H.H.H.H.H.H.H.H.H.H.H.H.H.H.H.H.H.H.H.H.H.H.H.H.H.H.H.H.H.H.H.H.H.",
"H.H.H.H.H.H.H.H.H.Z.w.*.l.F.H.H.H.H.H.H.H.H.H.H.H.H.H.H.H.H.H.H.H.H.H.H.H.H.H.H.H.H.H.H.H.H.H.H.",
"H.H.H.H.H.H.H.H.F.z./ L } N.F.H.H.H.H.H.H.H.H.H.H.H.H.H.H.H.H.H.H.H.H.H.H.H.H.H.H.H.H.H.H.H.H.H.",
"H.H.H.H.H.H.H.H.H.0.N t N 5.S.H.H.H.H.H.H.H.H.H.H.H.H.H.H.H.H.H.H.H.H.H.H.H.H.H.H.H.H.H.H.H.H.H.",
"H.H.H.H.H.H.H.H.H.c.D 7 m H j.F.H.H.H.H.H.H.H.H.H.H.H.H.H.H.H.H.H.H.H.H.H.H.H.H.H.H.H.H.H.H.H.H.",
"H.H.H.H.H.H.H.H.H.F.>.i B g ~ C.H.H.H.H.H.H.H.H.H.H.H.H.H.H.H.H.H.H.H.H.H.H.H.H.H.H.H.H.H.H.H.H.",
"H.H.H.H.H.H.H.G.H.H.b.W g m N 5.S.F.H.G.H.H.H.H.H.H.H.H.H.H.H.H.H.H.H.H.H.H.H.H.H.H.H.H.H.H.H.H.",
"H.H.H.H.H.H.H.H.H.H.F.q.B r m H j.F.G.H.H.G.H.H.H.H.H.H.H.H.H.H.H.H.H.H.H.H.H.H.H.H.H.H.H.H.H.H.",
"H.H.H.H.H.H.H.H.H.H.H.N./ 4 w g G M.H.H.F.H.H.H.H.H.H.H.H.H.H.H.H.H.H.H.H.H.H.H.H.H.H.H.H.H.H.H.",
"H.H.H.H.H.H.H.H.H.G.H.F.u.n & j 6 #.Z.H.G.F.H.G.H.H.H.H.H.H.H.H.H.H.H.H.H.H.H.H.H.H.H.H.H.H.H.H.",
"H.H.H.H.H.H.H.H.G.H.G.H.Z.:.6 2 M i 7.F.H.H.G.H.H.H.H.H.H.H.H.H.H.H.H.H.H.H.H.H.H.H.H.H.H.H.H.H.",
"H.H.H.H.H.H.H.H.H.H.F.H.H.B.O.1 4 z s z.F.G.H.H.H.H.H.H.H.H.H.H.H.H.H.H.H.H.H.H.H.H.H.H.H.H.H.H.",
"H.H.H.H.H.H.H.G.H.H.H.H.G.F.l.p , M l @.A.G.F.H.H.H.H.H.H.H.H.H.H.H.H.H.H.H.H.H.H.H.H.H.H.H.H.H.",
"H.H.H.H.H.H.H.H.H.H.H.H.H.F.S.:.5 r M h j.H.H.H.H.H.H.H.H.H.H.H.H.H.H.H.H.H.H.H.H.H.H.H.H.H.H.H.",
"H.H.H.H.H.H.H.H.H.H.H.H.H.H.H.n.F Y n J  .F.G.G.H.H.H.H.F.H.H.G.H.H.H.H.H.H.H.H.H.H.H.H.H.H.H.H.",
"H.H.H.H.H.H.H.H.H.H.H.H.H.H.H.F.u.' n _ Q b.F.H.H.H.H.G.H.H.H.H.H.H.H.H.H.H.H.H.H.H.H.H.H.H.H.H.",
"H.H.H.H.H.H.H.H.H.H.H.H.H.H.H.F.N.:._ C f =.S.H.H.G.H.H.H.H.F.H.H.H.H.H.H.H.H.H.H.H.H.H.H.H.H.H.",
"H.H.H.H.H.H.H.H.H.H.H.H.H.H.H.H.Z.u.) w 1 c f.F.G.G.G.H.H.H.H.H.H.H.H.H.H.H.H.H.H.H.H.H.H.H.H.H.",
"H.H.H.H.H.H.H.H.H.H.H.H.H.H.H.G.F.j.) , < u ~ v.F.F.H.H.H.G.H.H.H.H.H.H.H.H.H.H.H.H.H.H.H.H.H.H.",
"H.H.H.H.H.H.H.H.H.H.H.H.H.H.H.H.H.B.<.i 4 m u ' u.D.F.G.H.H.H.H.H.H.H.H.H.H.H.H.H.H.H.H.H.H.H.H.",
"H.H.H.H.H.H.H.H.H.H.H.H.H.H.H.H.H.F.j.D q m 4 < d 4.B.H.H.H.H.H.H.H.H.H.H.H.H.H.H.H.H.H.H.H.H.H.",
"H.H.H.H.H.H.H.H.H.H.H.H.H.H.H.F.H.H.S.5.u w < # @ p 7.Z.H.H.H.H.H.H.H.H.H.H.H.G.H.H.H.H.H.H.H.H.",
"H.H.H.H.H.H.H.H.H.H.H.H.H.H.H.H.F.H.H.M.W , @ @ @ 4 ( k.S.G.H.H.H.H.H.H.F.H.H.F.H.H.F.H.G.H.H.H.",
"H.H.H.H.H.H.H.H.H.H.H.H.H.H.H.H.G.H.H.F.h.b < @ < @ C ;.z.H.G.H.H.H.H.G.H.H.H.H.H.H.G.F.G.H.H.F.",
"H.H.H.H.H.H.H.H.H.H.H.H.H.H.H.H.H.H.H.G.D.h.H : $ < i R ! N.F.H.H.H.H.H.S.F.H.G.G.H.H.H.H.H.H.H.",
"H.H.H.H.H.H.H.H.H.H.H.H.H.H.H.H.H.H.F.H.G.F.s.v , < 2 1 3 8.S.H.G.H.S.v.3.w.B.F.S.F.H.H.H.F.G.H.",
"H.H.H.H.H.H.H.H.H.H.H.H.H.H.H.H.H.G.F.H.H.H.S.0.W q 2 < < V l.H.H.D.s.D l N :.a.9.n.F.H.H.F.G.H.",
"H.H.H.H.H.H.H.H.H.H.H.H.H.H.H.H.H.H.H.H.H.H.H.Z.a.` q w 2 3 ;.S.S.q.H l k j ( X.P } C.F.H.F.H.H.",
"H.H.H.H.H.H.H.H.H.H.H.H.H.H.H.G.F.H.H.H.H.F.H.H.Z.h.[ t i 4 Q N.f.N i g l I 1.B = t i.H.H.H.G.H.",
"H.H.H.H.H.H.H.H.H.H.H.H.H.H.H.H.G.H.H.H.H.H.H.H.H.M.e.C w r a y.' = 4 g T f.:.. @ - =.F.H.H.F.H.",
"H.H.H.H.H.H.H.H.H.H.H.H.H.H.H.H.H.H.H.H.H.H.H.F.H.F.f.R e B _ L 1 3 j n a.S.*.@ @ @ / S.H.H.H.G.",
"H.H.H.H.H.H.H.H.H.H.H.H.H.H.H.H.H.H.H.H.H.H.H.H.G.F.N.*._ #.' e , z 7 @.S.F.*.@ o @ V C.H.H.H.H.",
"H.H.H.H.H.H.H.H.H.H.H.H.H.H.H.H.H.H.H.H.H.H.H.G.H.H.F.d.8.' B M m B P N.F.F.;.+ o O 0 N.H.H.H.H.",
"H.H.H.H.H.H.H.H.H.H.H.H.H.H.H.H.H.H.H.H.H.H.H.H.G.H.H.C.*.L i l C d j.H.H.F.a.< o O * b.G.H.F.G.",
"H.H.H.H.H.H.H.H.H.H.H.H.H.H.H.H.H.H.H.H.H.H.H.F.H.H.F.f.R 1 r C D e.F.G.H.F.z.% o < % i.H.H.F.G.",
"H.H.H.H.H.H.H.H.H.H.H.H.H.H.H.H.H.H.H.H.H.H.H.H.H.F.h.A 7 x C a =.A.H.H.G.H.N.8 o @ & ' F.H.F.G.",
"H.H.H.H.H.H.H.H.H.H.H.H.H.H.H.H.H.H.H.H.H.H.H.H.Z.b.Q w g Y C ..N.H.H.H.H.G.A.s O @ < a C.H.H.G.",
"H.H.H.H.H.H.H.H.H.H.H.H.H.H.H.H.H.H.H.H.H.H.H.F.M.@.6 l R f { n.F.H.H.H.F.H.S.! 2 o @ 8 x.H.H.F.",
"H.H.H.H.H.H.H.H.H.H.H.H.H.H.H.H.H.H.H.H.H.H.F.l.o.h m ] H ^ m.H.H.G.H.H.H.H.S.q.w o < & h.H.H.F.",
"H.H.H.H.H.H.H.H.H.H.H.H.H.H.H.H.H.G.G.H.G.F.b.T r u C D 6.C.F.H.H.H.H.H.H.H.H.c.u o 2 + e.H.H.H.",
"H.H.H.H.H.H.H.H.H.H.H.H.H.H.H.H.H.G.F.H.F.D.=.f i 4 8 g.A.F.H.F.H.G.F.H.F.H.F.M.K o j < #.F.H.F.",
"H.H.H.H.H.H.H.H.H.H.H.H.H.H.H.H.H.G.H.H.H.f.0 < < z X.v.M.j.k.z.z.j.n.N.M.Z.F.A.` $ < 2 ~ F.G.H.",
"H.H.H.H.H.H.H.H.H.H.H.H.H.H.H.H.H.H.H.H.F.9.7 # + u _ D 0 9 v ) +.h   n v G @.p.( < j q  .F.G.H.",
"H.H.H.H.H.H.H.H.H.H.H.H.H.H.H.H.H.H.H.H.H.l.' m t ( <.U 9 8 t 6 f w - + - 4 & m y ; r 1 ;.H.G.H.",
"H.H.H.H.H.H.H.H.H.H.H.H.H.H.H.H.H.H.H.H.H.S.f.| %.s.3.>.[ E E Y Y i 4 < 4 r 4 r l j 4 8 k.H.H.F.",
"H.H.H.H.H.H.H.H.H.H.H.H.H.H.H.H.H.H.H.G.H.H.F.Z.M.N.n.5.P C R D N 9 0 7 l a a a H 8 s &.D.H.F.G."
};
