/* XPM */
static char *inparam[] = {
/* columns rows colors chars-per-pixel */
"48 48 185 2",
"   c #0F69ED",
".  c #0366F5",
"X  c #0365FC",
"o  c #0469F4",
"O  c #036AFC",
"+  c #0D67F6",
"@  c #0B66FD",
"#  c #0D6BF2",
"$  c #0B6BFB",
"%  c #0C70F6",
"&  c #0E71FA",
"*  c #1166F4",
"=  c #1466FA",
"-  c #136CF3",
";  c #126DFB",
":  c #1B6EF6",
">  c #196CFA",
",  c #1E72EE",
"<  c #1472F5",
"1  c #1472FC",
"2  c #1778FD",
"3  c #1B73F5",
"4  c #1B73FB",
"5  c #1D79F6",
"6  c #1D7AFC",
"7  c #2376ED",
"8  c #2478EC",
"9  c #2F7DE4",
"0  c #2B7AEA",
"q  c #2173F2",
"w  c #2175FB",
"e  c #257AF3",
"r  c #237BFC",
"t  c #2975F2",
"y  c #2877FE",
"u  c #2B7CF3",
"i  c #2A7CFC",
"p  c #3275E9",
"a  c #357EE7",
"s  c #367EEB",
"d  c #397FEA",
"f  c #327CF4",
"g  c #357EFB",
"h  c #397DF6",
"j  c #2F81EE",
"k  c #2481FD",
"l  c #2B81F4",
"z  c #2C82FC",
"x  c #2C8AFF",
"c  c #3282EB",
"v  c #3985E9",
"b  c #3F8AE9",
"n  c #3283F4",
"m  c #3383FC",
"M  c #3389FD",
"N  c #3A84F3",
"B  c #3A85FB",
"V  c #3B89F3",
"C  c #3B8BFC",
"Z  c #3690FF",
"A  c #3D91FE",
"S  c #4180E5",
"D  c #4585E9",
"F  c #478AE6",
"G  c #428BEB",
"H  c #4B89E6",
"J  c #4C88EB",
"K  c #4482F1",
"L  c #428AF3",
"P  c #428CFC",
"I  c #4B8CF2",
"U  c #4B8FFD",
"Y  c #4C90E7",
"T  c #4E93ED",
"R  c #4390F6",
"E  c #4392FE",
"W  c #4698FE",
"Q  c #4E92F7",
"!  c #4A93FD",
"~  c #4C9AFD",
"^  c #558EEE",
"/  c #528DF1",
"(  c #5093E5",
")  c #5395ED",
"_  c #5698ED",
"`  c #5B94EC",
"'  c #5B9AEF",
"]  c #5391F1",
"[  c #5395F9",
"{  c #5298F5",
"}  c #519BFE",
"|  c #5A95F2",
" . c #5C9CF1",
".. c #5B9AFC",
"X. c #53A0FD",
"o. c #59A0FE",
"O. c #6697E7",
"+. c #6092EB",
"@. c #649BED",
"#. c #689CEA",
"$. c #649BF3",
"%. c #6F9CF0",
"&. c #719FF7",
"*. c #65A5EC",
"=. c #6DA1E9",
"-. c #67A1F4",
";. c #65A4FC",
":. c #63AAFE",
">. c #6CA4F3",
",. c #6BA3F9",
"<. c #6CA9FF",
"1. c #66B0FF",
"2. c #6CB1FF",
"3. c #78A6EC",
"4. c #7AABEE",
"5. c #70A5F9",
"6. c #76AAF4",
"7. c #75ACFC",
"8. c #7AA6FA",
"9. c #7DACF5",
"0. c #7AACFA",
"q. c #76B0FA",
"w. c #7DB0F6",
"e. c #7CB2FC",
"r. c #7FB8FE",
"t. c #81ADEB",
"y. c #82AEF0",
"u. c #83AEF8",
"i. c #89B4EB",
"p. c #80B1F5",
"a. c #84B4FA",
"s. c #82BCFE",
"d. c #8AB4F1",
"f. c #8BB6FA",
"g. c #8CB9F4",
"h. c #8CBBFD",
"j. c #98BBF4",
"k. c #9BBEFD",
"l. c #A1BFEF",
"z. c #A8BDE5",
"x. c #A0BDF0",
"c. c #8CC1F3",
"v. c #8CC0F9",
"b. c #8EC8FD",
"n. c #9BC2EE",
"m. c #94C3FC",
"M. c #9BC5FC",
"N. c #9ECAF7",
"B. c #9CCAFD",
"V. c #A1C4F6",
"C. c #A3C5FA",
"Z. c #A6CAF3",
"A. c #A9C7FC",
"S. c #ACCCF6",
"D. c #AACCFD",
"F. c #AAD8FF",
"G. c #BACAE2",
"H. c #B2D1FD",
"J. c #B3D9FE",
"K. c #BAD8FD",
"L. c #B7E0FF",
"P. c #BDE3FF",
"I. c #C3DCFD",
"U. c #CBDDFD",
"Y. c #C4E3FE",
"T. c #C7EBFF",
"R. c #CBE3FF",
"E. c #CCEBFF",
"W. c #CDF2FF",
"Q. c #D3E4FC",
"!. c #D3EBFF",
"~. c #D9E0F7",
"^. c #DCEBFE",
"/. c #D5F1FE",
"(. c #DCF2FF",
"). c #DDFBFF",
"_. c #E1EEFE",
"`. c #E3F4FF",
"'. c #E5F9FF",
"]. c #E9F2FC",
"[. c #ECFAFE",
"{. c #F2F7FF",
"}. c #F4FCFE",
"|. c #FCFEF6",
" X c #FEFEFE",
/* pixels */
" X X X X X X X X|. X X X X}. X X X X X X X X X X X X X X X X X X X X X X X X X X X X X X X X X X",
" X X X X X X X X X X X X X X X X X X X X X X X X X X X X X X X X X X X X X X X X X X X X X X X X",
" X X X X X X X X X X X X X X X X X X X X X X X X X X X X X X X X X X X X X X X X X X X X X X X X",
" X X X X X X X X X X X X X X X X X X X X X X X X X X X X X X X X X X X X X X X X X X X X X X X X",
" X X X X X X X X X X X|.|. X X X X X X X X X X X X X X X X X X X X X X X X X X X X X X X X X X X",
" X X X X X X X X X X{. X X X X X X X X X X X X X X X X X X X X X X X X X X X X X X X X X X X X X",
" X X X X X X X X X X X X X}. X|. X X X X X X X X X X X X X X X X X X X X X}. X X X X X X X X X X",
" X X X X X X X X X X X].].}. X X|. X X X X X X X X X X X X X X X X X X}. X}.}. X X X X X X X X X",
" X X X X X X X X X{.Z.4.x.}. X X X X X X X X}.[.[.}.|.|. X X}. X X X{.H.m.D.I. X|. X X X X X X X",
" X X X X X X X X XS.H B ^ !.}. X}.!.I.R.}.R.k.u.n.{. X X{.U.M.M.H.`.T.J s / y.}. X X X X X X X X",
" X X X X X X X X}.c.j r m m.}.{.n._ T d.).=.g B $.B.A.U.'.%.d N $.!.a.t , V M.}.}. X X X X X X X",
" X X X X X X X X XY.a z z _ (.'.+.u z -.!.Y r 6 w M I M.Y.K u u -.E.] i z b Y.|. X X X X X X X X",
" X X X X X X X X X[.` i M v Z.)./ y z ^ T.) z r $ r n v.m.m m l q.m.h g m  .[.|. X X X X X X X X",
" X X X X X X X X X Xe.z y u 6.E.$.z m S F.I i w ; m m r._ w z N r.{ w z m f.}. X X X X X X X X X",
" X X X X X X X X{.}.N.0 ; m a F. .6 z d s.V 4 2 $ z g ;.U - m P s.l < e L T.}. X X X X X X X X X",
" X X X X X X X X X X!. .: z r ;...< y m :.E ; 1 o 6 B X.8 < z B :.3 3 z ] }. X X|. X X X X X X X",
" X X X X X X X X X X}.B.e 2 z h :.3 r 7 X.E < 6 . r i u 4 e l Z m > z u h. X X X X X X X X X X X",
" X X X X X X X X X X}.R.s < Z u ~ < y r P M ; 2 O r 3 < k z m i 3 4 C 9 E. X}. X X X X X X X X X",
" X X X X X X X X|. X X[.` N u C y 1 4 C f z 4 1 X y e k C E 0 C E 8 C _ [. X X X X X X X X X X X",
" X X X X X X X X X X X}.C.$.N ~ r < y C 8 E A ; O r i r C W B ~ C V c m. X X X X X X X X X X X X",
" X X X X X X X X X X|. X`.h...C e 5 m } n X.! < % 5 r ; e B 7 ~ P } G Y. X X X X X X X X X X X X",
" X X X X X X X X X X|. X}.H...8 Z z i E 0 U ! 4 2 < k $ m M r z g n | }. X X|. X|. X X X X X X X",
" X X X X X X X X X X X X XQ.8.u M e > m u m i 4 6 & & $ A u 3 r P n t.}.}. X X}. X X X X X X X X",
" X X X X X X X X}. X{. X|.}.m.n z z + z Z z z r 1 $ & $ C 3 r z E Q K. X X X X X X X X X X X X X",
" X X X X X|. X X X X X X|. XI.N q z - 5 A 4 2 r ; $ o 1 M - 1 A n ' [. X X}. X X X X X X X X X X",
" X X X X X X X X X}.{.}.|.|.[.>.e 4 $ - E 1 2 > $ @ 1 1 x < r A 0 B. X|.|. X|.|. X X X|. X X X X",
" X X|. X X X|. X^.Y.g.g.(. X}.P.s 2 &   E y 2 < $ $ & < z y u E J ^.|.|.{._.{.}.U.(.}.|. X X X|.",
" X X|.|.{. X XR.0.L g u J D.'.}.6.B 6 - } C u 6 1 $ k r C f ../ d.{.'.I.w.J e.f.D #.K.]. X X X|.",
"}. X X|. X X{.9.f = $ O $ q $.J.J.-.V : X.{ [ B > 4 M C ~ [ 7.0.P.I.0.I l 6 4 t r g O.I. X X X X",
"|. X X X X X`.O.y 1 . X O O # 8 { ;.;.P ;.-.e.;.g e h <.>.s.>.q.' N 4 3 k 1 @ 1 k g 4.`. X X X X",
"|. X X X|. X}.J.G r O X X X O O $ q C ~ ;.e.h.e.~ W p s.5.e.;.! w 2 2 r 2 + = k n @.W.|.|. X X X",
" X X X X X X X}.D.G % X X @ @ O O $ * w V :.e.| ..:.s o.V C C C i M i < O $ k z ` R.}.|. X X}. X",
" X X X X X X|.|.}.D./ 3 $ X X @ O + $ $ $ x 1.Q U } e < < < 6 C C 8 , z < x u F I.}. X X X X X X",
" X X X X X X X X X}.!.>.7 z ; O O O @ & &   q E m - > - 6 x z 3 4 6 W u C l H T.}. X X X X X X X",
" X X X X X X X X X X X^.t.;.} 4 k < o + $ 1 r C u < i z y 4 < < k r z X.c T R. X X X X X X X X X",
" X X X X X X X X X X|. X}.I.9.n 5 M q * ; 2 z E C e z i > 4 q t M E B 0 6.`.}.|.|. X X X X X X X",
" X X X X X X X X X X X}.|.{.R.-.k < ! U C B N ! E C o.! U L E W B N ] d.{. X X X X X X X X X X X",
" X X X X X X X X X|. X X X X}.I.' f t :.*.s.7./ 2.| 7.m.m.e...d D y.R.}. X X X X X X X X X X X X",
" X X X X X X X X|. X|. X X X X X^.m.I _ m.h.&.e.>.,.9.J.Z.j.x.A.E.{. X|. X X X X}. X X X X X X X",
" X X X X X X X X X X X X}. X X X|.}.R.C.N.h.9.h.B.w.i.P.!.).}.}.|. X|.}. X X|. X X X X X X X X X",
" X X X X X X X X X X X}. X X|. X X|. X{.U.j.f.u.3.V./.G.~.{. X|.|. X X X X X X X X X X X X X X X",
" X X X X X X X X X X X X X X X X X X X X{.^.z.I.I.[.}.{. X X X X X X X X X X X X X X X X X X X X",
" X X X X X X X X X X X X X X X X X X X X X{.{.'. X{. X X X X X X X X X X X X X X X X X X X X X X",
" X X X X X X X X X X X X X X X X X X|.|.|. X X|.|.|.|. X|. X X X X X X X X X X X X X X X X X X X",
" X X X X X X X X X X X X X X X X X X X|. X X X X X X|. X X X X X X X X X X X X X X X X X X X X X",
" X X X X X X X X X X X X X X X X X X X X X X X X X X X X|. X X X X X X X X X X X X X X X X X X X",
" X X X X X X X X X X X X X X X X X X X X X X|. X X X X X}. X X X X X X X X X X X X X X X X X X X",
" X X X X X X X X X X X X X X X X X X X|. X X X|. X X X X X X X X X X X X X X X X X X X X X X X X"
};
