/* XPM */
static char *inrelation[] = {
/* columns rows colors chars-per-pixel */
"48 48 120 2",
"   c #0764EE",
".  c #0E67EF",
"X  c #0E6AEB",
"o  c #0266F6",
"O  c #0165FD",
"+  c #0368F5",
"@  c #0168FD",
"#  c #0A66F3",
"$  c #0A65FA",
"%  c #0B6AF3",
"&  c #0B69FA",
"*  c #1166ED",
"=  c #156BE5",
"-  c #1469ED",
";  c #1F6FE7",
":  c #1A6DEC",
">  c #1165F4",
",  c #1165F8",
"<  c #1169F2",
"1  c #126BF9",
"2  c #1A6DF1",
"3  c #1670ED",
"4  c #1C76E1",
"5  c #1D71EB",
"6  c #1570F5",
"7  c #1772FB",
"8  c #1A71F0",
"9  c #3575D0",
"0  c #236EEC",
"q  c #2777E6",
"w  c #2575EC",
"e  c #277AEF",
"r  c #2F77E6",
"t  c #2D7AEE",
"y  c #2174F5",
"u  c #237AF2",
"i  c #2B7DF1",
"p  c #337BEC",
"a  c #3C7BE3",
"s  c #3879EC",
"d  c #307CF0",
"f  c #3583ED",
"g  c #3B83EE",
"h  c #3383F2",
"j  c #318BFE",
"k  c #3982F3",
"l  c #4E87D5",
"z  c #5484DE",
"x  c #4085E6",
"c  c #4386EF",
"v  c #458CEB",
"b  c #4E8CEA",
"n  c #4285F1",
"m  c #4F95F5",
"M  c #4A94FA",
"N  c #4E9BFD",
"B  c #518DEF",
"V  c #5592EC",
"C  c #5A9BED",
"Z  c #5394F4",
"A  c #5396FA",
"S  c #5B96F1",
"D  c #5E98F5",
"F  c #5AA0FC",
"G  c #59A9FF",
"H  c #629EF9",
"J  c #6C9CF3",
"K  c #689FF9",
"L  c #64A3FC",
"P  c #6BA2F5",
"I  c #6BA7FD",
"U  c #72ABFB",
"Y  c #7BABF6",
"T  c #78AEFB",
"R  c #7CB2FB",
"E  c #79B9FF",
"W  c #80ABF6",
"Q  c #84B6FC",
"!  c #84B9FD",
"~  c #8BB4F4",
"^  c #89B5FB",
"/  c #88BCF4",
"(  c #8BBAFC",
")  c #81C3FF",
"_  c #88C1FF",
"`  c #88C9FF",
"'  c #95C4F7",
"]  c #91C4FD",
"[  c #9CC3F7",
"{  c #9AC5FC",
"}  c #9CC9FF",
"|  c #A1C7F8",
" . c #A4CCFF",
".. c #ADC9F3",
"X. c #ABCEFF",
"o. c #A5D2FF",
"O. c #AAD3FE",
"+. c #ABDBFF",
"@. c #B2D4FE",
"#. c #B7DBFF",
"$. c #BCDDFF",
"%. c #BDE3FF",
"&. c #C1CEEE",
"*. c #C0DBFF",
"=. c #C3E3FE",
"-. c #CAE5FE",
";. c #CBE9FF",
":. c #CFF3FF",
">. c #D4ECFF",
",. c #D9EEFF",
"<. c #D5F0FF",
"1. c #D5F9FF",
"2. c #DCF3FF",
"3. c #E2EDFE",
"4. c #E4F5FF",
"5. c #EAF5FE",
"6. c #ECFBFF",
"7. c #F4FDFE",
"8. c #FDFEF5",
"9. c #FEFEFE",
/* pixels */
"9.9.9.9.9.9.9.9.9.9.9.9.9.9.9.9.9.9.9.9.9.9.9.9.9.9.9.9.9.9.9.9.9.9.9.9.9.9.9.9.9.9.9.9.9.9.9.9.",
"9.9.9.9.9.9.9.9.9.9.9.9.9.9.9.9.9.9.9.9.9.9.9.9.9.9.9.9.9.9.9.9.9.9.9.9.9.9.9.9.9.9.9.9.9.9.9.9.",
"9.9.9.9.9.9.9.9.9.9.9.9.9.9.9.9.9.8.9.9.9.9.9.9.9.9.9.9.9.9.9.8.8.9.9.9.9.9.9.9.9.9.9.9.9.9.9.9.",
"9.8.9.9.9.9.9.9.9.9.9.9.9.9.9.9.9.9.9.9.9.9.8.9.9.8.9.8.9.9.9.9.9.9.9.9.9.9.9.9.9.9.9.9.9.9.9.9.",
"9.9.9.8.8.9.8.9.9.9.9.9.9.9.9.9.9.9.9.9.9.8.8.9.9.9.8.8.9.9.9.9.9.9.9.9.9.9.9.9.9.9.9.9.9.9.9.9.",
"7.9.7.7.9.9.9.9.9.9.9.9.9.9.9.9.9.9.9.9.9.8.9.7.7.9.7.8.8.9.9.9.9.9.9.9.9.9.9.9.9.9.9.9.9.9.9.9.",
"9.5.9.9.9.9.9.9.9.9.9.9.9.9.9.9.8.9.9.9.9.9.7.,.&.3.7.9.9.9.9.9.9.9.9.9.9.9.9.9.9.9.9.9.9.9.9.9.",
"1.z ( >.6.9.7.9.9.9.9.9.9.9.9.8.8.9.9.9.9.8.9...9 J 3.9.9.9.9.8.9.9.8.9.9.7.7.9.9.9.9.9.9.9.9.9.",
"` * # r K { %.5.7.9.9.9.9.9.9.9.8.9.9.8.9.9.9.{ # : ( 6.7.7.9.9.9.9.9.9.9.9.9.9.9.9.9.9.9.9.9.9.",
"N o o $ $ - 4 x T O.4.9.8.8.9.9.9.9.9.9.9.9.6.H $ o 5 Z O.2.7.9.9.9.7.9.9.9.9.8.9.9.9.9.9.9.9.9.",
"L # O O O O o $ $ : Z  .,.7.9.9.9.9.9.9.8.9.X.y O @ @ % : n ! >.7.9.9.9.8.9.9.9.8.9.9.9.9.9.9.9.",
"2.! < @ O O o O O o # : f C ' >.7.7.9.7.8.7.Y % o O @ @ o $ < g } 4.7.8.9.7.7.9.9.9.9.9.9.9.9.9.",
"8.=.w @ o o O O o O O O O & * h D ( $.4.9.9.=.v - o @ O O O O o - V $.7.8.8.8.9.9.9.9.9.9.9.9.9.",
"9.4.b > o @ O O @ @ O O O O O O @ < q m ^ O.;.-.^ m ; # $ O O O O # k } 4.9.9.9.9.9.9.9.9.9.9.9.",
"9.9.>.^ a : : < @ O o O O O O O O O O o % : f U +.%.O.U e # O O O O $ : Y 4.9.9.9.9.9.9.9.9.9.9.",
"7.9.9.7.,.$.+.{ J B k 2 & O O O O O O O O @ @ # : k H ` ) A y # O O O O > D ;.7.9.9.7.9.8.8.9.9.",
"9.9.9.9.9.9.9.7.5.4.>.X.P g : # O O o @ O O O O O O $ : t M G j & O o O O % B -.7.9.9.7.9.8.8.9.",
"9.9.9.9.9.7.9.9.7.7.8.7.6.>.#.^ V 5 & @ @ O O O O o O O O o 1 7 & O O O @ O * b =.7.9.9.9.9.9.8.",
"9.8.8.9.9.9.9.9.9.9.9.8.9.9.9.7.4.@.P i 6 # O @ O O @ @ @ @ + O O O O O O O @ o f  .6.9.8.9.9.9.",
"9.9.9.9.9.9.8.9.9.9.9.9.9.9.8.9.9.7.5.-.] C q & @ @ @ O o O o @ O O O O O O @ O & e W -.4.7.9.9.",
"9.9.9.9.9.9.9.9.9.9.9.9.8.7.9.9.9.9.8.9.6.5.%.D 1 @ O O O O O O O O O O O O O O @ O > i H @.5.7.",
"9.9.9.9.9.9.9.9.8.9.9.8.9.9.9.9.9.9.8.9.9.8.7.R 1 O O O O O O O O O O O $ O O O O O O O # 0 J 4.",
"9.8.9.9.9.9.9.8.9.9.9.9.9.9.9.9.7.9.7.>.-.*.X.A o O O O O O O O O o O O O O O O O O O O o & w $.",
"9.9.9.9.9.9.9.9.9.9.9.9.9.9.9.9.8.7.[ g e w 2 1 O O O O O O O O o O O O O O O O @ + O $ O @ X { ",
"9.9.9.9.9.9.9.9.9.9.9.9.9.9.9.9.8.5.S & O o O O o O O O O @ @ O O @ O O O O O O o O 2 E U p = B ",
"9.9.9.9.9.9.9.9.9.9.9.9.9.9.9.9.9.7.^ , @ O O o O O O O O O @ O O O O @ O O O O O O r ;.6.-.[ ~ ",
"9.9.9.9.9.9.9.9.9.9.9.9.9.9.9.9.9.7.;.n O @ @ o @ @ O O O O O O O @ O O O 1 2 5 i k l -.9.8.8.6.",
"9.9.9.9.9.9.9.9.9.9.9.9.9.9.9.9.9.8.7.| s # O O @ @ & o # . # 2 : 5 t c V W  .%.>.2.,.7.9.9.9.9.",
"9.9.9.9.9.9.9.9.9.9.9.9.9.9.9.9.9.8.7.6.$.b - & : s A I R ! _ O.#.$.-.4.4.7.7.9.9.9.9.9.9.9.9.7.",
"9.9.9.9.9.9.9.9.9.9.9.9.9.9.9.9.9.9.9.9.7.=./ ! [ -.5.6.7.9.7.9.9.9.9.9.9.9.9.9.8.8.8.9.9.9.9.9.",
"9.9.9.9.9.9.9.9.9.9.9.9.9.9.9.9.7.9.9.9.9.7.7.7.7.7.9.8.9.9.9.9.9.9.9.9.9.9.9.9.9.9.9.9.9.7.9.9.",
"9.9.9.9.9.9.9.9.9.9.9.9.9.9.9.9.8.9.9.9.9.9.9.9.9.9.9.9.8.9.9.9.9.9.9.9.9.8.9.9.9.7.9.9.8.9.9.9.",
"9.9.9.9.9.9.9.9.9.9.9.9.9.9.9.9.9.9.9.9.9.9.9.9.9.9.9.9.9.9.9.9.9.9.9.9.9.9.9.9.9.9.9.9.9.9.9.9.",
"9.9.9.9.9.9.9.9.9.9.9.9.9.9.9.9.9.9.9.9.9.9.9.9.9.9.9.9.9.9.9.9.9.9.9.9.9.9.9.9.9.9.9.9.9.9.9.9.",
"9.9.9.9.9.9.9.9.9.9.9.9.9.9.9.9.9.9.9.9.9.9.9.9.9.9.9.9.9.9.9.9.9.9.9.9.9.9.9.9.9.9.9.9.9.9.9.9.",
"9.9.9.9.9.9.9.9.9.9.9.9.9.9.9.9.9.9.9.9.9.9.9.9.9.9.9.9.9.9.9.9.9.9.9.9.9.9.9.9.9.9.9.9.9.9.9.9.",
"9.9.9.9.9.9.9.9.9.9.9.9.9.9.9.9.9.9.9.9.9.9.9.9.9.9.9.9.9.9.9.9.9.9.9.9.9.9.9.9.9.9.9.9.9.9.9.9.",
"9.9.9.9.9.9.9.9.9.9.9.9.9.9.9.9.9.9.9.9.9.9.9.9.9.9.9.9.9.9.9.9.9.9.9.9.9.9.9.9.9.9.9.9.9.9.9.9.",
"9.9.9.9.9.9.9.9.9.9.9.9.9.9.9.9.9.9.9.9.9.9.9.9.9.9.9.9.9.9.9.9.9.9.9.9.9.9.9.9.9.9.9.9.9.9.9.9.",
"9.9.9.9.9.9.9.9.9.9.9.9.9.9.9.9.9.9.9.9.9.9.9.9.9.9.9.9.9.9.9.9.9.9.9.9.9.9.9.9.9.9.9.9.9.9.9.9.",
"9.9.9.9.9.9.9.9.9.9.9.9.9.9.9.9.9.9.9.9.9.9.9.9.9.9.9.9.9.9.9.9.9.9.9.9.9.9.9.9.9.9.9.9.9.9.9.9.",
"9.9.9.9.9.9.9.9.9.9.9.9.9.9.9.9.9.9.9.9.9.9.9.9.9.9.9.9.9.9.9.9.9.9.9.9.9.9.9.9.9.9.9.9.9.9.9.9.",
"9.9.9.9.9.9.9.9.9.9.9.9.9.9.9.9.9.9.9.9.9.9.9.9.9.9.9.9.9.9.9.9.9.9.9.9.9.9.9.9.9.9.9.9.9.9.9.9.",
"9.9.9.9.9.9.9.9.9.9.9.9.9.9.9.9.9.9.9.9.9.9.9.9.9.9.9.9.9.9.9.9.9.9.9.9.9.9.9.9.9.9.9.9.9.9.9.9.",
"9.9.9.9.9.9.9.9.9.9.9.9.9.9.9.9.9.9.9.9.9.9.9.9.9.9.9.9.9.9.9.9.9.9.9.9.9.9.9.9.9.9.9.9.9.9.9.9.",
"9.9.9.9.9.9.9.9.9.9.9.9.9.9.9.9.9.9.9.9.9.9.9.9.9.9.9.9.9.9.9.9.9.9.9.9.9.9.9.9.9.9.9.9.9.9.9.9.",
"9.9.9.9.9.9.9.9.9.9.9.9.9.9.9.9.9.9.9.9.9.9.9.9.9.9.9.9.9.9.9.9.9.9.9.9.9.9.9.9.9.9.9.9.9.9.9.9.",
"9.9.9.9.9.9.9.9.9.9.9.9.9.9.9.9.9.9.9.9.9.9.9.9.9.9.9.9.9.9.9.9.9.9.9.9.9.9.9.9.9.9.9.9.9.9.9.9."
};
