/* XPM */
static char * InternalTransition_xpm[] = {
"48 48 252 2",
"  	c #FFFFFF",
". 	c #FFFEFE",
"+ 	c #FFFDFD",
"@ 	c #FFF8F8",
"# 	c #FFF3F3",
"$ 	c #FFEFEF",
"% 	c #FFE0E0",
"& 	c #FFB9B9",
"* 	c #FF8D8D",
"= 	c #FF7979",
"- 	c #FF7171",
"; 	c #FF6B6B",
"> 	c #FF6666",
", 	c #FF6969",
"' 	c #FF7D7D",
") 	c #FF9C9C",
"! 	c #FFB2B2",
"~ 	c #FFE7E7",
"{ 	c #FFF5F5",
"] 	c #FFFAFA",
"^ 	c #FFEDED",
"/ 	c #FFD8D8",
"( 	c #FFA6A6",
"_ 	c #FF6D6D",
": 	c #FF4B4B",
"< 	c #FF3232",
"[ 	c #FF2020",
"} 	c #FF1616",
"| 	c #FF1313",
"1 	c #FF1212",
"2 	c #FF1010",
"3 	c #FF1919",
"4 	c #FF2424",
"5 	c #FF3535",
"6 	c #FF5555",
"7 	c #FF8080",
"8 	c #FFB1B1",
"9 	c #FFDBDB",
"0 	c #FFEAEA",
"a 	c #FFF6F6",
"b 	c #FFF0F0",
"c 	c #FFC8C8",
"d 	c #FF8686",
"e 	c #FF4A4A",
"f 	c #FF2626",
"g 	c #FF1414",
"h 	c #FF0B0B",
"i 	c #FF0D0D",
"j 	c #FF0F0F",
"k 	c #FF1111",
"l 	c #FF0E0E",
"m 	c #FF1717",
"n 	c #FF2929",
"o 	c #FF3D3D",
"p 	c #FF5B5B",
"q 	c #FF7878",
"r 	c #FFAFAF",
"s 	c #FFDADA",
"t 	c #FFF4F4",
"u 	c #FFF7F7",
"v 	c #FFE3E3",
"w 	c #FFA4A4",
"x 	c #FF0A0A",
"y 	c #FF0909",
"z 	c #FF0C0C",
"A 	c #FF1515",
"B 	c #FF1A1A",
"C 	c #FF2323",
"D 	c #FF6A6A",
"E 	c #FFAAAA",
"F 	c #FFCECE",
"G 	c #FF9090",
"H 	c #FF4F4F",
"I 	c #FF2C2C",
"J 	c #FF0808",
"K 	c #FF0707",
"L 	c #FF1818",
"M 	c #FF1C1C",
"N 	c #FF2121",
"O 	c #FF2222",
"P 	c #FF4343",
"Q 	c #FF7575",
"R 	c #FFE9E9",
"S 	c #FFD7D7",
"T 	c #FF8B8B",
"U 	c #FF5252",
"V 	c #FF1B1B",
"W 	c #FF4141",
"X 	c #FF6363",
"Y 	c #FF7676",
"Z 	c #FF7A7A",
"` 	c #FF7777",
" .	c #FF6464",
"..	c #FF5A5A",
"+.	c #FF3A3A",
"@.	c #FF3333",
"#.	c #FF9696",
"$.	c #FFD3D3",
"%.	c #FFF1F1",
"&.	c #FFE6E6",
"*.	c #FF5757",
"=.	c #FF3C3C",
"-.	c #FF2727",
";.	c #FF3939",
">.	c #FF6262",
",.	c #FF8282",
"'.	c #FF9191",
").	c #FFA8A8",
"!.	c #FFCBCB",
"~.	c #FFDFDF",
"{.	c #FFDDDD",
"].	c #FFC2C2",
"^.	c #FFBBBB",
"/.	c #FF9B9B",
"(.	c #FF1D1D",
"_.	c #FF4646",
":.	c #FFBABA",
"<.	c #FFEEEE",
"[.	c #FF3838",
"}.	c #FF7272",
"|.	c #FFCACA",
"1.	c #FFE2E2",
"2.	c #FFF9F9",
"3.	c #FFDCDC",
"4.	c #FFBDBD",
"5.	c #FFA1A1",
"6.	c #FF5050",
"7.	c #FF2D2D",
"8.	c #FF4040",
"9.	c #FF6F6F",
"0.	c #FFFBFB",
"a.	c #FF2F2F",
"b.	c #FF1F1F",
"c.	c #FF1E1E",
"d.	c #FF4D4D",
"e.	c #FF9393",
"f.	c #FFD0D0",
"g.	c #FFECEC",
"h.	c #FFB8B8",
"i.	c #FF9797",
"j.	c #FF6868",
"k.	c #FF2E2E",
"l.	c #FFBEBE",
"m.	c #FF9494",
"n.	c #FFA0A0",
"o.	c #FFEBEB",
"p.	c #FFCDCD",
"q.	c #FFA7A7",
"r.	c #FF4747",
"s.	c #FF8181",
"t.	c #FFD4D4",
"u.	c #FFC5C5",
"v.	c #FF3131",
"w.	c #FF8F8F",
"x.	c #FF8989",
"y.	c #FF5151",
"z.	c #FF9D9D",
"A.	c #FF4949",
"B.	c #FF5D5D",
"C.	c #FF9E9E",
"D.	c #FF5656",
"E.	c #FFBFBF",
"F.	c #FF6C6C",
"G.	c #FFE5E5",
"H.	c #FF4242",
"I.	c #FF5E5E",
"J.	c #FFC9C9",
"K.	c #FFE1E1",
"L.	c #FF4E4E",
"M.	c #FFA3A3",
"N.	c #FFA5A5",
"O.	c #FF2B2B",
"P.	c #FFFCFC",
"Q.	c #FFAEAE",
"R.	c #FF6E6E",
"S.	c #FFCCCC",
"T.	c #FF2525",
"U.	c #FF3737",
"V.	c #FF9F9F",
"W.	c #FF3E3E",
"X.	c #FFADAD",
"Y.	c #FF3B3B",
"Z.	c #FF4C4C",
"`.	c #FFB5B5",
" +	c #FFBCBC",
".+	c #FFDEDE",
"++	c #FFCFCF",
"@+	c #FF5F5F",
"#+	c #FF5C5C",
"$+	c #FFABAB",
"%+	c #FF3030",
"&+	c #FF2A2A",
"*+	c #FF3F3F",
"=+	c #FFE8E8",
"-+	c #FFD9D9",
";+	c #FF8383",
">+	c #FFC3C3",
",+	c #FF6060",
"'+	c #FF5353",
")+	c #FF3636",
"!+	c #FF8C8C",
"~+	c #FFF2F2",
"{+	c #FF3434",
"]+	c #FFD6D6",
"^+	c #FF9999",
"/+	c #FFC6C6",
"(+	c #FFA9A9",
"_+	c #FF4444",
":+	c #FF4848",
"<+	c #FF6565",
"[+	c #FF4545",
"}+	c #FFB6B6",
"|+	c #FF0606",
"1+	c #FF7373",
"2+	c #FF0404",
"3+	c #FF0303",
"4+	c #FFD5D5",
"5+	c #FF8484",
"6+	c #FF5959",
"7+	c #FFE4E4",
"8+	c #FF0101",
"9+	c #FF0000",
"0+	c #FF0505",
"a+	c #FF7B7B",
"b+	c #FF8787",
"c+	c #FFB4B4",
"d+	c #FF0202",
"e+	c #FF9898",
"f+	c #FF2828",
"g+	c #FF6767",
"h+	c #FF6161",
"i+	c #FF5454",
"j+	c #FF8A8A",
"k+	c #FFD1D1",
"l+	c #FF9292",
"m+	c #FFB3B3",
"n+	c #FFA2A2",
"o+	c #FF8888",
"p+	c #FF8585",
"q+	c #FF5858",
"r+	c #FFB0B0",
"s+	c #FFC7C7",
"t+	c #FF9A9A",
"u+	c #FFC0C0",
"v+	c #FFC1C1",
"w+	c #FFD2D2",
"x+	c #FF7474",
"y+	c #FF9595",
"z+	c #FF7C7C",
"A+	c #FFC4C4",
"B+	c #FF7F7F",
"C+	c #FFACAC",
"                                                                                                ",
"                                                                                                ",
"                                . + + + + + + + . .                                             ",
"                      . @ # $ % & * = - ; > , ' ) ! ~ $ { ] .                                   ",
"                  ] ^ / ( _ : < [ } | | 1 2 2 1 3 4 5 6 7 8 9 0 a +                             ",
"                b c d e f g 2 h h i j 2 k k 1 l j i i m n o p q r s t .                         ",
"            u v w p n g i h h x y y y y x z k k l h y i g A B C o D E s #                       ",
"          u F G H I B l J K K y l k A m L m M N B k x y i j j k } O P Q 8 R                     ",
"          S T U < 4 } x K l V n W X Y q Z q `  ...+.4 A l x h z 2 m C @.6 #.$.%.                ",
"        &.#.*.=.-.B 1 M ;.>.,.'.).!.~.~.% ~.{.].^./.,...;.M j x h 1 (.4 I _.Z :.<.              ",
"      $ w U ;.I M M [.}.( |.1.~ <.2.        . { # R 3.4.5.= 6.7.m j 1 L O 7.8.9.& b             ",
"    0.c > a.-.b.c.d.e.f.<.2.                        + t g.S h.i.j.=.b.g B f k.W Q l.%.          ",
"    R m._.-.(.V _.n.1.]                                   0.t o.p.q._ 5 (.M O k.r.s.t.          ",
"  ] u., +.N L v.w.% +                                           ] b p.x.r.N L N < y.z.o.        ",
"  o.#.A.k.3 b.B.c 2.                                              . 0.{.C.D.4 B -.=., E.u       ",
"  S F.@.c.m [.i.G.+       0.{ u .                                     . R ).U 4 4 v.H.' f.]     ",
"0.l.U I L (.I.J.2.      ] K.E.u.0 0..                                   + 1.m.W N O n L.M.b     ",
"t N.H.O.(.a.* % P.    . ^ Q., R.).9 # .                                   ] S.R.T.O U...V.^     ",
"# M.W 7.T.W.X.b .     2.F Z Y.[.6 * c b .                                 . 0 N.Z.a.8.X V.g.    ",
"2.`.e @.7.=.'.3.2.  . ^ M.d.I O.< _.`  +g..                                 u |.` =.;.A.Y .+.   ",
"  ++@+;.< @.#+N.v 0.. ^ $+#+%+O &+5 *+> $+=+u                               0.-+;+k.M 4 L.>+]   ",
"  K.s.P v.a.o ,+w ~.u @ {.) '+n T.5 )+v.r.!+J.{         P.@ t ~+t ]         + 1.!+&+g 3 {+z.#   ",
"  a :. .;.a.5 ;.'+x.4.{.0 ]+^+..Y.{+I C } T.F.`.a     + ~ /+X.V.(+]+u         o.V.;.m 3 I 7 g.  ",
"    b Q.B.;.v.k.7.U.y._ !+( w T , _+4 L 1 | f :+( ] . R q.<+[+@.{+; c ]       $ X.r.L 3 &+D ~   ",
"      b Q.p U.n c.A 1 } 4 U.H }.T j.&+k 2 g } f = &.R i.[+M 1 j i M Y {.      ~+}+6.A A f '+t.+ ",
"        ~+5.e (.l J |+K J i B Y.1+e.I.(.x J l [.).{.F 6.g 2+3+K x i *.|.      0.4+1+M A [ )+}+] ",
"        ]+5+W c.l J y y J x k f 6+C.! > M J K n 5.7+l.a.K 8+9+3+0+i Z.].      + 3.a+c.g O a.w @ ",
"      9 b+8.C C n N L | i l A -.d.!+c+d U.2 l 4 : ).J.:+h 8+8+d+0+k B.p.      + .+,.T.c.v.v.e+u ",
"    o.5.d.(.B f+< U.'+g+h+i+Z.'+ .D ,+6.P a.O 4 _ 9 g.j+M 2+3+0+i a.n.#     . ] ~.'.8.k.< k.w.a ",
"  + k+; -.B C @.*.l+S.v 1.{.f.m+s.6.W W P r.W Z.Q.u P.J.@+n V c.U.` k+P.  . ] $ p.5+H.@.+.U.m.a ",
"  %.5.8.M O I '+M.~.2.  + b >+;+6.o W [.&+8.Y 5.o..   { p.n+o+5+) F # . . @ G.J.n+D U.n v.< e.a ",
"  S  .C [ n @.p+-+]   . $ ].= r.Y.o Y.@.@.q+r+0 .       ] b ~ G.g.@ .   + &.s+(+}.H.C O %+o M.@ ",
"] c++.V -.a.p ^.# .   2.S.7 _.v.a.)+P '+- ).R .                         2.3.^.t+p T.} 4 {+6+k++ ",
"g.x.O M &+[.T .+P.    @ u+, 5 -.C 5 X e+v+R .                         . 1.c+) s.r.m g -.@.9.R   ",
"1.F.3 4 %+_.Q.b .     P.~.^+H %+;.X n+9 ~+.                           R w _ <+y.n g b.a.W.i.~+  ",
".+ .V 7.{+d.:.{         ] s ^+D a+! K.]                           . R $+B.Y.[.f m [ 5 W.>.!.0.  ",
"~._ O.)+;._.V.=++         2.% v+J.0 P.                          . =+(+,+5 f+b.A [ W.6 X V.^     ",
"o.#.Z.H._.P j.E w+%.        P.a a +                           + 7+M.6+< f M A c.P F.;+n+9 0.    ",
"0.|.x+H d.e P 6 Z m+k+S 3.K.7+o.@                       0.{ o.w+y+Z.f b.V m (.8.a+N.& 3.@       ",
"  =+M.> '+d.*+U.[+>.}.Y z+;+x.e+! /+k+9 % 7+~ v {.$.F p.A+! i.; Y.b.} k | [ Y.1+r |.{.a .       ",
"  + ]+G _ i++.@.=.r.r.=.5 < a.v.;.A.,+Q B+o+!+p+z+<+@+..U 8.&+V m | i y 3 8.Q $+f.{.b .         ",
"    $ |.t+_ W O.v.W.r.[+P =.7.c.| g 3 c.b.O T.-.< T.f+[ B L 1 j | k 2 (.Z.e.A+-+^               ",
"        {.).' ..8.5 %+k.7.&+[ A z i 2 k g L 4 &++.I C c.b.[ 3 1 A C U.F.^.0 ~+0.                ",
"          &.c $+7 > *._.+.v.f L l h h x z j A -.5 k.4 b.(.c.O f+5 B.'.f.@ .                     ",
"                % ].8 n.e.b+}.'+Y.%+f+N c.(.b.[.d.y.L.d.e L.>.a+e+u.^ +                         ",
"                          P.o.|.$+t+!+Y 9._ ; * n.(+C+Q.8 ^.$.^ 0.                              ",
"                                    @ 7+K.7+K.                                                  ",
"                                                                                                "};
