/* XPM */
static char * make_xpm[] = {
"48 48 903 2",
"  	c None",
". 	c #FFFFFF",
"+ 	c #FFFEFE",
"@ 	c #FFF5EF",
"# 	c #FFCFAE",
"$ 	c #FFCDAB",
"% 	c #FFE8D9",
"& 	c #FFFFFE",
"* 	c #FFFCFA",
"= 	c #FFE8D8",
"- 	c #FFFEFD",
"; 	c #FFFBF8",
"> 	c #FFF0E6",
", 	c #FFF8F3",
"' 	c #FFFDFD",
") 	c #FFE2CE",
"! 	c #FFE7D8",
"~ 	c #FFFDFC",
"{ 	c #FFDEC8",
"] 	c #FF802C",
"^ 	c #FF893A",
"/ 	c #FFBC8E",
"( 	c #FFF4EC",
"_ 	c #FFDAC1",
": 	c #FF9046",
"< 	c #FF8F44",
"[ 	c #FFD1B1",
"} 	c #FFFCF9",
"| 	c #FFD5B9",
"1 	c #FF9853",
"2 	c #FF7E28",
"3 	c #FF9C5A",
"4 	c #FFD9C1",
"5 	c #FFFAF7",
"6 	c #FFEFE5",
"7 	c #FFA568",
"8 	c #FF8736",
"9 	c #FFE5D4",
"0 	c #FF8A3E",
"a 	c #FF8432",
"b 	c #FF9954",
"c 	c #FFDCC5",
"d 	c #FFF2EA",
"e 	c #FFD3B5",
"f 	c #FFF2E9",
"g 	c #FFD7BC",
"h 	c #FF8C40",
"i 	c #FF771D",
"j 	c #FFA76B",
"k 	c #FFE9DB",
"l 	c #FFDDC5",
"m 	c #FF934B",
"n 	c #FF6E0E",
"o 	c #FF7112",
"p 	c #FFA66B",
"q 	c #FFEBDD",
"r 	c #FFC197",
"s 	c #FFE1CE",
"t 	c #FFC49C",
"u 	c #FFCFAF",
"v 	c #FFF9F4",
"w 	c #FFD2B4",
"x 	c #FF822E",
"y 	c #FF7D26",
"z 	c #FFA971",
"A 	c #FFF6F0",
"B 	c #FFBB8F",
"C 	c #FFDDC7",
"D 	c #FFFDFB",
"E 	c #FFA96E",
"F 	c #FF8330",
"G 	c #FF7B23",
"H 	c #FF8433",
"I 	c #FFD8BF",
"J 	c #FFE5D3",
"K 	c #FFF5EE",
"L 	c #FFE4D2",
"M 	c #FFEDE1",
"N 	c #FFFBF9",
"O 	c #FF944D",
"P 	c #FF8A3C",
"Q 	c #FFAB73",
"R 	c #FFEEE3",
"S 	c #FFFEFC",
"T 	c #FFF4ED",
"U 	c #FFD4B7",
"V 	c #FFD6BA",
"W 	c #FFEEE4",
"X 	c #FFA365",
"Y 	c #FF9751",
"Z 	c #FFAC74",
"` 	c #FFECE0",
" .	c #FF7A22",
"..	c #FF8B3D",
"+.	c #FFFDFE",
"@.	c #FFFEFF",
"#.	c #FFFBF7",
"$.	c #FFE9DA",
"%.	c #FFFAF5",
"&.	c #FFECDF",
"*.	c #FFFBFE",
"=.	c #FFFBFD",
"-.	c #FFF3EB",
";.	c #FFEEE2",
">.	c #FFFAF6",
",.	c #FFC39B",
"'.	c #FF7E29",
").	c #FF751A",
"!.	c #FF7F29",
"~.	c #FFF9F5",
"{.	c #FFDAC2",
"].	c #FF934C",
"^.	c #FF8E42",
"/.	c #FFCFB0",
"(.	c #FFFAFC",
"_.	c #FFE4F4",
":.	c #FFDAF0",
"<.	c #FFF0F9",
"[.	c #FF7C26",
"}.	c #FFAD76",
"|.	c #FFE9F6",
"1.	c #FFC4E7",
"2.	c #FFD0EC",
"3.	c #FFF4FB",
"4.	c #FFF7F1",
"5.	c #FFCDAC",
"6.	c #FF9852",
"7.	c #FFB280",
"8.	c #FFF0E5",
"9.	c #FFE0CB",
"0.	c #FFDCF1",
"a.	c #FF52B9",
"b.	c #FF54BB",
"c.	c #FFC5E9",
"d.	c #FFF3EA",
"e.	c #FFE5D5",
"f.	c #FFA86F",
"g.	c #FF8E43",
"h.	c #FFBD90",
"i.	c #FFF8FC",
"j.	c #FF8CD1",
"k.	c #FF32AD",
"l.	c #FF7BCA",
"m.	c #FFE0F2",
"n.	c #FFCEAC",
"o.	c #FFB381",
"p.	c #FFE3CF",
"q.	c #FFDFC9",
"r.	c #FFE7D7",
"s.	c #FFF9F6",
"t.	c #FFAE77",
"u.	c #FF9A56",
"v.	c #FFA76C",
"w.	c #FFD4B8",
"x.	c #FFFCFE",
"y.	c #FFC8E9",
"z.	c #FF31AC",
"A.	c #FF4EB9",
"B.	c #FFBEE5",
"C.	c #FFBC90",
"D.	c #FFCDAA",
"E.	c #FFF1E8",
"F.	c #FFEBDE",
"G.	c #FFF1F9",
"H.	c #FF7ECC",
"I.	c #FF2AAA",
"J.	c #FF69C3",
"K.	c #FFD4ED",
"L.	c #FFD0B0",
"M.	c #FFF8F5",
"N.	c #FF9249",
"O.	c #FF893B",
"P.	c #FF944C",
"Q.	c #FFD0B1",
"R.	c #FFB7E2",
"S.	c #FF22A7",
"T.	c #FF49B7",
"U.	c #FFBCE5",
"V.	c #FFC49D",
"W.	c #FFA569",
"X.	c #FFE4D1",
"Y.	c #FFF6FB",
"Z.	c #FF86CE",
"`.	c #FF30AC",
" +	c #FF5DBF",
".+	c #FFCAE9",
"++	c #FFC7A2",
"@+	c #FFB684",
"#+	c #FFE7D6",
"$+	c #FFE0CC",
"%+	c #FFC69F",
"&+	c #FFF9FC",
"*+	c #FFB9E3",
"=+	c #FF21A7",
"-+	c #FF46B5",
";+	c #FFB5E1",
">+	c #FFF5FB",
",+	c #FF9DD8",
"'+	c #FF48B6",
")+	c #FF56BB",
"!+	c #FFC3E7",
"~+	c #FFF7FC",
"{+	c #FF39B0",
"]+	c #FF4EB8",
"^+	c #FFB1E0",
"/+	c #FF68C3",
"(+	c #FF2AA8",
"_+	c #FF77C9",
":+	c #FF8AD0",
"<+	c #FF7CCB",
"[+	c #FF6FC5",
"}+	c #FF93D4",
"|+	c #FFE4F5",
"1+	c #FBFBFB",
"2+	c #F9F9F9",
"3+	c #F7F7F7",
"4+	c #FDFDFD",
"5+	c #FAFAFA",
"6+	c #F0F0F0",
"7+	c #EFEFEF",
"8+	c #F6F6F6",
"9+	c #FFF9FD",
"0+	c #FFC0E6",
"a+	c #FF49B6",
"b+	c #FF50B9",
"c+	c #FFAADD",
"d+	c #FFFAFD",
"e+	c #FFA0D9",
"f+	c #FF47B5",
"g+	c #FF91D4",
"h+	c #FF30AD",
"i+	c #FF1CA5",
"j+	c #FF0B9D",
"k+	c #FF119F",
"l+	c #FF23A7",
"m+	c #FF31AD",
"n+	c #FF0D9E",
"o+	c #FF40B2",
"p+	c #FFB2E0",
"q+	c #EBEBEB",
"r+	c #CECECE",
"s+	c #C4C4C4",
"t+	c #F5F5F5",
"u+	c #F4F4F4",
"v+	c #C0C0C0",
"w+	c #9D9D9D",
"x+	c #A2A2A2",
"y+	c #FFF2F9",
"z+	c #FFE1F4",
"A+	c #FFCDEB",
"B+	c #FF93D3",
"C+	c #FF28A9",
"D+	c #FF37B0",
"E+	c #FF75C8",
"F+	c #FFCAEA",
"G+	c #FFD9F0",
"H+	c #FF29A9",
"I+	c #FF3DB2",
"J+	c #FF18A3",
"K+	c #FF15A2",
"L+	c #FF0F9F",
"M+	c #FF52BB",
"N+	c #FF17A3",
"O+	c #FF19A3",
"P+	c #FF63C0",
"Q+	c #FFC2E7",
"R+	c #FEFEFE",
"S+	c #555555",
"T+	c #505050",
"U+	c #757575",
"V+	c #E9E9E9",
"W+	c #CDCDCD",
"X+	c #434343",
"Y+	c #353535",
"Z+	c #4A4A4A",
"`+	c #ABABAB",
" @	c #FF1FA6",
".@	c #FF11A0",
"+@	c #FF049B",
"@@	c #FF069C",
"#@	c #FF0C9E",
"$@	c #FF2CAA",
"%@	c #FF5DBE",
"&@	c #FFC5E8",
"*@	c #FFA9DD",
"=@	c #FF1DA4",
"-@	c #FF0C9F",
";@	c #FF0B9C",
">@	c #FF25A8",
",@	c #FF38B0",
"'@	c #FF57BC",
")@	c #FF2CAB",
"!@	c #FF19A2",
"~@	c #FFA6DB",
"{@	c #5E5E5E",
"]@	c #282828",
"^@	c #2F2F2F",
"/@	c #5D5D5D",
"(@	c #DDDDDD",
"_@	c #A3A3A3",
":@	c #252525",
"<@	c #242424",
"[@	c #3E3E3E",
"}@	c #FFE4F3",
"|@	c #FF2BAA",
"1@	c #FF089D",
"2@	c #FF059B",
"3@	c #FF099D",
"4@	c #FF0B9E",
"5@	c #FF12A0",
"6@	c #FF22A6",
"7@	c #FF34AE",
"8@	c #FF33AE",
"9@	c #FF87CE",
"0@	c #FFB2E1",
"a@	c #FF039B",
"b@	c #FF019A",
"c@	c #FF039A",
"d@	c #FF14A1",
"e@	c #FF35AE",
"f@	c #FF42B4",
"g@	c #FF1BA4",
"h@	c #FF91D3",
"i@	c #DFDFDF",
"j@	c #545454",
"k@	c #2B2B2B",
"l@	c #363636",
"m@	c #383838",
"n@	c #808080",
"o@	c #232323",
"p@	c #B2B2B2",
"q@	c #FFEFF9",
"r@	c #FF40B3",
"s@	c #FF069B",
"t@	c #FF0B9F",
"u@	c #FF43B4",
"v@	c #FF25A7",
"w@	c #FFCFEB",
"x@	c #FFDEF2",
"y@	c #FF83CE",
"z@	c #FF24A7",
"A@	c #FF079C",
"B@	c #FF0199",
"C@	c #FF089C",
"D@	c #FF12A1",
"E@	c #FF2DAC",
"F@	c #FF63C1",
"G@	c #FFF3FA",
"H@	c #C9C9C9",
"I@	c #323232",
"J@	c #131313",
"K@	c #030303",
"L@	c #080808",
"M@	c #0B0B0B",
"N@	c #FCFCFC",
"O@	c #272727",
"P@	c #BFBFBF",
"Q@	c #FF84CE",
"R@	c #FF029A",
"S@	c #FF5CBE",
"T@	c #FF4FB8",
"U@	c #FF2AA9",
"V@	c #FF9DD9",
"W@	c #FFFCFD",
"X@	c #FFE3F4",
"Y@	c #FF99D6",
"Z@	c #FF4BB7",
"`@	c #FF1EA4",
" #	c #FF2CAC",
".#	c #FF62C0",
"+#	c #414141",
"@#	c #292929",
"##	c #101010",
"$#	c #020202",
"%#	c #040404",
"&#	c #070707",
"*#	c #444444",
"=#	c #191919",
"-#	c #3B3B3B",
";#	c #C8C8C8",
">#	c #FFCDEA",
",#	c #FF65C2",
"'#	c #FF0E9F",
")#	c #FF099C",
"!#	c #FF56BC",
"~#	c #FF11A1",
"{#	c #FF13A0",
"]#	c #FF64C0",
"^#	c #FFF7FB",
"/#	c #FFC2E6",
"(#	c #FF89CF",
"_#	c #FF53BA",
":#	c #FF18A2",
"<#	c #FFDFF3",
"[#	c #9B9B9B",
"}#	c #212121",
"|#	c #0D0D0D",
"1#	c #050505",
"2#	c #060606",
"3#	c #0A0A0A",
"4#	c #DADADA",
"5#	c #484848",
"6#	c #0E0E0E",
"7#	c #2A2A2A",
"8#	c #D0D0D0",
"9#	c #FFF0F8",
"0#	c #FF67C2",
"a#	c #FF21A6",
"b#	c #FF20A6",
"c#	c #FF6BC4",
"d#	c #FFF1FA",
"e#	c #FFEDF7",
"f#	c #FF67C3",
"g#	c #FF37AE",
"h#	c #FF81CE",
"i#	c #FDF2FA",
"j#	c #FDFDFF",
"k#	c #969696",
"l#	c #090909",
"m#	c #E1E1E1",
"n#	c #3C3C3C",
"o#	c #111111",
"p#	c #D6D6D6",
"q#	c #FFD0EB",
"r#	c #FF3CB1",
"s#	c #FF079B",
"t#	c #FF27A8",
"u#	c #FFD7EF",
"v#	c #FEFEFF",
"w#	c #FEFDFF",
"x#	c #F9F3FF",
"y#	c #F2E4FF",
"z#	c #F2E5FF",
"A#	c #F7EEFF",
"B#	c #FAF5FF",
"C#	c #FDF5FC",
"D#	c #FFCCEA",
"E#	c #FDA4DD",
"F#	c #F7B3E8",
"G#	c #ECC6F9",
"H#	c #DCBAFF",
"I#	c #DAB7FF",
"J#	c #E6CFFF",
"K#	c #F8F2FF",
"L#	c #8D8D8D",
"M#	c #010101",
"N#	c #0C0C0C",
"O#	c #1B1B1B",
"P#	c #121212",
"Q#	c #2D2D2D",
"R#	c #FDFBFF",
"S#	c #F2E6FF",
"T#	c #FAF4FF",
"U#	c #FED7F0",
"V#	c #FF33AD",
"W#	c #FE95D5",
"X#	c #F9F1FF",
"Y#	c #E9D4FF",
"Z#	c #E7CFFF",
"`#	c #EFDEFF",
" $	c #F5EAFF",
".$	c #FCF8FF",
"+$	c #F0E1FF",
"@$	c #D8B1FF",
"#$	c #D5ABFF",
"$$	c #D8B2FF",
"%$	c #D3A8FF",
"&$	c #DFBFFF",
"*$	c #E8D1FF",
"=$	c #DAB5FF",
"-$	c #C994FF",
";$	c #A750FF",
">$	c #9C3AFF",
",$	c #AF60FF",
"'$	c #DCBBFF",
")$	c #F6F6F7",
"!$	c #6F6F6F",
"~$	c #1E1E1E",
"{$	c #313131",
"]$	c #151515",
"^$	c #E5E5E5",
"/$	c #F7EFFF",
"($	c #E1C3FF",
"_$	c #EDDBFF",
":$	c #FCF1FC",
"<$	c #F0E3FF",
"[$	c #D0A2FF",
"}$	c #C993FF",
"|$	c #D0A3FF",
"1$	c #CA96FF",
"2$	c #DEBCFF",
"3$	c #F9F4FF",
"4$	c #FDFCFF",
"5$	c #EAD4FF",
"6$	c #CA95FF",
"7$	c #C892FF",
"8$	c #C48AFF",
"9$	c #A54CFF",
"0$	c #A64DFF",
"a$	c #C58CFF",
"b$	c #CE9DFF",
"c$	c #C68DFF",
"d$	c #C387FF",
"e$	c #AC5AFF",
"f$	c #972FFF",
"g$	c #952AFF",
"h$	c #BB77FF",
"i$	c #E7D0FF",
"j$	c #F1EDF4",
"k$	c #393939",
"l$	c #171717",
"m$	c #BBBBBB",
"n$	c #2C2C2C",
"o$	c #4D4D4D",
"p$	c #DDBBFF",
"q$	c #DCB9FF",
"r$	c #D4AAFF",
"s$	c #C386FF",
"t$	c #C890FF",
"u$	c #E4C9FF",
"v$	c #FBF7FF",
"w$	c #ECD9FF",
"x$	c #D1A4FF",
"y$	c #C388FF",
"z$	c #AC59FF",
"A$	c #FAF6FF",
"B$	c #BC7AFF",
"C$	c #C489FF",
"D$	c #A54BFF",
"E$	c #9225FF",
"F$	c #A042FF",
"G$	c #C992FF",
"H$	c #B060FF",
"I$	c #A041FF",
"J$	c #972EFF",
"K$	c #AD5AFF",
"L$	c #D7AFFF",
"M$	c #E1DAE9",
"N$	c #6D6D6D",
"O$	c #464646",
"P$	c #0F0F0F",
"Q$	c #C3C3C3",
"R$	c #6B6B6B",
"S$	c #3D3D3D",
"T$	c #333333",
"U$	c #E6E5E8",
"V$	c #E8D0FF",
"W$	c #A64EFF",
"X$	c #A449FF",
"Y$	c #B770FF",
"Z$	c #C184FF",
"`$	c #E1C4FF",
" %	c #BD7CFF",
".%	c #C58BFF",
"+%	c #C286FF",
"@%	c #B56BFF",
"#%	c #AD5CFF",
"$%	c #A347FF",
"%%	c #942AFF",
"&%	c #BE7DFF",
"*%	c #EFDFFF",
"=%	c #D1A3FF",
"-%	c #AA56FF",
";%	c #AB59FF",
">%	c #A143FF",
",%	c #9831FF",
"'%	c #9934FF",
")%	c #C790FF",
"!%	c #DDBCFF",
"~%	c #962DFF",
"{%	c #A245FF",
"]%	c #D9CDE6",
"^%	c #898989",
"/%	c #535353",
"(%	c #202020",
"_%	c #C7C7C7",
":%	c #666666",
"<%	c #494949",
"[%	c #DBD9DE",
"}%	c #D9B3FF",
"|%	c #962EFF",
"1%	c #8E1EFF",
"2%	c #9A36FF",
"3%	c #9D3CFF",
"4%	c #9226FF",
"5%	c #B76FFF",
"6%	c #EEDDFF",
"7%	c #BC79FF",
"8%	c #952BFF",
"9%	c #9B38FF",
"0%	c #9D3BFF",
"a%	c #B871FF",
"b%	c #B66DFF",
"c%	c #9428FF",
"d%	c #952CFF",
"e%	c #9C39FF",
"f%	c #9B37FF",
"g%	c #D3A7FF",
"h%	c #A852FF",
"i%	c #9123FF",
"j%	c #9124FF",
"k%	c #8B18FF",
"l%	c #9224FF",
"m%	c #CFC2DD",
"n%	c #868686",
"o%	c #454545",
"p%	c #C6C6C6",
"q%	c #4F4F4F",
"r%	c #3A3A3A",
"s%	c #D2D0D4",
"t%	c #E3C7FF",
"u%	c #8813FF",
"v%	c #9328FF",
"w%	c #9832FF",
"x%	c #CD9BFF",
"y%	c #EAD5FF",
"z%	c #AB57FF",
"A%	c #9427FF",
"B%	c #9122FF",
"C%	c #9830FF",
"D%	c #9933FF",
"E%	c #A144FF",
"F%	c #E4CAFF",
"G%	c #B368FF",
"H%	c #962BFF",
"I%	c #9A35FF",
"J%	c #9F3FFF",
"K%	c #E0C1FF",
"L%	c #B061FF",
"M%	c #8F20FF",
"N%	c #8B17FF",
"O%	c #D2A6FF",
"P%	c #D2CCD9",
"Q%	c #767676",
"R%	c #222222",
"S%	c #4C4C4C",
"T%	c #404040",
"U%	c #D2D2D3",
"V%	c #F6EDFF",
"W%	c #CB99FF",
"X%	c #A349FF",
"Y%	c #9227FF",
"Z%	c #AA54FF",
"`%	c #CE9CFF",
" &	c #F1E3FF",
".&	c #8E1DFF",
"+&	c #A54AFF",
"@&	c #B163FF",
"#&	c #EDDAFF",
"$&	c #F3E8FF",
"%&	c #8D1CFF",
"&&	c #9F40FF",
"*&	c #F0E2FF",
"=&	c #F4EAFF",
"-&	c #CD9CFF",
";&	c #A348FF",
">&	c #9730FF",
",&	c #D8D7D9",
"'&	c #686868",
")&	c #C2C2C2",
"!&	c #303030",
"~&	c #4B4B4B",
"{&	c #DBDBDB",
"]&	c #DCBCFF",
"^&	c #CA97FF",
"/&	c #D6ADFF",
"(&	c #DDB9FF",
"_&	c #AE5DFF",
":&	c #A246FF",
"<&	c #C080FF",
"[&	c #E6CEFF",
"}&	c #9E3CFF",
"|&	c #B974FF",
"1&	c #E3C8FF",
"2&	c #CFA0FF",
"3&	c #DEBDFF",
"4&	c #D1D1D1",
"5&	c #575757",
"6&	c #262626",
"7&	c #1A1A1A",
"8&	c #FCFAFF",
"9&	c #FBF8FF",
"0&	c #E5CCFF",
"a&	c #D6ACFF",
"b&	c #D7B0FF",
"c&	c #F8F1FF",
"d&	c #EDDDFF",
"e&	c #DEBEFF",
"f&	c #D6AEFF",
"g&	c #EAD6FF",
"h&	c #CBCBCB",
"i&	c #1D1D1D",
"j&	c #DEDEDE",
"k&	c #D7D7D7",
"l&	c #FDFAFF",
"m&	c #FEFCFF",
"n&	c #F9F2FF",
"o&	c #4E4E4E",
"p&	c #424242",
"q&	c #141414",
"r&	c #FCF9FF",
"s&	c #EFE0FF",
"t&	c #EBD7FF",
"u&	c #F7F0FF",
"v&	c #E5CBFF",
"w&	c #E6CCFF",
"x&	c #EDECED",
"y&	c #5A5A5A",
"z&	c #A4A4A4",
"A&	c #EAEAEA",
"B&	c #DAB4FF",
"C&	c #D8B0FF",
"D&	c #DEBFFF",
"E&	c #F3E6FF",
"F&	c #E6CDFF",
"G&	c #BE7EFF",
"H&	c #EDDCFF",
"I&	c #F6EEFF",
"J&	c #CF9FFF",
"K&	c #DFBEFF",
"L&	c #F3E7FF",
"M&	c #CB97FF",
"N&	c #F1E2FF",
"O&	c #B872FF",
"P&	c #AC58FF",
"Q&	c #F1EAF9",
"R&	c #6F6E6F",
"S&	c #626262",
"T&	c #696969",
"U&	c #CACACA",
"V&	c #E9E8E9",
"W&	c #B76EFF",
"X&	c #CE9EFF",
"Y&	c #CC99FF",
"Z&	c #B265FF",
"`&	c #9B39FF",
" *	c #B66FFF",
".*	c #F7F1FF",
"+*	c #CB98FF",
"@*	c #9A37FF",
"#*	c #B771FF",
"$*	c #D9B6FD",
"%*	c #8B8690",
"&*	c #6C6C6C",
"**	c #5F5F5F",
"=*	c #B4B4B4",
"-*	c #161616",
";*	c #D0CED3",
">*	c #D5B1FA",
",*	c #B267FF",
"'*	c #B062FF",
")*	c #E2C5FF",
"!*	c #A043FF",
"~*	c #B56DFF",
"{*	c #B975FF",
"]*	c #C285FF",
"^*	c #9022FF",
"/*	c #A955FF",
"(*	c #9125FF",
"_*	c #A44AFF",
":*	c #B5AAC0",
"<*	c #818181",
"[*	c #787878",
"}*	c #979797",
"|*	c #525252",
"1*	c #AEACB0",
"2*	c #C49DEB",
"3*	c #9329FF",
"4*	c #CA94FF",
"5*	c #9D3DFF",
"6*	c #9C3BFF",
"7*	c #BB76FF",
"8*	c #AB58FF",
"9*	c #8A16FF",
"0*	c #9731FF",
"a*	c #D4A9FF",
"b*	c #9023FF",
"c*	c #CABFD4",
"d*	c #A7A7A7",
"e*	c #939393",
"f*	c #2E2E2E",
"g*	c #343434",
"h*	c #7A7A7A",
"i*	c #A8A7A9",
"j*	c #CEBBE1",
"k*	c #E3CAFF",
"l*	c #D5ACFF",
"m*	c #8A17FF",
"n*	c #A74FFF",
"o*	c #DBB7FF",
"p*	c #C082FF",
"q*	c #E9D2FF",
"r*	c #AC5BFF",
"s*	c #E0C2FF",
"t*	c #D4D0D7",
"u*	c #A1A1A1",
"v*	c #D5D5D5",
"w*	c #E9E5ED",
"x*	c #B973FF",
"y*	c #C891FF",
"z*	c #962FFF",
"A*	c #8E1CFF",
"B*	c #AE5EFF",
"C*	c #F8F1FE",
"D*	c #FDFCFE",
"E*	c #EEE1FD",
"F*	c #CD9FFB",
"G*	c #BA7AFA",
"H*	c #C692FA",
"I*	c #D4AEFB",
"J*	c #E7D3FC",
"K*	c #F8F4FB",
"L*	c #F2F1F4",
"M*	c #DECEEE",
"N*	c #CFB2EC",
"O*	c #C9A3F0",
"P*	c #D0ABF4",
"Q*	c #E5CEFB",
"R*	c #F7F2FD",
"S*	c #E3E3E4",
"T*	c #8F8F8F",
"U*	c #373737",
"V*	c #1C1C1C",
"W*	c #8C8C8C",
"X*	c #909091",
"Y*	c #88838B",
"Z*	c #76638A",
"`*	c #7B6291",
" =	c #69587B",
".=	c #8F7F9F",
"+=	c #A09CA4",
"@=	c #A8A8A8",
"#=	c #A4A3A6",
"$=	c #9D90AB",
"%=	c #835DAB",
"&=	c #7641AB",
"*=	c #7E4BB2",
"==	c #8763AB",
"-=	c #876BA4",
";=	c #8D7D9D",
">=	c #857F8A",
",=	c #858585",
"'=	c #767677",
")=	c #6B6572",
"!=	c #5F516D",
"~=	c #6B5F76",
"{=	c #817A88",
"]=	c #ADAAAF",
"^=	c #D4D4D4",
"/=	c #E4E4E4",
"(=	c #E7E7E7",
"_=	c #DFDFE0",
":=	c #CDCAD0",
"<=	c #BDB7C4",
"[=	c #D0CBD5",
"}=	c #ECEBEE",
"|=	c #F3F3F3",
"1=	c #DCDCDC",
"2=	c #616161",
"3=	c #2E2D2F",
"4=	c #343235",
"5=	c #414042",
"6=	c #343335",
"7=	c #36323A",
"8=	c #352D3D",
"9=	c #392F43",
"0=	c #403A46",
"a=	c #4F4C53",
"b=	c #4A4A4B",
"c=	c #3F3F3F",
"d=	c #888888",
"e=	c #ADADAD",
"f=	c #727272",
"g=	c #181818",
"h=	c #656565",
"i=	c #585858",
"j=	c #1F1F1F",
"k=	c #7F7F7F",
"l=	c #9F9F9F",
"m=	c #636363",
"n=	c #E2E2E2",
"o=	c #6A6A6A",
"p=	c #515151",
"q=	c #737373",
"r=	c #777777",
"s=	c #8E8E8E",
"t=	c #707070",
"u=	c #F1F1F1",
"v=	c #CFCFCF",
"w=	c #7B7B7B",
"x=	c #646464",
"y=	c #474747",
"z=	c #A6A6A6",
"A=	c #B3B3B3",
"B=	c #D8D8D8",
"C=	c #E3E3E3",
"D=	c #BABABA",
"E=	c #B1B1B1",
"F=	c #A9A9A9",
"G=	c #B0B0B0",
"H=	c #8B8B8B",
"I=	c #565656",
"J=	c #949494",
". . . . . . . . . . . . . . . . . . . . . . . . . . . . . . . . . . . . . . . . . . . . . . . . ",
". . . . + . . . . . . . @ # $ % & . . . . . . . * % = - . . . . . . + ; > , ' . . . . . . . . . ",
". . . * ) ! @ . . . . ~ { ] ^ / ( . + ~ ~ + . . _ : < [ } . . . . ; | 1 2 3 4 5 . . . . . . . . ",
". . + 6 7 8 | . . . . & 9 0 a b c . d e e f & . g h i j k . . . . l m n o p q . . - - . . . . . ",
". . . * r p , - + . . . ; s t u v * w x y z d . A e B C D . . . . = E F G H I & - = J K - . . . ",
". . . . - } 5 L M N . . . . . . . ~ l O P Q R . . ' S - . . . . . . T U b P V * W X Y Z ` + . . ",
". . . . . ~ {  ...g + . . + +.@.. . #.L U $.- . %.&.= > } . @.*.=.@.. . -.;.>.. ,.'.).!.4 * . . ",
". . . . + ~.{.].^./.. . (._.:.<.. . . + . . . . {.: [.}.k + |.1.2.3.. + >.4.* . 5.m 6.7.8.+ . . ",
". . + ( &.4 K 9._ ; . . 0.a.b.c.. . * d.` 4.+ . e.f.g.h.d i.j.k.l.m.. * n.o.p.~ 5 q.r.5 + . . . ",
". . s.t.u.v.w.. . . . x.y.z.A.B.. . ( C.m D.S . - E.F.~.. G.H.I.J.K.. ~.Q h L.M.. . . . . . . . ",
". . -.N.O.P.Q.. . . . i.R.S.T.U.. . A V.W.X.. . . . . . . Y.Z.`. +.+. * ++@+#+- . . . . . . . . ",
". . - $+%+l * . . . . &+*+=+-+;+. . + A 8.- . . . . . . . >+,+'+)+!+. . + + . . . . . . . . . . ",
". . . . . . . . . . . ~+;+{+]+^+. . . . . . . . . . . >+G..+/+(+{+_+:+<+[+}+|+. . . . 1+2+3+4+. ",
". . 5+6+7+8+. . . . . 9+0+a+b+c+x.9++.. . . . . . d+e+f+g+h+i+j+k+l+m+S.n+o+p++.. . q+r+s+s+t+. ",
". u+v+w+x+r+. . . y+z+A+B+C+D+E+!+F+G+~+. . . . . 2.H+S.I+J+K+L+S.f+M+N+O+P+Q+i.. R+w+S+T+U+V+. ",
". W+X+Y+Z+`+. . +.:+`. @.@+@@@#@$@%@%@&@*.. . . + *@=@-@;@.@>@=@,@'@)@L+!@C+~@. . u+{@]@^@/@(@V+",
". _@:@<@[@`+. . }@|@1@@@2@+@3@4@5@6@7@8@9@*.. . @.0@|@a@b@c@d@=@e@f@l+g@i+|@h@. . i@j@k@<@:@l@m@",
". n@o@Y+m@p@. . q@r@3@s@t@=@u@{+v@=@K+h+w@. . . . x@y@z@A@B@C@D@|@I.z@H+E@F@G@. . H@j@I@J@K@L@M@",
"N@{@O@Y+m@P@. . 9+Q@n+R@+@=+S@T@U@L+O+V@W@. . . . . X@Y@Z@`@#@3@J+k.z@ #.#~+. . . p@+#@###$#%#&#",
"q+*#=#^@-#;#. . + >#,#'#+@)#`.!#~#{#]#~+. . . . . . . ^#/#(#_#:#d@>@]+P+<#. . . . [#k@}#|#1#2#3#",
"4#5#6#7#I@8#. . . 9#F+0#d@)#k+a#b#c#d#. . . . . . . . . @.e#R.f#g#8@h#i#j#. . . R+k#]@<@3#%#l#M@",
"m#n#o#I@7#p#. . . . (.q#r#g@s##@t#u#v#w#w#. . . . x#y#z#A#B#C#D#E#F#G#H#I#J#K#. 5+L#]@@#L@M#N#l#",
"m#O#P#[@Q#4#. . . R#S#T#U#%@V#V#W#X#Y#Z#`# $.$. v#+$@$#$$$%$&$+$*$=$-$;$>$,$'$x#)$!$~${$o#2#]$M@",
"8#J@O#*#:@^$. . v#/$$$($_$:$|._.x.<$[$}$|$1$2$3$4$5$6$7$8$9$0$a$b$c$d$e$f$g$h$i$j$/@<@k$o#l#l$o#",
"m$[@n$o$7#q+B#p$q$r$s$t$s$u$. v$z#w$x$}$y$0$z$&$A$($B$C$8$D$E$F$c$x$G$H$I$J$K$L$M$N$k$O$P$P$~$}#",
"Q$R$S$j@T$U$V$W$X$F$0$Y$>$Z$x#`$ %.%+%@%#%$%%%&%*%=%9$-%;%>%,%'%)%!%B$,%~%E${%)%]%^%T+/%o#:@(%T$",
"_%:%{$<%^@[%}%|%1%%%2%3%4%5%6%7%8%9%>%0%0%9%E$a%($b%c%d%~%e%f%9$g%}%h%i%j%k%l%&%m%n%O$5#l$+#O@o%",
"p%q%O#+#r%s%t%>$u%v%>%w%{%x%y%z%A%E$B%C%e%D%E%x%F%G%H%j%g$I%J%a%K%K%L%%%M%N%f$O%P%Q%@#k$R%S%^@S$",
"H@T%R%<%X+U%V%W%X%Y%Z%Y$`% &+$5%i%.&E$|%+&@&}$#&$&c$f$%&B%E$&&7$*&=&-&;&>&X$}$*&,&'&@#T%7#}#k@<@",
")&!&o@~&T${&v#/$]&^&/&Z# $v#T#(&_&0%e%:&<&q$*%R#4$[&B$+&I%}&|&1&.$. z#=$2&3&=&w#4&5&]@X+}#6&I@o%",
"Q$(%7&r%R%{&. . 4$8&9&@.. . . x#0&@$a&b&V$c&4$. . v$d&e&%$f&g&v$. . . 4$v$R#. . h&5#~$S$P#i&S%k$",
"j&N#%###P#k&. . . . . . . . . . v#R#l&m&. . v#. . . . 4$c&n&R#w#. . . . R#R#@.. k&o&~$p&##q&o&!&",
"m#P$&#q&=#j&. . w#R#r&v$@.. . w#A#s&8&3$w$t&u&w#. . c&v&p$p$F%/$@.. R#w&}$#$u$V%x&y&o@/%l$=#/%(%",
"z&6#$#q&(%A&R#V$7$B&C&D&E&@.r&F&G&Z$H&I&H#J&K&L&@.u&/&_&_&Z$M&/&N&v#w&O&f%P&a$K%Q&R&!&S&(%l$T&{$",
"U&6#1#7&i&V&*&W&f%#%d$X&/&u&6%O&,%$%Y&%$ %a$J&H#K#Z#Z&~%`& *b%;$C&.*+*@*i%0%#*O&$*%*j@&*R%]$n#**",
"=*r%-*^@~$;*>*~%M%@*h%,*'*)*a&'%E$d%>$X%!*~*{*]*g&q$F$^*2%/*F$(*a$z#7$|%M%0%_*D%y$:*<*[*T++#p&}*",
"p@|*l$@#-*1*2*E$k%'%f%3*3%r$4*%&%&>$3%5*6*2%`&7*+$Z#8*9*i%d%3*0*+*/$a*0%C%f%d%b*d$c*d*e*f*g*R%h*",
"h&r%P#(%=#i*j*P&k%>$}&,%z$k*l*@*m*4%e%9%%%j%n*o*r&/$-$~%,%W$P&p*q*m&s& %r*z$D$'*s*t*u*|*P#~$l$X+",
"v*(%##7###)&w*3&8*P&x*+%3&3$*&y*z*A*{%B*B*O&B&C*. D*E*F*G*H*I*J*K*1+L*M*N*O*P*Q*R*S*T*U*J@-*O@5&",
"4+U*V*<%!&W*X*Y*Z*`* =.=+=@=#=$=%=&=*===-=;=>=<*,=h*'=)=!=~={=]=^=/=(=_=:=<=[=}=|=1=e*T+3#7&7&!&",
". x+2=m@Q#<@P#P$6#3=4=5=O$S$m@6=7=8=9=0=a=b=!&{$X+T%c=[@c=o&/@!$Q%d=_@e=n@&*/@m@k@S$!&Q#l#-*P$/%",
". W+f=i&g=|#l#2#L@q&q&7&R%~$}#:@6&Q#^@k@[@-#{$^@I@I@I@7#O@n$k$o$h=h*i=R%P$]$o@^@|#o#-*q&2#O#j=k=",
". ^$l=q&3#%#K@M#M#1#1#L@2#$#%#%#%#1#3#6#q&######6#q&J@P$J@-*~$R%n$[@@#J@P$##P$P$P#=#<@f*7&m=[#n=",
". R+3+[@P#1#3#2#2#J@-*P#q&##=#P#]$-*N#~$}#i&J@i&(%]$l$o#O#]@T%Y+k@**o=p=R%V*N#-*|#o#Q#!&n#;#. . ",
". . . 6+h*7#l$l$O#R%R%N#2#|#N#l#3###(%i&Y+=#P#V*!&p&r%~&j@q=r=k$/%s=q=r%j=V*~$-#t=_@v+W+8#u=. . ",
". . . . 5+v=`+w=o=2=Z+6&f*Q#<@=#P$o#j@S%x=/%7#-#y=V*j=R%o@=#O#m@y=S&z=z=A=_%B=u+R+. . . . . . . ",
". . . . . . . . . . . 1+(=m#C=W+q+D=l=d*E=F=p@G=H=:%I=|*o=i=S&J=j&8+5+2+2+4+. . . . . . . . . . ",
". . . . . . . . . . . . . . . . . . . . . . . . . . . . . . . . . . . . . . . . . . . . . . . . "};
