/* XPM */
static char *outparam[] = {
/* columns rows colors chars-per-pixel */
"48 48 185 2",
"   c #0F69ED",
".  c #0366F5",
"X  c #0365FC",
"o  c #0469F4",
"O  c #036AFC",
"+  c #0D67F6",
"@  c #0B66FD",
"#  c #0D6BF2",
"$  c #0B6BFB",
"%  c #0C70F6",
"&  c #0E71FA",
"*  c #1166F4",
"=  c #1466FA",
"-  c #136CF3",
";  c #126DFB",
":  c #1B6EF6",
">  c #196CFA",
",  c #1E72EE",
"<  c #1472F5",
"1  c #1472FC",
"2  c #1778FD",
"3  c #1B73F5",
"4  c #1B73FB",
"5  c #1D79F6",
"6  c #1D7AFC",
"7  c #2376ED",
"8  c #2478EC",
"9  c #2F7DE4",
"0  c #2B7AEA",
"q  c #2173F2",
"w  c #2175FB",
"e  c #257AF3",
"r  c #237BFC",
"t  c #2975F2",
"y  c #2877FE",
"u  c #2B7CF3",
"i  c #2A7CFC",
"p  c #3275E9",
"a  c #357EE7",
"s  c #367EEB",
"d  c #397FEA",
"f  c #327CF4",
"g  c #357EFB",
"h  c #397DF6",
"j  c #2F81EE",
"k  c #2481FD",
"l  c #2B81F4",
"z  c #2C82FC",
"x  c #2C8AFF",
"c  c #3282EB",
"v  c #3985E9",
"b  c #3F8AE9",
"n  c #3283F4",
"m  c #3383FC",
"M  c #3389FD",
"N  c #3A84F3",
"B  c #3A85FB",
"V  c #3B89F3",
"C  c #3B8BFC",
"Z  c #3690FF",
"A  c #3D91FE",
"S  c #4180E5",
"D  c #4585E9",
"F  c #478AE6",
"G  c #428BEB",
"H  c #4B89E6",
"J  c #4C88EB",
"K  c #4482F1",
"L  c #428AF3",
"P  c #428CFC",
"I  c #4B8CF2",
"U  c #4B8FFD",
"Y  c #4C90E7",
"T  c #4E93ED",
"R  c #4390F6",
"E  c #4392FE",
"W  c #4698FE",
"Q  c #4E92F7",
"!  c #4A93FD",
"~  c #4C9AFD",
"^  c #558EEE",
"/  c #528DF1",
"(  c #5093E5",
")  c #5395ED",
"_  c #5698ED",
"`  c #5B94EC",
"'  c #5B9AEF",
"]  c #5391F1",
"[  c #5395F9",
"{  c #5298F5",
"}  c #519BFE",
"|  c #5A95F2",
" . c #5C9CF1",
".. c #5B9AFC",
"X. c #53A0FD",
"o. c #59A0FE",
"O. c #6697E7",
"+. c #6092EB",
"@. c #649BED",
"#. c #689CEA",
"$. c #649BF3",
"%. c #6F9CF0",
"&. c #719FF7",
"*. c #65A5EC",
"=. c #6DA1E9",
"-. c #67A1F4",
";. c #65A4FC",
":. c #63AAFE",
">. c #6CA4F3",
",. c #6BA3F9",
"<. c #6CA9FF",
"1. c #66B0FF",
"2. c #6CB1FF",
"3. c #78A6EC",
"4. c #7AABEE",
"5. c #70A5F9",
"6. c #76AAF4",
"7. c #75ACFC",
"8. c #7AA6FA",
"9. c #7DACF5",
"0. c #7AACFA",
"q. c #76B0FA",
"w. c #7DB0F6",
"e. c #7CB2FC",
"r. c #7FB8FE",
"t. c #81ADEB",
"y. c #82AEF0",
"u. c #83AEF8",
"i. c #89B4EB",
"p. c #80B1F5",
"a. c #84B4FA",
"s. c #82BCFE",
"d. c #8AB4F1",
"f. c #8BB6FA",
"g. c #8CB9F4",
"h. c #8CBBFD",
"j. c #98BBF4",
"k. c #9BBEFD",
"l. c #A1BFEF",
"z. c #A8BDE5",
"x. c #A0BDF0",
"c. c #8CC1F3",
"v. c #8CC0F9",
"b. c #8EC8FD",
"n. c #9BC2EE",
"m. c #94C3FC",
"M. c #9BC5FC",
"N. c #9ECAF7",
"B. c #9CCAFD",
"V. c #A1C4F6",
"C. c #A3C5FA",
"Z. c #A6CAF3",
"A. c #A9C7FC",
"S. c #ACCCF6",
"D. c #AACCFD",
"F. c #AAD8FF",
"G. c #BACAE2",
"H. c #B2D1FD",
"J. c #B3D9FE",
"K. c #BAD8FD",
"L. c #B7E0FF",
"P. c #BDE3FF",
"I. c #C3DCFD",
"U. c #CBDDFD",
"Y. c #C4E3FE",
"T. c #C7EBFF",
"R. c #CBE3FF",
"E. c #CCEBFF",
"W. c #CDF2FF",
"Q. c #D3E4FC",
"!. c #D3EBFF",
"~. c #D9E0F7",
"^. c #DCEBFE",
"/. c #D5F1FE",
"(. c #DCF2FF",
"). c #DDFBFF",
"_. c #E1EEFE",
"`. c #E3F4FF",
"'. c #E5F9FF",
"]. c #E9F2FC",
"[. c #ECFAFE",
"{. c #F2F7FF",
"}. c #F4FCFE",
"|. c #FCFEF6",
" X c #FEFEFE",
/* pixels */
" X X X X X X X X X X X X X X X X X X X X X X X X|. X X X|. X X X X X X X X X X X X X X X X X X X",
" X X X X X X X X X X X X X X X X X X X}. X X X X X|. X X X X X X X X X X X X X X X X X X X X X X",
" X X X X X X X X X X X X X X X X X X X|. X X X X X X X X X X X X X X X X X X X X X X X X X X X X",
" X X X X X X X X X X X X X X X X X X|. X|. X|. X X X X X|. X X X X X X X X X X X X X X X X X X X",
" X X X X X X X X X X X X X X X X X X X|. X|.|. X|. X X|.|.|. X X X X X X X X X X X X X X X X X X",
" X X X X X X X X X X X X X X X X X X X X X X}.}.].]. X X X X X X X X X X X X X X X X X X X X X X",
" X X X X X X X X X X X X X X X X X X X X{.}.].U.I.z.^.{. X X X X X X X X X X X X X X X X X X X X",
" X X X X X X X X X X X X X X X X|. X{.~.G./.V.3.9.f.j.U.{. X|. X X|. X X}. X X X X X X X X X X X",
" X X X X X X X X X|. X X|. X|.|.}.}.'.!.P.i.w.B.v.0.h.N.C.R.}.|. X X X}. X|. X X X X X X X X X X",
" X X X X X X X X X X X}.|. X[.E.A.k.j.Z.J.9.,.>.e.&.h.m.) I k.^. X X X X X|.|. X X X X X X X X X",
" X X X X X X X X X X X X XY.u.D d ..r.m.m.0.| 2.) 7.s.*.:.t u ' I.}.|. X X X|. X X X X X X X X X",
" X X X X X X X X X X X{.d.) N C ~ L N ! ! ..C E U N B C ! ! < k ;.I. X X}. X X X X X X X X X X X",
" X X X X X X X|.|. X`.6.0 m W m e q 4 > i z e C E z 6 ; * e M 5 n 0.I.[. X|. X X X X X X X X X X",
" X X X X X X X X XR.T c X.z r r 1 < w w z i < u C r 1 $ + o < r w ~ ,.t.^. X X X X X X X X X X X",
" X X X X X X X}.Y.H l C s W 6 3 3 z x 6 - > - m E e # & 1 X O @ $ ; z 8 %.!.}. X X X X X X X X X",
" X X X X X X}.U.F e x < z , 5 C C 6 < < < e } ! I :.z % $ $ O O X X O $ 3 Q D.}.|.|. X X X X X X",
" X}. X X|.}.R.` x k % O ; i M i C C C V ..s :...' q.:.V r + ; O O X @ X X < G A.}.}. X X X X X X",
" X X X|.}.W.@.n r = + 1 r 6 1 e ! ;.r.,.s.p W ~ e.h.e.;.~ C w % O O X X X O 6 I J.}. X|. X X X|.",
" X X X X`.4.g z 4 @ & k 4 4 N ' q.>.h.%.<.h i i ;.e.$.:.P :.;.T 0 # O O O . 1 y +.]. X X|. X X|.",
" X X|. XI.O.g r q w k l K 8.I.P.7.7.[ } C m 4 4 C Q { ..: B -.L.H. .7 $ O $ = f 9.{. X X{.|. X X",
"|. X X X[.J.#.D a.u.J w.Y.{.{.d.Q o.f C r r $ 1 r u C } - 6 B 6.[.'.D./ e u I 7.!. X X}.|.|. X X",
" X X X X|.{.(.Q.}.[._.}.|.|./.J ! u w x < 1 o $ ; 6 y E   % 2 s P.}. X(.g.g.Y.^.}.|. X}. X|. X X",
" X|. X X|. X X X|.|. X X|.}.B.j C r 4 z 1 & $ ; 4 1 1 P - $ 2 i %.'.|.|.}.{. X X X X X X X X X X",
" X X X X X X X X X X X}. X[.` c A < - M & $ O 1 r 1 5 C e ; i q K I. X|. X X X|. X X X|. X X X X",
" X X X X X X X X X X}. X XK.Q E z 6 3 C $ & @ 2 r z z C i + z z B m.{. X X X X}. X X X X X X X X",
" X X X X X X X X X X X X X4.h P r 4 l E O & % 6 4 i m u m : w C u 8.Q.|. X X X X X X X X X X X X",
" X X X X X X X|. X}. X X[.' n m u r M m ; k < 2 4 E P c E z z C 8 ..H.}. X|. X X X X X X X X X X",
" X X X X X X X X}.|. X XR.G ~ P ~ e m 8 ; r 3 & < ~ X.n } m 5 5 M ..h.].|.}. X X X X X X X X X X",
" X X X X X X X X X X X Xm.a C C X.m ! C r u z X ; C E 0 C y 4 r ~ N ;.V. X X X X X X X X X X X X",
" X X X X X X X X X X X}._ C 8 E C 0 E A k t y O 1 6 i l M 4 ; r C l m +.`. X|. X X X X X X X X X",
" X X X X X X X X X}.|.E.9 C 6 4 r n z k < 3 r X 2 ; M P e r 3 } i C 1 s U.}.|. X X X X X X X X X",
" X X X X X X X X X X Xf.e z 4 m C l 5 3 r i k . 6 1 E X.8 r 3 :.s x 1 e C.}. X X X X X X X X X X",
" X X X X X X X|. X X}.) i 3 3 :.B z < 0 X.B 6 o 1 ; P :.z y 3 } :.i z :  ./. X X X X X X X X X X",
" X X X X X X X X X}.T.I e < l s.P m - P ;.g z $ 1 6 V s.s m r | F.a z > 0 N.}.}. X X X X X X X X",
" X X X X X X X X X Xs.z z w { s.N z 6 ` s.n m ; 6 i Q F.S z i  .E.6.u w i e.}.}. X X X X X X X X",
" X X X X X X X X|.].$.z i h m.7.l m g m.h.n r $ y x T R.^ m i ^ ).D.v m i ` {. X X X X X X X X X",
" X X X X X X X X|.Y.G z i ^ T.,.l u K P.N.Q M w 6 5 Y /.-.z i ` ]./.) z z a Y. X X X X X X X X X",
" X X X X X X X}.}.M.V 7 t h.!.$.N d %.[.U.A.M.$.B B =.).d.T ` n.}.}.m.m w j c.}. X X X X X X X X",
" X X X X X X X X}.y.I c J R._.H.M.M.U. X X{.{.n.u.k.R.{.R.I.!.}.}. X!.` B H S. X X X X X X X X X",
" X X X X X X X|. XI.D.m.H.}.|. X}.{. X|. X|.}.[.[.}. X X X X X X X X{.x.4.Z.}. X X X X X X X X X",
" X X X X X X X X X}.}. X}. X X X X X X X X X X X X X X X X X X|. X X X_._. X X X X X X X X X X X",
" X X X X X X X X X X}. X X X X X X X X X X X X X X X X X X X X X|. X X X X X X X X X X X X X X X",
" X X X X X X X X X X X X X X X X X X X X X X X X X X X X X X X X X X X X X|. X X X X X X X X X X",
" X X X X X X X X X X X X X X X X X X X X X X X X X X X X X X X X X X X|. X X X X X X X X X X X X",
" X X X X X X X X X X X X X X X X X X X X X X X X X X X X X X X X X X X X X X X X X X X X X X X X",
" X X X X X X X X X X X X X X X X X X X X X X X X X X X X X X X X X X X X X X X X X X X X X X X X",
" X X X X X X X X X X X X X X X X X X X X X X X X X X X X X X X X X X X{. X X|. X X X X X X X X X",
" X X X X X X X X X X X X X X X X X X X X X X X X X X X X X X X X X X X X X X X X X X X X X X X X"
};
