/* XPM */
static char *parameters[] = {
/* columns rows colors chars-per-pixel */
"48 48 256 2",
"   c #021C3B",
".  c #081C39",
"X  c #121D25",
"o  c #0A1C2D",
"O  c #03203D",
"+  c #0B2239",
"@  c #17252B",
"#  c #172738",
"$  c #102936",
"%  c #30351D",
"&  c #23323C",
"*  c #293028",
"=  c #0D1F1F",
"-  c #011B43",
";  c #031C4A",
":  c #081B46",
">  c #021B54",
",  c #0B2243",
"<  c #062347",
"1  c #01245D",
"2  c #022455",
"3  c #172844",
"4  c #163353",
"5  c #002361",
"6  c #002768",
"7  c #11356B",
"8  c #2A3A45",
"9  c #233951",
"0  c #3B4336",
"q  c #344446",
"w  c #364B59",
"e  c #274C75",
"r  c #55511B",
"t  c #4A5336",
"y  c #4F512C",
"u  c #706C30",
"i  c #44565A",
"p  c #495549",
"a  c #445567",
"s  c #526654",
"d  c #516475",
"f  c #6F7251",
"g  c #6D7979",
"h  c #615F45",
"j  c #063C89",
"k  c #0A4A92",
"l  c #1354AF",
"z  c #2F6291",
"x  c #3779B8",
"c  c #3071B3",
"v  c #26549F",
"b  c #0B57C9",
"n  c #0D5DD3",
"m  c #105ADD",
"M  c #1A6DD7",
"N  c #1B75DA",
"B  c #1165CD",
"V  c #0B6AEC",
"C  c #0B69E9",
"Z  c #0566F6",
"A  c #0465FB",
"S  c #0369F4",
"D  c #0368FB",
"F  c #0B66F4",
"G  c #0965FB",
"H  c #0B6AF3",
"J  c #0A69FB",
"K  c #136CEB",
"L  c #146AE6",
"P  c #116BF2",
"I  c #1468F4",
"U  c #1472EB",
"Y  c #1B71E4",
"T  c #1872E7",
"R  c #1972F5",
"E  c #0E70ED",
"W  c #2A79CA",
"Q  c #2575C8",
"!  c #2775D7",
"~  c #387BC8",
"^  c #357AD5",
"/  c #286FCE",
"(  c #2778E5",
")  c #317AE5",
"_  c #2777EE",
"`  c #4F6B87",
"'  c #437CB7",
"]  c #467FAC",
"[  c #677889",
"{  c #616B85",
"}  c #437CC5",
"|  c #427FD2",
" . c #799278",
".. c #3D81BF",
"X. c #3B81C8",
"o. c #3581D3",
"O. c #3884D7",
"+. c #2C80E8",
"@. c #3884E7",
"#. c #3482F6",
"$. c #2B83F3",
"%. c #5C899B",
"&. c #4A84A9",
"*. c #4782B8",
"=. c #5586A6",
"-. c #5288B4",
";. c #5588B8",
":. c #5B92B9",
">. c #6A8A95",
",. c #6A9396",
"<. c #779797",
"1. c #718F89",
"2. c #6489A7",
"3. c #6A94A8",
"4. c #6B96B5",
"5. c #7299A6",
"6. c #729ABA",
"7. c #6089B0",
"8. c #7EA09E",
"9. c #7BA4B8",
"0. c #4384C2",
"q. c #4383CC",
"w. c #4A87C7",
"e. c #4887D3",
"r. c #548BC7",
"t. c #5791C8",
"y. c #5C97D8",
"u. c #518EDF",
"i. c #4187E3",
"p. c #5192EC",
"a. c #6895D2",
"s. c #6B9AC8",
"d. c #6497E2",
"f. c #76A8EE",
"g. c #7AA7C8",
"h. c #857837",
"j. c #827C29",
"k. c #837F57",
"l. c #8F8633",
"z. c #AB9636",
"x. c #BDA539",
"c. c #BDA213",
"v. c #8F8948",
"b. c #97944F",
"n. c #879976",
"m. c #949876",
"M. c #8E956B",
"N. c #99A978",
"B. c #8FA370",
"V. c #A49444",
"C. c #BBB757",
"Z. c #B2AD4E",
"A. c #A9AA6C",
"S. c #A5AB77",
"D. c #B3B86B",
"F. c #B7BB76",
"G. c #B2B06C",
"H. c #BFC276",
"J. c #CEB235",
"K. c #E0BC20",
"L. c #C9B748",
"P. c #CCB84F",
"I. c #CABB65",
"U. c #D7C435",
"Y. c #FDCC04",
"T. c #FDCD0B",
"R. c #F6CD0E",
"E. c #FDCD13",
"W. c #FCCD1B",
"Q. c #F4CB17",
"!. c #FCD00C",
"~. c #FDD002",
"^. c #FDD113",
"/. c #FDD21B",
"(. c #F6D61A",
"). c #EACC1C",
"_. c #ECC938",
"`. c #FBCE22",
"'. c #F8CE29",
"]. c #FDD323",
"[. c #FDD42B",
"{. c #FED92C",
"}. c #FAD627",
"|. c #FED532",
" X c #FCD53A",
".X c #FED833",
"XX c #FEDA3A",
"oX c #F4D135",
"OX c #EDCB2F",
"+X c #FFE23C",
"@X c #D9C547",
"#X c #D5C557",
"$X c #CCC248",
"%X c #D8C865",
"&X c #D4CB68",
"*X c #E0CC49",
"=X c #FCD442",
"-X c #FDDA43",
";X c #FDDC4A",
":X c #F6D547",
">X c #FBDD53",
",X c #FCDD5B",
"<X c #F5D555",
"1X c #E7D251",
"2X c #FCDD64",
"3X c #F9DB68",
"4X c #F8DC75",
"5X c #E4D878",
"6X c #FDE149",
"7X c #FEE358",
"8X c #FDE263",
"9X c #FDE26B",
"0X c #FCE676",
"qX c #FFF274",
"wX c #849B89",
"eX c #859D96",
"rX c #8E9295",
"tX c #89A288",
"yX c #89A597",
"uX c #97AD8E",
"iX c #87A5B2",
"pX c #96ACA8",
"aX c #91AEAF",
"sX c #ACB48A",
"dX c #ADB7A8",
"fX c #85A8CB",
"gX c #8AB0E6",
"hX c #ABB9CA",
"jX c #BBC08D",
"kX c #BEC9AC",
"lX c #B3C8C8",
"zX c #B6CEE8",
"xX c #D4CF8E",
"cX c #D3D0B1",
"vX c #E6D988",
"bX c #FBE586",
"nX c #FDEC93",
"mX c #FBE899",
"MX c #F0E895",
"NX c #FBECA3",
"BX c #F8EAA9",
"VX c #FCEEB8",
"CX c #FEF1A8",
"ZX c #FBF4B8",
"AX c #EFE9B7",
"SX c #CDD4D1",
"DX c #CBD9FE",
"FX c #FEF6C7",
"GX c #FEFAD7",
"HX c #EDE7C9",
"JX c #FDFDE4",
"KX c #FEFAEB",
"LX c #FEFCF2",
"PX c #FCFDFD",
"IX c #F7FBFC",
"UX c #EAF6F5",
/* pixels */
"PXLXPXPXGXFXGXFXGXGXJXGXmX2X-X|.XX=X XXX.X}.].].[.|.'.oXoX`.^.[.,XNXGXJXKXKXKXLXPXPXUXIXIXIXPXPX",
"PXPXPXKXBX0X3X2X1X2X0X9X,X X].].].].]./.W.W./.].[./.].+XXX}.(.{.;X7XbXBXFXFXFXBXHXzXgXgXDXIXIXPX",
"GXZXVXCX3X;X-X X[.|. X X[.^.T.T.T.T.!.^.^.E./.[.|. X[.|.:X X|.-X>X7X4XmXVXMX4X5XpXy.p.f.d.iXhXPX",
"7X>X,X2X-X[.|.{.[.|. X|./.T.Y.Y.!.Y.Y.Y.Y.!.^.!.E.E.E.].-X;X;X7X0XnXNXZXZXBXcXiXu.p.N l 7 9 g IX",
"|.[.|. X[./.].}.[.{.[.{./.T.Y.T.Y.Y.Y.Y.Y.Y.Y.Y.Y.Y.Y.Y.E.E.W.W.|.>XbXmXBXcX6.y.i._ l 1 < , d IX",
"].`.].[.[.W.].].[.XX.X.X/.T.Y.Y.T.Y.!.Y.T.Y.T.T.T.!.~.Y.Y.Y.Y.T.T./. XMXlX:.r.w.e.) l ; : < ` IX",
"`.|.{.[.[.].].]./.[.[.].^.T.Y.Y.Y.Y.Y.Y.Y.Y.T.!.^./.W.E.Y.Y.Y.Y.!.].1XpX;.O.O.e.a.f.v < : : d IX",
"`.|.[.[.|.].[.[.[.[.[.]./.T.T.Y.Y.Y.Y.Y.Y.T.Y.T.T.E.].].^.T.E.W.[.@XtX*.i.+.@.d.zXzXe < ; : d LX",
"].|.[.|.|.[.;XXX|.|.}.].^.^.^.^.!.!.^.{.XX XXX^.E.E.E.W./.!./.XX5XiX} @.( $.$.u.g.iX7 - : , { PX",
"/.|..X.X X[.>X;X X[.]./.W.W.W.^.T.!.~./.{. XXX/./././.^.!.!./.#X<.~ @.) #.( _ O.;.s.9 ; O : { PX",
"R./.{.[.|.[.-XXX.X|.}.].].].].].E.T.T.!.W.]./.W.!.!.T.Y.Y.W.#X .&.X.o.^ d.u.Y ( | 2.4   O < [ PX",
"R.!.|.[.[.XX;XXX[.[..X.X.X.X[.].E.W.W.E.W.W.E./.^.T.T.Y.!.$X .*.~ ~ X.7.lXy.( ( q.7.4     , >.PX",
"E.T.{.].].[. X[.'.]..X|.|..X[..X{.XX-X;X7X-X;X7X X}.`.[.@Xn.&.~ o...:.yXdXX.) ^ e.2.4 - : : rXLX",
"^.T.|.].W.[.XX{.].].[.{.[.[.`./.].].[..X.X}.-X>X6X6X7X5XyXr.e.^ O.0.9.iXs.( _ @.u.7.<     X M.AX",
"/.T.].^.R./.].]./.^./.]./.^.E.T.E.^.T.E.^.^.].[.|.OX#X1.;.X.q.O.X.s.4.gXO.U R #.d.]   - : @ uXZX",
"^.T./.!.Y.T./.W.!.^.W.W.^.!.T.T.^.!.^.^./.[.].].[.@Xn.-.w.X.~ -.5.3.=.4.X.U _ ) a.d . - : 3 dXJX",
"].T./.^.Y.T.].].]./.^.!.T.Y.Y.Y.Y.Y.Y.Y.T.^.T./._.B.%.x w./ W :.3.3.,.3.~ U _ ! t.a , - : 3 SXLX",
"XXE./.^.Y.T./.[..X.X].W.^.T.E.R.E.T.T.R.R.T.T._.A.>.-.X.~ / o.~ x 3.N.pX~ U $.) a.[ : . 3 & cXGX",
"7X/.^.!.Y.Y./.{. X|.|.{.{..X|. X;XXX[.6X;X}._.S.%.r.w.o.N ! o.M W tXH.pX/ _ #.! fXd 3 3 : 8 HXLX",
"7X`.W.W.T.Y.^.{.[.].^.W.W.].[.[..X.X.X6X<X<X&X5.X.O.! ( ( ( L Y w.dX5XaX^ _ #.^ 5.s 3   . w UXPX",
"qX}.^./.Y.Y.!.[.].W.!.T.!.^.E.T.R.^.`.}. XD.,.*.X.! U I U P R O.6.cXCXdXd.@.) q.<.s + , + a LXPX",
"8X'.^./.Y.Y.!.[.[./.^.^.^.W.^.^.W.].|. X&X,.*.0.X.! L H J P _ ' tX#X5XdXy.@.i.w.<.q : < : i KXPX",
"oXQ./.].T.E.!./.W.W.E.T.T.T.Y.Y.Y.^.'.#X1.*.' ~ ! N K S G V N -.N.Z.%XuXu.@.^ w.yX8 : : . p VXFX",
"|.W./.].E.E././.]./.^./.^.^.T.Y.Y.Y.U. .' X.0.~ ! K V D J K W =. .C.I.yXQ +.! u.<.# , + # h vXmX",
"XX`.].}.!.^.R.].].[..X]./.[.}.'.}.@Xn.*.^ O.X.o.( H F I V T ^ -.iXD.&X4.! @.p.d.>., , : # f BXVX",
"|.W.{.{.T.!.Y.].|..XXX[.[..X.XXX<XsX*.O.) ( ! +.T I R K Y ^ q.-.tXxXcXw._ p.) f.[ , : , 3 g FXJX",
"].E./.].T.T.T.].[..X}./.].E.E.OXG.%.W N L K T K I K T Y W :.=.1.P.oXI.x ! @.O.gXg O   , # m.ZXFX",
"/.E./.}.T.Y.Y.T.W./.^.!.T.Y.R.C.>.~ N U K R H D J V U ! w.,.n.$X`.W.C.x Q O.W fXd + . : # m.MXVX",
"].^.]..XE.Y.Y.Y.T.E.Y.T.Y.Y.U. .*./ L U U P V D A D R N W ,.L.).Q.E.C.] ^ q.x rXs # , 9 8 sXVXFX",
"'.^.]..XW.Y.Y.Y.!.!.!.Y.T.OXB.%.X.N I P V V H D Z F I L c B.U.J.OX(.C.c } ;.] sXh.8 + 8 0 G.mXBX",
"[.W.{.;X/.E.^.W.].].(.(.:XA.%.w.! L J D D D D D J G V N 9.H.F. .H.1XjX*.t.2.5.sXm.3 3 s y I.4XMX",
" X'. X7X].E.W.W.}.{..X1XS.%.0.! H H H J D D D J J S L e.aXuXuX,.yXS.jX3.9.<.pXsXA.p 8 f f MXNXCX",
"<X;X;X0X}.E.^.].].].:XS.-.X.( C D D F J A D Z F C N O.^ *.4.<.5.>.uXF.M.sX .N.A.v.t 0 u f 0X0XmX",
"3X,X8XCX1X[./.}.'.:XS.2.q.! V S S S A A D S K Y ^ y.q.) ) W ' eXtXN.D.Z.F.B.S.S.b.t y u l.<X3X3X",
"nXbX4XFXbX7X>XXX@XB.=.~ ! F D J D A S D I F Y w.s.r.! T J H ^ <.A.#X&XN.sXB.N.S.b.t y v.b.1X0XmX",
"VXNXmXFXZXNXbX5XuX-.^ N H G G A A A D S G K c <.4.! P S E C ^ ,.$X'.P.wX1.>.>.uXn.s t B.I.I.bXbX",
"GXBXnXNXCX4XvX<.*.^ Y S D D Z S A G A A V c yX5.W I F R K N ' F.-XoXP.tX%.-.-.<.[ { a rXSXcXHXVX",
"KXBXbXMXnX%X<.} W Y F A D S S A D G D C o.pXuXx F F J K W =.S.<X X X$XuX,.-.*.6.=.{ a [ cXkXGXKX",
"KXFXnXbXvXyXx ! ( K A J A A D D D A S T t.4.Q C S S J _ s.sX<X-X6X;X#XsX<.3.0.g.3.g p f xXkXVXVX",
"LXGXbXvX9.} ^ M L C Z H S D A D A S S V C C A A S S L W =.A.oX|.-X6X2X&XH.yX;.fXiX .k.k.xXHXVXbX",
"PXKXvXiX) ) ! ~ *.N F D H J G D D D J F G G A A G L o.&. .C.R.T.R.).'.).U.C.m.F.G.b.m.k.VXFXBXbX",
"PXPXiX' ! Y M 4.pX' K E F G D D S S D A J G A A V X.:.7.<.$XQ.R.).K.K.c.c.J.L.U.U.x.z.V.3X3X3X3X",
"PXDXe 7 j k v z z c b B n m n n n n n n n b b l l l z e s l.x.x.z.u u u v.V.z.z.L.@Xz.%X3X2X,X<X",
"IXhX7 1 1 ; ; ; 2 1 1 2 6 5 1 1 5 5 1 1 1 > ; 2 ; - < - < O @ % r u f t % % % r l.J.L.4XnXnXnXNX",
"PXhX2 < 2 : :   - - - - - - - - - - ; : ; - - ; ; ; < < 3 3 9 q q s w 9 $ q t l.J.:X<X3X3X2X2X4X",
"PXSXa q 8 3 .     . : - - - - - - <   :       - - - O - : . + @ 0 t i p s u b.L.1X;X,X,X-XXX=X'.",
"PXPXHXA.h.y y % * = # o o X o o o o $ & & # @ @ o X = X * % r h.L.J.$XL.L.@XoX=X;X9X0X0X9X7X4X7X",
"IXPXLXCX:XoX)._.J.Z.z.u u u u u y r r u h.j.l.l.l.V.V.J.K.Q.^.!.E.R.R.!.T.!./.W.|.;X;X=X<X7X8X7X"
};
