/* XPM */
static char *privAttr[] = {
/* columns rows colors chars-per-pixel */
"48 48 256 2",
"   c #03181B",
".  c #0B1314",
"X  c #0C1A1C",
"o  c #081517",
"O  c #1A0606",
"+  c #19100C",
"@  c #141B14",
"#  c #141B1A",
"$  c #171819",
"%  c #05140E",
"&  c #0B1B20",
"*  c #051923",
"=  c #141C22",
"-  c #151E28",
";  c #13221C",
":  c #0C242A",
">  c #0B2426",
",  c #0C2E34",
"<  c #0B3436",
"1  c #152627",
"2  c #122A35",
"3  c #173639",
"4  c #220202",
"5  c #280606",
"6  c #261818",
"7  c #351111",
"8  c #350B0B",
"9  c #241E22",
"0  c #23201D",
"q  c #222423",
"w  c #242A2A",
"e  c #2B2B2B",
"r  c #2B2526",
"t  c #2C3132",
"y  c #352626",
"u  c #3C3B3D",
"i  c #373536",
"p  c #263033",
"a  c #113A42",
"s  c #2B3B45",
"d  c #16454A",
"f  c #1D4952",
"g  c #195157",
"h  c #204547",
"j  c #244A56",
"k  c #36575A",
"l  c #344E4F",
"z  c #255B64",
"x  c #375A63",
"c  c #2D6268",
"v  c #296776",
"b  c #32646A",
"n  c #346A77",
"m  c #3A7279",
"M  c #480A09",
"N  c #48171A",
"B  c #560707",
"V  c #561A1B",
"C  c #582726",
"Z  c #573E3B",
"A  c #492A28",
"S  c #6B0000",
"D  c #610608",
"F  c #7B0000",
"G  c #730502",
"H  c #7D1518",
"J  c #602215",
"K  c #692326",
"L  c #6D2F30",
"P  c #4C443B",
"I  c #494B4B",
"U  c #4A5454",
"Y  c #534C49",
"T  c #504C53",
"R  c #585959",
"E  c #504F50",
"W  c #724A48",
"Q  c #666868",
"!  c #7C7E7C",
"~  c #787274",
"^  c #6C7273",
"/  c #3A7C89",
"(  c #437983",
")  c #617981",
"_  c #7D817D",
"`  c #63807E",
"'  c #3A8697",
"]  c #478996",
"[  c #51919E",
"{  c #489AA6",
"}  c #549AAA",
"|  c #549DB1",
" . c #57A9B7",
".. c #56A9B6",
"X. c #71A9AF",
"o. c #5CB6C5",
"O. c #63BBC9",
"+. c #75BECC",
"@. c #68C9D7",
"#. c #74CADA",
"$. c #69D0DC",
"%. c #6DD4E7",
"&. c #74DAEC",
"*. c #78D7E7",
"=. c #70D4EA",
"-. c #6EEAFD",
";. c #79E0E9",
":. c #76E4F4",
">. c #75E5FB",
",. c #73E9FB",
"<. c #79E9FD",
"1. c #79E5F9",
"2. c #76F0FE",
"3. c #8A0404",
"4. c #923133",
"5. c #B11110",
"6. c #B63437",
"7. c #A42F2E",
"8. c #AF6363",
"9. c #D91613",
"0. c #C61011",
"q. c #DC2522",
"w. c #CF3831",
"e. c #E61919",
"r. c #F30C0B",
"t. c #FB0304",
"y. c #FB0609",
"u. c #FC0905",
"i. c #FC0B0B",
"p. c #F60604",
"a. c #FB0D10",
"s. c #F70E13",
"d. c #FB100D",
"f. c #F4100C",
"g. c #F51214",
"h. c #F41A15",
"j. c #F41B1B",
"k. c #FB1313",
"l. c #FB1519",
"z. c #FA1815",
"x. c #FB1B1C",
"c. c #F7171A",
"v. c #E9100D",
"b. c #FC1D21",
"n. c #F41E21",
"m. c #E71C21",
"M. c #FC221D",
"N. c #F2241B",
"B. c #EB2319",
"V. c #ED2224",
"C. c #ED2A2B",
"Z. c #E62927",
"A. c #ED383C",
"S. c #F32223",
"D. c #F32B2C",
"F. c #FC2323",
"G. c #FD2529",
"H. c #FC2A24",
"J. c #FC2B2B",
"K. c #F32627",
"L. c #FC2D31",
"P. c #F72A30",
"I. c #FC322D",
"U. c #F7342E",
"Y. c #F43233",
"T. c #FD3433",
"R. c #FC3438",
"E. c #FD3B3A",
"W. c #F53A38",
"Q. c #EC302A",
"!. c #FD3E42",
"~. c #ED403B",
"^. c #F6433C",
"/. c #DD7470",
"(. c #EC4947",
"). c #ED5A59",
"_. c #FD4443",
"`. c #FB4B49",
"'. c #F84747",
"]. c #F9524E",
"[. c #F35254",
"{. c #FD5D5A",
"}. c #F75657",
"|. c #F24E51",
" X c #FD645D",
".X c #E57578",
"XX c #FB6262",
"oX c #F76968",
"OX c #FA726E",
"+X c #F47575",
"@X c #F4797D",
"#X c #FD7C7B",
"$X c #FC7676",
"%X c #DC5053",
"&X c #FB7D81",
"*X c #E67A80",
"=X c #FE817B",
"-X c #858785",
";X c #939493",
":X c #9A9799",
">X c #80B5BA",
",X c #A89492",
"<X c #A39EA0",
"1X c #A8A8A8",
"2X c #B5B5B6",
"3X c #AEB1B2",
"4X c #BBBCC0",
"5X c #80DBE8",
"6X c #B8C2C7",
"7X c #99CECC",
"8X c #D78785",
"9X c #C1BABA",
"0X c #CDA2A2",
"qX c #FB8383",
"wX c #FC8A8B",
"eX c #F98486",
"rX c #FD9392",
"tX c #FD9A9A",
"yX c #FC9697",
"uX c #EC8D8D",
"iX c #FFA09D",
"pX c #FFA6A9",
"aX c #FBA7A6",
"sX c #FCB2AE",
"dX c #FDB3B3",
"fX c #F9B8B6",
"gX c #EAAEAE",
"hX c #FEC2BD",
"jX c #C3C5C5",
"kX c #D5D5D5",
"lX c #D0CDCB",
"zX c #DBDEE2",
"xX c #FCC3C4",
"cX c #FCC9C8",
"vX c #FCCDD2",
"bX c #FDD8D7",
"nX c #EED0CF",
"mX c #FFDBE0",
"MX c #FEE2DA",
"NX c #E3E3E2",
"BX c #ECEDEC",
"VX c #E8E7E4",
"CX c #ECF2F1",
"ZX c #FDEAE5",
"AX c #FCEAEB",
"SX c #F8E7E6",
"DX c #F7EEF1",
"FX c #FFF1ED",
"GX c #F2F1EE",
"HX c #F3F3F3",
"JX c #F6FDFB",
"KX c #FEF4F4",
"LX c #FDF5F9",
"PX c #FEFAF5",
"IX c #FEFEFE",
"UX c #F6F8F7",
/* pixels */
"IXIXIXIXIXIXIXIXPXIXIXKXIXIXIXIXIXIXIXIXIXIXIXIXIXIXIXIXIXIXIXIXIXIXIXIXIXIXIXIXIXIXIXIXIXIXJXIX",
"IXIXIXIXIXIXIXUXNX3X;X_ ! -X<XkXUXIXIXIXIXIXIXIXIXIXIXIXIXIXIXIXIXIXIXIXIXIXIXIXIXJXJXIXIXIXIXIX",
"IXIXIXIXIXIXIXlX<XR @ @ . $ Z ^ ;XGXUXIXIXIXIXIXIXIXIXIXIXIXIXIXIXIXIXIXIXIXIXIXIXJXIXIXIXIXIXIX",
"IXIXIXIXIXIXkX1Xe @ o . . $ = # I ! CXIXIXIXIXIXIXIXIXIXIXIXIXIXIXIXIXIXIXIXIXIXIXIXIXIXIXIXIXIX",
"IXIXIXIXIXGX1Xt . 1 d f j h : @ # E 2XIXIXIXIXIXIXIXIXIXIXIXIXIXIXIXIXIXIXIXIXIXIXIXIXIXIXIXJXIX",
"IXIXIXIXIX9XQ . 1 f ..*.=...c 3 1 w ! UXIXIXIXIXIXIXIXIXIXIXIXIXIXIXPXIXIXIXIXIXJXJXIXIXIXIXIXIX",
"IXIXIXIXUX2Xp o a  .:.-.,.,.O.h w - Q CXIXIXIXIXIXIXIXIXIXIXIXIXIXIXIXJXIXIXPXPXPXZXbXMXKXIXIXIX",
"IXIXIXIXBX3X= & / &.>.>.>.,.$.j 1 # Y GXIXIXIXIXIXIXIXIXIXIXIXIXIXIXIXIXAXcXcXvXfXwX.X8.ZXPXIXIX",
"IXIXIXIXNXVXi n $.,.>.<.,.,.@.j # . I BXIXIXIXIXIXIXIXIXIXIXIXIXIXIXLXZXrX).oX$X(.A.6.8 MXIXIXIX",
"IXIXIXIXBXSXl } >.,.>.>.-.-.@.j # . Q UXIXIXIXIXIXIXIXIXIXIXIXIXJXIXAXyXA.Y.^._.J.Z.H 8 SXIXIXLX",
"IXIXIXJXGXNXx O.1.>.>.>.:.:.*.v   # ;XUXIXIXIXIXIXIXIXIXIXIXIXIXIXLXtXW.F.F.E.].I.C.D 7 ZXLXIXIX",
"IXIXIXIXKXNX>Xo.o...{ { ] ] ] k 1 R NXIXIXIXIXIXIXIXIXIXIXIXIXIXKXpX[.F.H.M.G.E.h.q.M 5 ZXIXIXIX",
"IXIXIXIXIXCX7XX.s < , : 2 2 : X w jXIXIXIXIXIXIXIXIXIXIXIXIXIXKXsX[.Y.T.H.k.d.l.a.5.M 8 ZXIXIXIX",
"JXIXIXIXJXUX] : o   . + # & > o e NXIXIXIXIXIXIXIXIXIXIXIXIXPXhX[.H.J.K.s.k.k.a.r.5.M N lXLXIXIX",
"IXJXIXJXPXkX6X3Xx x x k x x k k Q HXIXJXIXIXIXIXIXIXIXIXIXIXMXoXF.l.F.g.a.l.i.a.v.3.V 5 ,XIXIXIX",
"IXIXJXIX:Xu p X.5X#.*.5X&.5X} ^ lXIXJXIXIXIXIXIXIXIXJXIXIXPXiXD.g.x.k.i.M.x.j.T.v.3.K 5 3XIXJXIX",
"IXIXIXIX^ q o ( $.<.-.,.,.5X .3 l jXIXIXIXIXIXIXJXIXIXIXPXhX~.x.x.x.i.F.H.x.J.I.9.S L 4 VXIXIXIX",
"IXIXLXIXT ; . m $.<.-.,.<.1.} k Q 1XDXIXIXIXIXIXIXIXJXIXcX(.j.x.x.u.z.T.x.l.H.z.9.B K 5 SXIXIXIX",
"IXIXIXCXE ;   n &.&.%.&.>.<.v - Q HXLXIXIXIXIXIXIXJXIXvXXXn.l.M.u.u.M.H.x.M.J.k.0.B K O FXIXIXIX",
"JXIXIXLX1Xh m @.O.v < } $.:.d . i ;XHXJXIXIXIXIXIXIXMX+XC.b.J.z.u.d.M.F.x.z.F.g.5.B V + AXIXIXIX",
"IXIXIXPX6Xb #.:.| d o h | &.g % $ R kXIXIXIXIXJXIXKXaXXX!.J.T.p.u.i.i.I.M.k.F.g.5.B B + LXIXIXIX",
"IXIXIXJX^ c O.&.' < 1 < ' &.m   = i 3XIXLXIXIXIXUXxX#X'.R.L.r.p.y.u.g.R.j.l.J.e.5.L V + DXIXIXIX",
"IXIXIXIXR b o.&.] a : c #.>.| : = q -XIXIXIXPXFXcXeXoX_._.x.i.y.i.i.l.N.F.J.T.V.5.K M 6 LXIXIXIX",
"JXIXIXlXi f } ' f & % h { =.O.2 $ e ~ LXIXIXKXvXqX'.'._.R.S.J.i.i.i.F.H.R.U.T.m.3.C 4 6 IXIXIXIX",
"IXIXIX-X@ , } *.b X o 2 g $.O.d X w R CXIXKXxX#X!.n.E.D.S.T.J.x.t.i.x.H.J.N.x.e.F J 4 y IXIXIXIX",
"IXIXUX! o : } &.' d < z o.:.@.j & t T BXAXsXXX^.D.R.F.l.F.H.z.i.k.M.R.R.b.l.M.e.F V 4 y kXIXIXIX",
"IXIXGX~ $ * [ :.;.{  .%.>.>.#.z & e I nXtX~.H.K.^.R.F.x.z.d.i.d.M.^.U.M.s.g.F.e.S V O 6 3XIXIXIX",
"IXIXUX~ 9 o /  .&.:.,.-.,.>.#.b & w Z 8X!.x.H.E.I.x.l.F.M.d.t.i.x.E.J.F.b.J.T.9.S C 4 6 2XIXIXIX",
"IXJXJX8.w . 3 b ]  .o.@.@.@. .k & 6 J w.F.J.R.J.z.d.z.F.T.k.i.a.g.n.W.`.XX!.R.9.S C O r 2XIXIXIX",
"IXJXJX6XE 1 . & 1 j m ] / / x 3 X 6 G q.I.J.x.a.d.i.d.k.k.g.n.K.T.R.{.=X&X{._.C.F C 4 r zXIXIXIX",
"IXIXIXIX1XR i r $ . .       o # $ 7 7.'.I.r.i.d.u.t.i.y.a.J._._.!.L.D.(.oX}.R.V.3.C O 6 IXIXIXIX",
"IXIXIXIXIXNX;XQ u e e 6 - = e y 7 H (.P.r.d.d.t.t.u.i.y.a.x.I.G.l.s.c.!.&XwX`.K.7.C 5 e IXIXIXIX",
"IXIXJXIXIXIXIXBX2X;XQ E Y I Y W 7.(.K.r.k.z.a.i.y.y.p.t.u.f.h.x.z.S.F.`.$XiX}.C.6.A O Y IXIXIXIX",
"IXIXIXIXIXIXIXIXIXIXJXPXUXAXcXwX'.x.r.k.z.d.s.F.x.y.t.t.d.z.H.R.!._.^.].qXaX+X|.).y + ~ IXJXIXIX",
"IXIXIXIXIXIXIXIXIXJXIXIXLXcXyX{.x.u.i.y.i.x._.`.{.j.i.a.k.x.F.R.Y.G.N.Q.[.iXtX@XuXA 0 <XIXIXIXIX",
"IXIXIXIXIXIXIXIXIXIXIXLXbXyX].z.i.u.t.t.i.!. X=X=XF.y.t.t.y.a.J.E._.E.{.wXxXfXpXgXP A 9XIXIXIXIX",
"IXIXIXIXIXIXIXJXIXIXJXvXwX|.h.p.u.t.t.t.i.G.Y.A.P.g.i.i.h.x.x.K.^.}.$XaXrX.X.X@XyXZ Y 9XIXIXIXIX",
"IXIXIXIXIXIXIXIXIXLXvXyXOXj.k.i.p.t.t.t.l.x.F.J.R.R.R.R.R._._.`.{.OX$XOX}.$XrX&X=XL P 9XIXIXIXIX",
"IXIXIXIXIXIXPXIXLXSXhXrX|.D.F.l.f.k.k.d.M.x.d.z.z.M.J.I.M.x.x.x.b.D.S.I.B.~.qX#X/.W P VXIXIXIXIX",
"IXIXIXIXIXIXPXKXKXMXaX+XqX#XR.H.E.E.x.k.k.d.i.i.r.r.z.h.g.k.k.j.J.R.L.G.N.Y.$X#XuXL R BXIXIXIXIX",
"IXIXIXIXIXAXxXaXyX+X[. XoXXX_.N.N.j.l.l.x.G.F.x.F.J.L.J.R.R.E._.W.Q.P.R.R.`.tXyX.X4.,XMXIXIXIXIX",
"JXIXIXIXIXbX@X'.R.J.D.U.I.J.H.F.L.L.R.E.E._._.T.Y.R.R.R.D.I.W._.}.].L.J.D.(.OX).%X4.8XnXSXIXIXIX",
"IXIXIXIXIXSXeXW.F.J.R.R.J.F.S.M.M.h.h.K._.(.{.].W.!.E.D.K.K.D.C.W.[.).#XqX#X&XeXeX8.cXFXIXIXIXIX",
"IXIXIXIXIXKXsX|.Y.K.D.J.J.n.j.S.S.S.V.Z.[.qXrXrXtXyXwXeXqXwXtXyXtXaXxXcXxXfXdXsXgX0XMXJXIXIXIXIX",
"IXIXIXIXJXJXZXsXrXeXqX=X@X+X+XwXpXpXdXdXxXbXAXAXFXLXLXLXPXLXIXIXLXPXPXIXIXLXKXPXPXKXIXIXIXIXIXIX",
"IXIXIXIXIXIXIXPXIXIXPXKXKXLXPXPXIXIXPXLXIXIXIXIXIXIXIXIXIXIXIXIXIXIXIXIXIXIXIXIXIXIXIXIXIXIXIXIX",
"IXIXIXIXIXIXIXIXIXIXIXIXIXIXIXIXIXIXIXIXIXIXIXIXIXIXIXIXIXIXIXIXIXIXIXJXIXIXIXIXIXIXIXIXIXIXIXIX",
"IXIXIXIXIXIXIXIXIXIXIXIXIXIXIXIXIXIXIXIXIXIXIXIXIXIXIXIXIXIXIXIXIXIXIXIXIXIXIXIXIXIXIXIXIXIXIXIX"
};
