/* XPM */
static char *privop[] = {
/* columns rows colors chars-per-pixel */
"48 48 256 2",
"   c #030C04",
".  c #050A0A",
"X  c #090C12",
"o  c #021302",
"O  c #05130C",
"+  c #021B02",
"@  c #04180A",
"#  c #0B130C",
"$  c #0A1908",
"%  c #041312",
"&  c #051A15",
"*  c #0B1213",
"=  c #0A1418",
"-  c #0C191A",
";  c #041A1A",
":  c #121314",
">  c #131C1C",
",  c #161718",
"<  c #111310",
"1  c #0A1E21",
"2  c #031D27",
"3  c #1B1A20",
"4  c #101A21",
"5  c #032403",
"6  c #092908",
"7  c #013201",
"8  c #023C03",
"9  c #0A3707",
"0  c #102A0C",
"q  c #162216",
"w  c #10300E",
"e  c #153613",
"r  c #0B3114",
"t  c #0A2427",
"y  c #1B2124",
"u  c #162628",
"i  c #152C35",
"p  c #163538",
"a  c #0C3030",
"s  c #25221A",
"d  c #252727",
"f  c #2F2A31",
"g  c #273729",
"h  c #273531",
"j  c #30332C",
"k  c #393936",
"l  c #312D2E",
"z  c #173B45",
"x  c #054605",
"c  c #025301",
"v  c #035B03",
"b  c #0E5912",
"n  c #174516",
"m  c #195A19",
"M  c #104A0E",
"N  c #135029",
"B  c #076406",
"V  c #0B740B",
"C  c #0C7D0E",
"Z  c #167B15",
"A  c #156B16",
"S  c #1A7226",
"D  c #29432A",
"F  c #354537",
"G  c #2F532F",
"H  c #206C1D",
"J  c #277226",
"K  c #386835",
"L  c #307131",
"P  c #184348",
"I  c #194951",
"U  c #1D545B",
"Y  c #1A5666",
"T  c #294A57",
"R  c #264A52",
"E  c #255863",
"W  c #355E67",
"Q  c #2B6769",
"!  c #2E6B77",
"~  c #2B707B",
"^  c #35656D",
"/  c #336B76",
"(  c #347679",
")  c #2C7467",
"_  c #217348",
"`  c #483F49",
"'  c #454746",
"]  c #495149",
"[  c #4D5451",
"{  c #565555",
"}  c #487A46",
"|  c #547455",
" . c #576B56",
".. c #4C676C",
"X. c #61625E",
"o. c #666766",
"O. c #787979",
"+. c #6C726F",
"@. c #387B88",
"#. c #437888",
"$. c #039A03",
"%. c #069B0A",
"&. c #0C960C",
"*. c #0A9B06",
"=. c #0B9B0B",
"-. c #059604",
";. c #0D9B12",
":. c #0F9312",
">. c #178717",
",. c #109C0E",
"<. c #11920F",
"1. c #139C13",
"2. c #159C18",
"3. c #189717",
"4. c #098F0F",
"5. c #1D9C22",
"6. c #0CA00C",
"7. c #08A508",
"8. c #0DA212",
"9. c #11A30E",
"0. c #13A214",
"q. c #1AA21A",
"w. c #1BAA1B",
"e. c #17A017",
"r. c #219C1A",
"t. c #208D22",
"y. c #2B852B",
"u. c #269926",
"i. c #388837",
"p. c #349E35",
"a. c #2E972F",
"s. c #21A31D",
"d. c #22A323",
"f. c #24AA24",
"g. c #2BA42A",
"h. c #29AA29",
"j. c #2EA532",
"k. c #30A52E",
"l. c #37A736",
"z. c #31B432",
"x. c #3D9F43",
"c. c #3EA941",
"v. c #3CB943",
"b. c #3D9A69",
"n. c #41AF3E",
"m. c #4B8D4D",
"M. c #41A641",
"N. c #47AB47",
"B. c #44B246",
"V. c #56A859",
"C. c #52B14F",
"Z. c #55B454",
"A. c #679B65",
"S. c #7E867B",
"D. c #789477",
"F. c #678666",
"G. c #63BD5E",
"H. c #65BA65",
"J. c #74AE75",
"K. c #68C667",
"L. c #78C678",
"P. c #73D774",
"I. c #57C957",
"U. c #3D8FA1",
"Y. c #3A828D",
"T. c #478B97",
"R. c #49939E",
"E. c #518E8D",
"W. c #4997A9",
"Q. c #4CA2AE",
"!. c #4BA4B6",
"~. c #58A9B6",
"^. c #56A8B7",
"/. c #639EAA",
"(. c #64B0B5",
"). c #6D979F",
"_. c #57B7C6",
"`. c #55B5C8",
"'. c #66BDD2",
"]. c #69B1C2",
"[. c #7EC383",
"{. c #66CAA9",
"}. c #5DC0D2",
"|. c #6CC2CE",
" X c #69C9D8",
".X c #73CEDB",
"XX c #68D1DE",
"oX c #77D7E8",
"OX c #7CDCF3",
"+X c #6EDAED",
"@X c #6EEAFB",
"#X c #7AE2EE",
"$X c #74E4F4",
"%X c #74E5FB",
"&X c #72E9FC",
"*X c #7AE3F3",
"=X c #7AE5FC",
"-X c #7AE9FD",
";X c #7AE9F6",
":X c #85867F",
">X c #82CE7F",
",X c #818382",
"<X c #868888",
"1X c #949496",
"2X c #879988",
"3X c #88A486",
"4X c #98A198",
"5X c #8BBA8F",
"6X c #9FA3A0",
"7X c #A09B9F",
"8X c #A8A5A8",
"9X c #ADBDB5",
"0X c #B7B7B6",
"qX c #ADB5AC",
"wX c #87C987",
"eX c #88D686",
"rX c #98DC95",
"tX c #9DDBA0",
"yX c #A9D8A7",
"uX c #B2D3B3",
"iX c #A4E69F",
"pX c #A8E5A8",
"aX c #B7E9B6",
"sX c #80D8E6",
"dX c #81E5F7",
"fX c #80E4EF",
"gX c #BDDCC0",
"hX c #C1BCC4",
"jX c #C3D7BF",
"kX c #CAC9C9",
"lX c #C8D7C8",
"zX c #D6D6D7",
"xX c #D4D4CE",
"cX c #C5EAC6",
"vX c #D9E7D9",
"bX c #D0F4CE",
"nX c #DCFADC",
"mX c #D3F5D5",
"MX c #CBF0CA",
"NX c #DDF8E2",
"BX c #E0DDDD",
"VX c #E2F3DD",
"CX c #E5E3E3",
"ZX c #E9E9E8",
"AX c #E3FCE3",
"SX c #EBFDEB",
"DX c #E8F4E7",
"FX c #ECFAF2",
"GX c #F0FFEC",
"HX c #F3F3F3",
"JX c #F4FDF3",
"KX c #F6FDFB",
"LX c #FAFDF6",
"PX c #FEFEFE",
"IX c #F9F6F8",
"UX c #ECEEEF",
/* pixels */
"KXPXPXPXPXIXPXPXHX8X1X7X8X1X<X+.0XIXPXKXKXPXPXPXPXLXIXIXPXPXKXKXKXPXPXIXPXPXPXPXPXPXPXPXPXPXPXPX",
"PXPXPXPXPXPXIXZX1XO.d , * , , l X.o.uXvXlXlXlXSXJXPXKXIXPXPXIXPXPXPXPXPXPXPXPXPXPXPXPXPXPXPXPXPX",
"PXPXPXPXPXPXBX8X[ < , X = X X # X : : : 0 r 6 D D  .1XuXzXHXPXIXIXPXPXKXPXPXPXPXPXPXPXPXPXPXPXPX",
"PXPXPXPXPXHX8X' # * a T z T p t =   + 9 Z >.Z B c x M 0 q  .uXZXLXPXKXPXPXPXPXPXPXPXPXPXPXPXPXPX",
"PXPXPXPXPX0XO., = p Y ~.sX|.@.I t = + 7 V $.%.&.1.:.t.A 7 + w G  .2XUXLXPXIXPXPXPXPXPXPXPXPXPXPX",
"PXPXPXPXUX0Xf X i ! .X=X&X%X*X].T t @ 5 B $.$.*.*.$.%.3.t.A 8 v N n F :XCXPXPXIXPXPXPXPXPXPXPXPX",
"PXPXPXPXBX0X> % U |.;X-X&X&X&X*XE i % @ c &.&.,.7.$.*.7.%.2.3.V V y.H g ] xXIXIXLXPXPXPXPXPXPXPX",
"PXPXPXIXzX0Xy a Y.;X@X&X-X&X%X=XW i & O b g.z.s.=.*.=.0.9.1.=.&.&.1.j.L G k X.HXPXPXPXPXPXPXPXPX",
"PXPXPXLXzXUXi #.OX%X%X&X@X&X%XdX! t * o m j.B.z.h.2.%.%.9.w.w.2.=.$.1.l.A.l 3 6XLXPXPXPXPXPXPXPX",
"IXPXPXIXvXNXh ^.&X@X%X@X@X&X=XOX! t : < D.wXH.p.h.h.f.2.1.%.1.f.f.=.6.s.L.D : ' HXPXPXPXPXPXPXPX",
"PXLXKXPXZXuXN  X@X@X%X&X@X@X&X#X@.t * s lXJXnXaXH.k.r.h.h.f.2.*.s.h.1.=.M.3X$ l kXPXPXPXPXPXPXPX",
"PXPXPXIXnXA.E.|._.`.^.^.^.Q.Q.~.E.i 3 S.IXPXPXLXAXaXH.n.l.z.h.0.s.d.0.*.B.A.o , <XIXPXPXPXPXPXPX",
"PXKXLXLXyXV.{..XR.( ^ ^ E R I p t 1 X.zXPXPXPXKXPXKXNXaXH.l.h.c.K.r.,.=.N.J.# , 1XPXPXPXPXPXPXPX",
"PXPXPXJXwXH._ P 2 = % & = > - ; * - O.JXPXPXPXPXKXPXKXKXnXrXH.J.wXN.g.h.n.m.o l 8XIXPXPXPXPXPXPX",
"PXPXPXbX[.N.S x + @ @ @ . O 4 d 3 d 1XKXJXPXLXPXLXLXPXIXPXSXgXuXD 9 m y.J 6 # O.hXIXPXPXPXPXPXPX",
"PXPXLXuXV.S S b.) ) ( ( / #././.)...kXIXPXPXPXPXPXPXPXPXPXKXJXZXS.< o $ $ $ +.CXKXPXPXPXPXPXPXPX",
"PXPXLXyXn @ e (.XX#X;X;X;X$X=XU...9XIXPXPXPXPXPXPXPXPXPXPXPXLXPXIXkXX.{ [ <XHXLXPXPXPXPXPXPXPXPX",
"PXLXGXuXw * % E._.-X%X&X@X@X%X|.p d 1XHXPXPXPXPXPXPXPXPXPXPXPXPXPXLXPXPXPXKXLXPXPXPXPXPXPXPXPXPX",
"PXLXSX5Xe : * #.}.&X&X@X@X@X=X~.F o.<XkXPXPXPXPXPXPXPXPXPXPXPXPXPXPXPXPXPXPXPXPXPXPXPXPXPXPXPXPX",
"PXPXNX| 0 % % Q XX-X$X&X%X-X=X@.1 T zXPXPXPXPXPXPXPXPXPXPXPXPXPXPXPXPXPXIXPXPXPXPXPXPXPXPXPXPXPX",
"PXPXNXA.9 ; a U.#X.X@.~.'.$XOXE = d ,XUXPXPXPXPXPXPXPXPXPXPXPXPXPXLXPXLXPXPXPXPXKXPXPXPXPXPXPXPX",
"KXPXnXwXG ) (.$XoXE 2 2 T.XX+XI % , ' 8XPXPXPXPXPXPXPXPXPXPXPXPXPXLXJXDXFXPXPXPXPXPXPXPXPXPXPXPX",
"PXPXnXL.9 T.`.%XoXU 4 = ^ `.dX/ % , f +.IXPXPXPXPXKXKXPXKXIXIXIXHXlXD.F.2X0XKXPXPXPXPXPXPXPXPXPX",
"PXIXAXwX5 T.`.+X XI > = P '.OXR.; : 3 ' ZXPXPXPXPXPXJXIXkXo.[ k d < + + 5 F 4XHXLXPXPXPXPXPXPXPX",
"LXPXAX5X+ T.`..X^.T u p E.OX%X'.i , 3 ' 0XPXPXKXSXbXmXqXF $ o # 0 7 b Z J L | 3XJXPXPXPXPXPXPXPX",
"LXPXNXF.+ ^ !.W.Y t * ; E @. XoXz 4 y ] 8XIXSXMX[.N.Z.V.J J L L i.>.e.=.=.>.M L vXPXPXPXPXPXPXPX",
"PXPXzXD O P !.oX(.t * * i Y .X#XE ; u F 1XFXwXc.3.&.&.1.1.1.2.2.f.=.*.=.:.v 8 K uXPXPXPXPXPXPXPX",
"KXPXkXq   z W.$XR.P t z Y _.;X#XQ t 3 ' ,XnXN.-.%.$.$.=.8.0.2.f.f.=.$.$.<.c 9 e S.PXPXPXPXPXPXPX",
"PXPXqXq . z W.+X#XQ.~ ^.oX%X$X;X~ 1 3 k o.pXv.-.$.$.$.-.%.8.2.d.k.q.7.$.&.x r $ ,XPXPXPXPXPXPXPX",
"PXLX8Xd O i T.+X%X$X+X%X%X%X-X=X~ u y j K K.v.%.$.$.$.-.$.=.g.N.G.k.$.$.<.x q : 1XPXPXPXPXPXPXPX",
"LXLXkXF O & ^ R._.oX&X-X%X@X;XdX/ i t g M a.5.;.;.&.-.*.1.w.K.eXeXn.$.$.<.7 $ , 8XPXPXPXPXPXPXPX",
"IXPXHX[ @ . X P / T.Q.^._._._.(.^ 1 > k m f.h.h.z.j.r.Z >.C B.K.H.h.%.$.>.5 , , xXPXPXPXPXPXPXPX",
"PXPXKX4XD $ # . ; a P W ^ ^ ^ T p - 3 k } j.r.s.l.p.x 7 8 J x.B.I.f.8.=.>.5 q j zXLXPXPXPXPXPXPX",
"PXKXPXPX3Xe 5 + O O O % % = - = = 3 f ] yXH.n.l.H.L.K | J.eXp.5.h.e.%.7.Z 0 q k BXPXPXPXPXPXPXPX",
"PXPXPXPXSXJ.b x 7 + + o + @   . . 3 ` 0XSXmXaXcXcXvXcXMXiXl.q.q.e.&.$.%.Z + , ` CXPXPXPXPXPXPXPX",
"IXPXKXKXLXaXp.u.V c x 8 8 8 6 o   . ' kXCXxX0X<XO.+.k } l.2.q.0.0.=.$.*.B + < o.LXPXPXPXPXPXPXPX",
"PXKXPXPXIXGXwXg.2.1.u.>.>.t.y.m.n + @ q d : < O   5 x C &.2.q.h.f.&.*.=.c + s :XPXPXPXPXPXPXPXPX",
"KXPXPXPXPXPXAX>Xh.,.,.0.%.=.0.5.M.i.m e o o e K L y.4.*.9.1.f.Z.P.q.=.&.v 0 { xXPXPXPXPXPXPXPXPX",
"KXPXIXPXKXKXLXSXeXa.<.9.9.$.$.*.=.&.d.p.a.y.t.3.,.*.*.%.2.k.Z.aXpXh.e.q.A D ).CXPXPXPXPXPXPXPXPX",
"PXPXPXPXPXPXPXPXFXrXp.,.7.9.%.$.$.$.-.*.9.1.0.9.6.6.1.e.j.H.cXSXyXj.:.f.Z G +.LXPXPXPXPXPXPXPXPX",
"PXPXPXPXPXPXPXPXPXJXpXB.3.&.%.%.8.;.%.*.=.8.1.w.s.2.5.l.eXnXKXJXuXN.t.l.y.| 4XIXPXPXPXPXPXPXPXPX",
"PXPXPXPXPXPXPXPXPXPXLXmXeXM.3.=.;.e.,.1.q.f.s.u.k.C.eXMXSXPXPXPXCXG n L J.D.CXPXPXPXPXPXPXPXPXPX",
"PXPXPXPXPXPXPXPXPXPXPXIXKXmXpXH.C.l.l.l.C.G.L.tXcXnXJXPXPXPXPXPXJX4XF.D.uX<XKXIXPXPXPXPXPXPXPXPX",
"PXPXPXPXPXPXPXPXPXIXPXPXPXPXKXPXSXSXAXAXSXLXLXLXPXLXPXIXIXPXPXKXPXKXJXNXJXzXPXPXPXPXPXPXPXPXPXPX",
"PXPXPXPXPXPXPXPXPXPXPXLXLXLXPXIXPXLXLXPXLXPXPXPXPXPXPXLXPXPXPXPXPXLXPXPXPXPXPXPXPXPXPXPXPXPXPXPX",
"PXPXPXPXPXPXPXPXLXLXPXPXPXPXPXPXPXPXPXPXPXKXPXPXPXPXPXPXLXPXPXPXPXPXPXPXPXPXPXLXLXPXPXPXPXPXPXPX",
"PXPXPXPXPXPXPXPXPXPXPXIXPXPXPXKXKXPXPXPXPXPXPXPXPXPXPXPXPXPXPXPXPXPXPXPXPXPXPXPXPXPXPXPXPXPXPXPX",
"PXPXPXPXPXPXPXPXPXPXPXPXPXPXPXPXPXPXPXPXPXPXPXPXPXIXPXPXPXPXPXPXPXPXPXPXPXPXLXPXPXPXPXPXPXPXPXPX"
};
