/* XPM */
static char *protAttr[] = {
/* columns rows colors chars-per-pixel */
"48 48 256 2",
"   c #1D0101",
".  c #180B09",
"X  c #19110A",
"o  c #230202",
"O  c #2A0807",
"+  c #261A19",
"@  c #35090B",
"#  c #281F21",
"$  c #312625",
"%  c #342D2B",
"&  c #480A09",
"*  c #48171A",
"=  c #560707",
"-  c #56191A",
";  c #4C2107",
":  c #55241C",
">  c #583208",
",  c #582C0A",
"<  c #442121",
"1  c #572726",
"2  c #583735",
"3  c #6B0000",
"4  c #62080A",
"5  c #770000",
"6  c #7F0D15",
"7  c #643706",
"8  c #643815",
"9  c #70350E",
"0  c #6A2326",
"q  c #65392D",
"w  c #75292B",
"e  c #623936",
"r  c #51423C",
"t  c #744607",
"y  c #774E3A",
"u  c #534C46",
"i  c #574E50",
"p  c #77524E",
"a  c #7F6157",
"s  c #797072",
"d  c #870302",
"f  c #973437",
"g  c #813C3F",
"h  c #B31817",
"j  c #AE0F0E",
"k  c #B02E2F",
"l  c #963004",
"z  c #925F17",
"x  c #8C5807",
"c  c #A3761E",
"v  c #A27114",
"b  c #A67839",
"n  c #965B21",
"m  c #855E54",
"M  c #8E6E56",
"N  c #94736A",
"B  c #A57640",
"V  c #AF6363",
"C  c #B85052",
"Z  c #D91613",
"A  c #C51011",
"S  c #D62623",
"D  c #DF362B",
"F  c #E61919",
"G  c #F40B0B",
"H  c #FC0404",
"J  c #FC0609",
"K  c #FC0904",
"L  c #FC0A0B",
"P  c #F60606",
"I  c #FB0C10",
"U  c #F70E13",
"Y  c #F4100D",
"T  c #FD110A",
"R  c #F51214",
"E  c #F41B1B",
"W  c #FB1313",
"Q  c #FC151A",
"!  c #FA1914",
"~  c #FB1B1B",
"^  c #F41916",
"/  c #EB110E",
"(  c #F41E21",
")  c #FB1D21",
"_  c #F71F28",
"`  c #E71D21",
"'  c #EA2015",
"]  c #F2221C",
"[  c #FD221D",
"{  c #ED2124",
"}  c #ED2A2B",
"|  c #E82827",
" . c #ED383A",
".. c #F42222",
"X. c #F42824",
"o. c #F42A2B",
"O. c #FD2323",
"+. c #FD2529",
"@. c #FC2925",
"#. c #FC2B2B",
"$. c #F2262A",
"%. c #FC2D31",
"&. c #FA2E35",
"*. c #FD322D",
"=. c #F7342F",
"-. c #FD3433",
";. c #FC3539",
":. c #FD3A36",
">. c #FD3B3B",
",. c #F33737",
"<. c #EC302A",
"1. c #FD3C41",
"2. c #CC502A",
"3. c #FB433C",
"4. c #EE4137",
"5. c #DD7D78",
"6. c #EF4848",
"7. c #ED5555",
"8. c #FD4444",
"9. c #FC4A46",
"0. c #FC4C4B",
"q. c #F64847",
"w. c #F44D53",
"e. c #F9514D",
"r. c #FD5D5A",
"t. c #F65656",
"y. c #EB4F52",
"u. c #F6625D",
"i. c #E86B6C",
"p. c #E57578",
"a. c #F96665",
"s. c #FE726E",
"d. c #F37574",
"f. c #FE7875",
"g. c #FD7C7B",
"h. c #F8767A",
"j. c #DD5053",
"k. c #9C7F81",
"l. c #FD7E82",
"z. c #F57B80",
"x. c #E87980",
"c. c #B68417",
"v. c #B3872E",
"b. c #BA8C31",
"n. c #AE904F",
"m. c #B69971",
"M. c #AB8E73",
"N. c #BDA366",
"B. c #CA9827",
"V. c #CE9429",
"C. c #D8A412",
"Z. c #D6AC30",
"A. c #EBB936",
"S. c #F1BC38",
"D. c #E0AC3A",
"F. c #D6A417",
"G. c #D3AA54",
"H. c #CDB16C",
"J. c #FE827A",
"K. c #FDCC05",
"L. c #FDCD0C",
"P. c #F7CE0D",
"I. c #FDCD14",
"U. c #FCCD1B",
"Y. c #F7CD1F",
"T. c #FCD00C",
"R. c #FDD003",
"E. c #FCD11C",
"W. c #FFD117",
"Q. c #FDCD2C",
"!. c #FBCE26",
"~. c #FCCD37",
"^. c #FCD223",
"/. c #FBD32C",
"(. c #FAD629",
"). c #FCD333",
"_. c #FDD43A",
"`. c #FBD735",
"'. c #EAC33B",
"]. c #DDC078",
"[. c #F5C947",
"{. c #F2C953",
"}. c #FBD646",
"|. c #F4DA5B",
" X c #F8DA56",
".X c #E6C650",
"XX c #FCDC63",
"oX c #FCDD6A",
"OX c #F6D866",
"+X c #F5D46F",
"@X c #FAE056",
"#X c #F6E265",
"$X c #FAE274",
"%X c #FCE37D",
"&X c #A49897",
"*X c #B08E86",
"=X c #B7A7A7",
"-X c #B8B4B5",
";X c #B9B3AE",
":X c #CCB396",
">X c #C9A3A0",
",X c #C6B4AF",
"<X c #FB8383",
"1X c #FD8886",
"2X c #FA8789",
"3X c #FD9492",
"4X c #FE9A9A",
"5X c #FA9796",
"6X c #EC8D8D",
"7X c #FFA19F",
"8X c #FDA2A1",
"9X c #FFA6A9",
"0X c #F8A9A9",
"qX c #FDB2B3",
"wX c #F8B8B6",
"eX c #F5AFAE",
"rX c #D78E8C",
"tX c #D7C6BA",
"yX c #F9DA8A",
"uX c #FFC2BD",
"iX c #F0DBB1",
"pX c #FBE686",
"aX c #FDEA93",
"sX c #FEEEA2",
"dX c #FDF3B2",
"fX c #DDCAC7",
"gX c #DACFD4",
"hX c #FBC3C3",
"jX c #FCCDCB",
"kX c #FBC9C7",
"lX c #FFDADC",
"zX c #F8D8D5",
"xX c #EAD3D1",
"cX c #FFDFE0",
"vX c #FEEFC5",
"bX c #FBE1DC",
"nX c #FFFBCC",
"mX c #FFF5C6",
"MX c #FFFBD4",
"NX c #FFFBDC",
"BX c #FDF5D6",
"VX c #EBE3D5",
"CX c #E9E2E3",
"ZX c #FEE4E3",
"AX c #FEEBE4",
"SX c #FCEBEB",
"DX c #F7E8E7",
"FX c #FEEEF1",
"GX c #FEFCE3",
"HX c #FEFDEB",
"JX c #FBF2EA",
"KX c #F7FFFD",
"LX c #FEF4F3",
"PX c #FFF4F9",
"IX c #FEFCF5",
"UX c #FEFEFD",
/* pixels */
"UXUXUXUXUXUXUXUXUXUXUXUXUXxXfXIXUXUXUXUXUXUXUXUXUXUXUXUXUXUXUXUXUXUXUXUXUXUXUXUXUXUXUXUXUXUXUXUX",
"UXUXIXUXUXUXUXUXUXIXnXsXpXH.7 ; N zXUXKXUXUXUXUXUXUXUXUXUXUXUXUXUXUXUXUXUXUXUXUXUXUXKXUXUXUXKXUX",
"UXUXUXUXUXUXUXUXKXGXpX/.!./.S.B.t , M.FXUXUXUXUXUXUXUXUXUXUXUXUXUXUXUXUXUXUXUXUXUXUXKXUXUXUXUXUX",
"UXUXUXUXUXUXUXUXKXNX$XW.L.T.E.I.}.b.; m JXUXUXUXUXUXUXUXUXUXUXUXUXUXUXUXUXUXUXUXUXUXUXUXKXUXUXUX",
"UXUXUXUXUXUXHXmXmXvXaX[._.!.^.^.(._.V., *XPXUXKXUXUXUXUXUXUXUXUXUXUXUXUXUXUXUXUXUXUXUXUXUXUXUXUX",
"UXUXUXKXUXHXsXOXOXH.M.:XdXaX$XXX_.U.~.c : fXIXUXUXUXUXUXUXUXUXUXUXIXUXUXUXUXUXUXKXKXUXUXUXUXUXUX",
"IXUXUXUXUXnX|.`.Z.n.,XLXKXIXBXdX#X^.I.S.> N LXUXUXUXUXUXUXUXUXUXUXUXUXKXUXIXIXUXHXAXlXZXLXUXUXUX",
"UXUXUXUXKXsX`.A.x M.LXKXUXIXIXHXaX/.T.!.v.m CXUXUXUXUXUXUXUXUXUXUXUXUXUXSXjXhXzXwX2Xp.V bXUXUXUX",
"UXUXUXHXUXpX/.V.9 :XIXKXUXUXUXUXMX XI.U.c.y gXUXUXUXUXUXUXUXUXUXUXUXIXSX3X7.a.f.y. .k & bXUXUXPX",
"UXUXUXUXHXpX~.Z.7 tXKXPXUXUXIXUXGX$X`.E.D.8 fXUXUXUXUXUXUXUXUXUXUXUXSX5X .&.3.9.o.<.6 @ ZXUXUXUX",
"KXUXUXUXHX%X).[.7 >XUXIXUXUXIXKXGX$X(.E.[.8 fXUXUXUXUXUXUXUXUXUXUXFX7X ...O.>.e.*.<.4 O AXUXUXUX",
"IXUXUXUXHX%XQ._.z m JXKXUXUXUXUXHXOX^.U.A.7 ,XIXUXUXUXUXUXUXUXUXLX0Xe.O.*.~ +.>.E S & O SXUXUXUX",
"UXUXUXUXHXpXY.^.V., ,XUXUXUXKXUXnX X(.^.A.> fXUXUXUXUXUXUXUXUXLXqX7.-.-.O.W I W L h & @ ZXUXUXUX",
"UXUXUXUXUXsX(.E.[.t 2 zXUXKXUXGXpX}._.^.{.8 fXIXUXUXUXUXUXUXHXuXe.@.#.$.W W W W G j & * fXIXUXUX",
"UXUXUXUXUXmX XY.).B.t N bXHXNXaX@X}.`.`.b.m CXUXPXUXUXUXUXUXlXa._ ! O.R I W L L G d - @ &XUXUXUX",
"UXUXUXUXUXGXaX).^./.B.t n.%XoX}._._.`..XM =XPXKXUXUXKXUXUXIX9X<.W ) W L [ ) ) *.F 5 0 o ;XUXKXUX",
"UXUXUXUXUXUXMX$X(.I.).'.Z.|.}._./.~..XN.,XDXIXUXKXUXUXKXIXuX1.E ~ ~ L O.@.~ #.*.Z 3 w O CXUXUXUX",
"UXUXUXUXUXUXIXdX|.!.Y.E.`.}.}.[.Z.v.n.tXLXKXUXUXUXUXUXPXkX6.E ~ ~ K Q -.~ W @.! A = w O DXUXUXUX",
"HXUXUXUXUXUXUXHXnXoXU.K.(.}.|.H.m.:XVXKXUXUXUXUXUXKXIXzXu._ Q [ K P [ #.~ [ #.W A = - . SXUXUXUX",
"UXUXUXUXKXIXUXUXHXpXQ.E.Z.].vXBXHXIXUXKXUXUXIXUXUXUXcXd.| ) #.! K L ~ O.~ ~ O.W j = - X LXUXUXUX",
"UXUXUXUXUXUXIXUXHX$X)._.t N UXUXIXUXUXUXKXUXUXUXKXLX4Xa.;.%.-.P K L L #.E W O.R h = * X FXUXUXUX",
"UXUXUXUXUXKXKXUXGXOXU./.c M.PXLXIXUXUXUXKXUXKXUXPXkXJ.q.;.%.G P H L W :.E ~ #.F h w - o FXUXUXUX",
"UXUXHXUXUXUXUXUXMX XE.^.A.yXM a k.CXUXUXUXKXIXPXkX2Xa.8.8.( L J L L ! [ @.#.-.{ h w @ + LXUXUXUX",
"UXUXUXUXUXUXUXUXMX}.E.E.Y.P.v z 8 m JXUXUXUXPXjXl.q.q.8.;.] #.L L L O.O.;.*.-.{ d - o + UXUXUXUX",
"UXUXUXUXUXUXUXUXnXXX/.E.I.K.T.Q.G.M DXUXPXPXhXh.1.( >.o...*.*.~ H L ~ O.#.E ^ F 5 - o $ UXUXUXUX",
"UXUXUXUXUXUXUXUXMX%X_.E.K.K.L.I.[.N.JXUXLXqXa.3.o.;.O.Q O.O.! I W O.>.-.~ ~ [ F 5 : o $ gXUXUXUX",
"UXUXUXUXUXUXUXUXBX%X).^.L.I.I.!.|.iXHXAX5X1.X.X.>.>.O.~ Q I L T @.:.=.[ I W [ F 5 -   + ;XUXUXUX",
"UXUXUXUXUXUXUXUXNXXX).`.(.~.c.c B *XxX5X ._ #.;.#.( Q O.[ I H L ~ >.#..._ o.-.Z 3 1   + -XUXUXUX",
"UXUXUXUXUXUXUXUXnX XE.E.I.!.c.z n w C  .O.#.>.%.Q I ! O.:.W G G R ( ;.0.r.q.-.F 3 1   $ -XKXUXUX",
"UXUXUXUXUXUXUXUXMX XE.L.K.R.R.Q.yX9 h } #.*.! Y W K T W W R ( ..-.>.r.J.g.t.8.} 5 1   $ CXUXUXUX",
"UXUXUXUXUXUXUXUXGXoXU.L.K.K.K.^.D.l S 0.#.G K K K H L H L #.9.>.1.o.$.6.s.w.;.{ d 1   # UXUXUXUX",
"UXUXUXUXUXUXUXUXMX XI.L.L.C.c.C.V.2.q.=.R L K K H K L J I O.*.+.Q U Q 1.l.3X0.{ k 1 . $ UXUXUXUX",
"UXUXUXUXUXUXUXUXGX%XXX|.oXb 9 n 2.D ..Y ! W J J J J H H K Y ^ ~ ^ E #.8.f.4X7.} k 1 X i UXUXUXUX",
"UXUXUXUXUXUXUXUXIXNXNXGXHXZXwX4X9.E L W W W I O.) P H H L ! O.>.1.8.3.t.1X9Xd.w.i.< X s UXUXUXUX",
"UXUXUXUXUXUXUXUXUXUXKXUXIXjX5Xr.~ P J H L ..8.0.r.~ J I W ~ ) ;.=.o.] X.y.4X4Xz.rX2 + &XUXUXUXUX",
"UXUXUXUXUXUXUXUXUXKXUXPXzX3X0.W J K K H L >.u.J.J...J J P L I @.>.8.,.r.3XhXwX9XeX2 % -XUXUXUXUX",
"UXUXUXUXUXUXUXKXUXUXUXjX2X0.^ J H H H H J O.o.,.o.Q L G W ~ ~ X.3.t.f.9X3Xp.p.h.6X2 u fXUXUXUXUX",
"UXUXUXUXUXUXUXUXKXPXjX5Xs.E I I P H H K W O.O.#.-.;.;.-.:.8.8.8.r.s.f.s.t.h.3X<XJ.2 u ,XUXUXUXUX",
"UXUXUXUXUXUXIXUXKXZXwX5Xw.o.) W G W W W [ [ R ! Q ..#.*.[ ~ ) ) ) $...#.F 4.1Xh.5.p r CXUXUXUXUX",
"UXUXUXUXUXUXIXPXPXcXqXd.2Xl.;.%.>.;.~ W W T L L P G ! ! W W R E +.>.%.X.' =.f.h.x.e i DXUXUXUXUX",
"UXUXUXUXUXSXhX0X3Xd.7.r.a.u.8.] ..E Q Q ~ +.O.~ ) %.%.#.;.-.1.1.,.o.$.&.;.q.4X3Xp.f *XbXUXUXUXUX",
"KXUXUXUXUXlXd.q.-.#.o.*.*.*.@.O.%.#.;.;.>.9.8.;.&.,.-.-.o.-.;.0.r.t.&.%.$.6.s.u.j.f rXxXSXUXUXUX",
"KXUXUXUXUXZXl.>.+.o.;.-.#...~ ..) ^ ^ ..8.q.r.0. .>.>.o.{ o.$.}  .w.7.J.1Xg.l.2X2XV kXFXUXUXUXUX",
"UXUXUXUXUXLXqXy.&.$.$.%.#.( ( ] { { { | 7.J.3X3X5X5X3X2X<X2X4X3X5X8XuXjXhXwXwXeXeX>XxXUXUXUXUXUX",
"UXUXUXUXUXKXAXeX3X1X<XJ.h.i.h.1X9X9XqXqXhXlXSXSXFXUXPXIXIXIXUXUXUXIXIXIXIXPXPXIXIXLXUXUXUXUXUXUX",
"UXUXUXUXUXUXKXIXIXUXIXLXLXIXIXUXIXUXIXUXUXUXUXUXUXUXUXUXUXUXUXKXUXUXUXUXUXUXUXUXUXUXUXUXUXUXUXUX",
"UXUXUXUXUXUXUXUXUXUXUXUXUXUXUXUXUXUXUXUXUXUXUXUXUXUXUXUXUXUXUXUXUXUXUXKXUXUXUXUXUXUXUXUXUXUXUXUX",
"KXUXUXUXUXUXUXUXUXUXUXUXUXUXUXUXUXUXUXUXUXUXUXUXUXUXUXUXUXUXUXIXUXUXUXUXUXUXUXUXUXUXUXUXUXUXUXUX"
};
