/* XPM */
static char *protop[] = {
/* columns rows colors chars-per-pixel */
"48 48 256 2",
"   c #040B06",
".  c #021301",
"X  c #021B02",
"o  c #0A1809",
"O  c #140B06",
"+  c #141515",
"@  c #0E140A",
"#  c #062707",
"$  c #013201",
"%  c #033B03",
"&  c #0A3609",
"*  c #162316",
"=  c #133612",
"-  c #0E2C0E",
";  c #281506",
":  c #391A00",
">  c #350B09",
",  c #283603",
"<  c #3A2700",
"1  c #282607",
"2  c #272827",
"3  c #383936",
"4  c #2D3229",
"5  c #1B1920",
"6  c #054904",
"7  c #045603",
"8  c #184517",
"9  c #155B17",
"0  c #114A0C",
"q  c #0B770D",
"w  c #186916",
"e  c #177A15",
"r  c #0E6B04",
"t  c #374606",
"y  c #2A5508",
"u  c #2A422A",
"i  c #334734",
"p  c #2D532D",
"a  c #277605",
"s  c #246D15",
"d  c #277226",
"f  c #357032",
"g  c #4B1A0B",
"h  c #562A00",
"j  c #5A3700",
"k  c #492610",
"l  c #643800",
"z  c #622C02",
"x  c #643E3A",
"c  c #534D01",
"v  c #50700B",
"b  c #497A2A",
"n  c #654401",
"m  c #754703",
"M  c #714C0F",
"N  c #64773F",
"B  c #636218",
"V  c #474849",
"C  c #5A5658",
"Z  c #4C514C",
"A  c #547455",
"S  c #4C724D",
"D  c #76534B",
"F  c #6C5250",
"G  c #787A77",
"H  c #696B68",
"J  c #766B54",
"K  c #0B880A",
"L  c #029A03",
"P  c #069A09",
"I  c #0C950B",
"U  c #0A9B05",
"Y  c #0B9B0B",
"T  c #069603",
"R  c #0C9911",
"E  c #14890A",
"W  c #178615",
"Q  c #109C0D",
"!  c #159307",
"~  c #139C13",
"^  c #179816",
"/  c #0F8012",
"(  c #1F9F21",
")  c #0BA10C",
"_  c #07A307",
"`  c #0EA212",
"'  c #15A20D",
"]  c #13A114",
"[  c #1AA21A",
"{  c #18A419",
"}  c #1DA420",
"|  c #249D1D",
" . c #2B910A",
".. c #278928",
"X. c #239E22",
"o. c #259227",
"O. c #369B38",
"+. c #37902D",
"@. c #20A51D",
"#. c #33A30E",
"$. c #22A323",
"%. c #24AA24",
"&. c #29A92A",
"*. c #2EA531",
"=. c #29B129",
"-. c #30A72E",
";. c #32AB32",
":. c #39A538",
">. c #3BB43D",
",. c #2FB335",
"<. c #3D9F43",
"1. c #3EAB41",
"2. c #5E9D01",
"3. c #409020",
"4. c #50A503",
"5. c #48A72F",
"6. c #6D852F",
"7. c #70AA0A",
"8. c #4E9648",
"9. c #45AA45",
"0. c #46B346",
"q. c #57B454",
"w. c #55AE54",
"e. c #789477",
"r. c #6B8E6A",
"t. c #63BD5E",
"y. c #66B963",
"u. c #76AF76",
"i. c #5FB565",
"p. c #68C667",
"a. c #74C873",
"s. c #57C957",
"d. c #865904",
"f. c #905A18",
"g. c #885828",
"h. c #957502",
"j. c #95680C",
"k. c #A57806",
"l. c #9E6B23",
"z. c #927672",
"x. c #9D7C57",
"c. c #8C810E",
"v. c #98B805",
"b. c #89B705",
"n. c #BB9516",
"m. c #AE900D",
"M. c #B28C30",
"N. c #BDA50A",
"B. c #B3BA08",
"V. c #B0B926",
"C. c #9F825E",
"Z. c #B29355",
"A. c #B49B6F",
"S. c #9BA673",
"D. c #AFC411",
"F. c #80C978",
"G. c #90CD73",
"H. c #C29A0F",
"J. c #CB9C27",
"K. c #C8B804",
"L. c #D6B803",
"P. c #D8B717",
"I. c #C9AB11",
"U. c #D4B428",
"Y. c #E4B70F",
"T. c #E9BA2D",
"R. c #D5AE51",
"E. c #D2BA6A",
"W. c #C8C502",
"Q. c #D4C302",
"!. c #D9C303",
"~. c #D3C506",
"^. c #D8C911",
"/. c #E3CA02",
"(. c #EBCA03",
"). c #E6C708",
"_. c #E8C714",
"`. c #F4CA02",
"'. c #F3CB0A",
"]. c #FBCA03",
"[. c #F5C606",
"{. c #F5CA15",
"}. c #FBD007",
"|. c #FDD11C",
" X c #F6D019",
".X c #E8D008",
"XX c #E9C927",
"oX c #FBCD29",
"OX c #F8CA37",
"+X c #FBD427",
"@X c #FED432",
"#X c #FDD739",
"$X c #C9CA47",
"%X c #FBD543",
"&X c #F9D748",
"*X c #FAD857",
"=X c #EBCA4F",
"-X c #F9DB68",
";X c #FCE16D",
":X c #828583",
">X c #959897",
",X c #8F9489",
"<X c #88A687",
"1X c #97A197",
"2X c #9FA3A0",
"3X c #A99086",
"4X c #B4A792",
"5X c #AEBEB1",
"6X c #AFAEAD",
"7X c #86CA86",
"8X c #89D587",
"9X c #97D797",
"0X c #AED1B0",
"qX c #B6E8B7",
"wX c #ABE5A8",
"eX c #A4E69F",
"rX c #BDDCC0",
"tX c #C7B3AE",
"yX c #C7B092",
"uX c #C1BCC4",
"iX c #D1CBB2",
"pX c #FCE588",
"aX c #FAE89A",
"sX c #FDE9A5",
"dX c #FFF3AC",
"fX c #FEF4BA",
"gX c #FAE8B4",
"hX c #DCDAA3",
"jX c #C8C8C7",
"kX c #CAD6CA",
"lX c #D4D9D4",
"zX c #D3CFD2",
"xX c #C7EAC6",
"cX c #DBE6DA",
"vX c #D8F8D9",
"bX c #CDF1CC",
"nX c #DDFBE3",
"mX c #DDE9E0",
"MX c #E4D6D2",
"NX c #FFF8CB",
"BX c #FFF9D7",
"VX c #ECF0D1",
"CX c #E8E4E4",
"ZX c #ECFDEB",
"AX c #E6F9E7",
"SX c #F3ECEB",
"DX c #F2E8E4",
"FX c #FDFDE3",
"GX c #F6F7EA",
"HX c #F3F4F3",
"JX c #F3FDF3",
"KX c #F5FEFB",
"LX c #FDFEF5",
"PX c #FEFEFD",
"IX c #FAF5F4",
"UX c #EFFAF1",
/* pixels */
"LXPXPXPXPXPXKXKXPXLXKXPXPXPXPXPXIXPXPXLXKXPXLXPXPXPXPXPXPXKXKXKXKXPXPXPXPXPXPXPXPXPXPXPXPXPXPXPX",
"PXPXPXPXPXPXLXPXPXPXIXtX3XMXDXDXCXlXSXlXkXkXkXUXKXKXLXPXPXPXPXPXPXPXIXPXPXPXPXPXPXPXPXPXPXPXPXPX",
"PXPXLXPXPXPXLXBXsXpXpXR.l g g k 4 2 2 # = = - 8 4 A >X5XlXIXPXIXPXPXPXKXPXPXPXPXPXPXPXPXPXPXPXPX",
"PXLXLXPXPXKXFXsX&X@XoXoXT.H.d.h : , w W / / / r 7 6 0 # * A 5XCXKXPXKXPXPXPXPXPXPXPXPXPXPXPXPXPX",
"PXPXPXPXIXGXFXdX%X|.|.{.[.(.P.m.l < y K L L L ^ ^ R o.w $ X = p A >XSXPXPXPXPXIXPXPXPXPXPXPXPXPX",
"KXPXPXLXLXLXBXsX&XoX X}.].`..X~.N.d.< y I L P Y U L L ^ ..w % 7 8 8 u :XCXPXKXPXPXPXPXPXPXPXPXPX",
"PXPXIXfXpXaXgXhXE.$XD.D.K.^.W.Q.Y.P.n 1 a Q Y Y _ U _ Y Y ~ ^ q q ..w 8 V zXKXKXPXPXPXPXPXPXPXPX",
"LXPXNX-X%X*XE.x.N #.#.4.7.7.v.W.(.L.n.h , O.;.@.Y P Y ] ` R Y I Y ^ :.f i 3 C HXPXPXPXPXPXPXPXPX",
"LXLXaX#XoXJ.Z.6.+.Q U U ! #.2.W.(.)._.m < f 0.1.&.~ P P ) { %.] P L ' :.r.4 5 1XPXPXPXPXPXPXPXPX",
"PXBX-X+XT.f.B 3.' _ L T L U #.D.).'.{.J.M N y.O.&.=.=.~ ~ I ` %.%.Y Q @.p.i + V SXPXPXPXPXPXPXPX",
"PXNX=X+Xn.z y @.Y L L L L ` &.7.XX{.+XJ.g.J bXqXy.O.[ &.&.%.` Y $.*.` ) 9.S.  4 jXPXPXPXPXPXPXPX",
"PXdX&X#Xk.z b ^ U L L L P o.9 6.OX+X|.T.M F SXIXAXqXp.:.;.;.&.{ @.$.` Y 1.u.  5 :XPXPXPXPXPXPXPX",
"LXdX%X#XU.h b ! L L _ L ^ 0 * E.*X#X X+Xf.D SXPXPXKXnXwXy.:.;.1.p.@.' Y 0.e.  5 >XPXPXPXPXPXPXPX",
"PXfX%X@XT.h y ! T L L Y w . C fX*X@X X|.l.D DXPXLXPXPXKXvX9Xq.u.<X9.&.=.:.8.  3 6XHXPXPXPXPXPXPX",
"PXfX%X XXXd., q T L L q # + rXfX%X@X|. Xj.x DXPXKXLXPXPXPXZXrX0Xu & 9 +.d & @ G uXIXPXPXPXPXPXPX",
"PXfX&X XY.n.< , E L Q 9   4 DXsX#X@X|.|.j.x DXPXPXPXPXPXPXLXKXHXG @ . # o o H CXKXPXPXPXPXPXPXPX",
"PXBX*X X_._.l ; s R ;.%   C BX-XOX#X+X@Xg.D SXPXPXPXPXPXPXPXPXPXIXjXH C Z :XHXPXPXPXPXPXPXPXPXPX",
"KXFX;X_.{.~.h.h , s O..   4XpX*X&X#X+X*XM z.SXPXPXPXPXPXPXPXPXPXPXLXKXPXPXKXIXPXPXPXPXPXPXPXPXPX",
"PXLXaXXX.X!.K.m.j , b ; n =X&X&X#X@X#XR.D tXIXPXPXPXPXPXPXPXPXPXPXPXPXPXPXPXPXPXPXPXPXPXPXPXPXPX",
"LXPXVX$X).(./.K.m.m m.m.I.XX@XOX@X#XE.x.3XSXPXPXPXPXPXPXPXPXPXPXPXPXPXPXPXPXPXPXPXPXPXPXPXPXPXPX",
"PXPXvXG.V.(./.Q.N.N.N.m.m.XX@XoXOXR.A.tXDXPXPXPXPXPXPXPXPXPXPXPXPXPXLXPXPXPXPXPXPXPXPXPXPXPXPXPX",
"PXPXvXF.4.D.~.(.)./.L.N.J.U.T.J.l.Z.iXSXPXPXPXPXPXPXKXPXPXPXPXPXPXPXJXAXUXPXPXPXPXPXPXPXPXPXPXPX",
"LXPXnXa.| 4.v.(.].[.L.m.m.M.Z.Z.yXMXLXPXPXPXLXPXPXPXPXPXPXKXKXIXHXjXe.r.,X5XKXPXPXPXPXPXPXPXPXPX",
"LXLXAXF.[ ^ 2.L.[.[.P.h.j A.NXDXPXPXPXPXPXLXPXPXPXKXKXHXjXH Z 3 2 @ . X X i 1XHXPXPXPXPXPXPXPXPX",
"PXLXAXF.X.~ 7.W.Q.P.l : O ,XKXPXPXPXPXPXPXKXPXPXAXbXvX5Xi       o $ 9 e d f S <XJXPXPXPXPXPXPXPX",
"PXKXJX7X*.Q b.Q.W.P.h > O :XPXPXPXPXPXPXPXPXAXbXF.w.q.w.d d f f <.W Q Q Y / 9 p cXPXPXPXPXPXPXPX",
"PXPXJX7X-.#.v.).Q.^.m ; O C CXPXKXLXPXPXPXAX7X1.^ I I ~ ~ ~ { ^ [ R U Y I 7 % f 0XPXPXPXPXPXPXPX",
"LXPXKX8X;.#.v./.!.~.I.l : k D 4XIXPXPXPXJXvX9.I L T T P ` ] ` %.=._ _ L ^ 6 & 8 e.PXPXPXPXPXPXPX",
"PXPXPX9X>. .D./.!./.[.Y.f.l d.k 6XPXPXHXkXwX9.P L L L L P ` [ $.;.[ L L I 6 = o :XPXPXPXPXPXPXPX",
"PXPXPXwX5.#.D.Q.Q./.].{.Y.Y.T.f.z.PXLXAX9Xp.1.) L L L L L R *.9.t.-.U L R % * + >XPXPXPXPXPXPXPX",
"LXPXPXxX9.#.b.B.Q.(.].].].].Y.M.3XIXLXvXi.( ` Y R I I I ` } s.8X7X>.L L E $ @ + 2XPXPXPXPXPXPXPX",
"LXPXPXBXi.#.b.D.Q.(.].].].Y.Y.R.hXLXLXAXa.&.%.,.,.&.^ W e W 9.p.p.*.P L W # + 5 zXPXPXPXPXPXPXPX",
"PXPXIXJX7X-.b.W.W././.(._.Y.J.M.MXPXPXKX9X*.^ X.1.O.6 $ % d <.9.s.&.) ) W # * 4 lXPXPXPXPXPXPXPX",
"PXPXPXJXqX2.v.~.W.W.Q.N.h.m l g z.HXPXLX0Xi.9.5.y.a.f A u.8X*.( &.{ P _ e - * 3 MXPXPXPXPXPXPXPX",
"KXPXPXPXAXG.V.).L./.(._.k.m j > > 3XIXLXJXbXqXxXxXbXkXbXeX:.^ [ { Y L P q X + V CXPXPXPXPXPXPXPX",
"KXPXLXPXLXwXU.(.`.`.].].'.~.U.n > ; H zXCXlX0X:XG H i S O.{ { { { Y L P r . + H PXPXPXPXPXPXPXPX",
"PXPXPXPXPXVX$X_.[.].].].].(.^.c.g @ . * 2 + +     # 0 q Y ` { =.$.Y U P 7 . 2 :XPXPXPXPXPXPXPXPX",
"PXPXPXPXKXBX-X{.'.].].[.'._.^.c.v 3.9 = . X * f f ..K P ` ~ %.q.a.[ R I 7 - Z zXPXPXPXPXPXPXPXPX",
"PXLXPXPXPXBX-X X`.`.^.N.h.h.m.v a ! $.O...+.^ ^ ^ Y P P ~ ;.w.qXwX*.{ { e u :XCXPXPXPXPXPXPXPXPX",
"PXLXPXPXPXFXpX*X*X=XV.c , c 3.a K L L U R R { ' Y Y ' { *.y.xXAXeX*.R $.e p G HXPXPXPXPXPXPXPXPX",
"PXPXPXPXPXPXBXBXFXFXwX8. . .E R ~ ` ) U Y ` ~ $.@.~ } :.8XvXPXJXrX8.o.:...A >XIXPXPXPXPXPXPXPXPX",
"PXPXPXPXPXPXPXPXPXPXLXbX7X9.^ I R ~ R ` [ %.| $.-.q.8XxXZXPXPXPXmXp 0 f u.e.CXPXPXPXPXPXPXPXPXPX",
"PXPXPXPXPXPXPXPXPXPXPXPXKXvXwXy.0.1.:.:.w.y.a.9XqXnXHXPXPXPXPXPXUX<Xr.e.0X,XPXKXPXPXPXPXPXPXPXPX",
"PXPXPXPXPXPXPXPXPXPXPXPXPXPXPXPXZXAXAXAXAXJXPXPXPXPXPXPXPXPXPXPXPXPXJXmXHXlXPXPXPXPXPXPXPXPXPXPX",
"PXPXPXPXPXPXPXPXPXLXLXKXJXPXPXPXPXPXLXLXLXPXPXPXPXPXPXPXPXPXPXPXPXKXPXPXPXPXPXPXPXPXPXPXPXPXPXPX",
"PXPXPXPXPXPXPXPXLXPXPXPXPXPXPXPXPXPXPXPXPXKXPXPXPXPXLXPXPXPXPXPXPXPXPXPXPXPXPXPXPXPXPXPXPXPXPXPX",
"PXPXPXPXPXPXPXPXPXPXPXPXPXPXPXPXKXPXPXPXPXPXPXPXPXPXPXPXPXPXPXPXPXPXPXPXPXPXPXPXPXPXPXPXPXPXPXPX",
"PXPXPXPXPXPXPXPXPXPXPXPXPXPXPXPXPXPXPXPXPXPXPXPXPXPXPXPXPXPXPXPXPXPXPXPXPXLXPXPXPXPXPXPXPXPXPXPX"
};
