/* XPM */
static char *relations[] = {
/* columns rows colors chars-per-pixel */
"48 48 256 2",
"   c #296DA5",
".  c #2A6DBE",
"X  c #206FBB",
"o  c #2C76B5",
"O  c #2B71BB",
"+  c #3B74AC",
"@  c #3776AE",
"#  c #3270B7",
"$  c #3273BA",
"%  c #3D74B1",
"&  c #3C78B3",
"*  c #397ABA",
"=  c #0F5FF7",
"-  c #0B68DE",
";  c #146ECE",
":  c #1E69C3",
">  c #1D6BCE",
",  c #1366DA",
"<  c #1569D5",
"1  c #1469DA",
"2  c #1969D4",
"3  c #1B6DD9",
"4  c #1D70DF",
"5  c #0665ED",
"6  c #0469E5",
"7  c #0669ED",
"8  c #0D65E5",
"9  c #0A66EC",
"0  c #0B69E4",
"q  c #0B68EF",
"w  c #0565F4",
"e  c #0165FD",
"r  c #0268F4",
"t  c #0068FB",
"y  c #0866F3",
"u  c #0963FB",
"i  c #0868F1",
"p  c #1264E8",
"a  c #126BE1",
"s  c #186EEF",
"d  c #1468E6",
"f  c #226BC4",
"g  c #236BCC",
"h  c #2D6FCD",
"j  c #206BD3",
"k  c #2A6ADB",
"l  c #2772C8",
"z  c #2872D4",
"x  c #397BC8",
"c  c #2771E1",
"v  c #467C9D",
"b  c #467A93",
"n  c #4376AB",
"m  c #447AAB",
"M  c #4C7EA9",
"N  c #4174BC",
"B  c #567FA0",
"V  c #54839B",
"C  c #598496",
"Z  c #4E83A4",
"A  c #4B83AD",
"S  c #4780B0",
"D  c #4483BC",
"F  c #5087A9",
"G  c #5887A6",
"H  c #5180B0",
"J  c #5E90B5",
"K  c #6C8A89",
"L  c #62869B",
"P  c #648A9E",
"I  c #698B95",
"U  c #77988E",
"Y  c #799588",
"T  c #749486",
"R  c #71939C",
"E  c #628DA2",
"W  c #6899A8",
"Q  c #6D93BA",
"!  c #729CAF",
"~  c #7DA0A7",
"^  c #5498CD",
"/  c #4592E7",
"(  c #7CA3C9",
")  c #88967A",
"_  c #89A17C",
"`  c #9CA061",
"'  c #9DA675",
"]  c #9BAB7C",
"[  c #98A577",
"{  c #9FB076",
"}  c #AAB75E",
"|  c #B6AC5F",
" . c #BDBA5C",
".. c #A4AC68",
"X. c #A5AB66",
"o. c #A7B061",
"O. c #AAB16E",
"+. c #A5B17E",
"@. c #BCBA64",
"#. c #BABE6C",
"$. c #B5B66D",
"%. c #BFB775",
"&. c #B4B777",
"*. c #ACC27E",
"=. c #BCC07E",
"-. c #CDBC4D",
";. c #C5BF42",
":. c #C7BB58",
">. c #C4B963",
",. c #DBC837",
"<. c #EFCA1F",
"1. c #FFC709",
"2. c #FDCC04",
"3. c #FDCD0B",
"4. c #F7CB0E",
"5. c #F5CB14",
"6. c #F3CC1B",
"7. c #FDCD13",
"8. c #FDCE1A",
"9. c #F7D002",
"0. c #F7D30B",
"q. c #FBD004",
"w. c #FDD00B",
"e. c #F6D112",
"r. c #F6D01B",
"t. c #FDD113",
"y. c #FDD21B",
"u. c #EECA29",
"i. c #EBC934",
"p. c #EFD025",
"a. c #E9D13A",
"s. c #F4CC28",
"d. c #FCCE22",
"f. c #FACD2B",
"g. c #F0CC23",
"h. c #F6CD35",
"j. c #F5D224",
"k. c #F7D02E",
"l. c #FDD323",
"z. c #FDD32B",
"x. c #FFD924",
"c. c #FED82B",
"v. c #F5D233",
"b. c #F6D33B",
"n. c #FDD433",
"m. c #FCD43B",
"M. c #FED834",
"N. c #FED93B",
"B. c #F1D932",
"V. c #CDC042",
"C. c #CCC154",
"Z. c #D1C04B",
"A. c #DDC849",
"S. c #D3C251",
"D. c #D4C659",
"F. c #D3C95B",
"G. c #DFCF56",
"H. c #DECB58",
"J. c #C6C165",
"K. c #D6CB66",
"L. c #D1CA6F",
"P. c #D4CF76",
"I. c #CECB6D",
"U. c #E0C741",
"Y. c #E6CA43",
"T. c #E2CC55",
"R. c #E7D347",
"E. c #E8D55A",
"W. c #F7D74A",
"Q. c #FCD442",
"!. c #FCD64B",
"~. c #FDDA43",
"^. c #FDDA4B",
"/. c #F4D546",
"(. c #F7D450",
"). c #F5D65B",
"_. c #FDDB53",
"`. c #FCDC5A",
"'. c #F6DB64",
"]. c #FBDD62",
"[. c #F9DC6A",
"{. c #F8D664",
"}. c #FADC73",
"|. c #F1DC7F",
" X c #FEE04C",
".X c #FDE054",
"XX c #FDE25B",
"oX c #FDE263",
"OX c #FDE36C",
"+X c #FFE86F",
"@X c #F7E163",
"#X c #FBE372",
"$X c #FDE47C",
"%X c #FEEB7B",
"&X c #859C82",
"*X c #889E85",
"=X c #819495",
"-X c #8CA18A",
";X c #98AB86",
":X c #94AC94",
">X c #90A49B",
",X c #87A8A0",
"<X c #8AAAAE",
"1X c #8CB7B0",
"2X c #A7AD82",
"3X c #ADBA85",
"4X c #B1B180",
"5X c #A5B494",
"6X c #A9BEA6",
"7X c #B6C184",
"8X c #95C6EF",
"9X c #AACAD4",
"0X c #BDCDC3",
"qX c #BEDCE0",
"wX c #F6E78E",
"eX c #FDE483",
"rX c #FCE788",
"tX c #FEEA81",
"yX c #FEEB8C",
"uX c #F7E284",
"iX c #FDE592",
"pX c #FEEC94",
"aX c #FEEA9A",
"sX c #FFF18A",
"dX c #FFF393",
"fX c #FEF19C",
"gX c #EEE6AD",
"hX c #EFF1AF",
"jX c #FFEDA2",
"kX c #F8EAA9",
"lX c #FFEBB7",
"zX c #FFEFBA",
"xX c #F1E1B5",
"cX c #FEF0A5",
"vX c #FFF3AB",
"bX c #FFF8A0",
"nX c #FEF2B3",
"mX c #FFF4B9",
"MX c #FBF6B8",
"NX c #DCECD5",
"BX c #E3EEC8",
"VX c #E8E9D1",
"CX c #F7E9C1",
"ZX c #FFEDD0",
"AX c #FEF5C5",
"SX c #FFF9C5",
"DX c #FEF9CC",
"FX c #FDF5CD",
"GX c #FFF5D7",
"HX c #FFF5D8",
"JX c #FFFBD3",
"KX c #FEFBDA",
"LX c #FEFCE3",
"PX c #FEFEEA",
"IX c #FEFDF5",
"UX c #FDFDFD",
/* pixels */
"oX.X~.N.M.M.c.x.c.d.l.y.y.y.l.x.n.z.c.~.oXtXdXvXjX}.!.~..X%XfXvXmXJXJXKXKXKXPXIXUXUXUXUXUXUXUXUX",
"_.^.n.M.z.j.d.8.8.y.y.y.y.l.y.l.N.~.M.n.~._.].'.[.oXXXn.d.6.j.b.`.%XdXpXyXrXyXcXMXAXJXLXPXIXIXUX",
"~.m.z.c.l.l.y.8.7.7.t.8.7.8.y.8.t.y.l.y.r.Q.OX+XXXXXXX^.c.t.t.7.8.l.z.m.m.N.n.~._.@XOX$XuXdXfXvX",
"N.c.y.7.7.8.7.t.w.w.7.t.7.y.t.t.t.7.7.w.3.e.l.x.j.z.N.n.l.l.7.w.t.y.8.7.t.t.8.d.z.n.n.m.m.n.b.Q.",
"M.d.8.7.w.t.7.3.3.3.3.3.7.3.3.3.8.t.3.3.3.3.2.7.7.7.2.2.3.4.3.2.2.3.3.9.2.2.3.7.8.8.d.l.y.l.d.c.",
"N.c.8.7.y.y.8.7.w.3.3.3.3.3.3.2.2.2.2.2.2.2.3.t.8.7.w.q.3.t.t.7.3.2.2.2.2.2.2.3.w.w.t.t.t.t.8.x.",
"m.n.x.y.y.y.l.8.7.7.3.2.2.3.3.3.w.7.y.t.3.2.2.3.2.2.2.2.2.2.2.3.3.2.2.3.3.3.t.w.7.7.7.7.t.t.7.d.",
"_.m.k.x.l.d.x.l.y.7.3.2.2.2.2.3.3.3.7.7.3.3.w.t.t.w.w.3.3.2.2.2.3.3.2.2.3.3.t.t.y.y.y.y.7.8.y.c.",
"MXpX[.!.m.z.n.c.z.y.8.w.2.2.w.w.3.2.3.3.1.3.w.7.3.0.w.q.3.2.2.2.2.3.2.2.2.2.3.3.3.3.7.8.y.d.c.l.",
"IXLXDXvX$X].^.~.n.l.8.7.3.t.7.8.7.7.0.w.8.n.M.l.f.c.8.3.3.7.7.7.3.2.2.3.2.3.4.3.3.7.3.3.w.e.j.M.",
"HXFXcX#X`.~.n.c.x.y.7.w.3.3.w.7.7.7.3.w.8.N.N.r.8.l.7.3.2.w.y.c.y.7.3.3.w.w.w.3.t.y.l.c.~._.OX#X",
"yX$X@X.X^.m.c.y.8.7.7.7.w.t.8.y.7.2.2.3.3.e.z.c.x.8.3.3.3.2.3.3.3.3.2.2.2.2.7.7.7.7.8.z.~.oXyXmX",
"~.n.n.c.z.l.d.8.y.y.8.7.y.y.x.c.x.y.t.8.c.n.k.n.N.n.t.3.3.7.t.3.q.3.q.q.w.7.y.c.c.y.l.l.n.~.#XSX",
"n.l.x.r.8.7.7.3.3.7.7.w.w.t.7.8.e.e.7.7.c.M.j.l.c.x.3.3.2.w.3.t.3.2.2.7.8.d.x.j.j.8.x.l.n.n.`.MX",
"c.j.z.y.y.8.7.t.7.7.t.w.t.t.t.7.e.w.3.3.8.Y.>.$.>.A.v.8.5.6.r.y.8.7.7.8.d.z.c.M.M.c.y.r.d.z.W.iX",
"x.8.7.3.3.7.t.w.t.w.3.3.2.2.3.w.3.3.3.w.A.&X# g . M R -X;X+.3XL.L.K.T.R.v.n.n.m.N.c.y.y.l.c.N.oX",
"l.7.3.7.7.t.3.2.2.2.2.2.3.2.3.3.2.3.3.-.I > y e e 7 9 1 2 2 f . $ @ A G U ] #.F.E.E.R.B.z.n.m.^.",
"c.l.7.y.l.8.t.7.w.2.2.2.3.3.w.w.7.y.a.T , e e e e e e t e t t u u y y y 9 3 O + A E K F.M.n._.}.",
"m.c.l.y.d.y.8.8.7.w.3.2.2.3.3.3.3.4.} o y e e t e t e e e e t e e e e t t t e e y q . @.v.T.7X5X",
"eX[.W.m.n.c.c.x.l.8.w.3.w.t.w.2.2.5.) , e e e t t e e e e t u t e e e e t e e e e u 3 1X:XG o b ",
"PXFXjX}._.^.~.N.c.y.7.7.7.7.w.3.2.7.| v : > 1 q t e e e e e e e e e e e e e e e t e = 1 1 5 0 R ",
"UXIXAXrXoX`.^.^.M.l.y.7.7.3.3.3.3.2.6.;.@.$.[ J 0 e e e e e e e e e e e e e e e r e u e r t 2 2X",
"UXPXnX}.^.~.N.M.d.8.7.t.t.w.w.2.2.2.2.3.4.7.6.{ 2 u e e e e e e e e e e e e e e e e e e 5 < B Z.",
"UXPXnXoXm.c.c.y.t.t.w.2.3.2.3.2.2.2.9.w.y.v.H.,X4 t e e e t e e e e e e e e e e e t 6 f G ;XS.r.",
"KXSXrX~.z.d.8.7.7.7.7.t.w.w.2.2.2.w.p.A.#.*XF j 7 e e t t e e e e r t e e e e e y 2 W 7XT.b.c.z.",
"uX$X`.z.d.8.t.y.l.x.y.y.y.t.w.8.u.Z.' C $ , e t t e e e e e e e e t e e e e t 7 h >XK.M.m.Q.n.n.",
"wX$X`.M.l.l.t.t.y.y.7.8.d.i.F.O.Y n > 9 u t t e e e e = u y 0 a q u e e e e 7 * 6X|.#XOX$XeX$X#X",
"cXyXoXM.j.c.y.d.f.i.Y.:.' K + f p r t e e t t e e e w p z * ^ / s e e t e q % &._..XtXpXjXjXfXyX",
"pX$X{.).E.K.J.>.[ U E & ; 6 t t e u t e e e e q < o F ~ <X! D 1 e u r r 0 n $.f.7.r.n.^.^.Q.Q.!.",
"`.OXgX0X! D x z a 5 u w r r t e e e e e 7 < $ L :X3X3X:XF 2 r e u t r 2 L :.6.w.3.3.7.8.8.8.8.l.",
"rXhX( c 7 e t t t t e e e e e e r 0 : n I ' :.P.&.U + , 5 u e e t 7 . *X,.4.2.2.w.t.3.3.t.0.e.7.",
"AXNXx e e u e e e e e t e e 1 o Z T ..-.u.3.,.T g 8 u e t e e w < v ..6.9.2.2.2.3.w.7.l.x.x.y.7.",
"xX9Xz e e e e e e e 7 < . G )  .a.u.7.1.2.4.X.: r t e e r r 0 + &XZ.5.2.3.3.2.2.2.3.4.7.y.d.y.y.",
"9Xz r u e e e e 9 ; n -X:.i.4.3.q.2.3.2.2.4.X.f t t t y , @ T :.g.3.3.2.2.3.3.2.2.2.3.w.7.t.8.r.",
"8Xp e u = 8 g * P ] S.l.w.0.0.w.2.3.7.w.9.q.Y.I - w d M _ C.p.q.2.2.2.2.2.9.2.3.3.2.3.w.w.8.l.c.",
"qXk p X A *X&.D.a.f.8.3.w.7.7.8.7.7.7.8.w.w.8.] ; , R S.6.3.3.3.2.9.2.2.2.3.t.l.z.l.k.N.^.!._.].",
"BXQ Q *.R.f.7.3.3.t.3.3.2.3.2.2.2.2.2.2.3.3.7.o.  V D.7.3.8.7.7.w.7.8.d.8.y.x.Q._.oX+XtXsXyXyXyX",
"FXVXxX).n.f.r.l.l.7.3.3.2.2.2.2.2.2.2.2.7.7.5.;.` -.j.3.w.t.l.r.c.N.N.M.c.x.l.v.m.m.Q.Q.b.m.!._.",
"GXKXKXmXfX$X`._.^.n.l.8.7.7.w.w.2.3.t.8.n.n.c.~.k.0.0.3.2.3.2.2.w.4.7.t.w.e.y.x.c.y.t.t.t.d.^.$X",
"kXhXCXZXKXLXJXmXaXrXoX_..X^.n.7.3.3.3.w.c.c.z.m.y.t.t.w.3.2.2.2.2.2.2.2.2.3.7.8.y.r.r.t.t.y._.tX",
"DXJXHXKXLXPXIXPXKXSXaXOX_.^.M.y.3.3.3.3.8.y.x.l.c.f.r.8.t.2.9.3.3.2.2.2.2.3.t.8.y.l.8.3.7.7.n.`.",
"PXFXmXlXnXcXcXcXtX`./.z.8.7.w.t.7.7.8.y.y.8.8.r.c.c.8.t.2.2.2.2.3.3.3.3.3.w.7.y.d.x.l.7.y.l.j.^.",
"mX$X`.^.m.b.b.m.z.l.t.2.2.2.3.3.2.2.2.3.2.2.2.2.3.4.3.2.2.3.w.7.d.c.c.c.x.d.y.y.y.l.x.l.M.n.W.#X",
"}.W.l.l.l.y.l.7.7.7.3.2.2.2.2.3.2.3.3.w.2.2.2.3.w.3.t.w.3.w.7.8.8.d.7.r.8.l.c.y.8.y.y.c.N._.oXwX",
"$X^.l.7.8.y.d.8.y.y.7.7.e.7.7.0.7.y.y.y.8.7.3.3.3.3.3.2.2.2.2.q.2.3.t.d.n.n.z.d.d.f.j.v.).$XaXmX",
"iX`.l.y.7.y.c.z.l.y.y.y.d.l.d.y.t.3.t.t.w.3.2.2.3.3.w.2.3.3.3.w.t.x.N.(.XX.X_.`.OXtXtXdXMXHXIXUX",
"tX Xr.7.t.y.x.l.w.2.2.2.2.2.2.2.2.2.2.3.3.2.2.2.3.3.7.3.w.7.y.l.M.oXyXvXvXfXdXtXpXvXnXJXPXUXUXUX",
"'.~.c.d.8.7.8.y.y.7.3.2.3.2.2.2.2.3.8.8.y.7.t.8.8.7.t.t.t.8.d.j.v.^.[.rXpXwX#X[.$XjXlXLXIXIXUXUX"
};
