/* XPM */
static char * sandwatch_xpm[] = {
"33 48 505 2",
"  	c None",
". 	c #FFFFFF",
"+ 	c #FBFBFB",
"@ 	c #F7F7F7",
"# 	c #B0B0B0",
"$ 	c #7F7F7F",
"% 	c #767676",
"& 	c #707070",
"* 	c #6C6C6C",
"= 	c #6D6D6D",
"- 	c #6A6A6A",
"; 	c #696969",
"> 	c #717171",
", 	c #7B7B7B",
"' 	c #7C7C7C",
") 	c #757575",
"! 	c #727272",
"~ 	c #6E6E6E",
"{ 	c #6F6F6F",
"] 	c #828282",
"^ 	c #969696",
"/ 	c #AFAFAF",
"( 	c #D0D0D0",
"_ 	c #FAFAFA",
": 	c #FCFCFC",
"< 	c #CDCDCD",
"[ 	c #929292",
"} 	c #878787",
"| 	c #C7C7C7",
"1 	c #F2F2F2",
"2 	c #F8F8F8",
"3 	c #F9F9F9",
"4 	c #DCDCDC",
"5 	c #AAAAAA",
"6 	c #A1A1A1",
"7 	c #B9B9B9",
"8 	c #CBCBCB",
"9 	c #CFCFCF",
"0 	c #C5C5C5",
"a 	c #C3C3C3",
"b 	c #D3D3D3",
"c 	c #D6D6D6",
"d 	c #C8C8C8",
"e 	c #DEDEDE",
"f 	c #F1F1F1",
"g 	c #FEFEFE",
"h 	c #FDFDFD",
"i 	c #F5F5F5",
"j 	c #E1E1E1",
"k 	c #F0F0F0",
"l 	c #B7B7B7",
"m 	c #949494",
"n 	c #D9D9D9",
"o 	c #DADADA",
"p 	c #DBDBDB",
"q 	c #F4F4F4",
"r 	c #F6F6F6",
"s 	c #C0C0C0",
"t 	c #9C9C9C",
"u 	c #9F9F9F",
"v 	c #9E9E9E",
"w 	c #9A9A9A",
"x 	c #7D7D7D",
"y 	c #D2D2D2",
"z 	c #D5D5D5",
"A 	c #D8D8D8",
"B 	c #D7D7D7",
"C 	c #D4D4D4",
"D 	c #DDDDDD",
"E 	c #F3F3F3",
"F 	c #EAEAEA",
"G 	c #E9E9E9",
"H 	c #EEEEEE",
"I 	c #EBEBEB",
"J 	c #E4E4E4",
"K 	c #EFEFEF",
"L 	c #E7E7E7",
"M 	c #B4B4B4",
"N 	c #858585",
"O 	c #737373",
"P 	c #838383",
"Q 	c #B3B3B3",
"R 	c #B6B6B6",
"S 	c #CCCCCC",
"T 	c #E0E0E0",
"U 	c #BBBBBB",
"V 	c #A6A6A6",
"W 	c #A4A4A4",
"X 	c #A0A0A0",
"Y 	c #9D9D9D",
"Z 	c #ABABAB",
"` 	c #B5B5B5",
" .	c #BDBDBD",
"..	c #E3E3E3",
"+.	c #D1D1D1",
"@.	c #E2E2E2",
"#.	c #E8E8E8",
"$.	c #CACACA",
"%.	c #F7F6F2",
"&.	c #FEF8E6",
"*.	c #FFFBE6",
"=.	c #FFFEF6",
"-.	c #FFFFFE",
";.	c #FFFEFE",
">.	c #FFFEFC",
",.	c #FFFEF9",
"'.	c #FFFEFA",
").	c #FFFFFD",
"!.	c #DCDAD0",
"~.	c #F5E8B3",
"{.	c #FEECA0",
"].	c #FFF4CA",
"^.	c #FFFBEC",
"/.	c #FFFDF6",
"(.	c #FFF8D8",
"_.	c #FFEDA5",
":.	c #FFEC9A",
"<.	c #FFEFAD",
"[.	c #FFF2BF",
"}.	c #FFF3C7",
"|.	c #FFF8DB",
"1.	c #FFFCF0",
"2.	c #F8F7F3",
"3.	c #E6E6E6",
"4.	c #D0CFCC",
"5.	c #EFE6C2",
"6.	c #FEEB9C",
"7.	c #FFEA95",
"8.	c #FFE98F",
"9.	c #FFE169",
"0.	c #FFDA46",
"a.	c #FFDB46",
"b.	c #FFE26E",
"c.	c #FFDE59",
"d.	c #FFDF5D",
"e.	c #FFE16C",
"f.	c #FFE57B",
"g.	c #F9E48F",
"h.	c #E5DDBB",
"i.	c #EDEDED",
"j.	c #CDCBC3",
"k.	c #EDE8D2",
"l.	c #FFF6CD",
"m.	c #FFEB9D",
"n.	c #FFDE5B",
"o.	c #FFD428",
"p.	c #FFD424",
"q.	c #FFD839",
"r.	c #FFD83B",
"s.	c #FFD93B",
"t.	c #FFE069",
"u.	c #FFE889",
"v.	c #FCDB58",
"w.	c #EFCF4F",
"x.	c #E5D181",
"y.	c #EEE7C7",
"z.	c #FEFEF8",
"A.	c #ACACAC",
"B.	c #E6E0C7",
"C.	c #FFE98D",
"D.	c #FFE373",
"E.	c #FFDF5E",
"F.	c #FFDB4B",
"G.	c #FFDD54",
"H.	c #FFDF60",
"I.	c #FFE26D",
"J.	c #FFEA98",
"K.	c #FFF5CC",
"L.	c #EFE4B6",
"M.	c #D9C98A",
"N.	c #F1E1A0",
"O.	c #FDF4D3",
"P.	c #E5E5E5",
"Q.	c #D7D2C0",
"R.	c #FFF0B1",
"S.	c #FFEEAB",
"T.	c #FFE681",
"U.	c #FFE990",
"V.	c #FFEEAC",
"W.	c #FFEFB2",
"X.	c #FFF5CB",
"Y.	c #EAE8E0",
"Z.	c #CFCECB",
"`.	c #E2DECF",
" +	c #FCF5DC",
".+	c #FFFCEF",
"++	c #FFFEFD",
"@+	c #CECDC8",
"#+	c #FCF8E6",
"$+	c #FFF5D1",
"%+	c #FFEDA3",
"&+	c #FFE479",
"*+	c #FFEA97",
"=+	c #FFF0B0",
"-+	c #FFEFA8",
";+	c #E8DFBA",
">+	c #AEADAD",
",+	c #EAE9E6",
"'+	c #DEDCD7",
")+	c #FFF4CC",
"!+	c #FFEB9C",
"~+	c #FFF0B6",
"{+	c #FFF2B8",
"]+	c #FFEFAE",
"^+	c #DAD3B5",
"/+	c #C9C9C9",
"(+	c #8B8B8B",
"_+	c #CCCBC8",
":+	c #FFF9E6",
"<+	c #FFF7DB",
"[+	c #FFF3C3",
"}+	c #FFEC9C",
"|+	c #FAEAAB",
"1+	c #D3CFC0",
"2+	c #FFFDF4",
"3+	c #FFF5CE",
"4+	c #FFEB9B",
"5+	c #E5DBB2",
"6+	c #BEBCB8",
"7+	c #FFEFB0",
"8+	c #FFE992",
"9+	c #FFF3C4",
"0+	c #D7D5CC",
"a+	c #A2A2A2",
"b+	c #FFEBA0",
"c+	c #FFF6D9",
"d+	c #ADADAD",
"e+	c #CECECE",
"f+	c #FFFCEE",
"g+	c #FFF0B3",
"h+	c #FFEDA2",
"i+	c #FFF6D7",
"j+	c #E2E2E1",
"k+	c #FFF0B7",
"l+	c #FFEEA7",
"m+	c #FFF8DA",
"n+	c #F5F4F3",
"o+	c #C4C4C4",
"p+	c #A9A9A9",
"q+	c #DFDFDF",
"r+	c #9B9B9B",
"s+	c #FFFCF1",
"t+	c #FFECA5",
"u+	c #BCBCBC",
"v+	c #A3A3A3",
"w+	c #FFFDF2",
"x+	c #FFF7DC",
"y+	c #919191",
"z+	c #C2C2C2",
"A+	c #FFFBEA",
"B+	c #FFF2BB",
"C+	c #FFF9E1",
"D+	c #939393",
"E+	c #FFFBE7",
"F+	c #FFFAE4",
"G+	c #959595",
"H+	c #909090",
"I+	c #8C8C8C",
"J+	c #FFF1B9",
"K+	c #FFFBE5",
"L+	c #979797",
"M+	c #FFF1B8",
"N+	c #FFF9E0",
"O+	c #FFFAEA",
"P+	c #FFEEAD",
"Q+	c #FFF9DF",
"R+	c #A8A8A8",
"S+	c #AEAEAE",
"T+	c #FFFBE9",
"U+	c #FFF0B4",
"V+	c #FFF9E3",
"W+	c #FFFCF2",
"X+	c #FFF9E2",
"Y+	c #FFF8E0",
"Z+	c #FFF0B5",
"`+	c #7E7E7E",
" @	c #FFFEF8",
".@	c #FFF4C7",
"+@	c #FFF1BB",
"@@	c #FFF2C0",
"#@	c #FFE789",
"$@	c #FFE57F",
"%@	c #FFF9DE",
"&@	c #FFFAE6",
"*@	c #FFFDF5",
"=@	c #888888",
"-@	c #B8B8B8",
";@	c #FFFEF5",
">@	c #FFF4C9",
",@	c #FFF4C5",
"'@	c #FFEB9A",
")@	c #FFE88E",
"!@	c #FFEDA9",
"~@	c #FEE996",
"{@	c #FEDD57",
"]@	c #FFEA96",
"^@	c #FFE788",
"/@	c #FFF5CF",
"(@	c #FFF4CD",
"_@	c #FFF7D4",
":@	c #FFFCF4",
"<@	c #FDFCF9",
"[@	c #E8E8E6",
"}@	c #C6C6C4",
"|@	c #F9F7F0",
"1@	c #FFFAE3",
"2@	c #FFF6CE",
"3@	c #FEE06C",
"4@	c #FFDE5A",
"5@	c #FFE16D",
"6@	c #FFE374",
"7@	c #FCE27B",
"8@	c #F6D44C",
"9@	c #F7CF2E",
"0@	c #FCD94C",
"a@	c #FFE890",
"b@	c #FFE272",
"c@	c #FFDF5B",
"d@	c #FEE37D",
"e@	c #FBE89E",
"f@	c #FCE384",
"g@	c #FFEA92",
"h@	c #FFF6D4",
"i@	c #FFF8DF",
"j@	c #FDFBEF",
"k@	c #989898",
"l@	c #D9D5C8",
"m@	c #FBF0C3",
"n@	c #FFF0B9",
"o@	c #FFE685",
"p@	c #F9D54A",
"q@	c #FED842",
"r@	c #FFDC52",
"s@	c #FFD942",
"t@	c #FFD739",
"u@	c #F9D853",
"v@	c #E9CA51",
"w@	c #E9CA4D",
"x@	c #F9DD6D",
"y@	c #FFE991",
"z@	c #FFE786",
"A@	c #FFEB99",
"B@	c #F7E7A8",
"C@	c #E8D9A1",
"D@	c #EDD883",
"E@	c #FEE47F",
"F@	c #FFEA99",
"G@	c #FFEB9E",
"H@	c #FBF9F3",
"I@	c #C6C6C6",
"J@	c #F5EDCF",
"K@	c #FDE584",
"L@	c #FEE371",
"M@	c #FFE787",
"N@	c #F7D13A",
"O@	c #FCD746",
"P@	c #FEDD5D",
"Q@	c #FFDC50",
"R@	c #FFD940",
"S@	c #FDD94B",
"T@	c #F1D564",
"U@	c #F5DE80",
"V@	c #FFE88F",
"W@	c #FFE375",
"X@	c #FFE372",
"Y@	c #F3E297",
"Z@	c #DBD2AC",
"`@	c #E0D7AE",
" #	c #FDE689",
".#	c #FFDF5C",
"+#	c #F9F2D6",
"@#	c #E6E4DD",
"##	c #F5E089",
"$#	c #FEDC52",
"%#	c #FFEFAC",
"&#	c #FFE57D",
"*#	c #FFDE58",
"=#	c #FFE477",
"-#	c #FFDE5C",
";#	c #FFE47A",
">#	c #FFE57E",
",#	c #FFEEA2",
"'#	c #FFF3C0",
")#	c #FFE168",
"!#	c #FFE167",
"~#	c #FFDE57",
"{#	c #FFDE5D",
"]#	c #FFF0BA",
"^#	c #FFEDA7",
"/#	c #FFDB48",
"(#	c #FFD93F",
"_#	c #FEE270",
":#	c #F2EAC3",
"<#	c #BEBEBE",
"[#	c #EAE8E4",
"}#	c #F7E187",
"|#	c #FEDB4F",
"1#	c #FFDB4A",
"2#	c #FFDC4F",
"3#	c #FFDD55",
"4#	c #FFDD53",
"5#	c #FFE26F",
"6#	c #FFE475",
"7#	c #FFE78A",
"8#	c #FFE580",
"9#	c #FFE47B",
"0#	c #FFD73D",
"a#	c #FFD73E",
"b#	c #FEEDA6",
"c#	c #F2EBCB",
"d#	c #C8C5B6",
"e#	c #B6B3AA",
"f#	c #D5D5D3",
"g#	c #FFE371",
"h#	c #FFD944",
"i#	c #FFDB4E",
"j#	c #FFE995",
"k#	c #FFEA9A",
"l#	c #FFE26A",
"m#	c #FFD840",
"n#	c #FFEDA8",
"o#	c #FFF5CA",
"p#	c #FFEEA8",
"q#	c #FFE170",
"r#	c #FFE888",
"s#	c #FFD62F",
"t#	c #FEF5CE",
"u#	c #F8E282",
"v#	c #E9DA9A",
"w#	c #F3EFE0",
"x#	c #F1E8C4",
"y#	c #F6E295",
"z#	c #F5E7AE",
"A#	c #F3E6B3",
"B#	c #F2ECDA",
"C#	c #F2E7B5",
"D#	c #FBE177",
"E#	c #FFEFB3",
"F#	c #FFFAE0",
"G#	c #FFF6D6",
"H#	c #FFE783",
"I#	c #FFECA0",
"J#	c #FFE682",
"K#	c #FFE582",
"L#	c #FFEFB1",
"M#	c #FFDB4F",
"N#	c #FFEA94",
"O#	c #FED83F",
"P#	c #FCDF66",
"Q#	c #F9F0C8",
"R#	c #BFBFBF",
"S#	c #B2AE9E",
"T#	c #BAAF88",
"U#	c #AFA992",
"V#	c #A1A09C",
"W#	c #94938E",
"X#	c #D6D0B8",
"Y#	c #F2EEDC",
"Z#	c #F4EAC0",
"`#	c #F7E497",
" $	c #FBE791",
".$	c #FEE682",
"+$	c #FFF9D9",
"@$	c #FFF3C5",
"#$	c #FFE98C",
"$$	c #FFE785",
"%$	c #FFF1BA",
"&$	c #FEDF62",
"*$	c #F7D859",
"=$	c #EED87E",
"-$	c #F0EAD4",
";$	c #8A8A8A",
">$	c #868686",
",$	c #90908F",
"'$	c #9F9A83",
")$	c #BEAD61",
"!$	c #D1B959",
"~$	c #E8CD67",
"{$	c #F6E59D",
"]$	c #F5F2DE",
"^$	c #F8F2DB",
"/$	c #FDEA9E",
"($	c #FFF8D7",
"_$	c #FCE37F",
":$	c #FBEEBA",
"<$	c #FAF2CD",
"[$	c #F2E3A6",
"}$	c #DCD0A1",
"|$	c #DED8C0",
"1$	c #F9F8F2",
"2$	c #D7D4C8",
"3$	c #ABA792",
"4$	c #979079",
"5$	c #94907F",
"6$	c #888783",
"7$	c #A1A09B",
"8$	c #D9D5C4",
"9$	c #F7F1D7",
"0$	c #F8F3E1",
"a$	c #F9F8F4",
"b$	c #F1ECD8",
"c$	c #DAD2AF",
"d$	c #D9D7CF",
"e$	c #D2D2CD",
"f$	c #F4F4F2",
". . . . . . . . . . . . . . . . . . . . . . . . . . . . . . . . . ",
". + @ # $ % & * = - ; > , ' ) ! & ~ { % ] ^ / ( @ + _ : . . . . . ",
". < [ } | 1 2 2 2 2 2 2 3 3 2 2 2 2 2 4 5 6 7 8 9 0 a b _ : . . . ",
". c d e f g . . . . . . . . . . . . . h _ 3 + : : + + i j k . . . ",
". j l m l n 4 o p i . . . . . . . . . . . . . . . : q 2 r r . . . ",
". : @ s t u v w x l y z A B z C b D E @ F G H H I J C K @ : . . . ",
". . . 1 p L k f M u v N x , ) O & P Q a / R | S C c j : 3 . . . . ",
". . . g j T i g r f H U V W 6 X Y u Z `  .8 A ..r 3 2 k k . . . . ",
". . . . I ( F : . . g i f f k k k k f 1 q @ 3 + g . r 4 1 . . . . ",
". . . . : +.y f h . . . . . . . . . . . . . . . . 2 @.G h . . . . ",
". . . . . #.$.F : . . . . . . . . . . . . . . . i z S + . . . . . ",
". . . . . + #.J %.&.*.=.-.;.>.,.'.).. . . . . . H | J . . . . . . ",
". . . . . . + e !.~.{.].^./.(._.:.<.[.}.].|.1.2...3._ . . . . . . ",
". . . . . . . 1 4.5.6.7.8.9.0.a.9.b.c.d.e.f.g.h.p _ . . . . . . . ",
". . . . . . . h i.j.k.l.m.n.o.p.q.r.s.t.u.v.w.x.y.z.. . . . . . . ",
". . . . . . . . h ` A.B.C.D.E.F.G.H.I.J.K.L.M.N.O.,.. . . . . . . ",
". . . . . . . . . P.v Q.R.S.m.T.U.V.W.X.Y.Z.`. +.+++. . . . . . . ",
". . . . . . . . . . X @+#+$+%+&+*+=+-+;+Q >+,+,.).. . . . . . . . ",
". . . . . . . . . . X m '+)+_.!+~+{+]+^+Z /+@ . . . . . . . . . . ",
". . . . . . . . . . B (+_+:+<+|.[+}+|+1+l ... . . . . . . . . . . ",
". . . . . . . . . . _ Y 8 ++2+3+4+*+5+6+8 q . . . . . . . . . . . ",
". . . . . . . . . . _ X < . .+7+8+9+0+Q o . . . . . . . . . . . . ",
". . . . . . . . . . _ a+9 . .+R.b+c+A d+8 2 . . . . . . . . . . . ",
". . . . . . . . . . _ 6 e+-.f+g+h+i+j+d+/ G . . . . . . . . . . . ",
". . . . . . . . . . _ 6 < -..+k+l+m+n+o+p+q+. . . . . . . . . . . ",
". . . . . . . . . . j r+( . s+k+t+<+-.@.u+b 2 . . . . . . . . . . ",
". . . . . . . . . . R v+T . w+[.V.x+. r +.` z _ . . . . . . . . . ",
". . . . . . . . . 4 y+z+@ -.A+B+W.C+. . 3.# a+b + . . . . . . . . ",
". . . . . . . . p D+^ T . ++E+g+R.F+. . 3 o a+G+( : . . . . . . . ",
". . . . . . . p H+I++.3 . ;.1.[+J+K+. . . _ B L+(+y . . . . . . . ",
". . . . . . . u I+C 3 . . -.^.M+]+N+. . . . + n [ D+. . . . . . . ",
". . . . . . 4 A.n _ . . . -.O+k+P+Q+. . . . . : q+R+C . . . . . . ",
". . . . g q+S+4 _ . . . . -.T+J+U+V+. . . . . . g ..W B g . . . . ",
". . . h ..S+p _ . . . W+X+A+Y+Z+W.m+^.s+).-.. . . . q+`+n : . . . ",
". . : J l 4 _ -. @/.2+.@m.+@@@#@$@l+W.@@%@&@*@ @,.-.G [ =@o . . . ",
". + j -@p + ).;@>@@@,@'@)@!@~@{@0.&+]@#@^@h+/@(@_@:@<@[@t Y 3 . . ",
". P.v+}@|@W+1@2@3@4@f.5@6@7@8@9@0@a@t+b@c@d@e@f@g@h@i@j@F M B . . ",
". z+k@l@m@n@!+o@p@q@r@s@t@u@v@w@x@y@y@z@A@B@C@D@E@F@G@l.H@o Y 2 . ",
"h I@| J@K@L@M@H.N@O@P@Q@R@S@T@U@V@W@E.X@u.Y@Z@`@ #.#4@)@+#C G+n . ",
"q $.c @###$#%#&#F.*#=#-#E.;#>#,#'#]@)#!#~#{#]#1@^#/#(#_#:#<#m 7 . ",
"1 j k [#}#|#b.1#2#>#>#3#4#6@5#6#=+J+7#8#5#e.W.t+9#0#a#b#c#d#e#f#. ",
": 3 @ _ N+[.U.-#9#g#h#i#j#k#l#m#d.n#o#p#5#q#j#r#q#s#0.)+t#u#v#w#. ",
". I I@n x#y#z#A#B#C#D#E#F#G#[.^@H#I#J#l#&#K#y@g+L#r@M#W.N#O#P#Q#. ",
". q @.R#S#T#U#V#t W#X#Y#Z#`# $.$!++$@$#$$$'@%$[+U.E.=#!+&$*$=$-$. ",
". . . i.q+4 p n A ;$>$,$'$)$!$~${$]$^$/$D.*+m+($'@_$:$<$[$}$|$1$. ",
". . . . . . . . . G j T j+2$3$4$5$6$7$8$9$0$2.a$b$c$d$Z.e$f$@ . . ",
". . . . . . . . . . . . . : 1 I ( D+{ % `+>$m W R e+2 r @ . . . . ",
". . . . . . . . . . . . . . . . : @ E E 1 E i @ 3 + . . . . . . . "};
