/* XPM */
static char * Transition_xpm[] = {
"48 48 192 2",
"  	c None",
". 	c #FFFFFF",
"+ 	c #FFFEFE",
"@ 	c #FFFBFB",
"# 	c #FFC9C9",
"$ 	c #FF8A8A",
"% 	c #FF7070",
"& 	c #FF5353",
"* 	c #FF6363",
"= 	c #FF5656",
"- 	c #FF6262",
"; 	c #FFA0A0",
"> 	c #FFD3D3",
", 	c #FFEBEB",
"' 	c #FFFCFC",
") 	c #FFFDFD",
"! 	c #FFE5E5",
"~ 	c #FF8B8B",
"{ 	c #FF4E4E",
"] 	c #FF3A3A",
"^ 	c #FF2F2F",
"/ 	c #FF2323",
"( 	c #FF3535",
"_ 	c #FF2929",
": 	c #FF2B2B",
"< 	c #FF3E3E",
"[ 	c #FF4A4A",
"} 	c #FF5858",
"| 	c #FF4848",
"1 	c #FF6969",
"2 	c #FF9999",
"3 	c #FFCFCF",
"4 	c #FFF8F8",
"5 	c #FFF3F3",
"6 	c #FF8F8F",
"7 	c #FF1717",
"8 	c #FF0D0D",
"9 	c #FF1212",
"0 	c #FF0F0F",
"a 	c #FF1010",
"b 	c #FF1D1D",
"c 	c #FF2020",
"d 	c #FF1818",
"e 	c #FF3636",
"f 	c #FF1B1B",
"g 	c #FF2727",
"h 	c #FF1A1A",
"i 	c #FF2828",
"j 	c #FF6767",
"k 	c #FFB2B2",
"l 	c #FFF1F1",
"m 	c #FFF7F7",
"n 	c #FFC0C0",
"o 	c #FF4C4C",
"p 	c #FF1919",
"q 	c #FF0B0B",
"r 	c #FF0808",
"s 	c #FF0505",
"t 	c #FF0606",
"u 	c #FF0404",
"v 	c #FF0303",
"w 	c #FF1313",
"x 	c #FF2121",
"y 	c #FF5454",
"z 	c #FF3B3B",
"A 	c #FF1414",
"B 	c #FF6868",
"C 	c #FFCBCB",
"D 	c #FFF0F0",
"E 	c #FF5252",
"F 	c #FF2D2D",
"G 	c #FF1111",
"H 	c #FF0E0E",
"I 	c #FF0909",
"J 	c #FF0202",
"K 	c #FF0101",
"L 	c #FF2222",
"M 	c #FF5E5E",
"N 	c #FF5757",
"O 	c #FF9B9B",
"P 	c #FFE4E4",
"Q 	c #FFEFEF",
"R 	c #FF5050",
"S 	c #FF4949",
"T 	c #FF2E2E",
"U 	c #FF2A2A",
"V 	c #FF3131",
"W 	c #FF1C1C",
"X 	c #FF4343",
"Y 	c #FFDDDD",
"Z 	c #FF9E9E",
"` 	c #FF7777",
" .	c #FF5959",
"..	c #FF3737",
"+.	c #FF0C0C",
"@.	c #FF0707",
"#.	c #FF0A0A",
"$.	c #FFCACA",
"%.	c #FFDBDB",
"&.	c #FFA3A3",
"*.	c #FF8D8D",
"=.	c #FF3333",
"-.	c #FF2626",
";.	c #FF0000",
">.	c #FF1F1F",
",.	c #FFDCDC",
"'.	c #FFF5F5",
").	c #FFE6E6",
"!.	c #FFC5C5",
"~.	c #FF5D5D",
"{.	c #FF3C3C",
"].	c #FFFAFA",
"^.	c #FFEDED",
"/.	c #FF8080",
"(.	c #FF4646",
"_.	c #FFCCCC",
":.	c #FFE2E2",
"<.	c #FF6464",
"[.	c #FF6D6D",
"}.	c #FF3F3F",
"|.	c #FF1515",
"1.	c #FF2525",
"2.	c #FFC4C4",
"3.	c #FF7575",
"4.	c #FF7A7A",
"5.	c #FFB5B5",
"6.	c #FF5C5C",
"7.	c #FFF6F6",
"8.	c #FF9292",
"9.	c #FF4040",
"0.	c #FFECEC",
"a.	c #FF8181",
"b.	c #FF8282",
"c.	c #FFBEBE",
"d.	c #FF9595",
"e.	c #FF8585",
"f.	c #FF4B4B",
"g.	c #FF4545",
"h.	c #FFB7B7",
"i.	c #FFD5D5",
"j.	c #FFD7D7",
"k.	c #FF9191",
"l.	c #FFEAEA",
"m.	c #FF2C2C",
"n.	c #FF3030",
"o.	c #FF5B5B",
"p.	c #FFE9E9",
"q.	c #FFF9F9",
"r.	c #FFD9D9",
"s.	c #FF6A6A",
"t.	c #FF3434",
"u.	c #FF9D9D",
"v.	c #FF8484",
"w.	c #FF4242",
"x.	c #FF1E1E",
"y.	c #FF1616",
"z.	c #FF5555",
"A.	c #FFB9B9",
"B.	c #FF9090",
"C.	c #FFE7E7",
"D.	c #FFBDBD",
"E.	c #FF8989",
"F.	c #FFD1D1",
"G.	c #FF8E8E",
"H.	c #FF6E6E",
"I.	c #FF3838",
"J.	c #FF7676",
"K.	c #FF4444",
"L.	c #FF6060",
"M.	c #FF3939",
"N.	c #FFC6C6",
"O.	c #FF8888",
"P.	c #FFA2A2",
"Q.	c #FF7171",
"R.	c #FFE1E1",
"S.	c #FF2424",
"T.	c #FF3D3D",
"U.	c #FFC8C8",
"V.	c #FF8787",
"W.	c #FFA9A9",
"X.	c #FF6F6F",
"Y.	c #FFAEAE",
"Z.	c #FF9C9C",
"`.	c #FFD4D4",
" +	c #FF8C8C",
".+	c #FF4141",
"++	c #FFCECE",
"@+	c #FFF4F4",
"#+	c #FF6C6C",
"$+	c #FF9696",
"%+	c #FFAAAA",
"&+	c #FF7878",
". . . . . . . . . . . . . . . . . . . . . . . . . . . . . . . . . . . . . . . . . . . . . . . . ",
". . . . + . . . . . . . . . . . . . . . . . . . . . . . . . . . . . . . . . . . . . . . . . . . ",
". @ # $ % & * = - ; > , + ' ' ) . . . . . . . . . . . . . . . . . . . . . . . . . . . . . . . . ",
". ) ! ~ { ] ^ / ( _ ^ : < [ } ] | 1 2 3 4 . . . . . . . . . . . . . . . . . . . . . . . . . . . ",
". . 5 6 ^ 7 8 8 9 0 a b c d _ e f g h h i j k l ) . . . . . . . . . . . . . . . . . . . . . . . ",
". . m n o p q r s t r t u v v s w x g ] y z A _ B C @ . . . . . . . . . . . . . . . . . . . . . ",
". . + D ; E F x G G H a r I t s v J K K q L _ M & i N O P . . . . . . . . . . . . . . . . . . . ",
". . . ' Q O R S e T U V g W 7 8 I t u K u t t H X S p 8 ] Y . . . . . . . . . . . . . . . . . . ",
". . . . + @ + + m ! n Z `  ...x a H G H s +.f 0 @.q x #.a U $.. . . . . . . . . . . . . . . . . ",
". . . . . . . . . . . . . ) %.&.*.* =.W c +.#.-.i I ;.J q q >.,.. . . . . . . . . . . . . . . . ",
". . . . . . . . . . . . . . . . . '.).!.~.W 9 V G A r K K 8 #.{.+ . . . . . . . . . . . . . . . ",
". . . . . . . . . . . . . . . . . . . . ].^./.8 (.y 8 v K J #.q _.. . . . . . . . . . . . . . . ",
". . . . . . . . . . . . . . . . . . . . . . + :.<.[.}.|.J ;.u @.1.].. . . . . . . . . . . . . . ",
". . . . . . . . . . . . . . . . . . . . . . . . ].2.E 3.r K ;.J u 4.) . . . . . . . . . . . . . ",
". . . . . . . . . . . . . . . . . . . . . . . . . + 5.6.f ;.;.;.s A # . . . . . . . . . . . . . ",
". . . . . . . . . . . . . . . . . . . . . . . . . . 7.8.(.v K ;.v d 9.0.. . . . . . . . . . . . ",
". . . . . . . . . . . . . . . . . . . . . . . . . . . Y a.I ;.;.;.U f b.+ . . . . . . . . . . . ",
". . . . . . . . . . . . . . . . . . . . . . . . . . . + c.h K J ;.u = L :.. . . . . . . . . . . ",
". . . . . . . . . . . . . . . . . . . . . . . . . . . . 0.{.J v ;.K ..W d.+ . . . . . . . . . . ",
". . . . . . . . . . . . . . . . . . . . . . . . . . . . + e.K u ;.J |.f.g.4 . . . . . . . . . . ",
". . . . . . . . . . . . . . . . . . . . . . . . . . . . . h.v @.K J K N _ i.. . . . . . . . . . ",
". . . . . . . . . . . . . . . . . . . . . . . . . . . . . j.0 J ;.#.s X h k.. . . . . . . . . . ",
". . . . . . . . . . . . . . . . . . . . . . . . . . . . . l.m.#.r t J _ n.o.+ . . . . . . . . . ",
". . . . . . . . . . . . . . . . . . . . . . . . . . . . . p.o 0 t t u A ..(.p.. . . . . . . . . ",
". . . . . . . . . . . . . . . . . . . . . . . . . . . + q.r.s.8 I 8 @.8 S i # . . . . . . . . . ",
". . . . . . . . . . . . . . . . . . . . . . . . . . . !.t.U h q G @.s I  .m.u.. . . . . . . . . ",
". . . . . . . . . . . . . . . . . . . . . . . . . . + v.1.U d t q J v #.w._ B + . . . ) '.+ . . ",
". . . . . . . . . . . . . . . . . . . . . . ) q.. m m ` 9 x.a s G K J y.=.z z.) . @ A.[.o.B.C.) ",
". . . . . . . . . . . . . . . . . . . . ].D.v.E.'.F.G.= V i d q @.t s a i o o.q.P H.|.r A < H.p.",
". . . . . . . . . . . . . . . . . . . ) u.z I.| J.S K.L.M.=.7 |.u A q 7 w.~.H.N.{ G I J @.F 6 + ",
". . . . . . . . . . . . . . . . . . . + * / g h |.|.^ : q g h y.u x q p f.<.O.& a @.u s I e D . ",
". . . . . . . . . . . . . . . . . . . . P.-.< @.v A G y.v #.0 ( w i r +.Q.} t.9 J v K @.L > . . ",
". . . . . . . . . . . . . . . . . . . . R.K.L w J I q r G p S.b.|.>.L d 1 c 8 s K K I y.% + . . ",
". . . . . . . . . . . . . . . . . . . . q.- p t s K t K I w | * n.b g h { T.a K J J 8 g 5 . . . ",
". . . . . . . . . . . . . . . . . . . . . U.n.A |.J J J K @.-.7 z.x._ +.x.x.v s K q A U.. . . . ",
". . . . . . . . . . . . . . . . . . . . . ' 5.7 +.v K J K J #.d T >.r u u v s K r r V.+ . . . . ",
". . . . . . . . . . . . . . . . . . . . . . , c 9.9 s J K J v 7 A w v K K K K @.r {.@ . . . . . ",
". . . . . . . . . . . . . . . . . . . . . . . W.X.f.@.v K ;.s H w a q K K K J I -.P . . . . . . ",
". . . . . . . . . . . . . . . . . . . . . . . + Y.B 8 v K K K K h W 8 ;.K t |.i Z.. . . . . . . ",
". . . . . . . . . . . . . . . . . . . . . . . . `. +z t K K K s =..+J K ;.+.w 4.+ . . . . . . . ",
". . . . . . . . . . . . . . . . . . . . . . . . . ++.+7 J J s s / s J #.v v L.+ . . . . . . . . ",
". . . . . . . . . . . . . . . . . . . . . . . . . + $ x y.v t v #.J L t s o @+. . . . . . . . . ",
". . . . . . . . . . . . . . . . . . . . . . . . . . 4 a.S.H #.u v s 8 r o :.. . . . . . . . . . ",
". . . . . . . . . . . . . . . . . . . . . . . . . . . ].#+.+#.J K s d S.$++ . . . . . . . . . . ",
". . . . . . . . . . . . . . . . . . . . . . . . . . . . '.%+>.t s G i &+].. . . . . . . . . . . ",
". . . . . . . . . . . . . . . . . . . . . . . . . . . . . 0.- F #.9 | 7.. . . . . . . . . . . . ",
". . . . . . . . . . . . . . . . . . . . . . . . . . . . . @ ).N 3.J.U.) . . . . . . . . . . . . ",
". . . . . . . . . . . . . . . . . . . . . . . . . . . . . . @ ++P.0.C.. . . . . . . . . . . . . "};
