/* XPM */
static const char * main_xpm[] = {
"32 32 403 2",
"  	c None",
". 	c #797F78",
"+ 	c #B9B9B8",
"@ 	c #A9A9A8",
"# 	c #9CBD98",
"$ 	c #70B46E",
"% 	c #34AA33",
"& 	c #40AE3F",
"* 	c #4FB24D",
"= 	c #53B451",
"- 	c #55B554",
"; 	c #5BB659",
"> 	c #60B85E",
", 	c #56B455",
"' 	c #49B148",
") 	c #5DB45B",
"! 	c #40AD3F",
"~ 	c #3CAD3B",
"{ 	c #50B550",
"] 	c #54A653",
"^ 	c #6EB06E",
"/ 	c #84B982",
"( 	c #AACDA8",
"_ 	c #B4C8B2",
": 	c #636A61",
"< 	c #4DAF4A",
"[ 	c #74BD71",
"} 	c #BBD7B7",
"| 	c #A7D2A5",
"1 	c #8CC88A",
"2 	c #81C57F",
"3 	c #79C177",
"4 	c #77C175",
"5 	c #8AC788",
"6 	c #94CD92",
"7 	c #99D198",
"8 	c #AAD9A9",
"9 	c #BADFB9",
"0 	c #A6D8A5",
"a 	c #8BD08B",
"b 	c #86CD86",
"c 	c #7AC87A",
"d 	c #8FCD8E",
"e 	c #73C272",
"f 	c #55B754",
"g 	c #ABC9A6",
"h 	c #39AA38",
"i 	c #80C57F",
"j 	c #F3F2F1",
"k 	c #F7F7F6",
"l 	c #F6F8F5",
"m 	c #F5F7F4",
"n 	c #F3F5F2",
"o 	c #F8F9F7",
"p 	c #FAFCFA",
"q 	c #FBFDFB",
"r 	c #F9FCF9",
"s 	c #F8FBF8",
"t 	c #F6F9F5",
"u 	c #F0F2EF",
"v 	c #9ED09C",
"w 	c #52B751",
"x 	c #94C391",
"y 	c #30A92F",
"z 	c #8ACD8A",
"A 	c #FCFBFB",
"B 	c #F9F8F9",
"C 	c #E0E0E9",
"D 	c #DBDBE7",
"E 	c #E9E9F0",
"F 	c #EFEFF4",
"G 	c #F9F9FB",
"H 	c #E8E7EF",
"I 	c #FFFFFF",
"J 	c #FEFEFE",
"K 	c #F0F0F5",
"L 	c #F7F6F9",
"M 	c #FEFDFD",
"N 	c #FAFAF9",
"O 	c #97D297",
"P 	c #57B757",
"Q 	c #95C592",
"R 	c #3AAD39",
"S 	c #9AD59A",
"T 	c #FBFAFA",
"U 	c #DCDBE6",
"V 	c #9D9DBC",
"W 	c #9E9DBC",
"X 	c #8F8FB4",
"Y 	c #9F9FBF",
"Z 	c #CAC9DB",
"` 	c #ABAAC6",
" .	c #D0D0E0",
"..	c #CCCCDD",
"+.	c #D6D6E3",
"@.	c #BABAD1",
"#.	c #9B9BBD",
"$.	c #CCCCDC",
"%.	c #FCFDFC",
"&.	c #97D196",
"*.	c #73C071",
"=.	c #87C184",
"-.	c #3AAD3A",
";.	c #D2D1E0",
">.	c #9B9BBB",
",.	c #A8A7C3",
"'.	c #7575A3",
").	c #7D7DA9",
"!.	c #9494B8",
"~.	c #6F6F9F",
"{.	c #8686AF",
"].	c #A1A1C0",
"^.	c #A6A6C2",
"/.	c #FDFDFD",
"(.	c #FBFBFA",
"_.	c #96D296",
":.	c #95CD93",
"<.	c #70B96D",
"[.	c #39AD38",
"}.	c #B9DEB8",
"|.	c #FAF9F9",
"1.	c #EEEDF2",
"2.	c #B7B7CF",
"3.	c #B2B1CB",
"4.	c #A7A7C5",
"5.	c #A8A8C5",
"6.	c #7C7CA8",
"7.	c #BDBDD3",
"8.	c #B9B9D1",
"9.	c #C7C7D9",
"0.	c #B4B3CB",
"a.	c #C1C1D4",
"b.	c #D7D7E3",
"c.	c #82CA82",
"d.	c #ACD8AB",
"e.	c #85C082",
"f.	c #5AB859",
"g.	c #CEE6CD",
"h.	c #FCFCFC",
"i.	c #E8E8EF",
"j.	c #FCFCFD",
"k.	c #FDFCFD",
"l.	c #FAFAFB",
"m.	c #FBFBFC",
"n.	c #F6FAF6",
"o.	c #74C574",
"p.	c #9BBA9A",
"q.	c #9DC698",
"r.	c #7EC17C",
"s.	c #D9E7D8",
"t.	c #FBFBFB",
"u.	c #FCFBFC",
"v.	c #FDFCFC",
"w.	c #F1F4F0",
"x.	c #8FCC8D",
"y.	c #687C66",
"z.	c #8D9B89",
"A.	c #8EC38A",
"B.	c #AFD4AC",
"C.	c #C7E5C6",
"D.	c #C8E6C8",
"E.	c #C9E7C9",
"F.	c #CAE6C9",
"G.	c #C9E5C8",
"H.	c #CBE6CA",
"I.	c #C7E6C7",
"J.	c #C6E7C6",
"K.	c #C1E4C1",
"L.	c #B5DFB4",
"M.	c #B9E0B8",
"N.	c #C8E5C7",
"O.	c #BDDFBC",
"P.	c #C9DEC7",
"Q.	c #A2CF9F",
"R.	c #869184",
"S.	c #91C28D",
"T.	c #65B762",
"U.	c #48B147",
"V.	c #43AF42",
"W.	c #44B043",
"X.	c #37AC37",
"Y.	c #3DAE3C",
"Z.	c #38AD37",
"`.	c #35AC35",
" +	c #2DA92D",
".+	c #30AA2F",
"++	c #3BAD3B",
"@+	c #4DB34C",
"#+	c #52B651",
"$+	c #50B44F",
"%+	c #7EBF7B",
"&+	c #759F72",
"*+	c #8B9087",
"=+	c #BDCEB8",
"-+	c #ACC9A8",
";+	c #A7C7A2",
">+	c #A3C69E",
",+	c #A2C79E",
"'+	c #90C28C",
")+	c #91C18E",
"!+	c #4FAF4C",
"~+	c #46AC43",
"{+	c #53B151",
"]+	c #4EAF4C",
"^+	c #75BA72",
"/+	c #7EB37B",
"(+	c #84C081",
"_+	c #ADCBA9",
":+	c #555852",
"<+	c #6DB76A",
"[+	c #7EBC7A",
"}+	c #1C1C1B",
"|+	c #73B86F",
"1+	c #7CBB78",
"2+	c #37383B",
"3+	c #494B4E",
"4+	c #37383A",
"5+	c #202021",
"6+	c #2A2A2C",
"7+	c #353537",
"8+	c #8FAFE5",
"9+	c #79A4EA",
"0+	c #8FADE0",
"a+	c #6C7585",
"b+	c #71B86E",
"c+	c #65B463",
"d+	c #7FBC7B",
"e+	c #87BE83",
"f+	c #7F977C",
"g+	c #55729E",
"h+	c #7BA9F2",
"i+	c #7FABF0",
"j+	c #84ADEE",
"k+	c #7DA8ED",
"l+	c #7DA7EB",
"m+	c #86ACE9",
"n+	c #87ACE9",
"o+	c #7DA7EA",
"p+	c #7EA7E9",
"q+	c #87ACE7",
"r+	c #99B5E4",
"s+	c #B6C4E0",
"t+	c #C2CBDE",
"u+	c #4F8EF2",
"v+	c #1A73FB",
"w+	c #2077F9",
"x+	c #679BEB",
"y+	c #95C19C",
"z+	c #78BB75",
"A+	c #52B251",
"B+	c #45AF44",
"C+	c #40AF3F",
"D+	c #48B247",
"E+	c #4FB14E",
"F+	c #98C595",
"G+	c #455876",
"H+	c #B8C5DF",
"I+	c #5C95EF",
"J+	c #317FF6",
"K+	c #1C75FA",
"L+	c #5894EE",
"M+	c #70B67D",
"N+	c #6BBA69",
"O+	c #95CF94",
"P+	c #A4D8A4",
"Q+	c #B4DDB3",
"R+	c #C2E2C1",
"S+	c #5DBA5C",
"T+	c #62B760",
"U+	c #7DA6E9",
"V+	c #5994F0",
"W+	c #74A2EB",
"X+	c #ABBEDC",
"Y+	c #7ABE77",
"Z+	c #A0D29F",
"`+	c #F1F6F0",
" @	c #6FC16E",
".@	c #899AB6",
"+@	c #7488AA",
"@@	c #76BF74",
"#@	c #9ED79E",
"$@	c #EDF5EC",
"%@	c #6DC16C",
"&@	c #76A974",
"*@	c #74BF72",
"=@	c #9CD79C",
"-@	c #E6F0E4",
";@	c #6CBE6B",
">@	c #777A74",
",@	c #7AC078",
"'@	c #A6DBA6",
")@	c #E7F0E6",
"!@	c #72BF71",
"~@	c #C6D3C2",
"{@	c #70BE6F",
"]@	c #AFDEAF",
"^@	c #E5EEE3",
"/@	c #6CBC6B",
"(@	c #343434",
"_@	c #BAD1B6",
":@	c #69BC67",
"<@	c #BDE4BD",
"[@	c #E2ECE1",
"}@	c #69BB67",
"|@	c #B6CDB1",
"1@	c #7ABF77",
"2@	c #D0E6CF",
"3@	c #E3EAE1",
"4@	c #81C07E",
"5@	c #6E6D6D",
"6@	c #BFC9E0",
"7@	c #50555F",
"8@	c #BAD0B6",
"9@	c #6DBB6B",
"0@	c #C3E1C2",
"a@	c #E8EBE6",
"b@	c #AACEA7",
"c@	c #A6A4A4",
"d@	c #F4F2F2",
"e@	c #F4F3F3",
"f@	c #BEBDBD",
"g@	c #AEADAD",
"h@	c #DFDEDE",
"i@	c #8BB0EB",
"j@	c #5D96F0",
"k@	c #2D7DF8",
"l@	c #5A95F1",
"m@	c #AFCDAB",
"n@	c #57B556",
"o@	c #B5DDB4",
"p@	c #F3F8F3",
"q@	c #F2F7F2",
"r@	c #EBEFEA",
"s@	c #E5E9E2",
"t@	c #B7D8B5",
"u@	c #ACCAAB",
"v@	c #D0CECE",
"w@	c #F1F0F0",
"x@	c #898787",
"y@	c #86AAE2",
"z@	c #4A8FF6",
"A@	c #1872FB",
"B@	c #0E6EFD",
"C@	c #2A7DF9",
"D@	c #A9BEE5",
"E@	c #ACBFE1",
"F@	c #ABBEE1",
"G@	c #A7BBE2",
"H@	c #9EB8E3",
"I@	c #A3BAE3",
"J@	c #AEC0E4",
"K@	c #BDCCE6",
"L@	c #91959F",
"M@	c #ADC1B5",
"N@	c #56B358",
"O@	c #6CBF6B",
"P@	c #88CD88",
"Q@	c #8BCD8A",
"R@	c #85C483",
"S@	c #9BC998",
"T@	c #9BCB99",
"U@	c #A8C7A6",
"V@	c #BAB9B9",
"W@	c #717070",
"X@	c #B6B4B4",
"Y@	c #CDCCCC",
"Z@	c #3582F7",
"`@	c #0D6DFD",
" #	c #076AFD",
".#	c #1E76FA",
"+#	c #5893F0",
"@#	c #6097EF",
"##	c #6496E4",
"$#	c #4B78BE",
"%#	c #4A7AC6",
"&#	c #6094E5",
"*#	c #679BEC",
"=#	c #78A4EA",
"-#	c #87ADEB",
";#	c #9FBBEA",
">#	c #88AFEC",
",#	c #96B7E4",
"'#	c #78BA86",
")#	c #4AAF4A",
"!#	c #4FB04D",
"~#	c #52B04F",
"{#	c #5FB35C",
"]#	c #89C085",
"^#	c #9BA897",
"/#	c #E2E0E0",
"(#	c #6A9EEE",
"_#	c #3C85F6",
":#	c #2278F9",
"<#	c #4D8EF3",
"[#	c #A8BEE5",
"}#	c #7B9E78",
"|#	c #6AB768",
"1#	c #EEEBEB",
"2#	c #5B96F0",
"3#	c #9CB8E6",
"4#	c #9DC799",
"5#	c #64B762",
"6#	c #98C895",
"                                                    . + @       ",
"                        # $ % & * = - ; > , ' ) ! ~ { ] ^ / ( _ ",
"                      : < [ } | 1 2 3 4 5 6 7 8 9 0 a b c d e f ",
"                      g h i j k l m n n m o p q q p r s t u v w ",
"                      x y z A B C D E F G H I I I J K L M N O P ",
"                      Q R S T U V W X Y Z `  ...+.@.#.$.M %.&.*.",
"                      =.-.8 T ;.>.,.'.).!.~.{.'.].^.>.../.(._.:.",
"                      <.[.}.|.1.2.3.2.4.5.6.7.8.9.0.a.b.M s c.d.",
"                      e.f.g.|.|.B G h.G i.D j.k.h.l.l.m.J n.o.p.",
"                      q.r.s.|.|.|.t.h./.u.h.J M v.A /.J h.w.x.y.",
"                      z.A.B.C.C.D.E.F.G.H.I.J.K.L.M.N.I.O.P.Q.R.",
"                        S.T.* U.V.W.X.~ Y.Z.`. +.+++@+#+$+%+&+  ",
"                        *+=+-+;+>+,+'+)+!+~+{+]+) ^+=./+(+_+    ",
"                                      :+<+[+                    ",
"                                      }+|+1+                    ",
"  2+3+4+5+6+    7+          8+9+0+a+    b+c+d+e+f+              ",
"g+h+i+j+k+l+m+n+o+p+q+r+s+t+u+v+w+x+y+z+A+B+C+D+E+F+            ",
"          G+              H+I+J+K+L+M+N+O+P+Q+R+S+T+            ",
"                            U+V+W+X+Y+Z+|.h.A `+ @[             ",
"                            .@+@    @@#@J J M $@%@&@            ",
"                                    *@=@I J t.-@;@              ",
"                                  >@,@'@I J v.)@!@              ",
"                                  ~@{@]@I J v.^@/@            (@",
"                                  _@:@<@J /.t.[@}@              ",
"                                  |@1@2@|.T T 3@4@            5@",
"        6@7@                      8@9@0@T A |.a@b@  c@d@e@f@g@h@",
"    i@j@k@l@                      m@n@o@p@q@r@s@t@u@v@w@x@      ",
"  y@z@A@B@C@D@E@F@G@H@I@J@K@    L@M@N@O@P@Q@R@S@T@U@V@W@    X@Y@",
"    Z@`@ #.#+#@###$#%#&#*#=#-#;#>#,#'#)#!#~#{#]#^#            /#",
"    (#_#:#<#[#                          }#|#                  1#",
"        2#3#                            4#5#                    ",
"                                        6#N+                    "};
