/* XPM */
static const char * main_xpm[] = {
"32 32 326 2",
"  	c None",
". 	c #800C6C",
"+ 	c #D918B7",
"@ 	c #DB18B8",
"# 	c #D917B7",
"$ 	c #003800",
"% 	c #172212",
"& 	c #AC3492",
"* 	c #C137A2",
"= 	c #AA398F",
"- 	c #009000",
"; 	c #46B046",
"> 	c #4EB74E",
", 	c #4EBB4E",
"' 	c #45B947",
") 	c #43B945",
"! 	c #44B945",
"~ 	c #45B946",
"{ 	c #4BB34B",
"] 	c #4CB24C",
"^ 	c #50B450",
"/ 	c #0A970A",
"( 	c #008A00",
"_ 	c #F1F9F1",
": 	c #FFFFFF",
"< 	c #24A224",
"[ 	c #ECF6EC",
"} 	c #FAFAFA",
"| 	c #E6E6E6",
"1 	c #FBFBFB",
"2 	c #24A124",
"3 	c #008200",
"4 	c #8B8B8B",
"5 	c #D9D9D9",
"6 	c #B7B7B7",
"7 	c #C8C8C8",
"8 	c #EFEFEF",
"9 	c #F7F7F7",
"0 	c #B6B6B6",
"a 	c #FEFEFE",
"b 	c #B8B8B8",
"c 	c #F9F9F9",
"d 	c #007300",
"e 	c #EDF7ED",
"f 	c #E9E8E9",
"g 	c #A7A7A7",
"h 	c #E4E4E4",
"i 	c #BCBCBC",
"j 	c #767676",
"k 	c #BDBDBD",
"l 	c #B3B3B3",
"m 	c #D3D3D3",
"n 	c #AFAFAF",
"o 	c #F1F1F1",
"p 	c #020001",
"q 	c #006F00",
"r 	c #ECF7EC",
"s 	c #797979",
"t 	c #D4D4D4",
"u 	c #ACACAC",
"v 	c #E2E2E2",
"w 	c #686868",
"x 	c #515151",
"y 	c #E7E7E7",
"z 	c #7B7B7B",
"A 	c #CFCFCF",
"B 	c #9E9E9E",
"C 	c #007000",
"D 	c #FFFEFF",
"E 	c #FCFCFC",
"F 	c #C9C9C9",
"G 	c #E0E0E0",
"H 	c #ECECEC",
"I 	c #EEEEEE",
"J 	c #D8D8D8",
"K 	c #F8F8F8",
"L 	c #CCCCCC",
"M 	c #020002",
"N 	c #F0F8F0",
"O 	c #030001",
"P 	c #007200",
"Q 	c #87CC84",
"R 	c #92D290",
"S 	c #92D28F",
"T 	c #91D090",
"U 	c #90CF90",
"V 	c #92D292",
"W 	c #92D192",
"X 	c #8FD28F",
"Y 	c #8ED28F",
"Z 	c #98D398",
"` 	c #149A14",
" .	c #030002",
"..	c #020000",
"+.	c #061E2A",
"@.	c #1044BC",
"#.	c #0F42B4",
"$.	c #1042B4",
"%.	c #07487D",
"&.	c #001D00",
"*.	c #002900",
"=.	c #006600",
"-.	c #23191C",
";.	c #C031A1",
">.	c #C432A5",
",.	c #C832A8",
"'.	c #A13587",
").	c #020107",
"!.	c #1224A8",
"~.	c #1A33EF",
"{.	c #1931E7",
"].	c #182EDC",
"^.	c #021201",
"/.	c #015F00",
"(.	c #060005",
"_.	c #AE1492",
":.	c #FF1ED9",
"<.	c #FA1DD3",
"[.	c #F51CCF",
"}.	c #010000",
"|.	c #000000",
"1.	c #081043",
"2.	c #1934E8",
"3.	c #1833E5",
"4.	c #1933E3",
"5.	c #1824CD",
"6.	c #200AE9",
"7.	c #200BE9",
"8.	c #011002",
"9.	c #005B00",
"0.	c #2B0225",
"a.	c #EF1CCA",
"b.	c #FB1DD5",
"c.	c #FB1DD4",
"d.	c #DB19B9",
"e.	c #200BE8",
"f.	c #1E09E3",
"g.	c #1908BA",
"h.	c #1A08BF",
"i.	c #1A09C3",
"j.	c #1E11EA",
"k.	c #1D11E8",
"l.	c #1E11E8",
"m.	c #1E0EE4",
"n.	c #1F09E8",
"o.	c #200AEA",
"p.	c #162BB0",
"q.	c #1AA310",
"r.	c #179417",
"s.	c #108310",
"t.	c #001F00",
"u.	c #860E71",
"v.	c #FC1DD4",
"w.	c #F81DD1",
"x.	c #050019",
"y.	c #040010",
"z.	c #040011",
"A.	c #03000F",
"B.	c #0F187E",
"C.	c #1B31F2",
"D.	c #1A2FE6",
"E.	c #192EE2",
"F.	c #1F0BE8",
"G.	c #007C05",
"H.	c #F3FBF2",
"I.	c #E9F6E9",
"J.	c #A4DCA4",
"K.	c #002B00",
"L.	c #170114",
"M.	c #DB1AB9",
"N.	c #FD1DD5",
"O.	c #EC1BC6",
"P.	c #05061F",
"Q.	c #182FDB",
"R.	c #1931E5",
"S.	c #172DD3",
"T.	c #008900",
"U.	c #B4E2B4",
"V.	c #6F0D5E",
"W.	c #FD1DD6",
"X.	c #F91DD3",
"Y.	c #0F1C85",
"Z.	c #1932EB",
"`.	c #1930E0",
" +	c #CA18AB",
".+	c #EE1BC9",
"++	c #070A32",
"@+	c #1B33F2",
"#+	c #1A31E6",
"$+	c #1831E5",
"%+	c #2728C6",
"&+	c #008600",
"*+	c #B3E2B4",
"=+	c #0E2F0B",
"-+	c #1C0217",
";+	c #1B0317",
">+	c #400637",
",+	c #F61DD0",
"'+	c #FE1ED7",
")+	c #D819B7",
"!+	c #03010A",
"~+	c #1528BA",
"{+	c #1A32EA",
"]+	c #1731E8",
"^+	c #2C2DDB",
"/+	c #D71CC4",
"(+	c #ED1CC8",
"_+	c #EC1CC7",
":+	c #E71EC2",
"<+	c #12780C",
"[+	c #AFE1B0",
"}+	c #9A3E81",
"|+	c #EA1AC6",
"1+	c #E81CC5",
"2+	c #E81BC4",
"3+	c #F81CD1",
"4+	c #FB1ED4",
"5+	c #F51DCF",
"6+	c #0A104B",
"7+	c #1932EA",
"8+	c #1331E5",
"9+	c #8424CD",
"0+	c #FF1DD4",
"a+	c #F820D1",
"b+	c #177710",
"c+	c #A83F8C",
"d+	c #FF1CD6",
"e+	c #FD1DD4",
"f+	c #FE1DD4",
"g+	c #FA1DD4",
"h+	c #DA19B8",
"i+	c #172ED5",
"j+	c #1931E8",
"k+	c #1731E6",
"l+	c #2E2BD0",
"m+	c #D01AB8",
"n+	c #D71CC2",
"o+	c #D61CC2",
"p+	c #D21EBE",
"q+	c #10770D",
"r+	c #B0E1B0",
"s+	c #8D3E7F",
"t+	c #D81BC3",
"u+	c #D61CC0",
"v+	c #DD1DCC",
"w+	c #FD1ED6",
"x+	c #101A85",
"y+	c #1A33F1",
"z+	c #1931E6",
"A+	c #1B30E3",
"B+	c #2530E2",
"C+	c #222FE1",
"D+	c #2131DD",
"E+	c #007A12",
"F+	c #B3E1B0",
"G+	c #114C96",
"H+	c #222FE3",
"I+	c #222FE2",
"J+	c #2433F1",
"K+	c #1E0F50",
"L+	c #DA19B7",
"M+	c #F11CCB",
"N+	c #0F056B",
"O+	c #1E11E7",
"P+	c #1932E7",
"Q+	c #1832E7",
"R+	c #1833E2",
"S+	c #007B13",
"T+	c #B4E1AF",
"U+	c #0B4D99",
"V+	c #1931E9",
"W+	c #1831E6",
"X+	c #1933EC",
"Y+	c #0D1B7E",
"Z+	c #640B54",
"`+	c #060120",
" @	c #1B08CA",
".@	c #210BF1",
"+@	c #1A2AE6",
"@@	c #1B29E8",
"#@	c #1A2AE4",
"$@	c #006143",
"%@	c #E1F3DE",
"&@	c #D9EED9",
"*@	c #96D493",
"=@	c #0A508D",
"-@	c #192FE3",
";@	c #172BCB",
">@	c #030211",
",@	c #BC19AF",
"'@	c #D61FD2",
")@	c #D51FD1",
"!@	c #CD1DC7",
"~@	c #0C045B",
"{@	c #2009EA",
"]@	c #2009E9",
"^@	c #1F0AE8",
"/@	c #1B22E7",
"(@	c #1A14D1",
"_@	c #1728B3",
":@	c #0B9B03",
"<@	c #089508",
"[@	c #099409",
"}@	c #03020C",
"|@	c #152CD0",
"1@	c #172FDE",
"2@	c #1730DF",
"3@	c #1429C4",
"4@	c #010001",
"5@	c #030104",
"6@	c #1529C4",
"7@	c #1B25E6",
"8@	c #1C1DE7",
"9@	c #1731DB",
"0@	c #009300",
"a@	c #1222A0",
"b@	c #1A32E8",
"c@	c #1930E2",
"d@	c #0C1463",
"e@	c #1A32EB",
"f@	c #1932E8",
"g@	c #080E44",
"h@	c #162BC8",
"i@	c #162CCD",
"j@	c #172CCF",
"k@	c #1528BC",
"                                                                ",
"                                                                ",
"                            . + @ #                             ",
"                          $ % & * * =                           ",
"                      - ; > , ' ) ! ~ { ] ] ] ] ] ^ /           ",
"                      ( _ : : : : : : : : : : : : : <           ",
"                      ( [ : } | } 1 : : : : : : : : 2           ",
"                      3 [ : 4 5 6 | 7 8 9 0 a b c : 2           ",
"                      d e f g : h h i j k l m n o : 2           ",
"                    p q r : s t u v w x y z A B b : 2           ",
"                    p C [ D E F : a G H I J K L : : 2           ",
"                  M p C N : : : : : : : : : : : : : <           ",
"                M O p P Q R S T U V V W V X X Y X Z `           ",
"                 . ...+.@.#.$.%.  &.*.=.-.;.>.,.'.              ",
"               . .p ).!.~.{.].      ^./.(._.:.<.[.              ",
"              }.}.|.1.2.3.4.5.6.7.  8.9.|.0.a.b.c.d.            ",
"    e.7.7.f.g.h.h.i.j.k.l.m.n.7.o.p.q.r.s.t.u.v.<.w.            ",
"          x.y.z.A.B.C.D.E.    F.  G.H.I.J.K.L.M.N.c.O.          ",
"           .M ..P.Q.R.{.S.        T.: : U.K.|.V.W.<.X.          ",
"         .O p }.Y.Z.{.`.          T.: : U.K.p |. +N.<..+        ",
"        p  .}.++@+#+$+%+          &+: : *+=+-+;+>+,+<.'+)+      ",
"      M  .p !+~+{+]+^+/+(+_+_+_+:+<+: : [+}+|+1+2+3+4+<.5+      ",
"      O p }.6+7+$+8+9+0+N.N.N.N.a+b+: : [+c+d+e+f+e+v.g+c.h+    ",
"    M  ...).i+j+k+l+m+n+o+o+o+o+p+q+: : r+s+t+o+o+u+v+w+<.g+    ",
"  M M p }.x+y+z+z+A+B+C+C+C+C+C+D+E+: : F+G+H+C+I+J+K+L+c.<.M+  ",
"  M p |.N+O+3.z+#+P+Q+Q+Q+Q+Q+Q+R+S+: : T+U+V+W+X+Y+|.Z+:.X.X.  ",
"M ..`+ @.@F.+@@@@@@@@@@@@@@@@@@@#@$@%@&@*@=@-@`.;@>@..|.,@'@)@!@",
"  ..~@{@]@^@/@(@                  _@:@<@[@        }...}@|@1@2@3@",
"  4@5@6@7@8@9@                        0@            }.a@7+b@c@  ",
"    d@e@f@P+                          0@            g@h@i@j@k@  ",
"                                      0@                        ",
"                                                                "};
