/* XPM */
static char * actor_xpm[] = {
"45 48 585 2",
"  	c None",
". 	c #FFFFFF",
"+ 	c #F9F5F5",
"@ 	c #C28585",
"# 	c #A54B4B",
"$ 	c #A64C4C",
"% 	c #B16262",
"& 	c #CB9898",
"* 	c #EDDCDC",
"= 	c #FFFCFC",
"- 	c #FFEDED",
"; 	c #FFF5F5",
"> 	c #FDFDFD",
", 	c #E2C4C4",
"' 	c #AD5555",
") 	c #982929",
"! 	c #942828",
"~ 	c #952929",
"{ 	c #972E2E",
"] 	c #9A3737",
"^ 	c #AE5C5C",
"/ 	c #F1E2E2",
"( 	c #FFCDCD",
"_ 	c #FF6969",
": 	c #FF7272",
"< 	c #FF9D9D",
"[ 	c #FF9F9F",
"} 	c #FF8F8F",
"| 	c #FF7A7A",
"1 	c #FE3131",
"2 	c #FB2A2A",
"3 	c #F56C6C",
"4 	c #E78989",
"5 	c #BB5353",
"6 	c #972A2A",
"7 	c #8D1A1A",
"8 	c #962D2D",
"9 	c #B66C6C",
"0 	c #FBF6F6",
"a 	c #FFFEFE",
"b 	c #FFBABA",
"c 	c #FF3A3A",
"d 	c #FF2D2D",
"e 	c #FF4040",
"f 	c #FF7F7F",
"g 	c #FF3030",
"h 	c #FF1212",
"i 	c #FF1010",
"j 	c #FF3C3C",
"k 	c #FF8585",
"l 	c #FF9696",
"m 	c #F9A4A4",
"n 	c #E48D8D",
"o 	c #942525",
"p 	c #952A2A",
"q 	c #F4EAEA",
"r 	c #FFBFBF",
"s 	c #FF2B2B",
"t 	c #FF2020",
"u 	c #FF2121",
"v 	c #FF3636",
"w 	c #E63B3B",
"x 	c #B32323",
"y 	c #DB3939",
"z 	c #FF1616",
"A 	c #FF2424",
"B 	c #FF2626",
"C 	c #FF1717",
"D 	c #FF6161",
"E 	c #FFC7C7",
"F 	c #FFCFCF",
"G 	c #F87878",
"H 	c #AF3B3B",
"I 	c #9D3838",
"J 	c #B26565",
"K 	c #FFE5E5",
"L 	c #FF4141",
"M 	c #FF1D1D",
"N 	c #FF3333",
"O 	c #CA3434",
"P 	c #9A1A1A",
"Q 	c #9A2727",
"R 	c #D39A9A",
"S 	c #FD5050",
"T 	c #FF1313",
"U 	c #FF0E0E",
"V 	c #FF1515",
"W 	c #FF6767",
"X 	c #FFABAB",
"Y 	c #FF9191",
"Z 	c #FD5F5F",
"` 	c #C03131",
" .	c #A44343",
"..	c #CE9D9D",
"+.	c #FF8080",
"@.	c #FF1E1E",
"#.	c #FF3E3E",
"$.	c #FE3030",
"%.	c #C71A1A",
"&.	c #8F1515",
"*.	c #A44242",
"=.	c #E8CACA",
"-.	c #FF9B9B",
";.	c #FF1414",
">.	c #FF2222",
",.	c #FF5353",
"'.	c #FF4F4F",
").	c #FF9393",
"!.	c #FF9A9A",
"~.	c #F23636",
"{.	c #9E0F0F",
"].	c #9B3636",
"^.	c #FBF7F7",
"/.	c #FFE7E7",
"(.	c #FF4B4B",
"_.	c #D82121",
":.	c #8C1313",
"<.	c #9D3B3B",
"[.	c #F2E2E2",
"}.	c #FFFAFA",
"|.	c #FF8A8A",
"1.	c #FF4444",
"2.	c #FF3232",
"3.	c #FF4343",
"4.	c #FF7474",
"5.	c #FF8686",
"6.	c #FF5050",
"7.	c #B11C1C",
"8.	c #A23A3A",
"9.	c #E6CECE",
"0.	c #FF9999",
"a.	c #FF3737",
"b.	c #FF2F2F",
"c.	c #F62727",
"d.	c #920A0A",
"e.	c #983030",
"f.	c #EBD7D7",
"g.	c #FFF4F4",
"h.	c #FF9494",
"i.	c #FF5E5E",
"j.	c #FF2525",
"k.	c #FF4646",
"l.	c #FFB0B0",
"m.	c #FF5959",
"n.	c #FF7575",
"o.	c #C41313",
"p.	c #9D2020",
"q.	c #D5ABAB",
"r.	c #D72222",
"s.	c #9E1E1E",
"t.	c #C68C8C",
"u.	c #FFE4E4",
"v.	c #FF9797",
"w.	c #FF2C2C",
"x.	c #FF1A1A",
"y.	c #FF4E4E",
"z.	c #FF6060",
"A.	c #FF7B7B",
"B.	c #FF3B3B",
"C.	c #C81111",
"D.	c #9D1717",
"E.	c #FF4949",
"F.	c #FC2D2D",
"G.	c #A61111",
"H.	c #9D2F2F",
"I.	c #FCF9F9",
"J.	c #FFECEC",
"K.	c #FF7777",
"L.	c #FF2E2E",
"M.	c #D01010",
"N.	c #991919",
"O.	c #CA9595",
"P.	c #F62424",
"Q.	c #960909",
"R.	c #A23D3D",
"S.	c #FEFCFC",
"T.	c #FFDBDB",
"U.	c #FF8D8D",
"V.	c #FF1818",
"W.	c #D01717",
"X.	c #9D2626",
"Y.	c #DAB4B4",
"Z.	c #FFFBFB",
"`.	c #FF0D0D",
" +	c #F52424",
".+	c #8F0505",
"++	c #962020",
"@+	c #D0A2A2",
"#+	c #FDFBFB",
"$+	c #FF7C7C",
"%+	c #FF4242",
"&+	c #C71414",
"*+	c #A93A3A",
"=+	c #E6CCCC",
"-+	c #FF6A6A",
";+	c #FF0A0A",
">+	c #FE1D1D",
",+	c #AE0F0F",
"'+	c #9C0909",
")+	c #B35959",
"!+	c #9B3838",
"~+	c #EEDDDD",
"{+	c #FFC3C3",
"]+	c #FF3535",
"^+	c #FF3939",
"/+	c #BB1616",
"(+	c #BE7171",
"_+	c #FFA7A7",
":+	c #FF2A2A",
"<+	c #F92626",
"[+	c #A20808",
"}+	c #A71414",
"|+	c #9B2A2A",
"1+	c #E5CCCC",
"2+	c #FF2727",
"3+	c #FF5757",
"4+	c #FF1C1C",
"5+	c #CD4F4F",
"6+	c #DCB6B6",
"7+	c #FF7676",
"8+	c #FA4040",
"9+	c #DC1414",
"0+	c #B10C0C",
"a+	c #8D0D0D",
"b+	c #901E1E",
"c+	c #D6AEAE",
"d+	c #FFF3F3",
"e+	c #FF8C8C",
"f+	c #FF4848",
"g+	c #FF3F3F",
"h+	c #FF5656",
"i+	c #EB4242",
"j+	c #D8AAAA",
"k+	c #F4E9E9",
"l+	c #FFE3E3",
"m+	c #FF6868",
"n+	c #FE3737",
"o+	c #F43A3A",
"p+	c #CE1111",
"q+	c #A50B0B",
"r+	c #D95858",
"s+	c #FFAAAA",
"t+	c #FFD9D9",
"u+	c #FFD2D2",
"v+	c #FF5555",
"w+	c #F74D4D",
"x+	c #CE8181",
"y+	c #E5CACA",
"z+	c #FFE9E9",
"A+	c #FF1111",
"B+	c #FF0C0C",
"C+	c #FF5B5B",
"D+	c #FC4646",
"E+	c #FD1818",
"F+	c #FF3838",
"G+	c #E95656",
"H+	c #C67A7A",
"I+	c #D1A2A2",
"J+	c #F4E8E8",
"K+	c #FFE8E8",
"L+	c #FF2323",
"M+	c #FF6C6C",
"N+	c #FF1919",
"O+	c #FE3333",
"P+	c #EC7676",
"Q+	c #C77D7D",
"R+	c #DDBABA",
"S+	c #F3E6E6",
"T+	c #FFF8F8",
"U+	c #FF4C4C",
"V+	c #FF5C5C",
"W+	c #FF4747",
"X+	c #FF5F5F",
"Y+	c #FA9A9A",
"Z+	c #EDC4C4",
"`+	c #F9F2F2",
" @	c #FFF2F2",
".@	c #FF6D6D",
"+@	c #FF7070",
"@@	c #FF6464",
"#@	c #FF6565",
"$@	c #FFB2B2",
"%@	c #F9DEDE",
"&@	c #FFBEBE",
"*@	c #FFA2A2",
"=@	c #FF7979",
"-@	c #D8A6A6",
";@	c #AF6060",
">@	c #E6CBCB",
",@	c #FDFAFA",
"'@	c #FFEFEF",
")@	c #FF6B6B",
"!@	c #FF2929",
"~@	c #E53535",
"{@	c #9A2B2B",
"]@	c #973030",
"^@	c #AA5656",
"/@	c #DEBCBC",
"(@	c #F9F3F3",
"_@	c #FF8E8E",
":@	c #FF0F0F",
"<@	c #F72727",
"[@	c #B73434",
"}@	c #972F2F",
"|@	c #922323",
"1@	c #9B3737",
"2@	c #DBB7B7",
"3@	c #FFF1F1",
"4@	c #FF0B0B",
"5@	c #FF6363",
"6@	c #FF1F1F",
"7@	c #FF3434",
"8@	c #F53636",
"9@	c #B65050",
"0@	c #902121",
"a@	c #942A2A",
"b@	c #B56C6C",
"c@	c #FFEBEB",
"d@	c #F02121",
"e@	c #C92323",
"f@	c #F97E7E",
"g@	c #FF0808",
"h@	c #FF2828",
"i@	c #FFD1D1",
"j@	c #FF6F6F",
"k@	c #FF3131",
"l@	c #F04D4D",
"m@	c #972626",
"n@	c #962E2E",
"o@	c #AB5858",
"p@	c #FFE2E2",
"q@	c #E02222",
"r@	c #960707",
"s@	c #A02D2D",
"t@	c #F1B5B5",
"u@	c #FFD5D5",
"v@	c #FF9292",
"w@	c #FF4D4D",
"x@	c #FA3939",
"y@	c #BB4545",
"z@	c #A44545",
"A@	c #E1C4C4",
"B@	c #FFCCCC",
"C@	c #FF6E6E",
"D@	c #DF2E2E",
"E@	c #940505",
"F@	c #9A2323",
"G@	c #EBD4D4",
"H@	c #FFDFDF",
"I@	c #FFAFAF",
"J@	c #FF5454",
"K@	c #FF1B1B",
"L@	c #FD1F1F",
"M@	c #CD3E3E",
"N@	c #932525",
"O@	c #A24646",
"P@	c #AB5757",
"Q@	c #EBD6D6",
"R@	c #FFCECE",
"S@	c #D72727",
"T@	c #900707",
"U@	c #972121",
"V@	c #FEFEFE",
"W@	c #FFDEDE",
"X@	c #FF6666",
"Y@	c #FD3E3E",
"Z@	c #E27B7B",
"`@	c #9F3B3B",
" #	c #912020",
".#	c #BE7E7E",
"+#	c #FFA3A3",
"@#	c #FF5D5D",
"##	c #DC2C2C",
"$#	c #920909",
"%#	c #951919",
"&#	c #E0BEBE",
"*#	c #FFE6E6",
"=#	c #FFB4B4",
"-#	c #FF8383",
";#	c #F9ABAB",
">#	c #DBA8A8",
",#	c #A92C2C",
"'#	c #AA5353",
")#	c #CE9F9F",
"!#	c #FFB1B1",
"~#	c #A80E0E",
"{#	c #A02424",
"]#	c #DFBEBE",
"^#	c #FFA1A1",
"/#	c #FFFDFD",
"(#	c #FFEAEA",
"_#	c #FF8282",
":#	c #FFC5C5",
"<#	c #EDB3B3",
"[#	c #942929",
"}#	c #AE5D5D",
"|#	c #F3E7E7",
"1#	c #FFA6A6",
"2#	c #FF9090",
"3#	c #FF7D7D",
"4#	c #FB5656",
"5#	c #C61D1D",
"6#	c #981010",
"7#	c #9D2D2D",
"8#	c #DEBDBD",
"9#	c #FF8181",
"0#	c #FFD3D3",
"a#	c #FFA5A5",
"b#	c #FF8B8B",
"c#	c #E86E6E",
"d#	c #C53F3F",
"e#	c #A21F1F",
"f#	c #921919",
"g#	c #B56969",
"h#	c #EBD8D8",
"i#	c #F3A3A3",
"j#	c #B35050",
"k#	c #942121",
"l#	c #A34747",
"m#	c #DAB6B6",
"n#	c #FC8B8B",
"o#	c #FFF9F9",
"p#	c #FED9D9",
"q#	c #D77C7C",
"r#	c #B33333",
"s#	c #941F1F",
"t#	c #A23838",
"u#	c #D6A8A8",
"v#	c #E59595",
"w#	c #E45454",
"x#	c #F0B4B4",
"y#	c #EAAFAF",
"z#	c #B45858",
"A#	c #A64D4D",
"B#	c #EDDADA",
"C#	c #FFAEAE",
"D#	c #F42828",
"E#	c #A83535",
"F#	c #D8B0B0",
"G#	c #F6D1D1",
"H#	c #F0BFBF",
"I#	c #F8F2F2",
"J#	c #F3D9D9",
"K#	c #CC9595",
"L#	c #C67C7C",
"M#	c #DC9999",
"N#	c #D2A5A5",
"O#	c #E7CECE",
"P#	c #FFCBCB",
"Q#	c #FB2323",
"R#	c #AB1414",
"S#	c #962424",
"T#	c #D3A4A4",
"U#	c #F8F1F1",
"V#	c #F3E8E8",
"W#	c #F5EBEB",
"X#	c #FF3D3D",
"Y#	c #FF4A4A",
"Z#	c #F33131",
"`#	c #9F1010",
" $	c #9A2525",
".$	c #AD5C5C",
"+$	c #EFE0E0",
"@$	c #FF7171",
"#$	c #FF5151",
"$$	c #FF8989",
"%$	c #F92D2D",
"&$	c #B10D0D",
"*$	c #941313",
"=$	c #BF7F7F",
"-$	c #F6EFEF",
";$	c #FF4545",
">$	c #FCE4E4",
",$	c #EFDFDF",
"'$	c #DA1212",
")$	c #920C0C",
"!$	c #8D1616",
"~$	c #D5AAAA",
"{$	c #FEFDFD",
"]$	c #FFF7F7",
"^$	c #FFADAD",
"/$	c #F8F0F0",
"($	c #E3C8C8",
"_$	c #FEE6E6",
":$	c #FD3D3D",
"<$	c #CC1E1E",
"[$	c #8C0D0D",
"}$	c #9C3737",
"|$	c #FF5A5A",
"1$	c #FFC2C2",
"2$	c #CD9B9B",
"3$	c #CA9494",
"4$	c #FFA0A0",
"5$	c #F23D3D",
"6$	c #A11212",
"7$	c #9E3C3C",
"8$	c #AF5D5D",
"9$	c #E6CDCD",
"0$	c #EFB8B8",
"a$	c #CD9C9C",
"b$	c #D5ACAC",
"c$	c #DCBABA",
"d$	c #F9F4F4",
"e$	c #FFB3B3",
"f$	c #FF6262",
"g$	c #FF5252",
"h$	c #FB2F2F",
"i$	c #D52E2E",
"j$	c #A54646",
"k$	c #FFBDBD",
"l$	c #DA3737",
"m$	c #A94C4C",
"n$	c #A95454",
"o$	c #A34949",
"p$	c #FFE1E1",
"q$	c #D73E3E",
"r$	c #AA5454",
"s$	c #ECD9D9",
"t$	c #FFDADA",
"u$	c #E81C1C",
"v$	c #B43636",
"w$	c #9D3A3A",
"x$	c #AE5E5E",
"y$	c #FFE0E0",
"z$	c #FD4F4F",
"A$	c #CD7D7D",
"B$	c #993232",
"C$	c #FD3535",
"D$	c #CC2828",
"E$	c #9E2121",
"F$	c #B06060",
"G$	c #DDBBBB",
"H$	c #FDFCFC",
"I$	c #FB8686",
"J$	c #B05353",
"K$	c #982424",
"L$	c #B77070",
"M$	c #FF7878",
"N$	c #F71C1C",
"O$	c #B91818",
"P$	c #9B2525",
"Q$	c #A95353",
"R$	c #E0C1C1",
"S$	c #FFD8D8",
"T$	c #FFB5B5",
"U$	c #F3ACAC",
"V$	c #9D3333",
"W$	c #A33434",
"X$	c #ECD8D8",
"Y$	c #FF9898",
"Z$	c #E52C2C",
"`$	c #A41616",
" %	c #911E1E",
".%	c #9F4040",
"+%	c #FCF5F5",
"@%	c #FCACAC",
"#%	c #FEAAAA",
"$%	c #E37373",
"%%	c #993030",
"&%	c #C18181",
"*%	c #FE8E8E",
"=%	c #F6B6B6",
"-%	c #E66464",
";%	c #BD4343",
">%	c #992525",
",%	c #902020",
"'%	c #BB7777",
")%	c #E4C9C9",
"!%	c #DEADAD",
"~%	c #F48B8B",
"{%	c #FC9B9B",
"]%	c #A92525",
"^%	c #C58585",
"/%	c #FFA9A9",
"(%	c #F78080",
"_%	c #AD4141",
":%	c #9A3333",
"<%	c #A54A4A",
"[%	c #DBB8B8",
"}%	c #CF9D9D",
"|%	c #C68888",
"1%	c #DF6B6B",
"2%	c #F2BBBB",
"3%	c #C36E6E",
"4%	c #CF9595",
". . . . . . . . . . . . . . . . . . . . . + @ # $ % & * . . . . . . . . . . . . . . . . . ",
". . . . . . . . . . . . . . . . . = - ; = > , ' ) ! ~ { ] ^ / . . . . . . . . . . . . . . ",
". . . . . . . . . . . . . . . . ( _ : < [ } | 1 2 3 4 5 6 7 8 9 0 . . . . . . . . . . . . ",
". . . . . . . . . . . . . . a b c d c e f } g h i j k l m n o p # q . . . . . . . . . . . ",
". . . . . . . . . . . . . . r s t u v w x y z A B C D E F [ G H I J 0 . . . . . . . . . . ",
". . . . . . . . . . . . . K L M h N O P Q R S T U t V W < X Y Z `  .... . . . . . . . . . ",
". . . . . . . . . . . . . +.@.#.$.%.&.*.=.. -.B ;.>.,.C '.).W !.~.{.].^.. . . . . . . . . ",
". . . . . . . . . . . . /.(.g c _.:.<.[.. . }.|.>.1.2.3.v 4.5.W 6.7.8.9.. . . . . . . . . ",
". . . . . . . . . . . . 0.a.b.c.d.e.f.. . . . g.h.i.j.k.k.#.l.m.n.o.p.q.. . . . . . . . . ",
". . . . . . . . . . . . : j.a.r.s.t.. . . . . . u.v.w.x.y.z.A.B.z.C.D.... . . . . . . . . ",
". . . . . . . . . . . a E.t F.G.H.I.. . . . . . . J.K.j.2.l.z.L.k.M.N.O.. . . . . . . . . ",
". . . . . . . . . . . a d V P.Q.R.S.. . . . . . . . a T.0.U.B V.j.W.X.Y.. . . . . . . . . ",
". . . . . . . . . . . Z.B.`. +.+++@+#+. . . . . . . . . g.$+U %+x.&+*+=+. . . . . . . . . ",
". . . . . . . . . . . = -+;+>+,+'+)+!+~+. . . . . . . . {+]+^+w.;./+(+^.. . . . . . . . . ",
". . . . . . . . . . . . _+:+U <+[+}+|+$ 1+. . . . . = Y N 2+3+M 4+5+6+. . . . . . . . . . ",
". . . . . . . . . . . . K 7+V.V 8+9+0+a+b+c+. . . d+e+f+g+h+u M i+j+k+. . . . . . . . . . ",
". . . . . . . . . . . . . l+m+V.`.n+o+p+q+r+s+t+u+v+f+^+(.t N w+x+y+^.. . . . . . . . . . ",
". . . . . . . . . . . . . . z+i.A+B+h C+D+E+s j B C :+F+V.^+G+H+I+J+. . . . . . . . . . . ",
". . . . . . . . . . . . . . . K+: i M L+U w.z.M+h+'.N+h O+P+Q+R+S+. . . . . . . . . . . . ",
". . . . . . . . . . . . . . . . T+( 3.h U+V+2.W+C+y.b.X+Y+Z+`+. . . . . . . . . . . . . . ",
". . . . . . . . . . . . . . . . . .  @s+.@+@_ @@4.#@_ $@%@#+. . . . . . . . . . . . . . . ",
". . . . . . . . . . . . . . . . . = &@,.+@*@D 6.h.: j =@-@;@>@,@. . . . . . . . . . . . . ",
". . . . . . . . . . . . . . . . '@k j L+C i u b.)@v !@w.~@{@]@^@/@(@. . . . . . . . . . . ",
". . . . . . . . . . . . . . . d+_@M >.B.4+:@j.2.w.!@N ]+d <@[@}@|@1@2@#+. . . . . . . . . ",
". . . . . . . . . . . . . . 3@@@C 4@2+L.L+:@4@:+j 5@N 6@>.7@N+8@9@0@a@b@I.. . . . . . . . ",
". . . . . . . . . . . . . c@7+x.:@7@d@e@f@A+g@2.h@i@j@C ;.N+f+k@k@l@m@n@o@(@. . . . . . . ",
". . . . . . . . . . . . p@0._ 3.g q@r@s@t@L+4+'.u u@z+v@2+C L+L w@j.x@y@z@<.A@. . . . . . ",
". . . . . . . . . . a B@C@#.k@#.D@E@F@G@H@A.#.@@b.I@. Z.{+w.J@W+K@J@7@L@M@N@O@P@Q@. . . . ",
". . . . . . . . . = R@N 6@4+a.S@T@U@y+V@W@.@K@'.c 5.. . . l+< X@:+z 1.m.Y@Z@`@ #O@.#S.. . ",
". . . . . . . a T++#g+u V.@###$#%#&#V@. *#F+V D d U.. . . . T+=#A.u 6@6@-#@@;#>#,#'#)#a . ",
". . . . . . a K+!#7+(.5@3+q@~#{#]#. . . d+%+M X+B ^#. . . . . /#(#_#B.L.%+_+:#Y <#[#}#|#. ",
". . . . . a 1#f 2#r 3#4#5#6#7#8#. . . . /#@#B 9#i.0#. . . . . . . = '@a#b#< c#d#e#f#g#h#. ",
". . . . . (#&@).=@&@i#j#k#l#m#. . . . . a r n.l 3#n#>@. . . . . . . . . o#p#q#r#s#t#u#q . ",
". . . . . . v#w#x#y#z#A#;@B#. . . . . T+R@C#C@@@^+D#E#F#. . . . . . . . . /#Z.G#H#|#I#. . ",
". . . . . . J#K#L#M#N#O#. . . . . = P#v+!@b.i.4+V.Q#R#S#T#S.. . . . . . . . . . . . . . . ",
". . . . . . . U#V#W#. . . . . . - K.X#h@2+2+Y#6@M B.Z#`# $.$+$a . . . . . . . . . . . . . ",
". . . . . . . . . . . . . . a z+@$N+@.N g d #$$$#.L+h@%$&$*$! =$-$. . . . . . . . . . . . ",
". . . . . . . . . . . . . /#E ;$C ;+h@7@2.+.>$,$_#6@B+>.v '$)$!$]@~${$. . . . . . . . . . ",
". . . . . . . . . . . . ]$^$b.4+h 7@A g+1#/$O.($_$n.L+;.K@k.:$<$[$}$^@/$. . . . . . . . . ",
". . . . . . . . . . . u@0.C@|$T W+>.L.1$~+2$3$0 . 3@4$;.F+h@E.2.5$6$7$8$9$. . . . . . . . ",
". . . . . . . . . . H@U.3.h+:+E.x.s 0$a$b$c$d$. . . = e$C+f$a.L.g$h$i$j$1@, . . . . . . . ",
". . . . . . . . a k$j 3.N+j (.g l$m$n$o$8##+. . . . . a p$-.Y#k@]+V+A q$! r$s$. . . . . . ",
". . . . . . . . t$v t L+g$7@u$v$w$|@x$Q@a . . . . . . . . y$^#]+4+L+C@z$A$B$'#I.. . . . . ",
". . . . . . . B@e 4+u 3+C$D$E$p F$G$H$. . . . . . . . . . . T+0.k@L+X#3#I$J$K$L$. . . . . ",
". . . . . = z+M$j ;$5@N$O$P$Q$R$#+. . . . . . . . . . . . . . = S$k.f+b#T$U$V$W$X$. . . . ",
". . . . Z.y$l.M$Y$7+Z$`$ %.%B#. . . . . . . . . . . . . . . . . . +%@%#%!.| $%%%&%. . . . ",
". . . . r | *%=%-%;%>%,%'%d$. . . . . . . . . . . . . . . . . . . {$)%!%~%3#{%]%^%. . . . ",
". . T+X /%A.(%_%o :%<%[%. . . . . . . . . . . . . . . . . . . . . . I.}%|%1%2%3%4%. . . . "};
