/* XPM */
static char *aggregation[] = {
/* columns rows colors chars-per-pixel */
"48 48 161 2",
"   c #EE160F",
".  c #ED1911",
"X  c #EB1B1C",
"o  c #F70F0A",
"O  c #FB0B0B",
"+  c #FA0E12",
"@  c #FB120E",
"#  c #F41314",
"$  c #F71719",
"%  c #F51914",
"&  c #F41C1B",
"*  c #FB1315",
"=  c #FC1519",
"-  c #FC1A13",
";  c #FB1B1B",
":  c #F31C21",
">  c #FC1C21",
",  c #EF251E",
"<  c #F5211D",
"1  c #FB211E",
"2  c #E7242D",
"3  c #E62B2E",
"4  c #EC2424",
"5  c #E92A2D",
"6  c #ED2831",
"7  c #E73637",
"8  c #E73E3F",
"9  c #ED3532",
"0  c #EC3639",
"q  c #EA3A35",
"w  c #EC3A3B",
"e  c #F32323",
"r  c #F4242A",
"t  c #F22923",
"y  c #F32A2B",
"u  c #FB2423",
"i  c #FC242B",
"p  c #FC2925",
"a  c #FC2A2A",
"s  c #F12530",
"d  c #F32E33",
"f  c #FA2E32",
"g  c #FC2E38",
"h  c #F73027",
"j  c #F4302E",
"k  c #FF3127",
"l  c #FC312B",
"z  c #F23434",
"x  c #F2353A",
"c  c #F33832",
"v  c #F23B3B",
"b  c #FD3334",
"n  c #FB3438",
"m  c #FF3A37",
"M  c #FD3B3A",
"N  c #EC3541",
"B  c #EA3E43",
"V  c #F23740",
"C  c #F23E42",
"Z  c #F53C4A",
"A  c #FB3D40",
"S  c #F54239",
"D  c #FE423C",
"F  c #DD575C",
"G  c #EC4344",
"H  c #EE4947",
"J  c #ED4A4B",
"K  c #E84B50",
"L  c #EB4F58",
"P  c #EE524F",
"I  c #EE5454",
"U  c #EA575D",
"Y  c #EC5A59",
"T  c #F34443",
"R  c #F34448",
"E  c #F24844",
"W  c #F04C4F",
"Q  c #FC4343",
"!  c #FD444A",
"~  c #FC4C4E",
"^  c #F54E53",
"/  c #FE4F50",
"(  c #F45152",
")  c #F35659",
"_  c #F35F5E",
"`  c #FA5150",
"'  c #FE5758",
"]  c #FB5A5B",
"[  c #E95D63",
"{  c #F25B61",
"}  c #F85C61",
"|  c #FA645E",
" . c #EB6666",
".. c #EE6669",
"X. c #EE6A6C",
"o. c #F26264",
"O. c #F06269",
"+. c #F26C6B",
"@. c #F86463",
"#. c #FC6668",
"$. c #FB6E6C",
"%. c #F66C70",
"&. c #FB6C70",
"*. c #FB716A",
"=. c #F47373",
"-. c #F57E7C",
";. c #FB7473",
":. c #FD7B76",
">. c #F87B7B",
",. c #FD847D",
"<. c #F38382",
"1. c #F7878D",
"2. c #F58C8B",
"3. c #FB8282",
"4. c #FC848B",
"5. c #FB8885",
"6. c #FC8B8B",
"7. c #FC8D94",
"8. c #FC938D",
"9. c #F49293",
"0. c #FB9396",
"q. c #F9959A",
"w. c #FE9995",
"e. c #FD9A9A",
"r. c #FCA19C",
"t. c #F3A7A4",
"y. c #FDA3A3",
"u. c #FDA5A8",
"i. c #FEABAA",
"p. c #FDADB1",
"a. c #FFB2AB",
"s. c #FEB3B1",
"d. c #F8B7BB",
"f. c #FDBDB6",
"g. c #FEBBBB",
"h. c #FFC8BB",
"j. c #FEC3C4",
"k. c #FFC6CA",
"l. c #FDC9C5",
"z. c #FECACB",
"x. c #FECED3",
"c. c #FFD3CB",
"v. c #FED3D2",
"b. c #FFD6D9",
"n. c #FFDBD6",
"m. c #FEDCDC",
"M. c #FFDDE1",
"N. c #FFE1DA",
"B. c #FFE3E3",
"V. c #FFE3E8",
"C. c #FFEAE3",
"Z. c #FEECEB",
"A. c #FFEDF2",
"S. c #FFF0E4",
"D. c #FFF2ED",
"F. c #FFFAEC",
"G. c #F6FFFD",
"H. c #FFF3F3",
"J. c #FFF5F8",
"K. c #FDFBF5",
"L. c #FEFEFE",
/* pixels */
"L.L.L.L.L.L.L.L.L.L.L.L.L.L.L.L.L.L.L.L.L.L.L.L.L.L.L.L.L.L.L.L.G.L.L.L.G.L.J.L.L.L.L.L.L.G.G.L.",
"L.L.L.L.L.L.L.L.L.L.L.L.L.L.L.L.L.L.L.L.L.L.L.L.L.L.L.L.L.L.L.L.L.L.L.L.L.L.L.L.G.L.G.L.L.L.L.L.",
"L.L.L.L.L.L.L.L.L.L.L.L.L.L.L.L.L.L.L.L.L.L.L.L.L.L.L.L.L.L.L.L.L.L.J.L.L.G.L.L.L.L.L.L.L.L.L.L.",
"L.L.L.L.L.L.L.L.L.L.L.L.L.L.L.L.L.L.L.L.L.L.L.L.L.L.L.L.L.L.L.L.L.L.L.G.G.L.L.L.L.L.L.L.L.L.L.L.",
"L.L.L.L.L.L.L.L.L.L.L.L.L.L.L.L.L.L.L.L.L.L.L.L.L.L.L.L.L.L.L.L.L.L.G.G.G.L.L.L.L.G.L.J.H.Z.Z.G.",
"L.L.L.L.L.L.L.L.L.L.L.L.L.L.L.L.L.L.L.L.L.L.L.L.L.L.L.L.L.L.L.L.L.L.L.L.L.L.L.G.K.Z.k.9.u.y.v.K.",
"L.L.L.L.L.L.L.L.L.L.L.L.L.L.L.L.L.L.L.L.L.L.L.L.L.L.L.L.L.L.L.L.L.L.L.L.J.L.L.K.B.3.Z s 6 &.c.Z.",
"L.L.L.L.L.L.L.L.L.L.L.L.L.L.L.L.L.L.L.L.L.L.L.L.L.L.L.L.L.L.L.L.L.L.L.L.L.G.K.V.4.4 ; - - v 9.D.",
"L.L.L.L.L.L.L.L.L.L.L.L.L.L.L.L.L.L.L.L.L.L.L.L.L.L.L.L.L.L.G.L.K.L.L.L.J.G.Z.1.2 * ; - - G d.L.",
"L.L.L.L.L.L.L.L.L.L.L.L.L.L.L.L.L.L.L.L.L.L.L.L.L.L.L.L.L.L.G.K.L.L.L.L.L.H.i.] a ; a X ( g.H.L.",
"L.L.L.L.L.L.L.L.L.L.L.L.L.L.L.L.L.L.L.L.L.L.L.L.L.L.L.L.L.L.L.L.L.L.G.L.A.7.0 ; - p X } x.J.K.K.",
"L.L.L.L.L.L.L.L.L.L.L.L.L.L.L.L.L.L.L.L.L.L.L.L.L.L.L.K.G.L.L.L.L.L.J.m.,.s + @ - * B k.L.L.G.K.",
"L.L.L.L.L.L.L.L.L.L.L.L.L.L.L.L.L.L.L.L.L.L.L.L.L.L.L.K.L.L.L.G.G.K.l.$.e @ O O O 4 e.G.L.L.L.L.",
"L.L.L.L.L.L.L.L.L.L.L.L.L.L.L.L.L.L.L.L.L.L.L.L.L.L.L.L.L.L.L.K.K.f.Y y a = O O X ,.V.L.L.K.L.L.",
"L.L.L.L.L.L.L.L.L.L.L.L.L.L.L.L.L.L.L.L.L.L.L.L.L.L.G.L.L.L.K.H.s.I m a u = $ d 5.C.L.L.K.K.L.G.",
"L.L.L.L.L.L.L.L.L.L.L.L.L.L.L.L.L.L.L.L.L.L.L.L.L.L.G.L.L.G.K.z.O.4 g > % t ( p.Z.L.L.L.L.L.L.K.",
"L.L.L.L.L.L.L.L.L.L.L.L.L.L.L.L.L.L.L.L.L.L.L.L.L.L.L.G.L.K.n.=.A ! i X 9 *.p.H.G.L.L.L.L.L.L.L.",
"L.L.L.L.L.L.L.L.L.L.L.L.L.L.L.L.L.L.L.L.L.L.L.L.G.J.L.L.J.v.,.7 ~ x ! ] w.z.Z.L.L.L.L.L.L.L.L.L.",
"L.L.L.L.L.L.L.L.L.L.L.L.L.L.L.L.G.G.L.L.L.L.L.L.L.L.L.H.g.} 9 A c S &.y.m.J.L.G.L.L.L.L.L.L.L.L.",
"L.L.L.L.L.L.L.L.L.L.L.L.L.L.L.L.L.L.L.L.L.L.G.L.L.K.C.y.^ d b u p ` 1.M.L.L.G.L.L.L.L.L.L.L.L.L.",
"L.L.L.L.L.L.L.L.L.L.L.L.L.L.L.L.J.L.L.J.L.L.K.L.J.m.9.E y a < $ e [ z.L.G.L.L.L.L.L.L.L.L.L.L.L.",
"L.L.L.L.L.L.L.L.L.L.L.L.L.L.L.L.L.G.G.L.L.K.L.H.k.=.T a u * : w 5.b.J.G.L.K.K.L.L.L.L.L.L.L.L.L.",
"L.L.L.L.L.L.L.L.L.L.L.L.L.L.L.L.L.G.G.L.J.D.C.p.U z n i ; : ] f.C.K.L.L.L.K.K.L.L.L.L.L.L.L.L.L.",
"L.L.L.L.L.L.L.L.L.L.L.L.L.L.L.L.L.K.H.z.q.<.,.` b a a b 0 %.l.H.G.L.L.L.G.L.L.L.G.L.L.L.L.L.L.L.",
"L.L.G.L.L.J.L.L.L.L.L.L.L.L.K.L.D.v.0.L B D t p u u c @.r.m.J.G.G.L.L.L.L.L.L.L.G.L.L.L.L.L.L.L.",
"L.G.L.L.L.L.L.L.L.L.L.J.J.H.D.b.y.Y x n Q M p ; : T 5.z.D.L.L.L.L.L.L.L.L.L.L.L.L.L.L.L.L.L.L.L.",
"L.L.L.L.G.L.G.H.Z.m.v.l.a.e.3.{ x a M a = * a e B a.S.K.L.L.L.L.G.L.L.L.L.L.L.L.L.L.L.L.L.L.L.L.",
"G.G.L.L.H.C.C.g.2.+.K G w n j a l p & * = $ b b +.V.L.G.L.G.G.K.L.L.L.L.L.L.L.L.L.L.L.L.L.L.L.L.",
"K.G.L.J.p.[ ;.#.Q b i b l b ; - % ; ; * - e ! Q 2.H.L.L.L.G.G.J.L.L.L.L.L.L.L.L.L.L.L.L.L.L.L.L.",
"L.L.G.C.&.: a i 1 p p i a u > X 4 v ~ a 1 n ! R i.J.L.L.L.L.L.L.L.L.L.L.L.L.L.L.L.L.L.L.L.L.L.L.",
"G.L.G.l.( p l 1 v W J ^ } { { $.6.a.| ; < D x ..m.G.L.L.L.G.L.L.L.L.L.L.L.L.L.L.L.L.L.L.L.L.L.L.",
"G.L.L.g.3 # ; X 3.k.v.z.b.m.m.C.n.i.0 $ a n G p.K.L.G.L.L.J.L.L.L.L.L.L.L.L.L.L.L.L.L.L.L.L.L.L.",
"L.L.J.r.s ; = ~ z.J.K.K.L.G.K.K.b.1.: ; b 9 3.Z.L.L.G.L.L.L.K.L.L.L.L.L.L.L.L.L.L.L.L.L.L.L.L.L.",
"L.L.C.;.g a u =.V.L.G.L.L.L.K.L.M.Y u n v +.v.K.G.L.L.L.L.L.L.L.L.L.L.L.L.L.L.L.L.L.L.L.L.L.L.L.",
"L.K.h.G i l 9 y.H.L.G.L.G.G.L.L.f.S a p R a.D.L.L.L.L.L.L.L.L.L.L.L.L.L.L.L.L.L.L.L.L.L.L.L.L.L.",
"J.K.r.r % h H k.K.G.L.L.L.L.L.Z.=.4 a % E m.L.L.L.L.L.L.L.L.L.L.L.L.L.L.L.L.L.L.L.L.L.L.L.L.L.L.",
"L.N.@.> ; l { V.L.L.L.L.L.L.L.j.v i i $ I M.L.J.L.L.L.L.L.L.L.L.L.L.L.L.L.L.L.L.L.L.L.L.L.L.L.L.",
"L.y.3 = p a <.J.G.L.J.L.L.L.D.4.r f > g -.Z.L.L.L.L.L.L.L.L.L.L.L.L.L.L.L.L.L.L.L.L.L.L.L.L.L.L.",
"Z...f ; m 0 f.K.G.L.L.L.L.K.c.J ; i b ) g.L.L.G.L.L.L.L.L.L.L.L.L.L.L.L.L.L.L.L.L.L.L.L.L.L.L.L.",
"x.;.n n b ] m.L.L.J.K.L.L.D.>.X ; & D 3.m.L.G.L.K.L.L.L.L.L.L.L.L.L.L.L.L.L.L.L.L.L.L.L.L.L.L.L.",
"y.$.c M : ' y.b.M.x.z.m.H.j.0 ; * + q t.K.L.G.L.L.L.L.L.L.L.L.L.L.L.L.L.L.L.L.L.L.L.L.L.L.L.L.L.",
"8.! y h = : 0 ) K B }  .5.' u ; o : 4.Z.G.L.L.L.L.L.L.L.L.L.L.L.L.L.L.L.L.L.L.L.L.L.L.L.L.L.L.L.",
"w.N r D M Q M A e - a 1 # + > > : O.N.J.L.L.L.L.L.L.L.L.L.L.L.L.L.L.L.L.L.L.L.L.L.L.L.L.L.L.L.L.",
"h.} g 1 % # . p l a 1 @ O O % , ^ h.J.G.L.L.L.L.L.L.L.L.L.L.L.L.L.L.L.L.L.L.L.L.L.L.L.L.L.L.L.L.",
"F.s.>.( B G G T 3 r u & > s :.:.p.H.G.L.L.G.L.L.L.L.L.L.L.L.L.L.L.L.L.L.L.L.L.L.L.L.L.L.L.L.L.L.",
"L.J.B.v.k.x.v.k.9.X.| G V F C.L.L.L.L.L.L.K.L.L.L.L.L.L.L.L.L.L.L.L.L.L.L.L.L.L.L.L.L.L.L.L.L.L.",
"L.L.K.L.K.L.G.G.K.H.D.C.b.z.H.L.L.L.L.L.L.L.G.L.L.L.L.L.L.L.L.L.L.L.L.L.L.L.L.L.L.L.L.L.L.L.L.L.",
"L.G.K.G.G.L.G.L.L.L.L.L.L.L.L.K.K.L.L.K.L.L.L.L.L.L.L.L.L.L.L.L.L.L.L.L.L.L.L.L.L.L.L.L.L.L.L.L."
};
