/* XPM */
static const char * AstadeMake_xpm[] = {
"64 64 718 2",
"  	c None",
". 	c #3E3901",
"+ 	c #373300",
"@ 	c #3E3900",
"# 	c #3C3700",
"$ 	c #3B3600",
"% 	c #322E00",
"& 	c #1E1B00",
"* 	c #171603",
"= 	c #1B1900",
"- 	c #161400",
"; 	c #1B1800",
"> 	c #1C1900",
", 	c #191700",
"' 	c #131100",
") 	c #0C0B00",
"! 	c #111000",
"~ 	c #141200",
"{ 	c #292600",
"] 	c #464000",
"^ 	c #5E5600",
"/ 	c #615900",
"( 	c #5A5300",
"_ 	c #4B4500",
": 	c #1A1800",
"< 	c #010100",
"[ 	c #0E0C00",
"} 	c #3D3800",
"| 	c #5F5800",
"1 	c #796F02",
"2 	c #7F7504",
"3 	c #7A7002",
"4 	c #675E00",
"5 	c #4D4700",
"6 	c #2A2600",
"7 	c #020200",
"8 	c #0A0900",
"9 	c #736900",
"0 	c #877C07",
"a 	c #8D820E",
"b 	c #897E0A",
"c 	c #7D7202",
"d 	c #625A00",
"e 	c #383300",
"f 	c #050400",
"g 	c #151300",
"h 	c #7D7303",
"i 	c #8E8410",
"j 	c #938816",
"k 	c #908613",
"l 	c #716800",
"m 	c #433E00",
"n 	c #030300",
"o 	c #1A1700",
"p 	c #807603",
"q 	c #938916",
"r 	c #918613",
"s 	c #8B800C",
"t 	c #776D01",
"u 	c #040300",
"v 	c #3D3804",
"w 	c #403B01",
"x 	c #242100",
"y 	c #131200",
"z 	c #0D0B00",
"A 	c #1D1A00",
"B 	c #6D6400",
"C 	c #867B07",
"D 	c #918714",
"E 	c #958B19",
"F 	c #948A17",
"G 	c #8E830F",
"H 	c #7F7404",
"I 	c #514A00",
"J 	c #302C01",
"K 	c #252200",
"L 	c #272400",
"M 	c #1A1801",
"N 	c #413C03",
"O 	c #262300",
"P 	c #282400",
"Q 	c #0E0D00",
"R 	c #1B1901",
"S 	c #2C2800",
"T 	c #776E01",
"U 	c #8A7F0B",
"V 	c #968C1B",
"W 	c #887D08",
"X 	c #655C00",
"Y 	c #040400",
"Z 	c #050500",
"` 	c #332F00",
" .	c #1D1B00",
"..	c #171500",
"+.	c #0B0A00",
"@.	c #423C02",
"#.	c #292500",
"$.	c #4C4600",
"%.	c #443F00",
"&.	c #2E2A00",
"*.	c #393402",
"=.	c #423D00",
"-.	c #8C810D",
";.	c #8F8411",
">.	c #877C08",
",.	c #736A00",
"'.	c #151400",
").	c #221F00",
"!.	c #393500",
"~.	c #353000",
"{.	c #453F00",
"].	c #413C00",
"^.	c #110F00",
"/.	c #080700",
"(.	c #3D3903",
"_.	c #484200",
":.	c #645C00",
"<.	c #6F6600",
"[.	c #665E00",
"}.	c #554E00",
"|.	c #3A3500",
"1.	c #1C1A00",
"2.	c #242101",
"3.	c #4D4705",
"4.	c #4C4603",
"5.	c #3C3703",
"6.	c #363100",
"7.	c #736A02",
"8.	c #968C19",
"9.	c #8E8310",
"0.	c #827806",
"a.	c #6C6400",
"b.	c #2B2800",
"c.	c #232001",
"d.	c #5C5500",
"e.	c #5E5700",
"f.	c #353100",
"g.	c #060600",
"h.	c #322E01",
"i.	c #1E1C00",
"j.	c #403B00",
"k.	c #7C7202",
"l.	c #857A05",
"m.	c #766D01",
"n.	c #211E00",
"o.	c #201D01",
"p.	c #363201",
"q.	c #544E04",
"r.	c #474102",
"s.	c #312D00",
"t.	c #756C01",
"u.	c #827705",
"v.	c #807609",
"w.	c #7F760C",
"x.	c #7A710C",
"y.	c #7D740C",
"z.	c #7A710A",
"A.	c #7D740A",
"B.	c #807608",
"C.	c #817604",
"D.	c #7D7301",
"E.	c #6B6200",
"F.	c #232000",
"G.	c #3D3801",
"H.	c #454000",
"I.	c #746B00",
"J.	c #796F00",
"K.	c #746B01",
"L.	c #060500",
"M.	c #201E00",
"N.	c #0D0C00",
"O.	c #2F2B00",
"P.	c #4F4900",
"Q.	c #837804",
"R.	c #7D7302",
"S.	c #706700",
"T.	c #1F1C00",
"U.	c #3C3800",
"V.	c #585100",
"W.	c #544D00",
"X.	c #363200",
"Y.	c #070700",
"Z.	c #090800",
"`.	c #090900",
" +	c #121000",
".+	c #222000",
"++	c #655D00",
"@+	c #201D00",
"#+	c #534C00",
"$+	c #7C7101",
"%+	c #837803",
"&+	c #827702",
"*+	c #7F7401",
"=+	c #726900",
"-+	c #565000",
";+	c #544E00",
">+	c #756B00",
",+	c #8D830F",
"'+	c #857A06",
")+	c #736A01",
"!+	c #6C6301",
"~+	c #6A6200",
"{+	c #383400",
"]+	c #100F00",
"^+	c #030200",
"/+	c #1C1A01",
"(+	c #1A1701",
"_+	c #474100",
":+	c #605900",
"<+	c #696000",
"[+	c #686000",
"}+	c #7B7101",
"|+	c #817702",
"1+	c #756C00",
"2+	c #5A5200",
"3+	c #3F3A00",
"4+	c #0F0E00",
"5+	c #4E4800",
"6+	c #6E6500",
"7+	c #908512",
"8+	c #918713",
"9+	c #908612",
"0+	c #8C820E",
"a+	c #817707",
"b+	c #020100",
"c+	c #3B3602",
"d+	c #5C5404",
"e+	c #6E6605",
"f+	c #716806",
"g+	c #6F6606",
"h+	c #6F6708",
"i+	c #736A07",
"j+	c #7B7107",
"k+	c #827707",
"l+	c #7A7007",
"m+	c #625A05",
"n+	c #413C01",
"o+	c #302C00",
"p+	c #776D00",
"q+	c #827703",
"r+	c #827804",
"s+	c #393400",
"t+	c #8F8410",
"u+	c #8F8512",
"v+	c #7A700A",
"w+	c #252201",
"x+	c #575004",
"y+	c #645C04",
"z+	c #4D4702",
"A+	c #3A3600",
"B+	c #645C01",
"C+	c #776E04",
"D+	c #877D09",
"E+	c #82780A",
"F+	c #343000",
"G+	c #7E7303",
"H+	c #887D09",
"I+	c #7C7200",
"J+	c #494300",
"K+	c #2D2900",
"L+	c #474101",
"M+	c #080800",
"N+	c #070600",
"O+	c #6C6300",
"P+	c #8C810E",
"Q+	c #938917",
"R+	c #6A6209",
"S+	c #100E00",
"T+	c #504904",
"U+	c #635B04",
"V+	c #766C02",
"W+	c #756B01",
"X+	c #726801",
"Y+	c #766C00",
"Z+	c #817704",
"`+	c #877C0A",
" @	c #675E02",
".@	c #4D4600",
"+@	c #807604",
"@@	c #897E09",
"#@	c #867B06",
"$@	c #524B00",
"%@	c #8F8511",
"&@	c #928814",
"*@	c #665F07",
"=@	c #000000",
"-@	c #211F01",
";@	c #665E05",
">@	c #453F01",
",@	c #685F00",
"'@	c #786E01",
")@	c #7F7502",
"!@	c #7A7001",
"~@	c #7A7000",
"{@	c #7B7100",
"]@	c #807602",
"^@	c #857B06",
"/@	c #7E7405",
"(@	c #837904",
"_@	c #484201",
":@	c #6D6507",
"<@	c #312D02",
"[@	c #474200",
"}@	c #685F01",
"|@	c #4F4800",
"1@	c #464100",
"2@	c #423C00",
"3@	c #807503",
"4@	c #8A7F0A",
"5@	c #857A07",
"6@	c #847905",
"7@	c #7E7401",
"8@	c #6B6300",
"9@	c #2E2B02",
"0@	c #696105",
"a@	c #796F01",
"b@	c #696100",
"c@	c #443E00",
"d@	c #282500",
"e@	c #141300",
"f@	c #635C00",
"g@	c #181700",
"h@	c #5B5300",
"i@	c #7A6F00",
"j@	c #1E1C01",
"k@	c #6D6405",
"l@	c #635B00",
"m@	c #343001",
"n@	c #3E3902",
"o@	c #595200",
"p@	c #847904",
"q@	c #575000",
"r@	c #7C7201",
"s@	c #433E03",
"t@	c #292602",
"u@	c #1A0315",
"v@	c #891073",
"w@	c #85106F",
"x@	c #8E196F",
"y@	c #9F296F",
"z@	c #A72F6F",
"A@	c #973C52",
"B@	c #7F7503",
"C@	c #181600",
"D@	c #484204",
"E@	c #5F5702",
"F@	c #403A00",
"G@	c #474104",
"H@	c #111001",
"I@	c #060004",
"J@	c #A6148C",
"K@	c #FB1ED4",
"L@	c #F41DCE",
"M@	c #7E4D29",
"N@	c #5D5500",
"O@	c #7A6F02",
"P@	c #413B00",
"Q@	c #786E07",
"R@	c #7D7201",
"S@	c #423D01",
"T@	c #030002",
"U@	c #270420",
"V@	c #F01DCB",
"W@	c #C62597",
"X@	c #645A02",
"Y@	c #4E4700",
"Z@	c #514B05",
"`@	c #675F02",
" #	c #514B00",
".#	c #564F00",
"+#	c #810F6D",
"@#	c #FA1ED3",
"##	c #873D42",
"$#	c #665D01",
"%#	c #837905",
"&#	c #615A00",
"*#	c #7D7309",
"=#	c #5B5400",
"-#	c #817703",
";#	c #12020F",
">#	c #DC1ABA",
",#	c #DB1FB2",
"'#	c #554707",
")#	c #857A09",
"!#	c #121100",
"~#	c #504900",
"{#	c #322E02",
"]#	c #827809",
"^#	c #5F0B50",
"/#	c #96305E",
"(#	c #736905",
"_#	c #8D820F",
":#	c #847906",
"<#	c #605800",
"[#	c #373200",
"}#	c #1F1C01",
"|#	c #1F1D00",
"1#	c #2A2700",
"2#	c #7E7302",
"3#	c #5A5307",
"4#	c #847A05",
"5#	c #080106",
"6#	c #C317A4",
"7#	c #EA1FC2",
"8#	c #432816",
"9#	c #524C01",
"0#	c #232100",
"a#	c #161500",
"b#	c #776E0B",
"c#	c #827704",
"d#	c #827805",
"e#	c #3D0733",
"f#	c #F81ED2",
"g#	c #A5217C",
"h#	c #080600",
"i#	c #817705",
"j#	c #504A00",
"k#	c #2B2803",
"l#	c #857B0E",
"m#	c #040003",
"n#	c #9E1385",
"o#	c #F61DD0",
"p#	c #330927",
"q#	c #8B810F",
"r#	c #5F5700",
"s#	c #867B09",
"t#	c #887E0F",
"u#	c #7E7403",
"v#	c #23041D",
"w#	c #EB1CC7",
"x#	c #B51697",
"y#	c #130E02",
"z#	c #847A0D",
"A#	c #958B18",
"B#	c #7E7402",
"C#	c #867C08",
"D#	c #8A8010",
"E#	c #040209",
"F#	c #030105",
"G#	c #7C0F69",
"H#	c #550F43",
"I#	c #81770C",
"J#	c #948A18",
"K#	c #766C01",
"L#	c #3F3900",
"M#	c #837806",
"N#	c #897F10",
"O#	c #0E1870",
"P#	c #090F45",
"Q#	c #10020D",
"R#	c #DB1AB9",
"S#	c #D419B2",
"T#	c #817013",
"U#	c #2E2B00",
"V#	c #817602",
"W#	c #877D0D",
"X#	c #7A7003",
"Y#	c #060722",
"Z#	c #192FDB",
"`#	c #1629BE",
" $	c #04020B",
".$	c #590A4B",
"+$	c #F91ED2",
"@$	c #AB4367",
"#$	c #595100",
"$$	c #7A7101",
"%$	c #7F7402",
"&$	c #817709",
"*$	c #030004",
"=$	c #122198",
"-$	c #1A32E7",
";$	c #0D1666",
">$	c #BF17A1",
",$	c #EA21C2",
"'$	c #917327",
")$	c #877C09",
"!$	c #534D00",
"~$	c #2D2A00",
"{$	c #0F0D00",
"]$	c #766D00",
"^$	c #7B7105",
"/$	c #090D3E",
"($	c #1A31E4",
"_$	c #182ED6",
":$	c #050519",
"<$	c #35062C",
"[$	c #BE3882",
"}$	c #7A7004",
"|$	c #2E2B01",
"1$	c #211F00",
"2$	c #554F00",
"3$	c #706701",
"4$	c #1629BC",
"5$	c #0F1B7C",
"6$	c #9C1384",
"7$	c #F51DCE",
"8$	c #774927",
"9$	c #3A3502",
"0$	c #2D2901",
"a$	c #0C1560",
"b$	c #1931E1",
"c$	c #20041A",
"d$	c #E81CC4",
"e$	c #C3219A",
"f$	c #312A02",
"g$	c #4A4400",
"h$	c #050517",
"i$	c #182DD0",
"j$	c #1629C0",
"k$	c #030001",
"l$	c #790E66",
"m$	c #5D1642",
"n$	c #101D85",
"o$	c #120F01",
"p$	c #0B0109",
"q$	c #D91AB8",
"r$	c #D219B1",
"s$	c #433D00",
"t$	c #2B2700",
"u$	c #07092A",
"v$	c #1931E2",
"w$	c #1A32E6",
"x$	c #1627B2",
"y$	c #0B0801",
"z$	c #530A45",
"A$	c #C216A3",
"B$	c #706702",
"C$	c #060301",
"D$	c #030106",
"E$	c #1324A8",
"F$	c #192ECA",
"G$	c #322F0B",
"H$	c #272300",
"I$	c #1E1A00",
"J$	c #070106",
"K$	c #B6169A",
"L$	c #EF1DCA",
"M$	c #837805",
"N$	c #8B800D",
"O$	c #897E0B",
"P$	c #544D01",
"Q$	c #231F01",
"R$	c #0A104C",
"S$	c #1A31E5",
"T$	c #1A32E5",
"U$	c #1F2443",
"V$	c #020001",
"W$	c #32062A",
"X$	c #F71DD0",
"Y$	c #837909",
"Z$	c #070301",
"`$	c #04020A",
" %	c #162BC5",
".%	c #1829A5",
"+%	c #373202",
"@%	c #040102",
"#%	c #971280",
"$%	c #928815",
"%%	c #82780B",
"&%	c #1931DE",
"*%	c #3C3D2D",
"=%	c #4C4606",
"-%	c #342E08",
";%	c #1D0318",
">%	c #E61CC3",
",%	c #786E00",
"'%	c #877D0E",
")%	c #443F01",
"!%	c #060720",
"~%	c #182FD8",
"{%	c #243188",
"]%	c #60590A",
"^%	c #928715",
"/%	c #7F7610",
"(%	c #090603",
"_%	c #700D5E",
":%	c #F91ED3",
"<%	c #373201",
"[%	c #928816",
"}%	c #8B8113",
"|%	c #171302",
"1%	c #030003",
"2%	c #122095",
"3%	c #182FD4",
"4%	c #0D0E15",
"5%	c #010000",
"6%	c #312D03",
"7%	c #7C730E",
"8%	c #433C05",
"9%	c #D119B1",
"0%	c #E71CC3",
"a%	c #58510E",
"b%	c #080C38",
"c%	c #0C1668",
"d%	c #2C2902",
"e%	c #6D650B",
"f%	c #8F8513",
"g%	c #7B7205",
"h%	c #5C5400",
"i%	c #0F0C01",
"j%	c #4F0942",
"k%	c #C518A6",
"l%	c #6C6302",
"m%	c #0E0B02",
"n%	c #040108",
"o%	c #1527B3",
"p%	c #162ABF",
"q%	c #0E0E09",
"r%	c #302C02",
"s%	c #575008",
"t%	c #7D730D",
"u%	c #8D8310",
"v%	c #6A6201",
"w%	c #B21596",
"x%	c #242001",
"y%	c #0C135A",
"z%	c #504164",
"A%	c #866427",
"B%	c #8A6828",
"C%	c #8B6928",
"D%	c #8A6827",
"E%	c #876523",
"F%	c #886523",
"G%	c #876422",
"H%	c #79581D",
"I%	c #69491A",
"J%	c #583919",
"K%	c #523419",
"L%	c #503219",
"M%	c #533419",
"N%	c #553619",
"O%	c #290C1A",
"P%	c #20041B",
"Q%	c #4E0941",
"R%	c #2C2900",
"S%	c #575100",
"T%	c #262301",
"U%	c #040101",
"V%	c #050415",
"W%	c #3A29CB",
"X%	c #F61ED1",
"Y%	c #121003",
"Z%	c #342F00",
"`%	c #0C0902",
" &	c #0F1B7E",
".&	c #1C31E3",
"+&	c #B21FC2",
"@&	c #181601",
"#&	c #3B3700",
"$&	c #4B4501",
"%&	c #07092B",
"&&	c #1930DE",
"*&	c #5826C7",
"=&	c #1323A1",
"-&	c #1E2FDC",
";&	c #D01EC5",
">&	c #E61BC3",
",&	c #040201",
"'&	c #0A0F47",
")&	c #272BCE",
"!&	c #6525C4",
"~&	c #7A178B",
"{&	c #C618A7",
"]&	c #3F3A02",
"^&	c #070500",
"/&	c #162AC0",
"(&	c #1427B2",
"_&	c #07020D",
":&	c #AF1594",
"<&	c #0D176B",
"[&	c #192FDA",
"}&	c #2A0523",
"|&	c #D219B2",
"1&	c #06061D",
"2&	c #0C1562",
"3&	c #8A1074",
"4&	c #F51DCF",
"5&	c #111F8F",
"6&	c #1930E0",
"7&	c #172ABC",
"8&	c #172BBA",
"9&	c #182BBA",
"0&	c #192CBA",
"a&	c #1A2DBA",
"b&	c #182CBA",
"c&	c #172ABA",
"d&	c #1529BA",
"e&	c #162ABE",
"f&	c #172CC9",
"g&	c #112094",
"h&	c #150212",
"i&	c #AC1CB2",
"j&	c #B21EBD",
"k&	c #8A199C",
"l&	c #080B35",
"m&	c #1B277F",
"n&	c #080C37",
"o&	c #1528B9",
"p&	c #030107",
"q&	c #1426AF",
"r&	c #192FD9",
"s&	c #232215",
"t&	c #04020D",
"u&	c #1629BD",
"v&	c #182ED4",
"w&	c #0B1357",
"x&	c #2E2B0B",
"y&	c #2B2701",
"z&	c #0E1974",
"A&	c #040310",
"B&	c #172CCC",
"C&	c #172CCD",
"D&	c #0F0D01",
"E&	c #070A31",
"F&	c #162AC3",
"G&	c #162AC2",
"H&	c #1426B0",
"I&	c #1526B1",
"                                                        . + @ # $ % & *                                                         ",
"                                                      + = - ; > , ' ) ! )                                                       ",
"                                                    > ~ { ] ^ / ( _ + : <                                                       ",
"                                                    ! [ } | 1 2 3 4 5 6 7 8                                                     ",
"                                                    : ! 5 9 0 a b c d e 7 f                                                     ",
"                                                    ! g ( h i j k b l m n n                                                     ",
"                                                    ' o / p a q r s t _ u 7                                                     ",
"                      v w x y z                     & A B C D E F G H I 7 7                     J K L M                         ",
"                      N O P : Q R                   S L T U q V E k W X Y Z                   ` '  .L ..+.                      ",
"                    @.#.m $.%.&...A                 *.=.p -.r q j ;.>.,.K '.).              !...~.{.].% ^./.                    ",
"                  (.L _.:.<.[.}.|.1.2.        3.4.5.6.7.b D F V 8.q 9.0.a.=.b.c.          } , @ d.d e.5 f.Q g.                  ",
"                h.i.j.:.k.l.p m.d =.n.o.p.q.r.h.s.$.t.u.v.w.x.y.z.A.B.C.D.E.m L x K F.@ G.> H.E.I.J.K./ _ b.8 L.                ",
"              M.N.O.P.l Q.U -.l.R.S.P.T.x { U.V.[.W.X.= N./.Y.Z.Z.`. +.+} V.++e.P.% F.O @+#+S.$+%+&+*+=+-+!. .< 8               ",
"               +..` ;+>+C G ,+9.s '+D.)+!+<.~+{+]+^+< 7 g. +../+M (+' 8 Z ) x _+:+E.<+[+<.}+%+l.l.>.|+1+2+3+x 8 n               ",
"              4+/.{ 5+6+l.U 7+8+9+0+a s a+_+8 < b+' c+d+e+f+g+h+i+j+k+l+m+n+n.: o+d.p+q+r+%+W U >.C &+l W.s+n.% Z               ",
"                u g.e :+}+>.t+8+u+q D v+w+7 < : x+y+z+A+X.{+@ =.H._ W.B+C+D+E+y+|.F+V.G+H+U W b b %+I+++J+K+L+M+                ",
"                  7 N+m O+Q.P+9.q Q+R+S+< ) T+U+A+s.e %.W.++~+6+l I.V+W+X+Y+Z+s `+ @.@( +@@@b 0 #@D.<.$@F+L+                    ",
"                    n 8 I }+0 %@&@*@+.=@-@;@>@o+e P.,@'@)@D.!@!@!@~@{@]@Q.l.^@'+U a /@:.~+(@>.#@&+J.d |._@`.                    ",
"                      /.{ a.C ,+:@N.< <@;@+ F+[@}@!@{@S.^ |@1@2@]._+W.:.S.1+3@>.W 4@s 5@K.~@6@l.7@8@=.|.Z.                      ",
"                        ` | Q.l+- =@9@0@X.!.( a@!@b@c@s.% d@d@' e@: ~ : s.$@<+,.p #@>.>.l.)@Q.'+I+f@).+.                        ",
"                        g@h@i@K+=@j@k@!.@ l@I+=+P.m@n@2./.<         7 g.8 [ % o@~+!@q+]@|+l.p@#@'@/ y <                         ",
"                        ~ q@5+Y 8 :@c@@ X r@E.c@s@t@7                   u@v@w@x@y@z@A@~@I.'@>.H+B@/ C@<                         ",
"                      .+1.d., < D@E@F@d *+B 3+G@H@f                     I@J@K@K@K@K@L@M@<+N@O@H+'+E.% =@                        ",
"                      , } P@n g Q@_+o@R@S.2@S@)                       T@T@U@V@K@K@K@K@W@X@Y@-+0.H+'@.@M+7                       ",
"                    &.- V.x < Z@`@ #3 !@.#f.Q                         T@T@T@+#K@K@K@K@@###Y@f.$#U %#&#M.< T.                    ",
"                    F.$ d.) +.*#=#E.-#~+&.=                         T@T@T@T@;#>#K@K@K@K@,#'#{ @ )#U )+%.N.!#                    ",
"    e F.K+s.` e # L P a.~#Y {#]#:.+@'@#+1.n                         T@T@T@T@T@^#@#K@K@K@K@/#6 1.(#_#:#<#3+f.&.A+s+[#f.% x }#    ",
"  |#8 ~  .F.L 1#` 5 K.2#=.n 3#/@)+4#S.o+4+f                       T@T@T@T@T@T@5#6#K@K@K@K@7#8#[ 9#9.,+K.o@5+{.[#K+L 0#1.a#Q L.  ",
"   +L j.q@[.B t }+r+>.r+$ N.b#c#d#'+<+i.7                         T@T@T@T@T@T@T@e#f#K@K@K@K@g#h#` ,+7+i#l@o@j#1@# e o+O : M+<   ",
"k#..+ W.a.R@%+#@H+s a 5@s+; l#W @@+@( ]+<                       T@T@T@T@T@T@T@T@m#n#K@K@K@K@o#p#1.q#q b 6+:.r# #5+$.j.~.K 4+=@  ",
"2.n.3+d }+>.U -.i i i s#@ O t#,+a u#o@+.7                     T@T@T@T@T@T@T@T@T@T@v#w#K@K@K@K@x#y#z#A#0+S.~+:.N@o@;+J+3+K+' <   ",
"  F.2@:.B#b -.a G 9.a C#m b.D#7+_#1 }.Y.7                     T@T@T@T@T@E#F#T@T@T@T@G#K@K@K@K@@#H#I#J#i K#8@/ / <#.#~#1@o+e@<   ",
"  F.L#r#}+#@H+s s _#a M#].&.N#D G 1 ;+M+7                   T@T@T@T@T@T@O#P#T@T@T@T@Q#R#K@K@K@K@S#T#E %@t.l@/ <#=#;+I {.U#~ <   ",
"   .` 5 [+!@V#4#0 b b C.J+f.W#F G X#q@8 <                   T@T@T@T@T@Y#Z#`# $T@T@T@T@.$+$K@K@K@K@@$F G [+e.d.#$~#|@J+# { ! 7 +.",
"  ! K A+5 d.++B I.$$r+%$q@U.&$F t+R.=#g <                 T@T@T@T@T@*$=$-$-$;$T@T@T@T@5#>$K@K@K@K@,$'$)$^ !$ #_.=.3+|.~$n.{$Y ) ",
"  g.+.> O o+f.# m o@S.]$[.5+^$D G 3@l@&.f                 T@T@T@T@T@/$($-$-$_$:$T@T@T@T@<$o#K@K@K@K@[$}$#+H.F+{ O x |#C@y |$n   ",
"  7 Z.> 1$1$).@+~ ]+` ++[+2$3$P+U r+O+_ ~ L.            T@T@T@T@T@F#4$-$-$-$-$5$T@T@T@T@m#6$K@K@K@K@7$8$@ 9$0$n.).1$).K ).y Z   ",
"                  7 7 [#r#^ B C l.V#<.( o+-           T@T@T@T@T@T@a$-$-$-$-$b$  T@T@T@T@T@c$d$K@K@K@K@e$f$R <     7 7 7 f       ",
"                    N+, 5+d 6+7@D.=+S.d g$K+..        T@T@T@T@T@h$i$-$-$-$-$j$    k$T@T@T@T@l$K@K@K@K@+$m$Y                     ",
"                      y !.d.<.7@'@<#l@[+o@c@S  .    T@T@T@T@T@T@n$-$-$-$-$Z#    b.o$T@T@T@T@p$q$K@K@K@K@r$                      ",
"                      4+@+!$O+%$C.( _.o@/  #s$t$-@  T@T@T@T@T@u$v$-$-$-$w$x$  U#).F@y$T@T@T@T@z$+$K@K@K@K@A$                    ",
"                      '  ._.E.Q.H+B$6.F+W.:+~#m K+C$T@T@T@T@D$E$-$-$-$-$F$G$F.H$J+P.I$T@T@T@T@J$K$K@K@K@K@L$                    ",
"                        S _ ++M$N$O$P$@+d@H..# #Q$T@T@T@T@T@R$S$-$-$-$T$U$1.{+_ _ ~$f V$T@T@T@T@W$X$K@K@K@K@r$                  ",
"                        X.W.&#}+s %@Y$j.]+- [#s$Z$T@T@T@T@`$ %-$-$-$-$.%+%_ 5+1@n.f =@^+@%T@T@T@T@#%K@K@K@K@X$                  ",
"                        S !$/ S.6@;.$%%%s+M+g.y$T@T@T@T@T@O#-$-$-$-$&%*%P.g$s.! < =@f =%-%T@T@T@T@;%>%K@K@K@K@>#                ",
"                    *.O @ I :.B ,%H+&@J#'%)%L.V$T@T@T@T@!%~%-$-$-$-${%# L ^.^+=@=@) ]%^%/%(%T@T@T@T@_%K@K@K@K@:%                ",
"                  <%).s.c@.#:.<.,.~@b [%E }%|%T@T@T@T@1%2%-$-$-$-$3%4%f 5%=@=@Y 6%7%r D E 8%T@T@T@T@p$9%K@K@K@K@0%              ",
"                F+T.{ s+_ .#/ :.[+<+9 5@r a%T@T@T@T@T@b%($-$-$-$-$c%=@=@=@Z d%e%f%_#D 7+g%h%i%T@T@T@T@j%:%K@K@K@K@k%            ",
"                > T.1#j.$@r#d d l@/ / ++l%m%T@T@T@T@n%o%-$-$-$-$p%q%> r%s%t%^%_#-.u%B.v%.#$@6.T@T@T@T@I@w%K@K@K@K@L$            ",
"              @+~ & &.=.P.V.N@e.N@o@}.$@x%T@T@T@T@T@y%w$-$-$-$-$z%A%B%C%D%E%F%G%H%I%J%K%L%M%N%O%P%P%P%P%Q%X$K@K@K@K@r$          ",
"              4+Y.= R%3+$.;+V.S%j#1@[#T%U%T@T@T@T@V%i$-$-$-$-$W%X%K@K@K@K@K@K@K@K@K@K@K@K@K@K@K@K@K@K@K@K@K@K@K@K@K@o#          ",
"              Y%< ) x Z%].g$5 _ %.F+r.`%T@T@T@T@T@ &-$-$-$-$.&+&K@K@K@K@K@K@K@K@K@K@K@K@K@K@K@K@K@K@K@K@K@K@K@K@K@K@K@>#        ",
"                @&5%4+6 Z%|.#&{+K+$&z k$T@T@T@T@%&&&-$-$-$-$*&f#K@K@K@K@K@K@K@K@K@K@K@K@K@K@K@K@K@K@K@K@K@K@K@K@K@K@K@@#        ",
"                  {$=@]+O S b.K L+S+k$T@T@T@T@*$=&-$-$-$-$-&;&K@K@K@K@K@K@K@K@K@K@K@K@K@K@K@K@K@K@K@K@K@K@K@K@K@K@K@K@K@>&      ",
"                    Z =@+.: C@r.! ,&T@T@T@T@T@'&w$-$-$-$-$)&!&!&!&!&!&!&!&!&!&!&!&!&!&!&!&!&!&!&!&!&!&!&!&!&!&~&+$K@K@K@K@{&    ",
"                      Z b+..]&]+^&T@T@T@T@T@`$/&-$-$-$-$-$-$-$-$-$-$-$-$-$-$-$-$-$-$-$-$-$-$-$-$-$-$-$-$-$-$(&_&:&K@K@K@K@V@    ",
"                          7 7   T@T@T@T@T@T@<&-$-$-$-$-$-$-$-$-$-$-$-$-$-$-$-$-$-$-$-$-$-$-$-$-$-$-$-$-$-$[&%&T@}&V@K@K@K@K@|&  ",
"                                T@T@T@T@T@1&_$-$-$-$-$-$-$-$-$-$-$-$-$-$-$-$-$-$-$-$-$-$-$-$-$-$-$-$-$-$-$2&T@T@T@3&K@K@K@K@4&  ",
"                              T@T@T@T@T@T@5&-$-$-$-$6&7&8&9&0&a&a&0&b&c&d&e&f&f&f&f&f&f&f&f&f&f&f&f&f&f&g&D$T@T@T@h&i&j&j&j&j&k&",
"                              T@T@T@T@T@l&v$-$-$-$-$m&- C@O o++ !.` O e@7 f                               T@T@T@T@n&b$-$-$-$-$o&",
"                                T@T@T@p&q&-$-$-$-$r&s&N.]+= ).{ 6 O > 4+L.N+                                T@T@t&u&-$-$-$-$v&  ",
"                                  T@T@w&w$-$-$-$w$  x&f Z.{$ +- - g  +y&^.+.                                T@T@z&-$-$-$-$($    ",
"                                    A&B&-$-$-$-$C&    D&Z.A ; : : i.F.]+Y                                     E&&&-$-$-$-$F&    ",
"                                    ;$G&G&G&G&G&                Y g.                                            H&H&H&H&I&      "};
