/* XPM */
static const char * Astade_xpm[] = {
"32 32 142 2",
"  	c None",
". 	c #CB18AB",
"+ 	c #10010D",
"@ 	c #F41DCE",
"# 	c #FC1ED5",
"$ 	c #EC1CC7",
"% 	c #030002",
"& 	c #000000",
"* 	c #4A083E",
"= 	c #FF1FDB",
"- 	c #FA1DD3",
"; 	c #FD1ED6",
"> 	c #CB18AC",
", 	c #BA169D",
"' 	c #FB1ED4",
") 	c #F71DD1",
"! 	c #020001",
"~ 	c #3D0633",
"{ 	c #D919B7",
"] 	c #A3138A",
"^ 	c #FF1ED9",
"/ 	c #F91DD2",
"( 	c #020000",
"_ 	c #040003",
": 	c #ED1CC8",
"< 	c #080D3D",
"[ 	c #7E0E6B",
"} 	c #F91DD3",
"| 	c #040413",
"1 	c #1A33F1",
"2 	c #070A2F",
"3 	c #EF1CC9",
"4 	c #FC1ED4",
"5 	c #E81BC4",
"6 	c #1629C0",
"7 	c #1A32E9",
"8 	c #192FDC",
"9 	c #36062E",
"0 	c #FD1ED5",
"a 	c #D619B5",
"b 	c #090E43",
"c 	c #1931E5",
"d 	c #1931E6",
"e 	c #1A32E8",
"f 	c #0A1150",
"g 	c #BC169E",
"h 	c #F71DD0",
"i 	c #010000",
"j 	c #162CC9",
"k 	c #1A32E7",
"l 	c #182ED5",
"m 	c #33062B",
"n 	c #FF1FDD",
"o 	c #D419B3",
"p 	c #0E1975",
"q 	c #1B34F0",
"r 	c #1931E3",
"s 	c #94117C",
"t 	c #FF1ED8",
"u 	c #05051D",
"v 	c #182FDB",
"w 	c #1932E7",
"x 	c #182DD3",
"y 	c #13010F",
"z 	c #E51BC2",
"A 	c #F01CCB",
"B 	c #101D86",
"C 	c #7F0F6B",
"D 	c #F81DD2",
"E 	c #070828",
"F 	c #1B34F4",
"G 	c #1527B7",
"H 	c #E91CC5",
"I 	c #EE1CC9",
"J 	c #030006",
"K 	c #192FDD",
"L 	c #3B0731",
"M 	c #DB1ABA",
"N 	c #090D40",
"O 	c #1628BF",
"P 	c #C718A8",
"Q 	c #0A2ED3",
"R 	c #11010E",
"S 	c #101E8B",
"T 	c #1A32EA",
"U 	c #1A31E6",
"V 	c #1731E4",
"W 	c #BC1CBB",
"X 	c #E01BBD",
"Y 	c #DF1BBC",
"Z 	c #DE1BBC",
"` 	c #E81CC4",
" .	c #EB1CC7",
"..	c #EA1CC6",
"+.	c #F31DCD",
"@.	c #050415",
"#.	c #1930DE",
"$.	c #492AD3",
"%.	c #12239F",
"&.	c #1132E5",
"*.	c #C31DBE",
"=.	c #EF1ECF",
"-.	c #EE1ECF",
";.	c #ED1DCF",
">.	c #0A0F49",
",.	c #1A33EE",
"'.	c #1831E2",
").	c #362EDD",
"!.	c #332EDE",
"~.	c #342FE3",
"{.	c #211772",
"].	c #CC17A7",
"^.	c #F51DCF",
"/.	c #030106",
"(.	c #162AC3",
"_.	c #172BCA",
":.	c #03010A",
"<.	c #3F0735",
"[.	c #DC1ABA",
"}.	c #0B1359",
"|.	c #1A32EB",
"1.	c #1B33F0",
"2.	c #070A31",
"3.	c #CB16A4",
"4.	c #FF1DD6",
"5.	c #FF1DD4",
"6.	c #FF1CCD",
"7.	c #040310",
"8.	c #172DCF",
"9.	c #030001",
"0.	c #05229B",
"a.	c #072FD5",
"b.	c #072ED2",
"c.	c #062DCB",
"d.	c #111F93",
"e.	c #090D42",
"f.	c #172BC9",
"g.	c #060826",
"h.	c #172CCC",
"i.	c #030107",
"j.	c #162AC6",
"k.	c #182FDA",
"                                                                ",
"                                                                ",
"                              . . .                             ",
"                            + @ # # $                           ",
"                          % & * = - ; >                         ",
"                          % % & , - ' )                         ",
"                        ! ! % % ~ ; - ' {                       ",
"                      ! % % % % & ] ^ ' /                       ",
"                      % ! % ( ! % _ : - ' $                     ",
"                    % ! % ( < % % ! [ # - }                     ",
"                    ! % ( | 1 2 ( ! _ 3 4 ' 5                   ",
"                  % ! % ( 6 7 8 ( % & 9 ^ - 0 a                 ",
"                  ! % ! b c d e f ! % _ g ' - h                 ",
"                ! ! % i j k k l   ! % ! m n - ' o               ",
"              ! ! % ( p q d r       % % & s t ' -               ",
"              % % % u v k w x       ! % ! y z - ' A             ",
"            % % % ( B e k r           % % i C ^ - D             ",
"            % ! ( E F d e G           % % ! & H ' ' I           ",
"          ! % % J 6 k d K               ! % i L / - # M         ",
"          ! % ( N 7 w e O                 % ! _ P ' - A         ",
"        ! ! ! ! v k k Q                   & & & R ^ ' # a       ",
"      ! ! % ( S T U V W X Y Y Y Y Y Y Y Z `  . ...+.' - ;       ",
"      % % % @.#.d w $.} ' 4 4 4 4 4 4 4 4 4 4 4 4 ' - ' ' 5     ",
"    ! ! ! ( %.T w &.*.=.-.-.-.-.-.-.-.-.-.-.-.-.-.-.;.# - -     ",
"    % % ( >.,.d w '.).!.!.!.!.!.!.!.!.!.!.!.!.!.!.~.{.].' ' ^.  ",
"  % ! % /.(.d k k k k k k k k k k k k k k k k U k _.:.<./ - ' [.",
"% % % ( }.|.d k e e e e e e e e e e e e e e e e 1.2.( & 3.4.5.6.",
"% ! ! 7.T k k 8.                                  ( % 9.0.a.b.c.",
"  ! % d.k d r                                       ! e.d k k f.",
"    g.c e 7 h.                                      i.j.k.k.x   ",
"                                                                ",
"                                                                "};
