/* XPM */
static const char * AstadeMake_xpm[] = {
"32 32 409 2",
"  	c None",
". 	c #262300",
"+ 	c #282400",
"@ 	c #232000",
"# 	c #121100",
"$ 	c #100E00",
"% 	c #443E00",
"& 	c #736901",
"* 	c #655C00",
"= 	c #332F00",
"- 	c #010100",
"; 	c #100F00",
"> 	c #696000",
", 	c #8F8410",
"' 	c #8A7F0A",
") 	c #564F00",
"! 	c #000000",
"~ 	c #343000",
"{ 	c #0E0C00",
"] 	c #141200",
"^ 	c #786E01",
"/ 	c #928714",
"( 	c #908511",
"_ 	c #675E00",
": 	c #2D2900",
"< 	c #201D00",
"[ 	c #3A3401",
"} 	c #242100",
"| 	c #181600",
"1 	c #2E2A00",
"2 	c #877C06",
"3 	c #938916",
"4 	c #928715",
"5 	c #7F7403",
"6 	c #060600",
"7 	c #2C2900",
"8 	c #2C2800",
"9 	c #080700",
"0 	c #302C01",
"a 	c #423D00",
"b 	c #786F01",
"c 	c #6E6600",
"d 	c #3C3700",
"e 	c #1E1B00",
"f 	c #4B4602",
"g 	c #403B02",
"h 	c #3E3901",
"i 	c #6F6601",
"j 	c #8E840E",
"k 	c #8F8513",
"l 	c #8F8511",
"m 	c #8B8009",
"n 	c #6D6400",
"o 	c #282500",
"p 	c #322D00",
"q 	c #312D00",
"r 	c #3E3900",
"s 	c #615A00",
"t 	c #2E2B00",
"u 	c #050400",
"v 	c #1A1800",
"w 	c #1F1C00",
"x 	c #645C00",
"y 	c #897E09",
"z 	c #8B810C",
"A 	c #827704",
"B 	c #474100",
"C 	c #544E00",
"D 	c #353100",
"E 	c #0A0900",
"F 	c #040400",
"G 	c #040300",
"H 	c #060500",
"I 	c #211F00",
"J 	c #514A00",
"K 	c #575000",
"L 	c #433E00",
"M 	c #564E00",
"N 	c #7F7401",
"O 	c #857A04",
"P 	c #7C7200",
"Q 	c #4B4500",
"R 	c #070600",
"S 	c #585100",
"T 	c #857A05",
"U 	c #918612",
"V 	c #8F8512",
"W 	c #91860F",
"X 	c #3B3601",
"Y 	c #383302",
"Z 	c #4C4602",
"` 	c #575003",
" .	c #595303",
"..	c #625A03",
"+.	c #736904",
"@.	c #6E6605",
"#.	c #443F03",
"$.	c #867C07",
"%.	c #867B07",
"&.	c #776D00",
"*.	c #3E3800",
"=.	c #2A2600",
"-.	c #0E0D00",
";.	c #726900",
">.	c #8C810D",
",.	c #908613",
"'.	c #161400",
").	c #232001",
"!.	c #514A02",
"~.	c #796F00",
"{.	c #7D7301",
"].	c #7B7102",
"^.	c #877C0A",
"/.	c #5C5400",
"(.	c #7E7404",
"_.	c #877C08",
":.	c #807601",
"<.	c #322E00",
"[.	c #474200",
"}.	c #8D8109",
"|.	c #1A1700",
"1.	c #343002",
"2.	c #403C01",
"3.	c #524C00",
"4.	c #585000",
"5.	c #413C00",
"6.	c #2B2800",
"7.	c #373300",
"8.	c #5C5500",
"9.	c #8A7E0A",
"0.	c #7B7101",
"a.	c #857905",
"b.	c #746B00",
"c.	c #272400",
"d.	c #3F3A00",
"e.	c #211F02",
"f.	c #494301",
"g.	c #635A00",
"h.	c #6A6100",
"i.	c #3B3701",
"j.	c #1F1C01",
"k.	c #000100",
"l.	c #2A0521",
"m.	c #5D2730",
"n.	c #854A32",
"o.	c #81680F",
"p.	c #7D7302",
"q.	c #877C07",
"r.	c #716800",
"s.	c #1B1900",
"t.	c #433D00",
"u.	c #615903",
"v.	c #5D5500",
"w.	c #6B6100",
"x.	c #332F01",
"y.	c #010000",
"z.	c #2C0424",
"A.	c #FF20E3",
"B.	c #FF1DDA",
"C.	c #D126A1",
"D.	c #565600",
"E.	c #796F04",
"F.	c #1D1A00",
"G.	c #363204",
"H.	c #5B5400",
"I.	c #7E7401",
"J.	c #030002",
"K.	c #9F1286",
"L.	c #FB1ED4",
"M.	c #FF1CDB",
"N.	c #7C3D37",
"O.	c #3A3500",
"P.	c #8D810A",
"Q.	c #4F4900",
"R.	c #0B0A00",
"S.	c #1C1900",
"T.	c #2A2700",
"U.	c #686006",
"V.	c #766D02",
"W.	c #0B0108",
"X.	c #FC1ED5",
"Y.	c #FA1ED3",
"Z.	c #E921BE",
"`.	c #131700",
" +	c #7D7309",
".+	c #7B7105",
"++	c #373200",
"@+	c #302C00",
"#+	c #292600",
"$+	c #181601",
"%+	c #7F7502",
"&+	c #8C8008",
"*+	c #1B1800",
"=+	c #887E09",
"-+	c #867B06",
";+	c #3A3600",
">+	c #740D61",
",+	c #FE1ED6",
"'+	c #FE1DD7",
")+	c #70105A",
"!+	c #595406",
"~+	c #8D820E",
"{+	c #625A00",
"]+	c #514B00",
"^+	c #332E00",
"/+	c #141300",
"(+	c #534C00",
"_+	c #847905",
":+	c #8E8410",
"<+	c #8E830C",
"[+	c #928711",
"}+	c #867B08",
"|+	c #2D2A00",
"1+	c #020000",
"2+	c #E61BC2",
"3+	c #FA1DD3",
"4+	c #F81DD2",
"5+	c #4A4009",
"6+	c #938915",
"7+	c #6E6500",
"8+	c #605800",
"9+	c #595200",
"0+	c #484300",
"a+	c #211E00",
"b+	c #1D1B00",
"c+	c #484100",
"d+	c #8B7F0B",
"e+	c #8A7F08",
"f+	c #938813",
"g+	c #857A08",
"h+	c #1324A9",
"i+	c #49083E",
"j+	c #FF1EDA",
"k+	c #BF3882",
"l+	c #948D12",
"m+	c #655E00",
"n+	c #5E5600",
"o+	c #544D00",
"p+	c #484200",
"q+	c #1E1C00",
"r+	c #030200",
"s+	c #090900",
"t+	c #504A00",
"u+	c #645D00",
"v+	c #4C4600",
"w+	c #8C820F",
"x+	c #887D08",
"y+	c #0D176E",
"z+	c #1A33EF",
"A+	c #0A1150",
"B+	c #020001",
"C+	c #C317A4",
"D+	c #FD1ADA",
"E+	c #8F6C22",
"F+	c #3C3800",
"G+	c #030300",
"H+	c #121000",
"I+	c #1F1E00",
"J+	c #5F5700",
"K+	c #7C7205",
"L+	c #867B05",
"M+	c #03020B",
"N+	c #1A33EB",
"O+	c #1A31E6",
"P+	c #182ED7",
"Q+	c #23041D",
"R+	c #FF1FDB",
"S+	c #D027A0",
"T+	c #2A2D00",
"U+	c #151400",
"V+	c #534D00",
"W+	c #706700",
"X+	c #464000",
"Y+	c #12219A",
"Z+	c #1A32E7",
"`+	c #1931E6",
" @	c #161300",
".@	c #020002",
"+@	c #9A1282",
"@@	c #530D42",
"#@	c #0F0E00",
"$@	c #786D01",
"%@	c #766D03",
"&@	c #3D3800",
"*@	c #5E5700",
"=@	c #403B00",
"-@	c #06092B",
";@	c #1A34F0",
">@	c #1F2E9E",
",@	c #242000",
"'@	c #443F00",
")@	c #090601",
"!@	c #070006",
"~@	c #F91DD2",
"{@	c #E81BC4",
"]@	c #3F3900",
"^@	c #8F840F",
"/@	c #4A4401",
"(@	c #080401",
"_@	c #030001",
":@	c #162AC3",
"<@	c #172FE5",
"[@	c #2D2A01",
"}@	c #4C4700",
"|@	c #010001",
"1@	c #6E0C5D",
"2@	c #FD1ED5",
"3@	c #E01ABD",
"4@	c #2F2B01",
"5@	c #685F00",
"6@	c #857A07",
"7@	c #948A15",
"8@	c #0B1256",
"9@	c #1A33EC",
"0@	c #1932EA",
"a@	c #313962",
"b@	c #0D0C00",
"c@	c #564F09",
"d@	c #2D2806",
"e@	c #E11BBE",
"f@	c #F11CCC",
"g@	c #2B2700",
"h@	c #4E4800",
"i@	c #665E00",
"j@	c #867B09",
"k@	c #8F8516",
"l@	c #1930E0",
"m@	c #162CD0",
"n@	c #79700D",
"o@	c #958A15",
"p@	c #746B09",
"q@	c #000001",
"r@	c #420737",
"s@	c #DE1ABC",
"t@	c #191600",
"u@	c #363200",
"v@	c #0F1B80",
"w@	c #1A32E8",
"x@	c #1731ED",
"y@	c #353941",
"z@	c #524B09",
"A@	c #796F0D",
"B@	c #897D10",
"C@	c #766C09",
"D@	c #585001",
"E@	c #463F00",
"F@	c #221D01",
"G@	c #BB169D",
"H@	c #110F01",
"I@	c #080800",
"J@	c #2D2901",
"K@	c #050418",
"L@	c #1A33EE",
"M@	c #1A31E7",
"N@	c #3C2BD3",
"O@	c #FF1ADD",
"P@	c #FF19DE",
"Q@	c #FF19DF",
"R@	c #FF1ADF",
"S@	c #FF1CDF",
"T@	c #FF1DDF",
"U@	c #FF1FDF",
"V@	c #FF1ED8",
"W@	c #EE1CC9",
"X@	c #393400",
"Y@	c #1425AC",
"Z@	c #1232E6",
"`@	c #DB1ECA",
" #	c #FF1DD5",
".#	c #FF1ED7",
"+#	c #020200",
"@#	c #0D0B00",
"##	c #030100",
"$#	c #080C3C",
"%#	c #1C30E0",
"&#	c #382BD4",
"*#	c #362BD4",
"=#	c #362CD6",
"-#	c #2B197C",
";#	c #F61DCE",
">#	c #E91CC4",
",#	c #172DD1",
"'#	c #1A32E9",
")#	c #650C55",
"!#	c #E81AC0",
"~#	c #0D1668",
"{#	c #1A32EA",
"]#	c #182485",
"^#	c #1B235A",
"/#	c #272E5A",
"(#	c #29305A",
"_#	c #1A235A",
":#	c #0B1458",
"<#	c #162BC5",
"[#	c #172CC8",
"}#	c #060828",
"|#	c #6429D6",
"1#	c #6127D0",
"2#	c #5824BD",
"3#	c #030109",
"4#	c #1832F6",
"5#	c #191700",
"6#	c #090800",
"7#	c #101E8D",
"8#	c #0F1B7F",
"9#	c #182ED4",
"0#	c #131100",
"a#	c #162CCB",
"b#	c #162AC7",
"                            . + @ #                             ",
"                          $ % & * = -                           ",
"                          ; > , ' ) !                           ",
"            ~ {           ] ^ / ( _ !           : <             ",
"          [ ~ } |         1 2 3 4 5 6         7 . 8 9           ",
"        0 a b c d e f g h i j k l m n o   p q r n s t u         ",
"      v w x y z A ) B C D E ! F G H I J K L M N O P Q ; R       ",
"        E S T U V W X ! Y Z `  ...+.@.#.D ^ $.y %.&.*.=.        ",
"          -.;.>.,.'.).!.~ ) ;.~.P {.].$.^./.(._.:.) <.          ",
"            [.}.|.1.2.3.~.4.5.6.o 7.8.].2 9.0.a.b.c.            ",
"            = d.e.f.g.h.i.j.!     k.l.m.n.o.p.q.r.F             ",
"          s.t.! u.v.w.x.y.          z.A.B.C.D.E.5 F.            ",
"          @ r G.H.I.<.            J.! K.L.M.N.O.P.Q.R.          ",
"  S.} T.= _ e U.V./.9             J.J.W.X.Y.Z.`. +.+[.++@+#+v   ",
"$+r n %+2 &+*+=+-+;+            J.J.J.y.>+,+'+)+!+~+{+]+% ^+/+! ",
"< (+_+>.:+<+T.[+}+|+-         J.J.J.1+J.! 2+3+4+5+6+7+8+9+0+a+! ",
"b+c+0.q.d+e+q f+g+7 !         J.J.1+h+1+J.i+j+L.k+l+m+n+o+p+q+r+",
"s+< d.t+u+I.v+w+x+d.        J.J.1+y+z+A+B+! C+3+D+E+t+F+<.. b+G+",
"  H+I+q+u <.J+K+L+{+#       J.J.M+N+O+P+1+J.Q+R+Y.S+T+'.U+H+#   ",
"          R.V+&.W+h.X+S.  J.J.1+Y+Z+`+   @.@! +@L.j+@@          ",
"          #@= $@%@&@*@=@S..@J.-@;@Z+>@,@'@)@J.!@~@3+{@          ",
"            ]@r.^@/@q+]+(@_@1+:@`+<@[@}@c.! |@|@1@,+2@3@        ",
"          4@5.5@6@7@g ! .@B+8@9@0@a@7.b@! c@d@_@! e@3+f@        ",
"        @+g@h@i@7+j@k@|@J.1+l@`+m@! ! e.n@o@p@q@J.r@R+L.s@      ",
"        t@u@K 8+J+v.,@.@1+v@w@x@y@z@A@B@C@D@E@F@J.! G@L.Y.      ",
"      H@I@p v+(+5.J@q@J.K@L@M@N@O@P@P@Q@R@S@S@T@U@U@V@3+L.W@    ",
"        { ; q 1 X@! J.1+Y@`+Z@`@ # # # # # # # # # # #.#3+X.    ",
"          +#@#0 ##J.J.$#z+Z+%#&#*#*#*#*#*#*#*#*#*#*#=#-#;#3+>#  ",
"                .@J.1+,#`+w@'#'#'#'#'#w@w@w@w@w@w@w@,#y.)#V@.#!#",
"              J.J.1+~#{#{#]#^#/#(#_#:#  <#<#<#<#<#[#}#J.! |#1#2#",
"                J.3#Z+`+4#5##@s.b+|.6#                1+7#w@Z+  ",
"                  8#9#9#    0#  ;                       ,#a#b#  "};
