/* XPM */
static char *Astade[] = {
/* columns rows colors chars-per-pixel */
"48 48 256 2",
"   c #BB177B",
".  c #B50F7F",
"X  c #FD0B0A",
"o  c #FA0B08",
"O  c #FB140D",
"+  c #F41B1A",
"@  c #F91716",
"#  c #F31518",
"$  c #EA0D37",
"%  c #F30A21",
"&  c #FB1C25",
"*  c #F51828",
"=  c #F1183C",
"-  c #EA1234",
";  c #F7211D",
":  c #E9201F",
">  c #E72A29",
",  c #EE2936",
"<  c #F42423",
"1  c #F4292A",
"2  c #FC2324",
"3  c #FB242B",
"4  c #FB2B2C",
"5  c #F62629",
"6  c #FC2C32",
"7  c #F62937",
"8  c #FA322B",
"9  c #F3332D",
"0  c #F5333C",
"q  c #F43B3C",
"w  c #FB3333",
"e  c #FB3B3A",
"r  c #F53537",
"t  c #E53438",
"y  c #CD1C49",
"u  c #D71457",
"i  c #D90E56",
"p  c #C5097A",
"a  c #C7177A",
"s  c #D50362",
"d  c #D51973",
"f  c #D31B6C",
"g  c #D92E56",
"h  c #CC267A",
"j  c #DB276A",
"k  c #D82876",
"l  c #DC346B",
"z  c #D73476",
"x  c #C62D70",
"c  c #E61B4A",
"v  c #F11C46",
"b  c #E41251",
"n  c #E51A60",
"m  c #EB2948",
"M  c #E52556",
"N  c #E43848",
"B  c #E9345A",
"V  c #F32844",
"C  c #F0295B",
"Z  c #FC3C42",
"A  c #F83945",
"S  c #F33959",
"D  c #E52A64",
"F  c #EA3766",
"G  c #E33175",
"H  c #F33D66",
"J  c #F43D72",
"K  c #F7423A",
"L  c #DE4B49",
"P  c #D95E5E",
"I  c #D4437E",
"U  c #DB615D",
"Y  c #DD7C79",
"T  c #EB4243",
"R  c #E74547",
"E  c #E74855",
"W  c #E95357",
"Q  c #FA4241",
"!  c #FD414A",
"~  c #FD4C4C",
"^  c #F34849",
"/  c #FE4D51",
"(  c #F54855",
")  c #FF534E",
"_  c #FC595C",
"`  c #F55857",
"'  c #E2504C",
"]  c #E8466C",
"[  c #E54677",
"{  c #F64965",
"}  c #F95B64",
"|  c #F55673",
" . c #F15272",
".. c #E8615C",
"X. c #F8605A",
"o. c #E96768",
"O. c #E86874",
"+. c #E97877",
"@. c #FD6362",
"#. c #FA6869",
"$. c #FA6876",
"%. c #F9716B",
"&. c #FF787B",
"*. c #FA7376",
"=. c #9B15B3",
"-. c #9F0FB6",
";. c #AB0B9B",
":. c #AA159C",
">. c #B80D8C",
",. c #B50B98",
"<. c #B6128C",
"1. c #BA1889",
"2. c #BB1194",
"3. c #B31795",
"4. c #A70CA5",
"5. c #A717A8",
"6. c #A413B4",
"7. c #B417A7",
"8. c #B112AB",
"9. c #BC2788",
"0. c #B52D8E",
"q. c #A227AC",
"w. c #A834AA",
"e. c #B624A2",
"r. c #AC34B4",
"t. c #9B2DB8",
"y. c #9A28C6",
"u. c #8F32D6",
"i. c #A637D2",
"p. c #AA34C4",
"a. c #921AC8",
"s. c #BC498E",
"d. c #B74DB7",
"f. c #BF6BB1",
"g. c #9B45D9",
"h. c #B557D7",
"j. c #B04ECF",
"k. c #A54CE1",
"l. c #BA59EB",
"z. c #B866CC",
"x. c #AC68DA",
"c. c #B564E3",
"v. c #A86BE3",
"b. c #C31788",
"n. c #CA2488",
"m. c #C92392",
"M. c #CE249B",
"N. c #C23283",
"B. c #C43799",
"V. c #D62884",
"C. c #D93683",
"Z. c #D73996",
"A. c #E12F84",
"S. c #C34798",
"D. c #D24E91",
"F. c #CC56AF",
"G. c #D9789A",
"H. c #CC65B9",
"J. c #D16CAE",
"K. c #E64787",
"L. c #EB5B97",
"P. c #F25980",
"I. c #F75990",
"U. c #E7508C",
"Y. c #E05CA7",
"T. c #F46A84",
"R. c #FE7882",
"E. c #FA7894",
"W. c #E76592",
"Q. c #EA72A8",
"!. c #E979B8",
"~. c #F879A9",
"^. c #E46CA4",
"/. c #C959C4",
"(. c #CE7BCC",
"). c #CF74CC",
"_. c #C677E2",
"`. c #EA6EC3",
"'. c #E874CC",
"]. c #EC817F",
"[. c #BC8FE0",
"{. c #D681B4",
"}. c #FD8384",
"|. c #F98688",
" X c #FB8895",
".X c #FD9595",
"XX c #FD949A",
"oX c #FA9997",
"OX c #EB8A8A",
"+X c #F281AA",
"@X c #F788B5",
"#X c #FC99A7",
"$X c #FA97BA",
"%X c #F7A19F",
"&X c #FEACAD",
"*X c #F8A7A3",
"=X c #F9A0B9",
"-X c #FDB3B3",
";X c #FDBABB",
":X c #FDB7B8",
">X c #F5B3B6",
",X c #D682CC",
"<X c #D881D8",
"1X c #CE90D6",
"2X c #CB89EA",
"3X c #C699FA",
"4X c #D291EE",
"5X c #D9AAFA",
"6X c #D9AAF1",
"7X c #E289C7",
"8X c #F58AC1",
"9X c #F99AC8",
"0X c #EC95CD",
"qX c #E7A4C8",
"wX c #F3A7C7",
"eX c #F9ACD6",
"rX c #FABBC3",
"tX c #FBB9D5",
"yX c #EAB7DD",
"uX c #E7ACE4",
"iX c #E9B7EA",
"pX c #E6BCF7",
"aX c #F6B9E5",
"sX c #EDAEF9",
"dX c #E697EF",
"fX c #FFC1BC",
"gX c #FEC1C2",
"hX c #FFC5C8",
"jX c #FECACA",
"kX c #FBC8C5",
"lX c #FBC9D7",
"zX c #FED3D2",
"xX c #FED9D5",
"cX c #FFDADE",
"vX c #E5C1FC",
"bX c #FDC7E5",
"nX c #F0C2F3",
"mX c #FFDBE6",
"MX c #FAD8F8",
"NX c #E6C9EF",
"BX c #FEE5DC",
"VX c #FFE3E3",
"CX c #FEE4EB",
"ZX c #FFECEA",
"AX c #FFE9E5",
"SX c #FEE3FC",
"DX c #FFEBF1",
"FX c #FDECFC",
"GX c #F7E4FA",
"HX c #FFF3ED",
"JX c #FFF1E5",
"KX c #FEF4F4",
"LX c #FDF3FD",
"PX c #FEFBF4",
"IX c #FEFEFE",
"UX c #F6FFF9",
/* pixels */
"IXIXIXIXIXIXIXIXIXIXIXIXIXIXIXIXIXIXIXIXIXIXIXIXIXIXIXIXIXIXIXIXIXIXIXIXIXIXIXIXIXIXIXIXIXIXIXIX",
"IXIXIXIXIXIXIXIXIXIXIXIXIXIXIXIXIXIXIXIXIXIXIXIXIXIXIXIXIXIXIXIXIXIXIXIXIXIXIXIXIXIXIXIXIXIXIXIX",
"IXIXIXIXIXIXIXIXIXIXIXIXIXIXIXIXIXIXIXIXIXIXIXIXIXIXIXIXIXIXIXIXIXIXIXIXIXIXIXIXIXIXIXIXIXIXIXIX",
"IXIXIXIXIXIXIXIXIXIXIXIXIXIXIXIXIXIXIXIXIXIXIXIXIXIXIXIXIXIXIXIXIXIXIXIXIXIXIXIXIXIXIXIXIXIXIXIX",
"IXIXIXIXIXIXIXIXIXIXIXIXIXIXIXIXIXIXIXIXIXIXIXIXIXIXIXIXIXIXIXIXIXIXIXIXIXIXIXIXIXIXIXIXIXIXIXIX",
"IXIXIXIXIXIXIXIXIXIXIXIXIXIXIXIXIXIXIXIXIXIXIXIXIXIXIXIXIXIXIXIXIXIXIXIXIXIXIXIXIXIXIXIXIXIXIXIX",
"IXIXIXIXIXIXIXIXIXIXIXIXIXIXIXIXIXIXIXIXIXIXIXIXIXIXIXIXIXIXIXIXIXIXIXIXIXIXIXIXIXIXIXIXIXIXIXIX",
"IXIXIXIXIXIXIXIXIXIXIXIXIXIXIXIXIXIXIXIXIXIXIXIXIXIXIXIXIXIXIXIXIXIXIXIXIXIXIXIXIXIXIXIXIXIXIXIX",
"IXIXIXLXUXIXIXIXIXIXIXIXIXIXUXIXIXIXIXIXIXIXPXIXIXIXIXIXIXIXIXIXIXIXFXGXIXIXIXUXIXIXIXIXIXIXIXIX",
"IXIXIXIXNX3X[.pXMXIXUXIXIXIXIXIXIXpX[.vXLXIXIXPXIXIXIXIXIXIXIXIXIXIX5Xv.iXFXIXIXIXIXIXIXIXIXIXIX",
"IXUXUXIX6Xi.p./.(.GXIXIXIXPXIXIXSX[.g.g.1XLXIXIXIXIXIXIXIXIXIXIXIXDX7XJ.G.qXPXUXIXIXIXIXIXIXIXIX",
"IXPXIXCX$XK.F m.w.MXIXIXIXPXLXIXqXlXdXy._.IXUXIXIXIXIXIXIXIXIXIXPX>XO.E.I H.FXUXIXIXIXIXIXIXIXIX",
"IXPXIX-XA + O p 5.nXIXIXUXIXIXKXOX>X(.=.4XPXPXPXIXIXIXIXIXIXIXIXHXOX( | b.j.LXIXIXIXIXIXIXIXIXIX",
"IXPXKX|.< O o p 6.uXIXIXUXIXPXVX..#XF.5.dXPXPXIXIXIXIXIXIXIXIXIXVX*.Q  .,.h.LXPXPXIXIXIXIXIXIXIX",
"IXPXVXo.< X o d 4.7XLXIXIXIXLXhX` }.S.q.uXPXPXIXIXIXIXIXIXIXIXIXxXX.e F ,.h.LXIXPXIXIXIXIXIXIXIX",
"IXPXfX^ @ o o n 4.J.ZXIXIXIXPX&XA *.D.9.bXIXIXIXIXIXIXIXIXIXIXIXhX^ q S 3.h.IXIXIXIXIXIXIXIXIXIX",
"IXPX*X1 o X o b ;.s.mXPXIXUXKXXX> _ [ x MXLXIXPXUXIXIXUXUXIXIXIXhXt w B :.c.LXIXIXIXIXIXIXIXIXIX",
"IXPXXX< X O o $ ,.9.tXPXUXPX;X@.+ Q ( I H.uXLXIXUXIXIXIXIXLXIXIXrX> 8 C ;.l.IXIXIXUXUXIXIXIXIXIX",
"IXZXR.# @ 3 X v ,.1.wXLXUXPX].9 o 7 0 M 3.w.pXIXIXIXIXIXIXIXPXLX-X: 3 C 4.c.IXIXIXIXIXIXIXIXIXIX",
"IXAX` @ 7 C % - >.  #XLXIXCX}.e 2 3 4 7 f :.d.DXIXIXIXIXIXIXUXPX*X< 2 B 4.c.LXPXPXIXIXIXIXIXIXPX",
"LXzXT O f p - 5 b.a +XHXIXlX^ 1 8 4 4 6 c . 0.mXPXIXPXIXIXIXIXDXXX9 < F 5._.IXIXIXUXIXIXIXPXUXLX",
"IXjXA + m.2.H Z h a W.AXIXxX%.> + + v m g D.aXLXUXUXIXIXIXIXIXLX*X_ 9 J :.<XLXUXIXIXIXIXPXUXUXIX",
"PXrXr , e.<.{ / j k | xXIXLXjX#.w 5 f x $XlXIXIXUXIXIXIXIXIXUXPX-X@.r J :.<XPXIXIXIXLXIXIXIXIXIX",
"PX&X< v 3.a | ) g j E kXIXIXCX.X) - 2.w.MXIXUXIXIXIXIXIXUXIXZXxX.X/ r F 5._.PXUXDXtXJ.,XsXMXLXIX",
"IX#X: V h l #./ m j { -XhX;XqX^.( = ,.w.MXPXmXuX2X5XMXIXIXmXoXX.r 8 r G 6.).KXzXO.g y y k w.z.nX",
"HXR.< 0 B B $.! V S A } W ^ C.e.d b ,.w.bXkX XJ.t.d.'.aXtXR.K < @ 2 0 A.6.(.xXP _ @.Z * % i ;.y.",
"JX#.* 4 Z S *.K 8 A + 4 w Z J 7.<.f 2.S.#X*.R.] j D l 0.h 1 5 + # @ 7 C.6.(. X%.#.Z i s % # i -.",
"JX` < K ~ 0 ) w 8 6 @ 8 w r S m.<.d 2.C._ } Q 8 6 2 M ,.u + @ @ & & w V.=.'.O.&.r * s . * X , 5.",
"ZXT < ` ) < 2 2 4 4 + 8 6 , [ h u d ,.A.! q 0 M V = d ;.u @ 3 6 A 4 4 V.=.`.%.) 6 + $ $ % & D w.",
"KXR q &._ e 4 3 4 ; @ w 3 ( 9X .3 n ,.D 6 < D >.z V >.4.b & S x I.A 6 K.q.!.#.w 6 1 3 * v j 7.y.",
"CXL #..X( e e w w & # 6 Z S B.Z., c f m 2 1 V.6.L.m <.,.v 7 C.6.'.T 9 U.w.8X` ; 6 A j 9.7.y.k.5X",
"CX' |.@XK.E Z w 0 A 3 < A A n.8.d c j m 2 0 m.7.I.m <.b.v 0 b.5.@XW A L.d.9X` & e { D.c.3X5XMXIX",
"AXP E.p.r.!. X~ N L.$.Q 4 Q F 4.b.M [ S & 0 h 1.| D 2.b.3 5 V.:.^...( @X,XeX_ 1 ~ I /.SXLXIXIXIX",
"ZXo.~.a.u.uXcX` z t.8X#.q w ! <.5.g E.E.1 4 l a { D 7.m.3 2 D 1.Y.*.( $X1XlXR.K _ F.u.dXFXIXIXLX",
"HXG.@Xt.c.GXzXW B.p.eX-X` 9 ! m.<.g E.~.( < S l { D 7.Z.V ; A [ D.T.~ T.J.qXoX/ } ~.j.u.v.5XpXFX",
"PX*X9X/.iXLXgXt Z.).qXfX.X~ A M.,.F @X).L.V Z $.&.k e.!.` 8 < _  XT.A  .S.aXjXo.@.&.$X).j.k.u.x.",
"IXJXSXiXLXPX&XN | @X:XoX}.} l 5.e.]  X/.p.K.V $.XX[ N.wX&X^ 9 ~ |..X( | S.iXLXkXo.W  X#XwX7X_.g.",
"IXPXIXPXPXIXoXL #XY O.*.| ] 0.d.^.W &.Q.j.r.V.N %.T.I qXmX:X..K %.oX..$.=XyXLXIXxX|.P %..XrXaX).",
"IXIXUXUXPXIXrXY rXrXoXOX^.S.!.bXjX]...|.9Xl.i.~...o.[ s.NXLXBX%XU o.}...OXxXLXPXUXKXkXoXOXG.f.1X",
"PXUXUXIXPXUXLXAXPXPXBXrXqXyXmXKXLXJX:X|.G.j.u.pXJXlX=X=XFXPXPXLXHXBXAX;X*XkXUXPXIXUXPXLXKXGXMXGX",
"PXIXIXIXIXIXIXIXIXIXIXFXVXHXIXIXIXIXLXCXMX1X3XFXIXIXKXPXUXIXIXIXIXIXIXIXKXIXIXPXIXPXIXIXIXPXIXIX",
"IXIXIXIXIXIXIXIXIXIXIXIXIXIXIXIXIXIXIXIXIXIXIXIXIXIXIXIXIXIXIXIXIXIXIXIXIXIXIXIXIXIXIXIXIXIXIXIX",
"IXIXIXIXIXIXIXIXIXIXIXIXIXIXIXIXIXIXIXIXIXIXIXIXIXIXIXIXIXIXIXIXIXIXIXIXIXIXIXIXIXIXIXIXIXIXIXIX",
"IXIXIXIXIXIXIXIXIXIXIXIXIXIXIXIXIXIXIXIXIXIXIXIXIXIXIXIXIXIXIXIXIXIXIXIXIXIXIXIXIXIXIXIXIXIXIXIX",
"IXIXIXIXIXIXIXIXIXIXIXIXIXIXIXIXIXIXIXIXIXIXIXIXIXIXIXIXIXIXIXIXIXIXIXIXIXIXIXIXIXIXIXIXIXIXIXIX",
"IXIXIXIXIXIXIXIXIXIXIXIXIXIXIXIXIXIXIXIXIXIXIXPXIXIXIXIXIXIXIXIXIXIXIXIXIXIXIXIXIXIXIXIXIXIXIXIX",
"IXIXIXIXIXIXIXIXIXIXIXIXIXIXIXIXIXIXIXIXIXIXIXIXIXIXIXIXIXIXIXIXIXIXIXIXIXIXIXIXIXIXIXIXIXIXIXIX",
"IXIXIXIXIXIXIXIXIXIXIXIXIXIXIXIXIXIXIXIXIXIXIXIXIXIXIXIXIXIXIXIXIXIXIXIXIXIXIXIXIXIXIXIXIXIXIXIX"
};
