/* XPM */
static const char * AstadeDraw_xpm[] = {
"32 32 264 2",
"  	c None",
". 	c #8A1074",
"+ 	c #D819B6",
"@ 	c #D919B7",
"# 	c #030002",
"$ 	c #12010F",
"% 	c #FF1EDB",
"& 	c #FB1ED4",
"* 	c #FA1ED3",
"= 	c #EA1BC6",
"- 	c #000000",
"; 	c #820F6E",
"> 	c #FC1ED5",
", 	c #FD1ED5",
"' 	c #F11DCC",
") 	c #FA1DD3",
"! 	c #E41BC1",
"~ 	c #020001",
"{ 	c #580A4A",
"] 	c #FF1ED8",
"^ 	c #FD1ED6",
"/ 	c #D619B5",
"( 	c #D118B0",
"_ 	c #EF1CCA",
": 	c #FB8D8D",
"< 	c #F48888",
"[ 	c #020000",
"} 	c #2D0525",
"| 	c #FF1FDC",
"1 	c #FC1ED4",
"2 	c #D519B4",
"3 	c #ED8383",
"4 	c #E77E7E",
"5 	c #DD7777",
"6 	c #020002",
"7 	c #0F1B7E",
"8 	c #A8138E",
"9 	c #FB1DD4",
"0 	c #FB8A8B",
"a 	c #E07979",
"b 	c #D97474",
"c 	c #D47070",
"d 	c #0F1C84",
"e 	c #1A34F1",
"f 	c #05051A",
"g 	c #0E010C",
"h 	c #FF1ED9",
"i 	c #FA1ED4",
"j 	c #FA37D6",
"k 	c #5E605C",
"l 	c #F1C4C3",
"m 	c #ED8080",
"n 	c #D36E6E",
"o 	c #CC6969",
"p 	c #050519",
"q 	c #1A33EF",
"r 	c #1931E6",
"s 	c #1426B1",
"t 	c #010000",
"u 	c #7C0E68",
"v 	c #E215BF",
"w 	c #5C4E57",
"x 	c #C6C4C4",
"y 	c #C8C9C9",
"z 	c #EFC5C3",
"A 	c #DF7575",
"B 	c #C56464",
"C 	c #BE5F5F",
"D 	c #1425AF",
"E 	c #182FDD",
"F 	c #E82AB1",
"G 	c #F0D596",
"H 	c #A9A8AA",
"I 	c #CCCBCB",
"J 	c #B6B5B4",
"K 	c #979898",
"L 	c #E9BEBD",
"M 	c #D26A6A",
"N 	c #BF5F5F",
"O 	c #B85A5A",
"P 	c #080D3F",
"Q 	c #1A33EE",
"R 	c #1A32E7",
"S 	c #1A32EB",
"T 	c #1426B2",
"U 	c #161002",
"V 	c #EDCE00",
"W 	c #FFEE8A",
"X 	c #FBF6E2",
"Y 	c #AAA9A9",
"Z 	c #9F9D9C",
"` 	c #8C8A89",
" .	c #696967",
"..	c #E2B9B7",
"+.	c #C46060",
"@.	c #182ED6",
"#.	c #182FDC",
"$.	c #040002",
"%.	c #151002",
"&.	c #F4CF00",
"*.	c #FEEE91",
"=.	c #FEF0A8",
"-.	c #FFE37F",
";.	c #F7EBC8",
">.	c #787878",
",.	c #737170",
"'.	c #696665",
").	c #5A5A58",
"!.	c #DDB5B3",
"~.	c #B65656",
"{.	c #0D176C",
"].	c #1A32E9",
"^.	c #1A32E8",
"/.	c #E9C600",
"(.	c #FFF0A8",
"_.	c #FFE383",
":.	c #FEDC5F",
"<.	c #FFC435",
"[.	c #F4D8AB",
"}.	c #515051",
"|.	c #676462",
"1.	c #696765",
"2.	c #605F5E",
"3.	c #03010A",
"4.	c #1A32E6",
"5.	c #172CCD",
"6.	c #FFD900",
"7.	c #FFEF91",
"8.	c #FFDC5F",
"9.	c #FFC53B",
"0.	c #FEA716",
"a.	c #FF9F00",
"b.	c #F3D0A4",
"c.	c #515050",
"d.	c #62605E",
"e.	c #122097",
"f.	c #1930E1",
"g.	c #FFA716",
"h.	c #FFA100",
"i.	c #FE9100",
"j.	c #FF8700",
"k.	c #F0BF9A",
"l.	c #060827",
"m.	c #FFEF92",
"n.	c #FF9100",
"o.	c #FE8900",
"p.	c #FE8706",
"q.	c #FC27BD",
"r.	c #1529C1",
"s.	c #FF9000",
"t.	c #FF8709",
"u.	c #FB28BF",
"v.	c #E31BBF",
"w.	c #0B1152",
"x.	c #1A33EC",
"y.	c #1832EA",
"z.	c #531FA3",
"A.	c #FFDB00",
"B.	c #FFC43B",
"C.	c #F48600",
"D.	c #8A1B60",
"E.	c #FF1ED7",
"F.	c #1930E0",
"G.	c #1A31E6",
"H.	c #2D2CD3",
"I.	c #FF2CC4",
"J.	c #FFD106",
"K.	c #FEEE93",
"L.	c #FC28C1",
"M.	c #FF1FDA",
"N.	c #EE1CC9",
"O.	c #0F1B7F",
"P.	c #1133E9",
"Q.	c #C02EB2",
"R.	c #FED203",
"S.	c #FB1ED3",
"T.	c #040414",
"U.	c #4639B7",
"V.	c #FFD102",
"W.	c #FEEE92",
"X.	c #FFC43A",
"Y.	c #FE8603",
"Z.	c #C128AF",
"`.	c #C41EC3",
" +	c #C41DC3",
".+	c #DC1DC9",
"++	c #1324AA",
"@+	c #0F29E7",
"#+	c #E2DDCA",
"$+	c #FEF3C4",
"%+	c #FFF5D1",
"&+	c #FFE380",
"*+	c #FFA715",
"=+	c #F78707",
"-+	c #2D3AD1",
";+	c #1333E9",
">+	c #1232E3",
",+	c #05010B",
"'+	c #080C39",
")+	c #293FE7",
"!+	c #FFFFEC",
"~+	c #FFF6E0",
"{+	c #FFF3D6",
"]+	c #FFDB5A",
"^+	c #2E3AD1",
"/+	c #1B33EF",
"(+	c #080C3D",
"_+	c #6F0D5D",
":+	c #FE1ED6",
"<+	c #172CD0",
"[+	c #182ED8",
"}+	c #9BA2E9",
"|+	c #FFF8E1",
"1+	c #FFF3D4",
"2+	c #FFF2CE",
"3+	c #FFC02D",
"4+	c #FFA40D",
"5+	c #FF9E00",
"6+	c #FF8900",
"7+	c #F18407",
"8+	c #0E1975",
"9+	c #9B20C0",
"0+	c #9A21C7",
"a+	c #9A21C6",
"b+	c #851DAF",
"c+	c #0C1565",
"d+	c #1A32EA",
"e+	c #FEF5DF",
"f+	c #FEF3D4",
"g+	c #FFF0C9",
"h+	c #FFEDBC",
"i+	c #FFECB4",
"j+	c #FFE7A5",
"k+	c #FFCB6E",
"l+	c #FF8A00",
"m+	c #030001",
"n+	c #090E43",
"o+	c #1934F0",
"p+	c #1832E9",
"q+	c #1833EC",
"r+	c #132BC9",
"s+	c #030006",
"t+	c #182ED7",
"u+	c #FFF6D7",
"v+	c #FFEDBD",
"w+	c #FFEAB1",
"x+	c #FFE7A4",
"y+	c #FFE499",
"z+	c #FFCC6B",
"A+	c #FF8800",
"B+	c #192FDD",
"C+	c #0E1A7B",
"D+	c #172CCE",
"E+	c #D6CDB8",
"F+	c #FFF0BF",
"G+	c #FFE18D",
"H+	c #FFD372",
"I+	c #0D176D",
"J+	c #666668",
"K+	c #897E5F",
"L+	c #FFEAA6",
"M+	c #FFE49B",
"N+	c #FFE290",
"O+	c #4F4F4D",
"                                                                ",
"                                                                ",
"                            . + + @                             ",
"                          # $ % & * =                           ",
"                          # - ; > & ,                           ",
"                        # # # - ' ) ) !                         ",
"                        # # # ~ { ] & ^ /                       ",
"                      # # # # # - ( ) ) _           : <         ",
"                    # # # # [ # # } | & 1 2       : < 3 4 5     ",
"                    # # # 6 7 [ # - 8 & & 9     0 < 3 4 a b c   ",
"                  # # # [ d e f # # g h * i j k l m 4 a b n o   ",
"                  # # # p q r s [ # t u > v w x y z A b n o B C ",
"                # # # [ D r r E t # # - F G H I J K L M o B N O ",
"                # # # P Q R S T   # # U V W X Y Z `  ...+.N O   ",
"              # # # [ @.r r #.    $.%.&.*.=.-.;.>.,.'.).!.~.    ",
"            # # # [ {.].R ^.        /.*.(._.:.<.[.}.|.1.2.      ",
"            # # # 3.].4.R 5.      6.7.(._.8.9.0.a.b.c.d.        ",
"          # # # [ e.R 4.f.      6.7.(._.8.9.g.h.i.j.k.          ",
"          # # # l.e R ^.5.    6.m.(._.8.9.g.h.n.o.p.q.          ",
"        # # # t r.r r @.    6.m.(._.8.9.g.h.s.o.t.u.* v.        ",
"      # # # ~ w.x.R y.z.  A.m.(._.8.B.g.h.s.o.C.D.E.& ^ @       ",
"      # # # [ F.r G.H.I.J.K.(._.8.B.g.h.s.o.p.L.M.) & ) N.      ",
"    # # # [ O.^.R P.Q.R.K.(._.8.B.g.h.s.o.p.u.S.& & & & & /     ",
"    # # # T.q R R U.V.W.(._.8.X.g.h.s.o.Y.Z.`. + + +.+& & )     ",
"  # # # [ ++r R @+#+$+%+&+8.X.*+h.s.o.=+-+;+;+;+;+>+,+9 * * =   ",
"  # # # '+q R R )+!+~+{+]+X.*+h.s.o.=+^+4.R R R /+(+~ _+:+& ,   ",
"# # # t <+r r [+}+|+1+2+3+4+5+s.6+7+  4.R R R R 8+[ # - 9+0+a+b+",
"  # ~ c+d+R ].  e+f+g+h+i+j+k+j.l+                # m+n+o+p+q+r+",
"  # s+^.G.R t+  u+g+v+w+x+y+z+A+                  # [ B+r r F.  ",
"    C+D+D+D+    E+F+w+x+y+G+H+                      I+R R d+    ",
"                J+K+L+M+N+                                      ",
"              O+                                                "};
