/* XPM */
static const char* AstadeDraw_xpm[] = {
"64 64 479 2",
"  	c None",
". 	c #660C56",
"+ 	c #BA169D",
"@ 	c #1E0319",
"# 	c #ED1CC8",
"$ 	c #FB1ED4",
"% 	c #C317A5",
"& 	c #030002",
"* 	c #780E65",
"= 	c #F61DD0",
"- 	c #0B0109",
"; 	c #DD1ABA",
"> 	c #D219B1",
", 	c #500943",
"' 	c #040003",
") 	c #E01BBD",
"! 	c #310629",
"~ 	c #F81ED2",
"{ 	c #B7169B",
"] 	c #97127F",
"^ 	c #EE1CC9",
"/ 	c #160212",
"( 	c #EC1CC7",
"_ 	c #C417A6",
": 	c #730E61",
"< 	c #F51DCF",
"[ 	c #0C0109",
"} 	c #D419B3",
"| 	c #D519B3",
"1 	c #FD8F8F",
"2 	c #FB8E8E",
"3 	c #F78B8B",
"4 	c #49083D",
"5 	c #FA1ED3",
"6 	c #F88B8B",
"7 	c #F48989",
"8 	c #F18686",
"9 	c #EE8484",
"0 	c #B51699",
"a 	c #DF1BBC",
"b 	c #EA8181",
"c 	c #E77E7E",
"d 	c #030003",
"e 	c #2B0524",
"f 	c #B6169A",
"g 	c #E47C7C",
"h 	c #E07979",
"i 	c #DD7777",
"j 	c #0E1A77",
"k 	c #030004",
"l 	c #92117B",
"m 	c #DA7474",
"n 	c #D67171",
"o 	c #080D3C",
"p 	c #1A32E6",
"q 	c #0D1665",
"r 	c #170213",
"s 	c #E71CC3",
"t 	c #C517A6",
"u 	c #ECC1BF",
"v 	c #FA8F8F",
"w 	c #D36F6F",
"x 	c #030104",
"y 	c #1529BC",
"z 	c #1A32E7",
"A 	c #182ED7",
"B 	c #040413",
"C 	c #6E0D5D",
"D 	c #F41DCE",
"E 	c #575150",
"F 	c #DED9D6",
"G 	c #EAC2C0",
"H 	c #F48B8B",
"I 	c #D06C6C",
"J 	c #CC6A6A",
"K 	c #0C1562",
"L 	c #101E8A",
"M 	c #080106",
"N 	c #D519B4",
"O 	c #F91ED2",
"P 	c #B663A4",
"Q 	c #383736",
"R 	c #545352",
"S 	c #E8E4E2",
"T 	c #ECC4C3",
"U 	c #ED8686",
"V 	c #C96767",
"W 	c #C66565",
"X 	c #040310",
"Y 	c #182ED5",
"Z 	c #1A31E3",
"` 	c #07092D",
" .	c #46083B",
"..	c #C258AD",
"+.	c #131313",
"@.	c #A3A09E",
"#.	c #B2B2B2",
"$.	c #CECDCD",
"%.	c #F3F1F0",
"&.	c #EDC8C6",
"*.	c #E78181",
"=.	c #C56565",
"-.	c #C26262",
";.	c #101E89",
">.	c #1325AA",
",.	c #B11595",
"'.	c #FA1ED4",
").	c #952C81",
"!.	c #4F4D4C",
"~.	c #969391",
"{.	c #A8A8A8",
"].	c #E5E4E3",
"^.	c #BABABA",
"/.	c #B5B4B4",
"(.	c #EEECEB",
"_.	c #E9C4C2",
":.	c #E07B7B",
"<.	c #BF6060",
"[.	c #BC5D5D",
"}.	c #060829",
"|.	c #1930DF",
"1.	c #040412",
"2.	c #25041F",
"3.	c #F71ED1",
"4.	c #FB1FD2",
"5.	c #F183C0",
"6.	c #D5D0CE",
"7.	c #474646",
"8.	c #BDBDBD",
"9.	c #E1E0E0",
"0.	c #ADADAD",
"a.	c #D8D6D5",
"b.	c #9E9D9D",
"c.	c #9B9A9A",
"d.	c #EAE7E5",
"e.	c #E5C0BF",
"f.	c #DA7676",
"g.	c #B85A5A",
"h.	c #1324A8",
"i.	c #1426B0",
"j.	c #8A1173",
"k.	c #FC8961",
"l.	c #FDDA13",
"m.	c #EBE0B5",
"n.	c #F2F1F0",
"o.	c #C8C7C7",
"p.	c #C2C1C1",
"q.	c #D1D0CF",
"r.	c #8C8C8B",
"s.	c #CAC8C7",
"t.	c #828281",
"u.	c #81807F",
"v.	c #E5E1DF",
"w.	c #E1BCBA",
"x.	c #D37171",
"y.	c #B65959",
"z.	c #0A104C",
"A.	c #182ED4",
"B.	c #040102",
"C.	c #977B0B",
"D.	c #FFDA00",
"E.	c #FFDD14",
"F.	c #FFF2A9",
"G.	c #F9F6EA",
"H.	c #F1EFEE",
"I.	c #ABABAB",
"J.	c #A9A8A7",
"K.	c #C2C0BF",
"L.	c #6B6A6A",
"M.	c #BCB9B8",
"N.	c #676665",
"O.	c #E0DBD8",
"P.	c #DCB8B6",
"Q.	c #CD6D6D",
"R.	c #030107",
"S.	c #172BC9",
"T.	c #1323A2",
"U.	c #050202",
"V.	c #907A04",
"W.	c #FED900",
"X.	c #FFF2A5",
"Y.	c #FFF5B9",
"Z.	c #FEF1AE",
"`.	c #F6F0E0",
" +	c #EBE9E7",
".+	c #8F8E8E",
"++	c #908E8E",
"@+	c #B2AFAE",
"#+	c #4A4949",
"$+	c #AEABA9",
"%+	c #4B4A49",
"&+	c #DDD8D5",
"*+	c #DAB6B4",
"=+	c #C66868",
"-+	c #0E1973",
";+	c #172CCA",
">+	c #907A05",
",+	c #FFF1A7",
"'+	c #FFE995",
")+	c #FEE58D",
"!+	c #F2EBD6",
"~+	c #E5E2E0",
"{+	c #727271",
"]+	c #777575",
"^+	c #A2A09E",
"/+	c #282727",
"(+	c #A19E9C",
"_+	c #393737",
":+	c #4B4948",
"<+	c #D8B4B2",
"[+	c #C06363",
"}+	c #050518",
"|+	c #1930DD",
"1+	c #917B05",
"2+	c #FFE483",
"3+	c #FFE071",
"4+	c #FEDD6C",
"5+	c #EFE5CB",
"6+	c #DFDCD9",
"7+	c #565555",
"8+	c #5D5B5A",
"9+	c #94918F",
"0+	c #121111",
"a+	c #9F9C9A",
"b+	c #393837",
"c+	c #4A4847",
"d+	c #D6B3B1",
"e+	c #B95E5E",
"f+	c #122199",
"g+	c #1528BA",
"h+	c #957E05",
"i+	c #FFDC5F",
"j+	c #FFD84D",
"k+	c #FDC949",
"l+	c #ECDABD",
"m+	c #D9D5D2",
"n+	c #3B3A39",
"o+	c #4C4B4A",
"p+	c #938F8D",
"q+	c #111110",
"r+	c #9F9B99",
"s+	c #D3AEAC",
"t+	c #080C37",
"u+	c #1A32E5",
"v+	c #1930E0",
"w+	c #FFDA08",
"x+	c #FFF2A6",
"y+	c #FFC63B",
"z+	c #FFB029",
"A+	c #FDAE26",
"B+	c #E9D4B1",
"C+	c #D6D1CF",
"D+	c #373635",
"E+	c #4C4A49",
"F+	c #93908E",
"G+	c #9E9B99",
"H+	c #3A3938",
"I+	c #524E4D",
"J+	c #1527B6",
"K+	c #1526B0",
"L+	c #FFA917",
"M+	c #FFA306",
"N+	c #FDA712",
"O+	c #E9D3AF",
"P+	c #928F8D",
"Q+	c #131312",
"R+	c #9B9795",
"S+	c #0C145C",
"T+	c #182FD8",
"U+	c #FFA100",
"V+	c #FF9F00",
"W+	c #FD9612",
"X+	c #E9CFAF",
"Y+	c #D6D1CE",
"Z+	c #8F8C8A",
"`+	c #04020D",
" @	c #182DD2",
".@	c #1323A4",
"+@	c #FFDD15",
"@@	c #FFA000",
"#@	c #FF8F00",
"$@	c #FF8A00",
"%@	c #FD9211",
"&@	c #E9CEAF",
"*@	c #D6D2CF",
"=@	c #3E3D3C",
"-@	c #101C83",
";@	c #172CCC",
">@	c #FD9111",
",@	c #E18BAC",
"'@	c #060723",
")@	c #1931E3",
"!@	c #FD6451",
"~@	c #FA1FD0",
"{@	c #1629BD",
"]@	c #FFF2A7",
"^@	c #FD6351",
"/@	c #FB20D1",
"(@	c #E21BBF",
"_@	c #090F46",
":@	c #1931E1",
"<@	c #FB1FD0",
"[@	c #B7169A",
"}@	c #030106",
"|@	c #162AC3",
"1@	c #1526B2",
"2@	c #FFDA07",
"3@	c #FD6252",
"4@	c #EA1CC6",
"5@	c #0D176D",
"6@	c #FFC53B",
"7@	c #A45806",
"8@	c #DE1DB8",
"9@	c #C618A7",
"0@	c #050416",
"a@	c #192FDA",
"b@	c #491FA3",
"c@	c #AD1592",
"d@	c #AE1790",
"e@	c #E8A32D",
"f@	c #C05C1E",
"g@	c #5D0C4C",
"h@	c #A5148B",
"i@	c #112092",
"j@	c #252CCE",
"k@	c #EA1CC8",
"l@	c #FD8B5D",
"m@	c #FFF2A8",
"n@	c #FB1FD1",
"o@	c #D019AF",
"p@	c #070A31",
"q@	c #961FB7",
"r@	c #1527B5",
"s@	c #3C28C3",
"t@	c #F51FCC",
"u@	c #FFDD16",
"v@	c #FFF1A6",
"w@	c #FD6253",
"x@	c #E11BBE",
"y@	c #0B1256",
"z@	c #1931E2",
"A@	c #B51FB7",
"B@	c #04020A",
"C@	c #172DCF",
"D@	c #5725BA",
"E@	c #FD8B5C",
"F@	c #FB20D0",
"G@	c #EB1CC6",
"H@	c #0F1B7D",
"I@	c #1B33E3",
"J@	c #BB8D4A",
"K@	c #FFB028",
"L@	c #CE6348",
"M@	c #8121B6",
"N@	c #8020B9",
"O@	c #8120B9",
"P@	c #7F1DA8",
"Q@	c #DE1BBC",
"R@	c #06061F",
"S@	c #838ACB",
"T@	c #FFEA79",
"U@	c #FFE86D",
"V@	c #FFF2B2",
"W@	c #FFF6CB",
"X@	c #FFF2B4",
"Y@	c #FFC53A",
"Z@	c #FFA916",
"`@	c #A66A5A",
" #	c #1C33E4",
".#	c #570A49",
"+#	c #D1D4F3",
"@#	c #FFFBF2",
"##	c #FFFAEC",
"$#	c #FFF8E7",
"%#	c #FFF7E1",
"&#	c #FFF3D1",
"*#	c #A5695B",
"=#	c #1D33E3",
"-#	c #BB169E",
";#	c #D219B2",
">#	c #090E40",
",#	c #3348E8",
"'#	c #FAF7F1",
")#	c #FFF8E6",
"!#	c #FFF5DB",
"~#	c #FFF2CC",
"{#	c #FFDC5E",
"]#	c #172CCB",
"^#	c #040312",
"/#	c #32062A",
"(#	c #030108",
"_#	c #162AC0",
":#	c #717EEA",
"<#	c #FFF4D5",
"[#	c #FFF0C7",
"}#	c #FFDC60",
"|#	c #1A31E4",
"1#	c #080D3D",
"2#	c #981280",
"3#	c #0D1667",
"4#	c #B3B7E9",
"5#	c #FFF2CF",
"6#	c #FFEFC3",
"7#	c #FFD84F",
"8#	c #0F1B7F",
"9#	c #160213",
"0#	c #F6F0E3",
"a#	c #FFF1C9",
"b#	c #FFEFC1",
"c#	c #FFC741",
"d#	c #FFB12A",
"e#	c #FFAA18",
"f#	c #FFA407",
"g#	c #FFA101",
"h#	c #C87523",
"i#	c #2A1D90",
"j#	c #3627BF",
"k#	c #2B1E95",
"l#	c #101E8C",
"m#	c #182DD0",
"n#	c #FFF0C9",
"o#	c #FFEEBD",
"p#	c #FFEAB1",
"q#	c #FFE6A5",
"r#	c #FFE39C",
"s#	c #FFE093",
"t#	c #FFDD89",
"u#	c #FFAB33",
"v#	c #FF8E02",
"w#	c #0A0F48",
"x#	c #07092C",
"y#	c #FFF6DF",
"z#	c #FFECB7",
"A#	c #FFEBB1",
"B#	c #FFE9AB",
"C#	c #FFE7A5",
"D#	c #FFE69F",
"E#	c #FFE49A",
"F#	c #FFB140",
"G#	c #1527B3",
"H#	c #1426B1",
"I#	c #162AC2",
"J#	c #FFF5DA",
"K#	c #FFE394",
"L#	c #FFB23F",
"M#	c #101D87",
"N#	c #182ED3",
"O#	c #0A1150",
"P#	c #FFE499",
"Q#	c #FFE18E",
"R#	c #FFB440",
"S#	c #080D3B",
"T#	c #04030E",
"U#	c #1527B2",
"V#	c #B0A893",
"W#	c #FFE088",
"X#	c #FFB643",
"Y#	c #1629BC",
"Z#	c #1528B8",
"`#	c #1528B7",
" $	c #B4B4B3",
".$	c #E6DCC2",
"+$	c #FFEDBD",
"@$	c #FFDE83",
"#$	c #545453",
"$$	c #CBCBCB",
"%$	c #696868",
"&$	c #9B9070",
"*$	c #FFE28F",
"=$	c #666666",
"-$	c #010101",
";$	c #030302",
">$	c #9C8E69",
",$	c #FFE6A0",
"'$	c #FFE59B",
")$	c #727270",
"!$	c #080705",
"~$	c #565553",
"{$	c #0B0A08",
"                                                                                                                                ",
"                                                                                                                                ",
"                                                                                                                                ",
"                                                                                                                                ",
"                                                        . + + + + + + +                                                         ",
"                                                        @ # $ $ $ $ $ $ %                                                       ",
"                                                      & & * $ $ $ $ $ $ =                                                       ",
"                                                      & & - ; $ $ $ $ $ $ >                                                     ",
"                                                    & & & & , $ $ $ $ $ $ $                                                     ",
"                                                  & & & & & ' + $ $ $ $ $ $ )                                                   ",
"                                                  & & & & & & ! ~ $ $ $ $ $ $ {                                                 ",
"                                                & & & & & & & & ] $ $ $ $ $ $ ^                                                 ",
"                                                & & & & & & & & / ( $ $ $ $ $ $ _                                               ",
"                                              & & & & & & & & & & : $ $ $ $ $ $ <                                               ",
"                                              & & & & & & & & & & [ } $ $ $ $ $ $ |                     1 2 3                   ",
"                                            & & & & & & & & & & & & 4 $ $ $ $ $ $ 5                   1 2 6 7 8 9               ",
"                                          & & & & & & & & & & & & & & 0 $ $ $ $ $ $ a               1 2 6 7 8 9 b c             ",
"                                          & & & & & & & d & & & & & & e < $ $ $ $ $ $ f           1 2 6 7 8 9 b c g h i         ",
"                                        & & & & & & & & j k & & & & & & l $ $ $ $ $ $ ^         1 2 6 7 8 9 b c g h i m n       ",
"                                        & & & & & & & o p q & & & & & & r s $ $ $ $ $ $ t     u v 6 7 8 9 b c g h i m n w       ",
"                                      & & & & & & & x y z A B & & & & & & C $ $ $ $ $ $ D   E F G H 8 9 b c g h i m n w I J     ",
"                                    & & & & & & & & K z z z L & & & & & & M N $ $ $ $ $ O P Q R S T U b c g h i m n w I J V W   ",
"                                    & & & & & & & X Y z z z Z ` & & & & & &  .O $ $ $ O ..+.@.#.$.%.&.*.g h i m n w I J V =.-.  ",
"                                  & & & & & & & & ;.z z z z z >.& & & & & & & ,.$ $ '.).!.~.{.].^./.(._.:.i m n w I J V =.-.<.[.",
"                                  & & & & & & & }.Z z z z z z |.1.& & & & & & 2.3.4.5.6.7.8.9.0.a.b.c.d.e.f.n w I J V =.-.<.[.g.",
"                                & & & & & & & & h.z z z z z z i.  & & & & & & & j.k.l.m.n.o.p.q.r.s.t.u.v.w.x.I J V =.-.<.[.g.y.",
"                                & & & & & & & z.z z z z z z A.      & & & & & B.C.D.E.F.G.H.I.J.K.L.M.N.N.O.P.Q.V =.-.<.[.g.y.  ",
"                              & & & & & & & R.S.z z z z z z T.      & & & & U.V.W.E.X.Y.Z.`. +.+++@+#+$+%+!.&+*+=+-.<.[.g.y.    ",
"                            & & & & & & & & -+z z z z z z ;+          & & B.>+D.E.X.Y.,+'+)+!+~+{+]+^+/+(+_+:+&+<+[+[.g.y.      ",
"                            & & & & & & & }+|+z z z z z p             & B.1+D.E.X.Y.,+'+2+3+4+5+6+7+8+9+0+a+b+c+&+d+e+y.        ",
"                          & & & & & & & & f+z z z z z z g+              h+D.E.X.Y.,+'+2+3+i+j+k+l+m+n+o+p+q+r+b+c+&+s+          ",
"                          & & & & & & & t+u+z z z z z v+              w+D.E.x+Y.,+'+2+3+i+j+y+z+A+B+C+D+E+F+0+G+H+I+            ",
"                        & & & & & & & k J+z z z z z z K+            w+D.E.x+Y.,+'+2+3+i+j+y+z+L+M+N+O+C+D+E+P+Q+R+              ",
"                        & & & & & & & S+z z z z z z T+            w+D.E.x+Y.,+'+2+3+i+j+y+z+L+M+U+V+W+X+Y+D+o+Z+                ",
"                      & & & & & & & `+ @z z z z z z .@          w+D.+@x+Y.,+'+2+3+i+j+y+z+L+M+U+@@#@$@%@&@*@=@                  ",
"                    & & & & & & & & -@z z z z z z ;@          w+D.E.x+Y.,+'+2+3+i+j+y+z+L+M+U+V+#@$@$@$@>@,@                    ",
"                    & & & & & & & '@)@z z z z z p           w+D.+@x+Y.,+'+2+3+i+j+y+z+L+M+U+@@#@$@$@$@$@!@~@                    ",
"                  & & & & & & & & h.z z z z z z {@        w+D.+@]@Y.,+'+2+3+i+j+y+z+L+M+U+V+#@$@$@$@$@^@/@$ (@                  ",
"                  & & & & & & & _@z z z z z z :@        w+D.+@]@Y.,+'+2+3+i+j+y+z+L+M+U+V+#@$@$@$@$@^@<@$ $ $ [@                ",
"                & & & & & & & }@|@z z z z z z 1@      2@D.+@]@Y.,+'+2+3+i+j+y+z+L+M+U+V+#@$@$@$@$@3@<@$ $ $ $ 4@                ",
"              & & & & & & & & 5@z z z z z z Y       w+D.+@]@Y.,+'+2+3+i+j+6@z+L+M+U+V+#@$@$@$@$@7@8@$ $ $ $ $ $ 9@              ",
"              & & & & & & & 0@a@z z z z z z b@c@d@e@D.+@]@Y.,+'+2+3+i+j+6@z+L+M+U+@@#@$@$@$@$@f@g@h@$ $ $ $ $ $ =               ",
"            & & & & & & & & i@z z z z z z j@k@4.l@D.+@m@Y.,+'+2+3+i+j+6@z+L+M+U+V+#@$@$@$@$@3@n@$ $ $ $ $ $ $ $ $ o@            ",
"            & & & & & & & p@u+z z z z z z q@/@l@D.+@]@Y.,+'+2+3+i+j+6@z+L+M+U+V+#@$@$@$@$@3@<@$ $ $ $ $ $ $ $ $ $ $             ",
"          & & & & & & & x r@z z z z z z s@t@l@D.u@m@Y.v@'+2+3+i+j+6@z+L+M+U+V+#@$@$@$@$@w@<@$ $ $ $ $ $ $ $ $ $ $ $ x@          ",
"          & & & & & & & y@z z z z z z z@A@l@D.+@m@Y.v@'+2+3+i+j+6@z+L+M+U+V+#@$@$@$@$@w@<@$ $ $ $ $ $ $ $ $ $ $ $ $ $ f         ",
"        & & & & & & & B@C@z z z z z z D@E@D.u@m@Y.v@'+2+3+i+j+6@z+L+M+U+V+#@$@$@$@$@w@F@$ $ $ $ $ $ $ $ $ $ $ $ $ $ $ G@        ",
"      & & & & & & & & H@z z z z z z I@J@D.u@m@Y.v@'+2+3+i+j+6@K@L+M+U+V+#@$@$@$@$@L@M@N@O@O@O@O@O@O@O@O@P@Q@$ $ $ $ $ $ _       ",
"      & & & & & & & R@:@z z z z z z S@T@U@V@W@X@'+2+3+i+j+Y@K@Z@M+U+V+#@$@$@$@$@`@ #z z z z z z z z z z z..#$ $ $ $ $ $ <       ",
"    & & & & & & & & T.z z z z z z z +#@###$#%#&#2+3+i+j+Y@K@Z@M+U+V+#@$@$@$@$@*#=#z z z z z z z z z z i@& ' -#$ $ $ $ $ $ ;#    ",
"    & & & & & & & >#p z z z z z z ,#'###)#%#!#~#3+{#j+Y@K@Z@M+U+V+#@$@$@$@$@*#=#z z z z z z z z z z ]#^#& & /#~ $ $ $ $ $ $     ",
"  & & & & & & & (#_#z z z z z z z :###)#%#!#<#[#}#j+Y@K@Z@M+U+V+#@$@$@$@$@*#=#z z z z z z z z z z |#1#& & & & 2#$ $ $ $ $ $ )   ",
"  & & & & & & & 3#z z z z z z z z 4#)#%#!#<#5#6#7#Y@K@Z@M+U+V+#@$@$@$@$@*# #z z z z z z z z z z z 8#& & & & & 9#( $ $ $ $ $ $ { ",
"& & & & & & & B A z z z z z z r@  0#%#!#<#5#a#b#c#d#e#f#g#V+#@$@$@$@$@h#                          }@& & & & & & i#j#j#j#j#j#j#k#",
"  & & & & & & l#z z z z z z m#    %#!#<#5#n#6#o#p#q#r#s#t#u#$@$@$@$@v#                              & & & & & w#u+z z z z z v+  ",
"    & & & & x#|#z z z z z z     y#!#<#5#n#6#o#z#A#B#C#D#E#F#$@$@$@v#                                & & & & B C@z z z z z z G#  ",
"    & & & & H#z z z z z z I#    J#<#5#n#6#o#z#A#B#C#D#E#K#L#$@$@v#                                    & & & M#z z z z z z N#    ",
"      & & O#z z z z z z v+      <#5#n#6#o#z#A#B#C#D#P#K#Q#R#$@v#                                      & & S#p z z z z z z       ",
"        T#]#z z z z z z U#      V#n#6#o#z#A#B#C#D#E#K#Q#W#X#v#                                          `+;+z z z z z z Y#      ",
"        S+Z#Z#Z#Z#Z#Z#`#      q+ $.$+$z#A#B#C#D#P#K#Q#W#@$                                                                      ",
"                              #$$$%$&$p#B#C#D#E#K#*$                                                                            ",
"                              {.=$-$;$>$C#,$'$                                                                                  ",
"                            )$=$-$;$!$                                                                                          ",
"                            ~${$                                                                                                "};
