/* XPM */
static const char * const Astade_xpm[] = {
"32 32 189 2",
"  	c None",
". 	c #120C09",
"+ 	c #88186B",
"@ 	c #8C186F",
"# 	c #8F1672",
"$ 	c #06020A",
"% 	c #B41697",
"& 	c #FB1ED4",
"* 	c #86146C",
"= 	c #0B0909",
"- 	c #030002",
"; 	c #4A0A3F",
"> 	c #DD1BB9",
", 	c #040106",
"' 	c #060108",
") 	c #D61AB2",
"! 	c #76135D",
"~ 	c #090708",
"{ 	c #6D0E5D",
"] 	c #C618A5",
"^ 	c #110311",
"/ 	c #ED1CC7",
"( 	c #61124A",
"_ 	c #080508",
": 	c #040004",
"< 	c #90127A",
"[ 	c #AF1691",
"} 	c #040005",
"| 	c #270522",
"1 	c #F91ED2",
"2 	c #F81ED1",
"3 	c #471133",
"4 	c #070408",
"5 	c #05040B",
"6 	c #B31696",
"7 	c #9C157F",
"8 	c #030004",
"9 	c #101D70",
"0 	c #0A113C",
"a 	c #4B0A40",
"b 	c #EF1DC9",
"c 	c #070407",
"d 	c #060715",
"e 	c #1931D7",
"f 	c #14279B",
"g 	c #040105",
"h 	c #050107",
"i 	c #D51AB2",
"j 	c #88146E",
"k 	c #0D0B07",
"l 	c #11207F",
"m 	c #1A32E7",
"n 	c #1A32E3",
"o 	c #080A1E",
"p 	c #030003",
"q 	c #DF1BBB",
"r 	c #060307",
"s 	c #07091E",
"t 	c #1A32DE",
"u 	c #182EC8",
"v 	c #0B0C0C",
"w 	c #10020F",
"x 	c #79145F",
"y 	c #0B0908",
"z 	c #12238D",
"A 	c #132168",
"B 	c #C918A8",
"C 	c #050207",
"D 	c #080C2A",
"E 	c #1A33E4",
"F 	c #172DBD",
"G 	c #0C0A0A",
"H 	c #280523",
"I 	c #62124B",
"J 	c #0C090A",
"K 	c #14279D",
"L 	c #12205C",
"M 	c #B21695",
"N 	c #B11793",
"O 	c #040107",
"P 	c #0A1038",
"Q 	c #1A32E6",
"R 	c #162BB1",
"S 	c #480F35",
"T 	c #0A0808",
"U 	c #152AAC",
"V 	c #111E50",
"W 	c #9C1580",
"X 	c #0C1447",
"Y 	c #1529A4",
"Z 	c #080608",
"` 	c #F11DCA",
" .	c #080607",
"..	c #040207",
"+.	c #162DBA",
"@.	c #1A33E5",
"#.	c #131D44",
"$.	c #110310",
"%.	c #EC1CC7",
"&.	c #8B1570",
"*.	c #0E1757",
"=.	c #152898",
"-.	c #E11BBD",
";.	c #080507",
">.	c #05030B",
",.	c #182FC7",
"'.	c #1A32E2",
").	c #111B38",
"!.	c #280522",
"~.	c #FA1ED2",
"{.	c #7A1461",
"].	c #0E1A67",
"^.	c #202492",
"/.	c #8A146F",
"(.	c #911575",
"_.	c #911574",
":.	c #95147A",
"<.	c #8A1371",
"[.	c #7B0F67",
"}.	c #7F106A",
"|.	c #E91CC4",
"1.	c #CC19AA",
"2.	c #070507",
"3.	c #050511",
"4.	c #1930D2",
"5.	c #1A32DC",
"6.	c #841780",
"7.	c #67134F",
"8.	c #101E76",
"9.	c #26228A",
"0.	c #F01DC9",
"a.	c #B41695",
"b.	c #060306",
"c.	c #060718",
"d.	c #1932DA",
"e.	c #1931D6",
"f.	c #550F52",
"g.	c #A8148D",
"h.	c #A5148B",
"i.	c #A0158A",
"j.	c #A01589",
"k.	c #C217A3",
"l.	c #4C1138",
"m.	c #0C0A09",
"n.	c #122285",
"o.	c #1A33E6",
"p.	c #1B37DD",
"q.	c #1B35E0",
"r.	c #11217F",
"s.	c #190417",
"t.	c #F21DCC",
"u.	c #9E1582",
"v.	c #050206",
"w.	c #080B23",
"x.	c #1A32E0",
"y.	c #132697",
"z.	c #95127D",
"A.	c #F21DCB",
"B.	c #132594",
"C.	c #1426A0",
"D.	c #122190",
"E.	c #13238B",
"F.	c #152786",
"G.	c #14247A",
"H.	c #05030D",
"I.	c #250724",
"J.	c #921787",
"K.	c #46103A",
"L.	c #090E2F",
"M.	c #172CB9",
"N.	c #080407",
"O.	c #050209",
"P.	c #1427A4",
"Q.	c #172DBA",
"R.	c #0B0808",
"S.	c #1428A4",
"T.	c #131F55",
"U.	c #122286",
"V.	c #182ECA",
"W.	c #121930",
"X.	c #0D101B",
"Y.	c #18288D",
"Z.	c #13218C",
"`.	c #111F77",
" +	c #090D25",
".+	c #11208D",
"++	c #18278C",
"@+	c #18278D",
"#+	c #111B3C",
"                              . + @ #                           ",
"                              $ % & & *                         ",
"                            = - ; & & >                         ",
"                            , - ' ) & & !                       ",
"                          ~ - - - { & & ]                       ",
"                          , - - - ^ / & & (                     ",
"                        _ - - - - : < & & [                     ",
"                        } - - - - - | 1 & 2 3                   ",
"                      4 - - 5 , - - , 6 & & 7                   ",
"                      } - 8 9 0 - - - a & & b                   ",
"                    c - - d e f g - - h i & & j                 ",
"                  k 8 - : l m n o - - p { & & q                 ",
"                  r - - s t m u v : - - w / & & x               ",
"                y p - g z m m A   r - - : < & & B               ",
"                C - - D E m F     G - - - H 1 & & I             ",
"              J - - g K m m L       h - - , M & & N             ",
"              O - - P Q m R         ~ - - - ; & & 1 S           ",
"            T - - g U m m V           g - - h i & & W           ",
"            , - - X m m Y             Z - - p { & & `           ",
"           .- - ..+.m @.#.              : - - $.%.& & &.        ",
"          g - p *.m m =.                r - - : < & & -.        ",
"        ;.- - >.,.m '.).                = - - - !.~.& & {.      ",
"        g - : ].m m ^./.(.(.(.(.(._.:.:.<.[.}.}.}.|.& & 1.      ",
"      2.- - 3.4.m 5.6.& & & & & & & & & & & & & & & & & & 7.    ",
"    = : - : 8.m m 9.0.& & & & & & & & & & & & & & & & & & a.    ",
"    b.- - c.d.m e.f.g.g.g.g.g.g.g.h.i.i.i.i.i.i.i.j.k.& & 1 l.  ",
"  m.p - : n.m m o.p.p.p.p.p.p.p.p.q.m m m m m m m r.s.t.& & u.  ",
"  v.- - w.x.m m m m m m m m m m m m m m m m m m y...: z.& & A.  ",
"m.p - g B.m m C.D.D.D.D.D.D.D.E.F.F.F.F.F.F.F.G.H.- - I.J.J.J.K.",
"  g - L.@.m M.                                  N.- O.P.m m Q.  ",
"  R., S.m m T.                                  y g U.m m V.W.  ",
"    X.Y.Z.`.                                       +.+++@+#+    "};
