/* XPM */
static char * attributes_xpm[] = {
"48 48 795 2",
"  	c None",
". 	c #FFFFFF",
"+ 	c #FFFFFD",
"@ 	c #FFFEF9",
"# 	c #FFFBEC",
"$ 	c #FFF7D4",
"% 	c #FFF1B6",
"& 	c #FFECA1",
"* 	c #FFF0B4",
"= 	c #FFF3C2",
"- 	c #FFF5CE",
"; 	c #FFF7D6",
"> 	c #FFF9E0",
", 	c #FFFAE6",
"' 	c #FFF4C5",
") 	c #FFE785",
"! 	c #FFD62C",
"~ 	c #FFCD05",
"{ 	c #FFCC02",
"] 	c #FFCC00",
"^ 	c #FFCD01",
"/ 	c #FFCD02",
"( 	c #FFCD04",
"_ 	c #FFCD06",
": 	c #FFCD07",
"< 	c #FFCE08",
"[ 	c #FFCE09",
"} 	c #FFCE0A",
"| 	c #FFCE0C",
"1 	c #FFCE0D",
"2 	c #FFCE0E",
"3 	c #FFCE0F",
"4 	c #FFCF11",
"5 	c #FFCF14",
"6 	c #FFCF12",
"7 	c #FFD633",
"8 	c #FFE991",
"9 	c #FFF5CD",
"0 	c #FFFBEB",
"a 	c #FFFEF6",
"b 	c #FFFEFB",
"c 	c #FFFDF6",
"d 	c #FFF7DB",
"e 	c #FFEFAF",
"f 	c #FFE474",
"g 	c #FFD83F",
"h 	c #FFD321",
"i 	c #FFD016",
"j 	c #FFD015",
"k 	c #FFD21C",
"l 	c #FFD839",
"m 	c #FFDB51",
"n 	c #FFE26F",
"o 	c #FFE47A",
"p 	c #FFDE5D",
"q 	c #FFD428",
"r 	c #FFCC01",
"s 	c #FFCE03",
"t 	c #FFCC03",
"u 	c #FFCD03",
"v 	c #FFCC04",
"w 	c #FFCD08",
"x 	c #FFD42A",
"y 	c #FFDF5E",
"z 	c #FFEB98",
"A 	c #FFF2B9",
"B 	c #FFFDF7",
"C 	c #FFFEFC",
"D 	c #FFF8DA",
"E 	c #FFD52D",
"F 	c #FFCF13",
"G 	c #FFCE05",
"H 	c #FFD017",
"I 	c #FFCF0D",
"J 	c #FFCE0B",
"K 	c #FFCD09",
"L 	c #FFCD0C",
"M 	c #FFCC05",
"N 	c #FFCE07",
"O 	c #FFDA4A",
"P 	c #FFEEA7",
"Q 	c #FFFBE8",
"R 	c #FFF5C8",
"S 	c #FFDD53",
"T 	c #FFE376",
"U 	c #FFF5D2",
"V 	c #FFFDF5",
"W 	c #FFF0B8",
"X 	c #FFCE06",
"Y 	c #FFCE04",
"Z 	c #FFD012",
"` 	c #FFD21E",
" .	c #FFD52F",
"..	c #FFDC52",
"+.	c #FFF2C3",
"@.	c #FFFCF0",
"#.	c #FFEDA4",
"$.	c #FFCB04",
"%.	c #FFC804",
"&.	c #FFC506",
"*.	c #FFC408",
"=.	c #FFC40A",
"-.	c #FFCD0D",
";.	c #FFD010",
">.	c #FFDD58",
",.	c #FFF4CA",
"'.	c #FFFCEF",
").	c #FFEC9D",
"!.	c #FFD119",
"~.	c #FFCF0C",
"{.	c #FFCF0E",
"].	c #FFCB07",
"^.	c #FFBE07",
"/.	c #FFB709",
"(.	c #FFBC09",
"_.	c #FFA709",
":.	c #FF9508",
"<.	c #F98906",
"[.	c #F89006",
"}.	c #FFCA06",
"|.	c #FFDD52",
"1.	c #FFF4CB",
"2.	c #FFF8DB",
"3.	c #FFE476",
"4.	c #FFCD0A",
"5.	c #FFD115",
"6.	c #FFD736",
"7.	c #FFDB4C",
"8.	c #FFDA48",
"9.	c #FFD840",
"0.	c #FFD73C",
"a.	c #FFD635",
"b.	c #FFD62D",
"c.	c #FFD325",
"d.	c #FFD323",
"e.	c #FFD322",
"f.	c #FFD320",
"g.	c #FFD31E",
"h.	c #FFD11A",
"i.	c #FFBC1A",
"j.	c #FF8C17",
"k.	c #FF7617",
"l.	c #FF841E",
"m.	c #FF771E",
"n.	c #FF5E18",
"o.	c #FF4F14",
"p.	c #A1310B",
"q.	c #AD4A10",
"r.	c #FFD429",
"s.	c #FFD21F",
"t.	c #FFEA99",
"u.	c #FFE682",
"v.	c #FFCF0B",
"w.	c #FFD324",
"x.	c #FFD737",
"y.	c #FFD739",
"z.	c #FFD632",
"A.	c #FFD83B",
"B.	c #FFD014",
"C.	c #FFD00F",
"D.	c #FFBE03",
"E.	c #FF8203",
"F.	c #FF4602",
"G.	c #FF3802",
"H.	c #FF4203",
"I.	c #FF3502",
"J.	c #FF2602",
"K.	c #FF2603",
"L.	c #490D01",
"M.	c #722A04",
"N.	c #FFCF0F",
"O.	c #FFD943",
"P.	c #FFD11C",
"Q.	c #FFC413",
"R.	c #FF8805",
"S.	c #FF3F02",
"T.	c #FF2401",
"U.	c #FF3102",
"V.	c #FF2501",
"W.	c #FF1F01",
"X.	c #FF2001",
"Y.	c #310700",
"Z.	c #8E3102",
"`.	c #FFCC06",
" +	c #FFC816",
".+	c #FF950E",
"++	c #FF4D05",
"@+	c #FF2601",
"#+	c #FF1E01",
"$+	c #FF1901",
"%+	c #FF2101",
"&+	c #FF1E02",
"*+	c #FF2402",
"=+	c #981601",
"-+	c #260500",
";+	c #8C3004",
">+	c #FFC605",
",+	c #FF9905",
"'+	c #FF5503",
")+	c #FF2F01",
"!+	c #FF1A00",
"~+	c #FF0E00",
"{+	c #FF1000",
"]+	c #FF1200",
"^+	c #971000",
"/+	c #8B3102",
"(+	c #FFCF10",
"_+	c #FFD013",
":+	c #FFB904",
"<+	c #FF5801",
"[+	c #FF2C00",
"}+	c #FF2100",
"|+	c #FF1800",
"1+	c #FF0A00",
"2+	c #FF0C00",
"3+	c #FF0B00",
"4+	c #FF0600",
"5+	c #950B00",
"6+	c #2C0700",
"7+	c #8C3201",
"8+	c #FAC905",
"9+	c #FFE16B",
"0+	c #FFDB4B",
"a+	c #FFD83C",
"b+	c #FFD62E",
"c+	c #FFD52A",
"d+	c #FFD734",
"e+	c #FFD019",
"f+	c #FFC405",
"g+	c #FF6A04",
"h+	c #FF2301",
"i+	c #FF1801",
"j+	c #FF1701",
"k+	c #FF0D01",
"l+	c #FF0A01",
"m+	c #FF0800",
"n+	c #FF0400",
"o+	c #8E0901",
"p+	c #360901",
"q+	c #692702",
"r+	c #DAAF07",
"s+	c #FFF7D3",
"t+	c #FFF4C8",
"u+	c #FFEEA9",
"v+	c #FFE88C",
"w+	c #FFE16D",
"x+	c #FFDB48",
"y+	c #FFD01B",
"z+	c #FFD222",
"A+	c #FFCB03",
"B+	c #FF8602",
"C+	c #FF2A01",
"D+	c #FF1301",
"E+	c #FF1201",
"F+	c #FF0F00",
"G+	c #FF0D00",
"H+	c #EC0500",
"I+	c #810800",
"J+	c #660F01",
"K+	c #451901",
"L+	c #C09B09",
"M+	c #FFD93D",
"N+	c #FFD83E",
"O+	c #FFD942",
"P+	c #FFD945",
"Q+	c #FFDB49",
"R+	c #FFDA45",
"S+	c #FFD11B",
"T+	c #FFD733",
"U+	c #FFD42C",
"V+	c #FFD018",
"W+	c #FFCE11",
"X+	c #FFA208",
"Y+	c #FF3A03",
"Z+	c #FF1401",
"`+	c #FF1101",
" @	c #FF1300",
".@	c #FF1B01",
"+@	c #FF1601",
"@@	c #FF2302",
"#@	c #FF1501",
"$@	c #B10800",
"%@	c #610A00",
"&@	c #440900",
"*@	c #501D01",
"=@	c #DDB204",
"-@	c #FFD011",
";@	c #FFD530",
">@	c #FF4802",
",@	c #FF0F01",
"'@	c #FF1001",
")@	c #FF0E01",
"!@	c #FF1A01",
"~@	c #B30500",
"{@	c #640D01",
"]@	c #270500",
"^@	c #5D2301",
"/@	c #FFCC07",
"(@	c #FFCF0A",
"_@	c #FFD118",
":@	c #FFD427",
"<@	c #FFDC50",
"[@	c #FFDC4F",
"}@	c #FFCC20",
"|@	c #FF5D03",
"1@	c #FF0601",
"2@	c #FF1605",
"3@	c #FF2109",
"4@	c #FF1406",
"5@	c #FF1808",
"6@	c #FF1B09",
"7@	c #FF0802",
"8@	c #B00601",
"9@	c #610F03",
"0@	c #200501",
"a@	c #5A2305",
"b@	c #FFD221",
"c@	c #FFD630",
"d@	c #FFD21B",
"e@	c #FFCB27",
"f@	c #FF7510",
"g@	c #FF1902",
"h@	c #FF0500",
"i@	c #FF0B01",
"j@	c #FF1903",
"k@	c #FF1C06",
"l@	c #FF1304",
"m@	c #FF1906",
"n@	c #FF1A06",
"o@	c #FF0902",
"p@	c #B30B02",
"q@	c #851C05",
"r@	c #1F0401",
"s@	c #5B2707",
"t@	c #FFD42B",
"u@	c #FFD62F",
"v@	c #FFC604",
"w@	c #FF8C03",
"x@	c #FF5402",
"y@	c #FF2000",
"z@	c #FF0700",
"A@	c #FF1700",
"B@	c #FF1D01",
"C@	c #EE0B00",
"D@	c #8A0F00",
"E@	c #D62D01",
"F@	c #1F0400",
"G@	c #582801",
"H@	c #FFD426",
"I@	c #FFD52E",
"J@	c #FFA102",
"K@	c #FF6B03",
"L@	c #FF3702",
"M@	c #FF2902",
"N@	c #FF0200",
"O@	c #FF1500",
"P@	c #E20F01",
"Q@	c #6F0F01",
"R@	c #D93903",
"S@	c #210500",
"T@	c #753702",
"U@	c #FFB603",
"V@	c #FF7602",
"W@	c #FF5002",
"X@	c #FF3901",
"Y@	c #FF3B01",
"Z@	c #FF1600",
"`@	c #FF0300",
" #	c #FF2500",
".#	c #E51101",
"+#	c #7B1401",
"@#	c #912501",
"##	c #130300",
"$#	c #854002",
"%#	c #FFB402",
"&#	c #FF7301",
"*#	c #FF4101",
"=#	c #FF3801",
"-#	c #FF2C01",
";#	c #FF0900",
">#	c #E31001",
",#	c #6D0C01",
"'#	c #380B01",
")#	c #0F0200",
"!#	c #8A4204",
"~#	c #FFB103",
"{#	c #FF6F02",
"]#	c #FF3C01",
"^#	c #FF2201",
"/#	c #FF2B01",
"(#	c #FF2400",
"_#	c #FF2102",
":#	c #E00D00",
"<#	c #650A00",
"[#	c #370B00",
"}#	c #120200",
"|#	c #934602",
"1#	c #FFC105",
"2#	c #FF9C02",
"3#	c #FF6501",
"4#	c #FF2801",
"5#	c #FF2901",
"6#	c #FF2600",
"7#	c #FF1B00",
"8#	c #FF2E01",
"9#	c #E10C00",
"0#	c #6A0E00",
"a#	c #320B00",
"b#	c #130400",
"c#	c #974B01",
"d#	c #FFBF05",
"e#	c #FF8902",
"f#	c #FF4902",
"g#	c #FF2D01",
"h#	c #FF1D00",
"i#	c #FF1E04",
"j#	c #FF2D05",
"k#	c #FF2C03",
"l#	c #E00B00",
"m#	c #640E00",
"n#	c #300B00",
"o#	c #150400",
"p#	c #8D4C00",
"q#	c #FFC200",
"r#	c #FF8701",
"s#	c #FF2C02",
"t#	c #FF1A02",
"u#	c #FF2103",
"v#	c #FF1A04",
"w#	c #FF1A05",
"x#	c #FF2B07",
"y#	c #FF2004",
"z#	c #DE0D01",
"A#	c #5F0E01",
"B#	c #330A00",
"C#	c #2A0800",
"D#	c #8C6602",
"E#	c #FFC30B",
"F#	c #FF8707",
"G#	c #FF3B02",
"H#	c #FF2900",
"I#	c #FF2800",
"J#	c #FF1900",
"K#	c #FF2F02",
"L#	c #FF2F00",
"M#	c #FF4201",
"N#	c #FF4303",
"O#	c #DE1101",
"P#	c #5E0E00",
"Q#	c #380A00",
"R#	c #1B0500",
"S#	c #8C7103",
"T#	c #FFC80D",
"U#	c #FF8608",
"V#	c #FF1100",
"W#	c #FF5901",
"X#	c #FF6403",
"Y#	c #FF5302",
"Z#	c #FF3E01",
"`#	c #E11200",
" $	c #6B1400",
".$	c #430D00",
"+$	c #100400",
"@$	c #886E02",
"#$	c #FFCD15",
"$$	c #FF980F",
"%$	c #FF4A07",
"&$	c #FF2E04",
"*$	c #FF3204",
"=$	c #FF2D03",
"-$	c #FF0C01",
";$	c #FF3A01",
">$	c #FF3100",
",$	c #FF4A01",
"'$	c #FF5601",
")$	c #FF1C01",
"!$	c #E21401",
"~$	c #751C01",
"{$	c #421101",
"]$	c #0F0500",
"^$	c #8A6F04",
"/$	c #FFD21D",
"($	c #FFB008",
"_$	c #FF7405",
":$	c #FF4703",
"<$	c #FF2802",
"[$	c #FF0801",
"}$	c #FF2202",
"|$	c #FF1202",
"1$	c #FF4103",
"2$	c #FF6804",
"3$	c #FF5803",
"4$	c #E51700",
"5$	c #872801",
"6$	c #451600",
"7$	c #120800",
"8$	c #977902",
"9$	c #FFC006",
"0$	c #FF9D0B",
"a$	c #FF690A",
"b$	c #FF3604",
"c$	c #FF1B02",
"d$	c #FF5201",
"e$	c #FF8403",
"f$	c #FF6A03",
"g$	c #FF3402",
"h$	c #EA2802",
"i$	c #9D3002",
"j$	c #451C01",
"k$	c #130B00",
"l$	c #AB8901",
"m$	c #FFBF02",
"n$	c #FFA402",
"o$	c #FF8904",
"p$	c #FF4102",
"q$	c #FF2D02",
"r$	c #FF3002",
"s$	c #FF3903",
"t$	c #FF3C03",
"u$	c #FF5003",
"v$	c #FF7103",
"w$	c #FF6C01",
"x$	c #F04902",
"y$	c #B84D02",
"z$	c #4C2602",
"A$	c #3F2A02",
"B$	c #C09B04",
"C$	c #FFC402",
"D$	c #FFA802",
"E$	c #FF8202",
"F$	c #FF4F04",
"G$	c #FF4202",
"H$	c #FF2300",
"I$	c #FF3000",
"J$	c #FF6201",
"K$	c #FF7C01",
"L$	c #FF7501",
"M$	c #FF6F01",
"N$	c #D97301",
"O$	c #543301",
"P$	c #604203",
"Q$	c #D1A90A",
"R$	c #FFD528",
"S$	c #FFD113",
"T$	c #FFCA02",
"U$	c #FFC305",
"V$	c #FFAE09",
"W$	c #FF8207",
"X$	c #FF3F00",
"Y$	c #FF1402",
"Z$	c #FF0901",
"`$	c #FF3E02",
" %	c #FF5202",
".%	c #FF5E01",
"+%	c #FF4901",
"@%	c #FF6C02",
"#%	c #FF7E04",
"$%	c #FF7F04",
"%%	c #FF8104",
"&%	c #B36B03",
"*%	c #4B3001",
"=%	c #855503",
"-%	c #D4AA05",
";%	c #FFAD04",
">%	c #FF4002",
",%	c #FF1C00",
"'%	c #FF3D02",
")%	c #FF6802",
"!%	c #FF7304",
"~%	c #FF6F04",
"{%	c #FF6E04",
"]%	c #B95D03",
"^%	c #593902",
"/%	c #925402",
"(%	c #F5C504",
"_%	c #FFC803",
":%	c #FFB701",
"<%	c #FF9701",
"[%	c #FF3401",
"}%	c #FF3302",
"|%	c #FF3703",
"1%	c #FF4105",
"2%	c #FF4F08",
"3%	c #FF510A",
"4%	c #FF4106",
"5%	c #FF6902",
"6%	c #FF5F03",
"7%	c #C55104",
"8%	c #674203",
"9%	c #814803",
"0%	c #FFD527",
"a%	c #FFE67F",
"b%	c #FFC602",
"c%	c #FFAF01",
"d%	c #FF8501",
"e%	c #FF5B01",
"f%	c #FF1E00",
"g%	c #FF1C02",
"h%	c #FF6D05",
"i%	c #FF6904",
"j%	c #D15702",
"k%	c #6C4303",
"l%	c #875D04",
"m%	c #FFF3C1",
"n%	c #FFD631",
"o%	c #FFC802",
"p%	c #FFBC02",
"q%	c #FFB102",
"r%	c #FFAB01",
"s%	c #FF9F00",
"t%	c #FF8301",
"u%	c #FF6801",
"v%	c #FF6100",
"w%	c #FF5500",
"x%	c #FF1400",
"y%	c #FF3101",
"z%	c #FF4801",
"A%	c #FF6901",
"B%	c #D35300",
"C%	c #7A4401",
"D%	c #A77E01",
"E%	c #FFCA03",
"F%	c #FFDB4A",
"G%	c #FFBF07",
"H%	c #FF9411",
"I%	c #FF6D0D",
"J%	c #FF5909",
"K%	c #FF4906",
"L%	c #FF3D06",
"M%	c #FF3705",
"N%	c #FF3905",
"O%	c #FF3F06",
"P%	c #FF3202",
"Q%	c #FF1F02",
"R%	c #FF2002",
"S%	c #FF2B06",
"T%	c #FF2A06",
"U%	c #FF2B05",
"V%	c #FF4001",
"W%	c #FF3F01",
"X%	c #FF2200",
"Y%	c #FF5C02",
"Z%	c #FF7603",
"`%	c #FF5F02",
" &	c #D84902",
".&	c #924402",
"+&	c #E09506",
"@&	c #FFC205",
"#&	c #FFF8DF",
"$&	c #FFC014",
"%&	c #FF8A1D",
"&&	c #FF4C0F",
"*&	c #FF2D07",
"=&	c #FF2404",
"-&	c #FF2503",
";&	c #FF3201",
">&	c #FF3B03",
",&	c #FF2105",
"'&	c #FF2207",
")&	c #FF2408",
"!&	c #FF2707",
"~&	c #FF2F07",
"{&	c #FF3707",
"]&	c #FF3E07",
"^&	c #FF3405",
"/&	c #FF2E03",
"(&	c #FF5204",
"_&	c #FF6003",
":&	c #FF5701",
"<&	c #E34E00",
"[&	c #B15101",
"}&	c #F59804",
"|&	c #FFBC08",
"1&	c #FFCB09",
"2&	c #FFEBA1",
"3&	c #FFFCEB",
"4&	c #FFC209",
"5&	c #FF9006",
"6&	c #FF4B03",
"7&	c #FF1702",
"8&	c #FF1302",
"9&	c #FF1C04",
"0&	c #FF3206",
"a&	c #FF4403",
"b&	c #FF4903",
"c&	c #FF3602",
"d&	c #FF2B02",
"e&	c #FF5705",
"f&	c #FF6B06",
"g&	c #FF7606",
"h&	c #FF7005",
"i&	c #FF6D04",
"j&	c #FF6F03",
"k&	c #EB7302",
"l&	c #CA7901",
"m&	c #FFB801",
"n&	c #FFC801",
"o&	c #FFCB01",
"p&	c #FFF1B7",
"q&	c #FFFCF2",
"r&	c #FFE57A",
"s&	c #FFC805",
"t&	c #FFA907",
"u&	c #FF6C05",
"v&	c #FF3E04",
"w&	c #FF2C04",
"x&	c #FF3005",
"y&	c #FF3A0E",
"z&	c #FF540E",
"A&	c #FF7C04",
"B&	c #FF7D08",
"C&	c #FF7F08",
"D&	c #FF7B05",
"E&	c #FF7A03",
"F&	c #FF8504",
"G&	c #FF8705",
"H&	c #FF9205",
"I&	c #FFA106",
"J&	c #FFA606",
"K&	c #FFA406",
"L&	c #FFA005",
"M&	c #F69F04",
"N&	c #E7A503",
"O&	c #FFFCF4",
"P&	c #FFF6D4",
"Q&	c #FFC208",
"R&	c #FFA506",
"S&	c #FF8D04",
"T&	c #FF8304",
"U&	c #FF7904",
"V&	c #FF7204",
"W&	c #FF8000",
"X&	c #FF9601",
"Y&	c #FFA403",
"Z&	c #FFBC06",
"`&	c #FFC013",
" *	c #FFC10A",
".*	c #FFC406",
"+*	c #FFC504",
"@*	c #FFC608",
"#*	c #FFC709",
"$*	c #FFC70A",
"%*	c #FFC80E",
"&*	c #FFCC14",
"**	c #FFCD1A",
"=*	c #FFCD20",
"-*	c #FFCD26",
";*	c #FFCF2D",
">*	c #FFD232",
",*	c #FFD235",
"'*	c #FFD02A",
")*	c #FFC80F",
"!*	c #FFC508",
"~*	c #FEC609",
"{*	c #FDC809",
"]*	c #FFDF61",
"^*	c #FFF6D2",
"/*	c #FFFCEE",
"(*	c #FFECA0",
"_*	c #FFCB02",
":*	c #FFCA00",
"<*	c #FFCA01",
"[*	c #FFCD0B",
"}*	c #FFD117",
"|*	c #FFD01A",
"1*	c #FFE787",
"2*	c #FFF8E2",
"3*	c #FFF4CC",
"4*	c #FFE375",
"5*	c #FFD11F",
"6*	c #FFD738",
"7*	c #FFFCF1",
"8*	c #FFF4C4",
"9*	c #FFE576",
"0*	c #FFE167",
"a*	c #FFE36F",
"b*	c #FFDE57",
"c*	c #FFDA46",
"d*	c #FFE479",
"e*	c #FFF0B5",
"f*	c #FFF6D1",
"g*	c #FFFEFA",
"h*	c #FFFCF3",
"i*	c #FFFFFB",
"j*	c #FFF0B2",
"k*	c #FFEB9B",
"l*	c #FFE88E",
"m*	c #FFE889",
"n*	c #FFE478",
"o*	c #FFEFB4",
"p*	c #FFF8DD",
"q*	c #FFF4C9",
"r*	c #FFF3C6",
"s*	c #FFF7D8",
"t*	c #FFFEF7",
". . + @ # $ % & * = - ; > , ' ) ! ~ { ] ^ / { ( ~ _ : < [ } | 1 2 3 4 5 6 _ ~ } 2 7 8 9 0 a b + ",
". c d e f g h i j k l m n o p q } { r ] s { { t u u ~ : : _ ~ ( ( u u t v v v { { w x y z A > B ",
"C D o E F _ t { ^ G } } 1 H I J K K _ { [ J L | K : ~ t ~ ( t ( M _ w 1 I I L N ( _ : J h O P Q ",
"@ R S } : _ _ ( r t M ~ u _ u _ ~ _ w w N ~ _ w _ ~ : w w < _ t u r r ~ _ < [ [ } [ : I q 7 T U ",
"V W g N ~ < w < _ v t { r u X [ K w _ ~ : w } } } } K w _ G Y ( u t ( ~ ~ ~ v v w [ Z `  .7 ..+.",
"@.#.` u ^ { ( ( ( ( u u u u ( ~ ~ { / r / { u ( ~ ( ( t u t u ( ( ( ( M $.v v %.&.*.=.-.| ;.>.,.",
"'.).Z ~ : 5 !.~.v K [ j !.| r t I 6 {.| J [ : X ~ ~ ~ ~ ~ ~ ~ ~ _ _ ].^./.(./._.:.<.[.}.~ < |.1.",
"2.3.u X ~ J | { | | [ {.4./ G 5.6.7.8.9.0.a.b.c.d.d.e.e.f.g.h.H 4 i i.j.k.l.m.n.o.p.q.r.c.s.9.t.",
"u. .[ ~ v / { _ [ _ u { _ _ v.w.x.y.z.w.A.6.!.I B.C.K : N _ X ~ ( D.E.F.G.H.I.J.K.L.M.4 N.1 6 O.",
"P.[ M u t { ~ : : ~ u ~ : / w K } } K ~ } K t { _ ~ ( N [ 1 6 !.Q.R.S.T.T.U.V.W.X.Y.Z.N N _ [ 4 ",
"w w `.t u { t X _ ( v ~ _ < : : v ~ M r { { ^ ( _ ( t { u w I  +.+++@+#+$+%+&+*+=+-+;+3 2 1 1 L ",
"( r t _ [ [ v } [ : `._ Y N _ v u t ~ { / r ^ ~ w _ t u M [ >+,+'+)+T.!+~+{+{+]+^+-+/+_ : w [ K ",
"!.-.J w ~ s / w | N.j ~./ _ J (+_+2 } I : v t / ( K | ~ u Y :+<+[+}+|+~+1+2+3+4+5+6+7+8+{ r t ~ ",
"9+0+a+b+s.6 < K ~ { u N N N.j f.c+d+e+v / [ 4.~ w v t ( ~ f+g+h+i+j+k+l+2+3+m+n+o+p+q+r+~ { r ~ ",
"s+t+u+v+w+x+6 ~ h.k 5.(+J M t M : K J _ [ y+z+B._ 4.| v A+B+C+D+E+F+1+~+~+G+3+H+I+J+K+L+{.4 {.J ",
"M+N+O+P+Q+R+S+~ 5 T+U+x w.V+6 (+1 J < X ~ _ w W+j _ [ ~ X+Y+Z+`+ @2+ @.@+@@@#@$@%@&@*@=@u { u u ",
"K K J | 1 N.N._ : I w N.-@(+N.1 | } K [ [ w : I ;@s.M { >@,@'@E+m+)@!@E+)@E+4+~@{@]@^@< < w /@[ ",
"4.} (@K [ w /@~ u / / ( ~ / u u { ] r u (+_@S+:@<@[@}@|@G+`+!@)@1@2@3@4@5@6@7@8@9@0@a@P.b@r.c@l ",
"G ~ ~ X _ N : _ _ _ < K w _ ~ r ^ { ] { 4 d@k s.:@e@f@g@`+.@Z+h@i@j@k@l@m@n@o@p@q@r@s@q t@u@T+x.",
"{ { { { { { { { { ^ { ( ~ _ < [ } } `.u { ( ( ( v@w@x@T.y@T.z@h@2+A@B@#@{+#@C@D@E@F@G@[ [ } } J ",
"N.I 4.J | {.{.{.~.: (+h.s.H@U+I@c.e+-@N.{.} : u J@K@H.L@M@,@N@h@l+E+#+|+O@B@P@Q@R@S@T@w : N _ ~ ",
"} w N _ ( { r r { t ~ : w } J < X t / r { u t U@V@W@X@Y@Z@`@n+m+1+Z@ #}+V.T..#+#@###$#N M ( / { ",
"( ( ~ ( { r r / r { { { t { ( v _ : ~ v t u %#&#*#=#S.-#+@D+;#;#;#j+T.@+M@%+>#,#'#)#!#} K w : ~ ",
"~ : w : ~ u / r u ~ u t : : w < _ _ ( ( t ~#{#]#^#C+/#!+(#T.G+`@m+g@@@_#&+$+:#<#[#}#|#( r v < w ",
"< _ G t u u u ( M < ~ u _ ~ t s / u ( 1#2#3#G.4#5#6#O@O@7#A@3+m+.@8#4#i+j++@9#0#a#b#c#{ { t w < ",
"3 F N.J [ _ ( { r ( ( u { r ] r { ( d#e#f#4#h+g#g#h#O@G+1+i@i@i#j#k#.@{+!@|+l#m#n#o#p#t r r / { ",
"] / / ( : 4.1 N.{.1 J ( ~ ( { r { q#r#*#h##+s#s#t#D+!@%+1+4+1+B@J.u#v#w#x#y#z#A#B#C#D#~ ~ ~ ( { ",
"/ t ( t ] ^ { u u ~ : _ : w K J E#F#G#X.y@H#I#J#3+F+X.K#k+h@m+2+|+L#M#N#I._#O#P#Q#R#S#u ( _ J J ",
"[ J 3 4 w _ w } ~.J ~.4._ 1 2 T#U#Y+X.@+/#!@D+2+z@;#V#2+;#G+J#}+=#W#X#Y#Z#V.`# $.$+$@$u u v ~ { ",
"K [ j r.c.b@2 I : < [ K ( _+#$$$%$&$*$=$'@-$;#h@h@m+m+3+ #;$)+/#5#>$,$'$X@)$!$~${$]$^$( { _ ~ t ",
"G { w j S+/$1 2 } ~ t _ r [ ($_$:$G.<$D+m+3+4+N@z@[$n+'@#+}$+@|$)@+@1$2$3$-#4$5$6$7$8$~ ~ : _ ( ",
"_ ( _ w < : _ u t ( ( ( A+9$0$a$b$c$i@)@`+;#h@`@`@N@N@n+n+l+'@E+D+V.d$e$f$g$h$i$j$k$l$u ~ _ _ ~ ",
"{ ~ [ 5 (+{.I ~.} K ~ { m$n$o$p$J#m+3+{+~+2+ @~+n+N@4+;#G+h+q$r$s$t$u$v$w$d$x$y$z$A$B$/ t : J ` ",
"{ ( r u { t v ( _ : $.C$D$E$F$i+1+m+m+m+Z+J.G$L@D+z@2+F+V#(#[+H$7#!+I$J$K$L$M$N$O$P$Q$(+P.R$q d.",
"< [ ~ 2 3 S$I [ _ T$U$V$W$X$Y$l+Z$h@N@4+W.`$ %.%W.n+n+z@m+F+W.C+g#>$+%@%#%$%%%&%*%=%-%N _ _ X : ",
"r v ( N t { / t M U$;%o$>%{+z@z@n+N@N@h@j+%+h+X.{+2+G+ @,%h#5#'%x@)%!%~%~%~%{%]%^%/%(%u r { < b@",
"v M t : _ ~ ~ _ _%:%<%.%y@V#1+`@N@N@h@~+i+)$h+C+@+I# #(#[%}%|%1%2%3%4%G.W@5%6%7%8%9%[ [ [ [ 0%a%",
"K < { N ~ { u A+b%c%d%e%I$f% @2+3+3+G+#@Z+`+E+]+#+4#*+i+i+#@i+B@=$K.t#g%|%h%i%j%k%l%: _ G I R+m%",
"n%| r G o%p%q%r%s%t%u%v%w%>$J#7#!+V#3+~+~+3+1+1+ @.@$+x%x%O@h#h+y%-#X.)$z%V@A%B%C%D%E%r r : F%9 ",
"[@2 ~ } G%H%I%J%K%L%M%N%O%P%)$%+@@Q%R%5#>$g#@@@@/#g#S%T%U%I.*#V%W%L#(#X%Y%Z%`% &.&+&@&$.| /$u.#&",
"7 2 / : $&%&&&*&=&-&J.<$*+@@W.%+y@H$/#;&G#>&4#y@@+K.,&'&)&!&~&{&]&^&&$/&(&_&:&<&[&}&|&1&Y j 2&3&",
"e.(+{ w 4&5&6&V.B@h+J.}$7&'@V#Z+E+8&9&0&a&b&G$c&y%C+W.!@X.}$d&t$e&f&g&_$h&i&j&k&l&m&n&o&r h p&q&",
"r&a.u ( s&t&u&v&k#w&x&U%,&t#!+#+^#x#y&z&~%A&A&B&C&D&Z%E&o$o$F&G&H&I&J&K&I&I&L&M&N&b%r r _ a+' O&",
"P&o I : w Q&R&S&T&$%#%U&_$V&W&X&Y&Z&`& *.*+*@*#*#*$*$*%*&***=*-*;*>*,*'*)*@*!*~*{*4.} w C.]*^*c ",
"/*(*d._ ~ ~ A+A+T$_*:*o&<*T$T$_*r / : u } _ { t ~ : K [*(+_+}*|*e.r. .c@_@~ ( G ~ ~ v _ (+1*2*@ ",
"V 3*4*5*[*: _ u ^ u u ~ : [ J 2 L M t _ B./$_+N.1 J } w _ M t / v N [ 4.} w : : J [ } B.6*e 7*b ",
"+ @.8*9* .z+b@b@_@1 K : u t K _+P.4 1 _+P.S+e+_@i B._+4 {.| } : ~ ( / ( _ F e.0*a*b*c*d*e*f*O&g*",
"h*i*# f*j*k*l*m*y P.M _ _ _ ~ G : N _ _ M M ~ ~ ~ v v ( N } C.-@2 2 2 1 w.n*o*t+p*q*r*s*'.t*b b "};
