/* XPM */
static char *attributes[] = {
/* columns rows colors chars-per-pixel */
"32 32 143 2",
"   c #3A1003",
".  c #3A1102",
"X  c #4D0F03",
"o  c #411202",
"O  c #451203",
"+  c #471103",
"@  c #491103",
"#  c #500F03",
"$  c #581003",
"%  c #671004",
"&  c #6D1004",
"*  c #701405",
"=  c #721905",
"-  c #742506",
";  c #7D4205",
":  c #834605",
">  c #884A05",
",  c #934F05",
"<  c #A95805",
"1  c #CC0E02",
"2  c #CD0E02",
"3  c #D20E02",
"4  c #DA0E02",
"5  c #E20E02",
"6  c #EC0D02",
"7  c #FA0B01",
"8  c #FB0A01",
"9  c #FB0B01",
"0  c #FB0F01",
"q  c #FB1101",
"w  c #FB1301",
"e  c #FB1502",
"r  c #FB1702",
"t  c #FB1902",
"y  c #FA1B02",
"u  c #FA1D02",
"i  c #FB1F03",
"p  c #FB2103",
"a  c #FB2402",
"s  c #FA2702",
"d  c #FA2801",
"f  c #FA2A02",
"g  c #FA2E02",
"h  c #F93103",
"j  c #FA3303",
"k  c #F93904",
"l  c #F93E04",
"z  c #D96205",
"x  c #FA4405",
"c  c #FA4805",
"v  c #F94D05",
"b  c #FA5405",
"n  c #FA5B06",
"m  c #F16A05",
"M  c #F96106",
"N  c #F96606",
"B  c #F86B05",
"V  c #F96D05",
"C  c #C49010",
"Z  c #C59011",
"A  c #D2920C",
"S  c #D9930B",
"D  c #F89908",
"F  c #F99C09",
"G  c #F6AF0A",
"H  c #F9A10A",
"J  c #F9A30B",
"K  c #F9A60B",
"L  c #F9A90B",
"P  c #F8AC0A",
"I  c #F6B309",
"U  c #F5B60A",
"Y  c #F5BA0B",
"T  c #F6B80B",
"R  c #F7BD09",
"E  c #F9BF09",
"W  c #FDC207",
"Q  c #FDC407",
"!  c #FDC607",
"~  c #FDC706",
"^  c #FBC008",
"/  c #FDCB01",
"(  c #FDCB02",
")  c #FDCB03",
"_  c #FDC905",
"`  c #FDC906",
"'  c #FDC907",
"]  c #FDCA04",
"[  c #FDCB04",
"{  c #FDCB06",
"}  c #FDCB07",
"|  c #FDCC02",
" . c #FDCC03",
".. c #FDCC04",
"X. c #FDCC06",
"o. c #FDCC07",
"O. c #FDCD07",
"+. c #FCCD08",
"@. c #FDCD08",
"#. c #FDCD09",
"$. c #FCCD0A",
"%. c #FCCD0B",
"&. c #FCCD0C",
"*. c #FCCD0D",
"=. c #FDCD0E",
"-. c #FDCD0F",
";. c #FCCD11",
":. c #FCCD12",
">. c #FCCD15",
",. c #FCCE16",
"<. c #FCCE17",
"1. c #FCCE19",
"2. c #FCCF1B",
"3. c #FCD01D",
"4. c #FCD11F",
"5. c #FCD222",
"6. c #FCD226",
"7. c #FBD32A",
"8. c #FBD32E",
"9. c #FBD434",
"0. c #FBD539",
"q. c #FBD63D",
"w. c #FBD743",
"e. c #FBD948",
"r. c #FBDC50",
"t. c #FBDD57",
"y. c #FBDF5D",
"u. c #FBE061",
"i. c #FBE169",
"p. c #FCE475",
"a. c #FCE680",
"s. c #FCE887",
"d. c #FCE98F",
"f. c #FDEB97",
"g. c #FDED9F",
"h. c #FDEEA6",
"j. c #FDF0AF",
"k. c #FDF3BF",
"l. c #FDF5CA",
"z. c #FDF7D3",
"x. c #FDF8D9",
"c. c #FDF8DF",
"v. c #FCF8E1",
/* pixels */
"v.z.g.u.q.e.i.a.d.i.4.( ( (  .(  .X.( O.O.X.$.$.O. .( 5.p.k.v.v.",
"l.y.5.@.) X.] &.<.*.( ( (  . .( O. . .( X.( ( $.$.O.X.X.3.w.s.k.",
"h.6.] ( ( ( ( ( X.(  .( ( ( X.X. . . . .( ( ( ] ( ( X.@.,.9.i.g.",
"f.,.] @.&.( X.@.X.( O.O. . .( (  . . . .( ( ( ) X.( ] ! X.@.e.d.",
"p.$.O.$.@.( X.:.*.$.6.9.7.4.<.;.*.*.$.O.O.$.&.U L L F z P 1.e.p.",
"4.X.(  .( X.( (  .*.6.7.7.6.3.&.*.$.X.$.$.O.L b x x g = Z ,.,.6.",
"( (  .( (  . .( (  .( X.( X.( (  . . .X.O.U b p g j 5 $ Z X.] &.",
"X. .( O.O.$.*.&.O. .$.X.( ( X.(  .(  . .U M d i r t 2 @ Z X.] @.",
"0.6.3.@.X.O.$.$.X.*.4.3.@.X.] ] ' ] ) W N s u w 0 8 2 X Z ] ' @.",
"u.t.e.8.*.*.*.*.O.$.&.@.X.@.&.@.@.@.] F s r 0 0 w w & @ < ] ' ] ",
"<.<.<.&.O.O.*.*.*.X.( ( X.] &.,.1.] J k w 0 r u i u & # C X.&.@.",
"X.X.@.X.O. . .( ( ( ( X.] &.,.5.7.G v r w 8 i r t 6 * @ C 7.q.e.",
"X.X.O.(  . . .O.O.$.O.(  .O.@.@.R N p u 8 0 u w t 4 & O C 3.4.5.",
"O.O.O.O.O.O.$.*.<.3.<.*.( X.X.! F x d q 8 8 t r i 4 & o C ( ( ) ",
"(  . . .O. . . .O.X.X.( ( ( ! F b k s 8 8 8 t p d 2 & . C X.( X.",
"(  . . .(  .(  .( X.(  .O.! F x d s p i 7 0 i p y 2 @ . C ( ( X.",
" . .X.( ( ( ) ) ) X.( ] W V k d a r r w e p s w t 2 X   Z ( X.( ",
"X.( ( ( ( ( ( ) ) X.] W V d f i t u w 8 q a i y s 2 X   < ( ( ( ",
"@.&.&.@.( ( X.) ( X.W V d i u w 8 r w 0 r d x v g 2 +   C ( ( ( ",
"$.4.6.4.*.X.+.) ( ! V k f r 8 8 8 8 w s f d x b h 2 X . C ( ( X.",
"( $.*.*.] ] ] ) ] K b f r 8 8 8 8 8 w y r w g N v 3 $ . A ( X.@.",
"( ( ( ( ] ) X.) W V j 7 8 w t t 8 8 0 y d d k N N v - @ Y &.,.3.",
"X.@.*.$.@.) ] W V l q 7 8 i x x w 8 8 r s d k B F V ; ; ,.&.;.&.",
"X.X.X.X.) ] W F k 0 8 8 8 u g g r r r p j v V V V V : : R ) ' ;.",
"X.( ( ( ( W F n a w 8 8 8 t r u a a p s d k k j n m > , ;.@.5.e.",
"<.$.X.W U J V n v a i t 0 w 0 w r y t y i s p i b B , C ] X.9.a.",
"*.( X.F b k g j g i i i a g g a d d d g k g s g n n < S W X.t.h.",
"<.X.@.J l p d d t t t t d x b v x x k x x n V V V V z P ! @.p.l.",
"t.*.+.^ D N n N b n B V V F K L U G G Y Y 1.1.;.T W U ] X.,.d.x.",
"h.6.( ( ( W W W R ! ] ] ] ;.&.@.X.X.@.&.&.;.4.,.&.] ] ( ( 8.j.v.",
"c.p.8.3.:.$.( ( @.,.1.;.&.5.6.1.,.,.;.@.( ( @.] ,.w.t.e.w.s.v.v.",
"v.j.u.q.7.<.O.( ] ' =.=.=.;.&.;.&.&.@.@.( ) @.@.0.d.j.g.f.l.v.v."
};
