/* XPM */
static char *attribute[] = {
/* columns rows colors chars-per-pixel */
"48 48 256 2",
"   c #110C08",
".  c #1D0101",
"X  c #1B0B09",
"o  c #19110A",
"O  c #230202",
"+  c #210809",
"@  c #290203",
"#  c #2F070A",
"$  c #2C0D09",
"%  c #201C17",
"&  c #2A1C1D",
"*  c #251817",
"=  c #380306",
"-  c #320F10",
";  c #281F21",
":  c #2E2425",
">  c #312524",
",  c #302A2A",
"<  c #3A3731",
"1  c #4D0F0F",
"2  c #460907",
"3  c #48171A",
"4  c #520907",
"5  c #590F0E",
"6  c #580304",
"7  c #541C1B",
"8  c #581317",
"9  c #57191C",
"0  c #58201E",
"q  c #412120",
"w  c #482122",
"e  c #552322",
"r  c #562929",
"t  c #582B2A",
"y  c #5C2422",
"u  c #523130",
"i  c #5E3D3A",
"p  c #62080A",
"a  c #6B0000",
"s  c #740000",
"d  c #7B0001",
"f  c #7F0D15",
"g  c #6E2429",
"h  c #622222",
"j  c #623936",
"k  c #732829",
"l  c #7A2B2F",
"z  c #51423C",
"x  c #544F49",
"c  c #524943",
"v  c #574E50",
"b  c #66524D",
"n  c #7E4343",
"m  c #797072",
"M  c #820302",
"N  c #8D0000",
"B  c #8B0807",
"V  c #813C3F",
"C  c #9D3032",
"Z  c #92383C",
"A  c #AE1C1C",
"S  c #B20A07",
"D  c #B31917",
"F  c #B51613",
"G  c #AA0707",
"H  c #A62320",
"J  c #B63437",
"K  c #AB6362",
"L  c #B46464",
"P  c #C50E0E",
"I  c #C51314",
"U  c #D31112",
"Y  c #DE1E19",
"T  c #DD1612",
"R  c #DA2121",
"E  c #EB110E",
"W  c #E41719",
"Q  c #E21812",
"!  c #E91B1C",
"~  c #F70507",
"^  c #F50906",
"/  c #F50B0C",
"(  c #FC0404",
")  c #FB0608",
"_  c #FC0905",
"`  c #FC0B0B",
"'  c #F50D11",
"]  c #FB0D10",
"[  c #F4100C",
"{  c #FD100E",
"}  c #F51214",
"|  c #F7171A",
" . c #F41A15",
".. c #F41C1B",
"X. c #FB1313",
"o. c #FC161A",
"O. c #FA1914",
"+. c #FB1A1B",
"@. c #E71D21",
"#. c #F41E20",
"$. c #F71F28",
"%. c #FC1D21",
"&. c #E72114",
"*. c #EE2016",
"=. c #EE231C",
"-. c #F3231D",
";. c #FC211D",
":. c #E02629",
">. c #ED2124",
",. c #EA2926",
"<. c #ED2A2B",
"1. c #ED272A",
"2. c #EC302A",
"3. c #EC3636",
"4. c #EE363C",
"5. c #EF3838",
"6. c #F42222",
"7. c #F2262A",
"8. c #F42823",
"9. c #F42A2B",
"0. c #FD2323",
"q. c #FD2529",
"w. c #FC2A25",
"e. c #FC2B2B",
"r. c #F52C30",
"t. c #FC2D31",
"y. c #FF2E39",
"u. c #F7342F",
"i. c #FD322D",
"p. c #F23233",
"a. c #F43A35",
"s. c #F33C3D",
"d. c #FD3333",
"f. c #FB3538",
"g. c #FD3A36",
"h. c #FD3B3B",
"j. c #F23239",
"k. c #EB3C41",
"l. c #FE3C42",
"z. c #EE4137",
"x. c #FA423C",
"c. c #F0423B",
"v. c #DD5053",
"b. c #DD7D78",
"n. c #EF4C49",
"m. c #EB4F52",
"M. c #EC5758",
"N. c #F64345",
"B. c #F14A44",
"V. c #F34C4B",
"C. c #FD4443",
"Z. c #FD4548",
"A. c #FD4845",
"S. c #FB4C4B",
"D. c #F44D53",
"F. c #F4504F",
"G. c #FB514D",
"H. c #F25253",
"J. c #F25955",
"K. c #FA535A",
"L. c #FE5854",
"P. c #FD5D5A",
"I. c #F55559",
"U. c #F85E64",
"Y. c #F0615E",
"T. c #FC625D",
"R. c #EF6D6F",
"E. c #E16A69",
"W. c #E57578",
"Q. c #F56362",
"!. c #FC6262",
"~. c #FA6A6A",
"^. c #F86B67",
"/. c #F36D73",
"(. c #FE726E",
"). c #F47474",
"_. c #F3797D",
"`. c #FB7577",
"'. c #FD757A",
"]. c #FE7875",
"[. c #FD7C7B",
"{. c #E87980",
"}. c #FB7F82",
"|. c #F57B80",
" X c #FF8176",
".X c #FD827C",
"XX c #A49897",
"oX c #B38A87",
"OX c #B2AEAE",
"+X c #B9B3AE",
"@X c #BFB9BA",
"#X c #B6B3B3",
"$X c #D78E8C",
"%X c #CCA0A0",
"&X c #C2BABB",
"*X c #E28383",
"=X c #E88D92",
"-X c #EA9690",
";X c #F58385",
":X c #F58887",
">X c #FC8282",
",X c #FD8388",
"<X c #FD8886",
"1X c #FC8B8C",
"2X c #FE8F92",
"3X c #F29899",
"4X c #FD9392",
"5X c #FE969A",
"6X c #FD9B9A",
"7X c #F89693",
"8X c #FFA19F",
"9X c #E9ADAD",
"0X c #F7A7A8",
"qX c #FDA2A1",
"wX c #FFA6A9",
"eX c #FDA8A7",
"rX c #FDABAB",
"tX c #F0ACAA",
"yX c #FEA9B2",
"uX c #FAB3AE",
"iX c #F7B2B2",
"pX c #F6BCB7",
"aX c #FDB2B3",
"sX c #FFB8B4",
"dX c #FABBBC",
"fX c #FFC2BD",
"gX c #DFCCC9",
"hX c #D7D4D3",
"jX c #FCC3C3",
"kX c #FFC7C9",
"lX c #FECBC5",
"zX c #FCCACA",
"xX c #F0CCCA",
"cX c #FDCDD0",
"vX c #FFD3D3",
"bX c #FFD5DB",
"nX c #FFDBDC",
"mX c #F5D7D5",
"MX c #FFDFE0",
"NX c #FFE2D7",
"BX c #FCE2DD",
"VX c #E0E0E1",
"CX c #EBE3E2",
"ZX c #F6E6E5",
"AX c #F5EBEB",
"SX c #FDE5E3",
"DX c #FFE6E8",
"FX c #FFEBE4",
"GX c #FDEBEB",
"HX c #FEEEF1",
"JX c #FFF2ED",
"KX c #F7FFFD",
"LX c #FEF4F4",
"PX c #FFF6F8",
"IX c #FEFBF5",
"UX c #FEFEFE",
/* pixels */
"UXUXUXUXUXUXUXUXUXUXUXUXUXUXUXUXUXUXUXUXUXUXUXUXUXUXUXUXUXUXUXUXUXUXUXUXUXUXUXUXUXUXUXUXUXUXKXUX",
"UXUXUXUXUXUXUXUXUXUXUXUXUXUXUXUXUXUXUXUXUXUXUXUXUXUXUXUXUXUXUXUXUXUXUXUXUXUXUXUXUXUXKXUXUXUXUXKX",
"UXUXUXUXUXUXUXUXUXUXUXUXUXUXUXUXUXUXUXUXUXUXUXUXUXUXUXUXUXUXUXUXUXUXUXUXUXUXUXIXKXUXKXUXUXUXUXUX",
"UXUXUXUXUXUXUXUXUXUXUXUXUXUXUXUXUXUXUXUXUXUXUXUXUXUXUXUXUXUXUXUXUXUXUXUXUXUXUXKXUXUXUXUXUXKXUXUX",
"UXUXUXUXUXUXUXUXUXUXUXUXUXUXUXUXUXUXUXUXUXUXUXUXUXUXUXUXUXUXUXUXUXUXKXUXUXUXUXUXUXUXUXUXUXUXUXUX",
"UXUXUXUXUXUXUXUXUXUXUXUXUXUXUXUXUXUXUXUXUXUXUXUXUXUXUXUXUXUXUXUXUXPXUXUXUXUXUXUXKXKXUXUXUXUXUXIX",
"UXUXUXUXUXUXUXUXUXUXUXUXUXUXUXUXUXUXUXUXUXUXUXUXUXUXUXUXUXUXUXUXUXUXUXKXUXLXUXIXIXFXNXMXLXUXUXUX",
"UXUXUXUXUXUXUXUXUXUXUXUXUXUXUXUXUXUXUXUXUXUXUXUXUXUXUXUXUXUXUXUXUXUXUXUXGXzXlXvXuX<XW.K BXKXUXUX",
"UXUXUXUXUXUXUXUXUXUXUXUXUXUXUXUXUXUXUXUXUXUXUXUXUXUXUXUXUXUXUXUXUXUXIXGX7XM.Q.].H.3.J 2 nXUXUXPX",
"UXUXUXUXUXUXUXUXUXUXUXUXUXUXUXUXUXUXUXUXUXUXUXUXUXUXUXUXUXUXKXUXUXKXGX7X4.d.x.S.e.:.f $ SXUXUXUX",
"UXUXUXUXUXUXUXUXUXUXUXUXUXUXUXUXUXUXUXUXUXUXUXUXUXUXUXUXUXUXUXUXUXHX8X5.$.0.h.G.u.<.p $ SXUXUXUX",
"UXUXUXUXUXUXUXUXUXUXUXUXUXUXUXUXUXUXUXUXUXUXUXUXUXUXUXUXUXUXUXUXLXrXS.0.w.;.0.h...R 2 $ DXUXUXUX",
"UXUXUXUXUXUXUXUXUXUXUXUXUXUXUXUXUXUXUXUXUXUXUXUXUXUXUXUXKXUXUXLXuXJ.t.d.0.X.] X./ I 2 - SXUXUXUX",
"UXUXUXUXUXUXUXUXUXUXUXUXUXUXUXUXUXUXUXUXUXUXUXUXUXKXUXUXPXUXIXdXH.w.e.7.X.X.X.X.E G 1 3 gXKXPXUX",
"UXUXUXUXUXUXUXUXUXUXUXUXUXUXUXUXUXUXUXUXUXUXUXUXUXUXUXUXUXUXNX^.$.O.0.} ' ] ` ` E N 9 # XXIXUXUX",
"UXUXUXUXUXUXUXUXUXUXUXUXUXUXUXUXUXUXUXUXUXUXUXUXUXUXKXUXUXIXqX9.X.+.X.{ ;.%.%.i.Q M g O +XUXKXUX",
"UXUXUXUXUXUXUXUXUXUXUXUXUXUXUXUXUXUXUXUXUXUXUXUXUXUXKXKXLXdXc.+.+.o.` 0.w.;.q.i.U a l + CXUXUXUX",
"UXUXUXUXUXUXUXUXUXUXUXUXUXUXUXUXUXUXUXUXUXUXKXPXUXUXUXUXlXn...%.+._ o.d.+.o.w.O.U 6 k + AXUXUXUX",
"UXUXUXUXUXUXUXUXUXUXUXUXUXUXUXUXUXKXUXUXKXUXUXUXUXKXIXvXU.$.o.;._ ^ ;.w.+.0.w.X.P 6 h X AXUXUXUX",
"UXUXUXUXUXUXUXUXUXUXUXUXUXUXUXUXUXUXUXUXUXUXUXUXUXUXBX).1.%.e.O._ ` ;.0.+.X.0.X.S 4 9 o AXUXUXUX",
"UXUXUXUXUXUXUXUXUXUXUXUXUXUXUXUXUXUXUXUXUXPXUXKXUXLX8XU.h.e.d.^ _ ` / e...} 0.} F 5 1 o PXUXUXUX",
"UXUXUXUXUXUXUXUXUXUXUXUXUXUXUXUXUXUXUXUXPXUXUXUXPXjX.XB.f.e.[ ~ ) ) X.g...+.e...D k 9 X HXUXUXUX",
"UXUXUXUXUXUXUXUXUXUXUXUXUXUXUXUXUXUXUXUXUXUXIXLXjX:X^.C.Z.#.` ) ` ` O.;.0.e.d.>.A k = * LXUXUXUX",
"UXUXUXUXUXUXUXUXUXUXUXUXUXUXUXUXUXUXUXUXUXUXLXzX}.V.N.Z.d.-.e.` ` ` 0.0.g.i.p.>.M 0 @ * UXUXUXUX",
"UXUXUXUXUXUXUXUXUXUXUXUXUXUXUXUXUXUXKXUXUXLXjX[.h.6.h.9.6.i.e.+.( ` | w.e...+.! s 7 @ > UXUXUXUX",
"UXUXUXUXUXUXUXUXKXUXKXUXUXUXUXUXUXUXUXUXLXaXU.x.u.d.0.o.0.w. .{ X.0.h.d.+.o.;.W d y O > hXUXUXUX",
"UXUXUXUXUXUXUXUXUXUXUXUXUXKXUXUXKXIXUXDX7Xc.8.r.h.h.%.+.+.] ` ` w.g.u.;.]  .0.T s 7 . * OXUXUXUX",
"UXUXUXUXUXUXUXUXUXUXUXKXUXUXUXPXUXUXGX5X5.O.w.h.t.%.o.q.0.] ( ` +.h.e.0.$.q.i.T a 0 O ; OXUXUXUX",
"UXUXUXUXUXUXUXUXUXUXUXUXUXUXUXUXKXJX6Xs.0.e.g.e.O.{ o.0.i.X./ ' } #.h.G.!.N.d.Y a e . > OXUXUXUX",
"UXUXUXUXUXUXUXUXUXUXUXUXUXUXUXKXJX6Xk.#.e.t.+.` { _ ` X.X.} %.6.u.h.P.].[.K.C.1.d r . > VXUXUXUX",
"UXUXUXUXUXUXUXUXUXUXUXPXUXKXUXLXeXH.p.Z.e.' ` ` ( ( ` _ ` e.A.h.l.t.1.B.~.I.f.>.B r . : UXUXUXUX",
"UXUXUXUXUXUXUXUXUXUXUXUXUXUXLXbX/.N.A.i.X.` _ ( ( _ ) ) X.;.d.0.o.' o.l.}.1XS.6.H t X , UXUXUXUX",
"UXUXUXUXUXUXUXUXUXUXUXKXUXPXGXyXU.Z.-./ X.O.^ ^ ^ _ ( ( _ [  .+.| ..w.Z.`.8XJ.<.J w X v UXUXUXUX",
"UXUXUXUXUXUXUXUXUXUXKXUXUXLXzX4XZ.+.^ X.O.{ ] 0.0.~ ( ( _ O.w.h.h.Z.x.L.,XeX).V.E.q o m UXUXUXUX",
"UXUXUXUXUXUXUXUXKXPXUXUXPXzX6XT.+.~ ) ( ` ;.A.S.L.+.` ` o.+.%.f.p.q.=.,.M.6X6X_.=Xu % XXUXUXUXUX",
"UXUXUXUXUXUXUXUXKXUXUXPXvX4XS. .` _ _ ( ` h.T..X.X6.) ) ~ ) ] w.g.C.a.P.1XfXdXwXtXj < +XUXUXUXUX",
"UXUXUXUXUXUXUXKXKXUXUXcX2XV. .) _ ( ( ( ` 0.r.j.r.} ] / X.+.+.8.N.K.].qX4XW.W._.-Xi x @XUXUXUXUX",
"UXUXUXUXUXUXUXUXUXLXmX3X~.#.] ` ~ _ ( ( X.0.0.e.f.f.d.d.g.C.C.Z.P.(.].`.I.'.4X>Xb.j c @XUXUXUXUX",
"UXUXUXUXUXUXUXUXLXBXpX4XD.9.q.] ' } { { ;.+.} O.o.;.e.e.;.+.%.%.%.7.6.e.&.z.<X'.W.n z CXUXUXUXUX",
"UXUXUXUXUXIXLXLXLXnXeX).>X}.f.e.g.g.+.o.X.{ ` ` ^ ' O. .X.X. .| w.g.t.8.*.u.`._.$XV b AXKXUXUXUX",
"UXUXUXUXKXDXjX0X6X).H.U.^.!.A.=.6...o.o.+.q.0.+.%.e.t.e.d.d.h.C.a.2.7.y.d.C.6X4XR.Z oXZXUXUXUXUX",
"KXUXUXUXUXMX_.N.f.e.e.u.i.e.w.;.t.e.h.f.h.A.C.g.r.f.d.d.e.p.f.S.L.L.t.q.<.n.(.Y.v.C $XxXAXUXUXUX",
"KXUXUXUXUXMX>Xh.q.9.d.d.e.6.6.;.-. ...8.x.B.P.S.k.h.h.9.,.7.9.<.4.H.Y.[.,X.X}.,X;XL zXLXUXUXUXUX",
"UXUXUXUXUXLXaXm.p.7.9.t.e.#...6.>.$.#.R H.>X4X4X6X6X2X;X>X1X6X5X6XqXdXlXjXdXdXiX9X%XmXPXUXUXUXUX",
"UXUXUXUXUXKXBXuX7X<X>X.X'.R.).1XwXwXaXaXjXnXDXDXHXPXUXPXLXUXUXIXUXLXIXUXIXPXLXLXLXLXUXUXUXUXUXUX",
"PXUXUXUXKXUXUXIXIXUXLXLXLXPXUXIXUXIXPXUXUXUXUXUXUXUXUXUXUXUXUXKXUXUXUXUXUXUXUXUXUXUXUXUXUXUXUXUX",
"UXKXUXUXUXUXUXUXUXUXUXUXUXUXUXUXUXUXUXUXUXUXUXUXUXKXUXUXUXUXUXUXUXUXUXKXUXUXUXUXUXUXUXUXUXUXUXUX",
"KXUXUXUXUXUXUXUXUXUXIXUXUXUXUXUXUXUXUXUXUXUXUXUXUXUXUXUXUXUXPXUXUXUXUXUXUXUXUXUXUXUXUXUXUXUXUXUX"
};
