/* XPM */
static char *bin[] = {
/* columns rows colors chars-per-pixel */
"32 32 155 2",
"   c #501A18",
".  c #511B19",
"X  c #511B1A",
"o  c #531C1B",
"O  c #521D1C",
"+  c #551E1C",
"@  c #5A201F",
"#  c #552120",
"$  c #582523",
"%  c #5A2827",
"&  c #5C2929",
"*  c #5E2B2A",
"=  c #602C2D",
"-  c #612E2E",
";  c #622F2F",
":  c #6D2A2A",
">  c #633031",
",  c #643131",
"<  c #653232",
"1  c #663333",
"2  c #663535",
"3  c #673434",
"4  c #673535",
"5  c #663536",
"6  c #663636",
"7  c #673637",
"8  c #693738",
"9  c #6C3838",
"0  c #6E3939",
"q  c #732D2D",
"w  c #703A3A",
"e  c #713B3C",
"r  c #703D3E",
"t  c #793130",
"y  c #6F3F40",
"u  c #6F4041",
"i  c #6F4242",
"p  c #6E4949",
"a  c #704344",
"s  c #724445",
"d  c #734445",
"f  c #754546",
"g  c #754C4D",
"h  c #7A4849",
"j  c #784E4F",
"k  c #7C4A4A",
"l  c #7E4B4C",
"z  c #7E4D4E",
"x  c #795050",
"c  c #7C5152",
"v  c #843737",
"b  c #883939",
"n  c #8D3A3A",
"m  c #913B3B",
"M  c #983E3D",
"N  c #9A403F",
"B  c #825152",
"V  c #825253",
"C  c #9F4341",
"Z  c #906363",
"A  c #906465",
"S  c #936768",
"D  c #956A6A",
"F  c #976B6B",
"G  c #9C6161",
"H  c #9D6C6C",
"J  c #AC5E5F",
"K  c #B54B4B",
"L  c #B74E4E",
"P  c #B35D5E",
"I  c #B85050",
"U  c #B95051",
"Y  c #BB5152",
"T  c #BC5253",
"R  c #BF5455",
"E  c #BE5758",
"W  c #BB595A",
"Q  c #B95B5C",
"!  c #A36060",
"~  c #A26D6D",
"^  c #A97B7B",
"/  c #A87E7E",
"(  c #B37271",
")  c #A98283",
"_  c #AC8485",
"`  c #AF8586",
"'  c #B58788",
"]  c #C39293",
"[  c #C29596",
"{  c #C29F9F",
"}  c #C99898",
"|  c #CB9D9D",
" . c #CC9A9B",
".. c #D58D8D",
"X. c #CBA8A7",
"o. c #CBABAA",
"O. c #CBADAC",
"+. c #CBAFAE",
"@. c #CFB1B0",
"#. c #CFB5B5",
"$. c #CFB9B9",
"%. c #D2A3A3",
"&. c #D0A5A5",
"*. c #D1BBBC",
"=. c #D5BDBE",
"-. c #DFC7C7",
";. c #DCC8C8",
":. c #DCC9C9",
">. c #DDCACA",
",. c #DECBCB",
"<. c #DFCDCD",
"1. c #E0C6C5",
"2. c #E4C4C4",
"3. c #E1CECE",
"4. c #E9C2C1",
"5. c #EBC0C0",
"6. c #E2D0CF",
"7. c #E5D1D1",
"8. c #EAD2D2",
"9. c #EDD4D4",
"0. c #EED6D6",
"q. c #EFD7D7",
"w. c #EDDADA",
"e. c #EED8D8",
"r. c #EDDCDB",
"t. c #F0DFDF",
"y. c #F3E2E1",
"u. c #F5E4E4",
"i. c #F4E6E6",
"p. c #F5E8E7",
"a. c #F5EAE9",
"s. c #F6EBEB",
"d. c #F8EDEC",
"f. c #F9EEED",
"g. c #F8EFEE",
"h. c #F7F1EF",
"j. c #F8F2F1",
"k. c #F9F2F2",
"l. c #FAF4F3",
"z. c #FBF5F4",
"x. c #FBF7F6",
"c. c #FCF8F7",
"v. c #FCF9F8",
"b. c #FCFAF8",
"n. c #FCFAF9",
"m. c #FDFAF9",
"M. c #FDFBFA",
"N. c #FDFBFB",
"B. c #FDFCFB",
"V. c #FCFDFC",
"C. c #FDFCFC",
"Z. c #FDFDFC",
"A. c #FDFDFD",
"S. c #FDFEFE",
"D. c #FEFEFE",
/* pixels */
"V.V.V.V.C.f.7.>.>.0.u.r.j.V.V.V.V.V.V.V.V.V.V.V.V.V.V.V.V.V.V.V.",
"V.V.V.m.=.F g y y p V P ..2.z.V.V.V.V.V.V.V.V.V.V.V.V.V.V.V.V.V.",
"V.V.m.*.p ; * O o $ * t C W %.u.V.V.V.V.V.V.V.V.V.V.V.V.V.V.V.V.",
"V.V.7.A * < V A Z a # 8 f n K ..f.V.V.V.V.V.V.V.V.V.V.V.V.V.V.V.",
"V.C.*.A y _ t.j.j.r.o.` Z < t W 5.V.V.V.V.V.V.V.V.V.V.V.V.V.V.V.",
"V.C.y.+.+.s.V.V.V.V.V.g.[ ; w I %.m.V.V.V.V.V.V.V.V.V.V.V.V.V.V.",
"V.u._ A  .t.V.V.V.V.V.V.*.8 8 M ..l.V.C.V.V.V.V.V.V.V.V.V.V.V.V.",
"V.=.5 ; Q 5.V.V.V.V.V.V.>.5 5 M ..8.a.8.z.V.V.V.V.V.V.V.V.V.V.V.",
"V.#.3 ; Y %.C.V.V.V.V.V.,.8 0 M Q h G ( 0.V.V.V.V.V.V.V.V.V.V.V.",
"C.X.* ; T | x.V.V.V.V.V.+.e z J | [ ` ..7.V.V.V.V.V.V.V.V.V.V.V.",
"C.{   $ Y %.c.V.V.m.j.r._ A H %.y.z.j.u.l.V.V.V.V.V.V.V.V.V.V.V.",
"m.X.X $ ! 5.q.*.+.{ { O.{ _ | 1.z.V.V.C.V.V.V.V.V.V.V.V.V.V.V.V.",
"C.{ X * S 8.{ a - ; g ' *.3.q.f.V.V.V.V.V.V.V.V.V.V.V.V.V.V.V.V.",
"C.{ 8 3 F s.O.5 + + % 8 F =.z.V.V.V.V.V.V.V.V.V.V.z.z.V.V.V.V.V.",
"V.=.V y S s.a.X.H a ; + * a o.l.V.V.V.V.V.V.V.z.>.^ H ' t.m.V.V.",
"V.,.g < z 5.m.C.f.>.) 5 X * y o.7.] ] 7.x.r.e.*.c * % 5 ( 0.V.V.",
"V.>.y 5 C ..z.V.V.V.z.3.A o ; x F * 5 [ +.x g a =     , M ..x.V.",
"V.=.5 8 M ..z.V.V.V.V.V.7.x ; 8 ; X q W J ; + % ; a c y C ( u.V.",
"V.3.8 5 m ..z.V.V.V.V.V.m.+.c a * ; 0 Y M # X + a #.] y 0 E 9.V.",
"V.i.c s U ..z.V.V.V.V.V.V.r.^ 8 + * e L n + * Z X.l.{ < e T 5.V.",
"V.z./ A ( ..z.V.V.V.V.V.V.j.^ * + ; h R n * z ,.m.V.[ * e U 5.C.",
"V.V.*.[ } %.z.V.V.V.V.V.V.s.F < * ; V ( C b Y 8.V.V.[ * 0 L 5.C.",
"V.V.>.' #.5.B.V.V.V.V.V.V.,.y ; X X 8 Q m v R q.V.V.' 0 z E 5.C.",
"V.V.;.' o.2.m.V.V.V.V.V.m.{ - ;   # e T t b Q t.V.V.#.x H ( 5.C.",
"V.V.1.` @.f.V.V.V.V.V.z.*.k 0 r 8 1 k I : b Q u.V.V.7._ { ..5.V.",
"V.V.u.=.3.x.s.3.1.>.3.$.~ B V F F 5 H P y V ( u.V.V.r.{ $.+.e.V.",
"V.V.V.j.z.r.*.[ ` / {  .( ( { r.3._ ] ' / / ..a.V.V.9._ { 5.y.V.",
"V.V.V.V.V.c.w.$.{ / ......8.z.V.V.g.3.*.[ %.+.x.V.V.7.[ { 5.e.V.",
"V.V.V.V.V.V.V.m.r.#.&.5.l.V.V.V.V.V.V.>.` { 5.m.V.V.f.>.*.q.y.V.",
"V.V.V.V.V.V.V.V.V.V.V.V.V.V.V.V.V.V.V.i.=.1.t.m.V.V.V.z.g.z.z.V.",
"V.V.V.V.V.V.V.V.V.V.V.V.V.V.V.V.V.V.V.V.m.m.V.V.V.V.V.V.V.V.V.V.",
"V.V.V.V.V.V.V.V.V.V.V.V.V.V.V.V.V.V.V.V.V.V.V.V.V.V.V.V.V.V.V.V."
};
