/* XPM */
static char * bin_xpm[] = {
"46 48 582 2",
"  	c None",
". 	c #FFFFFF",
"+ 	c #FEFEFE",
"@ 	c #F4F0F0",
"# 	c #E2D9D9",
"$ 	c #DACECE",
"% 	c #D3C4C4",
"& 	c #DACFCF",
"* 	c #E5DCDC",
"= 	c #F6F3F3",
"- 	c #FEFDFD",
"; 	c #FFDADA",
"> 	c #FFE8E8",
", 	c #ECE7E7",
"' 	c #B8A1A1",
") 	c #6D3D3D",
"! 	c #612D2D",
"~ 	c #653232",
"{ 	c #633030",
"] 	c #541B1B",
"^ 	c #5D2828",
"/ 	c #734545",
"( 	c #926B6B",
"_ 	c #DA7373",
": 	c #F86565",
"< 	c #FFA1A1",
"[ 	c #FFFDFD",
"} 	c #DDD2D2",
"| 	c #6E3F3F",
"1 	c #5C2626",
"2 	c #673535",
"3 	c #6A3939",
"4 	c #5B2626",
"5 	c #653333",
"6 	c #6B3B3B",
"7 	c #774A4A",
"8 	c #5A2424",
"9 	c #621919",
"0 	c #BE3232",
"a 	c #EC4747",
"b 	c #F36060",
"c 	c #FFB1B1",
"d 	c #E1D8D8",
"e 	c #683636",
"f 	c #490E0E",
"g 	c #440707",
"h 	c #4B1010",
"i 	c #4F1515",
"j 	c #521919",
"k 	c #7C5151",
"l 	c #6F3F3F",
"m 	c #812C2C",
"n 	c #DA3F3F",
"o 	c #F54B4B",
"p 	c #FE7E7E",
"q 	c #EAE2E2",
"r 	c #855D5D",
"s 	c #693838",
"t 	c #5A2323",
"u 	c #551C1C",
"v 	c #643131",
"w 	c #663434",
"x 	c #531B1B",
"y 	c #501717",
"z 	c #4F1616",
"A 	c #551D1D",
"B 	c #5F2B2B",
"C 	c #896161",
"D 	c #7A4C4C",
"E 	c #B73737",
"F 	c #F54848",
"G 	c #FF7373",
"H 	c #BAA4A4",
"I 	c #714242",
"J 	c #622F2F",
"K 	c #592323",
"L 	c #5C2727",
"M 	c #977575",
"N 	c #C8B6B6",
"O 	c #E1D6D6",
"P 	c #E1D7D7",
"Q 	c #DFD5D5",
"R 	c #BCA6A6",
"S 	c #896363",
"T 	c #774B4B",
"U 	c #6D3C3C",
"V 	c #8E2E2E",
"W 	c #FA5353",
"X 	c #FF9494",
"Y 	c #FBFAFA",
"Z 	c #B19898",
"` 	c #997777",
" .	c #6B3A3A",
"..	c #A58888",
"+.	c #F8F6F6",
"@.	c #EEE8E8",
"#.	c #B39A9A",
"$.	c #A88B8B",
"%.	c #865E5E",
"&.	c #521818",
"*.	c #582222",
"=.	c #CE4E4E",
"-.	c #FF7878",
";.	c #FFD3D3",
">.	c #F4F1F1",
",.	c #CDBDBD",
"'.	c #C9B7B7",
").	c #C0ABAB",
"!.	c #FCFBFB",
"~.	c #9A7878",
"{.	c #6F4040",
"].	c #A26161",
"^.	c #F66A6A",
"/.	c #FFB8B8",
"(.	c #FCFAFA",
"_.	c #E8E1E1",
":.	c #B59C9C",
"<.	c #E8E0E0",
"[.	c #FDFCFC",
"}.	c #BFAAAA",
"|.	c #703D3D",
"1.	c #EF5555",
"2.	c #FF8E8E",
"3.	c #B19797",
"4.	c #714343",
"5.	c #794D4D",
"6.	c #E49898",
"7.	c #FFADAD",
"8.	c #CBBABA",
"9.	c #643232",
"0.	c #582121",
"a.	c #784C4C",
"b.	c #5E2828",
"c.	c #E95656",
"d.	c #FF8D8D",
"e.	c #815858",
"f.	c #EB6B6B",
"g.	c #FF7B7B",
"h.	c #D2C4C4",
"i.	c #5D2727",
"j.	c #541C1C",
"k.	c #732828",
"l.	c #EE5353",
"m.	c #FFABAB",
"n.	c #FFF3F3",
"o.	c #F7F4F4",
"p.	c #561D1D",
"q.	c #602C2C",
"r.	c #633131",
"s.	c #ED5C5C",
"t.	c #FF7575",
"u.	c #7C5050",
"v.	c #6A1A1A",
"w.	c #ED4F4F",
"x.	c #CD6F6F",
"y.	c #BEA8A8",
"z.	c #FFE6E6",
"A.	c #FF6868",
"B.	c #FFB3B3",
"C.	c #805656",
"D.	c #663333",
"E.	c #ED5F5F",
"F.	c #FFF1F1",
"G.	c #531A1A",
"H.	c #7E5454",
"I.	c #F05454",
"J.	c #AA4E4E",
"K.	c #622E2E",
"L.	c #693232",
"M.	c #D75050",
"N.	c #FF7676",
"O.	c #EAE3E3",
"P.	c #DC6E6E",
"Q.	c #FFE9E9",
"R.	c #5F2A2A",
"S.	c #835A5A",
"T.	c #8A4646",
"U.	c #F87171",
"V.	c #DDAAAA",
"W.	c #987676",
"X.	c #A78A8A",
"Y.	c #8D6767",
"Z.	c #CF7171",
"`.	c #FF7979",
" +	c #4B1111",
".+	c #DD6868",
"++	c #FF7777",
"@+	c #FFE7E7",
"#+	c #F3F0F0",
"$+	c #937070",
"%+	c #967373",
"&+	c #A36C6C",
"*+	c #FEA3A3",
"=+	c #FBE7E7",
"-+	c #F1ECEC",
";+	c #EFEAEA",
">+	c #C6B3B3",
",+	c #F0CBCB",
"'+	c #FFB0B0",
")+	c #460A0A",
"!+	c #D96565",
"~+	c #FF7E7E",
"{+	c #FFEBEB",
"]+	c #FBF9F9",
"^+	c #C9B8B8",
"/+	c #876060",
"(+	c #8F6B6B",
"_+	c #E4AAAA",
":+	c #FFCECE",
"<+	c #FFFAFA",
"[+	c #FFF2F2",
"}+	c #F0EBEB",
"|+	c #5B2525",
"1+	c #561E1E",
"2+	c #CB7A7A",
"3+	c #FFAAAA",
"4+	c #FEF6F6",
"5+	c #F5F2F2",
"6+	c #EBE5E5",
"7+	c #CAB9B9",
"8+	c #B59D9D",
"9+	c #BDA8A8",
"0+	c #B9A2A2",
"a+	c #926E6E",
"b+	c #E1ADAD",
"c+	c #FDA8A8",
"d+	c #FFDBDB",
"e+	c #561F1F",
"f+	c #4D1212",
"g+	c #551E1E",
"h+	c #BB8383",
"i+	c #FFAEAE",
"j+	c #F2E1E1",
"k+	c #AF9494",
"l+	c #805757",
"m+	c #8A6363",
"n+	c #8B6565",
"o+	c #A78B8B",
"p+	c #C3B0B0",
"q+	c #D0C1C1",
"r+	c #BBA4A4",
"s+	c #E4B8B8",
"t+	c #FC9F9F",
"u+	c #FFCCCC",
"v+	c #501616",
"w+	c #B58D8D",
"x+	c #FFBFBF",
"y+	c #F3E8E8",
"z+	c #704141",
"A+	c #521A1A",
"B+	c #531C1C",
"C+	c #A38585",
"D+	c #CCBBBB",
"E+	c #E0D6D6",
"F+	c #EFE2E2",
"G+	c #FCD2D2",
"H+	c #EEE9E9",
"I+	c #572020",
"J+	c #B49B9B",
"K+	c #F6F2F2",
"L+	c #9C7B7B",
"M+	c #511717",
"N+	c #4F1414",
"O+	c #734646",
"P+	c #AD9292",
"Q+	c #EDE6E6",
"R+	c #6C3C3C",
"S+	c #744747",
"T+	c #9B7A7A",
"U+	c #FDFDFD",
"V+	c #CEBEBE",
"W+	c #5A2525",
"X+	c #D2C3C3",
"Y+	c #FFFEFE",
"Z+	c #EBE4E4",
"`+	c #E3DADA",
" @	c #DED2D2",
".@	c #A28383",
"+@	c #744646",
"@@	c #957272",
"#@	c #FAF8F8",
"$@	c #E4DBDB",
"%@	c #947171",
"&@	c #4E1414",
"*@	c #6E3E3E",
"=@	c #F9F7F7",
"-@	c #6A3838",
";@	c #E2CECE",
">@	c #FFD4D4",
",@	c #683737",
"'@	c #7A4343",
")@	c #FAD0D0",
"!@	c #FFF7F7",
"~@	c #F8F5F5",
"{@	c #724444",
"]@	c #4C1212",
"^@	c #BFA9A9",
"/@	c #F2EDED",
"(@	c #B9A3A3",
"_@	c #A34C4C",
":@	c #FC7272",
"<@	c #FFDFDF",
"[@	c #9D7D7D",
"}@	c #592222",
"|@	c #5E2929",
"1@	c #A24848",
"2@	c #FE6868",
"3@	c #E7DFDF",
"4@	c #AB8F8F",
"5@	c #511919",
"6@	c #DED3D3",
"7@	c #B09696",
"8@	c #9B7B7B",
"9@	c #AA8F8F",
"0@	c #7B5050",
"a@	c #F25050",
"b@	c #FF8686",
"c@	c #632F2F",
"d@	c #A94343",
"e@	c #FD6060",
"f@	c #E4DCDC",
"g@	c #7A4E4E",
"h@	c #4D1313",
"i@	c #916D6D",
"j@	c #845B5B",
"k@	c #AD8383",
"l@	c #FFD5D5",
"m@	c #AF9595",
"n@	c #5B2424",
"o@	c #693737",
"p@	c #612E2E",
"q@	c #420404",
"r@	c #B54343",
"s@	c #FE6262",
"t@	c #B24242",
"u@	c #FF5A5A",
"v@	c #FFE4E4",
"w@	c #D8CBCB",
"x@	c #582020",
"y@	c #693939",
"z@	c #C86060",
"A@	c #FB6F6F",
"B@	c #8D6868",
"C@	c #987777",
"D@	c #F85252",
"E@	c #FFA9A9",
"F@	c #845C5C",
"G@	c #AF3D3D",
"H@	c #FE5A5A",
"I@	c #FFE3E3",
"J@	c #A68888",
"K@	c #7F5454",
"L@	c #511818",
"M@	c #CF5A5A",
"N@	c #F46363",
"O@	c #490D0D",
"P@	c #F74545",
"Q@	c #9E7E7E",
"R@	c #B04040",
"S@	c #FC6464",
"T@	c #9D7C7C",
"U@	c #744545",
"V@	c #DB5555",
"W@	c #EF5C5C",
"X@	c #4A0E0E",
"Y@	c #6B3939",
"Z@	c #DDD1D1",
"`@	c #673636",
" #	c #DE3F3F",
".#	c #FE7575",
"+#	c #FFFCFC",
"@#	c #C7B4B4",
"##	c #7F5555",
"$#	c #AB4C4C",
"%#	c #FB6868",
"&#	c #FFE1E1",
"*#	c #C2AEAE",
"=#	c #724343",
"-#	c #D54747",
";#	c #F05959",
">#	c #4C1010",
",#	c #BEA9A9",
"'#	c #DA4444",
")#	c #FE6C6C",
"!#	c #FFF8F8",
"~#	c #8B6464",
"{#	c #C66969",
"]#	c #CDBCBC",
"^#	c #440606",
"/#	c #DB4848",
"(#	c #E54D4D",
"_#	c #9A7979",
":#	c #643030",
"<#	c #CD4141",
"[#	c #FE6767",
"}#	c #ECE5E5",
"|#	c #8C6767",
"1#	c #D87B7B",
"2#	c #FE6464",
"3#	c #FFE0E0",
"4#	c #7D5252",
"5#	c #6C3B3B",
"6#	c #470B0B",
"7#	c #4E1313",
"8#	c #865F5F",
"9#	c #E86060",
"0#	c #D84444",
"a#	c #7F5050",
"b#	c #833535",
"c#	c #F2DDDD",
"d#	c #B94242",
"e#	c #FE7474",
"f#	c #B49C9C",
"g#	c #A98D8D",
"h#	c #E09A9A",
"i#	c #FF7272",
"j#	c #DED4D4",
"k#	c #754848",
"l#	c #F38282",
"m#	c #DB4F4F",
"n#	c #815757",
"o#	c #5F2929",
"p#	c #844444",
"q#	c #E74444",
"r#	c #FFC4C4",
"s#	c #B84343",
"t#	c #E5C0C0",
"u#	c #FC9898",
"v#	c #FFF0F0",
"w#	c #BDA7A7",
"x#	c #4C1111",
"y#	c #ED6969",
"z#	c #E45252",
"A#	c #924141",
"B#	c #E74747",
"C#	c #FFCBCB",
"D#	c #612C2C",
"E#	c #C14848",
"F#	c #FF6C6C",
"G#	c #C4B1B1",
"H#	c #C6B4B4",
"I#	c #E1CACA",
"J#	c #F9B2B2",
"K#	c #8E6969",
"L#	c #430505",
"M#	c #480C0C",
"N#	c #EB6262",
"O#	c #DB4E4E",
"P#	c #B13030",
"Q#	c #977474",
"R#	c #754747",
"S#	c #CE5757",
"T#	c #FF7070",
"U#	c #F9F8F8",
"V#	c #9E7F7F",
"W#	c #DDCBCB",
"X#	c #F49C9C",
"Y#	c #FFECEC",
"Z#	c #EDE7E7",
"`#	c #460909",
" $	c #F16363",
".$	c #D34242",
"+$	c #B93131",
"@$	c #EB4949",
"#$	c #704040",
"$$	c #EB7676",
"%$	c #AE9393",
"&$	c #DDD0D0",
"*$	c #F6CDCD",
"=$	c #FFF5F5",
"-$	c #AC9191",
";$	c #DD5656",
">$	c #B23232",
",$	c #C13434",
"'$	c #E95454",
")$	c #AA8E8E",
"!$	c #896262",
"~$	c #F89595",
"{$	c #FF6E6E",
"]$	c #A68989",
"^$	c #B7A0A0",
"/$	c #FCF9F9",
"($	c #F7F5F5",
"_$	c #622020",
":$	c #7B4949",
"<$	c #D87373",
"[$	c #983030",
"}$	c #AF2F2F",
"|$	c #ED6060",
"1$	c #BBA5A5",
"2$	c #F9A3A3",
"3$	c #FF7F7F",
"4$	c #D7CACA",
"5$	c #A08181",
"6$	c #F2EEEE",
"7$	c #875F5F",
"8$	c #813636",
"9$	c #BD5656",
"0$	c #906060",
"a$	c #D49393",
"b$	c #843030",
"c$	c #CB4040",
"d$	c #F56969",
"e$	c #D9CCCC",
"f$	c #EBA6A6",
"g$	c #FFFBFB",
"h$	c #F5F1F1",
"i$	c #CCBCBC",
"j$	c #E6DEDE",
"k$	c #CFBFBF",
"l$	c #9C7C7C",
"m$	c #B37A7A",
"n$	c #C06767",
"o$	c #A85555",
"p$	c #7D5353",
"q$	c #AC9090",
"r$	c #AA8D8D",
"s$	c #835B5B",
"t$	c #B96060",
"u$	c #B24C4C",
"v$	c #916C6C",
"w$	c #E85959",
"x$	c #FD7676",
"y$	c #D8CCCC",
"z$	c #D3A7A7",
"A$	c #FFB7B7",
"B$	c #AB9090",
"C$	c #D9C3C3",
"D$	c #CE7979",
"E$	c #E04D4D",
"F$	c #D85050",
"G$	c #BD9B9B",
"H$	c #D9CDCD",
"I$	c #B39999",
"J$	c #B69E9E",
"K$	c #D69292",
"L$	c #C27171",
"M$	c #F36E6E",
"N$	c #FF8989",
"O$	c #E5DDDD",
"P$	c #8A6464",
"Q$	c #C79D9D",
"R$	c #A87D7D",
"S$	c #C19A9A",
"T$	c #E78383",
"U$	c #EB6969",
"V$	c #F45B5B",
"W$	c #F56666",
"X$	c #EEC4C4",
"Y$	c #E4D3D3",
"Z$	c #BC9292",
"`$	c #CAB8B8",
" %	c #F18888",
".%	c #DCD1D1",
"+%	c #A88C8C",
"@%	c #C2AFAF",
"#%	c #ECC9C9",
"$%	c #FFA3A3",
"%%	c #EF6767",
"&%	c #F75757",
"*%	c #FB5353",
"=%	c #F95D5D",
"-%	c #F6A4A4",
";%	c #9D7E7E",
">%	c #B29797",
",%	c #DE9D9D",
"'%	c #FFD2D2",
")%	c #E3D9D9",
"!%	c #AE9494",
"~%	c #FCE5E5",
"{%	c #FFA0A0",
"]%	c #FFD6D6",
"^%	c #B79F9F",
"/%	c #9A7777",
"(%	c #F1A2A2",
"_%	c #FFBEBE",
":%	c #FBEDED",
"<%	c #C5B3B3",
"[%	c #A98B8B",
"}%	c #FBCCCC",
"|%	c #FFD1D1",
"1%	c #FDFBFB",
". . . . . . . . . . . . . . . . . . . . . . . . . . . . . . . . . . . . . . . . . . . . . . ",
". . . . . . . + @ # $ % & * = - ; > . . . . . . . . . . . . . . . . . . . . . . . . . . . . ",
". . . . . . , ' ) ! ~ { ] ^ / ( _ : < [ . . . . . . . . . . . . . . . . . . . . . . . . . . ",
". . . . . } | 1 2 3 4 5 6 7 ! 8 9 0 a b c . . . . . . . . . . . . . . . . . . . . . . . . . ",
". . . . d ) { e { 8 f g h i j 8 k l m n o p . . . . . . . . . . . . . . . . . . . . . . . . ",
". . . q r s t u v w x y z i z A x B C D E F G . . . . . . . . . . . . . . . . . . . . . . . ",
". . . H I J K L M N O P Q R S L k T s U 5 V W X . . . . . . . . . . . . . . . . . . . . . . ",
". . Y Z `  .s ..+.. . . . . Y @.#.$.%.&.) *.=.-.;.. . . . . . . . . . . . . . . . . . . . . ",
". . . >.,.'.).!.. . . . . . . . . # ~.] ! {.].^./.. . . . . . . . . . . . . . . . . . . . . ",
". . (._.N :.<.. . . . . . . . . . [.}.) 8 k |.1.2.. . . . . . . . . . . . . . . . . . . . . ",
". . 3.4.5.T 6.7.. . . . . . . . . . 8.9.0.a.b.c.d.. . . . . . . . . . . . . . . . . . . . . ",
". + e.4 *.l f.g.. . . . . . . . . . h.i.j.5.k.l.m.. . . n.. . . . . . . . . . . . . . . . . ",
". o./ p.q.r.s.t.. . . . . . . . . . P  .j.u.v.w.x.M y.z.A.B.. . . . . . . . . . . . . . . . ",
". @.C.b.D.{ E.G F.. . . . . . . . . d L G.H.k.I.J.K.{ L.M.N.. . . . . . . . . . . . . . . . ",
". O./ 8 e K.P.-.Q.. . . . . . . . . :.R.s S.T.U.V.W.X.Y.Z.`.. . . . . . . . . . . . . . . . ",
". <.^  +i.J .+++@+. . . . . . . + #+$+e %+7 &+*+=+-+;+>+,+'+. . . . . . . . . . . . . . . . ",
". <.t )+{ i.!+~+{+. . . . . ]+= <.^+/+%+(+M _+:+. . . . <+[+. . . . . . . . . . . . . . . . ",
". }+|+i 5 1+2+3+4+5+-+6+P h.7+8+Z 9+0+a+%+b+c+d+. . . . . . . . . . . . . . . . . . . . . . ",
". O.e+f+v g+h+i+j+k+(+l+H.m+n+o+p+q+H r+s+t+u+. . . . . . . . . . . . . . . . . . . . . . . ",
". @.A v+) e+w+x+y+..z+1 A+B+A e C+D+E+F+G+@+. . . . . . . . . . . . . . . . . . . . . . . . ",
". H+L ! w I+J+<+K+L+^ M+N+4 L L ^ O+P+Q+[ . . . . . . . . . . . . . . . . . . . . . . . . . ",
". >.` R+S+{ T+[.U+V+T 4 W+0.8 B B L 5 r X+- . . . . . . . . . . . . . . Y+Z+`+ @5+. . . . . ",
". !..@k +@5 @@!.. #@$@'.%@u.s 8 &@j.s ] *@>+[.. . . . . . . . . . . . =@p+*@v -@/+;@>@. . . ",
". . .@,@J 0.'@)@!@. . . ~@E+k+{@A+h ]@2 J ~ ^@. /@^+}.^+Q . . + . . !.(@9.q.J 3 j._@:@<@. . ",
". . [@}@! |@1@2@@+. . . . . . 3@4@| 5@v+! w ,@6@7@R.! ,@X.. O.#.8@k+9@w L t y i 0@9 a@b@[ . ",
". . a+9.s c@d@e@z.. . . . . . . !.f@g@h@h@5.8 i@j@8 K.J k@l@m@i.n@o@v p@{ f q@1+|+{ r@s@; . ",
". . r 1 3 q.t@u@v@. . . . . . . . . w@D.x@e+y@L e &@4 |@z@A@B@n@e e+I+e R.R.W+S x@C@q.D@E@. ",
". . F@A ^ K.G@H@I@. . . . . . . . . . J@K@3 k c@L@A { 0.M@N@O+^ ! O@1+e K.n+>+`  .r B P@2.. ",
". . Q@4 R.) R@S@I@. . . . . . . . . . O.T@z+s 0@^ ) U@|@V@W@x h 1+X@I+|+Y@Z@5+Q@`@K.&@ #.#+#",
". . @#b.R.##$#%#&#. . . . . . . . . . . *#W.2 =#]@y *@8 -#;#M+>#^ M+R+4.,#+ Y J@}@j.t '#)#!#",
". . $ z+S+~#{#2@&#. . . . . . . . . . . ]#%.L@9.^#f+5.1 /#(#f+v+{.D.X+6@. . !._#R+:#2 <#[#!#",
". . }#|#@@m+1#2#3#. . . . . . . . . . . 3@4#A+5#6#7#8#2 9#0#|+1+a#b#c#. . . !.C 8 2 c@d#e#!#",
". . #@f#P+g#h#i#z.. . . . . . . . . . . j#a.i.k#A ! m+@@l#m#n#o#p#q#r#. . . Y S.A 8 ! s#[#!@",
". . (.'.7+@#t#u#v#. . . . . . . . . . . w#q.e+/ )+x#0.| y#z#n#s A#B#C#. . . [.W.8 ~ D#E#F#!@",
". . +.G#m@H#I#J#v#. . . . . . . . . . Y K#g+q.e L#M#j 3 N#O#1+|@P#a . . . . + Q#8 R#5 S#T#!@",
". . U#w#V#[@W#X#Y#. . . . . . . . . . Z#+@z o@*.`#h@J ~  $.$|@S++$@$. . . . . %+e %@#$$$A.!@",
". . . .@%$[@&$*$=$. . . . . . . . . !.-$|+}@4#f J |@u.2 ;$>$u 0@,$'$. . . . . Z 4#)$!$~${$!@",
". . . ]$^$(+P /$Y+. . . . + U++ + ($$.e _$:$*@J g@0.g@q.<$[$L@l+}$|$. . . . . $ @@1$>+2$3$!#",
". . . X+4$5$}++ . #+}#-+5+>.6$;+6@1$7$8$9$0$) 9@4.j.a.a+a$b$t _#c$d$. . . . + `+0+e$% f$2.g$",
". . . !.h$i$U#Z#}+j$k$)$_#l$)$3.R %@m$n$o$p$q$>.r$9.s$,#t$u$S.v$w$x$. . . . Y <.%.f#y$z$A$+#",
". . . . U+#@. H+7+f#-$Z B$[@,#@#C$D$E$F$G$H$#@. !.I$J$[@K$L$J+B$M$N$. . . . U+O$~#P$V+Q$r#+#",
". . . . . . . [.~@O$P+K#g#R$S$T$U$V$W$X$~@. . . . [.H+1$Y$Z$`$h. %B.. . . . . .%J$+%@%#%$%<+",
". . . . . . . . . [.]+q $ %%&%*%=%-%=@. . . . . . . + + 6$;%4@>%,%'%. . . . . )%^+!%G#~%{%<+",
". . . . . . . . . . . . . ]%x+&#. . . . . . . . . . . . }+5$^%/%(%_%. . . . . @ 6$,.Q :%'++#",
". . . . . . . . . . . . . . . . . . . . . . . . . . . . h$k$<%[%}%|%. . . . . . . j$5+Y+z.Y+",
". . . . . . . . . . . . . . . . . . . . . . . . . . . . . + /@* 1%g$. . . . . . . + . . [ . ",
". . . . . . . . . . . . . . . . . . . . . . . . . . . . . . . . . . . . . . . . . . . . . . ",
". . . . . . . . . . . . . . . . . . . . . . . . . . . . . . . . . . . . . . . . . . . . . . "};
