/* XPM */
static char * c_xpm[] = {
"48 48 806 2",
"  	c None",
". 	c #FFFDF7",
"+ 	c #FFF5CE",
"@ 	c #FFE26A",
"# 	c #FFD940",
"$ 	c #FFD631",
"% 	c #FFD425",
"& 	c #FFD327",
"* 	c #FFD634",
"= 	c #FFD428",
"- 	c #FFD21D",
"; 	c #FFCF0E",
"> 	c #FFD010",
", 	c #FFCD08",
"' 	c #FFCE07",
") 	c #FFCC01",
"! 	c #FFCE0B",
"~ 	c #FFD11A",
"{ 	c #FFCF0D",
"] 	c #FFCD06",
"^ 	c #FFCE09",
"/ 	c #FFCE0D",
"( 	c #FFD011",
"_ 	c #FFD11B",
": 	c #FFD013",
"< 	c #FFCF0C",
"[ 	c #FFD016",
"} 	c #FFCF10",
"| 	c #FFD11F",
"1 	c #FFD323",
"2 	c #FFD42C",
"3 	c #FFD326",
"4 	c #FFD52C",
"5 	c #FFDA49",
"6 	c #FFD83C",
"7 	c #FFDE5C",
"8 	c #FFDD55",
"9 	c #FFE16D",
"0 	c #FFD73A",
"a 	c #FFD530",
"b 	c #FFD322",
"c 	c #FFCF11",
"d 	c #FFD426",
"e 	c #FFDB48",
"f 	c #FFF1B9",
"g 	c #FFFEFA",
"h 	c #FFF7D5",
"i 	c #FFE26E",
"j 	c #FFDA47",
"k 	c #FFD62E",
"l 	c #FFD21B",
"m 	c #FFD52B",
"n 	c #FFD735",
"o 	c #FFD52E",
"p 	c #FFD734",
"q 	c #FFD429",
"r 	c #FFD118",
"s 	c #FFD427",
"t 	c #FFD012",
"u 	c #FFD117",
"v 	c #FFD014",
"w 	c #FFCE0A",
"x 	c #FFCD03",
"y 	c #FFCC03",
"z 	c #FFCE0C",
"A 	c #FFCD05",
"B 	c #FFCD07",
"C 	c #FFCE08",
"D 	c #FFD116",
"E 	c #FFD11D",
"F 	c #FFD42A",
"G 	c #FFD324",
"H 	c #FFD738",
"I 	c #FFF3BE",
"J 	c #FFFFFD",
"K 	c #FFF7DA",
"L 	c #FFE271",
"M 	c #FFD838",
"N 	c #FFD119",
"O 	c #FFD630",
"P 	c #FFD83A",
"Q 	c #FFD736",
"R 	c #FFD52D",
"S 	c #FFD93D",
"T 	c #FFDA43",
"U 	c #FFDA40",
"V 	c #FFDC52",
"W 	c #FFD942",
"X 	c #FFD015",
"Y 	c #FFCF13",
"Z 	c #FFCC02",
"` 	c #FFCD09",
" .	c #FFCD04",
"..	c #FFD222",
"+.	c #FFD321",
"@.	c #FFDD54",
"#.	c #FFFEFE",
"$.	c #FFFDF5",
"%.	c #FFEFAD",
"&.	c #FFD220",
"*.	c #FFD11E",
"=.	c #FFD320",
"-.	c #FFD637",
";.	c #FFD329",
">.	c #FFD325",
",.	c #FFD31F",
"'.	c #FFCF0F",
").	c #FFD739",
"!.	c #FFD52F",
"~.	c #FFD83E",
"{.	c #FFD534",
"].	c #FFD114",
"^.	c #FFDC4D",
"/.	c #FFFFFF",
"(.	c #FFFFFB",
"_.	c #FFF5D0",
":.	c #FFDE5A",
"<.	c #FFD42B",
"[.	c #FFD737",
"}.	c #FFCF08",
"|.	c #FFD21C",
"1.	c #FFD124",
"2.	c #FFD125",
"3.	c #FFCF12",
"4.	c #FFCD0F",
"5.	c #FFD532",
"6.	c #FFD83B",
"7.	c #FFD941",
"8.	c #FFD636",
"9.	c #FFDA48",
"0.	c #FFE275",
"a.	c #FFE792",
"b.	c #FFEFB8",
"c.	c #FFF3CC",
"d.	c #FFF7D8",
"e.	c #FFF8D6",
"f.	c #FFEB9D",
"g.	c #FFE992",
"h.	c #FFE682",
"i.	c #FFEA94",
"j.	c #FFEB9B",
"k.	c #FFEA8F",
"l.	c #FFFCEE",
"m.	c #FFEFB0",
"n.	c #FFE789",
"o.	c #FFE065",
"p.	c #FFDE58",
"q.	c #FFDD58",
"r.	c #FFDB4A",
"s.	c #FFD019",
"t.	c #FFD83F",
"u.	c #FFD221",
"v.	c #FF9819",
"w.	c #FF991E",
"x.	c #FF960D",
"y.	c #FF9F07",
"z.	c #FF960C",
"A.	c #FF960E",
"B.	c #FF981A",
"C.	c #FFB538",
"D.	c #FFDB4E",
"E.	c #FFDF5D",
"F.	c #FFE05F",
"G.	c #FFE061",
"H.	c #FFDF60",
"I.	c #FFDD57",
"J.	c #FFEEAB",
"K.	c #FFF0B6",
"L.	c #FFFCF3",
"M.	c #FFFDF4",
"N.	c #FFF6D1",
"O.	c #FFE16C",
"P.	c #FFDA45",
"Q.	c #FFDB46",
"R.	c #FFD83D",
"S.	c #9F5B4E",
"T.	c #89565F",
"U.	c #895458",
"V.	c #F97616",
"W.	c #FFD115",
"X.	c #FFCD02",
"Y.	c #965547",
"Z.	c #895250",
"`.	c #895352",
" +	c #FF8A0F",
".+	c #FFD52A",
"++	c #FFD113",
"@+	c #FFE479",
"#+	c #FFFEFD",
"$+	c #FFFFFE",
"%+	c #FFFBEF",
"&+	c #FFFCEC",
"*+	c #FFF6CE",
"=+	c #FFF1B8",
"-+	c #FFE373",
";+	c #FFD62F",
">+	c #FFD31E",
",+	c #FFCE0F",
"'+	c #FFCC04",
")+	c #644A6E",
"!+	c #404080",
"~+	c #F47214",
"{+	c #FFCE06",
"]+	c #FFCC00",
"^+	c #564571",
"/+	c #FF880C",
"(+	c #FFEEA9",
"_+	c #FFE88A",
":+	c #FFEB98",
"<+	c #FFEEA8",
"[+	c #FFEC9F",
"}+	c #FFEA9A",
"|+	c #FFEEAC",
"1+	c #FFF1BA",
"2+	c #FFE580",
"3+	c #FFD742",
"4+	c #FFD32D",
"5+	c #64496A",
"6+	c #F47832",
"7+	c #FFDD51",
"8+	c #FFD732",
"9+	c #FF8812",
"0+	c #FFD632",
"a+	c #FFDB47",
"b+	c #FFE476",
"c+	c #FFE272",
"d+	c #FFE67E",
"e+	c #FFE78A",
"f+	c #FFF2B9",
"g+	c #FFE374",
"h+	c #FFDC50",
"i+	c #FFD543",
"j+	c #FFB12A",
"k+	c #FF9F1B",
"l+	c #FFA61A",
"m+	c #FFC21D",
"n+	c #F4741C",
"o+	c #FFCD0C",
"p+	c #FFCC06",
"q+	c #564672",
"r+	c #FF8B1A",
"s+	c #FFECA6",
"t+	c #FFEDA7",
"u+	c #FFE47C",
"v+	c #FFE376",
"w+	c #FFE57F",
"x+	c #FFF0B3",
"y+	c #FFEC9E",
"z+	c #FFE48F",
"A+	c #FF9550",
"B+	c #BD6149",
"C+	c #9F5A52",
"D+	c #B45D42",
"E+	c #FE7910",
"F+	c #FFBC18",
"G+	c #FFD21F",
"H+	c #FFD62A",
"I+	c #F47421",
"J+	c #FFD945",
"K+	c #564675",
"L+	c #FF8C23",
"M+	c #FFDB49",
"N+	c #FFEA95",
"O+	c #FFEFB1",
"P+	c #FFECA0",
"Q+	c #FFE477",
"R+	c #FFE886",
"S+	c #FFEDA6",
"T+	c #FFF6D4",
"U+	c #FFA573",
"V+	c #765274",
"W+	c #45417E",
"X+	c #44427F",
"Y+	c #5D4977",
"Z+	c #FB7F3C",
"`+	c #FFDA5F",
" @	c #FFE270",
".@	c #FFE26C",
"+@	c #FFE066",
"@@	c #644B71",
"#@	c #F47B41",
"$@	c #FFEA99",
"%@	c #FFDF5F",
"&@	c #FFD946",
"*@	c #FFE16A",
"=@	c #FFD531",
"-@	c #564674",
";@	c #FF8C24",
">@	c #FFD529",
",@	c #FFD42D",
"'@	c #FFD633",
")@	c #FFCE12",
"!@	c #FFE164",
"~@	c #FFE57B",
"{@	c #FFE067",
"]@	c #FFCE54",
"^@	c #9C5853",
"/@	c #684B6C",
"(@	c #FFA329",
"_@	c #FFD430",
":@	c #FFD635",
"<@	c #F47522",
"[@	c #FFD21A",
"}@	c #FFD217",
"|@	c #564673",
"1@	c #FF8B1D",
"2@	c #FFE168",
"3@	c #FFE784",
"4@	c #FFD62C",
"5@	c #FA8C17",
"6@	c #EC6B10",
"7@	c #644969",
"8@	c #F4710B",
"9@	c #FFCE05",
"0@	c #FF8E30",
"a@	c #FFE165",
"b@	c #FFE57C",
"c@	c #FFE98E",
"d@	c #FFE887",
"e@	c #FFE88B",
"f@	c #FFE786",
"g@	c #FFE370",
"h@	c #FFE57E",
"i@	c #955551",
"j@	c #6D4A62",
"k@	c #FFC303",
"l@	c #FFD00F",
"m@	c #F4710D",
"n@	c #FFCF14",
"o@	c #FF9967",
"p@	c #FFF2BC",
"q@	c #FFF4CC",
"r@	c #FFFBEC",
"s@	c #FFFAE6",
"t@	c #FFF9DF",
"u@	c #FFF6D3",
"v@	c #FFDA44",
"w@	c #FFD21E",
"x@	c #FFC01B",
"y@	c #46437E",
"z@	c #41407F",
"A@	c #FFA21D",
"B@	c #FFC13A",
"C@	c #FFBB1F",
"D@	c #FFC139",
"E@	c #FFC44F",
"F@	c #F4710E",
"G@	c #FFBC1F",
"H@	c #FFBC23",
"I@	c #FFBE2B",
"J@	c #FFBB19",
"K@	c #FFBB1B",
"L@	c #FFBA17",
"M@	c #FFBD25",
"N@	c #FF913E",
"O@	c #FFC657",
"P@	c #FFCE7D",
"Q@	c #FFD298",
"R@	c #FFDDAA",
"S@	c #FFF2C0",
"T@	c #FFF2BD",
"U@	c #FFF8DA",
"V@	c #FFD018",
"W@	c #FFD31D",
"X@	c #FFDA41",
"Y@	c #FE991E",
"Z@	c #4A447B",
"`@	c #89545B",
" #	c #4F4579",
".#	c #FD8135",
"+#	c #FFE06B",
"@#	c #E87239",
"##	c #E8702D",
"$#	c #E8733C",
"%#	c #E8764D",
"&#	c #5F4A74",
"*#	c #DE6F4A",
"=#	c #E8764B",
"-#	c #E8774E",
";#	c #E8764C",
">#	c #FA7C43",
",#	c #FFDD76",
"'#	c #E87549",
")#	c #E87444",
"!#	c #E87547",
"~#	c #E8774D",
"{#	c #54477B",
"]#	c #E86F34",
"^#	c #E87130",
"/#	c #E87136",
"(#	c #E8764F",
"_#	c #FD8952",
":#	c #FFF3C1",
"<#	c #FFE892",
"[#	c #FFDD4C",
"}#	c #E8762B",
"|#	c #CD6326",
"1#	c #FF7F05",
"2#	c #DF6819",
"3#	c #E66615",
"4#	c #FFCC0B",
"5#	c #D86432",
"6#	c #FFD040",
"7#	c #44427E",
"8#	c #EA8073",
"9#	c #FFF8DB",
"0#	c #FFF0B4",
"a#	c #FFE685",
"b#	c #FFE16B",
"c#	c #99584E",
"d#	c #46427C",
"e#	c #FF8507",
"f#	c #FFC20A",
"g#	c #FFA610",
"h#	c #48427B",
"i#	c #A85B41",
"j#	c #D86225",
"k#	c #FFCA1F",
"l#	c #44417D",
"m#	c #EA7E6A",
"n#	c #FFE88C",
"o#	c #FFE787",
"p#	c #FFE475",
"q#	c #FFD845",
"r#	c #574574",
"s#	c #6E4C64",
"t#	c #FFC212",
"u#	c #FFCF15",
"v#	c #845056",
"w#	c #45417D",
"x#	c #FFCB1A",
"y#	c #D86128",
"z#	c #FFC714",
"A#	c #EA784A",
"B#	c #FFE57D",
"C#	c #FFE478",
"D#	c #FFE47D",
"E#	c #FFFAE7",
"F#	c #FFECA2",
"G#	c #FFDC5C",
"H#	c #42417F",
"I#	c #CF6A41",
"J#	c #FFDD59",
"K#	c #FFDC4F",
"L#	c #BD623A",
"M#	c #6D4E63",
"N#	c #D16023",
"O#	c #FD7106",
"P#	c #FFC805",
"Q#	c #D86121",
"R#	c #FFC60B",
"S#	c #EA6E1E",
"T#	c #FFD836",
"U#	c #FFE372",
"V#	c #FFF7F2",
"W#	c #FF7A49",
"X#	c #FFE686",
"Y#	c #FFEB9A",
"Z#	c #F58875",
"`#	c #FE8156",
" $	c #FF993C",
".$	c #FFB72C",
"+$	c #D85F1C",
"@$	c #FFC405",
"#$	c #EA6F1C",
"$$	c #FFFAE4",
"%$	c #FFFEF8",
"&$	c #FFFDF6",
"*$	c #FFECE8",
"=$	c #FF8B7C",
"-$	c #FFEFB3",
";$	c #FFB558",
">$	c #FFC343",
",$	c #FFD22E",
"'$	c #FFD328",
")$	c #D86126",
"!$	c #FFC711",
"~$	c #FFDE59",
"{$	c #FFF2BE",
"]$	c #FFFCF0",
"^$	c #FFE3D8",
"/$	c #FF8645",
"($	c #FFD839",
"_$	c #FFD017",
":$	c #FFD01C",
"<$	c #46427D",
"[$	c #41417F",
"}$	c #46417D",
"|$	c #D96222",
"1$	c #FFC60D",
"2$	c #4A4379",
"3$	c #47427D",
"4$	c #EA6E1B",
"5$	c #FFDB4C",
"6$	c #FFEDA4",
"7$	c #FFFDF3",
"8$	c #FFFAE9",
"9$	c #FFF8DE",
"0$	c #FFF6D5",
"a$	c #FFEA9B",
"b$	c #FFCE85",
"c$	c #FF8946",
"d$	c #FFD424",
"e$	c #F1660F",
"f$	c #F1670F",
"g$	c #F16710",
"h$	c #F1660E",
"i$	c #61486B",
"j$	c #E7671F",
"k$	c #F16919",
"l$	c #F16813",
"m$	c #F16712",
"n$	c #FC6A0A",
"o$	c #FFC508",
"p$	c #F26A19",
"q$	c #F1691D",
"r$	c #F1691B",
"s$	c #F1691A",
"t$	c #544575",
"u$	c #F16C2A",
"v$	c #F16B22",
"w$	c #F16A1E",
"x$	c #F16A1B",
"y$	c #FE750D",
"z$	c #FFDD56",
"A$	c #FFFBED",
"B$	c #FFE581",
"C$	c #FFEB9C",
"D$	c #FFCF95",
"E$	c #FF852F",
"F$	c #FFAA2A",
"G$	c #FFAB29",
"H$	c #FFAA24",
"I$	c #FFAA23",
"J$	c #644A6C",
"K$	c #F47628",
"L$	c #FFAE3E",
"M$	c #FFAD35",
"N$	c #FFAD39",
"O$	c #FFDC5D",
"P$	c #FFAF3D",
"Q$	c #FFAF41",
"R$	c #FFAC2F",
"S$	c #FFAD36",
"T$	c #FF8820",
"U$	c #FFA91D",
"V$	c #FFAA21",
"W$	c #FFAF20",
"X$	c #FFF0B7",
"Y$	c #FFE371",
"Z$	c #FFCA76",
"`$	c #FF8E5F",
" %	c #FFE36F",
".%	c #FFE26D",
"+%	c #FFDB50",
"@%	c #FFDC51",
"#%	c #644B70",
"$%	c #F47B3D",
"%%	c #564774",
"&%	c #FF8911",
"*%	c #FFE167",
"=%	c #FFE684",
"-%	c #FFF6D6",
";%	c #FFEFAE",
">%	c #FFE788",
",%	c #FFD399",
"'%	c #FF8443",
")%	c #FFE169",
"!%	c #FFE064",
"~%	c #FFD550",
"{%	c #FFD344",
"]%	c #FFD73B",
"^%	c #FFD223",
"/%	c #644868",
"(%	c #F4710F",
"_%	c #FF8E2D",
":%	c #FFEA93",
"<%	c #FFEDA9",
"[%	c #FFF5CC",
"}%	c #FFFDF2",
"|%	c #FFE269",
"1%	c #FFC028",
"2%	c #FF750E",
"3%	c #FF9E0A",
"4%	c #FE8305",
"5%	c #FFAB03",
"6%	c #FFC403",
"7%	c #644A6A",
"8%	c #F47211",
"9%	c #FFCF0B",
"0%	c #FFCE10",
"a%	c #564777",
"b%	c #FF9968",
"c%	c #FFF0B2",
"d%	c #FFEB99",
"e%	c #FFEA97",
"f%	c #FFD731",
"g%	c #FFC829",
"h%	c #FF6F0F",
"i%	c #F98909",
"j%	c #815156",
"k%	c #CB6025",
"l%	c #FF7C02",
"m%	c #FFC105",
"n%	c #FFCD0B",
"o%	c #F47216",
"p%	c #FFD62D",
"q%	c #FFDB4F",
"r%	c #FFDD53",
"s%	c #56487B",
"t%	c #FF9F7C",
"u%	c #FFE375",
"v%	c #FFEA96",
"w%	c #FFD029",
"x%	c #C16339",
"y%	c #D9722C",
"z%	c #48427C",
"A%	c #694B6B",
"B%	c #FFBF29",
"C%	c #FFD93E",
"D%	c #644B6F",
"E%	c #F47A39",
"F%	c #FFDC53",
"G%	c #FFE166",
"H%	c #FFE98F",
"I%	c #56487C",
"J%	c #FF9D75",
"K%	c #FFE88E",
"L%	c #FFE47A",
"M%	c #FFEB9E",
"N%	c #FFEFAC",
"O%	c #FFF3C3",
"P%	c #FFF9E0",
"Q%	c #FFFDFA",
"R%	c #FFE16E",
"S%	c #FFD01D",
"T%	c #4C4379",
"U%	c #6B4B69",
"V%	c #FFCB26",
"W%	c #A35D50",
"X%	c #FFC629",
"Y%	c #FFD93F",
"Z%	c #644A6D",
"`%	c #F4762A",
" &	c #FFD943",
".&	c #56477A",
"+&	c #FF944D",
"@&	c #FFDE5F",
"#&	c #FFEFAB",
"$&	c #FFDC54",
"%&	c #7D4F60",
"&&	c #44407E",
"*&	c #FE9E0D",
"=&	c #FFC007",
"-&	c #514476",
";&	c #6C4F64",
">&	c #FFC808",
",&	c #FFCD0A",
"'&	c #FFD423",
")&	c #564776",
"!&	c #FF9A6A",
"~&	c #FFE681",
"{&	c #FFE889",
"]&	c #FFFAE3",
"^&	c #FFFEF5",
"/&	c #FFEDA5",
"(&	c #D66728",
"_&	c #E36716",
":&	c #FF9A06",
"<&	c #FD7E10",
"[&	c #D06732",
"}&	c #64496B",
"|&	c #F4772D",
"1&	c #FFE574",
"2&	c #FF985F",
"3&	c #FFEEAA",
"4&	c #FFEDA1",
"5&	c #FFEB96",
"6&	c #FFEEAD",
"7&	c #FFF5CA",
"8&	c #FFFDF0",
"9&	c #FFFEF9",
"0&	c #FA821F",
"a&	c #4B4479",
"b&	c #98574A",
"c&	c #5C476F",
"d&	c #F96D0D",
"e&	c #D3683A",
"f&	c #C8663F",
"g&	c #C8653A",
"h&	c #FB7822",
"i&	c #FFD422",
"j&	c #CE6B53",
"k&	c #C86A5A",
"l&	c #C86D60",
"m&	c #FF9D71",
"n&	c #FFF1B7",
"o&	c #FFF9E1",
"p&	c #FFFBE8",
"q&	c #FFEA92",
"r&	c #FFE063",
"s&	c #FFAB36",
"t&	c #414180",
"u&	c #FF8004",
"v&	c #FFCE0E",
"w&	c #FFDF63",
"x&	c #FF974B",
"y&	c #FF933D",
"z&	c #FF923C",
"A&	c #FF982C",
"B&	c #FF9139",
"C&	c #FF9030",
"D&	c #FF8E27",
"E&	c #FFA82E",
"F&	c #FFDC4E",
"G&	c #FFF5D2",
"H&	c #FFFCED",
"I&	c #FFFBEA",
"J&	c #FFFAE8",
"K&	c #FFF6D7",
"L&	c #FFE7BC",
"M&	c #6D5078",
"N&	c #564876",
"O&	c #FFB42D",
"P&	c #FFDF5E",
"Q&	c #FFCC05",
"R&	c #FFFAEE",
"S&	c #FFFBEE",
"T&	c #FFF8E2",
"U&	c #FFF8D9",
"V&	c #FFF5C8",
"W&	c #ED7B57",
"X&	c #D46223",
"Y&	c #FFDB4D",
"Z&	c #FFD11C",
"`&	c #FFD219",
" *	c #FFE994",
".*	c #FFEB9F",
"+*	c #FFAA46",
"@*	c #4F457A",
"#*	c #FE7E0F",
"$*	c #FFD93B",
"%*	c #FFDF5B",
"&*	c #FFDD52",
"**	c #FFDD50",
"=*	c #FFCE29",
"-*	c #F1701C",
";*	c #4E4578",
">*	c #45427C",
",*	c #DD641D",
"'*	c #FFB508",
")*	c #FFD00C",
"!*	c #FFA712",
"~*	c #DB6720",
"{*	c #845356",
"]*	c #664B69",
"^*	c #754D5D",
"/*	c #CB6225",
"(*	c #FF8B01",
"_*	c #FFA213",
":*	c #FF7C14",
"<*	c #F67111",
"[*	c #FF7608",
"}*	c #FF8F06",
"|*	c #FFC604",
"1*	c #FFCD01",
"2*	c #FFD733",
"3*	c #FFC20D",
"4*	c #FFB60A",
"5*	c #FFBB09",
"6*	c #FFCF09",
"7*	c #FFD00E",
"8*	c #FFD73C",
"9*	c #FFF1BC",
"0*	c #FFECA5",
"a*	c #FFD01A",
"b*	c #FFE57A",
"c*	c #FFDE5B",
"d*	c #FFDA46",
"e*	c #FFDE5E",
"f*	c #FFD420",
"g*	c #FFF4C6",
"h*	c #FFED9F",
"i*	c #FFE683",
"j*	c #FFE888",
"k*	c #FFF7D3",
"l*	c #FFDF61",
"m*	c #FFDE57",
"n*	c #FFDF5C",
"o*	c #FFE98D",
"p*	c #FFF9E2",
"q*	c #FFF7D7",
"r*	c #FFEDA0",
"s*	c #FFE88D",
"t*	c #FFE378",
"u*	c #FFDC4B",
"v*	c #FFE996",
"w*	c #FFEC9C",
"x*	c #FFE990",
"y*	c #FFDC55",
"z*	c #FFD93C",
"A*	c #FFD840",
"B*	c #FFE688",
"C*	c #FFF5D1",
"D*	c #FFF9DE",
"E*	c #FFFBEB",
". + @ # $ % & * = - ; > , ' ) ! ~ { ] ^ / ( _ : { ^ < [ } | 1 2 3 4 5 6 7 8 9 0 a & b : c d e f ",
"g h i j k l m n o p q l r s t u c v } w , ^ w ] x y ; z A x A y y ! B C { { D E $ F s q G H 8 I ",
"J K L M b N O M P Q R = o S o T P U V W 1 X Y ' Z ) A ` B x A A x  . .] ^ A X b ..1 +.q m F F @.",
"#.$.%.T 4 &.N *.b 1 _ ! w ' < l &.=.0 -.;.1 >.,.s =.'.: '.v +.&.4 S ).!.R - u =.s ~.{.~ ]._ G ^.",
"/.(._.:.a <.= q [.F 1 r A z N B  .'  .}.c |.1.2.3.4.~ s 5.6.7.O 7.8.9.0.a.b.c._.d.e.f.g.h.i.j.k.",
"/./.l.m.n.o.p.q.r.P G [ N r u |.l s.m $ t.u.v.w.x.y.! C w Y v ] ; w / z.A.B.C.D.E.F.G.H.r.I.J.K.",
"/.#.g L.M.l.N.%.g.O.P.Q.R.s u w ^ w / % ^.n S.T.U.V.W.'.] X.x Z  .^ y Y.Z.`. +~ .+b r ++: b 8 @+",
"#+$+$.L.%+&+N.*+=+-+F ;+b d >+,+'+Z Z C ~ G )+!+!+~+( '.{+) ) ]+Z Z ) ^+!+!+/+[ _ : } l G >.@.(+",
"_+:+<+[+_+}+|+1+2+o.G.3+4+E X [ Y &.N =.v z 5+!+!+6+* 7+8+u ! C w / C ^+!+!+9+*.o =.Q u ~ 0+a+[+",
"b+c+d+e+}+f+<+g+h+i+j+k+l+m+% s r _ [ b p >.5+!+!+n+[ u o+p+] ] , ; w q+!+!+r+[.6 # [.|.3 n 7+s+",
"t+u+E.v+w+j.x+y+z+A+B+C+D+E+F+G+X H+s +.~ [ 5+!+!+I+& O >.Q H 8.6.J+= K+!+!+L+t.a R $ u.2 R.M+N+",
"O+P+Q+R+S+T+h x+U+V+W+!+X+Y+Z+`+7  @i  @.@+@@@!+!+#@$@%@&@*@I.Q R =@_ -@!+!+;@F >@,@6 '@j R.E.n.",
"G+G+)@).!@~@{@]@^@!+!+!+!+!+/@(@_@:@_ k ;+m 5+!+!+<@m [@}@].} W.v : ] |@!+!+1@4 [.;+s &.U ^.2@3@",
"4@;+P =.=...m 5@!+!+!+!+!+!+!+6@x '+A ' ^ } 7@!+!+8@C B 9@x y B '.{ ( |@!+!+0@a@b@c@d@e@f@g@a@h@",
"P !.[.R 0+m q i@!+!+!+!+!+!+!+j@k@Z  .A w l@7@!+!+m@: n@- N l N t N = -@!+!+o@p@q@K r@r@s@t@u@K ",
"v@G [ c l w@x@y@!+!+!+!+!+!+!+z@A@R.B@C@D@E@)+!+!+F@G@H@I@J@d K@L@K@M@-@!+!+N@O@P@Q@R@S@T@+ U@+ ",
"O V@[@W@H X@Y@!+!+!+Z@`@ #!+!+!+.#+#@###$#%#&#!+!+*#=#-#;#>#,#'#)#!#~#{#!+!+]#^#/#(#_#f :#<#I.[#",
"P ;+N s 3 8.}#!+!+!+|#1#2#!+!+!+3#4#!+!+!+!+!+!+!+!+!+!+!+5#6#7#!+!+!+!+!+!+!+!+!+!+8#9#0#a#b#O.",
"v@[.+.b _ G c#!+!+d#e#f#g#h#!+!+i#&.!+!+!+!+!+!+!+!+!+!+!+j#k#l#!+!+!+!+!+!+!+!+!+!+m#J.n#o#p#@ ",
"g@M+=@o '@q#r#!+!+s#t#: u#v#!+!+w#x#!+!+!+!+!+!+!+!+!+!+!+y#z#l#!+!+!+!+!+!+!+!+!+!+A#B#b#C#@+D#",
"L.E#*+F#~@G#H#!+!+I#J#K## L#M#N#O#P#!+!+!+!+!+!+!+!+!+!+!+Q#R#l#!+!+!+!+!+!+!+!+!+!+S#= T#b+f@U#",
"/./././.$+V#!+!+!+W#X#Y#p@Z#`# $.$w@!+!+!+!+!+!+!+!+!+!+!++$@$l#!+!+!+!+!+!+!+!+!+!+#$s ).o#$$. ",
"/./.$+%$&$*$!+!+!+=$-$Y#@+;$>$,$F '$!+!+!+!+!+!+!+!+!+!+!+)$!$l#!+!+!+!+!+!+!+!+!+!+S#% a ~${$%$",
"/.$+g L.]$^$!+!+!+/$($!.G+w@s.E _$:$<$<$<$<$[$!+!+}$<$<$<$|$1$2$d#d#d#[$!+!+3$<$<$<$4$d $ 5$6$7$",
"8$9$0$:#a$b$!+!+!+c$@ j O d$= >.u X e$f$g$h$i$!+!+j$k$l$m$n$o$p$q$r$s$t$!+!+u$v$w$x$y$q R.z$J.A$",
"^.^.*@B$C$D$!+!+!+E$$ +.=.X v Y c <.F$G$H$I$J$!+!+K$L$M$N$;$O$P$Q$R$S$-@!+!+T$U$V$F$W$[.* v@p#9#",
"X$(+O.+@Y$Z$!+!+!+`$~@ %.%~$+%~$@%H.J#7 E.I.#%!+!+$%g+6 * ($>.t _$/ '.%%!+!+&%_ - 1 % 9.^.*%=%-%",
"j.;%_+>%Y#,%!+!+!+'%)%g@!%~%{%]%'@8.^%G+|.c /%!+!+(%! '  .Z ] w _ - [ -@!+!+_%z$b#-+d+:%<%T@[%}%",
"|%* ..[ w@1%!+!+!+2%v : z 3%4%5%6%B ` t ~ X 7%!+!+8%< B A 9%w 0%_ G Q a%!+!+b%x+c%d%)%G.e%_.$$J ",
"~.O f%;+q g%!+!+!+h%u t A i%j%k%l%m%^ n%, ' /%!+!+o%c w@b p%6 K#q%r%I.s%!+!+t%u%W M+M+I.o.e@{$. ",
"v%h+0+o >.w%z@!+!+x%w@.+b y%!+z%A%B%C%I.T 7.D%!+!+E%F%H.E.G% @=%v%H%d%I%!+!+J%K%L%M%N%J.O%P%A$Q%",
"u@R%P _ : S%T%!+!+U%V%:@R W%!+!+H#X%o T Y%).Z%!+!+`%P.).>@m G+). &p.>%.&!+!++&.%@&>%#&m.u@%+/./.",
"[%$&O X c 5.%&!+!+&&*&4#=&-&!+!+;&>&t r ~ ; 7@!+!+F@; } ,&: >+; X '&P )&!+!+!&y+~&U#p#{&x+]&J /.",
"^&/&-.R 1 - (&!+!+!+_&:&<&!+!+!+[&9.h@h+_+w+}&!+!+|&=.=.1 $ G+* 5 G%1&s%!+!+2&3&|+4&5&6&7&8&$+/.",
"9&O%D.O d$1 0&!+!+!+a&b&c&!+!+!+d&+.E.8 M+K#e&f&g&h&<.~ X i&<.% 6 j 2@j&k&l&m&=+n&O%q@e.t@o&r@g ",
"#+p&q&r&^.~.s&z@!+!+!+!+!+!+!+t&u&v&~.H..%w&x&y&z&A&>.u#3.u >@0+5 !%!%B&C&D&E&F&J#7 K#K#E.+@X#G&",
"&$H&I&r@J&K&L&M&!+!+!+!+!+!+!+N&O&P P.!@O.$&@%P&h@~@3@W v&Q&/ : ,+c [ w@u s.q $ -.p%q '$+.$ t.[+",
"R&S&$$T&K&U&V&W&!+!+!+!+!+!+!+X&_$G+m &.<.@%^.Y&# n @.D.& r Z&t `&|.`&; ! _ b >.=.=.W.l .+'@o h@",
"<+<% *M%.*M%Y$+*@*!+!+!+!+!+!+#*- b $*6 = c =.2@v+6.T %*;+u.} v&( 0%'.A B ! Z&= !.!.d G } N = M+",
"&*e r.@.**H .+=*-*;*!+!+!+>*,*'*< ^ '.W.} B ] '.} B {+9@y Z y x A ! ^ )*~ >.O [.$ p%+.[@: N [.r%",
"P&h+6 k P G F | !*~*{*]*^*/*(* ., A X.x A p+} { ` v O q =.b n@z C ! w '.} u s 0+m >@n o = 4 p W ",
"b#R.>.= = E d r _$_*:*<*[*}*|*w ' ! {+w B w ` A A  .] ] ] A A X.x x 1*A B 9%'.( ~ w@G G 2*Q & :@",
"a+M ($;._$: [ ; ; ].3*4*5*6*'+] ] A ++'.! 9%B C ! { ! B ]  .{+C 7*/ ! } E w@N 1 :@8*r.).'@R 7.e ",
"%.%@f%- : |.G =.*.N { ]  .x Z  .A  .` ` 9%w A ] ^ { ` ^ / } 3.; N _ u q  &~$~&[+|+9*p@d%_+{@Y$i.",
"E#0*X@R F =.Y _ r a*w ) ) ) A  . .X.Z Z ] A B } 9%' A A B / r , ' ; l@G+&.;+W @ i e+n.O.{@2@b*c%",
".%c** d$u u.s !.$ s b r z } : _$r w@.+d*~&:.e*t+r&=.;.j 7.b - =.% R G f*d 0+# q%b#(+g*h*q&i*d+j*",
"k*p@3@l*^.).M 7.C%)..+G+G b N c ; z , r F&o.F%m*E.8 7.:@6 a G+r V@_ - &.0+a+n*f@c%f n&;%f 0#6$o*",
"/.$+7$p*q*O%-$r*s*t*P&q.O.w+i.B#P&u*0+q J++@v*v%y+w*x*d+{@y*z*A*9.r&b@C#B* *t+C*D*t@A$8$E*7$J J "};
