/* XPM */
static char * c_xpm[] = {
"48 46 744 2",
"  	c None",
". 	c #FFFFFF",
"+ 	c #FFFEFA",
"@ 	c #FFFCF3",
"# 	c #FFFCF1",
"$ 	c #FFFEF8",
"% 	c #FFFFFE",
"& 	c #FFFCF0",
"* 	c #FFF4CA",
"= 	c #FFE993",
"- 	c #FFE061",
"; 	c #FFE16A",
"> 	c #FFE371",
", 	c #FFE47C",
"' 	c #FFE98C",
") 	c #FFF0B1",
"! 	c #FFF6D4",
"~ 	c #FFFCF2",
"{ 	c #FFFDF4",
"] 	c #FFEB98",
"^ 	c #FFDF60",
"/ 	c #FFD528",
"( 	c #FFCF13",
"_ 	c #FFD114",
": 	c #FFD21D",
"< 	c #FFCF0F",
"[ 	c #FFCE07",
"} 	c #FFCD05",
"| 	c #FFD21A",
"1 	c #FFD733",
"2 	c #FFE67E",
"3 	c #FFF4C6",
"4 	c #FFD93F",
"5 	c #FFD013",
"6 	c #FFD016",
"7 	c #FFD015",
"8 	c #FFCC04",
"9 	c #FFCE08",
"0 	c #FFCE0E",
"a 	c #FFD012",
"b 	c #FFCE09",
"c 	c #FFCD03",
"d 	c #FFCE0C",
"e 	c #FFD737",
"f 	c #FFD942",
"g 	c #FFFDF5",
"h 	c #FFF5D0",
"i 	c #FFE372",
"j 	c #FFDF5F",
"k 	c #FFD42C",
"l 	c #FFD220",
"m 	c #FFD52C",
"n 	c #FFCD07",
"o 	c #FFCD06",
"p 	c #FFCD08",
"q 	c #FFCE0B",
"r 	c #FFCF11",
"s 	c #FFD42D",
"t 	c #FFCD36",
"u 	c #FFEAD2",
"v 	c #FFFCFA",
"w 	c #FFFFFC",
"x 	c #FFF3C3",
"y 	c #FFE478",
"z 	c #FFE67C",
"A 	c #FFD735",
"B 	c #FFD635",
"C 	c #FFD73A",
"D 	c #FFCF0C",
"E 	c #FFCF14",
"F 	c #FFD322",
"G 	c #FFBA10",
"H 	c #FF9F0C",
"I 	c #FF9A04",
"J 	c #FFA805",
"K 	c #FF9006",
"L 	c #FF7B04",
"M 	c #FF832F",
"N 	c #FFDEC8",
"O 	c #FFF2C1",
"P 	c #FFDF61",
"Q 	c #FFD62F",
"R 	c #FFDA46",
"S 	c #FFDB49",
"T 	c #FFD11A",
"U 	c #FFD632",
"V 	c #FFD634",
"W 	c #FFC719",
"X 	c #FFA206",
"Y 	c #FF7003",
"Z 	c #FF6E04",
"` 	c #FF6B03",
" .	c #FF6E08",
"..	c #FF6C05",
"+.	c #FF6C0A",
"@.	c #FFCEAD",
"#.	c #FFF7D6",
"$.	c #FFDB4F",
"%.	c #FFD325",
"&.	c #FFD427",
"*.	c #FFD52D",
"=.	c #FFD21C",
"-.	c #FFC619",
";.	c #FF9106",
">.	c #FF8404",
",.	c #FF7905",
"'.	c #FF6E06",
").	c #FF700A",
"!.	c #FF6D09",
"~.	c #FF7B23",
"{.	c #FF781E",
"].	c #FF7C24",
"^.	c #FFB98A",
"/.	c #FFE476",
"(.	c #FFD119",
"_.	c #FFDE5D",
":.	c #FFD736",
"<.	c #FFD52A",
"[.	c #FFCD11",
"}.	c #FF9C15",
"|.	c #FF6C01",
"1.	c #FF6A02",
"2.	c #FF6C03",
"3.	c #FF760A",
"4.	c #FF720C",
"5.	c #FF7518",
"6.	c #FF8738",
"7.	c #FF7F29",
"8.	c #FFA263",
"9.	c #FFFDF6",
"0.	c #FFF7D9",
"a.	c #FFD83B",
"b.	c #FFD426",
"c.	c #FFD93E",
"d.	c #FFD52B",
"e.	c #FFD219",
"f.	c #FFD21E",
"g.	c #FFD633",
"h.	c #FFD739",
"i.	c #FFB721",
"j.	c #FF7D07",
"k.	c #FF6A01",
"l.	c #FF6C04",
"m.	c #FF6E0A",
"n.	c #FF7E24",
"o.	c #FFB078",
"p.	c #FFB17D",
"q.	c #FF8F44",
"r.	c #FFC298",
"s.	c #FFDCC5",
"t.	c #FFFDF9",
"u.	c #FFE785",
"v.	c #FFD742",
"w.	c #FFD44E",
"x.	c #FFE8B8",
"y.	c #FFF3EB",
"z.	c #FFF4ED",
"A.	c #FFFDF2",
"B.	c #FFFCEE",
"C.	c #FFFEFB",
"D.	c #FFE681",
"E.	c #FFD428",
"F.	c #FFDB4C",
"G.	c #FFCD0B",
"H.	c #FFD011",
"I.	c #FFD734",
"J.	c #FFB81F",
"K.	c #FF800A",
"L.	c #FF6E05",
"M.	c #FF730F",
"N.	c #FF6E0C",
"O.	c #FF6C0B",
"P.	c #FFB887",
"Q.	c #FFEFE4",
"R.	c #FFE6D5",
"S.	c #FFFDFC",
"T.	c #FFFEFE",
"U.	c #FFF7D8",
"V.	c #FFDB44",
"W.	c #FFD326",
"X.	c #FFBD1D",
"Y.	c #FF7706",
"Z.	c #FF7413",
"`.	c #FF8736",
" +	c #FF8635",
".+	c #FFDAC0",
"++	c #FFEA98",
"@+	c #FFC610",
"#+	c #FFBE05",
"$+	c #FFA417",
"%+	c #FF893B",
"&+	c #FFA970",
"*+	c #FFF6F0",
"=+	c #FFFCED",
"-+	c #FFDD53",
";+	c #FFDA43",
">+	c #FFE98E",
",+	c #FFCE06",
"'+	c #FFC12A",
")+	c #FF8F13",
"!+	c #FF7D16",
"~+	c #FF7B1F",
"{+	c #FF7418",
"]+	c #FF7B22",
"^+	c #FFA365",
"/+	c #FFD9BF",
"(+	c #FFF4EB",
"_+	c #FFEFB0",
":+	c #FFCE04",
"<+	c #FFC909",
"[+	c #FFB304",
"}+	c #FF8516",
"|+	c #FF8E43",
"1+	c #FF8433",
"2+	c #FFC39B",
"3+	c #FFDA42",
"4+	c #FFCD04",
"5+	c #FFC404",
"6+	c #FFBF02",
"7+	c #FFAE0A",
"8+	c #FF8431",
"9+	c #FF8D41",
"0+	c #FFEDE2",
"a+	c #FFFFFD",
"b+	c #FFEFAB",
"c+	c #FFD83C",
"d+	c #FFD945",
"e+	c #FFCE0A",
"f+	c #FFD221",
"g+	c #FFC128",
"h+	c #FF9016",
"i+	c #FF7D19",
"j+	c #FF8530",
"k+	c #FF7F2A",
"l+	c #FF802A",
"m+	c #FFA569",
"n+	c #FFE9DB",
"o+	c #FFFAE3",
"p+	c #FFF8DC",
"q+	c #FFF8DF",
"r+	c #FFE577",
"s+	c #FFBF03",
"t+	c #FF9E2E",
"u+	c #FFAF78",
"v+	c #FFAF79",
"w+	c #FFDFC9",
"x+	c #FFF9DB",
"y+	c #FFD83A",
"z+	c #FFC603",
"A+	c #FFBD02",
"B+	c #FFBE06",
"C+	c #FFB460",
"D+	c #FFD284",
"E+	c #FFA45F",
"F+	c #FF8839",
"G+	c #FF893A",
"H+	c #FFD943",
"I+	c #FFD21B",
"J+	c #FFD018",
"K+	c #FFC321",
"L+	c #FF890F",
"M+	c #FF7512",
"N+	c #FF7F2B",
"O+	c #FFA467",
"P+	c #FFECDE",
"Q+	c #FFE47A",
"R+	c #FFDE52",
"S+	c #FFDB4B",
"T+	c #FFCB00",
"U+	c #FFCC00",
"V+	c #FFCA24",
"W+	c #FFC55D",
"X+	c #FFD9B2",
"Y+	c #FFF5E7",
"Z+	c #FFF4C8",
"`+	c #FFE88D",
" @	c #FFD425",
".@	c #FFCB01",
"+@	c #FFC707",
"@@	c #FFC303",
"#@	c #FFC917",
"$@	c #FFCF2A",
"%@	c #FF8B1B",
"&@	c #FF7414",
"*@	c #FF8331",
"=@	c #FFFDF7",
"-@	c #FFD118",
";@	c #FFCF0B",
">@	c #FFCC01",
",@	c #FFD02C",
"'@	c #FF9210",
")@	c #FF7009",
"!@	c #FF7010",
"~@	c #FF7E28",
"{@	c #FF8737",
"]@	c #FF8C40",
"^@	c #FFDAC2",
"/@	c #FFD017",
"(@	c #FFBC2D",
"_@	c #FF831F",
":@	c #FF8428",
"<@	c #FF9230",
"[@	c #FFB623",
"}@	c #FFCD0A",
"|@	c #FFCF19",
"1@	c #FF9923",
"2@	c #FF8731",
"3@	c #FF8A3B",
"4@	c #FFF0B4",
"5@	c #FFDA49",
"6@	c #FFCC03",
"7@	c #FFCD02",
"8@	c #FFCF0D",
"9@	c #FFB904",
"0@	c #FF7404",
"a@	c #FF6702",
"b@	c #FF6F0F",
"c@	c #FF7519",
"d@	c #FF8C41",
"e@	c #FFCFAE",
"f@	c #FFFCFB",
"g@	c #FFDC4E",
"h@	c #FFCD01",
"i@	c #FFCE10",
"j@	c #FFC936",
"k@	c #FF9633",
"l@	c #FF9240",
"m@	c #FF903D",
"n@	c #FF8B0E",
"o@	c #FFCC06",
"p@	c #FFD01B",
"q@	c #FF9721",
"r@	c #FF7A1A",
"s@	c #FFE063",
"t@	c #FFCC02",
"u@	c #FFCC0A",
"v@	c #FF8605",
"w@	c #FF6904",
"x@	c #FF6A06",
"y@	c #FF6A07",
"z@	c #FF7112",
"A@	c #FFA66A",
"B@	c #FFFEFD",
"C@	c #FFD21F",
"D@	c #FFD014",
"E@	c #FFCC76",
"F@	c #FFCB77",
"G@	c #FFBF88",
"H@	c #FFC625",
"I@	c #FFCF0E",
"J@	c #FFD11E",
"K@	c #FFAC55",
"L@	c #FF9045",
"M@	c #FFF1BA",
"N@	c #FFCF09",
"O@	c #FFBB04",
"P@	c #FF6C02",
"Q@	c #FF6802",
"R@	c #FF6A08",
"S@	c #FF6803",
"T@	c #FFE2D0",
"U@	c #FFEC9D",
"V@	c #FFE475",
"W@	c #FFD32B",
"X@	c #FFC905",
"Y@	c #FFB126",
"Z@	c #FFDB8B",
"`@	c #FFFAE9",
" #	c #FFFEFC",
".#	c #FFFDF8",
"+#	c #FFEB9E",
"@#	c #FFD93C",
"##	c #FFD944",
"$#	c #FFCC0B",
"%#	c #FFB707",
"&#	c #FFBD16",
"*#	c #FFE691",
"=#	c #FFEDD2",
"-#	c #FFC39C",
";#	c #FFC49C",
">#	c #FFEB9D",
",#	c #FFD117",
"'#	c #FFD00E",
")#	c #FFCE05",
"!#	c #FFCD09",
"~#	c #FF9903",
"{#	c #FF6701",
"]#	c #FF6B08",
"^#	c #FF6E0D",
"/#	c #FFB17E",
"(#	c #FFF7D5",
"_#	c #FFD320",
":#	c #FFD42A",
"<#	c #FFCE1D",
"[#	c #FFBB09",
"}#	c #FF7816",
"|#	c #FFCBA8",
"1#	c #FFE680",
"2#	c #FFC910",
"3#	c #FFAF06",
"4#	c #FF7B1E",
"5#	c #FF8430",
"6#	c #FF9B57",
"7#	c #FFDFCA",
"8#	c #FFE6D6",
"9#	c #FFDD54",
"0#	c #FFD11D",
"a#	c #FFC90A",
"b#	c #FF7801",
"c#	c #FF6905",
"d#	c #FF771D",
"e#	c #FFD7BD",
"f#	c #FFF9E3",
"g#	c #FFCB07",
"h#	c #FFB909",
"i#	c #FF8115",
"j#	c #FF802D",
"k#	c #FFD3B6",
"l#	c #FFE57E",
"m#	c #FFD839",
"n#	c #FFCE15",
"o#	c #FFC00E",
"p#	c #FF7E1A",
"q#	c #FF7E25",
"r#	c #FF9D5B",
"s#	c #FFEDA6",
"t#	c #FFCF10",
"u#	c #FFD324",
"v#	c #FFC005",
"w#	c #FF7103",
"x#	c #FF6D0C",
"y#	c #FFFBEF",
"z#	c #FFDB4A",
"A#	c #FFD62A",
"B#	c #FFCB05",
"C#	c #FFC307",
"D#	c #FF9C14",
"E#	c #FF8F45",
"F#	c #FFCFAF",
"G#	c #FFD837",
"H#	c #FFCF1E",
"I#	c #FFC113",
"J#	c #FFBA07",
"K#	c #FF973F",
"L#	c #FF9F5E",
"M#	c #FFDE5A",
"N#	c #FFD019",
"O#	c #FFB703",
"P#	c #FF740B",
"Q#	c #FF6C09",
"R#	c #FF6E0E",
"S#	c #FF8B3E",
"T#	c #FFFBF8",
"U#	c #FFFAE7",
"V#	c #FFD116",
"W#	c #FFCD0D",
"X#	c #FFC00C",
"Y#	c #FFA327",
"Z#	c #FF9D5C",
"`#	c #FF9B59",
" $	c #FFE2CE",
".$	c #FFF5CB",
"+$	c #FFD641",
"@$	c #FFBE1C",
"#$	c #FFB60E",
"$$	c #FFAD6E",
"%$	c #FF8533",
"&$	c #FFB481",
"*$	c #FFCF12",
"=$	c #FFB608",
"-$	c #FF8213",
";$	c #FF6B09",
">$	c #FF7316",
",$	c #FF934C",
"'$	c #FFD52F",
")$	c #FFD327",
"!$	c #FFD638",
"~$	c #FFCF74",
"{$	c #FFBF94",
"]$	c #FFC29A",
"^$	c #FFDCC6",
"/$	c #FFEBDE",
"($	c #FFFBF0",
"_$	c #FFECA1",
":$	c #FFE994",
"<$	c #FFD269",
"[$	c #FFBB57",
"}$	c #FFCEAC",
"|$	c #FFBF95",
"1$	c #FFE4D3",
"2$	c #FFE269",
"3$	c #FFDA45",
"4$	c #FFCC0C",
"5$	c #FFAB12",
"6$	c #FF720B",
"7$	c #FF6F0E",
"8$	c #FF7215",
"9$	c #FF9751",
"0$	c #FFF7DD",
"a$	c #FFDA44",
"b$	c #FFCE0D",
"c$	c #FFD429",
"d$	c #FFE38F",
"e$	c #FFF0E5",
"f$	c #FFD0B1",
"g$	c #FFF1E8",
"h$	c #FFF4C3",
"i$	c #FFEEAC",
"j$	c #FFDD77",
"k$	c #FFCD8D",
"l$	c #FFBB8F",
"m$	c #FFD5B8",
"n$	c #FFEADC",
"o$	c #FFDE56",
"p$	c #FFD941",
"q$	c #FFDC4C",
"r$	c #FFD31F",
"s$	c #FFD422",
"t$	c #FFCC17",
"u$	c #FF9C12",
"v$	c #FF7C12",
"w$	c #FFC096",
"x$	c #FFF9F5",
"y$	c #FFF9E2",
"z$	c #FFF3C6",
"A$	c #FFE26E",
"B$	c #FFF9E4",
"C$	c #FFF7DA",
"D$	c #FFF8DA",
"E$	c #FFE1CD",
"F$	c #FFDB48",
"G$	c #FFD11B",
"H$	c #FFC21A",
"I$	c #FF8F0B",
"J$	c #FF8D19",
"K$	c #FF9C5B",
"L$	c #FFD6BB",
"M$	c #FFECE0",
"N$	c #FFD328",
"O$	c #FFCF0A",
"P$	c #FFB315",
"Q$	c #FF7E03",
"R$	c #FF761B",
"S$	c #FF7011",
"T$	c #FFA060",
"U$	c #FFD2B4",
"V$	c #FFDFCB",
"W$	c #FFD83E",
"X$	c #FFD738",
"Y$	c #FFD630",
"Z$	c #FFC206",
"`$	c #FF8307",
" %	c #FF6B01",
".%	c #FF6700",
"+%	c #FF7213",
"@%	c #FF771C",
"#%	c #FF944D",
"$%	c #FFA971",
"%%	c #FFDEC7",
"&%	c #FFFDFB",
"*%	c #FFDA47",
"=%	c #FFD42B",
"-%	c #FFDA40",
";%	c #FFC10F",
">%	c #FF7704",
",%	c #FF6901",
"'%	c #FFAA71",
")%	c #FFD1B2",
"!%	c #FFC723",
"~%	c #FF8308",
"{%	c #FF6801",
"]%	c #FFBB8D",
"^%	c #FFFAF7",
"/%	c #FFD22A",
"(%	c #FF8E0C",
"_%	c #FF710F",
":%	c #FFAC75",
"<%	c #FFB011",
"[%	c #FFE4D1",
"}%	c #FFF9F4",
"|%	c #FFF8F3",
"1%	c #FFECDF",
"2%	c #FFDDC6",
"3%	c #FFF6F1",
"4%	c #FFFCF9",
"5%	c #FFF9F6",
"6%	c #FFE88E",
"7%	c #FFDD55",
"8%	c #FFBF0B",
"9%	c #FF7104",
"0%	c #FF6A05",
"a%	c #FFB07A",
"b%	c #FFBC90",
"c%	c #FFBD90",
"d%	c #FFB27F",
"e%	c #FFBE92",
"f%	c #FFBD92",
"g%	c #FFBA8C",
"h%	c #FFBE93",
"i%	c #FFC6A1",
"j%	c #FFAD76",
"k%	c #FFA568",
"l%	c #FFA76C",
"m%	c #FFB07B",
"n%	c #FFE78C",
"o%	c #FFDC4F",
"p%	c #FFE787",
"q%	c #FFE066",
"r%	c #FFCB04",
"s%	c #FF8D03",
"t%	c #FF6F10",
"u%	c #FF7114",
"v%	c #FF7B24",
"w%	c #FF822E",
"x%	c #FF7317",
"y%	c #FF7921",
"z%	c #FF7A22",
"A%	c #FF7C25",
"B%	c #FFAB73",
"C%	c #FFB97F",
"D%	c #FFE4CD",
"E%	c #FFF7F2",
"F%	c #FFF9E1",
"G%	c #FFE16B",
"H%	c #FFE67F",
"I%	c #FFECA2",
"J%	c #FF6903",
"K%	c #FF6D0B",
"L%	c #FF6906",
"M%	c #FF7314",
"N%	c #FF7618",
"O%	c #FF7614",
"P%	c #FF7917",
"Q%	c #FF8321",
"R%	c #FF973B",
"S%	c #FF861B",
"T%	c #FFA428",
"U%	c #FFCB74",
"V%	c #FFF1DC",
"W%	c #FFF3C2",
"X%	c #FFEDA3",
"Y%	c #FFF2BD",
"Z%	c #FFDE59",
"`%	c #FFCC05",
" &	c #FF7C01",
".&	c #FF6C07",
"+&	c #FF6B04",
"@&	c #FF6600",
"#&	c #FF7709",
"$&	c #FF9311",
"%&	c #FF920D",
"&&	c #FFBB1B",
"*&	c #FFDB4D",
"=&	c #FFFCEF",
"-&	c #FFF4C4",
";&	c #FFE88C",
">&	c #FFBC0A",
",&	c #FF8504",
"'&	c #FF7107",
")&	c #FF7008",
"!&	c #FF7209",
"~&	c #FF6F01",
"{&	c #FF6D01",
"]&	c #FF6F03",
"^&	c #FF9A10",
"/&	c #FFA50E",
"(&	c #FFB41C",
"_&	c #FFD338",
":&	c #FFE57C",
"<&	c #FFF9DF",
"[&	c #FFEFAF",
"}&	c #FFE375",
"|&	c #FFE26B",
"1&	c #FFBF13",
"2&	c #FFA10E",
"3&	c #FF7A05",
"4&	c #FF870A",
"5&	c #FF8009",
"6&	c #FF6E03",
"7&	c #FF7A07",
"8&	c #FF7808",
"9&	c #FF6F04",
"0&	c #FF7605",
"a&	c #FF7B05",
"b&	c #FFA009",
"c&	c #FFB510",
"d&	c #FF9D12",
"e&	c #FFAF28",
"f&	c #FFDC71",
"g&	c #FFF5CA",
"h&	c #FFC210",
"i&	c #FFB923",
"j&	c #FFB726",
"k&	c #FF9911",
"l&	c #FF7906",
"m&	c #FF8304",
"n&	c #FF8804",
"o&	c #FF7A01",
"p&	c #FF7303",
"q&	c #FF8E0B",
"r&	c #FFAD28",
"s&	c #FFA42B",
"t&	c #FFD68E",
"u&	c #FFEFAC",
"v&	c #FFCB11",
"w&	c #FFCE23",
"x&	c #FFCB29",
"y&	c #FFCD2D",
"z&	c #FFC134",
"A&	c #FFAB23",
"B&	c #FF940F",
"C&	c #FFAB17",
"D&	c #FFD691",
"E&	c #FFEED9",
"F&	c #FFE88F",
"G&	c #FFD121",
"H&	c #FFD421",
"I&	c #FFDC4A",
"J&	c #FFCD18",
"K&	c #FFD22B",
"L&	c #FFEEB3",
"M&	c #FFFCF5",
"N&	c #FFD52E",
"O&	c #FFD11C",
"P&	c #FFDE5B",
"Q&	c #FFDB46",
"R&	c #FFD321",
"S&	c #FFEC9E",
"T&	c #FFD83F",
"U&	c #FFD83D",
"V&	c #FFD42F",
"W&	c #FFD843",
"X&	c #FFEC9C",
"Y&	c #FFF1BD",
"Z&	c #FFE479",
"`&	c #FFE683",
" *	c #FFE26F",
".*	c #FFDC51",
"+*	c #FFF1B6",
"@*	c #FFF6D2",
"#*	c #FFD940",
"$*	c #FFE57D",
"%*	c #FFF6CF",
"&*	c #FFFEF6",
". . . . . . . . . . . . . . . . + @ # $ % . . . . . . . . . . . . . . . . . . . . . . . . . . . ",
". . . . . . . . . . . . . & * = - ; > , ' ) ! ~ . . . . . . . . . . . . . . . . . . . . . . . . ",
". . . . . . . . . . . { ] ^ / ( _ : < [ } | 1 2 . . . . . . . . . . . . . . . . . . . . . . . . ",
". . . . . . . . . . 3 4 5 6 7 8 9 0 a b c d e f g . . . . . . . . . . . . . . . . . . . . . . . ",
". . . . . . . . . h i j k l m n } o p q < r s t u v . . . . . . . . . . . . . . . . . . . . . . ",
". . . . . . . w x y z A B C D b E F G H I J K L M N . . . . . . . . . . . . . . . . . . . . . . ",
". . . . . . . O P Q m R S T U V W X L Y Z `  ...+.@.. . . . . . . . . . . . . . . . . . . . . . ",
". . . . . . #.$.V %.R &.%.*.=.-.;.>.,.'.).!.~.{.].^.. . . . . . . . . . . . . . . . . . . . . . ",
". . . . . $ /.(.l _.:.<.&.&.[.}.|.1.2.3.4.5.6.7.7.8.. + 9.g . . . . . . . . . . . . . . . . . . ",
". . . . . 0.a.b.c.d.e.f.g.h.i.j.k.l...m.n.o.p.q.r.s.t.u.f v.w.x.y.z.v . . . . . A.B.@ . . . . . ",
". . . . C.D.E.m F.G.H.k I.J.K.L.M.N.O.{.P.Q.R.S.T.. U.V.W.X.Y.Z.`. +.+. . . ++I.@+#+$+%+&+*+. . ",
". . . . =+-+;+>+f.,+5 d.'+)+!+~+{+]+^+/+(+. . . . . _+D :+<+[+}+|+1+2+. . . 3+4+5+6+7+8+9+0+. . ",
". . . a+b+c+d+1 q e+f+g+h+i+j+k+l+m+n+. . . . o+p+q+r+o c p s+t+u+v+w+. T.x+y+n z+A+B+C+D+E+F+G+",
". . . p+H+I+J+o n d.K+L+M+]+`.N+O+P+. . . . % Q+R+S+( T+U+T+T+V+W+X+Y+Z+`+ @< U+.@+@@@#@$@%@&@*@",
". . =@, -@;@c >@c ,@'@)@!@~@{@]@^@% . . . . % -+/@T c T+U+>@U+;@(@_@:@<@[@}@q 9 9 D n d |@1@2@3@",
". . 4@5@r 6@>@7@8@9@0@a@b@c@d@e@f@. . . . . % g@T ( c T+U+h@.@i@j@k@l@m@n@o@b p n n 6@9 p@q@r@|+",
". w s@l < >@>@t@u@v@w@x@y@z@A@B@. . . . . . % ; C@D@4+h@T+h@T+e+d+E@F@G@H@p n o@q I@4+} J@K@L@&+",
". M@e.< N@>@t@8 O@P@Q@R@S@8+T@. . . . . . . . { U@V@W@7@4+4+X@Y@Z@`@ #.#+#@###;@8 $#%#&#*#=#-#;#",
"C.>#,#'#n >@)#!#~#{#a@]#^#/#T.. . . . . . . . . $ (#f _#:#<#[#}#8+G+|#. a+g 1#r < 2#3#4#5#6#7#8#",
"{ 9#-@0#o t@9 a#b#a@c#y@d#e#. . . . . . . . . . . f#f 6 l g#h#i#3@j#k#. . . l#m#n#o#%#p#q#r#y.. ",
"s#6 t#u#t@n o v#w#w@x#x#G+0+. . . . . . . . . . . y#z#(.A#B#C#D#E#6.F#. . . U@G#H#I#J#K#`.L#v . ",
"M#N#( 5 4+7 n O#P#Q#R#^#S#T#. . . . . . . . . . . U#Q+7 V#W#X#Y#Z#`# $. . . .$##+$@$#$$$%$&$. . ",
"3+z#E.8@4+*$!#=$-$R@;$>$,$. . . . . . . . . . . . Z+'$)$/ !$~${$]$^$/$. . . ($_$:$<$[$}$|$1$. . ",
"2$3$V.q e+I+4$5$6$+.7$8$9$T.. . . . . . . . . . . 0$a$<.b$c$d$e$f$g$v . . . % h$i$j$k$l$m$n$. . ",
"o$p$q$r$s$V t$u$v$x#z@*@w$x$. . . . . . . . . . . . y$z$A$B$w . T.. . . . . . . C$D$ #E$y.% . . ",
"F$5 U G$g.)$H$I$J$z@!@K$L$M$. . . . . . . . . . . . . & `@w . . . . . . . . . . . . . . . . . . ",
"*.u#u#-@N$O$P$Q$1.R$S$T$U$V$. . . . . . . . . . . . . . . . . . . . . . . . . . . . . . . . . . ",
"W$X$V : Y$Z$`$ %.%+%@%#%$%%%&%. . . . . . . . . . . . . . . . . . . . . . . . . . . . . . . . . ",
"u#*%E.=%-%;%>%k.,%^#M '%)%7#B@. . . . . . . . . . . . . . . . . . . . . . . . . . . . . . . . . ",
"f.g.*.Y$R !%~%{%{%;$R$]%v ^%. . . . . . . . . . . . . . . . . . . . . . . . . . . . . . . . . . ",
"C@Q @#p$S /%(%{#.%_%y@:%T.. . . . . . . . . . . T.T.T.. . . . . . . . . . . . . . . . . . . . . ",
"f.t#j 3$*%/@<%1.{%@%;$d#[%}%x$|%x$1% $2%)%@.[%Q.T#3%z.4%5%. . . . . . . . . . . . . . . . . . . ",
"m s 6%7%:.r 8%9%,%0%]#Q#{.a%b%c%A@d%e%f%g%h%i%j%k%l%m%U$P+B@. . . . . . . . . . . . . . . . . . ",
"n%o%p%q%a.E r%s%,%..t%u%+%v%w%M x%y%z%~@A%8${@B%T$C%D%E%&%T.. . . . . . . . . . . . . . . . . . ",
"F%G%H%I%S+r 9 B+b# %J%^#K%]#^#+.L%+.M%N%O%P%Q%R%S%T%U%V%T.. . . . . . . . . . . . . . . . . . . ",
"C.W%X%Y%Z%| 9 `%3# &k.Q@.&a@+&{%.%@&@&,%,%2.#&$&%&&&*&_$=&. . . . . . . . . . . . . . . . . . . ",
". ~ -&;&i r$[ 4+0 >&,&9%'&)&!&{%,%,%k.~&{&k.]&^&/&(&_&:&<&. . . . . . . . . . . . . . . . . . . ",
". % F%[&}&|&;@>@h@: 1&2&3&4&5&P@6&7&8&9&0&a&b&c&d&e&f&g&. . . . . . . . . . . . . . . . . . . . ",
". . =@=&I%_.C@,+7@6@8@o@h&i&j&k&l&m&n&o&p&,.q&r&s&t&9.. . . . . . . . . . . . . . . . . . . . . ",
". . . % C.u&r$s$b } 7@c n 5 v&w&x&y&z&A&B&2&C&D&E&|%. . . . . . . . . . . . . . . . . . . . . . ",
". . . . . g F&a.: 9 }@( -@(.G&f+H&A I&c+J&K&; L&M&. . . . . . . . . . . . . . . . . . . . . . . ",
". . . . . . B.>+N&6 _ O&c$X$W$F.S P&r+Q&C@C@R&S&w . . . . . . . . . . . . . . . . . . . . . . . ",
". . . . . . . C.z$u.m e M#T&0#b.O&C@U&^ V&G$W&X&a+. . . . . . . . . . . . . . . . . . . . . . . ",
". . . . . . . . . . Y&Z&`& *S+e u#e .*+*@*#*$*f#. . . . . . . . . . . . . . . . . . . . . . . . ",
". . . . . . . . . . . . . ! %*M@) (#&*% . + . . . . . . . . . . . . . . . . . . . . . . . . . . ",
". . . . . . . . . . . . . . . . . . . . . . . . . . . . . . . . . . . . . . . . . . . . . . . . "};
