/* XPM */
static char *classes[] = {
/* columns rows colors chars-per-pixel */
"32 32 191 2",
"   c #501102",
".  c #511102",
"X  c #531301",
"o  c #571701",
"O  c #591701",
"+  c #5B1801",
"@  c #5C1801",
"#  c #5D1A01",
"$  c #601C01",
"%  c #621D01",
"&  c #651D01",
"*  c #632301",
"=  c #632501",
"-  c #642001",
";  c #642201",
":  c #642601",
">  c #652802",
",  c #672902",
"<  c #682B02",
"1  c #692C02",
"2  c #6C2C02",
"3  c #6D2D03",
"4  c #6E2D03",
"5  c #6F2E03",
"6  c #703004",
"7  c #723404",
"8  c #743604",
"9  c #763604",
"0  c #783605",
"q  c #7D3004",
"w  c #832B03",
"e  c #802D03",
"r  c #882A02",
"t  c #8E2801",
"y  c #8D3D03",
"u  c #912901",
"i  c #962C01",
"p  c #972F02",
"a  c #982D02",
"s  c #933402",
"d  c #953102",
"f  c #874505",
"g  c #864806",
"h  c #874A07",
"j  c #874B06",
"k  c #8A4103",
"l  c #884D06",
"z  c #8B4F06",
"x  c #8D5006",
"c  c #8F5106",
"v  c #9C4C06",
"b  c #925006",
"n  c #965006",
"m  c #A24A07",
"M  c #A54906",
"N  c #A84906",
"B  c #AC4A06",
"V  c #B04A05",
"C  c #B44804",
"Z  c #BA4904",
"A  c #BE4904",
"S  c #A16607",
"D  c #A26707",
"F  c #A56608",
"G  c #A76608",
"H  c #A86809",
"J  c #A96A0A",
"K  c #AD6C0A",
"L  c #B2710A",
"P  c #B4730A",
"I  c #BD7708",
"U  c #BE7509",
"Y  c #BA7908",
"T  c #B97D08",
"R  c #C44C04",
"E  c #CA4E05",
"W  c #CA5306",
"Q  c #CC5807",
"!  c #CE5D07",
"~  c #D26107",
"^  c #D56607",
"/  c #DC6808",
"(  c #DF6A08",
")  c #E46F08",
"_  c #E87508",
"`  c #EA7808",
"'  c #EA7B08",
"]  c #EB7E08",
"[  c #B98108",
"{  c #BB8408",
"}  c #BD8608",
"|  c #BE8808",
" . c #C0890A",
".. c #C28A0B",
"X. c #C38B0A",
"o. c #C38B0B",
"O. c #C48D0B",
"+. c #C7900B",
"@. c #CA940C",
"#. c #CC970D",
"$. c #D79E0F",
"%. c #D99D0B",
"&. c #DE9A0A",
"*. c #D09A10",
"=. c #D19B12",
"-. c #D39C13",
";. c #D59D11",
":. c #EB8107",
">. c #EB8307",
",. c #EC8507",
"<. c #EC8607",
"1. c #EB8807",
"2. c #E98A08",
"3. c #E98C08",
"4. c #E59409",
"5. c #E99008",
"6. c #EBA70C",
"7. c #ECA80B",
"8. c #EFB90B",
"9. c #F0A70D",
"0. c #F2A80E",
"q. c #F3AB0F",
"w. c #F4AF0B",
"e. c #F3B30B",
"r. c #F0B60B",
"t. c #F0B90A",
"y. c #F2BB0A",
"u. c #F6BC0D",
"i. c #F7BD0E",
"p. c #F8BE0D",
"a. c #F9C10B",
"s. c #FAC20A",
"d. c #FBC40A",
"f. c #FBC609",
"g. c #FCCB02",
"h. c #FCCB03",
"j. c #FDCB02",
"k. c #FCCB04",
"l. c #FCCB07",
"z. c #FDCB07",
"x. c #FCCC02",
"c. c #FCCC03",
"v. c #FDCC05",
"b. c #FCCD06",
"n. c #FDCC06",
"m. c #FCC808",
"M. c #FCCA08",
"N. c #FCCD08",
"B. c #FCCD0A",
"V. c #FCCD0B",
"C. c #FCCE0B",
"Z. c #FCCE0C",
"A. c #FDCE0E",
"S. c #FCCE11",
"D. c #FCCE12",
"F. c #FCCD17",
"G. c #FCCE14",
"H. c #FCCE16",
"J. c #FACF1B",
"K. c #FBCF1A",
"L. c #FCCD18",
"P. c #FCCE19",
"I. c #FAD01E",
"U. c #FAD020",
"Y. c #FAD123",
"T. c #FAD226",
"R. c #FAD22B",
"E. c #FAD430",
"W. c #FAD535",
"Q. c #FAD63B",
"!. c #FAD740",
"~. c #FAD743",
"^. c #FBD94A",
"/. c #FBDC52",
"(. c #FBDE5B",
"). c #FBDF5F",
"_. c #FBE064",
"`. c #FCE26C",
"'. c #FCE475",
"]. c #FCE681",
"[. c #FCE787",
"{. c #FCE990",
"}. c #FCEC9A",
"|. c #FDEDA0",
" X c #FDEEA8",
".X c #FDF1B6",
"XX c #FEF4C6",
"oX c #FEF7D5",
"OX c #FEF8DB",
"+X c #FEF8DF",
"@X c #FDFAE9",
/* pixels */
"@XoX}._.Q.^._.].[.`.U.c.j.j.k.k.c.k.C.k.C.k.C.C.k.k.k.T.'..X+X@X",
"XX(.Y.C.k.k.M.D.H.Z.c.c.j.j.k.z.k.k.c.c.c.k.k.C.k.C.k.k.I.!.[.XX",
" XT.j.j.c.f.t.t.s.f.f.M.M.M.k.C.k.c.k.C.c.j.c.z.M.z.z.C.I.E._.}.",
"}.H.c.C.Z.o.h l b S S J P T { | o.#.%.e.s.t.e.P S 2.:.s.C.Z.^.{.",
"`.C.C.D.i.J : 6 ; ; 4 & % = 5 5 6 8 0 b [ %.{ 2 < ! ) 2.P.P.~.].",
"I.k.k.t.J y M [ I A C i i t i i t t t a B ^ G y m U Q >.H.D.P.T.",
"c.c.j.%.1 e E i.k.y.6.0.0.5.1.2.' ! ^ _ <.0.e.e.e.n 2 ~ f.k.j.k.",
"k.k.z.@.< q E w.c.%.[ [ | O.{ @.O.G ;.&.4.7.c.c.t.l ; R s.c.c.c.",
"W.T.I.| ; e ^ %.6.r.8.;.$.6.$.6.i.=.T e.8.f.b.C.t.h = R s.k.k.c.",
"_./.^.[ o 8 H 6 2 8 g l x b S S S D J } %.8.r.6.$.8 % A s.k.c.c.",
"P.D.H.P o 8 S ; ; ; = # + # , 2 : 2 : 8 c [ | T P 6 # Z e.C.C.k.",
"C.c.z.J o r E L I A B s a r d m d r q w y I | ^ o.0 # a q.R.Q.!.",
"j.c.M.P < t E e.i.q.9.2.<.<.,.1.,.:.] ,.5.e.q.i.e.f ; a 0.K.J.Y.",
"k.z.z.o.0 a ( P.I.I.D.C.k.k.z.z.c.c.k.k.k.c.c.C.y.S 6 d 0.j.j.c.",
"c.c.j.o.2 e / M.j.z.k.z.d.M.f.t.t.t.y.y.a.i.8.s.y.G 2 a 5.k.c.k.",
"c.z.j.{ : 0 I 6.%.-.$.| S S S 0 4 7 f 0 8 g g b P z = a ,.c.k.k.",
"k.c.C.T : 2 0 0 1 1 2 : o o o               X X 0 g 1 a :.j.c.k.",
"k.c.c.T ; , ; , 6 2 2 & % & 5 e & & & & e d y k H l : i :.j.c.c.",
"Z.Z.Z.o.< y G J ! ~ Q E W W ! ) _ _ _ 2.q.w.e.e.u.S < s _ f.c.c.",
"C.I.R.-.f B >.d.w.w.e.q.i.i.d.M.z.M.M.C.C.k.k.k.z.Y 0 B ` M.k.k.",
"c.C.Z.e.P ^ 1.k.c.Z.H.D.D.C.c.k.C.Z.Z.Z.D.k.k.k.c.@.n U ,.M.k.Z.",
"c.c.k.y.o.o.4.k.c.k.k.k.k.k.k.c.k.j.j.z.j.j.k.k.k.%.c H ,.D.H.U.",
"k.k.C.i.P P %.u.a.u.i.i.s.s.s.t.f.f.f.M.k.c.M.k.j.o.o & U D.Z.Z.",
"k.k.k.M.D 6 8 x c c l c b b z b b n S T #.+.| @.e.| o % U C.k.Z.",
"k.k.c.c.O.4 % = % o # % < 8 2 : 1 : : 0 0 ; : 8 G J : 2 U f.I.^.",
"G.k.c.C.i.$.Z C d a a t d N N v y 0 k b f # ; 7 G ..K K 4.M.Q.].",
"G.C.C.A.P.H.u.w.q.5.<.' _ _ ' _ ) ) _ ` _ ^ U 1.0.6.9.6.e.M./. X",
"G.c.k.k.C.D.H.H.A.k.A.G.H.f.M.f.i.i.i.s.s.s.s.z.M.M.M.j.M.Z.'.XX",
"(.N.z.C.Z.G.K.K.D.k.c.A.D.k.k.C.k.k.C.k.Z.D.I.I.C.c.k.k.j.D.{.+X",
"}.Y.z.c.j.g.g.j.C.k.C.c.k.Z.D.C.k.N.C.C.Z.Z.I.D.c.z.C.k.k.R..X@X",
"+X].R.H.C.k.k.z.k.A.G.C.A.I.I.H.G.D.A.C.k.M.z.z.H.Q.(.^.^.[.OX@X",
"@X.X).Q.R.S.N.x.c.k.A.C.k.C.C.C.C.C.C.k.j.z.z.Z.Q.[..X}.}.XX@X@X"
};
