/* XPM */
static char *Class[] = {
/* columns rows colors chars-per-pixel */
"48 48 256 2",
"   c #430A0A",
".  c #4A0D0C",
"X  c #430708",
"o  c #4B0E11",
"O  c #470F12",
"+  c #45110D",
"@  c #4A110D",
"#  c #4B1412",
"$  c #4C1B1B",
"%  c #481614",
"&  c #521413",
"*  c #511A15",
"=  c #521B1A",
"-  c #5A1C1C",
";  c #51161B",
":  c #56120E",
">  c #541D21",
",  c #4A211C",
"<  c #52211C",
"1  c #542223",
"2  c #562A29",
"3  c #5A2322",
"4  c #5C252A",
"5  c #5C2926",
"6  c #5B2B2B",
"7  c #542926",
"8  c #5B2E30",
"9  c #5D312C",
"0  c #5D3132",
"q  c #5E3839",
"w  c #4F2523",
"e  c #690708",
"r  c #67110E",
"t  c #691918",
"y  c #741C1C",
"u  c #761718",
"i  c #721F23",
"p  c #78211D",
"a  c #64201E",
"s  c #632525",
"d  c #622B2C",
"f  c #6B2D2C",
"g  c #682528",
"h  c #622E31",
"j  c #6A2F31",
"k  c #62312E",
"l  c #6A312E",
"z  c #633333",
"x  c #643639",
"c  c #633835",
"v  c #64393B",
"b  c #693333",
"n  c #6A3339",
"m  c #6D3934",
"M  c #6B3B3B",
"N  c #762626",
"B  c #723B3C",
"V  c #743536",
"C  c #7B2F32",
"Z  c #693E40",
"A  c #723D40",
"S  c #6A403B",
"D  c #73413E",
"F  c #6B4243",
"G  c #6C4849",
"H  c #724343",
"J  c #744A4A",
"K  c #794448",
"L  c #7B4C4C",
"P  c #764644",
"I  c #7A4E51",
"U  c #74504C",
"Y  c #7B5252",
"T  c #795757",
"R  c #6F5254",
"E  c #811618",
"W  c #950F10",
"Q  c #872828",
"!  c #8A3A38",
"~  c #902624",
"^  c #9A3838",
"/  c #AA1618",
"(  c #B21B1E",
")  c #B21D22",
"_  c #A92629",
"`  c #AA302C",
"'  c #A73C3E",
"]  c #B52628",
"[  c #BC3535",
"{  c #B52D33",
"}  c #A73D41",
"|  c #BF403A",
" . c #874746",
".. c #834E52",
"X. c #845353",
"o. c #815C5A",
"O. c #865A5A",
"+. c #974647",
"@. c #935C5B",
"#. c #945555",
"$. c #88645E",
"%. c #846263",
"&. c #8B6B6B",
"*. c #876866",
"=. c #8D7273",
"-. c #936A6A",
";. c #966866",
":. c #916E71",
">. c #94726D",
",. c #937473",
"<. c #9A7473",
"1. c #9A7B7A",
"2. c #977A7B",
"3. c #856E71",
"4. c #A65757",
"5. c #B4585A",
"6. c #B14849",
"7. c #AF5E62",
"8. c #AB6A67",
"9. c #A37577",
"0. c #B67576",
"q. c #B06F6E",
"w. c #C3332E",
"e. c #D83D3B",
"r. c #C63B3A",
"t. c #E13334",
"y. c #E52929",
"u. c #C33E43",
"i. c #E83D45",
"p. c #C6413E",
"a. c #D4413F",
"s. c #CA4342",
"d. c #C64849",
"f. c #C75758",
"g. c #D64947",
"h. c #D7524E",
"j. c #DC5B5E",
"k. c #D95754",
"l. c #D54D53",
"z. c #DA5E62",
"x. c #C95F65",
"c. c #C66768",
"v. c #C87A7B",
"b. c #D96766",
"n. c #D66B72",
"m. c #D77878",
"M. c #E55A5C",
"N. c #EC4C4F",
"B. c #E55D64",
"V. c #E5605E",
"C. c #E46567",
"Z. c #EB7475",
"A. c #F46D6D",
"S. c #EB7074",
"D. c #997D81",
"F. c #D27E80",
"G. c #E27A81",
"H. c #9A807D",
"J. c #A1837F",
"K. c #BF807F",
"L. c #D9827F",
"P. c #E4807E",
"I. c #998684",
"U. c #A28889",
"Y. c #AA8A8B",
"T. c #A48688",
"R. c #A98E91",
"E. c #A4918E",
"W. c #AB9394",
"Q. c #AA9695",
"!. c #B98A8B",
"~. c #B78E92",
"^. c #B49B9C",
"/. c #B79897",
"(. c #B9938A",
"). c #BC9FA0",
"_. c #B6A19E",
"`. c #BCA3A2",
"'. c #B9A6A6",
"]. c #AEA0A4",
"[. c #CA8686",
"{. c #C69998",
"}. c #D88786",
"|. c #D89997",
" X c #DB928F",
".X c #DF9EA0",
"XX c #C3ABAB",
"oX c #C8A9A6",
"OX c #C4ADB1",
"+X c #C7B1AF",
"@X c #C4B2B1",
"#X c #CAB4B3",
"$X c #CAB9B8",
"%X c #DAA5A6",
"&X c #D1BBBB",
"*X c #D6B7B7",
"=X c #E5969A",
"-X c #F98785",
";X c #FC8D93",
":X c #FE9797",
">X c #E88786",
",X c #EA9CA5",
"<X c #E6A8A7",
"1X c #E7B5B3",
"2X c #FDACAC",
"3X c #FAA5A6",
"4X c #F5BABD",
"5X c #FCBCBB",
"6X c #F7B5B6",
"7X c #EFAFAF",
"8X c #FCBDC1",
"9X c #D4C3BE",
"0X c #FEC0BC",
"qX c #D2C3C2",
"wX c #DBCCCC",
"eX c #D8C6C5",
"rX c #DED2D3",
"tX c #D3D1D3",
"yX c #D1C5C9",
"uX c #E5C9CB",
"iX c #E2D1CE",
"pX c #E2D5D4",
"aX c #E4D9DB",
"sX c #EBDBDC",
"dX c #E6D8D6",
"fX c #FCC2C3",
"gX c #FBC5C8",
"hX c #FDCCCA",
"jX c #F4C8C4",
"kX c #FCD2CC",
"lX c #FED4D4",
"zX c #FDDDDC",
"xX c #F8D6D6",
"cX c #F9CFD2",
"vX c #EEDDE0",
"bX c #ECE0DD",
"nX c #FDE3DD",
"mX c #EDE4E3",
"MX c #EBE8E7",
"NX c #F1E4E4",
"BX c #F2E6E8",
"VX c #F4ECEB",
"CX c #FFE3E3",
"ZX c #FCEBE6",
"AX c #FEECEB",
"SX c #F3E8E5",
"DX c #F7EDF2",
"FX c #FDF2ED",
"GX c #F4F3EE",
"HX c #F5F2F2",
"JX c MintCream",
"KX c #FDF4F3",
"LX c #FDF6FA",
"PX c #FEFAF5",
"IX c #FDFDFD",
"UX c #F3F5F8",
/* pixels */
"IXIXIXIXIXIXIXIXIXIXIXIXIXIXIXIXIXIXIXIXIXIXIXIXIXIXIXIXIXIXIXIXIXIXIXIXIXIXIXIXIXIXIXIXIXPXJXJX",
"IXIXIXIXIXIXIXIXIXIXIXIXIXIXIXIXIXIXIXIXIXIXIXIXIXIXIXIXIXPXIXIXIXIXIXIXIXIXIXIXIXIXIXIXIXIXIXIX",
"IXIXIXIXIXIXLXPXLXLXIXIXIXPXIXIXIXIXIXIXIXIXIXIXIXPXIXPXIXIXIXIXIXIXIXIXIXIXPXIXIXIXIXIXIXJXIXIX",
"IXIXIXIXIXKX&XQ.,.&.XXOXuXpXsXmXVXHXKXIXIXIXIXPXIXIXIXIXIXIXIXIXIXIXIXIXIXPXpXeXqXaXZXZXAXIXIXIX",
"IXIXIXIXIXKXT 2 2 9 M n S F F J I Y o.*.>.T.U.Q.I.U.W.'.&XeXpXmXLXLXMXtXqX&XR q F R.5XM.:XnXPXIX",
"IXIXIXIXIXPXT 6 S P M 7 2 k 0 z 6 6 6 6 z 2 v M 0 n H x v q R ,.'.eXrXrXwX#X0 d V <.c.g.N.:XPXIX",
"IXIXIXIXFXdXU * b f B g t y E p : & - 1 6 j A ..H A X.X.....o.*.&.1.'.9XW.T % $ - -.7X-XP.C.ZXPX",
"IXIXPXrXE.*.V N @.T {.@.^ ] ) / / W W W E ~ Q ! N r r u u u y ! 4.0.|.|.0.#.t N Q 5.L.}.>XL.kXIX",
"IXIXIXU.z n V r.=XZXPXDXcX6X=X[.x.f.d.[ ] ) w.w.{ ] ] ) / / ( ( ] [ f.c.n.L.F.0.[.%Xq.+...(.nXIX",
"IXIXIX$.3 d V e.A.AXIXIXIXPXPXLXDXAXCXzXjX4X6X6X<X<X.X Xv.c.}.,X<X6XgXlXnXVXKXIXLX9XM s m 8.4XIX",
"IXIXGXU < h l a.l.AXIXJXIXsXY.I.VXIXIXIXIXLXIXIXIXVXNX=._.FXPXFXHXIXHXIXJXIXIXIXIX@X2 = N } :XIX",
"PXIXrXY 5 c l N.B.ZXJXIXLXR.^.2.T.Y.I.2.2.D.I.U.Q.3.%.,.T SXrX9XtXwX].aXIXIXLXPXIX'.2 z N { :XPX",
"IXIXyXP 4 x m V.C.AXPXIXIXUXHXMXQ.I.I.9XeXE.I.Q.wXaXBXeXT '.].aXrXqXmXMXIXIXIXIXIX^.v z g ] -XPX",
"IXIX#X0 1 z M >X6XsXwXyXaXBXGXFXKXKXHXPXPXLXPXPXIXIXIXGXE.I.MXJXIXIXIXUXIXJXIXIXLXQ.m d V ` -XIX",
"IXIXXX1 + s H %X;.F 8 J T I %.&.1.T.Y.W.^.OX$X@X#X+X*XeXeXiXmXVXKXPXPXHXGXMXHXIXPXY.3 > f ` -XPX",
"IXIX+X= + j S eXF h 4 5 1 6 z c z 0 7 6 6 h h F F 0 P H H F R *.Q.qXdXaXrXqXeXsXsX1.$ o g ` Z.IX",
"IXIX*X7 % 6 q eXF 4 t * < < l 6 7 < 3 d h B M O.I Z H L G M Z Y o.&.U.XXqX'.Y.T.T.=.* % f / A.LX",
"IXIXOX, @ b V |.A x q D m 6 m d ; @ # * # = z 6 v > 5 k h d z M X.2.Y.@X#XR.1.W._.!.< * f _ h.PX",
"IXJX^.% & V ~ h.v.1.E.*X=Xn.x.5.+.^ ^ Q u y +.4.7.! Q Q p r y t N  .<./.{.0.0.0.~.9.% * l ~ g.KX",
"PXPXR., @  .~ t.C.nXFXzX=XG.S.b.B.h.h.h.g.s.d.l.k.d.s.p.w.{ [ | 6.x. X<X<X|.7X1XxX~.% # D E a.KX",
"IXIXY.F < m ~ t.S.ZXIXIXIXKXZXlXhXfXfXfX4X4XfXgXjX8X4X8X4X4X4XfXhXxXCXAXAXFXPXPXPXY.$ <  .E e.HX",
"IXIX'.*.2 X.~ y.;XLXJXIXIXIXIXIXIXIXIXIXIXIXIXIXJXIXIXIXIXIXIXIXIXJXIXIXIXIXIXIXPXQ...k A E i.AX",
"IXIX$X:.h X.! t.3XPXIXIXIXIXIXIXIXIXIXPXPXIXPXIXIXIXIXIXIXIXIXIXIXIXIXIXIXIXIXIXIX'.:.9 ;.Q g.AX",
"IXIX$X*.d H N e.2XLXIXIXIXIXIXIXIXIXIXIXIXIXIXIXIXIXPXIXIXIXIXIXIXIXIXIXIXIXIXIXIXqX9.F J N g.6X",
"IXIX&XP & B f f.gXIXIXIXIXIXIXIXIXUXDXVXPXUXDXmXNXsXdXsXBXMXVXmXmXVXDXMXBXvXNXKXLX$X-.9 F t s.3X",
"IXJX&XH $ K  .[.xXPXLXHXHXHXHXDXDXwXQ.T.^.'.^.*.H F x F T *.*.o.J o.1.&.%.:.Y.XXXXQ.J = M g d.:X",
"IXIX+XA w Y S <.+X+X/.U.1.,.2.>.&.o.D z 6 c 2 $   X X       o & . . o o ; 7 $ < R Q.H < L ! u.;X",
"LXIX'.h w K c S c v 6 n h h d k 5 - % = = s - 3 1 + # & # X o . @ . . o = * % % F {.P 6 L f } -X",
"IXIX_.4 ; P h j k D b 4 , 2 k d 5 = ; $ $ - * $ %   X . . X   X . . # = - & - = K /.m 5 X.g s.;X",
"IXIX'.6 ; J 2 = $ 2 h b 2 2 0 d > % ; # @ % D +.! p u r e e e u u p C ! +.! +.#.9.{.6 % L t d.-X",
"IXIXwX0 $ Y z m 0 L m 0.[.[.v.q.4.6.6.6.} ' ' f.d.p.d.p.r.r.d.b.m. X<X6X7X<X1X0XxXuXM 1 Y < 6.-X",
"IXIXsXx = ;.! 0.%XoX[.m.b.b.b.b.f.M.B.B.C.C.Z.>X3X3X2X2X2X2XfXzXAXKXLXPXPXPXPXPXLXBXJ > X.V f.B.",
"IXIXSXG 6 ;.5.f.AXLXCXhX5X0X5X5X5X8XCXZXAXAXFXKXIXIXIXIXIXIXIXIXIXIXIXIXIXIXIXIXIXVXY 4 -.K m.B.",
"IXIXVX*.G >.f.j.ZXIXIXIXIXIXIXIXIXIXIXIXIXIXIXIXIXIXIXIXIXIXIXIXIXIXIXIXIXIXIXIXIXHX:.n 1.$.2XM.",
"IXIXKX_.*.T.m.z.ZXIXIXIXIXIXIXIXIXIXIXIXIXIXIXIXIXIXIXIXIXIXIXIXIXIXIXIXIXIXIXIXIXLXU.T I.1.5XC.",
"IXIXPXqXI.oX=Xc.ZXIXIXIXIXIXIXIXIXIXIXIXIXIXIXIXIXIXIXIXIXIXIXIXIXIXIXIXIXIXIXIXIXIX&X=.^.`.fXZ.",
"IXIXIXwX'.9X1X|.FXIXIXIXIXIXIXIXIXIXIXIXIXIXIXIXIXIXIXIXIXIXIXIXIXIXIXIXIXIXIXIXIXIXiXY.^._.<XZ.",
"IXIXIXdX2._.1XoXHXIXIXIXIXIXIXIXIXIXIXIXIXIXIXIXIXIXIXIXIXIXIXIXIXIXIXIXIXIXIXIXIXPX$X0 1 6 B }.",
"IXIXIXvX,.2.oX'.VXIXIXPXIXPXIXPXPXIXLXIXLXPXIXIXIXIXIXPXIXIXIXIXIXIXIXIXIXIXIXIXIXIX^.+ % s N  X",
"IXIXIXaX*.G $.:.^.XX#X+X#X$XOX+XXX+X&X9X+X$X'._.'.XX$XiXpXdXmXmXPXLXLXHXDXIXIXPXIXLXQ.$ @ f g |.",
"IXIXIXsX1.M 3 M h z h h h h > 8 1 1 w 1 0 v 6 0 X.L c n 0 v T :.oX&X&XXXQ.D.U.'.pXDX^.h % j g v.",
"IXIXIXsXY.x = - 6 z m m 2 d 6 n z D L n @.Y D M A L P H M K X.o.%.G 4 3 4 2 U Y.W.+XD.% # 6 f c.",
"IXIXIXHXiX*.9 < 5 s 5 < @ . % * $ $ ; m 6 M z ; 4 4 5 6 1 4 6 G O.J < 6 n c 9 G o.T.T.M 6 Z #.F.",
"IXIXIXIXPXyX!.5.' ' ^ Q p y g y t t < #.;.<.;.J S H 6 7 3 6 7 0 H M O o * % * D >.`.&X(.=.=.1X=X",
"IXIXIXJXIXKXxX,XZ.j.k.k.h.l.d.l.d.z.f.5.c.L.m.}.}.F.v.0.q.[.|. X|.0.V a ..V K !.[.*X1XoX{.2.1X,X",
"JXJXIXIXIXIXIXPXLXLXLXKXlX8X6X2X:XA.M.M.V.C.Z.Z.z.j.B.B.j.j.j.z.b.n.b.c.v.[..X7X.X,X1X4XjXiXCXjX",
"IXIXIXIXIXIXIXPXPXIXIXPXPXIXPXIXPXPXPXPXPXPXKXKXlXkXkXhXhXfXfXgXkXkXlXnXCXAXAXAXAXFXPXPXPXIXKXZX",
"IXIXIXIXIXIXIXIXIXIXIXIXIXIXIXIXIXJXIXIXPXPXIXPXIXIXIXPXIXIXIXIXJXIXIXIXIXIXIXIXIXIXIXIXIXIXIXPX"
};
