/* XPM */
static char *components[] = {
/* columns rows colors chars-per-pixel */
"32 32 152 2",
"   c #294A5C",
".  c #2E4D5C",
"X  c #3B5659",
"o  c #224A6B",
"O  c #224A6D",
"+  c #224C6F",
"@  c #224D71",
"#  c #234F76",
"$  c #244E72",
"%  c #22507B",
"&  c #64663A",
"*  c #6F6F37",
"=  c #6E703D",
"-  c #425A57",
";  c #495F55",
":  c #59684D",
">  c #1D599F",
",  c #2E73BF",
"<  c #3576B7",
"1  c #3677B6",
"2  c #3777B6",
"3  c #3175BB",
"4  c #3074BC",
"5  c #3475B8",
"6  c #3878B7",
"7  c #3979B7",
"8  c #3B7AB5",
"9  c #3E7CB6",
"0  c #1B6BCE",
"q  c #1E6DCE",
"w  c #206FD0",
"e  c #2370CC",
"r  c #2571C9",
"t  c #2B72C2",
"y  c #2872C5",
"u  c #507E9E",
"i  c #477EAC",
"p  c #4A7BA1",
"a  c #4A7BA3",
"s  c #497BA5",
"d  c #487CA8",
"f  c #437EB3",
"g  c #407DB5",
"h  c #457EB1",
"j  c #7D9477",
"k  c #7A947E",
"l  c #52809E",
"z  c #53819E",
"x  c #54829D",
"c  c #57849C",
"v  c #59859B",
"b  c #5C8798",
"n  c #5F8895",
"m  c #63898D",
"M  c #6C8C87",
"N  c #6E8D86",
"B  c #6A8C88",
"V  c #618991",
"C  c #608994",
"Z  c #719187",
"A  c #729186",
"S  c #739285",
"D  c #769382",
"F  c #749284",
"G  c #709088",
"H  c #BAA326",
"J  c #BEA420",
"K  c #BAA52D",
"L  c #B4A63A",
"P  c #809677",
"I  c #839875",
"U  c #869B74",
"Y  c #879C76",
"T  c #8B9F79",
"R  c #97A26A",
"E  c #96A26C",
"W  c #96A26E",
"Q  c #9AA366",
"!  c #9CA465",
"~  c #9FA564",
"^  c #98A268",
"/  c #93A376",
"(  c #95A270",
")  c #95A373",
"_  c #91A379",
"`  c #ADA94E",
"'  c #AAAB5E",
"]  c #ACAB58",
"[  c #B0A745",
"{  c #A1A663",
"}  c #A4A862",
"|  c #A8AA60",
" . c #C5A81E",
".. c #CBAE20",
"X. c #CEB121",
"o. c #CEB52B",
"O. c #CCB634",
"+. c #CBB73A",
"@. c #CBB83D",
"#. c #C7B947",
"$. c #C3B84D",
"%. c #C5B84A",
"&. c #C9B940",
"*. c #C9B944",
"=. c #C5BA50",
"-. c #C7BB52",
";. c #F5C90F",
":. c #F6CA0E",
">. c #F6CA0F",
",. c #FDCB02",
"<. c #FDCC02",
"1. c #FDCC03",
"2. c #FDCC05",
"3. c #FDCC06",
"4. c #FDCC07",
"5. c #FACB0B",
"6. c #F8CB0D",
"7. c #FCCC08",
"8. c #FCCC09",
"9. c #FDCC08",
"0. c #FDCC09",
"q. c #FCCC0A",
"w. c #F2CB1F",
"e. c #F4CC1E",
"r. c #F9CC10",
"t. c #FACD13",
"y. c #FACD14",
"u. c #FACE14",
"i. c #FBCF18",
"p. c #F8CF1F",
"a. c #FBD01B",
"s. c #FBD11F",
"d. c #EFCA21",
"f. c #ECC925",
"g. c #ECCA2B",
"h. c #F0CE33",
"j. c #F3D23A",
"k. c #CDC25F",
"l. c #F4D441",
"z. c #F6D74A",
"x. c #F6D952",
"c. c #F7DC5E",
"v. c #F8E06F",
"b. c #F9E37B",
"n. c #FAE789",
"m. c #FCEA94",
"M. c #FCEDA1",
"N. c #FDEFAC",
"B. c #FDF1B7",
"V. c #FDF3C1",
"C. c #FCF4C8",
"Z. c #FDF4C8",
/* pixels */
"C.C.M.c.l.z.v.n.n.v.s.3.,.,.1.1.,.,.1.1.7.9.8.8.8.3.1.s.b.B.C.C.",
"C.c.p.9.3.3.9.t.e.e.;.t.3.3.3.1.>.d.f.f.e.e.e.e.t.>.>.8.t.z.n.V.",
"N.s.,.,.1.1.3.o.! D k T ^ ' ` %.' B v C G S S I ] &.` O.u.s.c.M.",
"m.u.,.9.9.1.>.D 7 v i 7 , t , 7 , q 0 0 w 9 6 r 9 S s j f.6.z.m.",
"v.8.9.9.9.3.e.n c *.x.k.k.' ) ( / U P T W ' ] ) ( ' h % o.a.l.b.",
"s.1.3.1.>.e.f.S G @.L +.e.s.i.6.u.6.6.9.q.9.9.3.6.w.B %  .a.a.s.",
"1.1.9.f.^ k D f f m : = K X.3.,.3.1.1.1.9.3.3.1.,.w.S @  .1.3.9.",
"9.1.6.^ y 7 7 6 6 i S B % * 5.1.1.1.1.1.3.1.1.1.,.d.C O  .1.3.3.",
"j.s.w.D 9 =.+.@.&.%.&._ > * 8.3.1.1.1.1.1.1.3.1.,.f.v O  .1.1.3.",
"v.x.x.G d g.u.9.8.>.u.| > * i.8.3.3.1.3.1.1.3.1.,.f.c O J 1.3.,.",
"i.u.g.n 7 _ { ' ' { ] T p H >.t.u.9.3.3.3.3.9.6.9.g.u O J 8.9.9.",
"9.9.>.W , 0 0 0 w 6 C N U f.i.s.s.q.1.1.9.6.i.s.s.x.f @ K j.j.l.",
"1.1.9.o.] R T z e _ g.f.>.t.3.8.q.3.1.1.1.3.9.u.u.g.v + K s.s.s.",
"t.1.3.6.O.%.-._ c ' h.e.7.,.,.1.3.1.1.1.1.1.3.1.1.f.n @  .,.,.1.",
",.,.3.%.z 7 1 < 4 b R { O.8.,.,.,.,.1.,.1.1.3.3.3.g.v # J 1.3.1.",
",.,.>.j 3 T R ) T ] &.M : d.1.,.1.1.1.,.1.9.u.u.9.g.z @ J 1.3.1.",
"9.,.6.k 3 %.5.6.8.3.t.B ; d.1.1.1.1.1.1.3.3.9.8.3.g.i # J 1.3.3.",
"3.,.;.U 2 %.3.,.<.1.>.= ; f.1.3.3.1.1.1.1.1.9.8.8.g.s @ J 1.1.1.",
"9.t.p.R x $.e.u.>.e.d.U j d.3.3.,.1.1.1.1.1.1.1.3.g.v @ J ,.1.1.",
"6.u.s.=.S z Z k k F B m [ 6.3.1.1.3.1.1.1.1.1.1.3.d.S $ J ,.1.1.",
",.9.9.f.I 7 , w , z - = o.8.3.8.9.9.6.9.9.9.1.3.1.6.Y X  .1.1.1.",
"1.3.9.9.f.%.S 0 j o...>.8.1.1.3.3.3.3.1.3.1.,.1.1.t.! .  .t.i.i.",
"3.9.q.9.9.e.S 0 / 8.9.3.1.1.1.1.1.1.1.,.1.,.1.1.1.6.^    .t.t.8.",
"1.3.3.,.,.e.Z 0 U t.8.3.1.1.1.1.1.1.1.1.9.3.3.3.1.3.! .  .1.3.t.",
"3.1.1.1.1.w.S 0 D 6.3.3.3.1.1.1.3.3.1.3.9.9.5.7.3.3.` - X.3.s.x.",
"t.3.3.9.9.w.S e T >.3.1.1.3.3.3.3.9.9.9.3.1.1.5.8.6.%.= X.3.j.n.",
"t.3.9.6.i.p.R f T O.+.+.@.&.*.&.%.$.$.$.$.$.$.' ( U U L ;.9.x.N.",
"t.1.3.3.q.i.%.S 9 d 7 6 < , 3 7 7 1 1 3 1 s p p > p j X.;.9.v.C.",
"c.8.9.9.q.t.g.#.' W ~ } { { { { ^ W ! { ' U & * * H X.6.9.u.m.C.",
"M.s.3.1.7.,.3.5.9.q.9.9.1.5.t.t.6.9.9.9.t.w.f.d.>.6.3.1.1.s.B.C.",
"C.b.s.u.9.3.,.3.9.9.a.q.9.u.s.i.a.u.9.q.3.,.,.,.i.l.c.x.z.n.C.C.",
"C.B.c.j.p.>.3.,.9.3.t.q.q.9.9.9.9.9.9.9.1.,.,.1.j.n.B.M.m.C.C.C."
};
