/* XPM */
static char *component[] = {
/* columns rows colors chars-per-pixel */
"48 48 256 2",
"   c #073576",
".  c #1C3B6F",
"X  c #143B7A",
"o  c #1D4478",
"O  c #34455F",
"+  c #214169",
"@  c #3C4C68",
"#  c #485A73",
"$  c #505B77",
"%  c #4A5569",
"&  c #58687F",
"*  c #03398F",
"=  c #02378C",
"-  c #043A91",
";  c #093D94",
":  c #123E85",
">  c #0A4396",
",  c #0B449A",
"<  c #074A9F",
"1  c #1E4786",
"2  c #114A9A",
"3  c #154493",
"4  c #1D539F",
"5  c #0845A0",
"6  c #174DA4",
"7  c #1750A4",
"8  c #1D5AB7",
"9  c #205099",
"0  c #29549B",
"q  c #3A5B82",
"w  c #2254AA",
"e  c #2457B0",
"r  c #3A66AE",
"t  c #3D6AB2",
"y  c #1C5DC8",
"u  c #0F6DDF",
"i  c #1E66DB",
"p  c #0C66E7",
"a  c #056BFB",
"s  c #0C6BF4",
"d  c #0B6BFB",
"f  c #0765F8",
"g  c #0B70FD",
"h  c #1466EB",
"j  c #1669E5",
"k  c #146BEB",
"l  c #1B6DE4",
"z  c #1B6BED",
"x  c #1567E7",
"c  c #136AF3",
"v  c #116DFA",
"b  c #196EF3",
"n  c #1A6EFA",
"m  c #1C71E5",
"M  c #1C72EC",
"N  c #1976EB",
"B  c #1372F4",
"V  c #1070FC",
"C  c #1D72F4",
"Z  c #1B73F9",
"A  c #1A78FD",
"S  c #246CD8",
"D  c #2172DA",
"F  c #316ACC",
"G  c #3870C6",
"H  c #3A7ADA",
"J  c #2B68C4",
"K  c #206DEC",
"L  c #286EE7",
"P  c #2373E4",
"I  c #2372EB",
"U  c #257AEB",
"Y  c #2A74E4",
"T  c #2A74EC",
"R  c #2B79EC",
"E  c #2F78E6",
"W  c #2473F3",
"Q  c #2173FB",
"!  c #237AFA",
"~  c #2D7DF2",
"^  c #2A7BFA",
"/  c #2677F7",
"(  c #347BE5",
")  c #327AEB",
"_  c #387CEB",
"`  c #3C7AE6",
"'  c #327CF3",
"]  c #3B7EF5",
"[  c #5F6E85",
"{  c #536A89",
"}  c #5E7087",
"|  c #5B7093",
" . c #4369AA",
".. c #426AB2",
"X. c #64748B",
"o. c #687B8F",
"O. c #6D7F92",
"+. c #4275C5",
"@. c #447EDC",
"#. c #5179C1",
"$. c #2C81FD",
"%. c #2381FF",
"&. c #3E83E2",
"*. c #3D82EA",
"=. c #3A88ED",
"-. c #3683F2",
";. c #3384FD",
":. c #3B84F3",
">. c #3986F9",
",. c #3B8BFC",
"<. c #3988F7",
"1. c #5D80AA",
"2. c #5683B6",
"3. c #78869B",
"4. c #7C8C9E",
"5. c #738599",
"6. c #6C8DBE",
"7. c #7B8BA0",
"8. c #5180C7",
"9. c #5C87C8",
"0. c #5589DC",
"q. c #4384E5",
"w. c #4384EA",
"e. c #448AED",
"r. c #4C89E5",
"t. c #4B8CEE",
"y. c #4986E5",
"u. c #438DF2",
"i. c #4B8DF3",
"p. c #468DFE",
"a. c #4B92EB",
"s. c #4A90F0",
"d. c #4C91F9",
"f. c #4695FE",
"g. c #5389E4",
"h. c #538DF3",
"j. c #5493EC",
"k. c #5B98EC",
"l. c #5790E3",
"z. c #5C9BF4",
"x. c #5796F6",
"c. c #5AA0FA",
"v. c #6389CB",
"b. c #638DD2",
"n. c #7691C2",
"m. c #6998DA",
"M. c #6194E4",
"N. c #6296ED",
"B. c #6499E5",
"V. c #699BE5",
"C. c #699BEB",
"Z. c #659BF1",
"A. c #6A9DF3",
"S. c #699FFB",
"D. c #739DE4",
"F. c #7AA0DF",
"G. c #6DA1EF",
"H. c #64A1F7",
"J. c #6BA1F2",
"K. c #6BA2FA",
"L. c #6BB4FF",
"P. c #73A4EC",
"I. c #7DA8EA",
"U. c #74A6F3",
"Y. c #74A8F5",
"T. c #72AAFC",
"R. c #7AABF5",
"E. c #7BACFB",
"W. c #73A5FE",
"Q. c #7BB2EA",
"!. c #77B2FE",
"~. c #82909B",
"^. c #838898",
"/. c #808DA3",
"(. c #8190A2",
"). c #8797A8",
"_. c #979FAF",
"`. c #929CB0",
"'. c #8DA5BC",
"]. c #9EA4AF",
"[. c #9CA1B6",
"{. c #A3A7B1",
"}. c #81ACED",
"|. c #8CABE2",
" X c #82AEF0",
".X c #83B0EC",
"XX c #83B5FD",
"oX c #86B9FD",
"OX c #8AB5F1",
"+X c #8AB4FD",
"@X c #8CBBF4",
"#X c #8ABAFD",
"$X c #85B2F2",
"%X c #98B9E9",
"&X c #93BAF2",
"*X c #92BCFC",
"=X c #9ABEF9",
"-X c #A6B1C6",
";X c #A9B9D6",
":X c #92AFD3",
">X c #8BC2FD",
",X c #9BC2ED",
"<X c #93C2FB",
"1X c #9AC0F3",
"2X c #9CC3FB",
"3X c #9ACCFE",
"4X c #9FD1FF",
"5X c #BDC6CE",
"6X c #BCCCDB",
"7X c #BDC9D6",
"8X c #A0C8F7",
"9X c #A3CBFD",
"0X c #AAC7F9",
"qX c #ADD2FE",
"wX c #AFDDFF",
"eX c #A3D2FB",
"rX c #B1CEFD",
"tX c #B1D3FD",
"yX c #B4D9FE",
"uX c #B9D4FE",
"iX c #BADBFF",
"pX c #B9D3F3",
"aX c #BCE3FF",
"sX c #CDCDD8",
"dX c #C7D2DB",
"fX c #D5DBDE",
"gX c #C3D3E4",
"hX c #C3DCFE",
"jX c #CADDF4",
"kX c #C9DCFD",
"lX c #D6DDE6",
"zX c #D3DFED",
"xX c #C5E2FE",
"cX c #C2E9FF",
"vX c #CBE4FE",
"bX c #CBE9FE",
"nX c #C1F0FF",
"mX c #D3EBFE",
"MX c #DBEBFF",
"NX c #DFEBF6",
"BX c #D4F3FF",
"VX c #DBF2FF",
"CX c #DDF9FF",
"ZX c #E0DDE5",
"AX c #E1E3EA",
"SX c #EAEEF8",
"DX c #E3EAF6",
"FX c #E3F3FE",
"GX c #E5FAFF",
"HX c #EDF4FC",
"JX c #ECFBFF",
"KX c #F3F6FB",
"LX c #F4FDFE",
"PX c #FEFEF5",
"IX c #FEFEFE",
"UX c #F2F0F1",
/* pixels */
"IXIXIXIXIXIXIXIXIXIXIXIXIXIXIXIXPXIXIXLXPXPXPXLXIXIXIXIXIXIXIXIXIXIXIXIXIXPXIXPXIXIXIXIXIXIXIXIX",
"IXIXIXIXIXIXIXIXIXIXPXIXIXIXIXIXLXIXIXIXIXIXIXIXIXIXIXIXIXIXPXIXIXIXIXIXIXLXIXIXPXIXIXIXIXIXIXIX",
"IXIXIXIXIXIXIXIXIXIXLXGXFXLXIXIXIXIXIXIXIXIXIXCXVXFXFXFXFXGXFXJXLXLXIXIXLXKXLXIXIXIXIXIXIXIXIXIX",
"IXIXIXIXIXIXIXIXLXFX3XN.r.j.T.XX#X3XyXvXVXBXcXJ.q.w.t.q.y.y.r.k.Z.G.*XiXbXpXuXMXIXIXIXIXIXIXIXIX",
"IXIXIXIXIXIXIXIXqX( C Z Z A ! ^ ! ^ ;.:.t.q.:.^ c d d V Z $.;.^ ^ ^ p.E.3XD.T.yXSXIXIXIXIXIXIXIX",
"IXIXIXIXIXIXIXIXoXu U !.J.a.H S l h h b ! Z Z V g g g d Z $.,.<.N B ! ' x.] b G -XIXIXIXIXIXIXIX",
"IXIXIXIXIXIXIXIXoXN a.VXLXJXGXmXmXbXqX*X*X2X*XP.B.B.B.D.}.&X8XyX4XQ.Q.$XrXK.p < /.IXIXIXIXIXIXIX",
"IXIXIXIXIXIXIXIX+Xz k.FXIXIXIXIXIXIXIXLXIXLXLXLXLXLXIXLXLXLXIXIXIXIXLXIXLX9Xl 5 ^.IXIXIXIXIXIXIX",
"IXPXPXKXIXIXIXIXqX-.>XFX`.~.].AXKXIXIXIXPXIXIXIXIXIXIXIXIXIXIXIXIXIXIXIXIXqXl , /.IXIXIXIXIXIXIX",
"IXIXIXkX<XE.T.Y.z.N u.Y. .q { '.gXlXIXIXIXIXIXIXIXIXIXIXIXIXIXIXIXIXIXIXIXqXP ; /.IXIXIXIXIXIXIX",
"IXIXmX0.C B Z Z ;.%.$.;.d.R.<XE.v.{ SXIXPXIXIXIXIXIXIXIXIXIXIXIXIXIXIXIXIXeXm > /.IXIXIXIXIXIXIX",
"IXIXtXT a N D L P ) I W *.N.C.` F . 7XPXIXIXIXIXIXIXIXIXIXIXIXIXIXIXIXIXIX3Xm ; ).IXIXIXIXIXIXIX",
"IXPX#XW M aXVXFXMXxXuXyXaXbXBXu.L X 6XIXIXIXIXIXIXIXIXIXIXIXIXIXIXIXIXIXIX2Xh * 7.IXIXIXIXIXIXIX",
"PXLXXX$.H FXIXIXIXIXIXIXLXPXLXz.S 1 6XIXIXIXIXIXIXIXIXIXIXIXIXIXIXIXIXIXLX<Xx - (.IXIXIXIXIXIXIX",
"PXIXz.! y.JXPXIXIXIXIXIXIXIXLXC.i 1 dXIXIXIXIXIXIXIXIXIXIXIXIXIXIXIXIXIXIX>Xh = 3.IXIXIXIXIXIXIX",
"IXLXj.! u.xXcXmXFXFXFXVXMXVXbXK.@.| AXIXIXIXIXIXIXIXIXIXIXIXIXIXIXIXIXIXIX+Xk ; 4.IXIXIXIXIXIXIX",
"IXIX}.,.c / ~ ] =.j.s.f.u.z.H.d.@.:XKXIXIXIXIXIXIXIXIXIXIXIXIXIXIXIXIXIXLXP.k = 4.IXIXIXIXIXIXIX",
"IXLXrXi.c f f a d d d n P *.g.k.D.MXPXIXIXPXIXIXIXIXIXIXIXIXIXIXIXIXIXIXJXC.l * 7.IXIXIXIXIXIXIX",
"LXIXvX$XK.g.t.*.T V v h.iXVXHXFXGXLXPXPXIXIXIXLXIXIXIXIXIXIXIXIXIXIXIXIXLXXXK - 7.IXIXIXIXIXIXIX",
"PXIXIXJXJXGXGXFXxXs.N D.LXIXIXKXLXPXIXLXIXIXIXIXIXIXIXIXIXIXIXIXIXIXIXIXJXXXL 2 7.IXIXIXIXIXIXIX",
"IXIXIXIXJXGXGXGXGX>Xz.eXLXLXIXLXIXPXIXIXIXIXIXIXIXIXIXIXIXIXIXIXIXIXIXIXJXXXR 2 `.IXIXIXIXIXIXIX",
"LXIXLXuXg.&.*.e.e.>.' c.#X&X0XvXLXIXIXIXLXIXIXIXIXIXIXIXIXIXIXIXIXIXIXIXLX$XL 6 4.IXIXIXIXIXIXIX",
"IXLXyX_ s N j k C Q Z R k.}.oXM.n.HXIXIXIXIXIXIXIXIXIXIXIXIXIXIXIXIXIXIXJXR.I < 5.IXIXIXIXIXIXIX",
"IXPX@Xn Z >X2X<X3X=X&X9XmXVX<X8 X DXPXIXIXIXIXIXIXIXIXIXIXIXIXIXIXIXIXIXJXR.T < X.PXIXIXIXIXIXIX",
"IXIX$XQ z cXIXLXPXLXIXIXPXLX2X7   DXPXIXIXIXIXIXIXIXIXIXIXIXIXIXIXIXIXIXJXA.M , X.IXIXIXIXIXIXIX",
"IXIXoX,.N rXIXIXPXIXIXIXIXIXqX4 X vXIXIXIXIXIXIXIXIXIXIXIXIXIXIXIXIXIXIXJXZ.C > [ IXIXIXIXIXIXIX",
"IXIX#X<.c 0XIXLXIXIXIXIXIXIXyX3 : jXIXIXPXIXIXIXIXIXIXIXIXIXIXIXIXIXIXIXJXA.z > [ IXIXIXIXIXIXIX",
"IXLX*X:.' uXIXIXIXIXIXIXPXIXxX0 ..bXLXIXPXIXIXIXIXIXIXIXIXIXIXIXIXIXIXIXLXR.I > { IXIXIXIXIXIXIX",
"IXIXhXS.w.9XJXLXIXLXIXIXLXLXBX#.F.FXIXIXPXIXIXIXIXIXIXIXIXIXIXIXIXIXIXIXLXOXR 6 [ IXIXIXIXIXIXIX",
"IXIXFX*XL._ h.R.1X<X@X!.A.J.l.+.%XJXIXIXPXIXIXIXIXIXIXIXIXIXIXIXIXIXIXIXIX=X_ 6 o.LXIXIXIXIXIXIX",
"IXIXLXrXs.Q Z b B B k / Y J ..%XjXLXIXPXIXIXIXIXIXIXIXIXIXIXIXIXIXIXIXIXIXqXi.e 3.LXIXIXIXIXIXIX",
"IXIXIXGXg.:.U ^ %.B R A.2.+ $ _.lXIXIXIXIXIXIXIXIXIXIXIXIXIXIXIXIXIXIXIXIXxXj.7 ).IXIXIXIXIXIXIX",
"KXIXIXLXkXiXnXx.g Z <XCXNXzXDXLXIXIXIXIXIXIXIXIXIXIXIXIXIXIXIXIXIXIXIXIXIXmXA.; O.IXIXIXIXIXIXIX",
"IXPXIXIXIXIXLXh.s s qXIXIXIXIXIXIXIXIXIXIXIXIXIXIXIXIXIXIXIXIXIXIXIXPXIXLXmXV.  O.IXIXIXIXIXIXIX",
"IXIXIXIXIXIXLXe.a s 9XIXIXIXIXIXIXIXIXIXIXIXIXIXIXIXIXIXIXIXIXIXIXIXIXPXLXMX9.  7.IXIXIXIXIXIXIX",
"IXIXIXIXIXIXGX` a d *XIXIXIXIXIXIXIXIXIXIXIXIXIXIXIXIXIXIXIXIXIXIXIXIXIXIXDXv.  3.IXIXIXIXIXIXIX",
"IXIXIXIXIXIXVXd.v v  XLXIXIXPXIXIXIXIXIXIXIXIXIXIXIXIXIXIXIXIXIXIXPXIXIXIXMX9.  5.LXIXIXIXIXIXIX",
"IXPXIXIXIXIXVXd.v s I.LXIXIXIXIXIXIXIXIXPXIXIXIXIXIXIXIXIXIXIXIXIXIXIXIXLXVXm.9 3.IXIXIXIXIXIXIX",
"IXPXIXIXIXIXMX` b Q OXLXIXIXIXIXIXIXIXIXIXIXIXLXIXIXIXIXIXIXIXIXIXIXIXIXPXJX&X ._.IXIXIXIXIXIXIX",
"IXIXIXIXIXIXFXq.~ f.2XLXIXIXIXIXIXIXIXIXIXIXIXIXIXIXIXIXIXIXIXIXIXLXKXLXJXCX2X6.{.IXIXIXIXIXIXIX",
"IXIXIXIXIXIXLXW.c.-.P.CXFXFXFXmXbXxXxXxXxXxXkXhXkXvXVXmXxXvXvXvXxX*XU.E.Y.l.V.%X5XIXIXIXIXIXIXIX",
"IXIXIXIXIXIXLX0X!.E -.u.*.` _ R I m I I R <.>.:.,.-.R I P T R E _ _ x p M s.OXMXfXIXIXIXIXIXIXIX",
"IXIXIXIXIXPXLXpX2XW.L n c C M c k z h z / T W K z M N l T ( &.l.B.9.r t 9.%X;XSXUXIXIXIXIXIXIXIX",
"IXIXIXIXIXPXIXFXjXVX0X<X3XwXyXyXxXcXiXyXyXqXyXqXqXqXqXyXbXmX| @ O # # % ^.sXZXIXIXIXIXIXIXIXIXIX",
"IXIXIXIXIXPXIXIXLXLXIXIXIXIXIXIXIXIXIXIXIXPXIXIXIXIXIXIXIXIXUXIXIXLXLXIXIXPXIXLXIXIXIXIXIXIXIXIX",
"IXIXIXIXIXPXIXIXIXPXPXIXIXIXIXPXPXIXIXIXIXIXIXIXIXIXIXIXIXIXIXKXIXIXIXIXIXIXPXIXIXIXIXIXIXIXIXIX",
"IXIXIXIXIXIXIXIXIXIXIXIXIXIXIXIXIXIXIXIXIXIXIXIXIXPXIXIXIXIXIXIXIXIXIXIXIXIXIXIXIXIXIXIXIXIXIXIX",
"IXIXIXIXIXIXIXIXIXIXIXIXIXIXIXIXIXIXIXIXIXIXIXIXIXIXIXIXIXIXIXIXIXIXIXIXIXIXIXIXIXIXIXIXIXIXIXIX"
};
