/* XPM */
static char *configuration[] = {
/* columns rows colors chars-per-pixel */
"32 32 148 2",
"   c #2157AF",
".  c #2F59A6",
"X  c #2858A9",
"o  c #2159B3",
"O  c #245CB8",
"+  c #3B58A1",
"@  c #2B63C4",
"#  c #2D67CD",
"$  c #2D6BD5",
"%  c #2370E9",
"&  c #2072EF",
"*  c #2074F1",
"=  c #2176F3",
"-  c #2779F3",
";  c #297AF2",
":  c #2D7CF2",
">  c #754985",
",  c #7B7D97",
"<  c #3380F2",
"1  c #3B85F1",
"2  c #3F88F1",
"3  c #7D829F",
"4  c #7F86A4",
"5  c #448BF1",
"6  c #488DF2",
"7  c #4C90F2",
"8  c #4F92F2",
"9  c #5E9BEF",
"0  c #5394F2",
"q  c #5797F1",
"w  c #5B99F0",
"e  c #649FEE",
"r  c #619DF0",
"t  c #66A0EF",
"y  c #68A1F0",
"u  c #6AA3F3",
"i  c #6DA4F3",
"p  c #6FA5F2",
"a  c #71A5F2",
"s  c #75A8F1",
"d  c #79AAF1",
"f  c #7CACF2",
"g  c #7FAEF2",
"h  c #B1385E",
"j  c #964171",
"k  c #D3253D",
"l  c #D92135",
"z  c #F51316",
"x  c #F0151B",
"c  c #F71B1D",
"v  c #E91923",
"b  c #F71F21",
"n  c #F72627",
"m  c #F62B2C",
"M  c #F62F30",
"N  c #F63434",
"B  c #F63939",
"V  c #F73C3C",
"C  c #CB2B46",
"Z  c #C13353",
"A  c #F64142",
"S  c #F64748",
"D  c #F54D4E",
"F  c #F55558",
"G  c #F56263",
"H  c #F57070",
"J  c #F57C7C",
"K  c #828AA7",
"L  c #898FAC",
"P  c #8F94AF",
"I  c #9298B2",
"U  c #949CB4",
"Y  c #969FB6",
"T  c #98A1B7",
"R  c #98A3BA",
"E  c #99A4BC",
"W  c #96A7C4",
"Q  c #98A5C0",
"!  c #99A8C9",
"~  c #9AABD0",
"^  c #9EAED7",
"/  c #9FB2DD",
"(  c #81AFF3",
")  c #87B5F4",
"_  c #8BB8F4",
"`  c #9EB6E5",
"'  c #9BBBEC",
"]  c #91BCF5",
"[  c #97C0F6",
"{  c #99C0F3",
"}  c #99C2F6",
"|  c #9AC2F7",
" . c #B6D2F7",
".. c #B8D4F7",
"X. c #BDD3F3",
"o. c #BED8F8",
"O. c #F58586",
"+. c #F58E8F",
"@. c #F59798",
"#. c #F59FA1",
"$. c #F6A7A8",
"%. c #F7AFAF",
"&. c #F7B7B8",
"*. c #F7B9BB",
"=. c #F6BDBF",
"-. c #C7D3EE",
";. c #C4DCF9",
":. c #D6D3E5",
">. c #C8E0FA",
",. c #CBE2FA",
"<. c #D0E5FB",
"1. c #D5E8FB",
"2. c #DBECFC",
"3. c #F7C2C4",
"4. c #F7C6C7",
"5. c #F8C9CA",
"6. c #F8CCCC",
"7. c #F8CECF",
"8. c #F2D1D4",
"9. c #F5D1D2",
"0. c #F7D0D1",
"q. c #E0EFFC",
"w. c #E4F1FC",
"e. c #E7F3FC",
"r. c #EAF5FC",
"t. c #EDF6FC",
"y. c #EFF7FD",
"u. c #FCE7E8",
"i. c #FCEBEC",
"p. c #FCEFEF",
"a. c #F1F8FC",
"s. c #F3F9FD",
"d. c #F4F9FC",
"f. c #F5FAFC",
"g. c #F6FBFC",
"h. c #F7FCFC",
"j. c #FCF3F3",
"k. c #FCF6F6",
"l. c #F9FCFD",
"z. c #FCF9F9",
"x. c #FDFBFB",
"c. c #FCFDFC",
"v. c #FDFDFC",
"b. c #FDFDFD",
"n. c #FCFDFE",
"m. c #FDFEFE",
"M. c #FEFEFD",
"N. c #FEFEFE",
/* pixels */
"N.N.N.N.N.N.x.x.N.N.N.N.h.N.N.N.N.N.N.N.N.N.h.N.N.N.x.N.N.N.N.N.",
"N.N.N.N.N.h.2...o.,.2.q.r.f.2. . . . . .o.>.2.r.2.e.N.N.N.N.N.N.",
"N.N.N.N.h.[ 7 : : 1 2 7 e p e : = = - 1 < < w } ( | t.N.N.N.N.N.",
"N.N.N.N.h.e < ] _ s e 0 5 6 5 : - : 1 0 e 2 2 y 5 $ ^ N.N.N.N.N.",
"N.N.N.N.h.u w w.a.f.h.f.w.w.q.1.<.1.2.q.e.q.1.w.f o E N.N.N.N.N.",
"N.f.2.>.;.u e / 3 E :.a.h.x.N.x.N.N.N.x.k.k.p.7./   E N.N.N.N.N.",
"h. .6 : : : - 2 9 s L W N.N.N.x.N.x.k.0.0.5.@.$.~   Q N.N.N.N.N.",
"h.( = u s p e w _ p @ 3 f.x.N.x.x.p.3.*.%.O.+.*.g   E N.N.N.N.N.",
"f.i 2 2.N.g.f.f.f. .# 4 s.N.N.N.j.7.6.%.H O.@.*.f   E N.N.N.N.N.",
"r.9 0 2.r.y.f.r.y. .# P z.N.N.x.u.7.3.$.O.+.3.j.f   E N.N.N.N.N.",
"r.f ; 5 0 u u e a u 6 X.z.N.N.k.0.$.*.$.$.u.x.s.u   E N.N.N.N.N.",
"f.| 5 ; * * * 6 g |  .y.x.N.z.0.O.+.@.&.u.z.N.s.u   Q N.N.N.N.N.",
"N.e.1.>.o.) : | g.N.g.N.N.z.7.J H H J 0.z.N.N.s.f O E N.N.N.N.N.",
"N.r. .' | ) 0 | ;.2.s.N.N.u.J F G A +.k.N.N.N.s.f O W N.N.N.N.N.",
"h.| ; ; - : - q _ g ! s.g.&.A F N V 3.N.N.N.N.s.s O R N.N.N.N.N.",
"g.p :  .>.>.;.2.r.9 + r.j.H N A b H p.h.h.N.N.s.u o L N.N.N.N.N.",
"s.f < o.h.x.N.k.s.e + w.0.A V m n #.z.N.x.N.h.s.e   K N.N.N.N.N.",
"h.g < o.N.x.0.%.u.! . 2.@.M A c N =.N.N.N.N.N.f.p o K N.N.N.N.N.",
"h.| w | w.8.O.F $.! a u.H A A n F u.N.N.N.N.N.h.g O K N.N.N.N.N.",
"N.1.p < 5 3 C l C , ` 4.F S N N @.k.N.N.N.N.N.h.[ @ I h.N.N.N.N.",
"N.f._ 0 2 > k x x C =.+.n N n F 4.x.x.h.N.N.N.N...@ R N.N.N.N.N.",
"N.h.t.w.f # h b m N H F N B N O.u.x.x.N.N.N.x.x.;.. U N.N.N.N.N.",
"N.N.N.h.s % 4 B M M n B D S H &.p.N.N.N.N.N.x.N.o.. Y N.N.N.N.N.",
"N.N.N.f.p & a H M n z n B S +.u.h.N.N.N.N.N.x.h.X.X U N.N.N.N.N.",
"x.N.N.s.p & a #.n z z z N G %.k.N.N.N.N.N.N.N.N.,.+ Q h.N.N.N.N.",
"x.N.N.h.p : ) =.N z z z c G u.N.h.h.x.N.h.h.s.h.1.s X.N.N.N.N.N.",
"N.x.N.h.| 0 e / A z z z l I | | | | | | | _ t t t ' :.N.N.N.N.N.",
"N.N.x.h.;.g 1 $ h z z x j $ < ; ; % : < $ # @ # f -.k.N.N.N.N.N.",
"N.h.N.x.r.1.o. .#.A N G :.o... . . .;.^ 4 4 L Y :.j.N.N.N.N.N.N.",
"N.N.x.x.h.N.N.N.k.0.0.i.x.x.x.N.N.N.N.N.x.N.N.N.N.N.N.N.N.N.N.N.",
"N.N.N.N.N.N.N.x.x.h.N.N.N.h.N.x.N.h.N.N.N.N.N.N.N.N.N.N.N.N.N.N.",
"N.N.x.N.N.x.N.N.x.N.N.N.N.N.N.N.N.N.N.N.N.N.N.N.N.N.N.N.N.N.N.N."
};
