/* XPM */
static char *configurations[] = {
/* columns rows colors chars-per-pixel */
"32 32 174 2",
"   c #3E595D",
".  c #3E5A63",
"X  c #7A6F3E",
"o  c #78723B",
"O  c #465B52",
"+  c #415958",
"@  c #556147",
"#  c #576246",
"$  c #5A6444",
"%  c #5E6643",
"&  c #406172",
"*  c #406377",
"=  c #616842",
"-  c #636941",
";  c #666C41",
":  c #696E42",
">  c #6D7143",
",  c #7E6744",
"<  c #3D6380",
"1  c #386388",
"2  c #336493",
"3  c #2263AF",
"4  c #2663AA",
"5  c #2C64A0",
"6  c #2063B3",
"7  c #2064B7",
"8  c #3275BB",
"9  c #3074BD",
"0  c #3476BA",
"q  c #3677B9",
"w  c #3A78B6",
"e  c #3C78B4",
"r  c #3878B9",
"t  c #206BC8",
"y  c #236CC9",
"u  c #256DC8",
"i  c #286FC7",
"p  c #2B71C4",
"a  c #2E72C1",
"s  c #467BAA",
"d  c #447AAE",
"f  c #4B7EA7",
"g  c #497DAA",
"h  c #4179B0",
"j  c #4079B2",
"k  c #527EA3",
"l  c #5C879C",
"z  c #4E80A5",
"x  c #5380A5",
"c  c #5785A1",
"v  c #5484A4",
"b  c #668C95",
"n  c #618A98",
"m  c #6B8E91",
"M  c #6F908C",
"N  c #779187",
"B  c #73928A",
"V  c #7B9786",
"C  c #7F9984",
"Z  c #8C3347",
"A  c #8E3948",
"S  c #884C49",
"D  c #EF150A",
"F  c #F41507",
"G  c #F0160B",
"H  c #F21408",
"J  c #F51D05",
"K  c #F72404",
"L  c #F82903",
"P  c #F82D02",
"I  c #F73B04",
"U  c #F83303",
"Y  c #F74205",
"T  c #F64B05",
"R  c #F65005",
"E  c #F75605",
"W  c #F75F05",
"Q  c #F76504",
"!  c #F76A04",
"~  c #F57107",
"^  c #F77605",
"/  c #F67D06",
"(  c #859C7F",
")  c #8C9F77",
"_  c #889E7C",
"`  c #9FA565",
"'  c #9BA56A",
"]  c #98A46E",
"[  c #9EA568",
"{  c #92A173",
"}  c #90A075",
"|  c #95A370",
" . c #A3A458",
".. c #A2A55E",
"X. c #A8A657",
"o. c #ABA755",
"O. c #AAA656",
"+. c #AEA752",
"@. c #B1AA4E",
"#. c #B3AC4D",
"$. c #B5AE4D",
"%. c #B6B04F",
"&. c #BAB24C",
"*. c #BCB24A",
"=. c #BEB248",
"-. c #A1A561",
";. c #C2AF3F",
":. c #CCB334",
">. c #C8B138",
",. c #D0B535",
"<. c #D2B935",
"1. c #D6BC35",
"2. c #D8BE37",
"3. c #F78407",
"4. c #F88A08",
"5. c #F79B0C",
"6. c #F8920A",
"7. c #F7A90C",
"8. c #F8A00C",
"9. c #F3B30F",
"0. c #F1B90F",
"q. c #F0BD0F",
"w. c #C1B144",
"e. c #C0B245",
"r. c #DCC13D",
"t. c #F1C10E",
"y. c #F3C40D",
"u. c #F7C70C",
"i. c #FDCB03",
"p. c #FCCA05",
"a. c #FCCB05",
"s. c #FDCB04",
"d. c #FCCC02",
"f. c #FCCC03",
"g. c #FCCC07",
"h. c #FBC90A",
"j. c #FBCD0D",
"k. c #FBCD0E",
"l. c #FCCC08",
"z. c #FCCC09",
"x. c #FCCC0A",
"c. c #FCCC0B",
"v. c #FCCD0C",
"b. c #F3CB1B",
"n. c #F1CA1E",
"m. c #F7CD1A",
"M. c #FBCD10",
"N. c #FBCD11",
"B. c #FBCD13",
"V. c #F9CD17",
"C. c #FACD15",
"Z. c #F9CE19",
"A. c #FACF1A",
"S. c #F0CB23",
"D. c #F0CB26",
"F. c #F1CC2B",
"G. c #F5CF2E",
"H. c #F8D232",
"J. c #F8D435",
"K. c #F9D53C",
"L. c #E0C951",
"P. c #F9D746",
"I. c #F9DA55",
"U. c #FADF65",
"Y. c #FAE272",
"T. c #829B82",
"R. c #FBE681",
"E. c #FBE88B",
"W. c #FCEB99",
"Q. c #FCEDA3",
"!. c #FDEFAD",
"~. c #FDF1BA",
"^. c #FDF3C2",
"/. c #FDF3C8",
/* pixels */
"/./.Q.U.K.P.U.R.W.Y.A.s.g.i.g.i.g.l.j.j.l.N.N.j.l.l.l.H.Y.~././.",
"/.U.A.l.s.g.B.r.X.o.w.:.1.r.D.r.$.] ` ` o.X.+.=.2.2.1.u.B.P.R.^.",
"!.G.i.i.s.s.$.f e 8 9 9 r s c c r t t t r r a q V C B :.A.H.U.Q.",
"W.C.s.l.j.g.) a [ $.] T.M n l l x e f v m V b c B m 7 o b.j.P.E.",
"Y.l.l.j.j.l.} g <.q.F.K.J.H.F.S.D.G.S.S.b.b.b.S.F.*.6 % D.A.P.Y.",
"A.g.N.1.w.=.C z ` : o w.F.H.A.l.j.l.a.a.l.h.i.t.7.>.2 - b.N.A.A.",
"i.i.,.z p p i u q k B m o t.i.i.s.a.a.h.7.8.8.^ ~ w.5 % h.i.l.l.",
"g.l...p B ) ( T.V -.] 4 + 0.i.g.i.i.a.8.6.6.! ! 4.$.4 % u.i.i.g.",
"J.H.] w w.C.A.C.n.A.r.j O q.g.l.x.a.7.8.6.Q Q ~ 4.+.6 $ u.i.g.i.",
"U.U.C r &.r.F.S.D.D.=.s > y.l.l.a.y.7.8.6.! ^ 5.t.O.7 $ u.i.f.i.",
"C.A.] a j f v l v n m f O.g.h.C.C.7.3.4.4.4.7.x.N.` 6 $ y.g.a.l.",
"j.l.;.m d q t t f ) ..%.S.j.A.A.S.^ Q ^ 4.9.A.A.H.[ 6 $ G.H.K.P.",
"i.f.u.S.1.<.` d } b.C.h.i.g.x.9.~ E E E 8.a.j.C.V.%.6 # S.A.A.A.",
"x.x.B.#.) ) T.v C =.<.F.l.i.i.^ I R U E a.a.a.f.f.o.4 o y.d.i.i.",
"p.f.=.w r w j w v } ) > 0.i.7.I I P K 4.a.a.j.a.a.X.6 # y.d.d.g.",
"f.x.] p [ 2.2.<.r.n.` . >.g.^ K U J Y q.f.x.N.j.N...6 # y.d.i.i.",
"g.l.` 9 -.g.g.g.s.l. .  ;.g.T L L H Q h.a.j.j.l.B.-.6 @ q.d.d.d.",
"l.g. .w -.s.s.7.3.7.+.  >.8.U U K K 3.s.f.a.l.l.B.` 6 @ q.d.f.d.",
"B.B.w.m _ :.,.~ T Q X.> 1./ P U J I 7.u.f.f.i.i.i.@.4 @ t.f.f.f.",
"g.A.L.( r 8 N Z G H S  .0.E I L L Q s.l.i.g.a.i.g.;.j o y.f.f.f.",
"i.a.C.%.B f k Z G D G 3.5.L L J I 6.B.B.x.h.i.f.i.1.x > y.f.f.a.",
"i.i.f.B.S.' y A J K K T E L P L W 7.s.s.i.i.a.f.g.r.* % u.x.A.A.",
"a.x.x.x.N.| t n I K L J K Y U E 3.s.i.i.f.f.f.f.g.r.* % b.x.B.B.",
"f.x.a.a.l.' t k ~ L L H F P U Q 7.s.i.s.a.a.x.f.i.S.& ; u.f.h.C.",
"f.i.i.i.x.` t z 5.P H F F K Y / s.g.l.l.l.j.j.g.i.n.> o u.l.A.I.",
"N.a.f.x.m.] p b 9.Y J H F F I 7.h.j.B.l.s.s.j.b.n.F... .h.i.K.R.",
"C.x.j.N.C.=.b l o.T H H F G , -.` ` ] | ] [ ) M n b _ >.h.g.I.!.",
"N.i.a.a.j.r.) v j S G H H Z k j q 8 8 e s 2 1 1 * > w.y.g.l.Y./.",
"I.x.l.j.j.n.1.r.=.,.T U R 6.w.w.&.=.w.w.w.o o o  .:.q.g.l.C.E./.",
"Q.A.a.d.f.i.g.i.l.l.9.7.u.j.j.l.l.l.a.x.j.A.A.A.x.f.s.i.i.H.~./.",
"/.R.H.C.j.a.i.i.g.j.M.j.M.A.A.A.C.B.j.l.a.f.i.g.C.K.I.P.P.R././.",
"/.~.U.K.G.j.f.i.g.l.M.M.M.M.B.B.j.j.j.j.x.i.i.f.H.E.!.Q.W.^././."
};
