/* XPM */
static char *const[] = {
/* columns rows colors chars-per-pixel */
"48 48 225 2",
"   c gray4",
".  c #131313",
"X  c #191919",
"o  c #252525",
"O  c #2A2A2A",
"+  c #30302F",
"@  c #323232",
"#  c #3B3B3B",
"$  c #692F32",
"%  c #434343",
"&  c #4D4D4D",
"*  c #535353",
"=  c #5C5B5B",
"-  c #7D4541",
";  c #646564",
":  c #666864",
">  c #686768",
",  c #686868",
"<  c #6F7170",
"1  c #716C6C",
"2  c gray46",
"3  c #7B7B7B",
"4  c #850101",
"5  c #8A0506",
"6  c #940203",
"7  c #990903",
"8  c #921510",
"9  c #8C3231",
"0  c #937571",
"q  c #D50A0D",
"w  c #DA0E0F",
"e  c #D4141A",
"r  c #DE2925",
"t  c #E60905",
"y  c #EC0F0D",
"u  c #E30D15",
"i  c #EF0B10",
"p  c #E5191B",
"a  c #EB1214",
"s  c #EA1C1C",
"d  c #F60503",
"f  c #F50A05",
"g  c #F40B0B",
"h  c #FC0302",
"j  c #FD0409",
"k  c #FB0905",
"l  c #FB0B0B",
"z  c #F50E10",
"x  c #FB0C11",
"c  c #F5100C",
"v  c #FB110D",
"b  c #F31312",
"n  c #F41719",
"m  c #F31B15",
"M  c #F51A1B",
"N  c #FC1313",
"B  c #FC151A",
"V  c #FC1A15",
"C  c #FD1B1A",
"Z  c #F21D21",
"A  c #FC1C21",
"S  c #EF241C",
"D  c #F5201F",
"F  c #FC211C",
"G  c #ED2222",
"H  c #EE2328",
"J  c #EC2C2D",
"K  c #EE2C32",
"L  c #E73030",
"P  c #E73A3D",
"I  c #EE3335",
"U  c #EC3539",
"Y  c #ED3A3D",
"T  c #F42323",
"R  c #F42529",
"E  c #F42C2A",
"W  c #FB2324",
"Q  c #FC242A",
"!  c #FB2925",
"~  c #FD2B2A",
"^  c #F32F32",
"/  c #F82D31",
"(  c #F7332D",
")  c #FC332D",
"_  c #F13434",
"`  c #F3363D",
"'  c #F43A36",
"]  c #F33B3D",
"[  c #FA3234",
"{  c #FA3439",
"}  c #FF3936",
"|  c #FB3B3B",
" . c #F23340",
".. c #F43D42",
"X. c #FC3E45",
"o. c #F1423F",
"O. c #DD4040",
"+. c #DF5F5F",
"@. c #D85D62",
"#. c #E74646",
"$. c #EC4245",
"%. c #EE424A",
"&. c #EE4A46",
"*. c #E94C4C",
"=. c #EB4F58",
"-. c #EB5455",
";. c #ED575B",
":. c #ED5854",
">. c #EE5C5C",
",. c #F34144",
"<. c #F3464C",
"1. c #F1494A",
"2. c #FC4244",
"3. c #FC4947",
"4. c #F34C51",
"5. c #F84E50",
"6. c #FD514E",
"7. c #F15252",
"8. c #F1575D",
"9. c #F05A54",
"0. c #F25959",
"q. c #FC5354",
"w. c #FC5658",
"e. c #FA595B",
"r. c #EC5C60",
"t. c #F25C62",
"y. c #FC5D61",
"u. c #FF615E",
"i. c #EB6665",
"p. c #EE696C",
"a. c #F36564",
"s. c #F36469",
"d. c #F26B67",
"f. c #F26B6B",
"g. c #FA6362",
"h. c #FA666A",
"j. c #FA6D6C",
"k. c #F56E72",
"l. c #FD6D73",
"z. c #FA7472",
"x. c #FB767B",
"c. c #FB7974",
"v. c #FD7A7C",
"b. c #957F85",
"n. c #F57E85",
"m. c #FD897E",
"M. c #848283",
"N. c #888A86",
"B. c #8C8B8C",
"V. c #959595",
"C. c #9F9F9F",
"Z. c #A79DA4",
"A. c #A3A2A2",
"S. c #ABABAB",
"D. c #B3B1B1",
"F. c #B6B7B8",
"G. c #B9B5B6",
"H. c #BAB4B8",
"J. c gray74",
"K. c #F78786",
"L. c #F48B8C",
"P. c #FD8282",
"I. c #F88789",
"U. c #FF8C87",
"Y. c #FC8B8D",
"T. c #FB8E90",
"R. c #FC918E",
"E. c #F49193",
"W. c #F59A99",
"Q. c #FB9394",
"!. c #FE9598",
"~. c #FD9A94",
"^. c #FD9A9B",
"/. c #FD9EA5",
"(. c #FEA29E",
"). c #EAAAA9",
"_. c #E5B0AF",
"`. c #F7A6A6",
"'. c #FDA3A3",
"]. c #FFA4A9",
"[. c #FFA8A5",
"{. c #FEACAA",
"}. c #FEAAB2",
"|. c #FEB8AD",
" X c #FDB3B3",
".X c #FEB6BB",
"XX c #FFBAB6",
"oX c #FEBDBC",
"OX c #FFBFC0",
"+X c #FFC1BC",
"@X c #C4C3C3",
"#X c #CBCBCB",
"$X c #D4D4D4",
"%X c #D8D6D5",
"&X c gray86",
"*X c #DDDEE0",
"=X c #DEE0DF",
"-X c #E0DDDE",
";X c #FEC3C3",
":X c #FEC6C8",
">X c #FFCBC5",
",X c #FECBCA",
"<X c #FFD1CC",
"1X c #FED4D3",
"2X c #FFD3D9",
"3X c #FFDCD5",
"4X c #FEDBDB",
"5X c #FFE1DC",
"6X c #E6E5E5",
"7X c #EFE2E1",
"8X c #ECECEC",
"9X c #FFE4E3",
"0X c #FFE7EA",
"qX c #FFEAE5",
"wX c #FEECEB",
"eX c #FFEDF1",
"rX c #FFF3EC",
"tX c #FFF9EF",
"yX c #F1F1F3",
"uX c #F5F8F4",
"iX c #F5FEFD",
"pX c #FFF3F2",
"aX c #FFF5FA",
"sX c #FEFBF5",
"dX c #FDFEFD",
/* pixels */
"dXdXdXdXdXdXdXdXdXdXdXdXdXdXdXdXdXdXdXdXdXdXsX5X+X XOX9XdXiXdXsXdXdXdXsXdXiXiXdXdXdXdXdXdXdXdXdX",
"dXdXdXdXdXdXdXdXdXdXdXdXdXdXdXdXdXdXdXdXsX0X].i.$.U Y t./.9XsXiXdXdXdXdXdXiXdXdXdXdXdXdXdXdXdXdX",
"dXdXdXdXdXdXdXdXdXdXdXdXdXdXdXdXdXdXdXdXwXR.] [ ~ C ! ( U x.2XdXdXdXdXdXdXdXdXiXdXdXdXdXdXdXdXdX",
"dXdXdXdXdXdXdXdXdXdXdXdXdXdXdXdXdXiXsXsX{.P N v j l f S ) ' s.;XdXiXdXdXdXdXdXdXdXdXdXdXdXdXdXdX",
"dXdXdXdXdXdXdXdXdXdXdXdXdXdXdXdXdXiXdX4X8.b h h h h j l V } / -.oXsXdXdXdXdXdXdXdXdXdXdXdXdXdXdX",
"dXdXdXdXdXdXdXdXdXdXdXdXdXdXdXdXdXdXeX!.s d k h k N l x C C ~ | >.:XsXiXdXdXdXdXdXdXdXdXdXdXdXdX",
"dXdXdXdXdXdXdXdXdXdXdXdXdXdXdXdXsXtX X] l h h l C ! W B N N V [ I l.3XdXdXdXiXdXdXdXdXdXdXdXdXdX",
"dXdXdXdXdXdXdXdXdXdXdXdXdXdXdXdXdX;X1.b d h h j A 6.g.E C l l W ~ J L.wXdXdXdXdXdXdXdXdXdXdXdXdX",
"dXdXdXdXdXdXdXdXdXdXdXdXiXdXdXdX4X7.g d h h d B %.^.m.^ C x k N W [ 8.,XdXdXdXdXdXiXdXdXdXdXdXdX",
"dXdXdXdXdXdXdXdXdXdXdXdXdXdXsX0Xk.b d h h h N ] Q.4X|.%.A C l l b ! | ~.rXdXdXdXdXdXdXdXdXdXdXdX",
"dXdXdXdXdXdXdXdXdXdXdXdXdXiXsX~.T j h h h N Y T.9XsXpXT.^ ! ! l l N C o.[.pXiXdXdXdXdXdXiXiXdXdX",
"dXdXdXdXdXdXdXdXdXdXdXdXiXdXOX' d h h d v _ T.9XdXdXdX4Xk.| ~ C l v V F ..(.pXiXdXdXdXdXdXdXdXdX",
"dXdXdXdXdXdXdXdXdXdXdXdXdX5Xe.g d h h k E m.9XdXdXdXdXpX+Xe.! F N l B C B ..^.wXdXiXdXdXdXdXdXdX",
"dXdXdXdXdXdXdXdXdXdXdXdXwXx.y k d h h V a.2XaXiXdXdXdXaXwXQ.E N N N x B l M | T.rXsXiXdXdXdXdXdX",
"dXdXdXdXdXdXdXdXsXsXiXaXW.G h d h h l Y  XaXdXdXdXiXdXdXdX4Xf.Z N C g x v c C U '.pXdXdXdXdXdXdX",
"dXdXdXdXdXdXdXdXsX&XZ._.-.V h h d l W n.qXdXdXsXdXdXdXdXdXdX,X7.m C B h h l l T -.2XdXsXdXdXdXdX",
"dXdXdXdXdXdXdXdXiXaX0 $ O.v h h h N 4.,XdXdXdXdXdXdXdXdXdXdXpX XP N N k h k l C ] !.rXiXdXdXdXdX",
"dXdXdXdXiXdXdXdXdXpX).9 5 w h h l R !.pXdXdXdXdXdXdXdXdXdXdXdXqXn.n v v l h h N / h.3XdXdXdXdXdX",
"dXdXdXdXdXdXdXdXdX,Xd.L 6 4 q x M 0.3XsXdXdXdXiXdXdXdXdXdXiXdXpX:X7.C f l j h l C 2.{.sXdXdXdXdX",
"dXdXdXdXdXdXdXdX5Xc.E x u 6 4 e  .(.pXdXdXdXdXdXdXdXdXdXdXdXdXdXtX]._ ~ c l h h j T v.1XdXdXdXdX",
"dXdXdXdXdXdXdXqXL.{ N j h t 7 5 @.4XdXdXdXdXdXdXdXdXdXdXdXdXdXdXdXqXK.y.H l h h j z e.`.pXiXdXdX",
"iXdXdXiXdXdXsX;X#.n l h h h s 8 - 7XdXiXdXdXdXdXdXdXdXdXdXdXdXdXdXsX5X`.a.F h k h g | n.1XdXdXdX",
"sXdXdXiXdXdXrXn.R x h k d N A +.0 , H.dXdXdXdXdXdXdXdXdXdXdXdXdXdXdXdXpX+X1.c d j h b e.^.eXdXiX",
"iXdXdXdXdXdX5X1.N k h d g N { Q.rXB.= F.sXiXiXdXdXdXdXdXiXdXdXdXdXdXiXdXpX(.^ l d h k E z.OXdXaX",
"iXdXdXsXdXsX~.R h h h h l T 8.1XdXaXV.= D.iXiXdXdXdXdXdXdXiXdXdXdXdXdXiXdXqXh.l h h h b 3.p.rXdX",
"iXdXdXdXdX9X:.v h h h k B K ^.rXdXiXaX#X; S.6X6XyXdXdXdXdXdXdXdXdXdXdXdXdXdX}.Z h h h k F I ,XdX",
"dXdXdXiXdX+X_ l h h d C ~ 0.1XdXdXdXdXsX$X* & % B.dXdXdXaX%X@XuXdXdXdXdXdXdX4X$.k k h j x D P.tX",
"dXiXdXdX5Xj.b h h h n X.<.'.tXdXdXdXdXdXdX@X> o 3 %X8X@XA.= & 8XdXdXdXdXdXdXrXP.i h h h l b ,.3X",
"dXiXiXpX~.G h h h g 2.g.L.3XdXiXiXdXdX&XB.3 V.# % % D.2 % % # $XdXdXdXdXdXdXdX+XJ h h h l V S .X",
"dXdXiX,X] d h j h ~ e.L.3XpXdXdXdXdXdXC.. X * o X X 3 V.# = # S.dXdXdXdXiXdXdX9X8.k v j N V M v.",
"dXdXsXv.N h h h h ~ h.:XsXdXdXdXdXdX8X=   o O o @ X % N.@ & # S.dXdXdXiXdXdXdXpXY.c v k x C b ` ",
"dXdXqX1.l h h h f C =.:XdXdXdXdXdXdXS.O o * O # V.o + C.& = ; J.dXdXdXdXdXsXdXsX XG v v x ~ f S ",
"dXdX:XJ v h h h v A l.4XaXdXdXdXdXdX@X> M.C.@ O @XB.@ = > M.A.#XdXdXdXdXdXdXdXdX2X7.W v b x l m ",
"dXsX[.s l h h h N A Y.rXdXdXdXdXdXdXdX-XJ.&X, = %X6X: + & G.6X6XdXdXdXdXdXdXdXdXpX].w.A v j l A ",
"dXsX!.a k h h j C H ].sXdXdXdXdXiXdXiXaXyXdXdXdXdXdX#X: N.uXsXdXdXdXdXdXdXdXiXdXdX3Xu.B l k c ~ ",
"dXdXT.b h h h l ~ ] oXsXdXdXdXdXdXdXdXdXdXdXdXdXdXdXdXsXdXdXiXdXdXdXdXdXdXdXdXdXiXrXa.z l k l ~ ",
"dXdXU.y h h h N } _ !.pXdXdXdXdXdXdXdXdXdXdXdXiXdXdXdXdXdXdXiXdXdXdXdXdXsXdXdXdXdXwXf.W l k l W ",
"dXpX(.y j h j v ~ R 4.oX9XpXpXpXpXaXsXsXdXsXdXdXdXdXdXdXdXdXdXdXdXdXdXdXdXdXdXdXdXqXP.! N k v C ",
"aX3Xz.F j j N v V W R g.I.~.Q.I.E.`..X.X;X1X4XqXqXpXpXsXpXaXsXdXsXiXdXdXdXdXdXdXdX9Xa.n N l l A ",
"dX X$.F N x N k l v N W | | X.| Q Q / ^ U ..e.z.P.Y.~.[.^.!./.+X1X5X9X9X9XqXwXpXwX4X0.n C j x E ",
"sX}.{ F W N l k h h h h k j j k h h h h h h h j l g m D Z n i p K *.q.*.*.-.>.p.i.>.6.! W g Z &.",
"sX4X#.R F C l h h h h h h h h d h h h h h h h h h h h h h h h h h k j h l N N N N N C ! ~ [ y.T.",
"iXpX!.U Q W N f h h k d d d d h h h h h h h h h h h h h h h h h h d h h h h h k h h l A w.U.,XrX",
"dXiXrX{.y.X.R g h h k d d d h d k h d h h h h h h d h h h h h h h h h h h h k h d h l ( P.,XdXdX",
"dXiXdXsX4X/.x.e.,...,.4.w.w.5.,.] ] I J G M b z l d d k d g g g g g N x v v c v c l D :.XXsXiXdX",
"dXdXdXdXdXsXwX5X4X5X9XwXpXwXwX9X4X,X>XXX'.~.P.j.q...Y  .<.e.h.n.n.P.v.j.e.&.] I I ..7.Q.rXdXdXdX",
"sXdXdXdXdXiXdXdXdXdXdXdXiXdXdXdXdXdXdXdXsXpXwXqX5X1X1X1X4XrXpXsXdXsXpXrXqX4X1X+X|.]./.:XpXsXdXdX",
"dXdXdXdXdXaXdXdXdXdXdXdXdXdXdXdXdXaXdXdXiXdXdXdXdXiXdXdXdXdXdXdXdXdXdXdXdXdXdXdXsXsXpXaXdXdXdXdX"
};
