/* XPM */
static char * cpp_xpm[] = {
"48 48 560 2",
"  	c None",
". 	c #FFFFFF",
"+ 	c #FFF7F7",
"@ 	c #E8DBE8",
"# 	c #B7C1EB",
"$ 	c #92B3F4",
"% 	c #94AFEF",
"& 	c #A6ABE0",
"* 	c #DFE0F3",
"= 	c #FFFDFD",
"- 	c #FFFEFE",
"; 	c #F7DFE4",
"> 	c #B39ECC",
", 	c #6172D0",
"' 	c #2C64E3",
") 	c #3255D0",
"! 	c #5347AE",
"~ 	c #6A3E97",
"{ 	c #6D3C94",
"] 	c #5648AD",
"^ 	c #2E5FDD",
"/ 	c #3B82F8",
"( 	c #A7CAFF",
"_ 	c #FCFDFF",
": 	c #ECF2FE",
"< 	c #9DA5E0",
"[ 	c #2E60DD",
"} 	c #3C51C6",
"| 	c #933172",
"1 	c #E91320",
"2 	c #FF0707",
"3 	c #FF0101",
"4 	c #FF0000",
"5 	c #FF0606",
"6 	c #FD3636",
"7 	c #B15583",
"8 	c #225ADF",
"9 	c #87B7FF",
"0 	c #FDFEFF",
"a 	c #AECEFF",
"b 	c #0566FB",
"c 	c #3D4EC3",
"d 	c #E70F1D",
"e 	c #FF0303",
"f 	c #FF0202",
"g 	c #FF0404",
"h 	c #FF0909",
"i 	c #FF1010",
"j 	c #FF2C2C",
"k 	c #F6161C",
"l 	c #145FEC",
"m 	c #ADCDFF",
"n 	c #FEFFFF",
"o 	c #5B9DFF",
"p 	c #215EE3",
"q 	c #D11B36",
"r 	c #FC0506",
"s 	c #FF0505",
"t 	c #FF0A0A",
"u 	c #FF1212",
"v 	c #FF0E0E",
"w 	c #BD2F55",
"x 	c #347EF7",
"y 	c #D6CAD5",
"z 	c #6953AD",
"A 	c #E92F3C",
"B 	c #FF0D0D",
"C 	c #FF0F0F",
"D 	c #FF0808",
"E 	c #FF2525",
"F 	c #FF2424",
"G 	c #D25874",
"H 	c #F2F8FF",
"I 	c #FFFFFC",
"J 	c #FFE788",
"K 	c #FF7D37",
"L 	c #FF3939",
"M 	c #FF0B0B",
"N 	c #FF1111",
"O 	c #FF3636",
"P 	c #FF2929",
"Q 	c #FF3333",
"R 	c #FF3535",
"S 	c #FF3838",
"T 	c #FF1414",
"U 	c #FF2F2F",
"V 	c #FF2D2D",
"W 	c #FF2A2A",
"X 	c #FF9A9A",
"Y 	c #FFF0B7",
"Z 	c #FFC404",
"` 	c #FF5446",
" .	c #FF2020",
"..	c #FF1818",
"+.	c #FF2626",
"@.	c #FF4949",
"#.	c #FF3737",
"$.	c #FF1A1A",
"%.	c #FF1616",
"&.	c #FF4545",
"*.	c #FF8C8C",
"=.	c #FF5151",
"-.	c #FFC8C8",
";.	c #FFFAE8",
">.	c #FFCB0E",
",.	c #FF5E38",
"'.	c #FF1C1C",
").	c #FF3434",
"!.	c #FF1717",
"~.	c #FF9D9D",
"{.	c #FFF2F2",
"].	c #FFEDED",
"^.	c #FFD1D1",
"/.	c #FF7575",
"(.	c #FF4242",
"_.	c #FF3A3A",
":.	c #FF7676",
"<.	c #FFDFDF",
"[.	c #FFF5F5",
"}.	c #FFE26F",
"|.	c #FF990D",
"1.	c #FF2E2E",
"2.	c #FF2323",
"3.	c #FF1919",
"4.	c #FF3E3E",
"5.	c #FF1E1E",
"6.	c #FFAFAF",
"7.	c #FFE4E4",
"8.	c #FFA0A0",
"9.	c #FFA7A7",
"0.	c #FFFAFA",
"a.	c #FFFAE9",
"b.	c #FFC511",
"c.	c #FF3018",
"d.	c #FF0C0C",
"e.	c #FF4444",
"f.	c #FF1F1F",
"g.	c #FF8181",
"h.	c #FFFBFB",
"i.	c #FFE579",
"j.	c #FF8E0D",
"k.	c #FF2828",
"l.	c #FFECEC",
"m.	c #FFD42C",
"n.	c #FF4A16",
"o.	c #FF4E4E",
"p.	c #FF3F3F",
"q.	c #FF6262",
"r.	c #FFFEF9",
"s.	c #FFC10F",
"t.	c #FF433D",
"u.	c #FF2121",
"v.	c #FF4343",
"w.	c #FF3C3C",
"x.	c #FFF5D0",
"y.	c #FF9C16",
"z.	c #FF3D3D",
"A.	c #FF4B4B",
"B.	c #FE3333",
"C.	c #F6595F",
"D.	c #FFEB9F",
"E.	c #FF8724",
"F.	c #FF5656",
"G.	c #C6294B",
"H.	c #6195F3",
"I.	c #FFE682",
"J.	c #FF7723",
"K.	c #FF4A4A",
"L.	c #804A96",
"M.	c #589BFF",
"N.	c #FFE16F",
"O.	c #FF772D",
"P.	c #FF3030",
"Q.	c #FF4747",
"R.	c #5A5CBF",
"S.	c #89B8FF",
"T.	c #FFDB53",
"U.	c #FF6F30",
"V.	c #4372E3",
"W.	c #B8D5FF",
"X.	c #FFFFFE",
"Y.	c #FFD226",
"Z.	c #FF5D2F",
"`.	c #FF1B1B",
" +	c #FF5050",
".+	c #2E6DEA",
"++	c #E5EFFD",
"@+	c #FFFDF6",
"#+	c #FFCE0D",
"$+	c #FF6D4D",
"%+	c #2B67E7",
"&+	c #FCFCFE",
"*+	c #F6FAFF",
"=+	c #D4E6FF",
"-+	c #9DC4FF",
";+	c #D2E4FF",
">+	c #FAFCFF",
",+	c #FFFBE9",
"'+	c #FFCC06",
")+	c #FF6656",
"!+	c #FC2C2D",
"~+	c #2D72F2",
"{+	c #7DB1FF",
"]+	c #1A75FE",
"^+	c #4176E8",
"/+	c #81A5F1",
"(+	c #3384FF",
"_+	c #3083FF",
":+	c #E7F0FF",
"<+	c #FFF8DB",
"[+	c #FFC309",
"}+	c #FF4340",
"|+	c #F32B33",
"1+	c #337BF6",
"2+	c #EAF3FF",
"3+	c #C8DEFF",
"4+	c #CADFFF",
"5+	c #F5F9FF",
"6+	c #D6E6FF",
"7+	c #3485FF",
"8+	c #6952AC",
"9+	c #D73E56",
"0+	c #F7494E",
"a+	c #9769A7",
"b+	c #1D77FF",
"c+	c #D5E6FF",
"d+	c #FFF2C0",
"e+	c #FFA813",
"f+	c #FF3B3B",
"g+	c #E92C39",
"h+	c #3680F8",
"i+	c #A6C9FF",
"j+	c #3F8BFD",
"k+	c #2767E9",
"l+	c #3C67DC",
"m+	c #367AF3",
"n+	c #7CB1FF",
"o+	c #F4F9FF",
"p+	c #DCEAFF",
"q+	c #0B6CFF",
"r+	c #9D508B",
"s+	c #FE2D2E",
"t+	c #FF1D1D",
"u+	c #A43A70",
"v+	c #1771FD",
"w+	c #E6F0FF",
"x+	c #FFEB9E",
"y+	c #FF8A21",
"z+	c #E92634",
"A+	c #3B84FA",
"B+	c #E6F1FF",
"C+	c #408AFD",
"D+	c #385FD7",
"E+	c #D0415D",
"F+	c #FE4040",
"G+	c #F8A6AB",
"H+	c #3782FA",
"I+	c #78AEFF",
"J+	c #6CA7FE",
"K+	c #6F4CA3",
"L+	c #FF4C4C",
"M+	c #FD1A1B",
"N+	c #514EB7",
"O+	c #7BACFC",
"P+	c #FFE683",
"Q+	c #FF6516",
"R+	c #E12234",
"S+	c #3E89FC",
"T+	c #F9FBFF",
"U+	c #1D78FF",
"V+	c #9566A5",
"W+	c #FD3133",
"X+	c #FF3131",
"Y+	c #FF4646",
"Z+	c #E36474",
"`+	c #2F81FE",
" @	c #E5CEDD",
".@	c #FD4A4B",
"+@	c #FF2222",
"@@	c #FC1719",
"#@	c #DC7589",
"$@	c #FFE169",
"%@	c #FF6F2E",
"&@	c #FF2727",
"*@	c #DA263C",
"=@	c #3D8AFE",
"-@	c #5D9EFF",
";@	c #6F78CE",
">@	c #FF393A",
",@	c #FF3232",
"'@	c #FF1313",
")@	c #FF5757",
"!@	c #EB9FAA",
"~@	c #FEA4A5",
"{@	c #FF5555",
"]@	c #FFD9D9",
"^@	c #FFC2C2",
"/@	c #FF5252",
"(@	c #FF6767",
"_@	c #FFDF5D",
":@	c #FF6633",
"<@	c #DF2A3D",
"[@	c #3887FE",
"}@	c #FEFEFF",
"|@	c #65A3FF",
"1@	c #C65F82",
"2@	c #FF4342",
"3@	c #FF6F6D",
"4@	c #FFB1B1",
"5@	c #FFBDBD",
"6@	c #FF5B5B",
"7@	c #FFB4B4",
"8@	c #FFDD56",
"9@	c #FF6239",
"0@	c #FF4040",
"a@	c #DF384A",
"b@	c #3C88FC",
"c@	c #FFF1F1",
"d@	c #FFE6E6",
"e@	c #FFC4C4",
"f@	c #FF7272",
"g@	c #FF5620",
"h@	c #FF7B18",
"i@	c #FFE5E5",
"j@	c #FF8686",
"k@	c #FFDA45",
"l@	c #FF5D42",
"m@	c #FF1515",
"n@	c #FF4F4F",
"o@	c #E02638",
"p@	c #3382FC",
"q@	c #FFDBDB",
"r@	c #FFCCCC",
"s@	c #FFA1A0",
"t@	c #FF9B96",
"u@	c #FF6C6C",
"v@	c #FFE7E7",
"w@	c #FF9393",
"x@	c #FF7171",
"y@	c #FF4D4D",
"z@	c #FF7512",
"A@	c #FF940F",
"B@	c #FF4848",
"C@	c #FF5F5F",
"D@	c #FFD83A",
"E@	c #FF5037",
"F@	c #EC4C57",
"G@	c #2F7CF9",
"H@	c #FF8787",
"I@	c #FF5940",
"J@	c #FFA215",
"K@	c #FF2B2B",
"L@	c #FFA4A4",
"M@	c #FF9494",
"N@	c #FF840B",
"O@	c #FF710A",
"P@	c #FF6B6B",
"Q@	c #FFEFEF",
"R@	c #FF4141",
"S@	c #FFD632",
"T@	c #FF543C",
"U@	c #FF5A5A",
"V@	c #F23139",
"W@	c #2877F8",
"X@	c #FF5858",
"Y@	c #FF472A",
"Z@	c #FFB205",
"`@	c #FFB3B3",
" #	c #FF5D5D",
".#	c #FF5454",
"+#	c #FF910B",
"@#	c #FF4C03",
"##	c #FF8E8E",
"$#	c #FFE2E2",
"%#	c #FFB6B6",
"&#	c #FFD52F",
"*#	c #FF351E",
"=#	c #FA2A2D",
"-#	c #1C6EF6",
";#	c #FFFCFC",
">#	c #FF3822",
",#	c #FFAF02",
"'#	c #FF9E04",
")#	c #FF300B",
"!#	c #FF9C9C",
"~#	c #FFDEDE",
"{#	c #FFD638",
"]#	c #FF503B",
"^#	c #1D67EE",
"/#	c #ECF1FC",
"(#	c #FF402A",
"_#	c #FFA503",
":#	c #FFC0C0",
"<#	c #FFDDDD",
"[#	c #FFA302",
"}#	c #FF2316",
"|#	c #FF8A8A",
"1#	c #FFD83D",
"2#	c #FF8775",
"3#	c #4152C4",
"4#	c #A1ABE4",
"5#	c #FFF6F6",
"6#	c #FFEEEE",
"7#	c #FFAB96",
"8#	c #FF9B05",
"9#	c #FFAC03",
"0#	c #FF221D",
"a#	c #FF6161",
"b#	c #FF8080",
"c#	c #FFB8B8",
"d#	c #FFD83B",
"e#	c #FFBB9F",
"f#	c #A43167",
"g#	c #3F62D6",
"h#	c #FED6D7",
"i#	c #FFDCDC",
"j#	c #FF5353",
"k#	c #FFB39B",
"l#	c #FF9705",
"m#	c #FFAEAE",
"n#	c #FF7A7A",
"o#	c #FF8989",
"p#	c #FF3837",
"q#	c #FFB206",
"r#	c #FFD7D7",
"s#	c #FFCFCF",
"t#	c #FF9898",
"u#	c #FE9A9A",
"v#	c #8C589D",
"w#	c #CCA9C8",
"x#	c #FFDD57",
"y#	c #FFDA9E",
"z#	c #FF1415",
"A#	c #ED141F",
"B#	c #EF5E67",
"C#	c #FFE3E3",
"D#	c #FFD0B6",
"E#	c #FFA111",
"F#	c #FF9999",
"G#	c #FFABAB",
"H#	c #FF8A85",
"I#	c #FFB90E",
"J#	c #FF9797",
"K#	c #FF7E7E",
"L#	c #FF6F6F",
"M#	c #F4C0C7",
"N#	c #7E7ECB",
"O#	c #2379FD",
"P#	c #E2E5F5",
"Q#	c #FFE996",
"R#	c #FFE067",
"S#	c #FF7F7F",
"T#	c #FFC9C9",
"U#	c #FFF8F8",
"V#	c #FFC0A3",
"W#	c #FFB223",
"X#	c #FF8F8F",
"Y#	c #FEACAC",
"Z#	c #FFDBDC",
"`#	c #FFB4AB",
" $	c #FFC015",
".$	c #FF9B9B",
"+$	c #FC7779",
"@$	c #DB788E",
"#$	c #2F77F4",
"$$	c #4082F5",
"%$	c #F9EFF3",
"&$	c #FFF6D3",
"*$	c #FFCE0F",
"=$	c #FF6F6B",
"-$	c #FF7878",
";$	c #FF8B8B",
">$	c #FFC8A8",
",$	c #FFA91D",
"'$	c #B5C6F2",
")$	c #C9D5F6",
"!$	c #FFB9AB",
"~$	c #FFAD06",
"{$	c #FB5657",
"]$	c #A65D92",
"^$	c #336AE5",
"/$	c #1A6CF7",
"($	c #B689B5",
"_$	c #F9CDD0",
":$	c #FFFBEC",
"<$	c #FFCD08",
"[$	c #FFA785",
"}$	c #FFBBBB",
"|$	c #FFEFCA",
"1$	c #FF9912",
"2$	c #D5CEE7",
"3$	c #6A99F4",
"4$	c #257BFE",
"5$	c #D1A5BF",
"6$	c #FFA396",
"7$	c #FFB308",
"8$	c #A199D0",
"9$	c #4389F9",
"0$	c #B4A9D6",
"a$	c #F4BFC5",
"b$	c #FFDB4C",
"c$	c #FFDA6F",
"d$	c #FFF5CD",
"e$	c #FF9309",
"f$	c #FF6D6D",
"g$	c #3886FD",
"h$	c #74ACFF",
"i$	c #EDF4FF",
"j$	c #FF8F82",
"k$	c #FFAE06",
"l$	c #FFFDF2",
"m$	c #FFD013",
"n$	c #FFBF9C",
"o$	c #FFE8E8",
"p$	c #FFE4B9",
"q$	c #FF8A06",
"r$	c #FFB0B0",
"s$	c #FF5544",
"t$	c #FFAD02",
"u$	c #FFE88A",
"v$	c #FFD224",
"w$	c #FFBEB1",
"x$	c #FFD8D8",
"y$	c #FFE5AD",
"z$	c #FF8804",
"A$	c #FF4236",
"B$	c #FFAC02",
"C$	c #FFF8DC",
"D$	c #FFF3C8",
"E$	c #FFD7D4",
"F$	c #FF6E6E",
"G$	c #FFEEB9",
"H$	c #FF8003",
"I$	c #FF5649",
"J$	c #FFAD01",
"K$	c #FF5959",
"L$	c #FFF3F3",
"M$	c #FF7070",
"N$	c #FFE1E1",
"O$	c #FFEBAB",
"P$	c #FF8108",
"Q$	c #FFD4D4",
"R$	c #FF6F62",
"S$	c #FFB202",
"T$	c #FFBEBE",
"U$	c #FFEBA7",
"V$	c #FF8005",
"W$	c #FF8C7D",
"X$	c #FFB803",
"Y$	c #FFDF89",
"Z$	c #FF7F05",
"`$	c #FFA497",
" %	c #FFBB02",
".%	c #FF7C7C",
"+%	c #FFEBEB",
"@%	c #FFEA9E",
"#%	c #FF850A",
"$%	c #FFB8B5",
"%%	c #FFAD12",
"&%	c #FFF0F0",
". . . . . . . . . . . . . . . + @ # $ % & * = . . . . . . . . . . . . . . . . . . . . . . . . . ",
". . . . . . . . . . . - ; > , ' ) ! ~ { ] ^ / ( _ . . . . . . . . . . . . . . . . . . . . . . . ",
". . . . . . . . . . : < [ } | 1 2 3 3 4 5 6 7 8 9 _ . . . . . . . . . . . . . . . . . . . . . . ",
". . . . . . . . 0 a b c d e f e g f 3 4 h i j k l m . . . . . . . . . . . . . . . . . . . . . . ",
". . . . . . . n o p q r f e e e e s h s 2 t u v w x . . . . . . . . . . . . . . . . . . . . . . ",
". . . . . . . y z A h f 3 3 3 s B C D D D s u E F G H . . . . . . . . . . . . . . . . . . . . . ",
". . . . . I J K L M e f N F O P Q R S N 2 T U V W X - . . . . . . . . . . . . . . . . . . . . . ",
". . . . . Y Z `  .M 2 E O ..+.@.#.V j $.%.&.*.=.-.. . . . . . . . . . . . . . . . . . . . . . . ",
". . . . ;.>.,.+.'.v v ).!.~.{.{.].^./.(._.:.<.[.. . . . . . . . . . . . . . . . . . . . . . . . ",
". . . . }.|.j 1.2.3.4.5.6.. . . . . - 7.8.9.0.. . . . . . . . . . . . . . . . . . . . . . . . . ",
". . . a.b.c.3.%.d.e.f.g.0.. . . . . . . . h.- . . . . . . . . . . . . . . . . . . . . . . . . . ",
". . . i.j.3...C k.V E l.. . . . . . . . . . . . . . . . . . . . . . . . . . . . . . . . . . . . ",
". . . m.n.2.D d.o.p.q.. . . . . . . . . . . . . . . . . . . . . . . . . . . . . . . . . . . . . ",
". . r.s.t.u.2 E v.w.7.. . . . . . . . . . . . . . . . . . . . . . . . . . . . . . . . . . . . . ",
". . x.y.z.i 5 A.B.C.. . . . . . . . . . . . . . . . . . . . . . . . . . . . . . . . . . . . . . ",
". . D.E._.t s F.G.H.. . . . . . . . . . . . . . . . . . . . . . . . . . . . . . . . . . . . . . ",
". . I.J.Q D D K.L.M.. . . . . . . . . . . . . . . . . . . . . . . . . . . . . . . . . . . . . . ",
". . N.O.P.d.w.Q.R.S.. . . . . . . . . . . . . . . . . . . . . . . . . . . . . . . . . . . . . . ",
". . T.U.'.!./.q.V.W.. . . . . . . . . . . . . . . . . . . . . . . . . . . . . . . . . . . . . . ",
". X.Y.Z.P.`. +F..+++. . . . . . . . . . . . . . . . . . . . . . . . . . . . . . . . . . . . . . ",
". @+#+$+(.M N P %+&+. . . . . . . . . . . . . . . . . . . . . . . . . . . . . *+=+-+;+>+. . . . ",
". ,+'+)+P t f.!+~+. . . . . . . . . . . . . . . . . . . . . . . . . . . . 0 {+]+^+/+(+_+:+. . . ",
". <+[+}+k.h +.|+1+. . . . . . . . . . . . . . . . . . . . 2+3+4+5+. . . 6+7+8+9+1.P.0+a+b+c+. . ",
". d+e+f+3.g t g+h+. . . . . . . . . . . . . . . . . 5+i+j+k+l+m+b+n+o+p+q+r+s+R +.U W t+u+v+w+. ",
". x+y+K.t+e D z+A+. . . . . . . . . . . . . . . . B+C+D+E+F+ .P.G+H+I+J+K+V P.P h C t+L+M+N+O+. ",
". P+Q+j %.g t R+S+. . . . . . . . . . . . . . . T+U+V+W+X+O Y+)...Z+`+ @.@+@j P.P.u %.%.L @@#@. ",
". $@%@&@d.2 v *@=@. . . . . . . . . . . . . . . -@;@>@1.,@u '@t+)@!.!@~@`.B %.{@]@^@)./@+.(@4.{.",
". _@:@X+$.i t+<@[@. . . . . . . . . . . . . . }@|@1@1.Q k.f+u.$.+@Q 2@3@v C  .4@. . 5@:.Y+6@F 7@",
". 8@9@0@2.M f+a@b@. . . . . . . . . . . . . = c@d@ +E u +.e@~.)@1.f@g@h@$.+@,@i@. . ^.j@!.F.V j@",
". k@l@m@5.5 n@o@p@. . . . . . . . . . . . q@r@s@t@f.T T u@. v@w@x@y@z@A@O j B@- . . {.u@p.C@{@j@",
". D@E@v B s )@F@G@. . . . . . . . . . . ]@H@f@I@J@f.K@P.L@. ].M@&@&.N@O@F R P@. . . Q@R@5.(@V *.",
". S@T@m@t 2 U@V@W@. . . . . . . . . . . g.Q.X@Y@Z@2.S j `@. {. #P..#+#@#%.K@##. . . $#,@3.q.2.%#",
". &#*#F D g O =#-#. . . . . . . . . . ;#R !.W >#,#3.W ,@5@. <.P.%.U@'#)#2.`.!#. . . ~#F $.)@5.]@",
". {#]#v.u.5 !.4.^#/#. . . . . . . . . 4@ .$.+.(#_#d.&@2.:#. <#'.N Y+[#}#w. .`@. . . |#P.L+).C@h.",
". 1#2#B@k.2 M '.3#4#. . . . . . . 5#6#X@'.j E 7#8#m@j '.`@. |#X+O f+9#0#a#!.e@. = i@b#/@*..#c#. ",
". d#e#4.m@v N u f#g#h#. . . . . i#j#K.u.5.+.j k#l#%.X+m@m#$#n#&.o#p#q#Y+o.`.r#h.s#m#t#u#v#w#+ . ",
". x#y#&.!.+@B  .z#A#B#C#= . - r#=.+@v 5 T 1.z.D#E#S ).$.F#G#M@8.j#H#I#f+j@U J#K#L#*.M#N#O#P#- . ",
". Q#R#{@N `.C t+t+u 3.S#T#U#m#S k.,@B 3 P +.o.V#W#p.1.T 0@X#:#Y#Z#`# $#.a#+..$~.+$@$#$$$%$- . . ",
". &$*$=$V E +.m@3.k.u =.-$).f.M f.f.g g j +@;$>$,$Q E d.U /.:#'$)$!$~$'@n@u.{$]$^$/$($_$= . . . ",
". :$<$[$E &@F.X+).W &.S e.5.i %.E s s ,@3.v.}$|$1$k.F %.6@2$3$4$5$6$7$N e.,@8$9$0$a$l.. . . . . ",
". X.b$c$j#v.Q.u@j `.F (@Q L X++@u 3.!.z.'.~.Q@d$e$f.Q.&@f$g$h$i$~#j$k$i f.+@].- . . . . . . . . ",
". . l$m$n$R@).O @.5.t i C N B N E t+#.t )@o$- p$q$2 P ..r$. . . h.s$t$e h &@{.. . . . . . . . . ",
". . . u$v$w$n@5.(.V i u.N t++.v +.y@..+@x$- . y$z$i P f.T#. . . - A$B$D v z.U#. . . . . . . . . ",
". . . X.C$D$E$F$k.U P.K@P.P.P.Q k.'.X+^@+ . . G$H$C i N i#. . . . I$J$B ..K$0.. . . . . . . . . ",
". . . . . . . L$~.X+u 3.k.K@F m@'@M$N$= . . . O$P$ .N Q Q$. . . . R$S$v B :.0.. . . . . . . . . ",
". . . . . . . . - d@F#X@L Q 4.6@T$+ . . . . . U$V$Q 3.&.$#. . . . W$X$'@i f@+ . . . . . . . . . ",
". . . . . . . . . . . . U#0.- . . . . . . . . Y$Z$'.M 5.i@. . . . `$ %&@3..%+%. . . . . . . . . ",
". . . . . . . . . . . . . . . . . . . . . . . @%#%m@`.).U#. . . . $%%%/@n#J#&%. . . . . . . . . "};
