/* XPM */
static char *dest[] = {
/* columns rows colors chars-per-pixel */
"48 48 256 2",
"   c #3C0304",
".  c #3F0908",
"X  c #430304",
"o  c #440508",
"O  c #420806",
"+  c #440A0A",
"@  c #480D0A",
"#  c #480604",
"$  c #490E10",
"%  c #4B120B",
"&  c #441314",
"*  c #4A1313",
"=  c #4C161A",
"-  c #4E1D1E",
";  c #500E11",
":  c #521619",
">  c #531B1B",
",  c #581E20",
"<  c #561F20",
"1  c #4C231E",
"2  c #4F2224",
"3  c #532323",
"4  c #552C2C",
"5  c #5A2423",
"6  c #5C2C2E",
"7  c #562827",
"8  c #5B302C",
"9  c #5B2E33",
"0  c #622928",
"q  c #672F31",
"w  c #653434",
"e  c #693A3B",
"r  c #5B3C41",
"t  c #643C42",
"y  c #6D403D",
"u  c #5B4544",
"i  c #6B4143",
"p  c #64464A",
"a  c #6A4E53",
"s  c #6D5351",
"d  c #734847",
"f  c #764F51",
"g  c #71534F",
"h  c #735256",
"j  c #7B5254",
"k  c #74555B",
"l  c #856C01",
"z  c #8B6C00",
"x  c #856D0D",
"c  c #85710E",
"v  c #8E7100",
"b  c #8D740A",
"n  c #8B7617",
"m  c #926D00",
"M  c #927400",
"N  c #93760A",
"B  c #957802",
"V  c #997601",
"C  c #9B7A02",
"Z  c #9B7B0A",
"A  c #957E0C",
"S  c #947B17",
"D  c #8F7D27",
"F  c #947E2E",
"G  c #A27E02",
"H  c #816063",
"J  c #886969",
"K  c #8C726F",
"L  c #8C7274",
"P  c #937372",
"I  c #95797E",
"U  c #916B6C",
"Y  c #CF5D5F",
"T  c #C1635E",
"R  c #CA6B6A",
"E  c #C56468",
"W  c #CB7375",
"Q  c #D27674",
"!  c #D67B7E",
"~  c #D66D6B",
"^  c #E17F7F",
"/  c #967E80",
"(  c #9D8103",
")  c #99800B",
"_  c #9F892A",
"`  c #968127",
"'  c #9B8B37",
"]  c #A38201",
"[  c #A4850B",
"{  c #A88503",
"}  c #AC8B02",
"|  c #AB8A0A",
" . c #A8860D",
".. c #AE9006",
"X. c #AE9116",
"o. c #B18D03",
"O. c #B18E0B",
"+. c #B08D14",
"@. c #B49203",
"#. c #B5930C",
"$. c #BA9502",
"%. c #BA9609",
"&. c #BD9A02",
"*. c #BD9A0A",
"=. c #B49310",
"-. c #B69914",
";. c #BC9C12",
":. c #B79919",
">. c #A88712",
",. c #B89C24",
"<. c #B59A3E",
"1. c #AA9129",
"2. c #BFA00A",
"3. c #BFA219",
"4. c #BDA010",
"5. c #BCA226",
"6. c #BEA439",
"7. c #9F8E48",
"8. c #9D904D",
"9. c #A59754",
"0. c #AD994F",
"q. c #A1817F",
"w. c #BBA446",
"e. c #BCAB55",
"r. c #B4A364",
"t. c #B9A96B",
"y. c #C09606",
"u. c #C19A03",
"i. c #C19C0A",
"p. c #C2970B",
"a. c #C19D12",
"s. c #C19C18",
"d. c #C39C23",
"f. c #C5A00C",
"g. c #C5A90F",
"h. c #C3A114",
"j. c #C4A31B",
"k. c #C8A51A",
"l. c #C8A91A",
"z. c #C3A423",
"x. c #C4AA2B",
"c. c #CDAB24",
"v. c #CAA828",
"b. c #C6A933",
"n. c #C4AC3B",
"m. c #C5A937",
"M. c #CCB236",
"N. c #D3AC31",
"B. c #D5B439",
"V. c #CEB02B",
"C. c #CC8179",
"Z. c #C1AA49",
"A. c #C3AC5B",
"S. c #CEB042",
"D. c #D8BA48",
"F. c #D5BA59",
"G. c #C3AD68",
"H. c #C5B575",
"J. c #C9B86A",
"K. c #DAC267",
"L. c #D8C774",
"P. c #E4C45C",
"I. c #E2C86D",
"U. c #9A8283",
"Y. c #978388",
"T. c #A78E90",
"R. c #AD9492",
"E. c #AB9098",
"W. c #B89E9B",
"Q. c #A9938F",
"!. c #BA9EA0",
"~. c #BBB681",
"^. c #BBA5A6",
"/. c #BEB0AD",
"(. c #D98485",
"). c #D9999A",
"_. c #D98893",
"`. c #C5BC88",
"'. c #D1B987",
"]. c #C0A8A7",
"[. c #CAAFB0",
"{. c #CBB9BB",
"}. c #CBB4B6",
"|. c #D9A6A7",
" X c #DDB1AE",
".X c #D6BABB",
"XX c #D2ABAE",
"oX c #E78889",
"OX c #EA9B9B",
"+X c #E59493",
"@X c #F4928D",
"#X c #ECA09E",
"$X c #E9A4A5",
"%X c #EABCBC",
"&X c #E2B2B2",
"*X c #F5A8A6",
"=X c #F6A7A7",
"-X c #F3B2B2",
";X c #FFB5B8",
":X c #FCBCBE",
">X c #F8BCB8",
",X c #D2BEC1",
"<X c #E7BDC1",
"1X c #CFC79F",
"2X c #DFD298",
"3X c #DAC990",
"4X c #D6CFA8",
"5X c #E7D197",
"6X c #E7D9B7",
"7X c #E8D5A6",
"8X c #ECE2BE",
"9X c #FEF0BA",
"0X c #F4E7BF",
"qX c #DCCCC4",
"wX c #DCCCCD",
"eX c #D6C3C3",
"rX c #E3CDCD",
"tX c #EDC4CA",
"yX c #ECC8CD",
"uX c #E3CED1",
"iX c #ECC8D0",
"pX c #EBDAD9",
"aX c #E5D6D7",
"sX c #FDCCCC",
"dX c #F7C6C6",
"fX c #FFCDD0",
"gX c #FDD2D3",
"hX c #FED6D9",
"jX c #FFD9D6",
"kX c #F9D8D7",
"lX c #E9DFC8",
"zX c #FBDEE3",
"xX c #E8E2C5",
"cX c #EDE9C7",
"vX c #EEE6D2",
"bX c #F0EACC",
"nX c #F7E7DC",
"mX c #F9F3DA",
"MX c #F4E3E4",
"NX c #F4EBEB",
"BX c #FEE4E3",
"VX c #FEE6EB",
"CX c #FBEAE6",
"ZX c #FDEBEC",
"AX c #F2E7E6",
"SX c #FEEDF1",
"DX c #F4EAF2",
"FX c #F7F2ED",
"GX c #FFF3ED",
"HX c #FDFAEB",
"JX c #F6FEFD",
"KX c #FEF3F3",
"LX c #FEF6F9",
"PX c #FDFBF4",
"IX c #FEFEFD",
"UX c #F6F2F1",
/* pixels */
"IXIXIXIXIX/ p DXIXIXIXIXPXIXIXIXIXIXIXIXIXIXIXIXIXIXPXPXIXJXcXI.B.l.u.i.i.u.u.i.x.,.` J.x.h.z.V.",
"IXIXIXIXIXIXL / LXIXIXPXIXIXIXIXIXIXIXIXIXIXIXIXIXIXIXIXIXIX1X_ 5.f.u.h.a.p.&.@.M [ 1.I.M.k.v.:.",
"IXIXIXIXLXIXUXu T.LXPXIXIXIXIXIXIXIXIXIXIXIXIXIXIXIXIXIXIXPXcXD X.*.u.| B C %.} M G ,.m.5.k.N.%.",
"IXIXIXIXIXIXIXNXu W.IXIXIXIXIXIXIXIXIXIXIXIXIXIXIXIXIXIXPXPXHXr.) i.%.( l v ..%.@.@.*.M { k.N.i.",
"IXIXIXIXIXIXIXIXpXu uXIXIXJXIXLXIXIXIXIXIXIXIXIXPXIXIXIXIXIXIX6Xn } *.} l C } &.y.u.%.[ C h.B.i.",
"IXIXIXIXIXIXIXIXPX^.r aXIXJXIXIXIXIXIXIXIXIXIXIXIXIXIXIXIXIXIXPXr.v *.*.B { &.&.&.&.*.| Z -.V.a.",
"IXIXIXIXIXIXIXIXIXLX^.a AXLXIXIXIXIXIXIXIXIXIXIXIXIXIXIXIXIXIXPX8Xn { u.%.o.&.&.&.u.&.( N m.5.h.",
"IXIXIXIXIXIXIXIXIXIXPXL K UXJXIXIXIXIXIXIXIXIXIXIXIXIXIXIXIXIXIXHXt.v %.u.*.u.@.} &.&.} v D.M.;.",
"IXIXIXIXIXIXIXIXIXIXIXMXH / UXIXIXIXIXIXIXJXIXIXIXIXIXIXIXIXIXIXIXbXn { f.u.%.@.M $.&.@.C :.v.j.",
"IXIXIXIXIXIXIXIXIXIXPXIXNXa ^.LXIXIXIXIXIXIXIXIXIXIXIXIXIXIXIXIXIXPXt.B %.f.i.] M @.&.*.=.;.z.c.",
"IXIXIXIXIXIXIXIXIXIXIXJXJXUXr ,XLXJXJXIXIXIXIXIXIXIXIXIXIXIXIXIXIXPX0X_ ] *.*.v V &.&.u.a.;.V.;.",
"IXIXIXIXIXIXIXIXIXIXJXIXPXIXeXp uXIXIXJXIXIXIXIXIXIXIXIXIXIXIXIXIXIXHXH.N =.;.| V $.&.*.*.{ +.h.",
"IXIXIXIXIXIXIXIXIXIXIXIXIXIXLX{.k MXIXIXIXIXIXIXIXIXIXIXIXIXIXIXIXIXPX6X` ] a.i.o.&.i.%.*.G C ;.",
"IXIXIXIXIXIXIXIXJXIXIXIXIXIXPXLXU.h MXIXJXIXIXIXIXIXIXIXIXIXIXIXIXPXIXmXt.M %.i.&.%.} } *.=.M z.",
"IXIXIXIXIXIXIXIXIXIXIXIXIXIXIXIXUXY.J AXPXIXIXIXIXIXIXIXIXIXIXIXIXIXPXPX7XA G i.&.%.M V *.;.C z.",
"IXIXIXIXIXIXIXIXIXIXIXIXJXIXIXIXJXUX/ / LXIXIXIXIXIXIXIXIXIXIXIXIXIXJXPXmXw.M %.*.*.C m @.h.-.:.",
"IXIXIXIXIXJXIXIXIXIXIXIXIXIXIXIXIXIXNXL R.PXPXIXIXJXIXPXZXwX}.6XnXLXIXJXPX2XS } f.*.-.v } &.l.-.",
"IXIXIXIXIXIXIXIXIXJXIXIXIXIXIXIXIXJXJXZXs R.LXIXIXIXNX^.k 4 = - 4 K rXIXPXmXG.C *.i.z.C ] *.g.z.",
"IXPXIXIXIXIXIXIXIXIXIXIXIXIXIXIXIXIXIXPXwXa E.IXIXpX/ j t < < < = = w ].PXIX0X<.=.h.j.O.o.p.h.B.",
"IXIXIXIXIXIXIXIXIXIXIXIXJXIXIXIXIXPXIXPXPXrXp U.CXQ.P j 5 : : : : ; % 8 {.JXPX7Xw.:.l.h.;.a.;.B.",
"IXIXIXIXIXLXIXIXIXIXIXJXJXIXIXIXIXIXPXIXIXIXaXg U P d = + O     . + # @ h DXPXHX3X<.x.g.i.k.-.D.",
"IXIXIXIXIXIXIXIXIXIXIXIXIXIXIXIXJXIXIXIXIXIXIXMXU e $ X X o + @     X # - [.IXIXCXG.6.*.h.c.3.S.",
"IXIXIXPXPXIXPXPXPXPXIXIXIXIXIXPXIXPXIXLXLXJXJXaXP > X # # > 5 e , +     + P PXIXHX5X6.j.;.k.j.b.",
"IXPXIXAX.X<XkXVXGXKXGXPXPXPXLXLXGXhX*X(. XLXIXwXj @ X o * 1 w 6 : +     . y CXPXxXe.5.h.y.y.2.h.",
"IXIXIXLXPXBXzX%X).! ! +XOX#XoXQ W ! *XsXZXLXLX4Xy . X o 7 R.pX].j @ o X   9 aXHX8.) 2.&.u.u.&.&.",
"JXIXIXIXIXIXPXIXLXzXgXsX<X6XsXgXCXGXLXIXJXIXIX}.6   X o i pXPXeX[.*   X o 3 uXbXc ] *.f.&.u.%.&.",
"IXIXIXIXIXIXIXIXIXIXIXIXLXJXIXJXIXIXLXZXZXJXJX{.2 o X X 3 W.AX^.U + X X   9 qX'.y 2.&.&.u.u.&.&.",
"IXIXIXIXIXLXIXIXIXIXIXIXLXIXIXLXLXjX$XQ dXLXJXwX3 O X # > e H f 7 @ O     d 6X' l &.u.u.f.i.&.u.",
"IXIXIXIXMXzXZXSXZXZXZXBXnXkXsX#X(.Q =XBXIXPXLXaX4 + # # > w i w < O X o & / 7Xc l *.&.&.i.%.&.&.",
"IXIXIXIXZXyXtXiX).W E R R oXoX$XgXZXIXIXIXLXIXMXp & O X + > q q % X X . t [.'.l B 2.%.f.f.*.y.u.",
"IXIXIXPXIXPXPXIXKXGXSXGXKXLXLXLXIXIXIXZX-X&XLXLXI 2 & + # + $ @ O O O > / pX9.b B *.} #.%.%.{ *.",
"IXIXIXIXIXJXIXIXIXIXIXIXIXPXIXIXPXBX-X^ OXCXIXIXuXd 7 5 = $ $ + > * % d {.mX` z ] p.C G &.} m %.",
"JXJXLXVXVXSXLXKXLXIXIXIXLXPXGXsX+XR oXhXLXIXIXLXLX[.f 6 5 5 0 5 5 < w W.PX6Xy v ..2.G G &.} M %.",
"JXIXSXkX<X&XtX X$X#X:X<X$X+XQ ~ -XBXPXIXJXIXIXIXIXIXwXJ i 7 3 5 5 t !.GXPX~.( ( 4.4.%.@.&...} &.",
"LXIXIXJXPXPXLXZXfX;X=X=X=X:XVXGXPXJXPXIXIXIXIXJXPXKXPXNX/./ H J U.eXKXIXHX9.N C l.*.g.&.u.$.$.&.",
"JXIXIXJXIXJXIXIXJXJXIXIXJXIXIXJXIXIXIXJXIXIXLXKXkX|.CXLXIXIXSXNXPXLXIXIXvXD Z ] l.*.%.&.&.&.&.&.",
"IXIXIXIXIXIXIXIXIXIXPXLXLXIXJXIXLXLXLXPXGXjXdX@XW hXLXLXIXIXIXIXJXIXJXIX1XA v O.*.%.C ..&.%.$.u.",
"IXIXIXIXIXIXIXIXPXLXIXIXKXZXgX>X-X$X-XQ E Y oX<XGXIXIXIXIXIXIXPXIXIXJXPXt.v M -.*.#.M ..@.{ $.u.",
"JXIXIXIXIXIXIXNXrX%XyXiX|._.! @X;X;XsXhXBXKXIXJXIXIXJXIXIXIXIXIXIXIXPXmXF m C j.*.=.M #.G C *.*.",
"IXIXIXIXIXIXIXIXKXGXZXLXPXKXLXIXIXIXIXIXIXIXPXIXJXIXIXIXIXJXIXIXIXIXPX6XD z | *.*.;.G *.{ G &.&.",
"IXIXIXIXIXIXIXIXIXIXIXIXIXIXIXIXIXIXIXIXPXIXIXIXIXIXIXIXIXIXIXIXIXIXPX~.c M =.i.f.;.o.*.$.$.&.y.",
"IXIXIXIXIXIXIXIXIXIXIXIXIXIXIXIXIXIXIXIXIXIXIXIXIXIXIXIXIXIXIXIXJXPXHX9.N G a.i.h.f.&.*.y.u.&.*.",
"IXIXIXIXIXIXIXIXIXIXIXIXIXIXIXIXIXIXIXIXIXIXIXIXIXIXIXIXIXIXIXIXIXIXmX7.) | z.s.k.&.&.&.&.u.&.u.",
"IXIXIXIXIXIXIXIXIXIXIXIXIXIXIXIXIXIXIXIXIXIXIXIXIXIXIXIXIXIXIXIXIXIXxX9.1.b.v.z.v.*.f.f.u.%.u.i.",
"IXIXIXIXIXIXIXIXIXIXIXIXIXIXIXIXIXIXIXIXIXIXIXIXIXIXIXIXIXIXIXIXIXPXxXt.Z.P.B.=.C s.4.=.#.p.i.p.",
"IXIXIXIXIXIXIXIXIXIXIXIXIXIXIXIXIXIXIXIXIXIXIXIXIXIXIXIXIXIXIXIXIXPXcXH.G.F.D.) C c.-.B >.*.*.a.",
"IXIXIXIXIXIXIXIXIXIXIXIXIXIXIXIXIXIXIXIXIXIXIXIXIXIXIXIXIXIXIXIXPXHX4XH.A.F.n.( X.b.5.e.F.V.z.B.",
"IXIXIXIXIXIXIXIXIXIXIXIXIXIXIXIXIXIXIXIXIXIXIXIXIXIXIXIXIXIXIXIXJXFX1Xe.Z.F.b.,.m.n.L.9X3XK.Z.J."
};
