/* XPM */
static char * dox_xpm[] = {
"48 48 541 2",
"  	c None",
". 	c #CA97FF",
"+ 	c #BF80FF",
"@ 	c #AA55FF",
"# 	c #A54CFF",
"$ 	c #A750FF",
"% 	c #9832FF",
"& 	c #A142FF",
"* 	c #9A35FF",
"= 	c #A041FF",
"- 	c #9A36FF",
"; 	c #962EFF",
"> 	c #9E3DFF",
", 	c #A144FF",
"' 	c #9F40FF",
") 	c #8812FF",
"! 	c #840AFF",
"~ 	c #8E1EFF",
"{ 	c #8F20FF",
"] 	c #8B18FF",
"^ 	c #850BFF",
"/ 	c #8408FF",
"( 	c #8810FF",
"_ 	c #8912FF",
": 	c #962DFF",
"< 	c #9C37FF",
"[ 	c #9123FF",
"} 	c #870FFF",
"| 	c #9125FF",
"1 	c #A954FF",
"2 	c #BD7BFF",
"3 	c #B266FF",
"4 	c #AC5AFF",
"5 	c #A247FF",
"6 	c #A347FF",
"7 	c #8F1FFF",
"8 	c #942AFF",
"9 	c #9C3AFF",
"0 	c #AE5EFF",
"a 	c #BD7DFF",
"b 	c #D1A3FF",
"c 	c #E0C0FF",
"d 	c #E7D0FF",
"e 	c #EEDDFF",
"f 	c #F6EEFF",
"g 	c #F7F0FF",
"h 	c #F5EAFF",
"i 	c #D7AEFF",
"j 	c #A64FFF",
"k 	c #9C3BFF",
"l 	c #9730FF",
"m 	c #9D3CFF",
"n 	c #962CFF",
"o 	c #9226FF",
"p 	c #8A16FF",
"q 	c #8811FF",
"r 	c #860EFF",
"s 	c #9024FF",
"t 	c #8D1CFF",
"u 	c #9831FF",
"v 	c #9B39FF",
"w 	c #9B38FF",
"x 	c #9E3EFF",
"y 	c #AC5BFF",
"z 	c #A348FF",
"A 	c #8A15FF",
"B 	c #8A14FF",
"C 	c #952AFF",
"D 	c #952BFF",
"E 	c #9429FF",
"F 	c #9021FF",
"G 	c #8C19FF",
"H 	c #8C1BFF",
"I 	c #9224FF",
"J 	c #9C3CFF",
"K 	c #9934FF",
"L 	c #9E40FF",
"M 	c #CE9FFF",
"N 	c #DDBCFF",
"O 	c #DFBFFF",
"P 	c #E1C4FF",
"Q 	c #D6ADFF",
"R 	c #E8D2FF",
"S 	c #B771FF",
"T 	c #A54DFF",
"U 	c #9933FF",
"V 	c #8C1AFF",
"W 	c #9329FF",
"X 	c #9830FF",
"Y 	c #9D3BFF",
"Z 	c #B061FF",
"` 	c #AC59FF",
" .	c #AA56FF",
"..	c #B56BFF",
"+.	c #AE5FFF",
"@.	c #B76EFF",
"#.	c #B56CFF",
"$.	c #9E3CFF",
"%.	c #A751FF",
"&.	c #BA76FF",
"*.	c #AF60FF",
"=.	c #B66DFF",
"-.	c #B265FF",
";.	c #AB57FF",
">.	c #B161FF",
",.	c #AF5FFF",
"'.	c #B56DFF",
").	c #B163FF",
"!.	c #B162FF",
"~.	c #B66FFF",
"{.	c #C182FF",
"].	c #C791FF",
"^.	c #C993FF",
"/.	c #CB98FF",
"(.	c #B76FFF",
"_.	c #A64DFF",
":.	c #A74FFF",
"<.	c #BF7EFF",
"[.	c #CA96FF",
"}.	c #E8D4FF",
"|.	c #E3C7FF",
"1.	c #DCB9FF",
"2.	c #A64EFF",
"3.	c #8E1DFF",
"4.	c #8B19FF",
"5.	c #9020FF",
"6.	c #A143FF",
"7.	c #A244FF",
"8.	c #9C39FF",
"9.	c #8913FF",
"0.	c #8911FF",
"a.	c #8308FF",
"b.	c #860FFF",
"c.	c #870EFF",
"d.	c #8710FF",
"e.	c #9428FF",
"f.	c #8914FF",
"g.	c #9328FF",
"h.	c #9B37FF",
"i.	c #9833FF",
"j.	c #952CFF",
"k.	c #A042FF",
"l.	c #B368FF",
"m.	c #BD7CFF",
"n.	c #CC9AFF",
"o.	c #E6CDFF",
"p.	c #EBD9FF",
"q.	c #F4EBFF",
"r.	c #EAD5FF",
"s.	c #D7B0FF",
"t.	c #B975FF",
"u.	c #8D1AFF",
"v.	c #8915FF",
"w.	c #8207FF",
"x.	c #8205FF",
"y.	c #8003FF",
"z.	c #8306FF",
"A.	c #8105FF",
"B.	c #840BFF",
"C.	c #850CFF",
"D.	c #8309FF",
"E.	c #860CFF",
"F.	c #860DFF",
"G.	c #8B17FF",
"H.	c #9124FF",
"I.	c #A246FF",
"J.	c #C68DFF",
"K.	c #B873FF",
"L.	c #A952FF",
"M.	c #8307FF",
"N.	c #8206FF",
"O.	c #8104FF",
"P.	c #8002FF",
"Q.	c #8103FF",
"R.	c #850DFF",
"S.	c #8409FF",
"T.	c #932AFF",
"U.	c #A851FF",
"V.	c #A853FF",
"W.	c #9A34FF",
"X.	c #FFCC00",
"Y.	c #8204FF",
"Z.	c #7F00FF",
"`.	c #8102FF",
" +	c #8001FF",
".+	c #860BFF",
"++	c #8C18FF",
"@+	c #9022FF",
"#+	c #9122FF",
"$+	c #8F21FF",
"%+	c #9023FF",
"&+	c #942CFF",
"*+	c #8711FF",
"=+	c #972FFF",
"-+	c #A349FF",
";+	c #9228FF",
">+	c #AD5CFF",
",+	c #8E1FFF",
"'+	c #8815FF",
")+	c #8A18FF",
"!+	c #9225FF",
"~+	c #9932FF",
"{+	c #9128FF",
"]+	c #A040FF",
"^+	c #9B3AFF",
"/+	c #A44AFF",
"(+	c #A346FF",
"_+	c #AD5DFF",
":+	c #B973FF",
"<+	c #B974FF",
"[+	c #A852FF",
"}+	c #B46AFF",
"|+	c #B165FF",
"1+	c #B164FF",
"2+	c #C58AFF",
"3+	c #B872FF",
"4+	c #B367FF",
"5+	c #850AFF",
"6+	c #8208FF",
"7+	c #8E1CFF",
"8+	c #952DFF",
"9+	c #8A17FF",
"0+	c #9327FF",
"a+	c #A854FF",
"b+	c #A951FF",
"c+	c #A54BFF",
"d+	c #7F01FF",
"e+	c #8D1BFF",
"f+	c #8813FF",
"g+	c #8610FF",
"h+	c #8F1EFF",
"i+	c #9326FF",
"j+	c #9935FF",
"k+	c #962FFF",
"l+	c #A245FF",
"m+	c #A449FF",
"n+	c #A44BFF",
"o+	c #A248FF",
"p+	c #8D1DFF",
"q+	c #9227FF",
"r+	c #B369FF",
"s+	c #AC58FF",
"t+	c #AD5BFF",
"u+	c #B467FF",
"v+	c #A850FF",
"w+	c #9C38FF",
"x+	c #BF7FFF",
"y+	c #A145FF",
"z+	c #BB77FF",
"A+	c #C489FF",
"B+	c #CA95FF",
"C+	c #D0A3FF",
"D+	c #C184FF",
"E+	c #D5ABFF",
"F+	c #BC68AF",
"G+	c #CD827F",
"H+	c #B861AF",
"I+	c #B463DF",
"J+	c #C174AF",
"K+	c #CD817F",
"L+	c #D7998F",
"M+	c #DAAEDF",
"N+	c #B46BFF",
"O+	c #B062FF",
"P+	c #C183FF",
"Q+	c #E0C3FF",
"R+	c #EBD8FF",
"S+	c #D4A9FF",
"T+	c #C58CFF",
"U+	c #B56AEF",
"V+	c #F1B92F",
"W+	c #F8C41F",
"X+	c #BF76CF",
"Y+	c #A03FFF",
"Z+	c #B95D8F",
"`+	c #D48D6F",
" @	c #9D3EFF",
".@	c #C1719F",
"+@	c #DE9A4F",
"@@	c #BE688F",
"#@	c #CEA0FF",
"$@	c #F2BB2F",
"%@	c #8B15FF",
"&@	c #C9766F",
"*@	c #DB985F",
"=@	c #F8C10F",
"-@	c #8F1CEF",
";@	c #EBAE2F",
">@	c #FAC50F",
",@	c #BC679F",
"'@	c #F5D17F",
")@	c #B254AF",
"!@	c #CC7F7F",
"~@	c #D9935F",
"{@	c #A943AF",
"]@	c #9422DF",
"^@	c #D8925F",
"/@	c #F2B81F",
"(@	c #9931EF",
"_@	c #F9C20F",
":@	c #F8C20F",
"<@	c #C584DF",
"[@	c #C27ABF",
"}@	c #D2865F",
"|@	c #CB796F",
"1@	c #AF50AF",
"2@	c #A543CF",
"3@	c #C67C9F",
"4@	c #BF698F",
"5@	c #F1B71F",
"6@	c #F1B61F",
"7@	c #BF6A8F",
"8@	c #CD7D6F",
"9@	c #D68C5F",
"0@	c #E09C3F",
"a@	c #F3BA1F",
"b@	c #EEB32F",
"c@	c #CC7C6F",
"d@	c #A842AF",
"e@	c #9A2BCF",
"f@	c #C9776F",
"g@	c #E6A73F",
"h@	c #AC4DBF",
"i@	c #880FFF",
"j@	c #911DDF",
"k@	c #A237BF",
"l@	c #911EDF",
"m@	c #F7C00F",
"n@	c #B05ADF",
"o@	c #CE9EFF",
"p@	c #C891FF",
"q@	c #AA54FF",
"r@	c #AB52DF",
"s@	c #DC9A5F",
"t@	c #DB9B6F",
"u@	c #A541CF",
"v@	c #D2855F",
"w@	c #9D3AFF",
"x@	c #B2539F",
"y@	c #C0687F",
"z@	c #B55CAF",
"A@	c #ECAF2F",
"B@	c #AE4CAF",
"C@	c #E19D3F",
"D@	c #D0846F",
"E@	c #E8A72F",
"F@	c #B85B8F",
"G@	c #9731FF",
"H@	c #9221EF",
"I@	c #C5737F",
"J@	c #E09F4F",
"K@	c #9E3FFF",
"L@	c #D38A6F",
"M@	c #8C19EF",
"N@	c #AC54DF",
"O@	c #9D3DFF",
"P@	c #F4BC1F",
"Q@	c #A43DBF",
"R@	c #C16D8F",
"S@	c #B65DAF",
"T@	c #DF9D4F",
"U@	c #E6AA4F",
"V@	c #BC7AFF",
"W@	c #EFB93F",
"X@	c #B770FF",
"Y@	c #A641BF",
"Z@	c #BC6DBF",
"`@	c #9B2DCF",
" #	c #D08E9F",
".#	c #D3959F",
"+#	c #D9B4FF",
"@#	c #D9B5FF",
"##	c #DBB6FF",
"$#	c #F6C73F",
"%#	c #D4AAFF",
"&#	c #B267FF",
"*#	c #C783BF",
"=#	c #A43CBF",
"-#	c #A137BF",
";#	c #8910EF",
">#	c #F9C40F",
",#	c #9A33EF",
"'#	c #F1BD3F",
")#	c #CFA0FF",
"!#	c #C996FF",
"~#	c #A13DDF",
"{#	c #A742BF",
"]#	c #AA49BF",
"^#	c #D0815F",
"/#	c #D4895F",
"(#	c #E7AA3F",
"_#	c #AB58FF",
":#	c #AB4ABF",
"<#	c #A238BF",
"[#	c #C16A7F",
"}#	c #D88F4F",
"|#	c #E4A43F",
"1#	c #8B16FF",
"2#	c #A94CDF",
"3#	c #B25FDF",
"4#	c #EFB31F",
"5#	c #E4A23F",
"6#	c #B258BF",
"7#	c #B157BF",
"8#	c #AB4ECF",
"9#	c #BA608F",
"0#	c #8D19FF",
"a#	c #E4A33F",
"b#	c #A53DBF",
"c#	c #A035BF",
"d#	c #9220DF",
"e#	c #8D1AEF",
"f#	c #F9C30F",
"g#	c #B865BF",
"h#	c #B1519F",
"i#	c #9E39DF",
"j#	c #8F22FF",
"k#	c #9A37FF",
"l#	c #911EEF",
"m#	c #C26B7F",
"n#	c #AC48AF",
"o#	c #CA786F",
"p#	c #B55DAF",
"q#	c #E09B3F",
"r#	c #D1835F",
"s#	c #E9AD3F",
"t#	c #E6A83F",
"u#	c #A74EFF",
"v#	c #F0B41F",
"w#	c #901EEF",
"x#	c #C26C7F",
"y#	c #AA4CCF",
"z#	c #AA53FF",
"A#	c #B166FF",
"B#	c #FAC60F",
"C#	c #E8AE4F",
"D#	c #DE9E5F",
"E#	c #B25CCF",
"F#	c #FCD74F",
"G#	c #C37BBF",
"H#	c #E1A35F",
"I#	c #850EFF",
"J#	c #A743BF",
"K#	c #9B37EF",
"L#	c #942BFF",
"M#	c #992ACF",
"N#	c #B5589F",
"O#	c #B9609F",
"P#	c #B964AF",
"Q#	c #DD9B5F",
"R#	c #E1AD8F",
"S#	c #FCCA0F",
"T#	c #DFA57F",
"U#	c #E4AA5F",
"V#	c #F0B51F",
"W#	c #F1B51F",
"X#	c #DB934F",
"Y#	c #870DEF",
"Z#	c #CC95DF",
"`#	c #CB7A6F",
" $	c #CD7F6F",
".$	c #901DEF",
"+$	c #D88E4F",
"@$	c #A741AF",
"#$	c #D3A7FF",
"$$	c #FAC81F",
"%$	c #FBC60F",
"&$	c #9D33DF",
"*$	c #9B32DF",
"=$	c #B5599F",
"-$	c #B14F9F",
";$	c #DAB7FF",
">$	c #EBC59F",
",$	c #FCD33F",
"'$	c #FCD23F",
")$	c #AB56FF",
"!$	c #C9797F",
"~$	c #E29F3F",
"{$	c #EEB22F",
"]$	c #C784CF",
"^$	c #EBB13F",
"/$	c #D0A2FF",
"($	c #C892FF",
"_$	c #C083FF",
":$	c #EFB62F",
"<$	c #EFB52F",
"[$	c #B76FEF",
"}$	c #B05CDF",
"|$	c #E4A64F",
"1$	c #DD9A5F",
"2$	c #C78FFF",
"3$	c #CD9AFF",
"4$	c #E1BCDF",
"5$	c #EAC29F",
"6$	c #A141FF",
"7$	c #9D39EF",
"8$	c #9C37EF",
"9$	c #A650FF",
"0$	c #DCA28F",
"a$	c #C9809F",
"b$	c #B257AF",
"c$	c #F9F4FF",
"d$	c #F8F2FF",
"e$	c #F8F1FF",
"f$	c #F9EFEF",
"g$	c #FDDB5F",
"h$	c #FCD43F",
"i$	c #FAD24F",
"j$	c #F2D9BF",
"k$	c #EFDFFF",
"l$	c #E0B7CF",
"m$	c #DCADBF",
"n$	c #D59FBF",
"o$	c #CF94BF",
"p$	c #BD6BAF",
"q$	c #DB965F",
"r$	c #E2A34F",
"s$	c #C87E9F",
"t$	c #A955FF",
"u$	c #AD52CF",
"v$	c #AE51BF",
"w$	c #A540BF",
"x$	c #8B16EF",
"y$	c #A33BBF",
"z$	c #AD4EBF",
"A$	c #AE52BF",
"B$	c #B156BF",
"C$	c #F0E1FF",
"D$	c #E0C1FF",
"E$	c #C287FF",
"F$	c #C994FF",
"G$	c #D8B2FF",
"H$	c #E9D4FF",
"I$	c #EAD7FF",
"J$	c #F0E2FF",
"K$	c #F7EFFF",
"L$	c #F7F1FF",
"M$	c #F2E7FF",
"N$	c #DEBEFF",
"O$	c #9F3FFF",
"P$	c #A448FF",
". + @ # $ % & * = - ; > , ' ) ! ~ { ] ^ / ( _ : < [ } | 1 2 3 4 5 6 : 7 8 9 9 0 a b c d e f g h ",
"i j k l - ; m n o > l % p ] q r s ^ t u v w x y 0 z u A B C D E _ F G H I o J K L 6 # M N O P Q ",
"R S T U : V W X o z Y > m Z `  ...$ +.@.#.$.%.&.3 *.=.-.;.>.,.'.)...!.-.~.{.].^./.(._.:.<.[.}.|.",
"1.2.w 3.4.5.6.7.8.w : { 9.0.a.^ ] r b.c.d._ p 3.E e.p f.] G g.h.m ' ~ k i.j.k.l.m.n.o.p.e q.r.s.",
"t.> u.p } B 9.A ] A v.w.x.y.z.q A.! z.B.r 4.e.~ X k.{ C.D.9.f.E.F.F.A.z.! B.p 9.G.H.I.:.(.. J.K.",
"L.K F.! M./ M.! ^ N.N.M.A.O.N.P.Q.O.x.M.N.a.r a.C.v.b.M.M.r R.^ A.y.Q.O.N.S./ w.S.r V 7 T., U.V.",
"W.; f.d.R.D.a.! C.! X.X.X.X.Y.Q.Z.`.`.Z. +Q.a.x.^ D.S.^ q F.a.x.P.P.P.M.! F.Y.N..+S.p ++} E.) 3.",
"; o 9.@+#+$+@+G.%+7 X.X.X.X.o &+G.7 @+V *+A 5.=+-+;+@+= 1 >+h.E t } B.C.t 3.,+o 9.^ f.S.'+*+)+!+",
"c.F.B ; $.6 ' ~+{+[ X.X.X.X.C $+#+8.]+=+= ^+, /+(+=+D 9 5 I.$ _+:+<+,.[+>+}+|+K.#.1++ 2+3+3 4+4+",
"r ^ 5+a.x.a.r B..+} X.X.X.X.O.P.6+5+z.O.M.M.w.M.x.E.C.[ 7+G.8+{ ) c.r v.9+{ 0+8.v , a+X i.b+/+c+",
"S.N.^ x.N.M.a.S.A.a.X.X.X.X.d+y.a.M.O.N.x.z.^ 9.a.~ Y | V e+=+9 !+q r ) t I ~ q ! ) f.^ M.*+f.B ",
"9.S.N.N.S.^ F.R.C.B.X.X.X.X. + +P. +`. + + +d+P.Q.^ q f+M.x.5+] v.S.N.S.g+,+%+H.~ G.e+7 3.H.; H.",
"%+3.v.h+i+%+e+p { v.X.X.X.X.A 3.~ 9.} r B.M. +Z.P.z.S.D.S.) H.8 o %+H v.*+w.N.M.S.N.N.S.! f+e+] ",
"l 7 4.8+W.j+' ; : s X.X.X.X.9.k+9 m l+m+@ n+% o+U.6 W j.,+e+@+I p+@+r ^ d.q ( B _ d.9.G p+F 8 l ",
"W.; @+A v.5.%+G F f.X.X.X.X.r D.Q.a.a.C.d.e+^ u q+j+, 1 r+y @ *.s+t+;.>+u+1 L.%.[+v+(+w+h.h.m x+",
"A A H ~ %+X m l o o X.X.X.X.q+G u ~ c.V ] F.p+] ++F H.9.C.^ f.v.[ > x U.> U c+y+0 z+A+B+C+D+l.6.",
"E+<+l+m F+G+H+=+7 e+X.X.X.X.M.a.( E.9.r f+H.I+J+K+L+M+N+p+r u.e.V a.E.A } w.d.A B.o 6 _.O+P+Q+R+",
"S+T+U+V+X.X.X.W+X+Y+X.X.X.X.$+! P.O.Q. +P.Z+X.X.X.X.X.`+k+8 ] ;  @.@X.X.X.X.+@j.,+A { @@X.X.X.X.",
"#@M $@X.X.X.X.X.W+0 X.X.X.X.@+0+e+%@G ) &@X.X.X.X.X.X.X.*@L l 0+H.4.=@X.X.X.X.-@) e+8 ;@X.X.X.>@",
"t ,@X.X.X.X.X.X.X.'@X.X.X.X.0+H.b.9+{ )@X.X.X.X.X.X.X.X.X.!@Y 8.D X ~@X.X.X.X.{@a.z.]@X.X.X.X.^@",
"i+/@X.X.X.X.X.X.X.X.X.X.X.X.t.t+l F (@_@X.X.X.X.X.X.X.X.X.:@<@2+# m [@X.X.X.X.}@b.9.|@X.X.X.X.1@",
"2@X.X.X.X.X.X.X.X.X.X.X.X.X.g./+@ *.3@X.X.X.X.X.X.X.X.X.X.X.4@q+G V 9+5@X.X.X.=@D 3.5@X.X.X.6@[ ",
"7@X.X.X.X._@8@9@X.X.X.X.X.X.Q.x.O.N.0@X.X.X.X.X.a@X.X.X.X.X.b@= H.D ~ c@X.X.X.X.d@e@X.X.X.X.f@F.",
"g@X.X.X.X.h@T m+^@X.X.X.X.X.i@N.x.j@X.X.X.X.X.k@x.l@m@X.X.X.X.n@o@p@q@r@X.X.X.X.s@t@X.X.X.X.u@% ",
"X.X.X.X.v@S.! S.-@X.X.X.X.X.-+w@p+x@X.X.X.X.y@Q.N.p z@X.X.X.X.Z+R.d.b.G.A@X.X.X.:@a@X.X.X.;@#+8 ",
"X.X.X.X.B@x.N.S.B C@X.X.X.X.| n e.D@X.X.X.X.7 B.M.O.x.E@X.X.X.C@r x.Q.P.F@X.X.X.X.X.X.X.X.@@7 G@",
"X.X.X.X.H@q G e+3.I@X.X.X.X.} x.R.C@X.X.X.J@> K@m w w@L@X.X.X._@} S.S.5+M@X.X.X.X.X.X.X.X.N@O@!+",
"X.X.X.P@/+9 0+++r Q@X.X.X.X.=+U I.X.X.X.X.R@) D.! b.H S@X.X.X.X.=. .2.m+I.T@X.X.X.X.X.X.U@1 V@3+",
"X.X.X.W@%.>+&.X@:.Y@X.X.X.X.P.y.E.X.X.X.X.Z@' 9.! N.B.`@X.X.X.X.p G.i+- ;. #X.X.X.X.X.X..#+#@###",
"X.X.X.$#%#i x+&#!.*#X.X.X.X.P.P.x.X.X.X.X.=#C./ z.F.e+E X.X.X.X.-#Z. +Z. +;#=@X.X.X.X.>#,#| v+V@",
"X.X.X.'#)#!#).[+y+~#X.X.X.X.p+4.{#X.X.X.X.]#U G@f+S.z.S.X.X.X.X.Q@a.x.Q.P. +^#X.X.X.X./#e+%+- z ",
"X.X.X.(#m+_#>+3 + ;.X.X.X.X.) 3.:#X.X.X.X.B.F.! ! M.S.C.X.X.X.X.<#A.x.N.Y.Q.[#X.X.X.X.}#a.R.A ,+",
"X.X.X.|#%+] 1#t g.8 X.X.X.X.j.; 2#X.X.X.X.3#k U 0+t ] 9.X.X.X.X.<#O.Q.P.P.Z.4#X.X.X.X.X.j@S.v.G ",
"X.X.X.5#!+t u ] r =#X.X.X.X._ f._ X.X.X.X.6#$.6 u w _._#X.X.X.X.7#| < m ; 8#X.X.X.X.X.X.9#c.0#{ ",
"X.X.X.a#8.;+3.1#9.b#X.X.X.X.x.O.d+X.X.X.X.c#O.M.z.Q.y.d#X.X.X.X.e#p w x u L@X.X.X.X.X.X.;@h.=+8.",
"X.X.X.f#W H.* : 0+g#X.X.X.X.f.S.O.X.X.X.X.h#P.a.} F.M.c#X.X.X.X.z.z.O.d+O.4#X.X.X.X.X.X.X.i#j#k#",
"X.X.X.X.l#4.b./ C.[#X.X.X.X.; t E A@X.X.X.}@.+A r C.D.m#X.X.X.X.M.a.^ S.n#X.X.X.X.X.X.X.X.o#w./ ",
"X.X.X.X.p#~ { v.C.q#X.X.X.X.Y. +O.r#X.X.X.5@G.Y+2.-+c+s#X.X.X.t#u#I.G@; /#X.X.X.X.m@X.X.X.v#5+C.",
"X.X.X.X.g@8 e+C.w#X.X.X.X.X.t X } x#X.X.X.X.Y@,+e+) y#X.X.X.X.D@K@c+z#A#B#X.X.X.C#D#X.X.X.X.E#k+",
"F#X.X.X.X.G#1 1+H#X.X.X.X.X.I#r F.J#X.X.X.X.>#K#!+L#b@X.X.X.X.M#C.S.d.N#X.X.X.X.O#P#X.X.X.X.Q#5 ",
"R#X.X.X.X.S#T#U#X.X.X.X.X.X.D.O.d+`.m@X.X.X.X.=@|@V#X.X.X.X.W#C.f.o 7 X#X.X.X.X.Y#O.=@X.X.X.=@p+",
"Z#X.X.X.X.X.X.X.X.X.X.X.X.X.c+L#F A `#X.X.X.X.X.X.X.X.X.X.X. $~ } w..$X.X.X.X.+$`.P.^#X.X.X.X.@$",
"#$$$X.X.X.X.X.X.X.X.%$X.X.X.{ 1#u.q &$X.X.X.X.X.X.X.X.X.X.X.*$5 O@t =$X.X.X.X.-$d+P.d@X.X.X.X.^#",
";$>$X.X.X.X.X.X.X.,$'$X.X.X.).)$l+%+e+!$X.X.X.X.X.X.X.X.X.&@a._ 7 9.~$X.X.X.X.;#P.`.`.m@X.X.X.X.",
": j+{$X.X.X.X.X.X.]$^$X.X.X./$. ($_$3+0 :$X.X.X.X.X.X.X.<$[$z+Z a+}$X.X.X.X.|$k.Y : , 1$X.X.X.X.",
"2$3$4$S#X.X.X.X.5$1.$#X.X.X./+x $ k.6$W.7$+@X.X.X.X.X.{$8$o =+9$V.0$X.X.X.X.a$' E H.U b$X.X.X.X.",
"c$d$e$f$g$h$i$j$k$o.l$m$n$o$}+4 = =+X e.{ j.p$q$(#r$s$t$Y ~ q A s u$v$Y@{#w$x$G.f.G 3.E.y$z$A$B$",
"C$D$i E$F$G$H$I$J$K$c$L$M$r.N$[.' O$k.o 7 F.p } e+g.6 # u h+t ; u k 0+u j.=+8 H.8 m m l 0+Y _.P$"};
