/* XPM */
static char * edit_xpm[] = {
"32 32 66 1",
" 	c None",
".	c #001800",
"+	c #000100",
"@	c #009900",
"#	c #001500",
"$	c #000900",
"%	c #000000",
"&	c #002E00",
"*	c #001100",
"=	c #000600",
"-	c #000300",
";	c #003000",
">	c #002B00",
",	c #009700",
"'	c #009400",
")	c #002400",
"!	c #009000",
"~	c #050400",
"{	c #0A0000",
"]	c #1F2500",
"^	c #214600",
"/	c #228100",
"(	c #019900",
"_	c #003B00",
":	c #F8C600",
"<	c #FFCC00",
"[	c #FFC500",
"}	c #B37300",
"|	c #160200",
"1	c #230C00",
"2	c #422200",
"3	c #142500",
"4	c #233600",
"5	c #1F0000",
"6	c #B79200",
"7	c #FFCB00",
"8	c #FFC400",
"9	c #F9C400",
"0	c #DBAF00",
"a	c #F5C300",
"b	c #090500",
"c	c #280000",
"d	c #FF0000",
"e	c #010100",
"f	c #E8BA00",
"g	c #FFC800",
"h	c #A98700",
"i	c #F2C200",
"j	c #B38F00",
"k	c #FEB800",
"l	c #9A5300",
"m	c #F2C100",
"n	c #452000",
"o	c #4C0000",
"p	c #020200",
"q	c #020000",
"r	c #E20000",
"s	c #1D0000",
"t	c #380000",
"u	c #AA0000",
"v	c #300000",
"w	c #270000",
"x	c #660000",
"y	c #520000",
"z	c #8E0000",
"A	c #FA0000",
"                                ",
"                                ",
"                                ",
"                                ",
"                                ",
"                                ",
"                                ",
"             .    + @@@         ",
"                #$ @@@  %       ",
"          &    * @@@@  %        ",
"              = @ @@ %%         ",
"             -;@ @@ %           ",
"             >,@@@ %            ",
"            >'@@@ %             ",
"      %    )!@@@ %              ",
"     %~   {]^/(_%               ",
"      :<[}|12345                ",
"    %6<7890<abc               d ",
"    ef<7gg<<h                 d ",
"    ei<<877j                    ",
"    %  <<kl                     ",
"    %  <mno                     ",
"    %   pqrd                    ",
"dd  %% %   dd                   ",
" dd st%      d                  ",
"  duvw        d                 ",
"   xy          d                ",
"    zA         d                ",
"      dd       d                ",
"       dd     dd                ",
"         dd   d                 ",
"           ddd                  "};
