/* XPM */
static const char * edit_xpm[] = {
"64 64 472 2",
"  	c None",
". 	c #0A1840",
"+ 	c #383661",
"@ 	c #784B8C",
"# 	c #794B8D",
"$ 	c #794C8D",
"% 	c #7A4C8E",
"& 	c #7B4D8E",
"* 	c #7B4E8F",
"= 	c #7C4E8F",
"- 	c #7D4F90",
"; 	c #7E5091",
"> 	c #754A8A",
", 	c #132047",
"' 	c #141D47",
") 	c #B127A8",
"! 	c #FB1ED4",
"~ 	c #AC39A9",
"{ 	c #122046",
"] 	c #121D46",
"^ 	c #B528AB",
"/ 	c #A937A6",
"( 	c #111F46",
"_ 	c #101E45",
": 	c #B529AC",
"< 	c #A734A5",
"[ 	c #121E46",
"} 	c #252853",
"| 	c #963D9C",
"1 	c #CD3ABD",
"2 	c #C835B9",
"3 	c #903E99",
"4 	c #30305B",
"5 	c #131F47",
"6 	c #B52AAB",
"7 	c #A332A2",
"8 	c #383A62",
"9 	c #E340CC",
"0 	c #F529D2",
"a 	c #7C3F8C",
"b 	c #0E1C43",
"c 	c #161F49",
"d 	c #B42BAB",
"e 	c #A02FA0",
"f 	c #111D45",
"g 	c #363961",
"h 	c #E441CD",
"i 	c #A64EA9",
"j 	c #18204A",
"k 	c #B52DAC",
"l 	c #9E2D9E",
"m 	c #101C44",
"n 	c #373861",
"o 	c #E241CB",
"p 	c #FA1FD4",
"q 	c #8D3695",
"r 	c #0B1941",
"s 	c #19204B",
"t 	c #B62EAD",
"u 	c #9D2B9D",
"v 	c #373761",
"w 	c #E040CA",
"x 	c #D73DC4",
"y 	c #CE3EBE",
"z 	c #F724D3",
"A 	c #4B3A6E",
"B 	c #585079",
"C 	c #0D1A42",
"D 	c #19214B",
"E 	c #B92FAF",
"F 	c #6A3480",
"G 	c #363760",
"H 	c #DF40C9",
"I 	c #D442C3",
"J 	c #292F57",
"K 	c #472E69",
"L 	c #B838B0",
"M 	c #0C1A41",
"N 	c #BE42B5",
"O 	c #8F4E9B",
"P 	c #19224B",
"Q 	c #EC20CB",
"R 	c #7B3C8C",
"S 	c #34365F",
"T 	c #DF3FC9",
"U 	c #D844C6",
"V 	c #293057",
"W 	c #2A2F58",
"X 	c #D53CC2",
"Y 	c #F32AD1",
"Z 	c #2C2D59",
"` 	c #BF3EB5",
" .	c #FA20D4",
"..	c #8E509A",
"+.	c #E81EC8",
"@.	c #32355E",
"#.	c #DF3EC9",
"$.	c #DD45C9",
"%.	c #283157",
"&.	c #D83DC4",
"*.	c #E441CC",
"=.	c #CF44C0",
"-.	c #3F1E61",
";.	c #BE3EB5",
">.	c #8E4E9A",
",.	c #7B3C8B",
"'.	c #32345D",
").	c #E13ECA",
"!.	c #DB47C8",
"~.	c #2A3358",
"{.	c #2B3159",
"].	c #DB3EC6",
"^.	c #E342CC",
"/.	c #303A5D",
"(.	c #F722D2",
"_.	c #F12AD0",
":.	c #2A2857",
"<.	c #BE3DB5",
"[.	c #FA22D4",
"}.	c #8D4B99",
"|.	c #0E1B43",
"1.	c #7B3B8B",
"2.	c #31345D",
"3.	c #E03DC9",
"4.	c #DB48C8",
"5.	c #2D345B",
"6.	c #2B3259",
"7.	c #DC3FC7",
"8.	c #E541CD",
"9.	c #3C3D65",
"0.	c #1E274F",
"a.	c #C63BB9",
"b.	c #98439E",
"c.	c #0B1840",
"d.	c #F923D4",
"e.	c #8C4998",
"f.	c #543E74",
"g.	c #F523D1",
"h.	c #7A3B8B",
"i.	c #30335C",
"j.	c #DF3DC9",
"k.	c #DC4AC9",
"l.	c #31365D",
"m.	c #2E335B",
"n.	c #DB40C7",
"o.	c #E922CA",
"p.	c #422E66",
"q.	c #1F2750",
"r.	c #C43AB8",
"s.	c #FB1FD4",
"t.	c #A93FA8",
"u.	c #BE3DB4",
"v.	c #442E67",
"w.	c #EB2BCC",
"x.	c #31325C",
"y.	c #DD3CC7",
"z.	c #DD46C9",
"A.	c #33385F",
"B.	c #DB41C7",
"C.	c #EB22CB",
"D.	c #462767",
"E.	c #C33AB7",
"F.	c #AC43AB",
"G.	c #362F5F",
"H.	c #E324C7",
"I.	c #DB3BC6",
"J.	c #E030C7",
"K.	c #36305F",
"L.	c #DB42C7",
"M.	c #ED24CD",
"N.	c #492B6A",
"O.	c #1F264F",
"P.	c #B146AE",
"Q.	c #BE3CB4",
"R.	c #8E4C9A",
"S.	c #313D5F",
"T.	c #2F3A5C",
"U.	c #2C385B",
"V.	c #3B4065",
"W.	c #D846C6",
"X.	c #7A3A8A",
"Y.	c #30315B",
"Z.	c #DA3BC5",
"`.	c #E322C6",
" +	c #37245E",
".+	c #33365E",
"++	c #DC43C8",
"@+	c #F125CF",
"#+	c #4C2F6D",
"$+	c #1D264E",
"%+	c #C339B7",
"&+	c #B349B0",
"*+	c #152148",
"=+	c #BD3CB4",
"-+	c #F52AD2",
";+	c #F429D2",
">+	c #F328D1",
",+	c #F528D2",
"'+	c #A34EA7",
")+	c #2E305A",
"!+	c #DA3AC5",
"~+	c #E623C8",
"{+	c #33375F",
"]+	c #DD44C9",
"^+	c #F227D0",
"/+	c #523471",
"(+	c #1B264D",
"_+	c #C439B8",
":+	c #B64CB2",
"<+	c #162249",
"[+	c #FA23D4",
"}+	c #8B549A",
"|+	c #99379D",
"1+	c #E924CA",
"2+	c #37265E",
"3+	c #32385E",
"4+	c #E045CB",
"5+	c #F428D1",
"6+	c #583975",
"7+	c #18264B",
"8+	c #C639B9",
"9+	c #B94EB5",
"0+	c #17234A",
"a+	c #96339A",
"b+	c #894F97",
"c+	c #4E4271",
"d+	c #E725C9",
"e+	c #38275F",
"f+	c #343A60",
"g+	c #E346CD",
"h+	c #5C3E79",
"i+	c #1B254D",
"j+	c #C638B8",
"k+	c #BB50B6",
"l+	c #17244A",
"m+	c #111E45",
"n+	c #AA30A6",
"o+	c #F924D4",
"p+	c #874C95",
"q+	c #5C3677",
"r+	c #B635AE",
"s+	c #3B2861",
"t+	c #353B60",
"u+	c #E447CD",
"v+	c #F42BD2",
"w+	c #64437E",
"x+	c #1D254E",
"y+	c #C338B7",
"z+	c #BD51B7",
"A+	c #19264C",
"B+	c #AE33A9",
"C+	c #834792",
"D+	c #0D1B42",
"E+	c #1A274C",
"F+	c #E046CB",
"G+	c #F52CD3",
"H+	c #694883",
"I+	c #1E264F",
"J+	c #C138B6",
"K+	c #BF54B9",
"L+	c #1A274D",
"M+	c #142048",
"N+	c #B037AB",
"O+	c #F824D3",
"P+	c #804590",
"Q+	c #243154",
"R+	c #F028CF",
"S+	c #F62DD4",
"T+	c #6F4E87",
"U+	c #C037B5",
"V+	c #C357BC",
"W+	c #1B284D",
"X+	c #172149",
"Y+	c #B33AAD",
"Z+	c #7D438E",
"`+	c #65407E",
" @	c #CF2DBC",
".@	c #C037B4",
"+@	c #C843BC",
"@@	c #1C284E",
"#@	c #18224B",
"$@	c #B73EB0",
"%@	c #F823D3",
"&@	c #7B428C",
"*@	c #BA3DB2",
"=@	c #CB27B8",
"-@	c #1E224E",
";@	c #19244B",
">@	c #BB41B4",
",@	c #F921D3",
"'@	c #77408A",
")@	c #E740CE",
"!@	c #CD26B9",
"~@	c #20204F",
"{@	c #1A254C",
"]@	c #C044B7",
"^@	c #F821D3",
"/@	c #743E87",
"(@	c #643E7E",
"_@	c #F139D3",
":@	c #CB3BBC",
"<@	c #212150",
"[@	c #572070",
"}@	c #581B70",
"|@	c #571A6F",
"1@	c #571C70",
"2@	c #553273",
"3@	c #573E76",
"4@	c #D54CC5",
"5@	c #723A86",
"6@	c #142248",
"7@	c #253155",
"8@	c #D74EC7",
"9@	c #F721D2",
"0@	c #703683",
"a@	c #292C57",
"b@	c #D930C3",
"c@	c #F622D1",
"d@	c #6D3381",
"e@	c #2D2257",
"f@	c #DA24C1",
"g@	c #F521D1",
"h@	c #6B317F",
"i@	c #2F2359",
"j@	c #682F7E",
"k@	c #0B1940",
"l@	c #31255A",
"m@	c #DC26C2",
"n@	c #F620D1",
"o@	c #652E7B",
"p@	c #863F93",
"q@	c #B842B1",
"r@	c #5E467B",
"s@	c #DE27C4",
"t@	c #F720D2",
"u@	c #612C79",
"v@	c #8F4199",
"w@	c #E334CA",
"x@	c #4C386E",
"y@	c #E128C6",
"z@	c #F61FD1",
"A@	c #5F2A77",
"B@	c #0C1A42",
"C@	c #93449B",
"D@	c #683F80",
"E@	c #322A5C",
"F@	c #E329C7",
"G@	c #5F2877",
"H@	c #BE26B0",
"I@	c #181E4A",
"J@	c #342C5D",
"K@	c #E42BC8",
"L@	c #F424D1",
"M@	c #5D3478",
"N@	c #0F1D44",
"O@	c #94439C",
"P@	c #C12AB3",
"Q@	c #1C204C",
"R@	c #382E60",
"S@	c #E42CC8",
"T@	c #F230D2",
"U@	c #5A4779",
"V@	c #101D44",
"W@	c #95449D",
"X@	c #C42DB6",
"Y@	c #3C3063",
"Z@	c #E42DC9",
"`@	c #F039D2",
" #	c #574978",
".#	c #97459E",
"+#	c #F921D4",
"@#	c #C931B9",
"##	c #212550",
"$#	c #3F3265",
"%#	c #E52FCA",
"&#	c #F038D2",
"*#	c #544675",
"=#	c #202D51",
"-#	c #9A48A1",
";#	c #FA21D4",
">#	c #CF35BD",
",#	c #222751",
"'#	c #423467",
")#	c #E730CB",
"!#	c #EE35D0",
"~#	c #372D5F",
"{#	c #3D3464",
"]#	c #7E448F",
"^#	c #C13AB6",
"/#	c #EF24CE",
"(#	c #D538C1",
"_#	c #232A52",
":#	c #433768",
"<#	c #E931CD",
"[#	c #CA4BBE",
"}#	c #142148",
"|#	c #D33BC1",
"1#	c #F822D3",
"2#	c #D83CC4",
"3#	c #262C55",
"4#	c #44396A",
"5#	c #ED32CF",
"6#	c #FB21D4",
"7#	c #423668",
"8#	c #6A4683",
"9#	c #FB22D4",
"0#	c #EA32CD",
"a#	c #453B6A",
"b#	c #ED33D0",
"c#	c #7C3D8C",
"d#	c #132147",
"e#	c #D43EC2",
"f#	c #B241AE",
"g#	c #473E6C",
"h#	c #EF35D1",
"i#	c #8A4A97",
"j#	c #613F7C",
"k#	c #723885",
"l#	c #4C4070",
"m#	c #EE36D0",
"n#	c #723384",
"o#	c #121F46",
"p#	c #CC39BC",
"q#	c #34295D",
"r#	c #504372",
"s#	c #EE37D1",
"t#	c #FA28D5",
"u#	c #34325E",
"v#	c #573574",
"w#	c #F922D4",
"x#	c #D837C3",
"y#	c #534575",
"z#	c #EF38D1",
"A#	c #BB4DB6",
"B#	c #C436B7",
"C#	c #E735CC",
"D#	c #6D4484",
"E#	c #564877",
"F#	c #EB32CE",
"G#	c #32315D",
"H#	c #4F2C6D",
"I#	c #FA20D3",
"J#	c #EC28CD",
"K#	c #873091",
"L#	c #202650",
"M#	c #554876",
"N#	c #EB33CE",
"O#	c #4C286B",
"P#	c #BE33B2",
"Q#	c #F12BD0",
"R#	c #8B2E92",
"S#	c #342A5D",
"T#	c #BC46B5",
"U#	c #B74AB3",
"V#	c #31315D",
"W#	c #463D6B",
"X#	c #FB22D5",
"Y#	c #EE2BCF",
"Z#	c #903396",
"`#	c #1F2950",
" $	c #344061",
".$	c #6E3081",
"+$	c #7F3F8E",
"@$	c #692C7E",
"#$	c #2F2E5B",
"$$	c #92459B",
"%$	c #ED2BCE",
"&$	c #933999",
"*$	c #252A54",
"=$	c #1C254D",
"-$	c #813C8F",
";$	c #2A2B57",
". . . . . . . . . . . . . . . . . . . . . . . . . . . . . . . . . . . . . . . . . . . . . . . . . . . . . . . . . . . . . . . . ",
". . . . . . . . . . . . . . . . . . . . . . . . . . . . . . . . . . . . . . . . . . . . . . . . . . . . . . . . . . . . . . . . ",
". . . . . . . . . . . . . . . . . . . . . . . . . . . . . . . . . . . . . . . . . . . . . . . . . . . . . . . . . . . . . . . . ",
". . . . . . . . . . . . . . . . . . . . . . . . . . . . . . . . . . . . . . . . . . . . . . . . . . . . . . . . . . . . . . . . ",
". . . . . . . . . . . . . . . . . . . . . . . . . . . . . . . . . . . . . . . . . . . . . . . . . . . . . . . . . . . . . . . . ",
". . . . . . . . . . . . . + @ # $ % & * = - - ; > , . . . . . . . . . . . . . . . . . . . . . . . . . . . . . . . . . . . . . . ",
". . . . . . . . . . . . . ' ) ! ! ! ! ! ! ! ! ! ! ~ { . . . . . . . . . . . . . . . . . . . . . . . . . . . . . . . . . . . . . ",
". . . . . . . . . . . . . . ] ^ ! ! ! ! ! ! ! ! ! ! / ( . . . . . . . . . . . . . . . . . . . . . . . . . . . . . . . . . . . . ",
". . . . . . . . . . . . . . . _ : ! ! ! ! ! ! ! ! ! ! < [ . . . . . . . . . . . . . . . . . . . . } | 1 2 3 4 . . . . . . . . . ",
". . . . . . . . . . . . . . . . 5 6 ! ! ! ! ! ! ! ! ! ! 7 ] . . . . . . . . . . . . . . . . . . 8 9 ! ! ! ! 0 a b . . . . . . . ",
". . . . . . . . . . . . . . . . . c d ! ! ! ! ! ! ! ! ! ! e f . . . . . . . . . . . . . . . . g h ! ! ! ! ! ! ! i _ . . . . . . ",
". . . . . . . . . . . . . . . . . . j k ! ! ! ! ! ! ! ! ! ! l m . . . . . . . . . . . . . . n o ! ! ! ! ! ! ! ! p q r . . . . . ",
". . . . . . . . . . . . . . . . . . . s t ! ! ! ! ! ! ! ! ! ! u b . . . . . . . . . . . . v w ! ! ! x y ! ! ! ! ! z A . . . . . ",
". . . . . . B C . . . . . . . . . . . . D E ! ! ! ! ! ! ! ! ! ! F . . . . . . . . . . . G H ! ! ! I J K ! ! ! ! ! ! L M . . . . ",
". . . . . . N O r . . . . . . . . . . . . P Q ! ! ! ! ! ! ! ! ! R . . . . . . . . . . S T ! ! ! U V W X ! ! ! ! ! ! Y Z . . . . ",
". . . . . . `  ...r . . . . . . . . . . . . +.! ! ! ! ! ! ! ! ! R . . . . . . . . . @.#.! ! ! $.%.V &.! ! *.=.! ! ! ! -.. . . . ",
". . . . . . ;.!  .>.C . . . . . . . . . . . +.! ! ! ! ! ! ! ! ! ,.. . . . . . . . '.).! ! ! !.~.{.].! ! ^.g /.(.! ! _.:.. . . . ",
". . . . . . <.! ! [.}.|.. . . . . . . . . r +.! ! ! ! ! ! ! ! ! 1.. . . . . . . 2.3.! ! ! 4.5.6.7.! ! 8.9.0.a.! ! p b.c.. . . . ",
". . . . . . <.! ! ! d.e.b . . . . . . . . f.g.! ! ! ! ! ! ! ! ! h.. . . . . . i.j.! ! ! k.l.m.n.! ! o.p.q.r.! ! s.t.{ . . . . . ",
". . . . . . u.! ! ! ! d.e.b . . . . . . v.w.! ! ! ! ! ! ! ! ! ! h.. . . . . x.y.! ! ! z.A.2.B.! ! C.D.q.E.! ! ! F., . . . . . . ",
". . . . . . u.! ! ! ! ! d.e.|.. . . . G.H.! ! ! ! ! ! ! ! ! ! ! h.. . . . x.I.! ! ! J.K.@.L.! ! M.N.O.E.! ! ! P., . . . . . . . ",
". . . . . . Q.! ! ! ! ! ! d.R.S.T.U.V.W.! ! ! ! ! ! ! ! ! ! ! ! X.. . . Y.Z.! ! ! `. +.+++! ! @+#+$+%+! ! ! &+*+. . . . . . . . ",
". . . . . . =+! ! ! ! ! ! ! [.-+;+>+,+! ! ! ! ! ! ! ! ! ! ! ! ! '+r . )+!+! ! ! ~+ +{+]+! ! ^+/+(+_+! ! ! :+<+. . . . . . . . . ",
". . . . . . =+! ! ! ! ! ! ! ! ! ! ! ! ! ! ! ! ! ! ! ! ! ! ! ! ! [+}+r |+! ! ! 1+2+3+4+! ! 5+6+7+8+! ! ! 9+0+. . . . . . . . . . ",
". . . . . . a+! ! ! ! ! ! ! ! ! ! ! ! ! ! ! ! ! ! ! ! ! ! ! ! ! ! [.b+c+,+! d+e+f+g+! ! Y h+i+j+! ! s.k+l+. . . . . . . . . . . ",
". . . . . . m+n+! ! ! ! ! ! ! ! ! ! ! ! ! ! ! ! ! ! ! ! ! ! ! ! ! ! o+p+q+r+s+t+u+! ! v+w+x+y+! ! s.z+A+. . . . . . . . . . . . ",
". . . . . . . ( B+! ! ! ! ! ! ! ! ! ! ! ! ! ! ! ! ! ! ! ! ! ! ! ! ! ! o+C+D+E+F+! ! G+H+I+J+! ! s.K+L+. . . . . . . . . . . . . ",
". . . . . . . . M+N+! ! ! ! ! ! ! ! ! ! ! ! ! ! ! ! ! ! ! ! ! ! ! ! ! ! O+P+Q+R+! S+T+O.U+! ! ! V+W+. . . . . . . . . . . . . . ",
". . . . . . . . . X+Y+! ! ! ! ! ! ! ! ! ! ! ! ! ! ! ! ! ! ! ! ! ! ! ! ! ! O+Z+`+ @T+I+.@! ! ! +@@@. . . . . . . . . . . . . . . ",
". . . . . . . . . . #@$@! ! ! ! ! ! ! ! ! ! ! ! ! ! ! ! ! ! ! ! ! ! ! ! ! ! %@&@|._ *@! ! ! =@-@. . . . . . . . . . . . . . . . ",
". . . . . . . . . . . ;@>@! ! ! ! ! ! ! ! ! ! ! ! ! ! ! ! ! ! ! ! ! ! ! ! ! ! ,@'@l+)@! ! !@~@. . . . . . . . . . . . . . . . . ",
". . . . . . . . . . . . {@]@! ! ! ! ! ! ! ! ! ! ! ! ! ! ! ! ! ! ! ! ! ! ! ! ! ! ^@/@(@_@:@<@. . . . . . . . . . . . . . . . . . ",
". . . . . . . . . . . . . A+[@}@|@|@|@|@1@2@3@4@! ! ! ! ! ! ! ! ! ! ! ! ! ! ! ! ! ^@5@6@|.. . . . . . . . . . . . . . . . . . . ",
". . . . . . . . . . . . . . . . . . . . . . . 7@8@! ! ! ! ! ! ! ! ! ! ! ! ! ! ! ! ! 9@0@r . . . . . . . . . . . . . . . . . . . ",
". . . . . . . . . . . . . . . . . . . . . . . . a@b@! ! ! ! ! ! ! ! ! ! ! ! ! ! ! ! ! c@d@r . . . . . . . . . . . . . . . . . . ",
". . . . . . . . . . . . . . . . . . . . . . . . . e@f@! ! ! ! ! ! ! ! ! ! ! ! ! ! ! ! ! g@h@r . . . . . . . . . . . . . . . . . ",
". . . . . . . . . . . . . . . . . . . . . . . . . . i@f@! ! ! ! ! ! ! ! ! ! ! ! ! ! ! ! ! g@j@k@. . . . . . . . . . . . . . . . ",
". . . . . . . . . . . . . . . . . . . . . . . . . . . l@m@! ! ! ! ! ! ! ! ! ! ! ! ! ! ! ! ! n@o@. . . . . . . . . . . . . . . . ",
". . . . . . . . . . . . . . . . . . . . . . . . . D+p@q@r@s@! ! ! ! ! ! ! ! ! ! ! ! ! ! ! ! ! t@u@. . . . . . . . . . . . . . . ",
". . . . . . . . . . . . . . . . . . . . . . . . M v@p ! w@x@y@! ! ! ! ! ! ! ! ! ! ! ! ! ! ! ! ! z@A@. . . . . . . . . . . . . . ",
". . . . . . . . . . . . . . . . . . . . . . . B@C@! ! ! ! D@E@F@! ! ! ! ! ! ! ! ! ! ! ! ! ! ! ! ! z@G@. . . . . . . . . . . . . ",
". . . . . . . . . . . . . . . . . . . . . . |.C@! ! ! ! H@I@. J@K@! ! ! ! ! ! ! ! ! ! ! ! ! ! ! ! ! L@M@k@. . . . . . . . . . . ",
". . . . . . . . . . . . . . . . . . . . . N@O@p ! ! ! P@Q@. . . R@S@! ! ! ! ! ! ! ! ! ! ! ! ! ! ! ! ! T@U@c.. . . . . . . . . . ",
". . . . . . . . . . . . . . . . . . . . V@W@ .! ! ! X@-@. . . . . Y@Z@! ! ! ! ! ! ! ! ! ! ! ! ! ! ! ! ! `@ #. . . . . . . . . . ",
". . . . . . . . . . . . . . . . . . . _ .#+#! ! ! @###. . . . . . . $#%#! ! ! ! ! ! ! ! ! ! ! ! ! ! ! ! ! &#*#. . . . . . . . . ",
". . . . . . . . . . . . . . . . . . =#-#;#! ! ! >#,#. . . . . . . . . '#)#! ! ! ! ! ! ! ! ! ! ! ! ! ! ! ! ! !#~#. . . . . . . . ",
". . . . . . . . . . . . . . b {#]#^#/#;#! ! ! (#_#. . . . . . . . . . . :#<#! ! ! ! ! ! ! ! ! ! ! ! ! ! ! ! ! [#k@. . . . . . . ",
". . . . . . . . . . . . . }#|#1#! ! ! ! ! ! 2#3#. . . . . . . . . . . . . 4#5#! ! ! ! ! ! ! ! ! ! ! ! ! ! ! ! 6#7#. . . . . . . ",
". . . . . . . . . . . . . 8#9#! ! ! ! ! ! 0#6.. . . . . . . . . . . . . . . a#b#! ! ! ! ! ! ! ! ! ! ! ! ! ! ! ! c#. . . . . . . ",
". . . . . . . . . . . . d#e#! ! ! ! ! ! ! f#r . . . . . . . . . . . . . . . . g#h#! ! ! ! ! ! ! ! ! ! ! ! ! ! ! i#. . . . . . . ",
". . . . . . . . . . . . j#[+! ! ! ! ! ! ! k#. . . . . . . . . . . . . . . . . . l#m#! ! ! ! ! ! ! ! ! ! ! ! ! ! n#. . . . . . . ",
". . . . . . . . . . . o#p#! ! ! ! ! ! ! d.q#. . . . . . . . . . . . . . . . . . . r#s#! ! ! ! ! ! ! ! ! ! ! ! t#u#. . . . . . . ",
". . . . . . . . . . . v#w#! ! ! ! ! ! ! x#, . . . . . . . . . . . . . . . . . . . . y#z#! ! ! ! ! ! ! ! ! ! ! A#. . . . . . . . ",
". . . . . . . . . . V@B#! ! ! ! ! ! ! C#D#. . . . . . . . . . . . . . . . . . . . . . E#`@! ! ! ! ! ! ! ! ! F#G#. . . . . . . . ",
". . . . . . . . . . H#I#! ! ! ! ! J#K#L#. . . . . . . . . . . . . . . . . . . . . . . . M#N#! ! ! ! ! ! ! F#O#. . . . . . . . . ",
". . . . . . . . . |.P#! ! ! ! Q#R#q.. . . . . . . . . . . . . . . . . . . . . . . . . . . S#T# .! ! ! t#U#V#. . . . . . . . . . ",
". . . . . . . . . W#X#! ! Y#Z#`#. . . . . . . . . . . . . . . . . . . . . . . . . . . . . . .  $.$+$@$#$. . . . . . . . . . . . ",
". . . . . . . . . $$! %$&$*$. . . . . . . . . . . . . . . . . . . . . . . . . . . . . . . . . . . . . . . . . . . . . . . . . . ",
". . . . . . . . . =$-$;$. . . . . . . . . . . . . . . . . . . . . . . . . . . . . . . . . . . . . . . . . . . . . . . . . . . . ",
". . . . . . . . . . . . . . . . . . . . . . . . . . . . . . . . . . . . . . . . . . . . . . . . . . . . . . . . . . . . . . . . ",
". . . . . . . . . . . . . . . . . . . . . . . . . . . . . . . . . . . . . . . . . . . . . . . . . . . . . . . . . . . . . . . . ",
". . . . . . . . . . . . . . . . . . . . . . . . . . . . . . . . . . . . . . . . . . . . . . . . . . . . . . . . . . . . . . . . ",
". . . . . . . . . . . . . . . . . . . . . . . . . . . . . . . . . . . . . . . . . . . . . . . . . . . . . . . . . . . . . . . . ",
". . . . . . . . . . . . . . . . . . . . . . . . . . . . . . . . . . . . . . . . . . . . . . . . . . . . . . . . . . . . . . . . "};
