/* XPM */
static char *edit[] = {
/* columns rows colors chars-per-pixel */
"48 48 256 2",
"   c #330909",
".  c #21321C",
"X  c #222D21",
"o  c #312E33",
"O  c #35342A",
"+  c #323431",
"@  c #3A3A3A",
"#  c #31302A",
"$  c #3B453A",
"%  c #2E492E",
"&  c #2B6C2D",
"*  c #3A6F33",
"=  c #3F5141",
"-  c #4F0E0A",
";  c #462318",
":  c #453C3A",
">  c #552224",
",  c #5E3D36",
"<  c #58332D",
"1  c #6A150B",
"2  c #673009",
"3  c #6A2C2A",
"4  c #504718",
"5  c #484E38",
"6  c #424343",
"7  c #4B4946",
"8  c #484848",
"9  c #4D544C",
"0  c #475A47",
"q  c #504B47",
"w  c #525A4B",
"e  c #565855",
"r  c #4F5052",
"t  c #5E5D60",
"y  c #4F6651",
"u  c #5A655A",
"i  c #537452",
"p  c #5D6160",
"a  c #73514D",
"s  c #645E63",
"d  c #646559",
"f  c #757452",
"g  c #6C6B6B",
"h  c #656863",
"j  c #746D72",
"k  c #797B76",
"l  c #6C756C",
"z  c #099908",
"x  c #179817",
"c  c #1CA519",
"v  c #259B24",
"b  c #389B34",
"n  c #22A81E",
"m  c #27A627",
"M  c #37A93A",
"N  c #3DB13D",
"B  c #34B332",
"V  c #32A62E",
"C  c #3BA841",
"Z  c #3EB048",
"A  c #40AA3D",
"S  c #449C45",
"D  c #4D8E50",
"F  c #48AB47",
"G  c #49B54A",
"H  c #53AA54",
"J  c #58B359",
"K  c #4BAA50",
"L  c #698866",
"P  c #788977",
"I  c #739673",
"U  c #64BF5E",
"Y  c #61B362",
"T  c #6CBF6B",
"R  c #76BB79",
"E  c #74AA70",
"W  c #5EC35A",
"Q  c #72CA71",
"!  c #7F8D81",
"~  c #7ECF83",
"^  c #813C3C",
"/  c #B02C32",
"(  c #9F5A27",
")  c #A46421",
"_  c #84520E",
"`  c #90484B",
"'  c #917251",
"]  c #937C69",
"[  c #A74B4A",
"{  c #BF5854",
"}  c #C03835",
"|  c #EB2A2A",
" . c #ED2E36",
".. c #E63637",
"X. c #F63739",
"o. c #F42B2F",
"O. c #F23E43",
"+. c #F5403E",
"@. c #C57716",
"#. c #D9575A",
"$. c #E94B49",
"%. c #EA5457",
"&. c #F34443",
"*. c #F34C4A",
"=. c #F94848",
"-. c #F65859",
";. c #F54C52",
":. c #EA5D61",
">. c #F6615B",
",. c #EA6765",
"<. c #F36568",
"1. c #FA716B",
"2. c #F57475",
"3. c #D86F71",
"4. c #837C82",
"5. c #9E894C",
"6. c #838B6E",
"7. c #82B17B",
"8. c #A0975C",
"9. c #B09777",
"0. c #DB962A",
"q. c #D5AF36",
"w. c #FBB909",
"e. c #F8B51B",
"r. c #F7BE33",
"t. c #DCBC4B",
"y. c #D3A949",
"u. c #CCBD78",
"i. c #F3807E",
"p. c #E8B565",
"a. c #FBC807",
"s. c #FDC514",
"d. c #FBCD1A",
"f. c #F9C715",
"g. c #FCD017",
"h. c #E9CA37",
"j. c #FDC629",
"k. c #FBC837",
"l. c #FCD42B",
"z. c #FCD338",
"x. c #D0C07B",
"c. c #FAD747",
"v. c #F1CC50",
"b. c #F6D964",
"n. c #FFE150",
"m. c #FCE67C",
"M. c #868986",
"N. c #859685",
"B. c #999898",
"V. c #91918B",
"C. c #86A688",
"Z. c #95AB95",
"A. c #8CB78D",
"S. c #B38C89",
"D. c #A3A39B",
"F. c #A8B491",
"G. c #ADADAD",
"H. c #A6A7A7",
"J. c #AEADB6",
"K. c #AAB0A8",
"L. c #BAB3AE",
"P. c #B6B9B5",
"I. c #B1ABAD",
"U. c #BDBBC1",
"Y. c #8AD68A",
"T. c #94D194",
"R. c #93E594",
"E. c #A6C99C",
"W. c #A4C8A6",
"Q. c #A8D0A5",
"!. c #BAC3B9",
"~. c #B3D7B2",
"^. c #BCEABD",
"/. c #BECDC5",
"(. c #BFE3C3",
"). c #C5BCB7",
"_. c #CCADA9",
"`. c #E9918C",
"'. c #F78A89",
"]. c #F89698",
"[. c #F49AA2",
"{. c #F9A39F",
"}. c #EBA7A7",
"|. c #EBB1B3",
" X c #FCACAC",
".X c #F6A5A5",
"XX c #F7AEB1",
"oX c #F8B6B6",
"OX c #FEB1A7",
"+X c #CABB8F",
"@X c #C0BBC2",
"#X c #FDBDC1",
"$X c #C4D1B5",
"%X c #C0FCBD",
"&X c #EAD99B",
"*X c #F9C0BA",
"=X c #F8E69A",
"-X c #FCEFAB",
";X c #CBCBCA",
":X c #C2C1C1",
">X c #CECDD1",
",X c #C8D3CA",
"<X c #D1D2D2",
"1X c #D3DAD4",
"2X c #D8D7D7",
"3X c #D2CECF",
"4X c #C5E7C8",
"5X c #C4FCC4",
"6X c #CAF5CC",
"7X c #CAFBCB",
"8X c #C7FAC5",
"9X c #CDF7D2",
"0X c #D0E8CE",
"qX c #D3FCD4",
"wX c #DBF3DB",
"eX c #DCFDDE",
"rX c #D7FAD7",
"tX c #D5EFD2",
"yX c #DCFDE2",
"uX c #DEE6E2",
"iX c #E1D8D7",
"pX c #FCC4C3",
"aX c #FDC5CA",
"sX c #FCCACA",
"dX c #FBC7C4",
"fX c #FED1CD",
"gX c #FDD3D2",
"hX c #FCD9D7",
"jX c #FEDBDB",
"kX c #F7DBDA",
"lX c #E9D6C5",
"zX c #FFDCE1",
"xX c #E7E3DC",
"cX c #E2FADE",
"vX c #FCE1DC",
"bX c #FAF7D2",
"nX c #EBEDEB",
"mX c #E5E6E5",
"MX c #E4FCE4",
"NX c #EAF6E8",
"BX c #FDE3E2",
"VX c #FEE9E5",
"CX c #FFECEB",
"ZX c #F9E6E5",
"AX c #FFECF1",
"SX c #F2EEF0",
"DX c #FFF1EC",
"FX c #FBFCE8",
"GX c #F3F3F2",
"HX c #F4FBF4",
"JX c #FEF4F3",
"KX c #FDF6FC",
"LX c #FEF9F5",
"PX c #FEFEFE",
"IX c #F2F8FB",
"UX c #EDEFF1",
/* pixels */
"PXPXPXPXPXPXPXPXPXPXPXPXPXPXPXPXPXPXPXPXPXPXPXPXPXPXPXPXPXPXPXPXPXPXPXIXuXGXPXPXPXPXPXPXPXPXPXPX",
"PXPXPXPXPXPXPXPXPXPXPXPXPXPXPXPXPXPXPXPXPXPXPXPXPXPXPXPXPXLXPXLXIXmXP.V.B.D.I.:XnXPXPXPXPXPXPXPX",
"PXPXPXPXPXPXPXPXPXPXPXPXPXPXPXPXPXPXPXPXPXPXPXPXPXPXPXPXPXPXLXIX2XU.I.3XnXHXHXUX2X>XUXPXPXPXPXPX",
"PXPXPXPXPXPXPXPXPXPXPXPXPXPXPXPXPXPXPXPXPXPXPXPXPXPXPXPXPXPXUXP.G.1XNXyXHXnXUXPXPX@XP.PXPXPXPXPX",
"PXPXPXPXPXPXPXPXPXPXPXPXPXPXPXPXPXPXPXPXPXPXPXPXPXPXPXKXGXP.P V.1XrX5X9X,XP.nXPXPX;XG.PXIXPXPXPX",
"PXPXPXPXPXPXPXPXPXPXPXPXPXPXPXPXPXPXPXPXPXPXPXPXIXPXPX>Xk r M.nXwX6X6XW.Z.Q.R 0XKXG.H.PXPXPXPXPX",
"PXPXPXPXPXPXPXPXPXPXPXPXPXPXPXPXPXPXPXPXPXPXPXPXPXGXB.= $ P.MXyX9X4XZ.F.T.F Q NXmXI.>XPXPXPXPXPX",
"PXPXPXPXPXPXPXPXPXPXPXPXPXPXPXPXPXPXPXPXPXPXPXPX2Xg o r ,XHXNXwX!.P.~.~ b H rXIX;XP.GXPXPXPXPXPX",
"PXPXPXPXPXPXPXPXPXPXPXPXPXPXPXPXPXPXPXPXPXPXSXH.e @ P uXeXwX!.M.B.(.Y.c n K 0X2XH.xXPXPXPXPXPXPX",
"PXPXPXPXPXPXPXPXPXPXPXPXPXPXPXPXPXPXLXPXPX>Xt 6 s $XeXqX(.l 8 P ~.Y.M c x R (.k G.IXPXPXPXPXPXPX",
"PXPXPXPXPXPXPXPXPXPXPXPXPXPXPXPXPXPXPXnXB.8 6 V.nXMX7XQ.9 @ C.T.J v z c Y W.p k SXPXPXPXPXPXPXPX",
"PXPXPXPXPXPXPXPXPXPXPXPXPXPXPXPXPXIX!.p u M.;XNXMX4XW.$ w E J C m z x J W.9 u 2XPXPXPXPXPXPXPXPX",
"PXPXPXPXPXPXPXPXPXLXPXPXPXPXPXKXnX6.e Z.(.eXMXeX6XN.= P R F V n z z H W.= 8 >XPXPXPXPXPXPXPXPXPX",
"PXPXPXPXPXPXPXPXPXPXPXPXPXPXPXxXe y ~.6XyXyXqX6X! 5 C.R Z B c z z F Q.e o G.PXPXPXPXPXPXPXPXPXPX",
"PXPXPXPXPXPXPXPXPXPXPXPXPXPX<Xu I 4X9X9XrXqX6XI y A.Y M G m z x K E.u 8 H.KXLXPXPXPXPXPXPXPXPXPX",
"PXPXPXPXPXPXPXPXPXPXPXPXPXmXP E ^.5X5X5XqX4Xl $ E Y W Q m z x F A.8 = G.KXPXPXPXPXPXPXPXPXPXPXPX",
"PXPXPXPXPXPXPXPXPXPXPXPXHXC.W.^.8X%X5XrXwXd X L K H Y.A z z F A.9 r P.HXPXPXPXPXPXPXPXPXPXPXPXPX",
"PXPXPXPXPXPXPXPXLXIXPXIXK.Z.~.7X5X%XrXNXk # i M G R.J x c C E 0 h ;XIXPXPXPXPXPXPXPXPXPXPXPXPXPX",
"PXPXPXPXPXPXPXPXPXPXKXU.L C.7X5X5XeXNXB.. b b F R.Y.x x J L @ s >XPXPXPXPXPXPXPXPXPXPXPXPXPXPXPX",
"PXPXPXPXPXPXPXPXPXPX$XP 6.%X5X5XyXHXH.% & V A ~ Q v x T l X d 2XPXPXPXPXPXPXPXPXPXPXPXPXPXPXPXPX",
"PXPXPXPXPXPXPXPXPX;X5 d 0XtX6XcXIX,X5 & M B A G V x J y # k mXHXPXPXPXPXPXPXPXPXPXPXPXPXPXPXPXPX",
"PXPXPXPXPXPXPXPXmXg h ,XyXwXNXPX1X9 $ b N Z A B c H 0 + Z.UXPXPXPXPXPXPXPXPXPXPXPXPXPXPXPXPXPXPX",
"PXPXPXPXPXPXPXPX3X! g h 6.! ,XmXl 0 E U N A G b H = + J.IXPXPXPXPXPXPXPXPXPXPXPXPXPXPXPXPXPXPXPX",
"PXPXPXPXPXPXPXKXD.+ + k 6.k S.S.` S.$XE.E Q A H $ e ;XKXPXPXLXPXPXPXPXPXPXPXPXPXPXPXPXPXPXPXPXPX",
"PXPXPXPXPXPXPX;X9 f u.=X=Xp.( [ ` > ; 5 ] F.6.% p 1XHXPXPXPXLXPXPXPXPXPXPXPXPXPXPXPXPXPXPXPXPXPX",
"PXPXPXPXPXPXmXh D.=Xc.c.j.e.0.1 - 2 _ 2 - a < a 2XPXPXPXPXPXPXPXPXPXPXPXPXPXPXPXPXPXPXPXPXPXPXPX",
"PXPXPXPXPXPX@X; x.m.n.z.f.s.r.y.t.k.j.q.; > ` `.oXvXPXPXPXPXPXPXPXPXPXPXPXPXPXPXPXPXPXPXPXvXVXjX",
"PXPXPXPXPXPXB.4 t.c.z.l.f.a.s.z.l.g.g.t.' _.}.`.[.dXhXDXPXPXPXPXPXPXPXPXPXPXPXPXPXPXIXPXgX].].XX",
"PXPXPXPXLXIXj 4 h.d.g.g.a.a.a.a.s.f.q.5.).GXLXfX[.XXdXhXBXJXPXPXPXPXPXPXPXPXPXPXPXPXPXzX'.1.%.pX",
"PXPXPXPXPXPXh 4 h.g.f.g.w.w.a.a.g.v.8.V.mXPXLXPXCXdX}.XXdXfXvXJXPXPXPXPXPXPXPXPXLXPXLXXX1.>.%.vX",
"PXPXPXPXPXHXr 5 v.z.c.c.j.w.a.w.v.+XL.FXPXLXPXLXHXLXjX|.}.oXsXhXjXBXAXAXIXLXIXLXPXPXVXoX'.:.OXJX",
"PXPXPXPXPXHX7 a =X-X-Xn.j.d.e.@.' L.UXPXPXLXPXPXPXPXPXAXgXoX}.XXdXhXhXkXvXvXBXvXVXhXfXoX.X[.CXPX",
"PXPXPXPXPXGXs g bXbXbXb.l.c.) 1 3 fXLXPXIXPXPXIXPXPXPXPXPXAXBXaX|.oXdXsXsXgXjXjXgX#XXX|.aXAXPXIX",
"PXLXAXLXPXUXe h HXLX-X=X=X9.; - / '.DXPXLXPXPXPXPXPXPXPXPXPXPXPXAXZXzXkXsX|.}.}.}.#XaXkXKXPXPXPX",
"JXdX`.fXPXUX7 g IXDX=X&X] @ a #. .O.].CXPXLXPXPXPXPXPXPXPXPXPXPXLXPXPXPXJXJXAXvXCXCXLXLXPXPXPXPX",
"DX#. .:.zXmX: : M.xXlXd 8 V.xXdX-.X.;.`.vXJXPXPXPXPXPXPXPXPXPXPXPXPXPXPXPXPXPXPXPXPXPXPXPXPXPXPX",
"JX].| o.2.fX: o q M.q o B.HXIXPXpX2.;.+.,.#XKXPXPXPXPXPXPXPXPXPXPXPXPXPXPXPXPXPXPXPXPXPXPXPXPXPX",
"PXCX2.| X.3.#   ] 7 + J.IXIXLXPXPXjX'.-.;.1.XXJXPXPXPXPXPXPXPXPXPXPXPXPXPXPXPXPXPXPXPXPXPXPXPXPX",
"PXKXvX1.| /   - 3 7 P.PXPXPXPXPXPXPXCX X<.*.<.#XPXPXPXPXPXPXPXPXPXPXPXPXPXPXPXIXIXPXPXLXPXPXPXPX",
"PXPXPXvX2./ - - > @XPXLXLXIXPXPXPXPXPXLXdX<.-.,.BXPXPXPXPXPXPXPXPXPXPXPXPXPXPXPXPXPXLXPXPXPXPXPX",
"PXPXPXPXAX3 - 1 { aXLXPXPXPXIXPXPXPXPXPXKX X-.*.*XPXPXPXPXPXPXPXPXPXPXPXPXPXPXPXPXPXPXPXPXPXPXPX",
"PXPXIXPXPXP.< / ..%. XAXPXPXPXPXPXPXPXPXPXsX<.O.{.JXPXIXPXPXPXPXPXPXPXPXPXPXPXPXPXPXPXPXPXPXPXPX",
"PXPXLXPXPXPXVX}.$.O.$.'.vXLXPXPXPXPXPXIXPXzX<.;.].JXPXLXPXPXPXPXPXPXPXPXPXPXPXPXPXPXPXPXPXPXPXPX",
"PXPXPXPXPXPXPXJX#X:.X.=.,.pXJXPXPXPXPXPXPXfX<.=.].LXPXPXPXPXPXPXPXPXPXPXPXPXPXPXPXPXPXPXPXPXPXPX",
"PXPXPXPXPXPXPXPXPXjX2.O.X.$.].jXGXPXPXPXFXOX$.&.oXPXPXPXPXPXPXPXPXPXPXPXPXPXPXPXPXPXPXPXPXPXPXPX",
"PXPXPXPXPXPXPXIXPXPXJX X>.=.;.<.].pXvXAXsX,.+.,.jXPXPXPXPXPXPXPXPXPXPXPXPXPXPXPXPXPXPXPXPXPXPXPX",
"PXPXPXPXPXPXPXPXIXPXPXPXjX'.*.&.&.+.*.;.O.O.*..XJXPXPXPXPXPXPXPXPXPXPXPXPXPXPXPXPXPXPXPXPXPXPXPX",
"PXPXPXPXPXPXPXPXPXPXPXPXPXJXsX'.%...| o. .;.{.DXPXPXPXPXPXPXPXPXPXPXPXPXPXPXPXPXPXPXPXPXPXPXPXPX"
};
