/* XPM */
static char *file[] = {
/* columns rows colors chars-per-pixel */
"48 48 256 2",
"   c #2E1937",
".  c #342433",
"X  c #311515",
"o  c #372C46",
"O  c #553C38",
"+  c #623021",
"@  c #54364E",
"#  c #64356B",
"$  c #683778",
"%  c #5E3260",
"&  c #584C29",
"*  c #5A4D34",
"=  c #665739",
"-  c #6F5233",
";  c #67603C",
":  c #5B506A",
">  c #675643",
",  c #6A4E4D",
"<  c #674E76",
"1  c #6C6548",
"2  c #766857",
"3  c #797153",
"4  c #7B6B6A",
"5  c #5C0FB8",
"6  c #582593",
"7  c #640ABC",
"8  c #640AB9",
"9  c #6414BD",
"0  c #6A1BBB",
"q  c #6716B8",
"w  c #701CB6",
"e  c #6C3196",
"r  c #6924B9",
"t  c #7326B9",
"y  c #7A35BC",
"u  c #7131A8",
"i  c #4F188A",
"p  c #660BC2",
"a  c #6A0AC3",
"s  c #6608C7",
"d  c #690CD3",
"f  c #6B13C3",
"g  c #6D1AC4",
"h  c #6914C5",
"j  c #7219C8",
"k  c #7718D7",
"l  c #6E16D2",
"z  c #7E15E7",
"x  c #7223C3",
"c  c #7423CA",
"v  c #7C2CCB",
"b  c #7829C6",
"n  c #7A28D1",
"m  c #7A34C6",
"M  c #5F0CC4",
"N  c #794990",
"B  c #7D47B0",
"V  c #746384",
"C  c #7C42C3",
"Z  c #8C583F",
"A  c #867A55",
"S  c #837766",
"D  c #886E6E",
"F  c #AA526A",
"G  c #B76A72",
"H  c #A06051",
"J  c #C7706D",
"K  c #933593",
"L  c #8B3AB2",
"P  c #A03E8C",
"I  c #8719F7",
"U  c #8513F3",
"Y  c #8234CB",
"T  c #863CC9",
"R  c #8739D6",
"E  c #8B31D2",
"W  c #8726E9",
"Q  c #8C24F6",
"!  c #8C38E7",
"~  c #952BF9",
"^  c #9339E9",
"/  c #9433FB",
"(  c #9C3CFB",
")  c #9637F5",
"_  c #902FED",
"`  c #A13AFD",
"'  c #8D4C92",
"]  c #8745B7",
"[  c #9052B3",
"{  c #907293",
"}  c #966CB4",
"|  c #A85186",
" . c #AF6A8D",
".. c #A476B5",
"X. c #B06BB2",
"o. c #A84FB4",
"O. c #8C46D5",
"+. c #9348D7",
"@. c #9657D7",
"#. c #8B4CC9",
"$. c #9A44EC",
"%. c #9748E7",
"&. c #9B44F2",
"*. c #9D42FB",
"=. c #9B49F4",
"-. c #9D53EB",
";. c #9D59E4",
":. c #914AE6",
">. c #9C65C9",
",. c #9A66D6",
"<. c #A25CDD",
"1. c #A653D1",
"2. c #A243FD",
"3. c #A44AFC",
"4. c #A44AF7",
"5. c #A458E8",
"6. c #A755F6",
"7. c #AA53F5",
"8. c #A468D6",
"9. c #A877C6",
"0. c #AA7AD8",
"q. c #AD6BCD",
"w. c #A967E9",
"e. c #AC68F4",
"r. c #AB77E3",
"t. c #B36BF6",
"y. c #B478EB",
"u. c #B675F7",
"i. c #B26DE6",
"p. c #9F60E4",
"a. c #C96CAD",
"s. c #C17BF7",
"d. c #8F8355",
"f. c #8B8669",
"g. c #928973",
"h. c #949174",
"j. c #A6985B",
"k. c #B08E74",
"l. c #B4A55F",
"z. c #F8B834",
"x. c #CE8F6E",
"c. c #CEA96F",
"v. c #E3987B",
"b. c #F1B14A",
"n. c #ECB26D",
"m. c #DD8F4D",
"M. c #FDCD0A",
"N. c #FCCD13",
"B. c #FCCE1B",
"V. c #F7CE11",
"C. c #FCD00B",
"Z. c #FCD11A",
"A. c #FDD114",
"S. c #FACA29",
"D. c #FECC37",
"F. c #FDD223",
"G. c #FDD32A",
"H. c #FDD82C",
"J. c #FCD333",
"K. c #FBD43B",
"L. c #FED934",
"P. c #F9D839",
"I. c #FDDA4C",
"U. c #FBD646",
"Y. c #FBDC53",
"T. c #FBD858",
"R. c #F9C850",
"E. c #FCDE6B",
"W. c #FCD863",
"Q. c #FBDD79",
"!. c #F3C871",
"~. c #FCE16B",
"^. c #FCE272",
"/. c #FDE279",
"(. c #F9E579",
"). c #FFE14E",
"_. c #9D8E8B",
"`. c #A39988",
"'. c #A89699",
"]. c #AA91AB",
"[. c #ABA396",
"{. c #AEA995",
"}. c #BCB8A3",
"|. c #B3A6B0",
" X c #AE84D8",
".X c #B698C9",
"XX c #B18ACF",
"oX c #B786E8",
"OX c #BA85F3",
"+X c #BC94E6",
"@X c #BAA5C2",
"#X c #CE8EAF",
"$X c #D1AE8E",
"%X c #C7B9B3",
"&X c #DEAAA7",
"*X c #EDB795",
"=X c #EBB0AE",
"-X c #D79288",
";X c #C896D0",
":X c #C58BF8",
">X c #C496E5",
",X c #CB9AFA",
"<X c #C897F8",
"1X c #D69BFC",
"2X c #C98BED",
"3X c #C6A9C7",
"4X c #CAB7C3",
"5X c #CCB8D4",
"6X c #D6B9C3",
"7X c #D4ABD8",
"8X c #C7A7E9",
"9X c #CDA7F4",
"0X c #D5A8FA",
"qX c #DDB3FE",
"wX c #DAB8F8",
"eX c #D9BBED",
"rX c #E4B7FD",
"tX c #E79FC9",
"yX c #D5CA97",
"uX c #D4C9BB",
"iX c #FADA86",
"pX c #FBDB94",
"aX c #EECA98",
"sX c #FADAB6",
"dX c #EECCAB",
"fX c #FCE383",
"gX c #FBE689",
"hX c #FAE897",
"jX c #F6E999",
"kX c #FAE9A6",
"lX c #FEF3AC",
"zX c #FFF4B4",
"xX c #F4EAB8",
"cX c #D3C8C8",
"vX c #D3CACF",
"bX c #DAC8ED",
"nX c #EED5CD",
"mX c #EACBFD",
"MX c #E4C4F9",
"NX c #E9D4F7",
"BX c #F3D2FE",
"VX c #F4DAFE",
"CX c #FADBFF",
"ZX c #EDD0E8",
"AX c #F8E5D9",
"SX c #FFF4DB",
"DX c #F6ECC6",
"FX c #F7EAE8",
"GX c #FCE4FE",
"HX c #FCEBFE",
"JX c #F5E7FA",
"KX c #FEF3FE",
"LX c #FCFDF4",
"PX c #FEFEFD",
"IX c #F8F4F5",
"UX c #F4EEEC",
/* pixels */
"PXPXPXPXPXPXPXPXPXPXPXPXPXPXPXPXPXPXPXPXPXPXPXPXPXPXPXPXPXPXPXPXPXPXPXPXPXPXPXPXPXPXPXPXPXPXPXPX",
"PXPXPXPXPXPXPXPXPXPXPXPXPXPXPXPXPXPXPXPXPXPXPXPXPXPXPXPXPXPXPXPXPXPXPXPXPXPXPXPXPXPXPXPXPXPXPXPX",
"PXPXPXPXPXPXPXPXPXPXPXPXPXPXPXLXPXPXPXPXPXPXPXPXPXPXPXPXPXPXPXPXPXPXPXPXPXPXPXPXPXPXPXPXPXPXPXPX",
"PXPXPXPXPXPXPXPXPXPXPXPXPXPXPXPXPXPXPXPXPXPXPXPXPXPXPXPXPXPXPXPXPXPXPXPXPXPXPXPXPXPXPXPXPXPXPXPX",
"PXPXPXPXPXPXPXPXPXPXPXPXPXPXPXPXPXPXPXPXPXPXPXPXPXPXPXPXPXPXPXPXPXPXPXPXPXPXPXPXPXPXPXPXPXPXPXPX",
"PXPXPXPXPXPXPXPXPXPXPXLXPXPXPXPXPXPXPXPXPXPXPXPXPXPXPXPXPXPXPXPXPXPXPXPXPXPXPXPXPXPXPXPXPXPXPXPX",
"PXPXPXPXPXPXPXPXPXPXPXPXPXPXPXPXPXPXPXPXPXPXPXPXPXPXPXKXPXPXPXPXPXPXPXPXPXPXPXPXPXPXPXKXPXPXPXPX",
"PXPXPXPXPXPXPXPXKXJXHXKXKXPXPXPXPXPXPXPXPXPXPXPXPXPXPXPXPXPXKXPXKXKXKXHXKXKXKXKXPXPXPXPXPXLXPXPX",
"PXPXPXPXPXLXPXVXy.;.e.OX,X0XqXrXmXmXBXBXBXBXBXBXVXmXrX0X,X<XOXOXy.u.u.e.e.u.e.e.u.+XeX[.UXPXPXPX",
"PXPXPXPXPXPXHXu.=.&.6./ Q / ) ^ &.=.^ $.6.6.5.-.-.%.=.$.&.3.7.7.3.) / Q _ ^ ) *.( -.B O f.IXLXLX",
"PXPXPXPXPXPXqX:X1Xu.u.*.Q I I / / ~ Q W _ _ ~ ) _ ~ ) _ W W W z W Q W U k k _ ( 2.( %.# * [.PXPX",
"LXPXPXPXPXBX%.%.:Xu.<Xt.z I I ~ U k d d d d d s s s d a a h p g c c E ! k s k -.-.&.2.R # > nXPX",
"PXPXPXPXHXw.I Q 2.y.MXmX:Xs.e.:X1XO.9 s s l l j j c n v v R R R -.u.<X<X:.l +.rXBX1X7.^ ] @ f.LX",
"LXPXPXPX0X_ I ~ %.rXJXVXBXmX} ].HX+X0 7 7 p p 0 0 m R E c c j c x m  X8X@.f T oX+X0Xu.&.<.$ , uX",
"LXPXPXHX5.Q ~ &.>X_.'.HXNXJX< V JXNXy f g x c f f c E n j g 5 b +.oX X+X8.q m m r C 1X4.7.[ , `.",
"KXPXPX0X_ ~ ~ t.|.; %XIXbXJX: @ uXGX+.c b ;.R n j a 7 0 c R R @.<X+XoX Xr.m n Y x y rXe.4.+.# S ",
"PXPXPXt.~ Q $.wX3 & xXSXbXJX_.X x.X.x b #.O.h 8 7 7 7 8 7 c 0 m r.+X X0.oX#.E E x T qX:X7.$.# 2 ",
"PXPXVX-.~ ( w.5X; 3 jXgXFXNX'.. H K R <.OXR h 7 M s s j c x q m r.OXr.@.1X} ' P X.9.NX<X7.7.$ = ",
"PXPX0X^ ~ ` 1X`.* l.~.Y.AXbX@X. H P t t ,.R h 7 s c 0 9 j +.v v m t m g q.=Xm.b.*XAXFX9X$.^ $ 1 ",
"PXPX:X/ ( $.eX= ; Q.T.(.SXbXbX. + | u R -.m T #.y ;.+.h v +.+.0 q h v n [ *XS.B.W.sXDX7X7.^ e , ",
"PXPX5./ ( :.4X& 1 (.Y.(.xXZXbX. +  .;X+.j T w.+XrX8.b f c Y L t ] u ' '  .!.L.H.D.T.^.&X5.%.$ 2 ",
"PXKX7.( ( w.'.& h.hX~.gXjXnXNX: X x.FXq.Y Y #.0.+X#.y Y R ] | G G G c.b.R.K.H.F.S.G.L.v.+.^ # 2 ",
"PXHX5.( *.y.S & }.hXE.lXjXdXNXV X H xX>Xr Y b ,.0XoX8.[ ' F m.b.z.R.K.Z.S.S.P.I.N.B.G.v.^ _ # D ",
"PXCX-.( ( y.= = yXQ./.lXkXkXnX{   Z sXNX#.#.E #. X+XX. .-Xc.R.P.G.H.P.Z.F.H.U.U.M.B.D.x.^ ^ % D ",
"PXVX6.2.3.0.= 1 jXE.W.(.jXiXnX].  - dXGX<X8.w w ' =X=XsXpXhX~.L.H.G.F.F.J.U.).L.B.H.R. .^ ^ % A ",
"PXBX5.( 7.9.2 1 jXE.T.T.(.iXnX5Xo , &X9.L E x t L a.nXDXhX(.I.H.V.F.L.P.I.^.(.).F.L.R. .` ^ @ S ",
"PXBX$.( 3.q.A A iXE.I.Y.~.Q.uXMX$ @ ].#.r R ^ y L  .dXzX(.P.L.L.L.H.G.H.Y.hXgXP.F.L.b.o.) T @ S ",
"LXVX$.~ ` } A A gX~.I.I.~.iXnXeX<    .;X8.T L P J v.!.I.U.P.H.H.G.Z.Z.U.Q.DXlXH.G.U.b.1.( L O f.",
"PXCX^ Q ( } , d.(.T.Y.~.Q.iX6X0XN   D #XX.F J m.b.D.G.L.L.J.B.A.J.U.I./.lXSXlXU.I.T.-XE / y , [.",
"PXCX^ Q _ N > j.(.Y.Y.(.gXiX6X<XN o _.&X*Xn.z.D.H.H.H.Z.V.V.Z.H.Y.fXfX!.n.aXDX/.gXpXa.~ ( B , }.",
"PXGX$.~ ^ N > j.~.I.Y./.iXiX%X:XN . [.sX!.J.L.J.F.A.M.M.C.Z.G.J.I.iXaX*X=XVXFXhXkXsXq.` ) [ 1 }.",
"PXHX-.` ^ # - l.E.Y.I.E.E.iX;Xu.e   k.W.K.H.F.B.M.M.A.B.F.G.G.S.n. .[ q.#.>.%XkXhXnXq.4.&.' f.cX",
"PXKX5.` $.% - l.^.Y.I.~.~.iX;Xt.6 o `.gXP.V.C.M.A.B.F.J.I.T.R.b.J K x R q x [ FXDXeX5.2.7.' h.DX",
"PXPXt.3.$.$ 1 c.^.I.I.^.^.pX;Xt.e . |.zXP.C.C.C.N.M.B.U.gXpXn.J a.+.R n x l x NXLXrX7.3.w.' `.UX",
"PXKXu.3.4.$ 3 yX^.I.U.(.Q.aX2X4.6 @ cXSXP.V.V.C.C.F.U.!.J J F K r x g 5 5 5 5  XKX,X( _ :.{ {.UX",
"PXPX<X&.&.N 4 uX/.I.Y.hXiX*Xs.) i < AXzXU.V.Z.C.F.I.!.-XF K T Y O.p.O.+.m b m ,.HX:X) ) :.].uXLX",
"PXPX0X*.*.] { xXgXT.gXhXiX#X7._ 6 { dXn.R.G.K.D.b.m.-XtXL q q c 0 #.#.;.R Y m [ HXu.~ 3.@.@XnXPX",
"PXPX0X:.3.<.].uXgXQ.hXgXdXq.7.W u 5XnX=XaXc.x.J F | X.y.Y 8 8 9 5 v +.O.b v @.8XHXu.Q 6.>.@XUXPX",
"PXPXqX-.3.5..XcXaXfX(.jXtX5.^ x e #.q.oXq.K K w w w b 0 E c j a p p 9 x c x @.GXKXu.) t.>.@XIXPX",
"PXPXrXe.4.$.>X[.}.kXlXZXy.7.^ u e r g v t x 8 p 8 7 7 7 q f 7 a j j j v v g B MXKXe._ e.XXvXLXPX",
"PXPXmXe.6.3.:X4X_.uXZX<X$.*.! 6 u b l c c p a p p 7 j s s M 5 7 8 h x x g 9 u 8XGXu.*.t...vXPXPX",
"PXPXJXe.) *.6.0X@X].8.) I W q u y.y q g g 8 7 p f c ! 7 h f a h g m ;.@.#.@.oXNXJXy.6.i...ZXPXPX",
"PXPXKX<X=.2.3.3.6.R Q U U z g ,.0Xy.@.+.T m R c 0 #.@.O.m x g x m @.<X0X9X+XbXHXGXe.=.q.XXUXPXPX",
"PXPXPXCXw.7._ / ` ( ~ I z W 5.<X9XwXwXMXMXMXwX0X8X<X9X9X9X<XOXOX:X<Xr.r.+X9XwXwX<Xw.@.9.@XJXPXPX",
"LXPXPXPXBX-.! ( ( 2./ W Q -.>.XX5X5X|.|.}.%X}.uX%XvX6XcX%X4X3X5X;X.X>X9X0X9X X XOX:X>.{ @XPXPXPX",
"PXPXPXPXPXVX<Xw.-.-.u.,X,X.., * = = = & * & & * = > = * * 1 > > > 2 D '.@X5X.X} ..} { 4 [.PXPXIX",
"PXPXLXPXPXPXPXKXKXKXPXKXKXUX|.f.g.h.h.f.g.f.3 3 S h.`.f.S 3 1 ; 1 3 4 _.'.|.].'.].|.|.`.vXLXPXIX",
"PXPXPXPXIXPXPXPXLXPXLXPXPXPXIXPXPXPXPXPXPXPXPXPXLXLXPXPXPXLXPXLXPXPXPXPXKXPXIXIXKXPXJXLXLXPXPXPX"
};
