/* XPM */
static char * friend_xpm[] = {
"48 48 619 2",
"  	c None",
". 	c #FFFFFF",
"+ 	c #9AC3FF",
"@ 	c #3486FF",
"# 	c #3485FF",
"$ 	c #4690FF",
"% 	c #8EBBFF",
"& 	c #CFE2FF",
"* 	c #DEEBFF",
"= 	c #E1EDFF",
"- 	c #E7F0FF",
"; 	c #F6F9FF",
"> 	c #8EBCFF",
", 	c #1673FF",
"' 	c #0268FF",
") 	c #0267FF",
"! 	c #0569FF",
"~ 	c #1472FF",
"{ 	c #257CFF",
"] 	c #3183FF",
"^ 	c #3586FF",
"/ 	c #458FFF",
"( 	c #5F9FFF",
"_ 	c #74ACFF",
": 	c #71AAFF",
"< 	c #91BDFF",
"[ 	c #ABCDFF",
"} 	c #BFD8FF",
"| 	c #DCEAFF",
"1 	c #F3F8FF",
"2 	c #74ABFF",
"3 	c #076BFF",
"4 	c #0066FF",
"5 	c #0166FF",
"6 	c #0C6EFF",
"7 	c #1D77FF",
"8 	c #3888FF",
"9 	c #6BA7FF",
"0 	c #8BBAFF",
"a 	c #9CC4FF",
"b 	c #AACCFF",
"c 	c #F1F7FF",
"d 	c #EAF2FF",
"e 	c #1674FF",
"f 	c #0167FF",
"g 	c #0368FF",
"h 	c #DDEBFF",
"i 	c #FCFDFF",
"j 	c #F8FBFF",
"k 	c #92BEFF",
"l 	c #0065FF",
"m 	c #E5F0FF",
"n 	c #EBF4FF",
"o 	c #87B7FF",
"p 	c #64A2FF",
"q 	c #6AA6FF",
"r 	c #076AFF",
"s 	c #267DFF",
"t 	c #1C77FF",
"u 	c #0A6CFF",
"v 	c #88B8FF",
"w 	c #D9E8FF",
"x 	c #599BFF",
"y 	c #448FFF",
"z 	c #3F8CFF",
"A 	c #1F79FF",
"B 	c #1A76FF",
"C 	c #0067FF",
"D 	c #0165FF",
"E 	c #1A75FF",
"F 	c #C3DBFF",
"G 	c #FEFEFF",
"H 	c #FEFFFF",
"I 	c #F9FCFF",
"J 	c #6EA8FF",
"K 	c #2D81FF",
"L 	c #FAFCFF",
"M 	c #81B4FF",
"N 	c #1170FF",
"O 	c #0469FF",
"P 	c #0367FF",
"Q 	c #1975FF",
"R 	c #8AB9FF",
"S 	c #F4F9FF",
"T 	c #EBF3FF",
"U 	c #C0D9FF",
"V 	c #84B5FF",
"W 	c #3082FF",
"X 	c #066AFF",
"Y 	c #086AFF",
"Z 	c #4892FF",
"` 	c #A6CAFF",
" .	c #E6F0FF",
"..	c #FDFEFF",
"+.	c #F5F9FF",
"@.	c #C9DEFF",
"#.	c #93BEFF",
"$.	c #5096FF",
"%.	c #086BFF",
"&.	c #3D8BFF",
"*.	c #FBFDFF",
"=.	c #E4EFFF",
"-.	c #C1DAFF",
";.	c #609FFF",
">.	c #0D6EFF",
",.	c #60A0FF",
"'.	c #DAE9FF",
").	c #F1F6FF",
"!.	c #CEE2FF",
"~.	c #90BDFF",
"{.	c #5D9EFF",
"].	c #2F82FF",
"^.	c #0B6DFF",
"/.	c #035CE4",
"(.	c #0258D7",
"_.	c #0B6CFF",
":.	c #237CFF",
"<.	c #2A7FFF",
"[.	c #6DA7FF",
"}.	c #E9F1FF",
"|.	c #F2F7FF",
"1.	c #E9F2FF",
"2.	c #C7DEFF",
"3.	c #99C2FF",
"4.	c #82B5FF",
"5.	c #247CFF",
"6.	c #1A4F90",
"7.	c #122D4C",
"8.	c #1875FF",
"9.	c #3988FF",
"0.	c #4F96FF",
"a.	c #5297FF",
"b.	c #69A4FF",
"c.	c #E5EFFF",
"d.	c #BAD6FF",
"e.	c #3A89FF",
"f.	c #0054D3",
"g.	c #42534B",
"h.	c #6F6113",
"i.	c #0645A2",
"j.	c #096BFF",
"k.	c #2A80FF",
"l.	c #7BB0FF",
"m.	c #A2C7FF",
"n.	c #0C6DFF",
"o.	c #78AEFF",
"p.	c #F0F6FF",
"q.	c #C9DFFF",
"r.	c #4791FF",
"s.	c #0164FC",
"t.	c #1169E3",
"u.	c #0657CC",
"v.	c #0851BC",
"w.	c #122841",
"x.	c #071E3F",
"y.	c #0B1E36",
"z.	c #17314C",
"A.	c #504A18",
"B.	c #826700",
"C.	c #34536A",
"D.	c #206BDA",
"E.	c #4C85D8",
"F.	c #8FACD5",
"G.	c #C2D4ED",
"H.	c #9EC4FF",
"I.	c #4A92FF",
"J.	c #1372FF",
"K.	c #1572FF",
"L.	c #9BC3FF",
"M.	c #F9FBFF",
"N.	c #0865EE",
"O.	c #627764",
"P.	c #1E2012",
"Q.	c #191C13",
"R.	c #5E4F0B",
"S.	c #251F04",
"T.	c #130F01",
"U.	c #262104",
"V.	c #0D0C03",
"W.	c #443600",
"X.	c #4E461C",
"Y.	c #4E4A36",
"Z.	c #4C472C",
"`.	c #3A3C31",
" +	c #2D61A8",
".+	c #1271FF",
"++	c #3083FF",
"@+	c #CADFFF",
"#+	c #FBFCFF",
"$+	c #EFF6FF",
"%+	c #63A2FF",
"&+	c #1855A6",
"*+	c #3C3A19",
"=+	c #110E00",
"-+	c #201900",
";+	c #372C00",
">+	c #221C00",
",+	c #231C00",
"'+	c #A28100",
")+	c #292100",
"!+	c #392E02",
"~+	c #0E0B02",
"{+	c #5A4800",
"]+	c #090804",
"^+	c #7F6F19",
"/+	c #377DCA",
"(+	c #68A5FF",
"_+	c #324851",
":+	c #B49000",
"<+	c #4F3F00",
"[+	c #2F2500",
"}+	c #272000",
"|+	c #2D2400",
"1+	c #3D3200",
"2+	c #705900",
"3+	c #574600",
"4+	c #A98800",
"5+	c #1B1600",
"6+	c #4E4000",
"7+	c #0B0800",
"8+	c #414D41",
"9+	c #106BEC",
"0+	c #0669FF",
"a+	c #408CFF",
"b+	c #D5E6FF",
"c+	c #454A3A",
"d+	c #B08D00",
"e+	c #7D6400",
"f+	c #312600",
"g+	c #423400",
"h+	c #6B5600",
"i+	c #705A00",
"j+	c #5D4A00",
"k+	c #806700",
"l+	c #4B3C00",
"m+	c #5D4B00",
"n+	c #120E00",
"o+	c #08111B",
"p+	c #05429D",
"q+	c #0468FF",
"r+	c #77ADFF",
"s+	c #D4E6FF",
"t+	c #1270FF",
"u+	c #1874FF",
"v+	c #2179FF",
"w+	c #5298FF",
"x+	c #D5E0F2",
"y+	c #927916",
"z+	c #A48200",
"A+	c #A07F00",
"B+	c #685400",
"C+	c #AA8700",
"D+	c #BF9800",
"E+	c #D3A900",
"F+	c #CCA300",
"G+	c #6A5500",
"H+	c #5F4C00",
"I+	c #614E00",
"J+	c #372B00",
"K+	c #151000",
"L+	c #3C3202",
"M+	c #44411C",
"N+	c #1D4B8B",
"O+	c #D7E7FF",
"P+	c #4993FF",
"Q+	c #C8DEFF",
"R+	c #FEFEFE",
"S+	c #DDCE8F",
"T+	c #907400",
"U+	c #A78600",
"V+	c #C29B00",
"W+	c #FFCC00",
"X+	c #D9AD00",
"Y+	c #B89200",
"Z+	c #C69F00",
"`+	c #F1C100",
" @	c #7A6100",
".@	c #A18100",
"+@	c #9B7C00",
"@@	c #322800",
"#@	c #624F00",
"$@	c #BE9700",
"%@	c #6E5C0E",
"&@	c #605B47",
"*@	c #D0D0CF",
"=@	c #BDD8FF",
"-@	c #C8DFFF",
";@	c #ECECEC",
">@	c #C3A93D",
",@	c #D0A600",
"'@	c #D6AB00",
")@	c #F9C700",
"!@	c #DBAF00",
"~@	c #A58400",
"{@	c #EBBC00",
"]@	c #C39D00",
"^@	c #A48300",
"/@	c #B59100",
"(@	c #F0C000",
"_@	c #8B7312",
":@	c #625D48",
"<@	c #C4C4C4",
"[@	c #DDD9CE",
"}@	c #AC8E16",
"|@	c #F5C400",
"1@	c #EFBF00",
"2@	c #7D670E",
"3@	c #6E6B5F",
"4@	c #CDC5A2",
"5@	c #9A7C0A",
"6@	c #FECB00",
"7@	c #FECC00",
"8@	c #605119",
"9@	c #9F9F9F",
"0@	c #E8E8E8",
"a@	c #A0935C",
"b@	c #F4C404",
"c@	c #BA9500",
"d@	c #E8BA00",
"e@	c #BC9600",
"f@	c #EEBB03",
"g@	c #8E7203",
"h@	c #898264",
"i@	c #F0EFEF",
"j@	c #E3E3DF",
"k@	c #92813B",
"l@	c #F2C200",
"m@	c #BE9900",
"n@	c #CDA400",
"o@	c #C69408",
"p@	c #5F2A1A",
"q@	c #64281E",
"r@	c #E6B205",
"s@	c #5E511C",
"t@	c #D1CFCA",
"u@	c #E0DDD2",
"v@	c #897526",
"w@	c #F2C100",
"x@	c #D4A900",
"y@	c #EAB704",
"z@	c #BC850E",
"A@	c #BA9606",
"B@	c #5C5846",
"C@	c #C7C2B1",
"D@	c #947B15",
"E@	c #C19B00",
"F@	c #5D5639",
"G@	c #817C68",
"H@	c #C8A20D",
"I@	c #D4AA00",
"J@	c #C59E00",
"K@	c #63582B",
"L@	c #827D69",
"M@	c #C8A30D",
"N@	c #7C6400",
"O@	c #C49D00",
"P@	c #C69E00",
"Q@	c #635625",
"R@	c #DDD9CA",
"S@	c #BA9A18",
"T@	c #FCCA00",
"U@	c #836900",
"V@	c #6F5900",
"W@	c #E3B600",
"X@	c #F7C500",
"Y@	c #C39C00",
"Z@	c #5E5531",
"`@	c #DDDCD8",
" #	c #7C6E35",
".#	c #F0C101",
"+#	c #C09A00",
"@#	c #AD8A00",
"##	c #6A5600",
"$#	c #B28F00",
"%#	c #C09902",
"&#	c #585239",
"*#	c #F9F9F9",
"=#	c #A9A288",
"-#	c #937707",
";#	c #FDCB00",
">#	c #BB9600",
",#	c #F6C500",
"'#	c #F4C300",
")#	c #746114",
"!#	c #BAB7AD",
"~#	c #BABABA",
"{#	c #7A6720",
"]#	c #FFCB00",
"^#	c #FFCA00",
"/#	c #DFB302",
"(#	c #635A35",
"_#	c #D5D5D5",
":#	c #827959",
"<#	c #8D7200",
"[#	c #FF525A",
"}#	c #FF7640",
"|#	c #FFA91B",
"1#	c #FF6A3D",
"2#	c #FF5F00",
"3#	c #FFC100",
"4#	c #CEA400",
"5#	c #625319",
"6#	c #9A9890",
"7#	c #82817D",
"8#	c #8C720C",
"9#	c #FFCB01",
"0#	c #FF2268",
"a#	c #FF0978",
"b#	c #FF0B85",
"c#	c #FF1B7F",
"d#	c #FF4266",
"e#	c #FF1C7C",
"f#	c #FF2558",
"g#	c #FF412E",
"h#	c #FF4A4A",
"i#	c #FF7800",
"j#	c #CEA500",
"k#	c #715E12",
"l#	c #626057",
"m#	c #E5E5E5",
"n#	c #6F6439",
"o#	c #B69200",
"p#	c #FFAD00",
"q#	c #FF2033",
"r#	c #FF0480",
"s#	c #FF0776",
"t#	c #FF097F",
"u#	c #FF0681",
"v#	c #FF067A",
"w#	c #FF2022",
"x#	c #FF9600",
"y#	c #E1B400",
"z#	c #6E5A0B",
"A#	c #65604E",
"B#	c #FCF8FF",
"C#	c #8D768E",
"D#	c #A26849",
"E#	c #DC9641",
"F#	c #E7A531",
"G#	c #F5BD13",
"H#	c #F4BA17",
"I#	c #FDB804",
"J#	c #FFAC05",
"K#	c #FF8209",
"L#	c #FF8D06",
"M#	c #FFBA00",
"N#	c #D2A800",
"O#	c #6D5A0F",
"P#	c #7E775E",
"Q#	c #E9E9E8",
"R#	c #FBF7FF",
"S#	c #E4CAFF",
"T#	c #C082FF",
"U#	c #A044F4",
"V#	c #8115D6",
"W#	c #891AD2",
"X#	c #A63DB3",
"Y#	c #DA914A",
"Z#	c #E5A334",
"`#	c #F9C30B",
" $	c #FECB01",
".$	c #CBA200",
"+$	c #736117",
"@$	c #765C76",
"#$	c #D5C6E3",
"$$	c #E9D4FF",
"%$	c #A750FF",
"&$	c #860EFF",
"*$	c #8308FC",
"=$	c #8306F7",
"-$	c #8306F6",
";$	c #8816D8",
">$	c #C26A79",
",$	c #E6A52F",
"'$	c #FCC706",
")$	c #F7C00F",
"!$	c #FBC706",
"~$	c #755E02",
"{$	c #6F6027",
"]$	c #6F4A8F",
"^$	c #AF63FE",
"/$	c #A64DFF",
"($	c #EFDDFF",
"_$	c #D4ABFF",
":$	c #9327FF",
"<$	c #8105FF",
"[$	c #850AFB",
"}$	c #860AF3",
"|$	c #870DF1",
"1$	c #9D31C8",
"2$	c #B0637A",
"3$	c #8F3F91",
"4$	c #81388D",
"5$	c #774F4B",
"6$	c #73572F",
"7$	c #783679",
"8$	c #772C8A",
"9$	c #79269B",
"0$	c #7727A6",
"a$	c #885CA1",
"b$	c #AE83D6",
"c$	c #B46AFF",
"d$	c #9B38FF",
"e$	c #8F1EFF",
"f$	c #A244FB",
"g$	c #EBD4F4",
"h$	c #D2A5FF",
"i$	c #982FFF",
"j$	c #8914FF",
"k$	c #9225F5",
"l$	c #860BFC",
"m$	c #8A15FE",
"n$	c #9B35F0",
"o$	c #C37AC3",
"p$	c #A646CE",
"q$	c #9C43D2",
"r$	c #9549D7",
"s$	c #9046DA",
"t$	c #8720EE",
"u$	c #8617F6",
"v$	c #8A20F5",
"w$	c #8B28EF",
"x$	c #B267FF",
"y$	c #B266FF",
"z$	c #9225FF",
"A$	c #9833FE",
"B$	c #9021F7",
"C$	c #9831F8",
"D$	c #A953FF",
"E$	c #E6CCFF",
"F$	c #F2E4FF",
"G$	c #C084FF",
"H$	c #9A35FE",
"I$	c #8813FF",
"J$	c #8307FF",
"K$	c #9F40FF",
"L$	c #B062FF",
"M$	c #9123FE",
"N$	c #901EFE",
"O$	c #962EFF",
"P$	c #9731FF",
"Q$	c #9428FF",
"R$	c #9D3BFF",
"S$	c #A044FF",
"T$	c #B56CFF",
"U$	c #AC5AFF",
"V$	c #9830FC",
"W$	c #9121EF",
"X$	c #A243F0",
"Y$	c #952CFF",
"Z$	c #952DFF",
"`$	c #CD9DFF",
" %	c #DFC0FF",
".%	c #B468FF",
"+%	c #BF7EFB",
"@%	c #9830FB",
"#%	c #9932FC",
"$%	c #9E3CFA",
"%%	c #9C37F9",
"&%	c #8C16F8",
"*%	c #8A13F5",
"=%	c #8C18F6",
"-%	c #9222EC",
";%	c #A13FDF",
">%	c #B35DCD",
",%	c #BA68C0",
"'%	c #B160F3",
")%	c #972FFF",
"!%	c #DDBBFF",
"~%	c #FAF6FF",
"{%	c #F7F0FF",
"]%	c #F3E8FF",
"^%	c #C185FF",
"/%	c #8F21FB",
"(%	c #8F1EF7",
"_%	c #982FF3",
":%	c #9325F3",
"<%	c #8D18EE",
"[%	c #8F1CEF",
"}%	c #9B35F1",
"|%	c #9227FD",
"1%	c #9B36F7",
"2%	c #B96DE6",
"3%	c #BC79FC",
"4%	c #B164FF",
"5%	c #9C39FF",
"6%	c #A74EFF",
"7%	c #DEBCFF",
"8%	c #FAF4FF",
"9%	c #F9F2FF",
"0%	c #B369FF",
"a%	c #8E1EFF",
"b%	c #8E1CFF",
"c%	c #A44AFF",
"d%	c #9123FF",
"e%	c #8D1CFF",
"f%	c #9328FF",
"g%	c #A64BFB",
"h%	c #A449FF",
"i%	c #A955FF",
"j%	c #BF82FF",
"k%	c #DAB6FF",
"l%	c #D2A7FF",
"m%	c #C488FF",
"n%	c #FCFAFF",
"o%	c #FEFBFF",
"p%	c #DAB8FF",
"q%	c #B264FF",
"r%	c #A346FF",
"s%	c #AC59FF",
"t%	c #9B37FF",
"u%	c #A144FF",
"v%	c #CC99FF",
"w%	c #D8B2FF",
"x%	c #DDBAFF",
"y%	c #EDDAFF",
"z%	c #F4EBFF",
"A%	c #F3E9FF",
"B%	c #F9F4FF",
". . . . . . . . . . . . . . . . . . . . . + @ # $ % & * = - ; . . . . . . . . . . . . . . . . . ",
". . . . . . . . . . . . . . . . . . . . > , ' ) ) ! ~ { ] ^ / ( _ : < [ } | 1 . . . . . . . . . ",
". . . . . . . . . . . . . . . . . . . 2 3 4 4 5 5 5 ) ) ) ) ) ) ) ) ) 6 7 8 / 9 0 a b c . . . . ",
". . . . . . . . . . . . . . . . . . d e f 4 4 4 4 4 4 4 4 f f 5 5 ) ) ) ) ) ) ) ) g , h . . i j ",
". . . . . . . . . . . . . . . . . . k ! 5 4 4 4 4 4 4 4 4 4 4 4 4 4 4 4 4 l l 5 f 4 , m n o 8 p ",
". . . . . . . . . . . . . . . . . i q r g ) 5 ) 4 4 4 l f f 4 4 4 4 4 4 4 4 4 f 4 4 ! s t ) u v ",
". . . . . . . . . . . . . . . . . . w x y z A B 4 4 4 4 f C D f l 4 4 4 4 4 C 4 4 4 4 4 5 ) E F ",
". . . . . . . . . . . . . . . . . . . G H I h J ) 5 f 4 4 4 4 4 4 4 4 4 4 4 4 4 4 l 4 4 f ) K | ",
". . . . . . . . . . . . . . . . . . . . . . L M N O 4 4 4 4 4 l 4 4 4 4 4 4 4 4 l 4 4 5 P Q R S ",
". . . . . . . . . . . . . . . . . . . i T U V W X 5 5 4 4 4 4 4 4 4 l 4 4 4 l 4 4 4 Y Z `  .. . ",
". . . . . . . . . . . . . . . . ..+.@.#.$.%.g ) ) f 5 4 4 4 l 4 4 4 4 l 4 4 4 4 O &.[ . . . . . ",
". . . . . . . . . . . . . . *.=.-.;.>.X ) ) 5 4 4 4 4 4 4 4 5 ) ) r 4 4 4 4 4 5 ,.'.G . . . . . ",
". . . . . . . . . . H ).!.~.{.].^.g /.(.4 4 4 4 4 4 l f ) _.:.<.N f 4 4 4 4 f [.}.. . . . . . . ",
". . . . . . |.1.2.3.4.{.5.g ) ) ) 5 6.7.4 4 4 4 l g >.8.9.0.a.N ' 4 4 4 4 X b.c.. . . . . . . . ",
". . ..1 d.p e./ ~ g g g ) f 4 4 4 f.g.h.i.4 g j.k./ l.m.o ~ 5 4 4 4 4 4 n.o.p.. . . . . . . . . ",
". . q.r.u ! g ) 5 l s.t.u.v.w.x.y.z.A.B.C.D.E.F.G.H.I.J.! 4 4 4 4 4 4 K.L.M.. . . . . . . . . . ",
". i o.g ) 5 5 4 4 4 N.O.P.Q.R.S.T.U.V.W.X.Y.Z.`. +.+) f 5 4 4 4 4 5 ++@+#+. . . . . . . . . . . ",
". $+%+g 5 4 4 4 4 4 &+*+=+-+;+>+,+'+)+)+!+~+{+]+^+/+) f 5 4 4 4 , (+T . . . . . . . . . . . . . ",
"-.K u 4 4 4 4 4 4 4 _+:+<+[+}+|+,+1+2+3+4+5+6+7+8+9+) ) ) 5 0+a+b+. . . . . . . . . . . . . . . ",
"k O 4 4 4 4 4 4 4 _.c+d+e+;+f+g+h+i+:+j+k+l+m+n+o+p+) q+<.r+s+I . . . . . . . . . . . . . . . . ",
". t+f 5 >.u+v+w+` x+y+z+A+B+C+h+D+E+F+G+H+I+J+K+L+M+N+V O+. . . . . . . . . . . . . . . . . . . ",
". # .+P+% Q+#+. R+S+T+U+V+W+W+X+Y+Z+`+ @.@+@@@#@$@W+%@&@*@. . . . . . . . . . . . . . . . . . . ",
". =@-@. . . . . ;@>@,@'@)@W+W+!@~@{@W+W+W+]@^@/@W+W+(@_@:@<@. . . . . . . . . . . . . . . . . . ",
". . . . . . . . [@}@W+W+W+W+W+|@1@W+W+W+W+W+W+W+W+W+W+{@2@3@. . . . . . . . . . . . . . . . . . ",
". . . . . . . . 4@5@W+6@W+W+W+W+W+W+W+W+7@6@W+W+W+W+W+W+W+8@9@. . . . . . . . . . . . . . . . . ",
". . . . . . . 0@a@b@W+c@d@W+W+W+W+W+W+W+!@e@f@W+W+W+W+W+W+g@h@i@. . . . . . . . . . . . . . . . ",
". . . . . . . j@k@l@W+m@n@W+W+W+W+W+W+W+o@p@q@r@W+W+W+W+W+(@s@t@. . . . . . . . . . . . . . . . ",
". . . . . . . u@v@w@W+x@n@W+W+W+W+W+W+W+6@y@z@W+W+W+W+W+W+6@A@B@. . . . . . . . . . . . . . . . ",
". . . . . . . C@D@|@W+W+W+W+W+W+W+W+W+W+W+W+W+W+W+W+W+W+W+W+E@F@. . . . . . . . . . . . . . . . ",
". . . . . . . G@H@W+W+W+W+W+W+W+I@W+W+W+W+W+W+W+W+W+W+W+W+W+J@K@. . . . . . . . . . . . . . . . ",
". . . . . . . L@M@W+W+W+W+W+W++@N@O@W+W+W+W+W+W+W+W+W+W+W+W+P@Q@. . . . . . . . . . . . . . . . ",
". . . . . . . R@S@T@W+W+W+W+W+U@V@W@X@W+W+W+W+W+W+W+W+W+W+W+Y@Z@. . . . . . . . . . . . . . . . ",
". . . . . . . `@ #.#W+W+W+W+W++#@###$#!@{@)@W+W+W+W+W+W+W+W+%#&#. . . . . . . . . . . . . . . . ",
". . . . . . . *#=#-#W+W+W+W+W+W+;#W@>#m@W@,#W+W+W+W+W+W+W+'#)#!#. . . . . . . . . . . . . . . . ",
". . . . . . . . ~#{#`+W+W+W+]#W+W+W+W+W+W+W+W+]#^#W+W+W+W+/#(#_#. . . . . . . . . . . . . . . . ",
". . . . . . . . . :#<#W+W+W+[#}#W+W+W+W+W+|#1#2#3#W+W+W+4#5#6#. . . . . . . . . . . . . . . . . ",
". . . . . . . . . 7#8#W+W+9#0#a#b#c#d#e#f#g#h#i#W+W+W+j#k#l#m#. . . . . . . . . . . . . . . . . ",
". . . . . . . . . . n#o#W+W+p#q#r#s#t#u#v#w#x#W+W+W+y#z#A#. . . . . . . . . . . . . . . . . . . ",
". . . . . . . . . B#C#D#E#F#G#H#I#J#K#L#M#W+W+W+W+N#O#P#Q#. . . . . . . . . . . . . . . . . . . ",
". . . . . . . R#S#T#U#V#W#X#Y#Z#`# $W+W+W+W+W+W+.$+$@$#$. . . . . . . . . . . . . . . . . . . . ",
". . . . . . . $$%$&$*$=$-$;$>$F#,$'$W+)$!$W+W+~${$]$^$/$($. . . . . . . . . . . . . . . . . . . ",
". . . . . . . _$:$<$[$}$|$1$2$3$4$5$6$7$8$9$0$a$b$c$d$e$f$g$. . . . . . . . . . . . . . . . . . ",
". . . . . . . h$i$j$k$l$m$n$o$p$q$r$s$t$u$v$w$x$y$z$A$B$C$D$E$. . . . . . . . . . . . . . . . . ",
". . . . . . . B#F$G$H$I$J$K$L$M$N$O$P$j$Q$R$S$T$U$V$W$X$Y$Z$`$. . . . . . . . . . . . . . . . . ",
". . . . . . . . . . .  %.%y$+%@%#%$%%%&%*%=%-%;%>%,%'%R$)%U$!%~%. . . . . . . . . . . . . . . . ",
". . . . . . . . . . . {%]%{%^%/%(%_%:%<%[%}%|%1%2%3%4%5%6%7%8%. . . . . . . . . . . . . . . . . ",
". . . . . . . . . . . . . 9%0%a%b%c%d%e%f%g%h%i%j%k%l%m%7%n%. . . . . . . . . . . . . . . . . . ",
". . . . . . . . . . . . . o%p%q%r%s%t%u%v%w%x%y%z%A%$$B%. . . . . . . . . . . . . . . . . . . . "};
