/* XPM */
static char *generalisation[] = {
/* columns rows colors chars-per-pixel */
"48 48 158 2",
"   c #1D69DF",
".  c #0D6FEE",
"X  c #0266FE",
"o  c #036AFD",
"O  c #0E67FE",
"+  c #0E6AF5",
"@  c #0B6BFB",
"#  c #0670FC",
"$  c #0E71FC",
"%  c #156DE6",
"&  c #136BE9",
"*  c #1B6DE3",
"=  c #136CF3",
"-  c #136DFD",
";  c #196FF6",
":  c #1E6FFB",
">  c #1172EF",
",  c #1673F6",
"<  c #1372FD",
"1  c #1B74F3",
"2  c #1B74FC",
"3  c #1C7AF3",
"4  c #1C7AFD",
"5  c #206FF3",
"6  c #2274EB",
"7  c #257BEF",
"8  c #2A75EA",
"9  c #2B7BE6",
"0  c #2B7AEA",
"q  c #2376F4",
"w  c #2276FB",
"e  c #257AF3",
"r  c #237AFC",
"t  c #2976F3",
"y  c #2976FA",
"u  c #2B7AF3",
"i  c #2B7CFB",
"p  c #3377EB",
"a  c #327BEC",
"s  c #397EE6",
"d  c #3A7EED",
"f  c #337CF4",
"g  c #327DFB",
"h  c #3B7BF2",
"j  c #2482FC",
"k  c #278AF9",
"l  c #2E83F5",
"z  c #2C82FC",
"x  c #2D8AFF",
"c  c #3480ED",
"v  c #3D85ED",
"b  c #3B88ED",
"n  c #3582F3",
"m  c #3283FC",
"M  c #358BFE",
"N  c #3A84F4",
"B  c #3A84FB",
"V  c #3E8BF2",
"C  c #3D8AFB",
"Z  c #3B91FE",
"A  c #4180E5",
"S  c #4387EC",
"D  c #438AEB",
"F  c #4C85E4",
"G  c #4D8AEB",
"H  c #4284F2",
"J  c #4087FA",
"K  c #438AF2",
"L  c #428CFC",
"P  c #4B8CF3",
"I  c #4594EC",
"U  c #4490F0",
"Y  c #4594FE",
"T  c #4D90F4",
"R  c #4C94FC",
"E  c #4F9CFE",
"W  c #548DF0",
"Q  c #5293EC",
"!  c #5B94E7",
"~  c #5A94EC",
"^  c #5F9BED",
"/  c #5393F4",
"(  c #5494FA",
")  c #5299F6",
"_  c #539AFC",
"`  c #5999F3",
"'  c #5B9BFB",
"]  c #53A1FF",
"[  c #5DA4FE",
"{  c #6095ED",
"}  c #649AEB",
"|  c #6A9DE7",
" . c #6A9BEA",
".. c #659EF5",
"X. c #639CFC",
"o. c #689BF7",
"O. c #63A1F9",
"+. c #61ACFF",
"@. c #6DA4F2",
"#. c #6BA3FC",
"$. c #6FA8F4",
"%. c #71A2E6",
"&. c #72A5EB",
"*. c #72A5F3",
"=. c #75ABF4",
"-. c #72AEFE",
";. c #7CACF4",
":. c #7AADFA",
">. c #74B4FC",
",. c #7DB0F5",
"<. c #78B5FD",
"1. c #79BBFF",
"2. c #84AFEF",
"3. c #81ABF0",
"4. c #86B4F4",
"5. c #82B1FB",
"6. c #85BAFB",
"7. c #8EB6FA",
"8. c #88BDFE",
"9. c #91B5F1",
"0. c #95BEF6",
"q. c #93BBFB",
"w. c #9BBEFB",
"e. c #8EC4FF",
"r. c #94C0F5",
"t. c #91C0F9",
"y. c #96C9FF",
"u. c #9BC2FC",
"i. c #9ACBFD",
"p. c #9ED1FF",
"a. c #A5C5FD",
"s. c #A4CDFC",
"d. c #AECEF6",
"f. c #ABCDFD",
"g. c #A3D1FF",
"h. c #ABD2FE",
"j. c #B4D3FE",
"k. c #B5DAFE",
"l. c #BAD4FD",
"z. c #BDDBFE",
"x. c #B5E0FF",
"c. c #C2DEFE",
"v. c #C4E2FE",
"b. c #C3E9FE",
"n. c #CBE5FE",
"m. c #CCEAFF",
"M. c #D1E5FE",
"N. c #D3EBFF",
"B. c #DAEBFF",
"V. c #D1F0FF",
"C. c #DDF5FF",
"Z. c #E3F3FF",
"A. c #E4F8FF",
"S. c #EBF6FE",
"D. c #EBFAFE",
"F. c #F4FCFE",
"G. c #FEFDF5",
"H. c #FEFEFE",
/* pixels */
"H.H.H.H.H.H.H.H.H.H.H.H.H.H.H.H.H.H.H.H.H.H.H.H.H.H.H.H.H.F.H.H.G.H.H.G.G.G.H.F.H.F.H.H.F.F.G.F.",
"H.H.H.H.H.H.H.H.H.H.H.H.H.H.H.H.H.H.H.H.H.H.H.H.H.H.H.H.H.G.H.H.H.H.H.H.H.F.F.H.G.H.H.G.G.G.H.H.",
"H.H.H.H.H.H.H.H.H.H.H.H.H.H.H.H.H.H.H.H.H.H.H.H.H.H.H.H.G.F.H.H.H.H.H.H.H.H.H.H.H.H.F.F.H.H.H.H.",
"H.H.H.H.H.H.H.H.H.H.H.H.H.H.H.H.H.H.H.H.H.H.H.H.G.G.H.H.H.H.H.F.H.H.H.G.H.F.C.z.h.e.#.~  .;.x.D.",
"H.H.H.H.H.H.H.H.H.H.H.H.H.H.H.H.H.H.H.H.H.H.H.H.H.G.H.H.H.H.H.F.D.A.m.b.i.' a 6 & + < : 1 1 8 &.",
"H.H.H.H.H.H.H.H.H.H.H.H.H.H.H.H.H.H.H.H.H.H.H.H.H.F.H.H.F.C.i.*.W J a * & & $ @ < 2 j 4 j j 2 v ",
"H.H.H.H.H.H.H.H.H.H.H.H.H.H.H.H.H.H.H.H.H.H.H.H.H.H.H.H.v.} t - @ @ O O 2 @ @ o o o o $ - ; i 8 ",
"H.H.H.H.H.H.H.H.H.H.H.H.H.H.H.H.H.H.H.H.H.H.H.H.H.H.H.S.9.K = @ @ o X o o o @ 2 w u D ) ( y z b ",
"H.H.H.H.H.H.H.H.H.H.H.H.H.H.H.H.H.H.H.H.H.H.H.H.F.H.G.F.a.X.g & @ @ @ + % 0 s ! q.l.M.Z.i.l r p ",
"H.H.H.H.H.H.H.H.H.H.H.H.H.H.H.H.H.H.H.H.H.H.H.H.H.H.H.B.5.R 1.:.*.*.2.a.z.m.Z.A.D.H.H.F.@.1 r 0 ",
"H.H.H.H.H.H.H.H.H.H.H.H.H.H.H.H.H.H.H.H.H.H.H.H.F.G.D.w.N k I h.D.D.D.H.G.H.G.H.H.H.H.Z.G 2 j c ",
"H.H.H.H.H.H.H.H.H.H.H.H.H.H.H.H.H.H.H.H.H.H.H.H.G.H.D.3.u j l / a.S.H.F.H.H.H.H.H.H.H.M.v < 2 l ",
"H.H.H.H.H.H.H.H.H.H.H.H.H.H.H.H.H.H.H.H.H.H.H.H.H.G.H.c.D l g B n &.n.H.G.H.H.H.H.H.H.n.a @ 2 e ",
"H.H.H.H.H.H.H.H.H.H.H.H.H.H.H.H.H.H.H.H.H.H.H.H.H.G.H.D.g.K y 2 k 7 W l.F.H.H.H.H.H.F.b.* - 4 7 ",
"H.H.H.H.H.H.H.H.H.H.H.H.H.H.H.H.H.H.H.H.H.H.H.H.H.H.H.H.S.q.N > > z m d q.A.H.H.G.G.H.l.b r i 9 ",
"H.H.H.H.H.H.H.H.H.H.H.H.H.H.H.H.H.H.H.H.H.H.H.H.H.H.H.G.H.S.f.' 1 2 M C H =.n.F.H.H.H.c.[ B C v ",
"H.H.H.H.H.H.H.H.H.H.H.H.H.H.H.H.H.H.H.H.H.H.H.H.H.H.H.G.H.F.n.y.L e M m B a ..n.H.H.F.z.) 6 Y D ",
"H.H.H.H.H.H.H.H.H.H.H.H.H.H.H.H.H.H.F.H.H.H.H.H.G.F.H.D.l.=./ d _ ' B i e Z J ^ n.H.H.z.b q ] R ",
"H.H.H.H.H.H.H.H.H.H.H.H.H.H.H.H.H.H.H.G.G.H.H.H.H.F.M.8.V 3 4 q N #.' L 3 x Y f ^ B.F.j.9 8 _ N ",
"H.H.H.H.H.H.H.H.H.H.H.H.H.H.H.H.H.H.H.H.H.H.H.H.D.c.! 1 < 2 i w q _ 8.$.R q i R K 6.Z.n.0 8 [ P ",
"H.H.H.H.H.H.H.H.H.H.H.H.H.H.H.H.H.G.H.H.H.H.G.A.k.:.R 2 2 2 u C R @.d.C.h.A q i ] D g.v.S I -.7.",
"H.H.H.H.H.H.H.H.H.H.H.H.H.H.H.H.H.H.G.H.H.H.B.q.( C u : 2 q [ e.f.N.F.G.F.h.Q 6 i L 8 [ _ >.2.v.",
"H.H.H.H.H.H.H.H.H.H.H.H.H.H.H.H.H.H.G.G.F.A.4.p w $ < < q ` h.M.S.H.H.H.G.F.b.@.d g 2 z i ( h.N.",
"H.H.H.H.H.H.H.H.H.H.H.H.H.H.H.H.H.F.H.G.F.w.a $ @ - $ , P a.S.H.H.G.H.H.H.H.D.n.o.r i < + q %.M.",
"H.H.H.H.H.H.H.H.H.H.H.G.H.H.H.H.H.G.H.F.c.[ 2 o # + < V 0.S.H.H.H.H.G.H.H.H.H.F.l.P u < # m | B.",
"H.H.H.H.H.H.H.H.H.H.H.H.G.H.F.H.G.H.S.d.~ 7 4 < @ 2 H s.D.H.H.H.H.H.H.H.H.H.H.H.F.b.,.0 e ' f.F.",
"H.H.H.H.H.H.H.H.G.G.H.H.F.G.G.H.D.m.=.c i m m r , b h.F.H.H.F.H.H.H.H.H.H.H.H.H.H.F.A.h.9.l.S.H.",
"H.H.H.H.H.H.H.H.H.H.F.H.H.H.Z.j. .G 0 2 2 4 q u / h.D.G.G.H.H.H.H.H.H.H.H.H.H.H.H.G.H.H.F.G.H.H.",
"H.H.H.H.H.H.H.H.H.H.G.H.F.z.@.h L _ C w ; y P 5.M.F.G.F.H.H.G.H.H.H.H.H.H.H.H.H.H.H.H.H.H.G.H.G.",
"H.H.H.H.H.H.H.H.H.G.H.B.7.s m M m n _ ) / :.k.A.H.H.H.H.F.H.H.H.H.H.H.H.H.H.H.H.H.G.H.H.H.H.H.H.",
"H.H.H.H.H.H.H.H.G.F.M.#.u z M q R ' <.u.f.B.F.H.G.H.H.H.H.H.H.H.H.H.H.H.H.H.H.H.H.H.G.H.H.H.H.H.",
"H.H.H.H.H.H.H.H.D.h.Q e x 4 ; ; F u.n.S.F.H.H.H.F.H.H.H.G.G.F.H.H.H.H.H.H.H.H.H.H.G.H.H.H.H.H.H.",
"H.H.H.H.H.H.F.B.5.H g j , , p :.n.F.H.H.G.H.H.H.H.H.H.H.H.G.H.H.H.H.H.H.H.H.H.H.H.H.H.H.H.H.H.H.",
"H.H.H.G.H.D.j.~ n m w = 6 O.j.F.H.H.H.H.H.H.H.H.H.H.H.H.H.H.H.H.H.H.H.H.H.H.H.H.H.H.H.H.H.H.H.H.",
"H.H.F.H.V.5.H g M r 2 n 5.n.H.H.H.H.H.H.H.H.H.H.H.H.H.H.H.H.H.H.H.H.H.H.H.H.H.H.H.H.H.H.H.H.H.H.",
"H.H.F.l.} n B g g B / u.Z.H.G.H.H.H.H.H.H.H.H.H.H.H.H.H.H.H.H.H.H.H.H.H.H.H.H.H.H.H.H.H.H.H.H.H.",
"H.H.c.;.P t e l W q.N.F.H.H.H.H.H.H.H.H.H.H.H.H.H.H.H.H.H.H.H.H.H.H.H.H.H.H.H.H.H.H.H.H.H.H.H.H.",
"G.F.M.w.W B b ,.b.F.H.H.H.H.F.H.H.H.H.H.H.H.H.H.H.H.H.H.H.H.H.H.H.H.H.H.H.H.H.H.H.H.H.H.H.H.H.H.",
"H.H.H.Z.z.q.v.D.H.H.H.G.H.G.H.H.H.H.H.H.H.H.H.H.H.H.H.H.H.H.H.H.H.H.H.H.H.H.H.H.H.H.H.H.H.H.H.H.",
"H.H.G.F.H.H.H.H.H.H.H.G.H.H.H.H.H.H.H.H.H.H.H.H.H.H.H.H.H.H.H.H.H.H.H.H.H.H.H.H.H.H.H.H.H.H.H.H.",
"H.H.H.H.H.H.H.H.G.H.H.H.H.H.H.G.H.H.H.H.H.H.H.H.H.H.H.H.H.H.H.H.H.H.H.H.H.H.H.H.H.H.H.H.H.H.H.H.",
"H.H.H.H.H.H.H.H.H.H.H.H.H.H.H.H.H.H.H.H.H.H.H.H.H.H.H.H.H.H.H.H.H.H.H.H.H.H.H.H.H.H.H.H.H.H.H.H.",
"H.H.H.H.H.H.H.H.H.H.H.H.H.H.H.H.H.H.H.H.H.H.H.H.H.H.H.H.H.H.H.H.H.H.H.H.H.H.H.H.H.H.H.H.H.H.H.H.",
"H.H.H.H.H.H.H.H.H.H.H.H.H.H.H.H.H.H.H.H.H.H.H.H.H.H.H.H.H.H.H.H.H.H.H.H.H.H.H.H.H.H.H.H.H.H.H.H.",
"H.H.H.H.H.H.H.H.H.H.H.H.H.H.H.H.H.H.H.H.H.H.H.H.H.H.H.H.H.H.H.H.H.H.H.H.H.H.H.H.H.H.H.H.H.H.H.H.",
"H.H.H.H.H.H.H.H.H.H.H.H.H.H.H.H.H.H.H.H.H.H.H.H.H.H.H.H.H.H.H.H.H.H.H.H.H.H.H.H.H.H.H.H.H.H.H.H.",
"H.H.H.H.H.H.H.H.H.H.H.H.H.H.H.H.H.H.H.H.H.H.H.H.H.H.H.H.H.H.H.H.H.H.H.H.H.H.H.H.H.H.H.H.H.H.H.H.",
"H.H.H.H.H.H.H.H.H.H.H.H.H.H.H.H.H.H.H.H.H.H.H.H.H.H.H.H.H.H.H.H.H.H.H.H.H.H.H.H.H.H.H.H.H.H.H.H."
};
