/* XPM */
static char * imprelation_xpm[] = {
"48 48 186 2",
"  	c None",
". 	c #0066FF",
"+ 	c #0065FF",
"@ 	c #0067FF",
"# 	c #0166FE",
"$ 	c #0265FD",
"% 	c #0365FC",
"& 	c #0B62F4",
"* 	c #4E47B1",
"= 	c #1F59E0",
"- 	c #185CE6",
"; 	c #1A5BE6",
"> 	c #185CE7",
", 	c #155EEA",
"' 	c #673C98",
") 	c #404DBF",
"! 	c #4D47B2",
"~ 	c #6C3B94",
"{ 	c #D4122B",
"] 	c #CC1533",
"^ 	c #B31F4C",
"/ 	c #2558DB",
"( 	c #0563F9",
"_ 	c #0165FD",
": 	c #0962F5",
"< 	c #5E40A0",
"[ 	c #9F2761",
"} 	c #F90206",
"| 	c #F70308",
"1 	c #EA0815",
"2 	c #CE1431",
"3 	c #633E9C",
"4 	c #0D61F3",
"5 	c #0366FC",
"6 	c #2561DA",
"7 	c #6E3A92",
"8 	c #F5040A",
"9 	c #FB0204",
"0 	c #FD0102",
"a 	c #FC0103",
"b 	c #FA0205",
"c 	c #EB0814",
"d 	c #DC0E23",
"e 	c #643E9A",
"f 	c #0E60F1",
"g 	c #4B4EB4",
"h 	c #C95C37",
"i 	c #E40B1B",
"j 	c #F3050C",
"k 	c #ED0712",
"l 	c #DE0D21",
"m 	c #E70A18",
"n 	c #F2050D",
"o 	c #E90916",
"p 	c #D1122E",
"q 	c #7D3381",
"r 	c #0463FB",
"s 	c #0064FF",
"t 	c #1D6EE2",
"u 	c #EB9A14",
"v 	c #E50A1A",
"w 	c #C3183C",
"x 	c #A2255D",
"y 	c #A52459",
"z 	c #BD1A42",
"A 	c #DB0E23",
"B 	c #AF1F4F",
"C 	c #753789",
"D 	c #AE9651",
"E 	c #F4500B",
"F 	c #F0060F",
"G 	c #EF0610",
"H 	c #E00C1F",
"I 	c #9A2865",
"J 	c #3A4EC4",
"K 	c #2556D9",
"L 	c #4A48B5",
"M 	c #8B2F73",
"N 	c #902C6F",
"O 	c #2E53D1",
"P 	c #4C7DB3",
"Q 	c #DE4321",
"R 	c #CD1331",
"S 	c #5E41A1",
"T 	c #0A61F5",
"U 	c #135EEC",
"V 	c #0664F9",
"W 	c #627E9C",
"X 	c #E62F19",
"Y 	c #F4040B",
"Z 	c #E20B1C",
"` 	c #0C68F3",
" .	c #AD7251",
"..	c #F81907",
"+.	c #FF0000",
"@.	c #FE0001",
"#.	c #F1050E",
"$.	c #FF5B00",
"%.	c #7A3483",
"&.	c #FF5700",
"*.	c #FA0105",
"=.	c #434BBA",
"-.	c #AA2255",
";.	c #FF5800",
">.	c #B41D4B",
",.	c #FF5D00",
"'.	c #B71C47",
").	c #1B5BE5",
"!.	c #0D61F1",
"~.	c #FF4600",
"{.	c #B61C48",
"].	c #5943A5",
"^.	c #70388E",
"/.	c #7A3484",
"(.	c #0E5FEF",
"_.	c #FFAE00",
":.	c #B61D48",
"<.	c #2059DE",
"[.	c #873078",
"}.	c #AB2053",
"|.	c #A5245A",
"1.	c #3550CA",
"2.	c #5245AC",
"3.	c #9A2966",
"4.	c #FFAD00",
"5.	c #B51D4A",
"6.	c #2C55D3",
"7.	c #ED0713",
"8.	c #FA0103",
"9.	c #F2050C",
"0.	c #5742A8",
"a.	c #F1060D",
"b.	c #EE0711",
"c.	c #FFA800",
"d.	c #B01F4F",
"e.	c #643D9B",
"f.	c #FF1000",
"g.	c #FFA000",
"h.	c #AD2053",
"i.	c #FF5C00",
"j.	c #FFA200",
"k.	c #AD2153",
"l.	c #FF9600",
"m.	c #FF8700",
"n.	c #FFB100",
"o.	c #B11F4D",
"p.	c #FF9100",
"q.	c #FF9400",
"r.	c #FFB200",
"s.	c #AD2152",
"t.	c #FF8500",
"u.	c #FF8E00",
"v.	c #FFB500",
"w.	c #B21D4C",
"x.	c #414CBF",
"y.	c #FF8300",
"z.	c #FF9200",
"A.	c #FFBA00",
"B.	c #DF0C20",
"C.	c #FF8A00",
"D.	c #FF9D00",
"E.	c #5145AF",
"F.	c #FFC500",
"G.	c #FF3600",
"H.	c #D70F29",
"I.	c #FF9800",
"J.	c #82337E",
"K.	c #424CBB",
"L.	c #3B50C5",
"M.	c #FF7900",
"N.	c #2457DA",
"O.	c #AC2155",
"P.	c #FF9500",
"Q.	c #484AB6",
"R.	c #2E53D2",
"S.	c #FFA100",
"T.	c #FF0300",
"U.	c #70398E",
"V.	c #FF9F00",
"W.	c #FF9A00",
"X.	c #FF9700",
"Y.	c #FF8F00",
"Z.	c #FF9E00",
"`.	c #FF8C00",
" +	c #FF7E00",
".+	c #FF5500",
"                                                                                                ",
"                                                                                                ",
"                                                                                                ",
"                                                                                                ",
"                                                                                                ",
"                                                                                                ",
"                                          . + . .                                               ",
"                                        + + + + + . . . . . + @ . +                             ",
"                                      . + . . . . . + + + + + + + + . . + + . . + .             ",
"                                      . . . . . . . . . . + . + + + + + + + + + + +             ",
"                                    . + + . . . . . . . . . . . . . . . . + + + . . +     . +   ",
"                                    . . . + + . . + . + . . . . . . . . . . + . . . . + . + @   ",
"                                      + . . . @ . . # $ % . . . . . . . + . + . . + . . + + +   ",
"                                              + + & * = - ; > , . . . . . . . . . . . . + .     ",
"                                              + ' ) ! ~ { ] ^ / ( . . . . . + . . . . + . +     ",
"                                          _ : < [ } | | | } 1 2 3 4 . + . . . . . . .           ",
"                                      + 5 6 7 8 9 0 a b } 9 } c d e f + . . . . .               ",
"                                @ . . . g h i } } j k l m n } o p q r . . . . .                 ",
"                          s + @ . . @ t u v n | m w x y z A l B C . . . . . .                   ",
"                  . + . . + + @ . . . D E F G H I J % K L M N O . . . . . @                     ",
"        + . . . + . + + + . . . . . P Q o n v R S +     . T U V . . . . .                       ",
"    + . . . + + + + . . . . . . . . W X j Y Z d   + + + . . . . . . . @                         ",
"    . + . + . . . . . . . . . + . `  ...+.@.#.! . + + . + . . . . .                             ",
"    + . . . . . . . . . . . . +     $.+.+.@.%.+ . + + + + . . @ +                               ",
"+ . . . . . . . . . . +             &.+.+.*.=.. . + + + + + +                                   ",
". . . . . . + . . .                 &.+.+.-.  + + + + . +                                       ",
"+ + . . + + @                       ;.+.+.>.  + + . .                                           ",
"  . .                               ,.+.+.'.    + @                                 . ).!..     ",
"                                    ~.+.+.{.    .                                 ].^.+.+./.(.  ",
"                                  _.+.+.+.:.                        <.[.}.|.1.  2.d +.+.+.+.3.  ",
"                                  4.+.+.+.5.                      6.7.8.+.+.9.0.a.+.+.+.+.+.b.z ",
"                                  c.+.+.+.d.                      e.+.+.+.+.+.+.f.+.+.    +.+.+.",
"                                  g.+.+.+.h.                      +.+.+.  +.+.+.i.+.+.    +.+.+.",
"                                  j.+.+.+.k.                    l.+.+.+.  +.+.m.f.+.+.    +.+.+.",
"                                  n.+.+.+.o.                +.+.p.+.+.    +.+.q.+.+.      +.+.+.",
"                                  r.+.+.+.s.              +.+.+.t.+.+.+.  +.+.u.+.+.      +.+.+.",
"                                  v.+.+.+.w.x.          +.+.+.+.y.+.+.+.  +.+.z.+.+.        +.  ",
"                                  A.+.+.+.+.B.+.      +.+.+.+.+.C.+.+.+.    +.D.+.+.        E.  ",
"                                  F.G.+.+.+.+.+.    +.+.+.+.+.+.l.+.+.+.    H.I.+.+.  J.K.L.    ",
"                                    M.+.+.+.+.+.+.+.+.+.+.+.+.  g.+.+.+.  N.O.P.+.+.Q.R.        ",
"                                    S.T.+.+.+.+.+.+.+.+.+.+.+.  D.+.+.U.@     q.+.+.            ",
"                                        +.+.+.+.+.+.+.+.+.+.    V.+.+.        q.+.+.            ",
"                                          +.+.+.+.+.+.+.+.      W.+.+.      +.X.+.+.            ",
"                                              +.+.+.+.+.        Y.+.+.        Z.+.+.            ",
"                                                                p.+.+.        `.+.+.            ",
"                                                                 ++.+.        .++.              ",
"                                                                                                ",
"                                                                                                "};
