/* XPM */
static char * infriend_xpm[] = {
"48 48 612 2",
"  	c None",
". 	c #FFFFFF",
"+ 	c #FEFFFF",
"@ 	c #FEFEFF",
"# 	c #E6F0FF",
"$ 	c #E3EEFF",
"% 	c #ABCDFF",
"& 	c #BDD7FF",
"* 	c #EAF3FF",
"= 	c #63A1FF",
"- 	c #1170FF",
"; 	c #1774FF",
"> 	c #086BFF",
", 	c #1673FF",
"' 	c #5F9FFF",
") 	c #D4E5FF",
"! 	c #B6D3FF",
"~ 	c #297FFF",
"{ 	c #0569FF",
"] 	c #0167FF",
"^ 	c #0066FF",
"/ 	c #0267FF",
"( 	c #0468FF",
"_ 	c #5297FF",
": 	c #FBFDFF",
"< 	c #D7E7FF",
"[ 	c #B8D5FF",
"} 	c #E8F1FF",
"| 	c #F0F6FF",
"1 	c #F9FCFF",
"2 	c #4E94FF",
"3 	c #0368FF",
"4 	c #0166FF",
"5 	c #63A2FF",
"6 	c #E2EEFF",
"7 	c #FDFEFF",
"8 	c #FCFDFF",
"9 	c #D1E4FF",
"0 	c #1975FF",
"a 	c #1271FF",
"b 	c #3283FF",
"c 	c #6BA6FF",
"d 	c #D4E6FF",
"e 	c #78AEFF",
"f 	c #0C6EFF",
"g 	c #4B93FF",
"h 	c #BCD6FF",
"i 	c #F3F7FF",
"j 	c #66A3FF",
"k 	c #5398FF",
"l 	c #418DFF",
"m 	c #2E82FF",
"n 	c #89B8FF",
"o 	c #D2E4FF",
"p 	c #F6FAFF",
"q 	c #EFF6FF",
"r 	c #2079FF",
"s 	c #1B76FF",
"t 	c #8DBBFF",
"u 	c #F3F8FF",
"v 	c #0469FF",
"w 	c #0268FF",
"x 	c #1573FF",
"y 	c #67A4FF",
"z 	c #8BBAFF",
"A 	c #B0CFFF",
"B 	c #DBE9FF",
"C 	c #B7D4FF",
"D 	c #3787FF",
"E 	c #0B6CFF",
"F 	c #68A5FF",
"G 	c #0065FF",
"H 	c #1C77FF",
"I 	c #68A4FF",
"J 	c #9FC6FF",
"K 	c #B5D3FF",
"L 	c #CAE0FF",
"M 	c #E0EDFF",
"N 	c #FBFCFF",
"O 	c #8CBAFF",
"P 	c #3F8CFF",
"Q 	c #A5C9FF",
"R 	c #F4F8FF",
"S 	c #4991FF",
"T 	c #076AFF",
"U 	c #0C6DFF",
"V 	c #1070FF",
"W 	c #217AFF",
"X 	c #60A0FF",
"Y 	c #88B7FF",
"Z 	c #C1DAFF",
"` 	c #408CFF",
" .	c #92BEFF",
"..	c #C4DCFF",
"+.	c #AECEFF",
"@.	c #84B5FF",
"#.	c #579BFF",
"$.	c #227BFF",
"%.	c #0A6CFF",
"&.	c #0E6FFF",
"*.	c #0067FF",
"=.	c #0E6EFF",
"-.	c #69A5FF",
";.	c #DFECFF",
">.	c #E9F2FF",
",.	c #94BFFF",
"'.	c #62A1FF",
").	c #287DFF",
"!.	c #096BFF",
"~.	c #0168FF",
"{.	c #0669FF",
"].	c #EBF3FF",
"^.	c #CBDFFF",
"/.	c #B9D5FF",
"(.	c #83B5FF",
"_.	c #4C93FF",
":.	c #0D6DFF",
"<.	c #086AFF",
"[.	c #005BE4",
"}.	c #0056D7",
"|.	c #4791FF",
"1.	c #C5DCFF",
"2.	c #F6F9FF",
"3.	c #B8D4FF",
"4.	c #7DB1FF",
"5.	c #4A92FF",
"6.	c #1A76FF",
"7.	c #205290",
"8.	c #132E4C",
"9.	c #3183FF",
"0.	c #AFD0FF",
"a.	c #F9FBFF",
"b.	c #C8CCD3",
"c.	c #75714B",
"d.	c #786613",
"e.	c #315EA2",
"f.	c #257CFF",
"g.	c #1372FF",
"h.	c #FDFCFC",
"i.	c #F4F1E3",
"j.	c #D2D1CC",
"k.	c #C4C2BC",
"l.	c #534F41",
"m.	c #46443F",
"n.	c #413E36",
"o.	c #635F4C",
"p.	c #685818",
"q.	c #826700",
"r.	c #948D6A",
"s.	c #CCD3DA",
"t.	c #A1B9D8",
"u.	c #6E97D5",
"v.	c #4488ED",
"w.	c #DAE8FF",
"x.	c #F5F9FF",
"y.	c #F6F5EE",
"z.	c #C6B364",
"A.	c #302B12",
"B.	c #2C2713",
"C.	c #69560B",
"D.	c #292104",
"E.	c #141001",
"F.	c #2A2304",
"G.	c #100E03",
"H.	c #443600",
"I.	c #51481C",
"J.	c #3A3E36",
"K.	c #2F352C",
"L.	c #343931",
"M.	c #788EA8",
"N.	c #98C1FF",
"O.	c #9CC3FF",
"P.	c #1572FF",
"Q.	c #428EFF",
"R.	c #BEB9A6",
"S.	c #554919",
"T.	c #110E00",
"U.	c #201900",
"V.	c #372C00",
"W.	c #221C00",
"X.	c #231C00",
"Y.	c #A28100",
"Z.	c #292100",
"`.	c #382E02",
" +	c #0C0A02",
".+	c #5A4800",
"++	c #090904",
"@+	c #7F6F19",
"#+	c #3E81CA",
"$+	c #3284FF",
"%+	c #3083FF",
"&+	c #3586FF",
"*+	c #267CFF",
"=+	c #066AFF",
"-+	c #0367FF",
";+	c #3888FF",
">+	c #5B9DFF",
",+	c #827851",
"'+	c #B49000",
")+	c #4F3F00",
"!+	c #2F2500",
"~+	c #272000",
"{+	c #2D2400",
"]+	c #3D3200",
"^+	c #705900",
"/+	c #574600",
"(+	c #A98800",
"_+	c #1B1600",
":+	c #4E4000",
"<+	c #0B0800",
"[+	c #414D41",
"}+	c #106BEC",
"|+	c #6B613A",
"1+	c #B08D00",
"2+	c #7D6400",
"3+	c #312600",
"4+	c #423400",
"5+	c #6B5600",
"6+	c #705A00",
"7+	c #5D4A00",
"8+	c #806700",
"9+	c #4B3C00",
"0+	c #5D4B00",
"a+	c #120E00",
"b+	c #08111B",
"c+	c #05429D",
"d+	c #F2F2F2",
"e+	c #927916",
"f+	c #A48200",
"g+	c #A07F00",
"h+	c #685400",
"i+	c #AA8700",
"j+	c #BF9800",
"k+	c #D3A900",
"l+	c #CCA300",
"m+	c #6A5500",
"n+	c #5F4C00",
"o+	c #614E00",
"p+	c #372B00",
"q+	c #151000",
"r+	c #3C3202",
"s+	c #44411C",
"t+	c #0C418B",
"u+	c #1472FF",
"v+	c #3687FF",
"w+	c #4A93FF",
"x+	c #3A89FF",
"y+	c #3485FF",
"z+	c #4E95FF",
"A+	c #DDEAFF",
"B+	c #FEFEFE",
"C+	c #DDCE8F",
"D+	c #907400",
"E+	c #A78600",
"F+	c #C29B00",
"G+	c #FFCC00",
"H+	c #D9AD00",
"I+	c #B89200",
"J+	c #C69F00",
"K+	c #F1C100",
"L+	c #7A6100",
"M+	c #A18100",
"N+	c #9B7C00",
"O+	c #322800",
"P+	c #624F00",
"Q+	c #BE9700",
"R+	c #67580E",
"S+	c #1A3147",
"T+	c #0455CF",
"U+	c #106FFF",
"V+	c #2B80FF",
"W+	c #5096FF",
"X+	c #7EB1FF",
"Y+	c #B4D2FF",
"Z+	c #E1EDFF",
"`+	c #F2F7FF",
" @	c #DAE9FF",
".@	c #ABCCFF",
"+@	c #ECECEC",
"@@	c #C3A93D",
"#@	c #D0A600",
"$@	c #D6AB00",
"%@	c #F9C700",
"&@	c #DBAF00",
"*@	c #A58400",
"=@	c #EBBC00",
"-@	c #C39D00",
";@	c #A48300",
">@	c #B59100",
",@	c #F0C000",
"'@	c #877012",
")@	c #4F5248",
"!@	c #88A0C4",
"~@	c #BED8FF",
"{@	c #D9E8FF",
"]@	c #DDD9CE",
"^@	c #AC8E16",
"/@	c #F5C400",
"(@	c #EFBF00",
"_@	c #7D670E",
":@	c #6E6B5F",
"<@	c #CDC5A2",
"[@	c #9A7C0A",
"}@	c #FECB00",
"|@	c #FECC00",
"1@	c #605119",
"2@	c #9F9F9F",
"3@	c #E8E8E8",
"4@	c #A0935C",
"5@	c #F4C404",
"6@	c #BA9500",
"7@	c #E8BA00",
"8@	c #BC9600",
"9@	c #EEBB03",
"0@	c #8E7203",
"a@	c #898264",
"b@	c #F0EFEF",
"c@	c #E3E3DF",
"d@	c #92813B",
"e@	c #F2C200",
"f@	c #BE9900",
"g@	c #CDA400",
"h@	c #C69408",
"i@	c #5F2A1A",
"j@	c #64281E",
"k@	c #E6B205",
"l@	c #5E511C",
"m@	c #D1CFCA",
"n@	c #E0DDD2",
"o@	c #897526",
"p@	c #F2C100",
"q@	c #D4A900",
"r@	c #EAB704",
"s@	c #BC850E",
"t@	c #BA9606",
"u@	c #5C5846",
"v@	c #C7C2B1",
"w@	c #947B15",
"x@	c #C19B00",
"y@	c #5D5639",
"z@	c #817C68",
"A@	c #C8A20D",
"B@	c #D4AA00",
"C@	c #C59E00",
"D@	c #63582B",
"E@	c #827D69",
"F@	c #C8A30D",
"G@	c #7C6400",
"H@	c #C49D00",
"I@	c #C69E00",
"J@	c #635625",
"K@	c #DDD9CA",
"L@	c #BA9A18",
"M@	c #FCCA00",
"N@	c #836900",
"O@	c #6F5900",
"P@	c #E3B600",
"Q@	c #F7C500",
"R@	c #C39C00",
"S@	c #5E5531",
"T@	c #DDDCD8",
"U@	c #7C6E35",
"V@	c #F0C101",
"W@	c #C09A00",
"X@	c #AD8A00",
"Y@	c #6A5600",
"Z@	c #B28F00",
"`@	c #C09902",
" #	c #585239",
".#	c #F9F9F9",
"+#	c #A9A288",
"@#	c #937707",
"##	c #FDCB00",
"$#	c #BB9600",
"%#	c #F6C500",
"&#	c #F4C300",
"*#	c #746114",
"=#	c #BAB7AD",
"-#	c #BABABA",
";#	c #7A6720",
">#	c #FFCB00",
",#	c #FFCA00",
"'#	c #DFB302",
")#	c #635A35",
"!#	c #D5D5D5",
"~#	c #827959",
"{#	c #8D7200",
"]#	c #FF525A",
"^#	c #FF7640",
"/#	c #FFA91B",
"(#	c #FF6A3D",
"_#	c #FF5F00",
":#	c #FFC100",
"<#	c #CEA400",
"[#	c #625319",
"}#	c #9A9890",
"|#	c #82817D",
"1#	c #8C720C",
"2#	c #FFCB01",
"3#	c #FF2268",
"4#	c #FF0978",
"5#	c #FF0B85",
"6#	c #FF1B7F",
"7#	c #FF4266",
"8#	c #FF1C7C",
"9#	c #FF2558",
"0#	c #FF412E",
"a#	c #FF4A4A",
"b#	c #FF7800",
"c#	c #CEA500",
"d#	c #715E12",
"e#	c #626057",
"f#	c #E5E5E5",
"g#	c #6F6439",
"h#	c #B69200",
"i#	c #FFAD00",
"j#	c #FF2033",
"k#	c #FF0480",
"l#	c #FF0776",
"m#	c #FF097F",
"n#	c #FF0681",
"o#	c #FF067A",
"p#	c #FF2022",
"q#	c #FF9600",
"r#	c #E1B400",
"s#	c #6E5A0B",
"t#	c #65604E",
"u#	c #FCF8FF",
"v#	c #8D768E",
"w#	c #A26849",
"x#	c #DC9641",
"y#	c #E7A531",
"z#	c #F5BD13",
"A#	c #F4BA17",
"B#	c #FDB804",
"C#	c #FFAC05",
"D#	c #FF8209",
"E#	c #FF8D06",
"F#	c #FFBA00",
"G#	c #D2A800",
"H#	c #6D5A0F",
"I#	c #7E775E",
"J#	c #E9E9E8",
"K#	c #FBF7FF",
"L#	c #E4CAFF",
"M#	c #C082FF",
"N#	c #A044F4",
"O#	c #8115D6",
"P#	c #891AD2",
"Q#	c #A63DB3",
"R#	c #DA914A",
"S#	c #E5A334",
"T#	c #F9C30B",
"U#	c #FECB01",
"V#	c #CBA200",
"W#	c #736117",
"X#	c #765C76",
"Y#	c #D5C6E3",
"Z#	c #E9D4FF",
"`#	c #A750FF",
" $	c #860EFF",
".$	c #8308FC",
"+$	c #8306F7",
"@$	c #8306F6",
"#$	c #8816D8",
"$$	c #C26A79",
"%$	c #E6A52F",
"&$	c #FCC706",
"*$	c #F7C00F",
"=$	c #FBC706",
"-$	c #755E02",
";$	c #6F6027",
">$	c #6F4A8F",
",$	c #AF63FE",
"'$	c #A64DFF",
")$	c #EFDDFF",
"!$	c #D4ABFF",
"~$	c #9327FF",
"{$	c #8105FF",
"]$	c #850AFB",
"^$	c #860AF3",
"/$	c #870DF1",
"($	c #9D31C8",
"_$	c #B0637A",
":$	c #8F3F91",
"<$	c #81388D",
"[$	c #774F4B",
"}$	c #73572F",
"|$	c #783679",
"1$	c #772C8A",
"2$	c #79269B",
"3$	c #7727A6",
"4$	c #885CA1",
"5$	c #AE83D6",
"6$	c #B46AFF",
"7$	c #9B38FF",
"8$	c #8F1EFF",
"9$	c #A244FB",
"0$	c #EBD4F4",
"a$	c #D2A5FF",
"b$	c #982FFF",
"c$	c #8914FF",
"d$	c #9225F5",
"e$	c #860BFC",
"f$	c #8A15FE",
"g$	c #9B35F0",
"h$	c #C37AC3",
"i$	c #A646CE",
"j$	c #9C43D2",
"k$	c #9549D7",
"l$	c #9046DA",
"m$	c #8720EE",
"n$	c #8617F6",
"o$	c #8A20F5",
"p$	c #8B28EF",
"q$	c #B267FF",
"r$	c #B266FF",
"s$	c #9225FF",
"t$	c #9833FE",
"u$	c #9021F7",
"v$	c #9831F8",
"w$	c #A953FF",
"x$	c #E6CCFF",
"y$	c #F2E4FF",
"z$	c #C084FF",
"A$	c #9A35FE",
"B$	c #8813FF",
"C$	c #8307FF",
"D$	c #9F40FF",
"E$	c #B062FF",
"F$	c #9123FE",
"G$	c #901EFE",
"H$	c #962EFF",
"I$	c #9731FF",
"J$	c #9428FF",
"K$	c #9D3BFF",
"L$	c #A044FF",
"M$	c #B56CFF",
"N$	c #AC5AFF",
"O$	c #9830FC",
"P$	c #9121EF",
"Q$	c #A243F0",
"R$	c #952CFF",
"S$	c #952DFF",
"T$	c #CD9DFF",
"U$	c #DFC0FF",
"V$	c #B468FF",
"W$	c #BF7EFB",
"X$	c #9830FB",
"Y$	c #9932FC",
"Z$	c #9E3CFA",
"`$	c #9C37F9",
" %	c #8C16F8",
".%	c #8A13F5",
"+%	c #8C18F6",
"@%	c #9222EC",
"#%	c #A13FDF",
"$%	c #B35DCD",
"%%	c #BA68C0",
"&%	c #B160F3",
"*%	c #972FFF",
"=%	c #DDBBFF",
"-%	c #FAF6FF",
";%	c #F7F0FF",
">%	c #F3E8FF",
",%	c #C185FF",
"'%	c #8F21FB",
")%	c #8F1EF7",
"!%	c #982FF3",
"~%	c #9325F3",
"{%	c #8D18EE",
"]%	c #8F1CEF",
"^%	c #9B35F1",
"/%	c #9227FD",
"(%	c #9B36F7",
"_%	c #B96DE6",
":%	c #BC79FC",
"<%	c #B164FF",
"[%	c #9C39FF",
"}%	c #A74EFF",
"|%	c #DEBCFF",
"1%	c #FAF4FF",
"2%	c #F9F2FF",
"3%	c #B369FF",
"4%	c #8E1EFF",
"5%	c #8E1CFF",
"6%	c #A44AFF",
"7%	c #9123FF",
"8%	c #8D1CFF",
"9%	c #9328FF",
"0%	c #A64BFB",
"a%	c #A449FF",
"b%	c #A955FF",
"c%	c #BF82FF",
"d%	c #DAB6FF",
"e%	c #D2A7FF",
"f%	c #C488FF",
"g%	c #FCFAFF",
"h%	c #FEFBFF",
"i%	c #DAB8FF",
"j%	c #B264FF",
"k%	c #A346FF",
"l%	c #AC59FF",
"m%	c #9B37FF",
"n%	c #A144FF",
"o%	c #CC99FF",
"p%	c #D8B2FF",
"q%	c #DDBAFF",
"r%	c #EDDAFF",
"s%	c #F4EBFF",
"t%	c #F3E9FF",
"u%	c #F9F4FF",
". . . . . . . . . . . . . . . . . . . . . . . . . . . . + @ . . . . . . . . . . . . . . . . . . ",
". . . . . . . . . . . . . . . . . . . . . . . . . . # $ % & . . . . . . . . . . . . . . . . . . ",
". . . . . . . . . . . . . . . . . . . . . . . . * = - ; > , ' ) . . . . . . . . . . . . . . . . ",
". . . . . . . . . . . . . . . . . . . . . . . ! ~ { ] ^ ^ / ( _ * . . . . . . . . . . . . . . . ",
". . . : < [ } | + . . . . . . . . . . . . . 1 2 3 4 ^ ^ ^ 4 / { 5 6 . . . . . . . . . . . . . . ",
". 7 8 9 0 ; a b c d 7 @ . . . . . . . . . . . e f / ^ ^ ^ ^ ^ / 3 g h i . . . . . . . . . . . . ",
"i j k l ( / / 3 3 m _ n o p . . . . . . . . . q n r / ^ ^ ^ ^ ^ 4 / s t 8 . . . . . . . . . . . ",
"u v w ] ^ 4 ^ 4 4 / / 3 x y z A B u . . . . . . . C D / ^ ^ ^ ^ ^ 4 / E F < . . . . . . . . . . ",
"' 4 ^ ^ ^ ^ ^ ^ ^ ^ G G w 3 { E H I J K L M u 7 . N O w ^ G ^ ^ ^ ^ ] / ( P Q R . . . . . . . . ",
"S T ( / ^ ^ ^ ^ ^ ^ G ^ ^ ^ ] 4 / 3 ( U V W X Y K Z ` w 4 ^ ^ G ^ ^ ^ 4 / / s  .+ . . . . . . . ",
"..+.@.#.$./ ^ ^ ^ ^ ^ ^ ^ ^ ^ ^ ^ ] ] / 3 / / 3 %.&.&.{ w ] ^ ] *.^ ^ ^ ^ / / =.-.;.. . . . . . ",
". . . . >.,.'.).!.~.{.] ^ ^ ^ ^ ^ ^ ^ ^ ^ ^ ] 4 4 / ] / 4 ^ G ^ ^ 4 ^ ^ ^ ^ 4 / E '.].. . . . . ",
". . . . . . . . R ^./.(._.:.<./ ^ ^ [.}.^ ^ ^ ^ ^ ^ ^ 4 / ^ ^ ^ ^ ^ ^ ^ ^ ^ ^ ] 4 { |.1.. . . . ",
". . . . . . . . . . . . . 2.3.4.5.6.7.8.^ ^ ^ ^ ^ ^ ^ ^ ^ ^ ^ ^ ^ ^ ^ ^ ^ ^ ^ ^ G 4 / 9.0.R . . ",
". . . . . . . . . . . . . . . @ a.b.c.d.e.f.g.T 4 4 G ^ ^ ^ G ^ ^ ^ ^ ^ ^ ^ ^ ^ ^ G / 4 !.4.. . ",
". . . . . . . . . . h.i.j.k.l.m.n.o.p.q.r.s.t.u.v.~ a > / 3 4 ^ ^ ^ G ^ ^ ^ ^ ^ ^ ] ^ ^ , w.x.. ",
". . . . . . . . . . y.z.A.B.C.D.E.F.G.H.I.J.K.L.M.N.O.' D m P.%.w ~.^ *.^ ^ *.^ ^ ^ ^ ^ Q.8 . . ",
". . . . . . . . . . R.S.T.U.V.W.X.Y.Z.Z.`. +.+++@+#+~ $+%+&+*+; =+-+^ G ^ ^ G G ^ ^ G ^ ] ;+>+Q ",
". . . . . . . . . . ,+'+)+!+~+{+X.]+^+/+(+_+:+<+[+}+/ ^ ^ ] 4 ] ^ ^ ^ ^ G ^ ^ ^ G ^ ^ ^ ^ / / { ",
". . . . . . . . . . |+1+2+V.3+4+5+6+'+7+8+9+0+a+b+c+^ ^ ^ ^ ^ ^ ^ ^ ^ ^ ^ ^ ^ ^ ^ ^ ^ ^ ] / U I ",
". . . . . . . . . d+e+f+g+h+i+5+j+k+l+m+n+o+p+q+r+s+t+^ ^ ^ ^ ^ ^ ^ ^ ^ ^ ] u+v+w+x+y+r > - z+A+",
". . . . . . . . B+C+D+E+F+G+G+H+I+J+K+L+M+N+O+P+Q+G+R+S+T+/ / -+> U+V+W+X+Y+Z+>.`+a.a..  @.@;.+ ",
". . . . . . . . +@@@#@$@%@G+G+&@*@=@G+G+G+-@;@>@G+G+,@'@)@!@J ~@{@ @].x.8 @ . . . . . . . . . . ",
". . . . . . . . ]@^@G+G+G+G+G+/@(@G+G+G+G+G+G+G+G+G+G+=@_@:@. . . . . . . . . . . . . . . . . . ",
". . . . . . . . <@[@G+}@G+G+G+G+G+G+G+G+|@}@G+G+G+G+G+G+G+1@2@. . . . . . . . . . . . . . . . . ",
". . . . . . . 3@4@5@G+6@7@G+G+G+G+G+G+G+&@8@9@G+G+G+G+G+G+0@a@b@. . . . . . . . . . . . . . . . ",
". . . . . . . c@d@e@G+f@g@G+G+G+G+G+G+G+h@i@j@k@G+G+G+G+G+,@l@m@. . . . . . . . . . . . . . . . ",
". . . . . . . n@o@p@G+q@g@G+G+G+G+G+G+G+}@r@s@G+G+G+G+G+G+}@t@u@. . . . . . . . . . . . . . . . ",
". . . . . . . v@w@/@G+G+G+G+G+G+G+G+G+G+G+G+G+G+G+G+G+G+G+G+x@y@. . . . . . . . . . . . . . . . ",
". . . . . . . z@A@G+G+G+G+G+G+G+B@G+G+G+G+G+G+G+G+G+G+G+G+G+C@D@. . . . . . . . . . . . . . . . ",
". . . . . . . E@F@G+G+G+G+G+G+N+G@H@G+G+G+G+G+G+G+G+G+G+G+G+I@J@. . . . . . . . . . . . . . . . ",
". . . . . . . K@L@M@G+G+G+G+G+N@O@P@Q@G+G+G+G+G+G+G+G+G+G+G+R@S@. . . . . . . . . . . . . . . . ",
". . . . . . . T@U@V@G+G+G+G+G+W@X@Y@Z@&@=@%@G+G+G+G+G+G+G+G+`@ #. . . . . . . . . . . . . . . . ",
". . . . . . . .#+#@#G+G+G+G+G+G+##P@$#f@P@%#G+G+G+G+G+G+G+&#*#=#. . . . . . . . . . . . . . . . ",
". . . . . . . . -#;#K+G+G+G+>#G+G+G+G+G+G+G+G+>#,#G+G+G+G+'#)#!#. . . . . . . . . . . . . . . . ",
". . . . . . . . . ~#{#G+G+G+]#^#G+G+G+G+G+/#(#_#:#G+G+G+<#[#}#. . . . . . . . . . . . . . . . . ",
". . . . . . . . . |#1#G+G+2#3#4#5#6#7#8#9#0#a#b#G+G+G+c#d#e#f#. . . . . . . . . . . . . . . . . ",
". . . . . . . . . . g#h#G+G+i#j#k#l#m#n#o#p#q#G+G+G+r#s#t#. . . . . . . . . . . . . . . . . . . ",
". . . . . . . . . u#v#w#x#y#z#A#B#C#D#E#F#G+G+G+G+G#H#I#J#. . . . . . . . . . . . . . . . . . . ",
". . . . . . . K#L#M#N#O#P#Q#R#S#T#U#G+G+G+G+G+G+V#W#X#Y#. . . . . . . . . . . . . . . . . . . . ",
". . . . . . . Z#`# $.$+$@$#$$$y#%$&$G+*$=$G+G+-$;$>$,$'$)$. . . . . . . . . . . . . . . . . . . ",
". . . . . . . !$~${$]$^$/$($_$:$<$[$}$|$1$2$3$4$5$6$7$8$9$0$. . . . . . . . . . . . . . . . . . ",
". . . . . . . a$b$c$d$e$f$g$h$i$j$k$l$m$n$o$p$q$r$s$t$u$v$w$x$. . . . . . . . . . . . . . . . . ",
". . . . . . . u#y$z$A$B$C$D$E$F$G$H$I$c$J$K$L$M$N$O$P$Q$R$S$T$. . . . . . . . . . . . . . . . . ",
". . . . . . . . . . . U$V$r$W$X$Y$Z$`$ %.%+%@%#%$%%%&%K$*%N$=%-%. . . . . . . . . . . . . . . . ",
". . . . . . . . . . . ;%>%;%,%'%)%!%~%{%]%^%/%(%_%:%<%[%}%|%1%. . . . . . . . . . . . . . . . . ",
". . . . . . . . . . . . . 2%3%4%5%6%7%8%9%0%a%b%c%d%e%f%|%g%. . . . . . . . . . . . . . . . . . ",
". . . . . . . . . . . . . h%i%j%k%l%m%n%o%p%q%r%s%t%Z#u%. . . . . . . . . . . . . . . . . . . . "};
