/* XPM */
static char *inoutparam[] = {
/* columns rows colors chars-per-pixel */
"48 48 194 2",
"   c #0E6EEE",
".  c #0466F5",
"X  c #0365FC",
"o  c #046AF4",
"O  c #0469FC",
"+  c #0A67F4",
"@  c #0966FD",
"#  c #0B6BF3",
"$  c #0B6BFC",
"%  c #0571F9",
"&  c #0F73F4",
"*  c #0D71FC",
"=  c #1067FA",
"-  c #136CF4",
";  c #126CFA",
":  c #1A6EF2",
">  c #186DFA",
",  c #1171EA",
"<  c #1D73EC",
"1  c #1571F4",
"2  c #1372FC",
"3  c #1478FD",
"4  c #1C72F4",
"5  c #1A73FB",
"6  c #1B79F5",
"7  c #1C7AFC",
"8  c #216FF7",
"9  c #2373EE",
"0  c #2479ED",
"q  c #2A75EB",
"w  c #2D7CE2",
"e  c #2978EA",
"r  c #2374F3",
"t  c #2275FB",
"y  c #237BF3",
"u  c #237BFC",
"i  c #2B75F1",
"p  c #2977FB",
"a  c #2B7BF3",
"s  c #2A7DFB",
"d  c #317DE6",
"f  c #327CEB",
"g  c #3B7CE5",
"h  c #397DE9",
"j  c #317EF4",
"k  c #357DFB",
"l  c #4179DE",
"z  c #1D81FE",
"x  c #2F80E3",
"c  c #2581FD",
"v  c #2D82F5",
"b  c #2B82FC",
"n  c #2D8CFE",
"m  c #3481EC",
"M  c #3C81EB",
"N  c #3382F3",
"B  c #3383FC",
"V  c #348AFD",
"C  c #3A84F3",
"Z  c #3985FB",
"A  c #3C8BF3",
"S  c #3A8BFC",
"D  c #3C90EF",
"F  c #3390FF",
"G  c #3C91FD",
"H  c #4286E4",
"J  c #4485EB",
"K  c #4189EE",
"L  c #4885E6",
"P  c #4C89E3",
"I  c #4D8CEC",
"U  c #4282F3",
"Y  c #438BF4",
"T  c #428CFC",
"R  c #4F84F2",
"E  c #4D8CF0",
"W  c #4B8DFB",
"Q  c #4E91ED",
"!  c #4392FD",
"~  c #4599FE",
"^  c #4C91F5",
"/  c #4B92FD",
"(  c #4E9BFE",
")  c #528BEB",
"_  c #558FF3",
"`  c #5493EC",
"'  c #5B95EC",
"]  c #5B9BED",
"[  c #5394F3",
"{  c #5295FC",
"}  c #539AFC",
"|  c #5995F3",
" . c #5A97F8",
".. c #589CF6",
"X. c #5B9CFE",
"o. c #55A1FD",
"O. c #5CA3FB",
"+. c #5AAAFE",
"@. c #6395EE",
"#. c #6499EC",
"$. c #6B9AEA",
"%. c #649AF1",
"&. c #649DFC",
"*. c #6A9CF2",
"=. c #749CEB",
"-. c #64A1EE",
";. c #6EA0E9",
":. c #65A2F3",
">. c #65A3FE",
",. c #67A8FE",
"<. c #6BA2F3",
"1. c #6BA4FC",
"2. c #6CA9FA",
"3. c #64B0FF",
"4. c #69B0FF",
"5. c #74A2EA",
"6. c #76A8ED",
"7. c #7DA7E9",
"8. c #70A3F1",
"9. c #73A5FA",
"0. c #72A8F0",
"q. c #71ABFB",
"w. c #7AA2F0",
"e. c #79A7F9",
"r. c #7DAEF2",
"t. c #7DACFA",
"y. c #74B1FC",
"u. c #7DB2F6",
"i. c #7DB2FD",
"p. c #83AEEB",
"a. c #8EAFE7",
"s. c #85B8EF",
"d. c #83B2F3",
"f. c #82B3FD",
"g. c #83BBFD",
"h. c #8AB3F4",
"j. c #8BB4F9",
"k. c #8CBAF6",
"l. c #8ABCFB",
"z. c #96BCF6",
"x. c #93BEFB",
"c. c #9BBFF5",
"v. c #9CBFFE",
"b. c #A2BFF2",
"n. c #80C1FF",
"m. c #8DC0F7",
"M. c #8BC3FE",
"N. c #93C2FC",
"B. c #99C6FF",
"V. c #9DC8FD",
"C. c #A5C6F2",
"Z. c #A7C7F8",
"A. c #A2CAFC",
"S. c #AAC7F3",
"D. c #AACCF5",
"F. c #AACCFE",
"G. c #A0D0FF",
"H. c #ABD1FE",
"J. c #ACD8FF",
"K. c #B8CFFB",
"L. c #B1D2FE",
"P. c #B3DAFE",
"I. c #BFD6F4",
"U. c #BAD7FC",
"Y. c #BED8F6",
"T. c #BADBFF",
"R. c #B7E1FE",
"E. c #BEE0FE",
"W. c #C6DAF5",
"Q. c #C2DCFD",
"!. c #C9DDFD",
"~. c #D2D7F4",
"^. c #C4E1FE",
"/. c #C5E9FF",
"(. c #CEE5F7",
"). c #CAE2FD",
"_. c #CBE9FE",
"`. c #C7F0FF",
"'. c #D4E6FE",
"]. c #D3ECFE",
"[. c #DAE6F6",
"{. c #D9E3FD",
"}. c #DBEEFF",
"|. c #D4F2FF",
" X c #DBF3FE",
".X c #E2EBFE",
"XX c #E5F4FF",
"oX c #E5F9FF",
"OX c #EBF4FE",
"+X c #ECFAFF",
"@X c #F3F6FB",
"#X c #F4FDFE",
"$X c #FDFDF6",
"%X c #FEFEFE",
/* pixels */
"%X%X%X%X%X%X%X%X%X%X%X%X#X%X%X#X%X%X%X@X%X@X%X%X%X+X%X%X%X%X%X#X%X%X%X%X%X%X%X%X%X%X%X%X%X%X%X%X",
"%X%X%X%X%X%X%X%X%X$X%X%X%X%X%X%X%X$X$X$X%XOX#X].T.Z.).#X$X$X%X%X$X$X%X%X%X$X%X%X%X%X%X%X%X%X%X%X",
"%X%X%X%X%X%X%X%X%X#X#X%X%X%X%X%X%X%X$X#X[.).C.k.u.f.p.E.oX$X$X$X%X%X%X$X$X$X%X%X%X%X%X%X%X%X%X%X",
"%X%X%X%X%X%X%X%X%X%X%X%X%X%X%X$X#XoX!.U.P.F.j.f.M.t.B.k.8.F.#X#X%X%X%X%X#X%X%X%X%X%X%X%X%X%X%X%X",
"%X%X%X%X%X%X%X%X%X%X%X%X%X$X%X|.l.L R *.N.G.#.1.,.q.M.f.^ w -.].%X%X%X%X%X%X%X%X%X%X%X%X%X%X%X%X",
"%X%X%X%X%X%X%X%X%X#X$X$X%X#XH.) C G T T W { { ! ! Y T U ! u q e._.#X$X%X%X%X%X%X%X%X%X%X%X%X%X%X",
"%X%X%X%X%X%X%X%X%X%X%X%X+Xj.U Z Z p : > - b V 0 G G 5 ; $ b k k y./.#X%X$X%X%X%X%X%X%X%X%X%X%X%X",
"%X%X%X%X%X%X%X%X%X%X%X X;.w ~ a t 5 - c u t 4 - V p 5 * O . 1 > S | c.oX%X$X%X%X%X%X%X%X%X%X%X%X",
"%X%X%X%X%X%X%X%X%X%XXX=.d V 7 u : V n 7 5 - t Z / G , $ ; O o O @ 5 q t._.%X#X%X%X%X%X%X%X%X%X%X",
"%X%X%X%X%X%X%X%X#XoX9.j z O $ 3 c s ! N A Z ! {  .2.} r ; $ O O X O @ r *.].%X%X%X%X%X%X%X%X%X%X",
"%X%X%X%X%X%X%X%X+Xw.k 7 o * 5 5 4 m ..y.1.,.Y A q.f.g.X.A 4 $ O O . X O s ;.oX%X%X%X%X%X%X%X%X%X",
"%X%X%X%X%X%X%X%XS.J u & # t p a ..g.*.i. .( B 6 W 1.>.[ W >.} e ; . O O 2 x H.%X%X%X%X%X%X%X%X%X",
"%X%X%X%X%X%X%X%X_.8.f A M h -.V.|.p.1.{ V v n ; s B ( A u W l.R.$.q $ $ r ) '.#X$X%X%X%X%X%X%X%X",
"%X%X%X%X%X%X%X%X#XXXU._.).Q.XX%X_.P } s u 5 2 O > 5 B B * t I |.+XL.I } =.!.#X%X#X%X%X%X%X%X%X%X",
"%X%X%X%X%X%X%X%X$X%X%X%X%X%X%X#Xd.N V 4 u 5 $ $ * 3 8 T # 3 a k.#X#X X(.@X%X#X%X%X%X%X%X%X%X%X%X",
"%X%X%X%X%X%X%X%X%X%X%X#X%X$X@X}.I G y   b ; @ O 5 5 7 S # 7 t I ].$X$X#X%X%X%X%X%X%X%X%X%X%X%X%X",
"%X%X%X%X%X%X%X%X$X%X$X#X%X%X%XA.W T y : V $ $ $ 7 b n n - t b ! H.%X$X%X%X$X%X#X$X%X%X%X%X%X%X%X",
"%X%X%X%X%X%X%X%X%X%X%XoXY.}.#X0.B a y b G $ 2 * 5 b y b r p V e l.}..XXX#X$X%X%X$X%X%X%X%X%X%X%X",
"%X%X%X%X%X%X%X%X%X$XOXm...7.|.` / S n s v ; 3 $ 5 G G G B 5 b N >.:.#.r.W.%X%X#X%X%X%X%X%X%X%X%X",
"%X%X%X%X%X%X%X%X%X%X!.H 0 K n.M V b 6 n s ; $ X @ B B s > ; # b V : s I T.%X%X%X%X%X%X%X%X%X%X%X",
"%X%X%X%X%X%X%X%X%X$X XJ b b b Z 4 ; O 3 b $ O O @ # 6 5 $ X # s 2 $ t [ oX%X%X%X%X%X%X%X%X%X%X%X",
"%X%X%X%X%X%X%X%X%X%X#X%.B b $ s = O X $ 3 . O O X . v 5 $ O * 7 $ O 6 r.#X%X%X%X$X%X%X%X%X%X%X%X",
"%X%X%X%X%X%X%X%X%X$X%Xv.j 5 + * $ $ O $ ; $ O X O O b 3 O O 3 2 O O < F.#X%X%X%X%X%X%X%X%X%X%X%X",
"%X%X%X%X%X%X%X%X%X#X%X!.M # O O 7 * O $ 5 $ O O X O u > $ . 7 u X O 1 F.%X$X%X%X%X%X%X%X%X%X%X%X",
"%X%X%X%X%X%X%X%X%X#X#XOX&.o O O c # @ $ 7 2 X X O O 5 # O O z 3 @ O 1 l.%X%X#X%X%X%X%X%X%X%X%X%X",
"%X%X%X%X%X%X%X%X%X%X$X%Xt.# . $ c $ O O F ; @ @ X $ $ * $ O $ 2 $ $ u %.oX%X%X%X%X%X%X%X%X%X%X%X",
"%X%X%X%X%X%X%X%X%X%X%X#X1.# O 5 5 . @ $ b 1 = O O O 2 b - + 4 p s $ 7 J }.$X%X%X%X%X%X%X%X%X%X%X",
"%X%X%X%X%X%X%X%X%X$X%X}.$.r - B V $ ; 7 a V u O . * 5 V s s ~ B B t v P !.%X%X%X%X%X%X%X%X%X%X%X",
"%X%X%X%X%X%X%X%X%X%X%XOXT.k.{ B G - b G B } V - * 7 1 a b b ~ ! Y :.<.Z.+X%X%X%X%X%X%X%X%X%X%X%X",
"%X%X%X%X%X%X%X%X%X%X$X%X%X+XN.C b B u ! a / a 7 2 u - n V p a Z P /.].#X%X%X%X$X%X%X%X%X%X%X%X%X",
"%X%X%X%X%X%X%X%X%X%X#X%X$X%X!.[ p b > u V s t 7 2 $   G 7 u a A $.#X%X%X$X%X%X%X%X%X%X%X%X%X%X%X",
"%X%X%X%X%X%X%X%X$X%X$X%X%X%XoX<.0 V $ s F p p 7 + $ $ b 5 p ! Y A.%X$X%X%X%X%X%X%X%X%X%X%X%X%X%X",
"%X%X%X%X%X%X%X%X%X$X$X%X%X%X#XN.q 7 2 5 V 2 5 2 # $ ; n 5 y ! )  X%X$X%X%X%X$X%X%X%X%X%X%X%X%X%X",
"%X%X%X%X%X%X%X%X%X#X X).!.#X#X}.[ t *   S 4 3 * . 2 5 b t S h j.%X%X#X+X%X#X+X#X%X%X%X%X%X%X%X%X",
"%X%X%X%X%X%X%X%X#XL.%.{ h u.].#XH.h t : ( m 6 2 % 5 t B s +.) ).#X}.N.5.H.d.5.Q.#X%X%X%X%X%X%X%X",
"%X%X%X%X%X%X%X%X).I 7 . * - h x./.q.Z < +.W T u & b Z / X.<.m._.N.` a r y 6 s ` I.#X%X%X%X%X%X%X",
"%X%X%X%X%X%X%X%XU.g 5 X X O O 1 k O.+.! ,.&.y.T a k 1.9.g.:.q.J r 5 c * $ p b #.}.%X%X%X%X%X%X%X",
"%X%X%X%X%X%X%X%X@Xf.B > X X . O @ 2 u G q.e.g.4.D A i.2.4.o.T > 5 u % o r B [ ).%X%X%X%X%X%X%X%X",
"%X%X%X%X%X%X%X%X%X}.q.q $ X O X X * $ - m X.2.} } G S e v Z B V p ; $ 5 B E E.#X%X%X%X%X%X%X%X%X",
"%X%X%X%X%X%X%X%X%X#X XN.j 2 $ . X . ; 2 # 6 ( W k t . ; v u S 4 y b a B M T.%X$X%X%X%X%X%X%X%X%X",
"%X%X%X%X%X%X%X%X%X%X$X#XF.l ( 6 3 = $ * * 3 a V 4 > 7 s a ; = t y S Y g T.#X#X%X%X%X%X%X%X%X%X%X",
"%X%X%X%X%X%X%X%X%X%X#X%X%X!.N.^ t B & o 2 5 S ! 0 V b - 3 5 7 V Z f @.!.#X$X%X%X%X%X%X%X%X%X%X%X",
"%X%X%X%X%X%X%X%X%X%X%X%X%X#X|.N.C 7 S Z j C Z ( C ! W T f G ~ m W $.oX%X%X%X%X%X%X%X%X%X%X%X%X%X",
"%X%X%X%X%X%X%X%X%X%X%X%X$X$X%XoXs.w i 2.5.M.>.O.| q.V.A.g.I g ' J.+X#X$X%X%X%X%X%X%X%X%X%X%X%X%X",
"%X%X%X%X%X%X%X%X%X%X$X%X%X%X%X$X#XT.' @.V.g.y.t.<.y.J.D.Z.F.).#X$X$X%X%X%X%X%X%X%X%X%X%X%X%X%X%X",
"%X%X%X%X%X%X%X%X%X%X%X%X%X%X%X%X%X%XoX!.F.d.6.z.h.z.'.[.OX#X#X%X%X%X%X%X$X$X%X%X%X%X%X%X%X%X%X%X",
"%X%X%X%X%X%X%X%X$X$X%X%X%X%X%X%X%X%X$X%X.Xb.V.a.W.XX~.#X%X#X%X$X%X%X%X%X%X%X%X%X%X%X%X%X%X%X%X%X",
"%X%X%X%X%X%X%X%X%X%X%X%X%X%X%X%X$X$X%X%X%XoX).OX@X%X%X#X%X%X%X%X%X$X%X%X%X%X$X%X%X%X%X%X%X%X%X%X"
};
