/* XPM */
static char * InternalTransition_xpm[] = {
"48 48 660 2",
"  	c #FFFFFF",
". 	c #FFFEFE",
"+ 	c #FFF1F1",
"@ 	c #FFE4E4",
"# 	c #FFDBDB",
"$ 	c #FFDCDC",
"% 	c #FFDADA",
"& 	c #FFDEDE",
"* 	c #FFF8F8",
"= 	c #FFFBFB",
"- 	c #FFF2F2",
"; 	c #FFE9E9",
"> 	c #FFE7E7",
", 	c #FFEFEF",
"' 	c #FFFDFD",
") 	c #FFD2D2",
"! 	c #FF6767",
"~ 	c #FF4B4B",
"{ 	c #FF3333",
"] 	c #FF2929",
"^ 	c #FF2A2A",
"/ 	c #FF1B1B",
"( 	c #FF1E1E",
"_ 	c #FF2323",
": 	c #FF1414",
"< 	c #FF9A9A",
"[ 	c #FFA1A1",
"} 	c #FF4141",
"| 	c #FF3939",
"1 	c #FF3636",
"2 	c #FF3C3C",
"3 	c #FF2F2F",
"4 	c #FF5151",
"5 	c #FFB0B0",
"6 	c #FFF5F5",
"7 	c #FF5252",
"8 	c #FF3131",
"9 	c #FF2E2E",
"0 	c #FF3232",
"a 	c #FF2D2D",
"b 	c #FF2020",
"c 	c #FF2222",
"d 	c #FF2727",
"e 	c #FF1818",
"f 	c #FF5B5B",
"g 	c #FFD9D9",
"h 	c #FFB8B8",
"i 	c #FF6464",
"j 	c #FF2C2C",
"k 	c #FF2525",
"l 	c #FF2626",
"m 	c #FF3030",
"n 	c #FF3A3A",
"o 	c #FF3F3F",
"p 	c #FF8080",
"q 	c #FFE3E3",
"r 	c #FF4A4A",
"s 	c #FF3B3B",
"t 	c #FF5454",
"u 	c #FF5858",
"v 	c #FF0C0C",
"w 	c #FF1111",
"x 	c #FF1919",
"y 	c #FF2B2B",
"z 	c #FF3838",
"A 	c #FF4545",
"B 	c #FF4848",
"C 	c #FFB1B1",
"D 	c #FFECEC",
"E 	c #FF3434",
"F 	c #FF3E3E",
"G 	c #FF4040",
"H 	c #FF6060",
"I 	c #FF8585",
"J 	c #FFA6A6",
"K 	c #FFADAD",
"L 	c #FF9E9E",
"M 	c #FF9797",
"N 	c #FF9C9C",
"O 	c #FF6A6A",
"P 	c #FF5959",
"Q 	c #FF1C1C",
"R 	c #FF1515",
"S 	c #FF4949",
"T 	c #FF3D3D",
"U 	c #FF4444",
"V 	c #FF5050",
"W 	c #FF9696",
"X 	c #FF7777",
"Y 	c #FF3737",
"Z 	c #FF4646",
"` 	c #FFB4B4",
" .	c #FFFAFA",
"..	c #FFC4C4",
"+.	c #FFD6D6",
"@.	c #FFB6B6",
"#.	c #FF0F0F",
"$.	c #FF0101",
"%.	c #FF0404",
"&.	c #FF1717",
"*.	c #FF4242",
"=.	c #FF5757",
"-.	c #FF8C8C",
";.	c #FFF9F9",
">.	c #FFAAAA",
",.	c #FFE2E2",
"'.	c #FFD8D8",
").	c #FF7878",
"!.	c #FF1616",
"~.	c #FF0707",
"{.	c #FF6E6E",
"].	c #FFE6E6",
"^.	c #FF4D4D",
"/.	c #FFA4A4",
"(.	c #FFDDDD",
"_.	c #FF4E4E",
":.	c #FF0808",
"<.	c #FF0606",
"[.	c #FF0909",
"}.	c #FF0B0B",
"|.	c #FF0303",
"1.	c #FF6D6D",
"2.	c #FF4343",
"3.	c #FF4F4F",
"4.	c #FF5E5E",
"5.	c #FFD5D5",
"6.	c #FF1313",
"7.	c #FF0202",
"8.	c #FF0000",
"9.	c #FF0A0A",
"0.	c #FF1212",
"a.	c #FF5A5A",
"b.	c #FF7373",
"c.	c #FFB5B5",
"d.	c #FFBCBC",
"e.	c #FFEDED",
"f.	c #FF1F1F",
"g.	c #FF0D0D",
"h.	c #FF0505",
"i.	c #FF8E8E",
"j.	c #FFE8E8",
"k.	c #FF1A1A",
"l.	c #FF7575",
"m.	c #FF8A8A",
"n.	c #FF7070",
"o.	c #FF5656",
"p.	c #FF7E7E",
"q.	c #FF2424",
"r.	c #FF1D1D",
"s.	c #FFDFDF",
"t.	c #FFE0E0",
"u.	c #FF6565",
"v.	c #FF0E0E",
"w.	c #FFC3C3",
"x.	c #FF5353",
"y.	c #FFA2A2",
"z.	c #FFC5C5",
"A.	c #FFFCFC",
"B.	c #FF0706",
"C.	c #FF2403",
"D.	c #FF3403",
"E.	c #FF2316",
"F.	c #FF3834",
"G.	c #FF9897",
"H.	c #FFCFCF",
"I.	c #FF4747",
"J.	c #FF6C6C",
"K.	c #FFEAEA",
"L.	c #FF6161",
"M.	c #FF6262",
"N.	c #FFD0D0",
"O.	c #FF291B",
"P.	c #FF3D04",
"Q.	c #FF5901",
"R.	c #FF6200",
"S.	c #FF5303",
"T.	c #FF4B15",
"U.	c #FF6666",
"V.	c #FF7676",
"W.	c #FF4C4C",
"X.	c #FF5D5D",
"Y.	c #FFA5A5",
"Z.	c #FF8686",
"`.	c #FFF4F4",
" +	c #FFBAB5",
".+	c #FF603A",
"++	c #FF590B",
"@+	c #FF6F01",
"#+	c #FF6B00",
"$+	c #FF7300",
"%+	c #FF6900",
"&+	c #FF490F",
"*+	c #FF6222",
"=+	c #FFBB5F",
"-+	c #FFB6AE",
";+	c #FF5555",
">+	c #FF9393",
",+	c #FF3535",
"'+	c #FF5453",
")+	c #FF1911",
"!+	c #FF8888",
"~+	c #FFCACA",
"{+	c #FFA89B",
"]+	c #FF5A1B",
"^+	c #FF5D08",
"/+	c #FF8F00",
"(+	c #FF7600",
"_+	c #FFAD00",
":+	c #FFBB00",
"<+	c #FFAC00",
"[+	c #FF6A05",
"}+	c #FF9D05",
"|+	c #FFB609",
"1+	c #FFCE49",
"2+	c #FF6453",
"3+	c #FF413C",
"4+	c #FF5C2B",
"5+	c #FF7851",
"6+	c #FF6C0A",
"7+	c #FF413D",
"8+	c #FF6F6F",
"9+	c #FFACAC",
"0+	c #FFBBBB",
"a+	c #FF9494",
"b+	c #FF987A",
"c+	c #FF5612",
"d+	c #FF5D02",
"e+	c #FF6D01",
"f+	c #FF8A00",
"g+	c #FFBC00",
"h+	c #FFC400",
"i+	c #FFC200",
"j+	c #FFB800",
"k+	c #FFC201",
"l+	c #FFB803",
"m+	c #FFBD0A",
"n+	c #FFB213",
"o+	c #FF5129",
"p+	c #FF6B6B",
"q+	c #FFF0F0",
"r+	c #FF652B",
"s+	c #FF9B22",
"t+	c #FF962D",
"u+	c #FFA406",
"v+	c #FF871B",
"w+	c #FF0403",
"x+	c #FF7272",
"y+	c #FFC4C1",
"z+	c #FF926A",
"A+	c #FF681B",
"B+	c #FF6F04",
"C+	c #FFA700",
"D+	c #FFC900",
"E+	c #FFC300",
"F+	c #FFC800",
"G+	c #FFBD00",
"H+	c #FFB701",
"I+	c #FFBE00",
"J+	c #FFC301",
"K+	c #FFB805",
"L+	c #FFC003",
"M+	c #FFBA08",
"N+	c #FF772A",
"O+	c #FF3B3A",
"P+	c #FFBABA",
"Q+	c #FF762C",
"R+	c #FF9E2E",
"S+	c #FF811D",
"T+	c #FF870B",
"U+	c #FF9A1B",
"V+	c #FF0905",
"W+	c #FF4D49",
"X+	c #FF592B",
"Y+	c #FF5917",
"Z+	c #FF8D07",
"`+	c #FFBF00",
" @	c #FFB300",
".@	c #FFA201",
"+@	c #FFA301",
"@@	c #FFC700",
"#@	c #FFC101",
"$@	c #FFB001",
"%@	c #FFB404",
"&@	c #FF9E0E",
"*@	c #FF7364",
"=@	c #FFA8A8",
"-@	c #FF5844",
";@	c #FF8968",
">@	c #FF621C",
",@	c #FF710A",
"'@	c #FF7527",
")@	c #FF0402",
"!@	c #FF4443",
"~@	c #FF4438",
"{@	c #FF4E1F",
"]@	c #FF5913",
"^@	c #FFA204",
"/@	c #FFC500",
"(@	c #FF7000",
"_@	c #FF2A01",
":@	c #FF2603",
"<@	c #FF6F02",
"[@	c #FFAA01",
"}@	c #FFCA00",
"|@	c #FFC600",
"1@	c #FFA303",
"2@	c #FFA105",
"3@	c #FF3924",
"4@	c #FF4A48",
"5@	c #FFA16B",
"6@	c #FF900C",
"7@	c #FFA506",
"8@	c #FF8529",
"9@	c #FF0401",
"0@	c #FF4037",
"a@	c #FF582B",
"b@	c #FF611F",
"c@	c #FFAB03",
"d@	c #FF9300",
"e@	c #FF8B00",
"f@	c #FFB600",
"g@	c #FFA600",
"h@	c #FF3103",
"i@	c #FF8103",
"j@	c #FFC001",
"k@	c #FFC100",
"l@	c #FFB700",
"m@	c #FF8009",
"n@	c #FF685E",
"o@	c #FFECE6",
"p@	c #FF544E",
"q@	c #FFB62B",
"r@	c #FFB406",
"s@	c #FFB704",
"t@	c #FFAD09",
"u@	c #FF1010",
"v@	c #FF3C0F",
"w@	c #FFB901",
"x@	c #FF8101",
"y@	c #FF0801",
"z@	c #FF8800",
"A@	c #FFBA00",
"B@	c #FFAE00",
"C@	c #FF9100",
"D@	c #FF1502",
"E@	c #FF4702",
"F@	c #FFAE02",
"G@	c #FFC000",
"H@	c #FFB200",
"I@	c #FFAD05",
"J@	c #FF8C64",
"K@	c #FFE5A2",
"L@	c #FFFCF2",
"M@	c #FFE1E1",
"N@	c #FF5957",
"O@	c #FFB71C",
"P@	c #FFBD0B",
"Q@	c #FFBB0E",
"R@	c #FFB904",
"S@	c #FF3802",
"T@	c #FF0908",
"U@	c #FF2905",
"V@	c #FF7502",
"W@	c #FFB400",
"X@	c #FFC601",
"Y@	c #FFAB01",
"Z@	c #FF4902",
"`@	c #FF1206",
" #	c #FF9F00",
".#	c #FFAF00",
"+#	c #FFA300",
"@#	c #FF8500",
"##	c #FF7401",
"$#	c #FFB100",
"%#	c #FF9D19",
"&#	c #FFE9C9",
"*#	c #FFFDF3",
"=#	c #FFAF3A",
"-#	c #FFC619",
";#	c #FFAC05",
">#	c #FFAC04",
",#	c #FF0D03",
"'#	c #FF0B05",
")#	c #FF8702",
"!#	c #FFC602",
"~#	c #FF7F0B",
"{#	c #FF340D",
"]#	c #FF1B0E",
"^#	c #FF3506",
"/#	c #FFB000",
"(#	c #FFA800",
"_#	c #FF5A00",
":#	c #FF0201",
"<#	c #FF6D02",
"[#	c #FFBC07",
"}#	c #FFC928",
"|#	c #FFF8DC",
"1#	c #FF9E53",
"2#	c #FFD135",
"3#	c #FFC409",
"4#	c #FFB507",
"5#	c #FF6B01",
"6#	c #FF5505",
"7#	c #FFA901",
"8#	c #FFAD04",
"9#	c #FF7805",
"0#	c #FF3E10",
"a#	c #FF1512",
"b#	c #FF7F7F",
"c#	c #FF820A",
"d#	c #FF2300",
"e#	c #FF0604",
"f#	c #FF3605",
"g#	c #FFAA02",
"h#	c #FFC605",
"i#	c #FFC626",
"j#	c #FFF8DF",
"k#	c #FF4341",
"l#	c #FF9670",
"m#	c #FFD95B",
"n#	c #FFC808",
"o#	c #FFC701",
"p#	c #FFAA0A",
"q#	c #FF3200",
"r#	c #FF180A",
"s#	c #FF7F03",
"t#	c #FFBA01",
"u#	c #FFB301",
"v#	c #FF9F05",
"w#	c #FF6316",
"x#	c #FF2F1C",
"y#	c #FF1817",
"z#	c #FFB4B3",
"A#	c #FFA307",
"B#	c #FFA000",
"C#	c #FF7F00",
"D#	c #FF0100",
"E#	c #FF270E",
"F#	c #FF9F06",
"G#	c #FFBD04",
"H#	c #FFBF0B",
"I#	c #FFCA14",
"J#	c #FFEB9D",
"K#	c #FFF3F3",
"L#	c #FF7E59",
"M#	c #FFE6B1",
"N#	c #FFBF1F",
"O#	c #FFC503",
"P#	c #FF9D00",
"Q#	c #FF0D00",
"R#	c #FF1604",
"S#	c #FF7F04",
"T#	c #FF6306",
"U#	c #FF340F",
"V#	c #FF251B",
"W#	c #FF6B42",
"X#	c #FF9E02",
"Y#	c #FF5900",
"Z#	c #FF9F29",
"`#	c #FFCA1D",
" $	c #FFD022",
".$	c #FFD635",
"+$	c #FF6654",
"@$	c #FFEFC5",
"#$	c #FFC85E",
"$$	c #FFC802",
"%$	c #FFC203",
"&$	c #FF8A02",
"*$	c #FF7700",
"=$	c #FF0600",
"-$	c #FF0302",
";$	c #FF0603",
">$	c #FF1513",
",$	c #FF8302",
"'$	c #FF9900",
")$	c #FF9400",
"!$	c #FF2801",
"~$	c #FF928F",
"{$	c #FFE479",
"]$	c #FFDA47",
"^$	c #FFEFB1",
"/$	c #FFFFFE",
"($	c #FF5F5F",
"_$	c #FF5451",
":$	c #FFCDA3",
"<$	c #FFEAB5",
"[$	c #FFC615",
"}$	c #FFAF06",
"|$	c #FFB201",
"1$	c #FF1902",
"2$	c #FF8A01",
"3$	c #FF0B09",
"4$	c #FFF2C2",
"5$	c #FFFEFB",
"6$	c #FF9898",
"7$	c #FF977A",
"8$	c #FFF9E6",
"9$	c #FFD983",
"0$	c #FFA40D",
"a$	c #FF9C00",
"b$	c #FFA801",
"c$	c #FFA601",
"d$	c #FF8E00",
"e$	c #FF5700",
"f$	c #FF9700",
"g$	c #FF8901",
"h$	c #FF4806",
"i$	c #FF6255",
"j$	c #FFF0B4",
"k$	c #FFFBEC",
"l$	c #FFBB37",
"m$	c #FF9D03",
"n$	c #FFA500",
"o$	c #FF1E00",
"p$	c #FF0C0A",
"q$	c #FF6302",
"r$	c #FF9303",
"s$	c #FF8804",
"t$	c #FF1C0F",
"u$	c #FFB39E",
"v$	c #FFEB9C",
"w$	c #FFEEAD",
"x$	c #FFAC19",
"y$	c #FFAC02",
"z$	c #FF9B00",
"A$	c #FF1A03",
"B$	c #FF2121",
"C$	c #FF301C",
"D$	c #FF860E",
"E$	c #FFA107",
"F$	c #FFB104",
"G$	c #FFB303",
"H$	c #FF980C",
"I$	c #FF5A1F",
"J$	c #FF8383",
"K$	c #FF5F5C",
"L$	c #FFF2D7",
"M$	c #FFE787",
"N$	c #FFD97C",
"O$	c #FFAD0A",
"P$	c #FFB900",
"Q$	c #FF8204",
"R$	c #FF2B04",
"S$	c #FF160D",
"T$	c #FF2F2B",
"U$	c #FF712A",
"V$	c #FFA217",
"W$	c #FFA610",
"X$	c #FFAB12",
"Y$	c #FFB311",
"Z$	c #FFAE0E",
"`$	c #FF8E2E",
" %	c #FF3B36",
".%	c #FF8989",
"+%	c #FFEBEB",
"@%	c #FF8B7B",
"#%	c #FFF8E2",
"$%	c #FFE894",
"%%	c #FFB53E",
"&%	c #FFBA0E",
"*%	c #FFAD01",
"=%	c #FF9D01",
"-%	c #FF8B0E",
";%	c #FF6D0F",
">%	c #FF670C",
",%	c #FF680C",
"'%	c #FF8C11",
")%	c #FFA70D",
"!%	c #FFA812",
"~%	c #FFA813",
"{%	c #FFAA11",
"]%	c #FFB012",
"^%	c #FFAF55",
"/%	c #FF6560",
"(%	c #FF9595",
"_%	c #FFD4D2",
":%	c #FFF9F6",
"<%	c #FFD9A4",
"[%	c #FFB23A",
"}%	c #FFB605",
"|%	c #FFB503",
"1%	c #FFB206",
"2%	c #FF9E0D",
"3%	c #FFA006",
"4%	c #FF910A",
"5%	c #FF9F0E",
"6%	c #FFA515",
"7%	c #FFB824",
"8%	c #FFBE3C",
"9%	c #FFAC62",
"0%	c #FF9191",
"a%	c #FFB7B7",
"b%	c #FFF6F6",
"c%	c #FFEFDB",
"d%	c #FFBFAC",
"e%	c #FF8836",
"f%	c #FF9A0C",
"g%	c #FFAB02",
"h%	c #FFB401",
"i%	c #FFAB00",
"j%	c #FFB502",
"k%	c #FFB305",
"l%	c #FFAF18",
"m%	c #FFB820",
"n%	c #FFB124",
"o%	c #FFAB28",
"p%	c #FFBA52",
"q%	c #FF9B83",
"r%	c #FFB2B2",
"s%	c #FF9292",
"t%	c #FFAFAF",
"u%	c #FF2D27",
"v%	c #FF3D1F",
"w%	c #FF5E03",
"x%	c #FFBD01",
"y%	c #FFB304",
"z%	c #FFBC1C",
"A%	c #FFAE2A",
"B%	c #FFAB30",
"C%	c #FF8D20",
"D%	c #FF7456",
"E%	c #FF8484",
"F%	c #FF9B9B",
"G%	c #FFBDBD",
"H%	c #FF7A7A",
"I%	c #FFB9B9",
"J%	c #FF1A19",
"K%	c #FF1B06",
"L%	c #FF5005",
"M%	c #FF8316",
"N%	c #FF5925",
"O%	c #FF6B46",
"P%	c #FF9C8D",
"Q%	c #FFA29A",
"R%	c #FF4C4A",
"S%	c #FFABAB",
"T%	c #FF6868",
"U%	c #FF8D8D",
"V%	c #FF7C7C",
"W%	c #FF3938",
"X%	c #FF2819",
"Y%	c #FF7171",
"Z%	c #FFE5E5",
"`%	c #FF8181",
" &	c #FF6363",
".&	c #FF8282",
"+&	c #FFF7F7",
"@&	c #FFD1D1",
"#&	c #FFCCCC",
"$&	c #FFBEBE",
"%&	c #FF2828",
"&&	c #FFCECE",
"*&	c #FFBFBF",
"=&	c #FF6969",
"-&	c #FFD4D4",
";&	c #FF9D9D",
">&	c #FF8F8F",
",&	c #FFA0A0",
"'&	c #FFC7C7",
")&	c #FFC0C0",
"                                                                                                ",
"                                                                                                ",
"                    . + @ # $ % $ % & *       = - ; > , .                                       ",
"                ' ) ! ~ { ] ^ / ( _ : <   . [ } | 1 2 3 4 5 + .                                 ",
"              6 7 8 9 0 a b c d ] ( e f g h i j k 1 l m m n o p -                               ",
"            q r 1 m 0 { s ] n k | { j t u ~ o v w x ^ ^ y z z A B C                             ",
"          D f 1 E F G H I J K K J L M N O P t Q R j S 1 Q ] | T U V W .                         ",
"        = X Y } T Z `  .      . + ..+.@.f E l #.$.%.#.x &.B ~ *.A 4 =.-.;.                      ",
"        >.Z z F S ` ,.6 '     '.).o B } !.~.~.$.$.$.%.v x X q {.o E E 4 -.*                     ",
"      ].=.^.U | Z 4 u /.(.' @._./ :.<.[.}.}.[.~.|.|.<.:.v {.. ;.).8 ( k T L '                   ",
"      1.z Z 2.3.y y F 4.5.[ 1 6.7.8.8.9.0.6.6.a.b.T x [.[.a c.' D X b j 0 1 d.                  ",
"    e.2 9 4 4.A f.b o =.! b g.$.8.8.h.R 1 i.j.  * N k.~.[.w ~ l.A m.n.*.2.Y o.+                 ",
"    p.9 s t ! ^ 0 a e q.0.<.7.8.$.|.r.X s..       t.u.6.[.:.v.v l f w.x.S T _.y.                ",
"  ' U Q y o.u 3 s j &.}.%.7.$.$.h.[.r z. .        A.c.T v.B.C.D.E.F.G.H.2.I.A J. .              ",
"  K.k l 1 L.z c | ^ v %.7.$.$.h.g.}.Q M.N.A.        ; b.O.P.Q.R.S.T.U.g V.2 W.X.5.              ",
"  Y.b 0 z 4 Q r.9 / ~.%.7.$.7.9.g.v.r.a Z.e.*   . `. +.+++@+#+$+%+&+*+=+-+U 3.;+>+              ",
". 7 } ,+S '+)+&./ x <.|.7.7.$.[.[./ ] z !+@.~+s.`.{+]+^+/+(+_+:+<+[+}+|+1+2+^.o !+              ",
"* _.Y 3+4+5+6+7+/ v |.7.7.7.%.~.~.&.9 8+9+0+` a+b+c+d+e+f+g+h+i+i+j+k+l+m+n+o+x.p+'             ",
"q+Z 2.r+s+t+u+v+w+~.7.|.7.|.7.~.9.q.x+% 6 , y+z+A+B+C+i+D+E+F+G+H+I+E+J+K+L+M+N+O+P+q+          ",
"K.*.n Q+R+S+T+U+V+h.7.$.$.$.|.|.6.Z i.Z.;+W+X+Y+Z+`+h+:+D+i+I+ @.@+@I+@@D+#@$@%@&@*@=@-         ",
"> 1 Z -@;@>@,@'@)@:.7.$.7.7.|.%.Q Y W.!@~@{@]@^@F+F+@@D+@@/@j+(@_@:@<@[@D+}@|@I+1@2@3@5  .      ",
"@ 2.r 4@5@6@7@8@9@[.|.$.|.7.|.%.( q.n 0@a@b@c@}@}@F+D+D+@@d@e@f@g@.@h@i@j@k@D+@@l@H+m@n@o@      ",
",.S z p@q@r@s@t@9@9.7.$.%.7.h.~.0.u@E.v@,@w@D+/@@@D+@@E+x@y@z@A@B@C@D@E@F@f@G@}@|@H@I@J@K@L@    ",
"M@n A N@O@P@Q@R@S@h.7.$.|.|.h.}.}.T@U@V@I+@@W@@@|@X@Y@Z@`@)@ #.#+#@#$.9@##$#G+i+}@D+i+%#&#*#    ",
"> ~ ;+N@=#-#|+;#>#,#7.$.7.7.|.~.[.'#)#g+I+k@@@@@!#~#{#]#/ ^#C+/#(#_#8.$.:#<#:+.#j+}@@@[#}#|#    ",
"; 3.G Z 1#2#3#s@4#5#8.$.7.$.~.%.}.6#7#I+E+/@E+8#9#0#a#r.b#c#+#+# #d#8.8.$.e#f#g#I+/#@@h#i#j#    ",
"e.L.4 k#l#m#n#o#p#_+q#$.$.8.|.%.h.r#s#t#I+u#v#w#x#y#: n z#A#(#B#C#D#$.|.h.e :.E#F#G#H#H#I#J#    ",
"K#4 9 ^.L#M#N#O#F@[@P#Q#8.8.7.|.$.%.R#V@S#T#U#V#!.w ( I.W#X# #B#Y#$.~.u@0.R <.x O.Z#`# $.$|#    ",
"* B F 2.+$@$#$$$%$&$.#*$=$8.$.%.%.%.|.-$;$B.<.~.9.v.e >$,$B#'$)$!$:._ 0.R e <.r.0.~${$]$^$/$    ",
"' ($V 7 _$:$<$[$}$|$V@B@(@D#8.$.<.g.:.h.h.<.%.%.h.<.7.1$C@)$'$2$3$k a : c R :.E r.@.  4$5$      ",
"  6$o 8 { 7$8$9$0$a$b$c$d$e$8.7.%.0.w #.v [.~.~.:.~.;$(+f$)$g$h$6.1 r.y 3.u@g.| x ,.            ",
"  @ 2 ^ T i$j$k$l$c@|@m$P#n$o$$.$.}.w R &.v.r.Q w p$q$ @$#r$s$t$f.E !.,+f 6.k.f ( '             ",
"  ' t m 2 } u$v$w$x$I+E+y$l@z$A$w+e 3 B$R v.x r.C$D$E$F$G$H$I$/ E | 2.P r ;+c m A               ",
"    J$E S 8 K$L$M$N$O$|@@@P$j+Q$R$S$( q.l ( T$U$V$W$X$Y$Z$`$ %( n Y a..%I.*.u ,+).              ",
"    +%A ^ 2 z @%#%$%%%&%@@F+*%G+c@=%-%;%>%,%'%)%!%~%{%]%^%/%d r.E P M i T _ ^.0 (.              ",
"      (%0 y n F _%:%<%[%}%k+I+_+w@|%c@1%2%3%4%5%6%7%8%9%C H l 2 u.0%a%r Q z f.^..               ",
"      b%o.r.0 A V 0+c%d%e%f%g%h%i%j%j%k%l%m%m%n%o%p%q%r%-.o 2 p M h *.j k.2.d s%                ",
"        g I.8 ,+;+P X g t%u%v%w%+@x%y%m+z%A%B%C%D%[ E%b#($9 8+F%G%H u@: T r.W.A.                ",
"          5.r } 8 o.V o H%I%I J%K%L%M%N%O%P%Q%R%a.4.8+($~ 0%P+S%U.( w c x &.x+q+                ",
"            q ($x.| c 7 T%).U%V%W%!.X%E.,+U O P S Y%4.r x+! Y ( }.[.b Y }.{.Z%                  ",
"              6 /.W.{ _ l u X `%`%m k 0 B$n 8+J.H  &a.E Q ^ _ f.0.: r.r.O e.                    ",
"                  (.6$3.F z a 3.o.Z { 1 Q b _ m &.u@0.^ T s 8 #.#.}.Q .&+&                      ",
"                      e.9+E%U.;+} G I.{ g.<.g.e e ,+2.c d #.f.B$0.($@&A.                        ",
"                              - '.#&$&p.: :.k v.[.R !.a ( z ! p+P+K#'                           ",
"                                    . '.B R b %&w x e f._.x.$&> &&.                             ",
"                                      +&*&=&).W -&-&;&o.s%; >&'.'                               ",
"                                        b%u ,&X.) '&h -&,.)&,                                   ",
"                                                                                                "};
