/* XPM */
static char *model[] = {
/* columns rows colors chars-per-pixel */
"48 48 256 2",
"   c #3F1A00",
".  c #2E4738",
"X  c #174571",
"o  c #294C57",
"O  c #274B70",
"+  c #560800",
"@  c #571902",
"#  c #4D1101",
"$  c #4B2504",
"%  c #5A2602",
"&  c #5A290C",
"*  c #661401",
"=  c #731B00",
"-  c #662704",
";  c #693403",
":  c #772A02",
">  c #763705",
",  c #702B14",
"<  c #713A2C",
"1  c #7A2871",
"2  c #721A74",
"3  c #5D4900",
"4  c #644D00",
"5  c #6A5304",
"6  c #784806",
"7  c #72550A",
"8  c #704A2C",
"9  c #75640F",
"0  c #585F39",
"q  c #4B564F",
"w  c #527277",
"e  c #74794D",
"r  c #667C71",
"t  c #5E6D44",
"y  c #264C87",
"u  c #39729B",
"i  c #3975AF",
"p  c #2A6BC8",
"a  c #6C1699",
"s  c #701992",
"d  c #6609B3",
"f  c #7617AA",
"g  c #7415B4",
"h  c #6A0EAD",
"j  c #7A2599",
"k  c #76258A",
"l  c #7925A7",
"z  c #7D22B9",
"x  c #4A7587",
"c  c #4C738F",
"v  c #4678A7",
"b  c #637B81",
"n  c #5B8177",
"m  c #738953",
"M  c #688679",
"N  c #718A72",
"B  c #57808B",
"V  c #5286AF",
"C  c #658786",
"Z  c #6C8D94",
"A  c #6C94AE",
"S  c #4F8EE4",
"D  c #6CA4C9",
"F  c #891900",
"G  c #872707",
"H  c #833F06",
"J  c #993701",
"K  c #8D2D10",
"L  c #B63603",
"P  c #AF3203",
"I  c #89356F",
"U  c #855507",
"Y  c #954405",
"T  c #8E530F",
"R  c #914C26",
"E  c #9B6814",
"W  c #91700C",
"Q  c #926E30",
"!  c #A84303",
"~  c #B84805",
"^  c #AD530F",
"/  c #AD6F12",
"(  c #A97424",
")  c #B37329",
"_  c #AE5E28",
"`  c #944E4C",
"'  c #9A4779",
"]  c #98516C",
"[  c #956E51",
"{  c #A45154",
"}  c #AD5975",
"|  c #AE6F4F",
" . c #B56775",
".. c #B16B70",
"X. c #CF340E",
"o. c #E53A29",
"O. c #C74704",
"+. c #CE4D10",
"@. c #C76506",
"#. c #D3700B",
"$. c #D36E2A",
"%. c #E84B3B",
"&. c #F34836",
"*. c #F65A38",
"=. c #EE542F",
"-. c #EB760D",
";. c #F36427",
":. c #F16A35",
">. c #DA4034",
",. c #C7724D",
"<. c #CA7973",
"1. c #E84C46",
"2. c #EA6D50",
"3. c #ED7A6E",
"4. c #812D93",
"5. c #8D348F",
"6. c #9536A7",
"7. c #9534B6",
"8. c #8C2CAE",
"9. c #932E9D",
"0. c #9028C6",
"q. c #9B4788",
"w. c #9B4695",
"e. c #9C5993",
"r. c #9944A5",
"t. c #9950A2",
"y. c #A1479B",
"u. c #A75288",
"i. c #AA4FAC",
"p. c #AF6790",
"a. c #C47888",
"s. c #B06AC5",
"d. c #AF8E14",
"f. c #B78A2E",
"g. c #98801A",
"h. c #929354",
"j. c #8C9A79",
"k. c #97A670",
"l. c #BD8942",
"z. c #B1B054",
"x. c #AAB271",
"c. c #A59865",
"v. c #BDC17F",
"b. c #C5891A",
"n. c #CD8D16",
"m. c #C89722",
"M. c #CF8E33",
"N. c #D2A412",
"B. c #D7AB35",
"V. c #CDA828",
"C. c #E78619",
"Z. c #EB9316",
"A. c #F99319",
"S. c #EE8F0C",
"D. c #FE9B2A",
"F. c #EE8C32",
"G. c #F8A618",
"H. c #FAB717",
"J. c #EDB716",
"K. c #E9B825",
"L. c #FCA835",
"P. c #FCB826",
"I. c #FCB839",
"U. c #ECAC31",
"Y. c #D48F4E",
"T. c #D58C6C",
"R. c #CBA94C",
"E. c #C7AF69",
"W. c #F1944B",
"Q. c #E09D70",
"!. c #E7B748",
"~. c #F9AA45",
"^. c #FAB845",
"/. c #F5B955",
"(. c #EFA956",
"). c #EDB070",
"_. c #DDC731",
"`. c #FDCC03",
"'. c #FDCC0B",
"]. c #FEC606",
"[. c #FDCD12",
"{. c #FCCC1B",
"}. c #F8C717",
"|. c #FDD10C",
" X c #FBD006",
".X c #FCD113",
"XX c #FCD11B",
"oX c #F6D215",
"OX c #EEC01B",
"+X c #E9C524",
"@X c #E9C836",
"#X c #FCCD23",
"$X c #FDCB2B",
"%X c #F9C427",
"&X c #FBCB3A",
"*X c #F9C835",
"=X c #FCD223",
"-X c #FCD32B",
";X c #FDD92B",
":X c #F6D526",
">X c #FDD433",
",X c #FDD33A",
"<X c #FCD833",
"1X c #FEDB3B",
"2X c #F5D437",
"3X c #E5D138",
"4X c #D5C647",
"5X c #D9C857",
"6X c #D2CB6F",
"7X c #E8C846",
"8X c #FCC744",
"9X c #FCC755",
"0X c #FCD442",
"qX c #FEDA42",
"wX c #FCDA4B",
"eX c #F7D548",
"rX c #FDDC53",
"tX c #FBD656",
"yX c #EAD24E",
"uX c #E5D363",
"iX c #FAD966",
"pX c #FAD874",
"aX c #EDD173",
"sX c #FDE147",
"dX c #FEE254",
"fX c #FEE55B",
"gX c #FEE263",
"hX c #FDE46A",
"jX c #FDE775",
"kX c #91A785",
"lX c #ADB99E",
"zX c #8FB2C7",
"xX c #B8CBB5",
"cX c #ABCEEA",
"vX c #C9838C",
"bX c #D7918E",
"nX c #CB8EAC",
"mX c #D2A78F",
"MX c #E99188",
"NX c #EAAA8A",
"BX c #F2B2AF",
"VX c #E192B8",
"CX c #E0ACD1",
"ZX c #D0CE92",
"AX c #F7D78C",
"SX c #F9E787",
"DX c #FCEC97",
"FX c #F6ED8A",
"GX c #F4EAAF",
"HX c #E2D6AA",
"JX c #FED7CD",
"KX c #FFFAD5",
"LX c #FAF0C8",
"PX c #FDFBE6",
"IX c #FEFCFB",
"UX c #FBFDF4",
/* pixels */
"UXIXKXAX).W.W.W.8X,X<X>X1X1X{.=X;X-X-X=X-X=X-X>X:XoX;X-X>X1X1X1XsXfXDXGXPXPXIXIXUXPXGXGXKXKXPXKX",
"IXIXJX2.*.1.2.*.;.;.L.0X-X=X.X.XXXXXoX.X[.XX-X=X{.<XfXsX<X-X0Xx.A A zXcXcXcXcXS S S D V D xXxXLX",
"IXUXMX1.X.X.X.X.o.:.:.D.I.,XqX0X,XqXwXwXeXiXfX2X=X#X&X2X:X.X5Xw A N w x c v v p p p V x u Z v Z ",
"IXUX3.P :.S.S.-.@.:.=.;.A.%X=X;X;X<X1XsX1XfXfXfXdXdXfXgXfXfXHXx xXGXGXZXaXZXHXZXLXHXaXuXHXGXc y ",
"IXIX3.3.D.L.D.F.L.F.*.;.-.P.{.'.{.[.}.}.[.K.g.K.#XXX:XyXZXlXzXV A q h.!.0XjXjXgXhXFXiX2XgXFXB y ",
"IXIXbXR L P P X.L L X.+.o.+.#.-.S.G.S.C.!.M.% R.K.|.oX6Xw u u u x C M 0 7XqXdX1X2XdXqX{.;XyXr y ",
"IXJXBXJXAXI.P.G.G.G.G.S.S.#.@.#.S.J.H.%XtXW.$.R W oX=X6Xx lX5XuX5XuXkXo 5X<X0X<X:XdXeX;XqXaXw y ",
"PX,.1.3.GXhX,X}.[.[.#X$X[.[.>X>X}.`.].|.wX:.%., 9 }.[.z.x 6X_.@X3X7Xj.o 7X<XrXwXtXDXFXDXDXGXx X ",
"AXX.&.1.9X&X=X.X.X[.{.{..X|..X{.[.'.'..X*X+.1., W oX|.R.V i u u c M M j.wXsXrXwXiXDXDXFXSXDXx X ",
"pXL &.*.I.[..X|.'.XX=X{.'.`.'.'.'.'.|..X$XO.1.# W =X|.3Xz.k.Z i V 6X5XtX,XwXfXdXtXDXhXeXeXaXr O ",
"iXL o.*.*X[.[.`.'.|..X.X'.`.'.'.'.|..X$X9XX.1.@ 9 2X2XeX6XZXxXD zXAXFXjXeXiXpXiXSXSXiXsXeXSXC O ",
"tXX.o.*.%X'..X'.`.|.XX[..X.X|..X.X.XoX&XpX+.1.@ 9 wXqX6Xw u n n C k.N 6XfXgXjXdXgXhXwXqX3XSXx X ",
"tX+.o.;.%X'.[.[.`.`.'.`.'.'.`.`.'.'.|.XXI.X.=.- 5 %XoXv.x lX4X3X7XuXt c.=X$X0X-XqX1X<X-X2XuXw o ",
"hX$.o.*.P.'.[.'.`.`.`.'.'.'.'.`.`.'.'.{.&X+.%.K 5 :X.XE.x z. XoX[.yXt h.{.;X,X#X;X-X>X,XfXaXw o ",
"DX$.X.*.P.'..X'.`.`.`.'..X'.'.`.|.'.|.=X^.O.%.R 4 2X[.4XC x.3X3X3X5Xh.z.oX1XwX:X=X{.-X,XjXjXr o ",
"KX2.o.%.L.[..X`.`.`.|.[..X{.'.'.'.`. X,XpXX.%., 8 tX-X3XkXv c B w r r 5X-XdXrXXX.X'..X>XgXuXm o ",
"PXMXo.&.L.-XXX`.`.|..XXX=X;X=XXX{.|.'.-X9X+.1.< 3 9X=X:X5XkXV i kXh.R.1X<XfXqX[..X`.|.-XfXtXh.o ",
"IXBX1.*.^.:X=X X`.XX.X`.|.[.{.{.=X.X`.XXI.+.o.K 3 7X|. X{.yXc v 7XoX;XXX:XqX<XXXXX'.`.{.1X2Xz.. ",
"UXJX1.&.L.=X=X[. X|.'.`.`.`.`.|.|.'.|..X#X-.*.K 9 2XoX X|.7XB i 4X`.|.`.}.;X-X[.[.'.`.'.XX:Xz.. ",
"PXJX2.=.D.#X;X=X'..XXX|.|.|..X.X:X,X0X,XdXW.*._ g.&X{.'. XyXB u 4X'.'.`.'.XX>XXX|.'.`.'.=X.Xz.q ",
"GXAX2.=.L.=X=XoX{.#X$X[.'.[.[.{.-XqXqX<XwX2.=.Y.V.1X{.'.|.yXn Z 6X2X2X@X2XyXiX7X3X@X*X@X6XZXZXm ",
"gXtXZ.D.G.G.G.S.Z.#.@.-.S.G.G.P.P.H.}.P.%XC.=.$.d.#X[.`. XoXz.B C N N r M N Z C M M m N w w e 4X",
"=X-X#XN.b.b.F.M.) Y G J J ~ ! L L ~ O.O.#.~.(.M.d.:XXX'.'.`.K.z.k.k.k.k.x.k.kXk.k.k.m t e h.V.@X",
"=X;XOXd.d.f.R.g.5 $   $ $ % - # # * * , 6 Q R.B.N.oX{.'.`.`. XoX'.[.|.[.oX{.<X{.`.'.oX%X2X<X'.XX",
";X<X,X2X@X7XyXeX@XV.f.d.g.( W 9 5 3 3 4 4 3 W +XOXoXXX'.`.`.`.`.].'.|.`.'.[.1X=X{.{.[.[.<X2XoX1X",
":X1X<X=X%XeXtX,X-X=X;X;X<X:X=X=X%X:X#X:X&X&X:XoX.XXX-XoX`.]. X`.'.'..X'.'..X1X-X=X=X`.`.=X:X=XhX",
"XX>X&XT Y 6 T E ) f.b.m.m.m.U.K.2X+XB.E W F.L.&X2X2XeX<X{.}.|.=X[.[.=X{.`.{.dX-X{.[.`.`.;X:XXXwX",
"'.$X7X: ; > = = * * = H > T ; > / B.l.* : $.-.9XsXdXrXfX9X(./.9X8X%X&XP.%X8XAX/.!./././.NX).eXsX",
"'.@X6 K M.U.M.#.~ ^ P J P G F G J @.@./ / ^ #.P.{.{.#X7X..u.' u.u.}  . ...p.p.q.q.9.9.9.6.w.{ f.",
"'.B.% L C.$X&Xb.I.&X8X^.~.$.C.P.L.A.#X<X9X- T ^.oX{.eX<.p.p.5.8.8.8.g g g g a f 8.4.7.4.8.y.w.< ",
"`.M.- ~ Z.tX!.!./ E / W d.B./ N.N.N.{.:X9X& K ~.1X-XNX8.5.Q.W.a.a.u.d h g f z z 8.I a.I i.VXe.q.",
"'.E % ^ / Q ) f.M.R.R.!.B.!.( !.:X}.}.OX!.- K L.,X9Xu.8.../ G.) E T.a f f f f f 4.}  .I j I nXw.",
":XE - / : $ @ , & & - ; ; > ; 6 E d.N.n./ @ F Z.$X).6.y.[ d.-Xf.- ] 4.j h d h a k p.] ..I { ).y.",
"oXE - L ^ / $.Y G , : R R G = * = E / / b.@ F Z.-XbX7.p.U @X>XV.- ` 5.9.a j a l j 1 1 ,.U.H.~.q.",
"{.E ; X.G.}.G.Z.-.-.F.-.-.-.#.-.Z.G.H.H.U.@ F C.%X..6. .U <X>XB.% <.] j p.} s I I ] | M.`.`.L.q.",
"}.) 6 X.A..X.X:X>X#X=X[.:X[.[.[.[.[.[..X%X6 G -.&X .w.{ W ,X>X!.; ) Y.1 ' } { | U.K.].].`.].^.5.",
"{.f.% J G.[.|..X[.'.}.OXK.J.K.+X%XJ.J.J.K.U F #.P. .y.` d.<X<X*XU 7 2.q.1 ,.P.'.'.`.`.`.`.`.^.6.",
"XX( ; Y V.N.n.n.d.U U 6 @ # @ % $ % ; 6 E ; K @.I. .i.` m.1X1X&X| < { I I _ H.`.`.'.`.'.`.|.(.7.",
"}._ , % - - @ ; @ + # * + + + + + + * * / ; G @.I.} 6.8 V.1X2X!.| $ l.| Y.P.].`.`.`.'.]..X$X<.7.",
"{.f.> > : H ^ ^ J ^ J Y ~ ! P ~ @.C.#.n.U.; : @.~. .6.< V.<X2X(.] $ @X'.].].`.`.[.P.B.W.&X8X} 6.",
"}.R.8 ^ 9X~.C.-.-.A.A.P.P.}.H.{.'.[.'.XX*X6 Y @.^.a.6.8 V.,X0X).' $ 2X`.].].].'.U.` 5.2 | 9Xu.y.",
"8XaXQ +.9XiXsX$X.X|..X|.|.`.'.[.'..X|.XX0XE E C.9X<.y.8 _.1X8XQ.] 8 2X`.`.'.P.Y.{ 1 j a I ).r.q.",
"pXGXR.F.wX0X1X{.'.'.[.[.[.[.[.'.'.`.`.[.-Xm./ #.8XT.y.` 7X<XeXvXk [ I.*X*XB.T.1 g 8.6.9.I MX8.} ",
"SXGX| R.wX>X-X$X=X=X#X{.{.[..X|.'.[.|.oX{.E @ ^ *XQ.i...!.wX).w.k ..,.{ I 1 j z d h j s a.NX8.| ",
"FXJX& Q f.m.b.f.m.m.m.d.m.N.%X%X%XK.N.U.yXT @ R wXQ.y.p.Y.).vXr.k s f h d d d d d z l a } Q.5.| ",
"aXDX% % , K - : > > > ; ; ; 7 ( M.% & Q Y.6 % _ pXAXu.i.p.y.z g t.5.j s a z l a a z s.t.nXNXw.T.",
"pXSXpX(.+.^ ~ $.$.F.F.$.^ ! Y ! ^ @ * : / T Y n.&X&XT.9.0.0.0.i.vXQ.mXZXHXBXBXCXcXCXnXnXvXp.e.mX",
"DXDXiXpXtX0X%X&X^.I.I.L.A.A.-.-.-.D.G.G.P.*XeX*X,X0X&X(.<.a.T.| 5 7 5 6 4 9 5 7 8 8 [ mXj...[ z."
};
