/* XPM */
static char *operation[] = {
/* columns rows colors chars-per-pixel */
"48 48 256 2",
"   c #030402",
".  c #030B02",
"X  c #0A0B0A",
"o  c #070808",
"O  c #021301",
"+  c #031B02",
"@  c #0A130A",
"#  c #0D1C0B",
"$  c #081606",
"%  c #0F1312",
"&  c #130F12",
"*  c #10190E",
"=  c #131313",
"-  c #151A13",
";  c #191818",
":  c #0C0E12",
">  c #1B1920",
",  c #042504",
"<  c #032C04",
"1  c #0B280A",
"2  c #0E2513",
"3  c #023202",
"4  c #023C03",
"5  c #0A3409",
"6  c #0C380A",
"7  c #142212",
"8  c #1B2219",
"9  c #172516",
"0  c #123310",
"q  c #163716",
"w  c #102C0A",
"e  c #252727",
"r  c #2F2A31",
"t  c #273227",
"y  c #302D2E",
"u  c #31322E",
"i  c #3B3B3A",
"p  c #363833",
"a  c #064805",
"s  c #0E4310",
"d  c #015300",
"f  c #035C03",
"g  c #0D510D",
"h  c #0F5812",
"j  c #184617",
"k  c #105C0E",
"l  c #175A18",
"z  c #12410C",
"x  c #1D5A20",
"c  c #096607",
"v  c #0B750D",
"b  c #0C7D0E",
"n  c #176A17",
"m  c #147D15",
"M  c #197816",
"N  c #1F6023",
"B  c #2A422A",
"V  c #2E5332",
"C  c #334734",
"Z  c #324E2F",
"A  c #20631E",
"S  c #277427",
"D  c #376A35",
"F  c #30722F",
"G  c #357937",
"H  c #2C642C",
"J  c #454949",
"K  c #4A514A",
"L  c #4F5152",
"P  c #59585A",
"I  c #5F5762",
"U  c #467B44",
"Y  c #507D4B",
"T  c #547655",
"R  c #536A55",
"E  c #656765",
"W  c #6D7170",
"Q  c #797A77",
"!  c #6A7069",
"~  c #098F0F",
"^  c #039603",
"/  c #069609",
"(  c #039A03",
")  c #059A09",
"_  c #0B960B",
"`  c #0A9B05",
"'  c #0B9B0B",
"]  c #099606",
"[  c #0F9411",
"{  c #0D9C12",
"}  c #138314",
"|  c #188517",
" . c #119D0D",
".. c #11920F",
"X. c #129512",
"o. c #139C13",
"O. c #159C19",
"+. c #1B9519",
"@. c #199C14",
"#. c #1A9D1A",
"$. c #14921A",
"%. c #1E9D21",
"&. c #0CA10C",
"*. c #0EA211",
"=. c #12A30F",
"-. c #13A214",
";. c #16A119",
":. c #1AA015",
">. c #1AA21B",
",. c #1BAA1B",
"<. c #1BA520",
"1. c #229A1D",
"2. c #208D23",
"3. c #29862A",
"4. c #229C22",
"5. c #289728",
"6. c #2C9230",
"7. c #378938",
"8. c #319E34",
"9. c #389439",
"0. c #21A21D",
"q. c #22A223",
"w. c #23AA23",
"e. c #25AA2A",
"r. c #29A326",
"t. c #2AA32A",
"y. c #2BAB2B",
"u. c #27A529",
"i. c #2DA231",
"p. c #2BAA31",
"a. c #2AB22A",
"s. c #2FB133",
"d. c #30A82E",
"f. c #31A62E",
"g. c #34A233",
"h. c #32AA32",
"j. c #3BA43B",
"k. c #3BAA3B",
"l. c #38A739",
"z. c #39B339",
"x. c #3AB638",
"c. c #3D9F43",
"v. c #3EAB41",
"b. c #37A141",
"n. c #3CBF41",
"m. c #41AA3E",
"M. c #42B23F",
"N. c #4E8050",
"B. c #459D45",
"V. c #529C4F",
"C. c #4A8548",
"Z. c #42A543",
"A. c #49AE4A",
"S. c #45AA45",
"D. c #45B244",
"F. c #4CB64D",
"G. c #59AC59",
"H. c #51B34E",
"J. c #56B755",
"K. c #55B861",
"L. c #668265",
"P. c #689B66",
"I. c #789477",
"U. c #7E8C7B",
"Y. c #63BD5E",
"T. c #63BB62",
"R. c #67B867",
"E. c #77A875",
"W. c #75BB76",
"Q. c #57C957",
"!. c #5FC662",
"~. c #6CC16B",
"^. c #67C964",
"/. c #6FC17B",
"(. c #7DCA7C",
"). c #77C473",
"_. c #73D774",
"`. c #83867F",
"'. c #83D07F",
"]. c #828382",
"[. c #87898A",
"{. c #8F9292",
"}. c #979899",
"|. c #879988",
" X c #88A687",
".X c #97A197",
"XX c #9FA3A0",
"oX c #A7A4A8",
"OX c #AEBDB0",
"+X c #B9BAB8",
"@X c #A8BEAB",
"#X c #83CC82",
"$X c #8ACC8A",
"%X c #88C185",
"&X c #8DCA90",
"*X c #82D282",
"=X c #8BD888",
"-X c #91CF8E",
";X c #90D28F",
":X c #9BDD9C",
">X c #98D597",
",X c #9EDAA1",
"<X c #A3DC9C",
"1X c #AFCFB1",
"2X c #A5DBA7",
"3X c #B2DDB5",
"4X c #B0CBB2",
"5X c #A4E69F",
"6X c #A8E5A9",
"7X c #B6EAB6",
"8X c #BCEDBC",
"9X c #B3E4B4",
"0X c #BFC6C1",
"qX c #BDDCC0",
"wX c #BEEEC2",
"eX c #C6BDC7",
"rX c #C3D7BF",
"tX c #C9C8C9",
"yX c #C8D3C6",
"uX c #C9D9C8",
"iX c #D3CFD2",
"pX c #D5D8D4",
"aX c #C7E8C7",
"sX c #C8F2C8",
"dX c #CFF1D2",
"fX c #D2EBCF",
"gX c #DCE1DB",
"hX c #DFEDDE",
"jX c #D4EAD4",
"kX c #D0F7CF",
"lX c #D4F4D4",
"zX c #DDF6DE",
"xX c #DDFADC",
"cX c #D8F8D5",
"vX c #DEFDE1",
"bX c #E1DCDC",
"nX c #E3D8E4",
"mX c #E0EBDF",
"MX c #E2F9DF",
"NX c #E5E3E3",
"BX c #E9ECE9",
"VX c #E6E7E5",
"CX c #E3FDE3",
"ZX c #EDF3EC",
"AX c #ECFDEB",
"SX c #E6F9E4",
"DX c #EEF9F1",
"FX c #F1EEEE",
"GX c #F0EAF0",
"HX c #F3F9EE",
"JX c #F3F3F3",
"KX c #F4FEF3",
"LX c #F6FEFA",
"PX c #F9FDF5",
"IX c #FEFEFE",
"UX c #F9F6F8",
/* pixels */
"IXIXIXIXIXIXIXIXIXIXPXIXIXIXIXIXIXIXIXIXIXLXIXIXIXIXIXUXIXIXLXLXUXIXIXIXIXIXIXIXIXIXIXIXIXIXIXIX",
"IXIXIXIXIXIXIXIXIXIXIXIXUXLXIXnXNXpXBXpXyXqXuXZXLXLXLXIXIXIXIXIXIXIXIXIXIXIXIXIXIXIXIXIXIXIXIXIX",
"IXIXIXIXIXIXIXIXIXIXUXIXGX{.J t t t t , w 0 w t B E  X4XgXKXUXUXIXIXIXLXIXIXIXIXIXIXIXIXIXIXIXIX",
"IXIXIXIXIXIXIXIXIXIXIXBXE 8 Y A d d n M } } } c d a 6 w 1 E OXVXIXIXLXIXIXIXIXIXIXIXIXIXIXIXIXIX",
"IXIXIXIXIXIXIXIXIXIXLXlXY V.5.$._ X.' ) ( ( (  .o.X.2.n < + 5 Z R {.BXIXIXIXIXUXIXIXIXIXIXIXIXIX",
"IXIXIXIXIXIXIXIXIXLXsX~.8._ ` ( ( ( ( ( ( ( ( ] ( ( ) O.%.n 4 g x j B ].NXIXIXIXIXIXIXIXIXIXIXIX",
"IXIXIXIXIXIXLXLXKX2Xk.=.( ( ( ( ( ^  .:.-.] `  .' ( ` &.) o.$.v v 3.A q J pXUXIXIXIXIXIXIXIXIXIX",
"IXIXIXIXIXIXLXLX:Xg.[ ) ( ( ^ ( ( ) w.z.z.r.a.q.{ ) ' =.=.=.' _ ' @.g.G Z i I UXIXIXIXIXIXIXIXIX",
"IXIXIXIXIXIXAX:X8.' ( ( ) ) ( ' { O.#.h.M.f.x.x.e.O.) ) &.,.,.:.) ( :.j.P.t > .XIXIXIXIXIXIXIXIX",
"IXIXIXIXIXKX<X8.{ ` ( ( ^ ( *.>.8.A.*X8X3X&XR.i.y.a.w.o.o.) -.w.e.' ` 0.).C % J FXIXIXIXIXIXIXIX",
"IXIXIXIXKXwXb.:.' _ ] ( ( { 5.9.;XcXAXIXLXKXxX7XR.g.0.y.y.e.o.' 0.y.-.&.v. X@ y tXIXIXIXIXIXIXIX",
"IXLXIXIXAX/.p.-.( / ] ( ' 5.h Y VXIXIXIXIXLXIXLXSX9X~.k.h.h.e.-.0.w.*.) S.P.O ; ].IXIXIXIXIXIXIX",
"IXLXIXUX3XJ.n.` ( ( ( ( 1.g q OXPXIXIXIXIXIXPXIXIXLXvX9XR.h.d.D.^.0.=.' D.E.$ ; }.IXIXIXIXIXIXIX",
"LXIXIXKX&X!.e._ ( ( ( _ n O I UXIXIXIXIXIXIXIXIXIXIXLXLXxX>XG.W. XS.r.y.m.C.. r oXUXIXIXIXIXIXIX",
"IXIXIXfX(.D.-./ ^ ( ^ } < = eXIXIXIXIXIXIXIXIXIXPXIXIXIXIXAXqX4XZ 5 k 7.F 3 $ Q eXUXIXIXIXIXIXIX",
"IXIXLX2XJ.q.` ^ ( ( o.k O y JXIXIXIXIXIXIXIXIXIXIXIXIXIXUXLXLXZXQ * O + # # W NXLXIXIXIXIXIXIXIX",
"UXIXLX6XF.#.) ( ` ] k.6   P IXPXIXIXIXIXIXIXIXIXIXIXIXIXIXIXIXIXUXtXE L L [.FXIXIXIXIXIXIXIXIXIX",
"IXIXKX2XJ.O.) ` ) =.9.+ @ oXIXIXIXIXIXIXIXIXIXIXIXIXIXIXIXIXIXIXIXPXIXIXIXIXPXIXIXIXIXIXIXIXIXIX",
"IXIXAX;XF.' ) ( ` w.S O = tXIXIXIXIXIXIXIXIXIXIXIXIXIXIXIXIXIXIXIXIXIXUXIXIXIXIXIXIXIXIXIXIXIXIX",
"IXIXCX#Xz.-.' ' / x.l . X oXIXIXIXIXIXIXIXIXIXIXIXIXIXIXIXIXIXIXIXIXIXIXUXIXIXIXIXIXIXIXIXIXIXIX",
"LXIXzX#Xt.' ) ` ) t.s .   +XIXIXIXIXIXIXIXIXIXIXIXIXIXIXIXIXIXIXIXIXLXIXIXIXIXIXLXIXIXIXIXIXIXIX",
"IXIXxX(.q.*.' ( ) 1.5     oXIXUXIXIXIXIXIXIXIXIXIXIXLXIXIXIXIXIXIXIXKXSXDXIXIXIXIXIXIXIXIXIXIXIX",
"IXIXvX(.>.-.) ( ` 4., .   oXIXPXIXIXIXIXIXIXIXIXIXIXIXIXIXLXUXUXFXyXI.! |.+XIXIXIXIXIXIXIXIXIXIX",
"IXIXmX(.q.*.) ( ` 5., o o }.IXIXIXIXIXIXIXIXIXIXIXLXLXJXtXE K i e # , , + C .XJXIXIXIXIXIXIXIXIX",
"IXIXSX(.4.' ) ) &.u.< X   }.IXIXIXIXIXIXIXIXIXIXAXdXdX@XC @ . X 2 3 k M S G T |.KXIXIXIXIXIXIXIX",
"IXIXAX'.y.o.) ( ' u.x $ o [.IXIXIXIXIXIXIXIXAXsX(.A.J.G.S F F G 7.$.@. .' b h H jXIXIXIXIXIXIXIX",
"IXIXKX$Xh.-.' ( ( O.S + o P JXPXLXIXLXIXLXAX&XZ.+._ _ @.o.o.@.#.<.' ` ' ..d 4 D rXIXIXIXIXIXIXIX",
"IXIXKX-Xk.;.' ( ^ -.5.5 & J BXIXPXIXIXLXKXcXZ./ ( ( ( ) { -.O.,.a.&.( ( ..d 5 j U.IXIXIXIXIXIXIX",
"IXIXLX>Xk.@.) ( ( ' 4.j 8 e 0XIXIXUXIXDXaX<XD.( ( ( ( ] ) ;.;.q.d.:.( ( _ a 0 # U.IXIXUXIXIXIXIX",
"IXIXIX9Xv.-.( ( ( ] e.n 9 : {.IXIXIXIXSX>X~.M.' ^ ( ( ( ( ) u.A.Y.f.` ( X.4 9 % }.UXIXIXIXIXIXIX",
"PXIXIXsXS.;.( ( ( ] -.6.6 8 L NXIXIXLXvXR.4.O.O.[ { ] ` -.,.^.=X*XD.^ ( ..3 # ; oXIXIXIXIXIXIXIX",
"IXIXIXCXJ.0.&.( ( ( &.s.l 7 J pXUXIXIXSX/.p.,.a.s.p.+.} m m S.!.^.y.) ^ } , ; = iXIXIXIXIXIXIXIX",
"IXIXUXKX#Xr.' ( ( ( ) 0.m.q 2 `.JXIXIXPX-Xt.#.0.z.8.a 3 4 S c.A.Q.e.&.&.} < 8 u pXIXIXIXIXIXIXIX",
"IXIXIXIX7Xl. .) ( ( =.0.H.7., ; +XLXIXIX9XT.v.j.Y.W.D T E.*Xi.q.e.O.&.&.m 1 9 p bXIXIXIXIXIXIXIX",
"IXIXIXIXCX~.#.-.) / -.>.z.A.l $ u +XUXLXKXlX8X8XaXfXuXfX5Xj.O.>.#.' ( ( m + = J NXIXIXIXIXIXIXIX",
"IXIXLXIXPX9Xk.0.@.o.{ O.a.t.9.3 . - E tXNXpX+X`.Q ! C Y l.-.>.-.,.) ( ( c O = E IXIXIXIXIXIXIXIX",
"IXIXIXIXIXSX$X8.-.' *.' o.-.t.B.j + + 9 e ; = X . , a v { -.>.y.0.) ( _ d + e ].IXIXIXIXIXIXIXIX",
"IXIXIXIXIXLXMX#Xu.{ *.-.) ' -.%.m.7.N 0 . O 0 D G 3.~ ) ' @.r.H._.>. ._ f 2 L iXIXIXIXIXIXIXIXIX",
"IXIXIXIXLXIXPXvX*X8.O.o.-.' ^ ( ` ' q.g.6.6.2.#. .) ` ' O.d.J.7X6Xh.O.#.M B U.BXIXIXIXIXIXIXIXIX",
"LXIXIXIXIXIXIXIXAX:X8.o.' *.) ( ( ( ^ ' ' ' -.' ` ' -.@.i.R.sXAX2Xi.{ w.M V Q JXIXIXIXIXIXIXIXIX",
"IXIXIXIXIXIXIXIXUXLX6XD.@._ ) ( *.*.' ` ' *.o.,.,.@.%.l.=XxXLXKX3XS.2.l.3.T }.UXIXIXIXIXIXIXIXIX",
"IXIXIXIXIXIXIXIXIXIXKXlX#XZ.%.' ' @. .@.:.e.0.4.g.H.$XsXAXIXIXIXVXZ s G E.U.mXIXIXIXIXIXIXIXIXIX",
"IXIXIXIXIXIXIXIXIXIXIXIXLXlX6XR.A.k.j.k.H.T.).<X8XMXKXIXIXIXIXIXJX.XL.I.1X|.LXIXIXIXIXIXIXIXIXIX",
"IXIXIXIXIXIXIXIXIXIXIXUXIXIXIXLXKXCXvXMXAXKXIXUXIXIXIXUXIXIXIXLXLXIXKXhXKXpXIXIXIXIXIXIXIXIXIXIX",
"IXIXIXIXIXIXIXIXIXIXIXUXPXIXIXIXIXIXPXIXIXIXIXIXIXIXIXIXIXIXIXIXIXIXIXIXIXIXIXIXIXIXIXIXIXIXIXIX",
"IXIXIXIXIXIXIXIXPXPXIXIXIXIXIXLXIXIXIXIXIXLXIXIXIXIXIXPXIXIXIXIXIXIXIXIXIXIXIXIXIXIXIXIXIXIXIXIX",
"IXIXIXIXIXIXIXIXIXIXIXIXIXIXIXLXIXIXIXIXIXUXIXIXIXUXIXIXIXIXIXIXIXIXIXIXIXIXIXIXIXIXIXIXIXIXIXIX",
"IXIXIXIXIXIXIXIXIXIXIXIXIXIXIXIXIXIXIXIXIXIXIXIXIXIXIXIXIXIXIXIXIXIXIXIXIXPXIXIXIXIXIXIXIXIXIXIX"
};
