/* XPM */
static char *operations[] = {
/* columns rows colors chars-per-pixel */
"32 32 176 2",
"   c #171B00",
".  c #161E00",
"X  c #191B01",
"o  c #1A1C02",
"O  c #1C1F04",
"+  c #162101",
"@  c #182401",
"#  c #1B2C02",
"$  c #1C2802",
"%  c #173203",
"&  c #133A03",
"*  c #2C2F1C",
"=  c #0F4803",
"-  c #104303",
";  c #154303",
":  c #146D05",
">  c #1F6705",
",  c #1C6805",
"<  c #137104",
"1  c #127A04",
"2  c #127E04",
"3  c #2A4602",
"4  c #324702",
"5  c #3B4803",
"6  c #2E6806",
"7  c #356907",
"8  c #454A03",
"9  c #534E04",
"0  c #565105",
"q  c #575305",
"w  c #595805",
"e  c #5A5C06",
"r  c #456707",
"t  c #4E6707",
"y  c #536406",
"u  c #576106",
"i  c #039801",
"p  c #049801",
"a  c #069901",
"s  c #079901",
"d  c #089801",
"f  c #0A9802",
"g  c #0C9902",
"h  c #0E9902",
"j  c #148304",
"k  c #198705",
"l  c #1D8805",
"z  c #119902",
"x  c #149A01",
"c  c #179A01",
"v  c #1A9B02",
"b  c #1E9C02",
"n  c #228A05",
"m  c #278C05",
"M  c #209C03",
"N  c #259D02",
"B  c #2E9104",
"V  c #299E02",
"C  c #2D9F02",
"Z  c #3C9903",
"A  c #3E9D03",
"S  c #30A002",
"D  c #34A002",
"F  c #38A102",
"G  c #3CA102",
"H  c #6F9B06",
"J  c #7A8207",
"K  c #788B07",
"L  c #739407",
"P  c #6AA704",
"I  c #71AB04",
"U  c #76AF04",
"Y  c #7DB004",
"T  c #807B09",
"R  c #85780B",
"E  c #89780C",
"W  c #8C7B0D",
"Q  c #907B0E",
"!  c #927E11",
"~  c #978314",
"^  c #9B8514",
"/  c #9F8713",
"(  c #83B104",
")  c #8CB305",
"_  c #90B405",
"`  c #91B405",
"'  c #A58B11",
"]  c #A68D10",
"[  c #A8900E",
"{  c #AB910E",
"}  c #AE940C",
"|  c #B2970C",
" . c #B5990D",
".. c #B79B0E",
"X. c #B89F13",
"o. c #BABC0B",
"O. c #B8BD0C",
"+. c #BCBC0B",
"@. c #BBB914",
"#. c #BBA520",
"$. c #C0BC0B",
"%. c #C3BD0A",
"&. c #C7BC0B",
"*. c #CDBC0C",
"=. c #D0BA0D",
"-. c #D4BC0E",
";. c #D8BE0E",
":. c #DDBD0E",
">. c #E1BD0E",
",. c #E4BE0D",
"<. c #E6BF0C",
"1. c #E7C10C",
"2. c #EAC30C",
"3. c #EDC50B",
"4. c #EFC709",
"5. c #F2C907",
"6. c #F3CA06",
"7. c #F4CA06",
"8. c #F6CB05",
"9. c #F7CB04",
"0. c #F0C808",
"q. c #FBCC01",
"w. c #FACC02",
"e. c #FACC05",
"r. c #FBCC05",
"t. c #FDCB03",
"y. c #FCCC01",
"u. c #FDCC01",
"i. c #FCCC02",
"p. c #FCCC03",
"a. c #FCCC04",
"s. c #FCCC05",
"d. c #FCCC06",
"f. c #FBCC09",
"g. c #FBCC0B",
"h. c #FBCC0D",
"j. c #FCCC08",
"k. c #FCCC09",
"l. c #FCCC0C",
"z. c #FCCD0E",
"x. c #FCCD0F",
"c. c #FACE14",
"v. c #FBCE14",
"b. c #FBCE15",
"n. c #FCCD12",
"m. c #FCCD13",
"M. c #FCCE14",
"N. c #FCCE16",
"B. c #FBCF18",
"V. c #FBCF1A",
"C. c #FAD01C",
"Z. c #FBD01E",
"A. c #FBD120",
"S. c #FBD121",
"D. c #FBD224",
"F. c #FBD328",
"G. c #FBD42D",
"H. c #FAD537",
"J. c #FAD63D",
"K. c #FAD844",
"L. c #FBDA4C",
"P. c #FBDD56",
"I. c #FBDF60",
"U. c #FCE067",
"Y. c #FCE371",
"T. c #FCE67D",
"R. c #FCE888",
"E. c #FCEA92",
"W. c #FDEC9A",
"Q. c #FDEEA5",
"!. c #FDF0AF",
"~. c #FDF2BB",
"^. c #FDF4C6",
"/. c #FDF5CD",
"(. c #FCF4D1",
"). c #FDF5D0",
/* pixels */
"(.(.Q.I.J.K.U.T.E.Y.V.e.s.s.s.g.s.s.s.p.s.k.k.h.k.s.f.D.Y.~.(.(.",
"(.P.S.k.s.s.k.l.n.6.-.} ] ] ~ W [ X.-.2.8.t.s.k.k.s.s.s.V.K.R.^.",
"Q.F.p.p.p.p.p.t.0.' 0 3 ; - = = = ; 7 w T $.:.r.s.t.t.f.V.G.P.Q.",
"E.B.p.k.k.p.p.l.-.J m k g d d d g d k : - 3 y E &.6.r.r.l.k.K.W.",
"Y.k.s.k.s.s.h.@.P x i i s g g s d d s g k : : > 5 ^ <.V.V.V.K.T.",
"S.s.s.p.p.8.O.G g i i s s M C V C v d g x x g v m 8 q -.n.V.V.S.",
"s.w.e.p.w.o.G s s s d v D I _ U P C b x x x b g M u   ! l.s.p.p.",
"s.t.s.s.-.P x s i s k Z +.6.e.6.&.) G C N x M b x H # 9 2.p.p.p.",
"J.D.n.n._ G g i s x ; ~ l.s.s.s.s.e.-._ G D D N v A % 9 ,.s.t.p.",
"P.P.K.G.U C s i s = 8 :.k.s.k.l.k.k.k.l.%.( K 6 n 7 O e ,.p.t.p.",
"n.c.B.&.P x i i j . E g.t.s.s.M.N.g.s.k.l.2.^ $ % @ 0 =.6.k.l.n.",
"k.s.e.o.G d i x ,   | r.k.l.V.F.F.n.k.s.k.l.S.#.~ / >.G.F.G.H.J.",
"s.p.9._ D g s b ; o =.s.p.p.p.s.g.p.p.p.t.s.s.M.V.V.V.V.V.V.S.D.",
"s.s.9.` C g d N %   #.k.k.s.p.t.p.p.p.p.s.s.e.w.t.t.s.t.t.t.s.p.",
"p.p.8.` M d d k @   X.t.p.p.p.p.p.p.p.p.p.k.k.7.<.0.r.f.s.p.p.p.",
"p.p.8.) M d s j .   X.t.t.p.p.p.p.t.w.4...] ! u 5 w  .8.t.p.s.s.",
"p.p.t.` b d s k $   ..t.p.p.p.s.8.-.+.Q 4 . $ - : , t | s.p.s.s.",
"t.t.8.` V d p v ;   { t.p.p.p.6.` D D B n m m x d j = J 6.t.t.p.",
"k.n.M.O.C g p x :   W f.p.p.7.O.V i s i g v M g s 1 & 9 <.p.s.9.",
"s.M.F.@.D d i g j # 0 4.e.p.%.Y N i i i g N G M s < @ 8 ,.w.t.k.",
"s.s.l.&.G g p d M ; # #.N.g._ D b x g x v P P C s :   9 2.s.s.l.",
"s.p.k.4.P g i p v m # W n.e.o.C M D 1 = , A P N g : . w c.l.M.S.",
"s.s.l.l.` M s s x A 6 # ..w.-.( P Y K J H C V x g = . T l.l.M.n.",
"p.s.k.s.-.G x d x N B % $ ~ -.&./ W R L D v x s s =   Q e.t.k.c.",
"p.p.p.p.r.o.D x g g b m ; % * O O # = 2 x V D x d ; $  .l.s.S.L.",
"n.s.s.k.h.4.+.D c c s g v n , , 1 k x g b P ` C x = e ,.s.s.J.R.",
"M.k.k.l.C.x.B.o.D c d s s s g x x g x C U -.O.C b 6 u 4.t.s.P.!.",
"n.p.s.s.k.l.M.C.*.Y C v c x x M V G P O.4.s.-.r 7 J =.f.s.f.Y.^.",
"P.k.k.k.l.M.M.M.n.4.*._ Y I Y _ O.*.6.8.l.n.C.#.[ | ,.p.s.n.R.(.",
"Q.S.p.p.p.p.p.p.s.k.s.7.8.c.c.g.l.k.k.g.l.n.n.M.8.8.k.p.t.G.!.(.",
"(.T.F.B.l.s.s.s.e.M.C.l.c.V.S.N.M.M.l.k.p.p.p.k.M.J.P.L.K.R.(./.",
"(.~.U.J.F.M.s.p.p.s.l.M.l.l.l.g.h.n.l.k.s.p.s.h.H.R.~.Q.W.^.(.(."
};
