/* XPM */
static char *package[] = {
/* columns rows colors chars-per-pixel */
"48 48 256 2",
"   c #1B0A0A",
".  c #1C1F20",
"X  c #210F0E",
"o  c #281715",
"O  c #341C1A",
"+  c #33211D",
"@  c #28241C",
"#  c #272829",
"$  c #352C2A",
"%  c #323334",
"&  c #383937",
"*  c #31332F",
"=  c #3A3B40",
"-  c #3F4045",
";  c #451B1A",
":  c #453635",
">  c #542B29",
",  c #6C312F",
"<  c #463C42",
"1  c #5D423E",
"2  c #474746",
"3  c #4F5251",
"4  c #585857",
"5  c #534C4B",
"6  c #5D605D",
"7  c #615F62",
"8  c #676869",
"9  c #787678",
"0  c #6F7273",
"q  c #645D59",
"w  c #7C7D82",
"e  c #7E807D",
"r  c #7F8887",
"t  c #8B1B1C",
"y  c #922B2C",
"u  c #BA1D1B",
"i  c #BE1D20",
"p  c #BB201C",
"a  c #A63A37",
"s  c #BB2725",
"d  c #B83635",
"f  c #B5312C",
"g  c #B23C40",
"h  c #B44033",
"j  c #806E6A",
"k  c #BA4748",
"l  c #BD5757",
"z  c #B04D4A",
"x  c #BA6C66",
"c  c #855C5C",
"v  c #C11C1B",
"b  c #C22C2D",
"n  c #C52929",
"m  c #C8352D",
"M  c #C33233",
"N  c #C93838",
"B  c #D93538",
"V  c #D12C2F",
"C  c #E5393B",
"Z  c #C5201E",
"A  c #CA3B41",
"S  c #E63C41",
"D  c #C84E35",
"F  c #D47037",
"G  c #F1423F",
"H  c #D05E13",
"J  c #C74847",
"K  c #C85858",
"L  c #DC4B4B",
"P  c #D74749",
"I  c #D45858",
"U  c #CA504B",
"Y  c #CC5C62",
"T  c #CB6958",
"R  c #CA6867",
"E  c #D66968",
"W  c #D67B79",
"Q  c #D3766B",
"!  c #E84546",
"~  c #E85656",
"^  c #F54544",
"/  c #FC4444",
"(  c #FB4B4C",
")  c #F64948",
"_  c #F34E53",
"`  c #F35352",
"'  c #FC5353",
"]  c #FA5C5D",
"[  c #F45859",
"{  c #FC5C61",
"}  c #F7615E",
"|  c #E7605F",
" . c #EA6868",
".. c #EB7576",
"X. c #F36362",
"o. c #FA6463",
"O. c #FB6B6B",
"+. c #F4696A",
"@. c #FE7B78",
"#. c #F37978",
"$. c #F16F6F",
"%. c #F17A82",
"&. c #E88D2D",
"*. c #DB872C",
"=. c #D18A75",
"-. c #E4807C",
";. c #F6807C",
":. c #E69375",
">. c #F5B24A",
",. c #E3884B",
"<. c #FBCE1C",
"1. c #FDCC14",
"2. c #FBD21B",
"3. c #FBD115",
"4. c #FECE0C",
"5. c #FCCE23",
"6. c #F7CE24",
"7. c #FECE3A",
"8. c #F6D324",
"9. c #FDD223",
"0. c #FCD32B",
"q. c #FCD728",
"w. c #FCD333",
"e. c #FCD43B",
"r. c #FDD833",
"t. c #FCD93C",
"y. c #F6D637",
"u. c #F5D54A",
"i. c #FBD542",
"p. c #FAD64A",
"a. c #FDD943",
"s. c #FCDA4B",
"d. c #F5D748",
"f. c #F5D953",
"g. c #FBDB54",
"h. c #FBDC5B",
"j. c #F8D75A",
"k. c #FEC94E",
"l. c #FCDB63",
"z. c #FBDD6B",
"x. c #F6DA67",
"c. c #FBDC73",
"v. c #FECF6D",
"b. c #FDE15C",
"n. c #FDE255",
"m. c #FFE14E",
"M. c #FCE261",
"N. c #FDE26C",
"B. c #FEE969",
"V. c #FCE272",
"C. c #FCE27C",
"Z. c #FEEA73",
"A. c #FEEA7C",
"S. c #F5E17A",
"D. c #868487",
"F. c #8E8E92",
"G. c #979596",
"H. c #908F8D",
"J. c #9E9FA1",
"K. c #9FA0A2",
"L. c #A59793",
"P. c #A2A29E",
"I. c #A8A7A9",
"U. c #AEB1B1",
"Y. c #B6B7B7",
"T. c #B8AFAD",
"R. c #BDBBC0",
"E. c #BEC0C1",
"W. c #DC8987",
"Q. c #D79A9B",
"!. c #CF8E89",
"~. c #D0A999",
"^. c #C5B9B8",
"/. c #DAA8A7",
"(. c #DBB4B4",
"). c #E58987",
"_. c #E3999A",
"`. c #E89293",
"'. c #F38686",
"]. c #F28B90",
"[. c #FA9797",
"{. c #ED918C",
"}. c #EC9EA1",
"|. c #F2A09A",
" X c #E6AAA7",
".X c #EBADB3",
"XX c #E9B4B6",
"oX c #F3A4A2",
"OX c #F9A6A7",
"+X c #F1B0AD",
"@X c #F3BBBB",
"#X c #F9B9BA",
"$X c #ECB1AE",
"%X c #C2BBC1",
"&X c #FABDC1",
"*X c #C5C3BF",
"=X c #FDDC82",
"-X c #FBDE95",
";X c #FEC0BC",
":X c #FAD8B2",
">X c #FBE583",
",X c #FCE58A",
"<X c #FEEA83",
"1X c #FAE98B",
"2X c #FEEB93",
"3X c #FDEB9B",
"4X c #FEE492",
"5X c #FEF49B",
"6X c #FEF393",
"7X c #FFF48F",
"8X c #FCECA4",
"9X c #FBE9A8",
"0X c #FCEDB3",
"qX c #FEF3A3",
"wX c #FEF3AC",
"eX c #FEF3B3",
"rX c #FEF4BB",
"tX c #FFFABC",
"yX c #FFF9B1",
"uX c #C9C8CA",
"iX c #D6D6D6",
"pX c #D1D0D1",
"aX c #DDE0D9",
"sX c #DEE1E1",
"dX c #E9C8C6",
"fX c #F9C7C6",
"gX c #FBD4CC",
"hX c #FBD3D3",
"jX c #FAD9D5",
"kX c #F9D8D9",
"lX c #F3CCD2",
"zX c #F1DDE1",
"xX c #FEE9D4",
"cX c #FEE4DB",
"vX c #FEF3C3",
"bX c #FDF4CA",
"nX c #FFFACA",
"mX c #FEFAC3",
"MX c #FFFBD4",
"NX c #FEFADB",
"BX c #FEF5D5",
"VX c #F3E3CD",
"CX c #FDE3E2",
"ZX c #FEEBE5",
"AX c #FEEBEB",
"SX c #F9E7E9",
"DX c #FBEEF1",
"FX c #FEF3EB",
"GX c #FEFBE2",
"HX c #FEFCEB",
"JX c #F6F3EB",
"KX c #FEF3F3",
"LX c #FEFBF4",
"PX c #FEFEFD",
"IX c #F8F6F7",
"UX c #E7E8E7",
/* pixels */
"PXPXPXPXIXPXPXIXPXPXPXPXPXPXPXPXPXPXPXPXPXPXPXPXPXPXPXPXPXPXPXPXPXPXPXPXPXPXPXPXPXPXPXPXPXPXPXPX",
"PXPXPXPXPXPXPXPXPXPXIXPXIXPXPXPXPXPXPXPXPXPXPXPXPXPXPXPXPXPXPXPXPXPXPXPXPXPXPXPXPXPXPXPXPXPXPXPX",
"PXPXPXPXPXPXPXPXAX#X[.].].].OX#XkXAXLXPXPXPXPXPXPXPXPXPXPXPXPXPXPXPXPXPXPXPXPXPXPXPXPXPXPXPXPXPX",
"LXPXPXPXPXPXLXlX#.+.{ { ] O.@.+.#...].gXFXPXPXPXPXPXPXPXPXPXPXPXPXPXPXPXPXPXPXPXPXPXPXPXPXPXPXPX",
"IXPXPXPXPXLXfX#.{ [ X.X.X.@.;.+.{ O.O.O.{.gXIXPXPXPXPXPXPXPXPXPXPXPXPXPXPXPXPXPXPXPXPXPXPXPXPXPX",
"PXPXPXPXPXjX#.} ( S P U I J ~ L I [ ' ] O.[.#XCXSXLXPXPXPXPXPXPXPXPXPXPXPXPXPXPXPXPXPXPXPXPXPXPX",
"PXPXPXPXPX}.[ ! V V i M N b A S L I ;.@.` o.OXfXhXkXLXPXPXPXPXPXPXPXPXPXPXPXPXPXPXPXPXPXPXPXPXPX",
"PXPXPXPXCX[.~ B b d k U W W K d d K ].#.[ ' } OX.XfXAXPXPXPXPXPXPXPXPXPXPXPXPXPXPXPXPXPXPXPXPXPX",
"PXPXPXIXLX&XJ M `.CXAXZXAXAXZXcXhX@X.X`.| ( ` [.OX#XAXPXLXPXPXPXPXPXPXPXPXPXPXPXPXLXPXPXIXPXPXPX",
"PXPXPXPXPX&XR E hXCXCXcXCXAXAXAXKXKXAXXX-.[ } O.[.#XIXPXPXPXPXIXPXPXPXLXPXPXPXPXPXLXpXuXsXIXIXPX",
"PXPXPXPXPX.XY J J J k l J k d k z R ).OXOX@.o.[ '.gXDXIXKXLXPXPXIXFXFXzXlXCXAXKXIXJX5 & 8 iXPXIX",
"PXPXPXPXIXhXE f s n M M u p p Z n M N N U N N ! I I Y T R W _. X@XdXdXXXQ.Q.Q./.lXdX: & 0 sXJXIX",
"IXPXPXPXPXIXhX@X.X_.:.:.Q Q =.E D d D P U P n m m N V n N D I Q W..X.XQ.!.Q./.dXkX`.x x (.U.D.UX",
"IXPXPXPXkX XhXAXPXNX-Xl.j.l.z.v.k.>.>.>.>.>.&.&.&.H H H D T Q W.$X:XVXxXcXDXPXIXCX-.O.$.`.2 2 pX",
"PXPXPXcXl P  .'.CXHX3Xd.7.w.9.2.<.9.0.t.e.s.e.e.w.7.7.i.l.=X9XrX0X8X3X3XeXGXPXPXFX`._ _ R # = iX",
"PXPXIXfXf C ` o.OXAXnX<Xl.g.2.3.2.9.<.0.t.g.h.f.u.e.7.e.f.x.C.<XA.h.e.r.j.wXLXPXAXY S ` K @ = iX",
"PXPXPX+Xf C ( ' %.AXvXl.c.2Xt.8.q.9.9.9.y.i.g.h.B.Z.<X7X5X6XB.p.i.y.0.0.y.1XHXPXAXk C ' z $ % iX",
"PXPXPXoXm S ( ( #.ZXqXe.l.7Xs.g.b.5.<.8.8.r.i.a.a.p.p.f.x.>XN.s.r.w.p.N.3XmXLXPXcXJ S ' z $ % iX",
"PXPXPX`.n S ( ( %.ZX2Xw.h.b.y.C.6Xi.a.Z.V.N.N.s.0.r.9.1.w.l.<XN.s.8.b.nXLXLXPXPXkXh S ' z o % iX",
"PXPXPX).Z C ( ( #.cXA.w.g.b.w.C.<Xe.j.mXGXNXeXs.w.h.i.1.0.>X,XN.a.8.x.MXNXbXLXPXfXs C _ a   % iX",
"PXPXPX`.u C / ( #.xXN.8.g.M.e.g.n.r.g.3XNXPXbXp.d.5XN.2.b.yXN.t.t.0.l.yXc.x.bXPX;Xs B ( a   # uX",
"PXPXPXoXs C ( ( $.BXV.6.b.b.w.a.t.0.w.f.eXHX8Xi.d.qXV.8.x.yXf.y.a.0.g.2Xf.p.rXPX&Xs B ^ k X . uX",
"PXPXPXoXu C ( ' $.xXc.w.g.b.0.q.9.9.0.y.qXnXh.<.e.5Xx.9.l.2Xi.y.n.0.s.<Xu.f.tXPX@Xi C ^ g   # uX",
"PXPXPXOXs B ^ '  .xXS.y.l.Z.w.9.1.3.5.y.5X8X8.4.i.wXS.r.l.<Xw.t.b.w.y.b.w.p.tXIX}.i ! ) k X * U.",
"PXPXPX@XJ B ! ] $.xX<Xa.l.A.w.<.3.3.<.w.3XC.3.3.p.eX2Xe.h.B.0.e.B.0.r.m.<.i.rXPX_.s ! / h o & I.",
"PXPXPXkXI L ~ O.#.jX<Xi.j.V.w.q.2.3.<.e.1Xx.2.2.s.wX,Xe.g.M.w.j.A.a.e.s.9.d.vXPX.XP ! / J 1 & J.",
"PXPXIXCXE N ~ @.$.cX>Xe.j.<Xp.q.<.9.8.e.<XM.9.9.i.5X>Xw.g.N.p.l.5Xh.e.y.8.f.vXPX&XU ! ( J , 4 G.",
"PXPXPXCXI s L o. .hXC.e.p.6XM.r.9.9.0.a.Z.h.9.9.p.qXc.y.s.N.i.j.wXc.e.r.r.j.vXPX.XA ! ) P c 2 9 ",
"PXPXPXAXY m ~ } O.gX<Xe.u.qXN.w.q.9.0.a.M.d.9.q.p.8X,Xd.M.g.r.x.yXl.r.r.r.h.eXPX.Xd S / P , = 8 ",
"PXPXPXDXU m ! ( ~ fX3Xf.x.yXz.0.5.9.5.t.b.u.q.r.x.tXqXx.A.g.q.N.tXf.r.w.7.h.tXLX.XM ! / ! > & 8 ",
"PXPXPXKXk V C / ~ #XvXS.1XtXz.0.<.9.5.e.Z.N.M.h.1XMXnX2X5Xb.t.C.mXx.w.w.0.h.rXPXoXb ! G P , 2 8 ",
"PXPXPXKXU m C / _ &XNX8X0XnXl.9.<.q.9.g.2X3X2X2X8XGXNX8X9Xc.b.9XNXC.e.9.0.j.nXPX_.n ^ G P > 2 4 ",
"PXPXPXPXR N ! / _ #XHXeX0XvXz.5.2.9.y.N.8X9X3X,X2XrXtX2X8X1X1XbXLX3Xf.y.0.x.MXPX+Xn ! G ! ; 2 6 ",
"PXPXPXLX%.U [ ) [ gXFX9X3XvX=Xw.5.q.n.3XrX>Xh.g.d.h.z.z.1X1X5XbXHXvX>Xh.a.1XNXLX&Xb ) S L ; 2 4 ",
"PXPXPXLXQ.I [ / _ lXPXrX9XMX2Xe.5.0.h.3XqXb.8.5.0.t.p.h.<XS.,XvXLXNXqXC.N.9XHXPXfXA ! ^ ~ > 3 8 ",
"PXPXPXPX@X-.` / ` fXKXNXbXMXC.0.1.9.e.j.B.a.8.9.r.s.g.h.6X9X9XNXPXHX9X<X2XvXHXPXhXI _ ) #.: 8 9 ",
"PXPXPXPXkXoX[ / o.;XFXIXLXNXc.8.4.4.2.8.r.w.q.0.a.N.Z.N.2XMXNXGXLXHX9XS.,XrXGXPXCX).[ ` '.q 8 P.",
"LXPXPXPXkX[.{ ( X.#XAXPXPXHXeXh.0.5.y.u.l.s.0.3.5.y.i.y.j.4XrXbXNXHXrX>X,XrXLXPXZX}.+.{ ].j 9 ^.",
"PXPXPXPXcXW ~ ) +.#XKXPXLXPXHX8Xl.V.5XtXbXeXc.w.8.0.t.a.e.j.3X9XrXLXGX0X9XBXPXPXZXW.{ ` ..L.D.iX",
"PXPXPXPXjX=.{ _ ;.#XPXPXLXPXLX0XC.3XvXGXPXPXMX8X,XA.<X>XV.1XeXvXGXPXPXGXBXLXPXIXSX=._ ) #.~.U.pX",
"PXPXPXPXkX`. .$.;XjXIXPXPXLXFX9XS.=X:X0XZXDXFXLXPXPXLXLXHXLXLXPXPXPXPXPXPXIXHXLXSX%.{ ( #./.E.uX",
"PXPXIXPXSX&XfXCXZXjXkXlXlXdX XQ *.*.h h d K W..X;XkXAXDXDXKXKXLXKXLXIXPXPXLXPXPXzX_.~ ' ;.^.G.Y.",
"PXPXPXPXPXCXkXkX.X_.W.!./.@X/.=.,.&.F h N A A N d R Q E l R W ).W.W.W.Q._.}.$XlXZX#X%.X.].T.8 Y.",
"PXPXPXPXIXKXIXdX/.Q. X/.(.dXdXdX~.=.T z a y g g d N J M m f v Z v v s M b s d l fXCXfXOXgXI.D.pX",
"PXPXPXPXPXPXsXT.H.D.j D.P.Y.G.9 5 * @ o o o + ; > , , t y t , t y s a y a f k T (.IXIXIXKXI.w UX",
"PXPXPXPXPXUXuXI.G.I.P.U.uXuXI.F.w 8 4 2 & & & : & # < 5 & : X X X o O + O : : : 1 3 7 Y.PXuXF.JX",
"PXPXPXPXPXPXPXPXPXUXuX^.uXaXSXIXIXsXE.U.G.r 0 7 4 % # 2 4 * & * * % # # # * * % # # % 7 iXIXR.PX",
"PXPXPXPXPXPXPXPXPXPXPXPXPXPXPXPXPXPXPXPXPXPXPXPXPXPXIXDXaXiX*XU.P.G.H.G.H.H.H.G.H.P.J.R.zXPXUXIX"
};
