/* XPM */
static char *parameter[] = {
/* columns rows colors chars-per-pixel */
"48 48 256 2",
"   c #011B3D",
".  c #041A3E",
"X  c #03203E",
"o  c #08203F",
"O  c #021C43",
"+  c #021B4A",
"@  c #091E4C",
"#  c #091A41",
"$  c #001E55",
"%  c #091D51",
"&  c #032144",
"*  c #04214A",
"=  c #0B2344",
"-  c #0B244A",
";  c #0C284D",
":  c #022351",
">  c #01245B",
",  c #0A2958",
"<  c #112343",
"1  c #122A4C",
"2  c #102449",
"3  c #132D51",
"4  c #192D52",
"5  c #112D5B",
"6  c #19324A",
"7  c #1A3358",
"8  c #00266C",
"9  c #022864",
"0  c #00296B",
"q  c #012764",
"w  c #052D73",
"e  c #003479",
"r  c #193968",
"t  c #202D50",
"y  c #27395A",
"u  c #22324E",
"i  c #2A3A62",
"p  c #2C405B",
"a  c #32435C",
"s  c #294568",
"d  c #294677",
"f  c #394A66",
"g  c #384E79",
"h  c #3E5377",
"j  c #3B526A",
"k  c #42536C",
"l  c #465778",
"z  c #515D7C",
"x  c #4F607B",
"c  c #55647C",
"v  c #506075",
"b  c #60687C",
"n  c #003989",
"m  c #395888",
"M  c #365A96",
"N  c #2B4F8C",
"B  c #3D6098",
"V  c #2C60A8",
"C  c #3063B1",
"Z  c #14489C",
"A  c #0956CB",
"S  c #145DCF",
"D  c #0E5EE0",
"F  c #0C61DE",
"G  c #1867DE",
"H  c #0B64E5",
"J  c #0660E2",
"K  c #0266FD",
"L  c #0369F4",
"P  c #0369FC",
"I  c #0A66FD",
"U  c #0D6BF3",
"Y  c #0A6BFC",
"T  c #0664F5",
"R  c #0A72FD",
"E  c #1467E8",
"W  c #146CF4",
"Q  c #126CFD",
"!  c #1067F2",
"~  c #1B74EC",
"^  c #1472F4",
"/  c #1472FB",
"(  c #1972F5",
")  c #1A74FD",
"_  c #1D79FC",
"`  c #1B78F6",
"'  c #276CD6",
"]  c #3571CD",
"[  c #2977ED",
"{  c #2275FB",
"}  c #2379F3",
"|  c #237CFC",
" . c #2976F1",
".. c #2C7BF3",
"X. c #2B7CFC",
"o. c #2576F6",
"O. c #367DEC",
"+. c #317BF2",
"@. c #397FFB",
"#. c #435B8B",
"$. c #4B6184",
"%. c #466894",
"&. c #586A84",
"*. c #566D97",
"=. c #5976A5",
"-. c #4772AD",
";. c #657386",
":. c #677894",
">. c #717E95",
",. c #727886",
"<. c #687EA3",
"1. c #2F81EE",
"2. c #2C82FD",
"3. c #2983F9",
"4. c #3282ED",
"5. c #3D86ED",
"6. c #3382F4",
"7. c #3384FC",
"8. c #3488FD",
"9. c #3A84F3",
"0. c #3A84FA",
"q. c #3C8AFC",
"w. c #3A8AF4",
"e. c #3C91FE",
"r. c #3C90F4",
"t. c #798498",
"y. c #6B85A6",
"u. c #6A87B5",
"i. c #7387A5",
"p. c #7D94B6",
"a. c #708CBB",
"s. c #4980D0",
"d. c #4789EC",
"f. c #448AF6",
"g. c #428CFC",
"h. c #4A8BF2",
"j. c #4A8EFB",
"k. c #4585F5",
"l. c #4292FE",
"z. c #4B93FC",
"x. c #4D99FE",
"c. c #4A93F4",
"v. c #528EEE",
"b. c #508EE4",
"n. c #528CF4",
"m. c #5893ED",
"M. c #5493F4",
"N. c #5394FA",
"B. c #539AFD",
"V. c #5A97FA",
"C. c #5B9CFC",
"Z. c #5A97F3",
"A. c #5DA4FF",
"S. c #54A5FF",
"D. c #6396DB",
"F. c #789AD1",
"G. c #648EC7",
"H. c #6999EC",
"J. c #629BF4",
"K. c #629AF7",
"L. c #6DA1E7",
"P. c #63A2FC",
"I. c #63AAFE",
"U. c #6DA4F5",
"Y. c #6BA5FD",
"T. c #6CAAFE",
"R. c #6DB0FF",
"E. c #76A8EB",
"W. c #76A5E9",
"Q. c #71A4F2",
"!. c #72ACFD",
"~. c #7CADF4",
"^. c #78ADFB",
"/. c #73A6F5",
"(. c #7AB3FD",
"). c #79B6FD",
"_. c #7FC1FF",
"`. c #8C8F9E",
"'. c #91959E",
"]. c #8994A9",
"[. c #939EB0",
"{. c #8594B2",
"}. c #95A2B1",
"|. c #9EA7B8",
" X c #9EA4AD",
".X c #A5AEBE",
"XX c #A4A9B3",
"oX c #A5ADB6",
"OX c #829CC7",
"+X c #8CA7D8",
"@X c #9BABC3",
"#X c #9AB2D6",
"$X c #85ABE3",
"%X c #83B1F4",
"&X c #84B4FC",
"*X c #83BBFE",
"=X c #8BBBFD",
"-X c #8BB5F8",
";X c #93B3E7",
":X c #91BCFA",
">X c #96BBF4",
",X c #8FB9E8",
"<X c #AAB5C6",
"1X c #A7BAD7",
"2X c #B5BBC8",
"3X c #B7BED0",
"4X c #A8ADC7",
"5X c #A1BCEA",
"6X c #87C2FD",
"7X c #96C3FF",
"8X c #9BC4FC",
"9X c #9CC9FE",
"0X c #9AC1F6",
"qX c #99D4FF",
"wX c #ADC0CF",
"eX c #BDC7CC",
"rX c #B8C5D7",
"tX c #A1C4FD",
"yX c #A4CBFC",
"uX c #ABCEFD",
"iX c #A4C5F5",
"pX c #A3D4FD",
"aX c #AAD3FD",
"sX c #B7CBEA",
"dX c #B4CEF8",
"fX c #B5D9FD",
"gX c #BAD5FB",
"hX c #BBDBFD",
"jX c #B4D1FA",
"kX c #B9E3FE",
"lX c #C2C8CE",
"zX c #C5CBD8",
"xX c #CBD1DD",
"cX c #D3D4D7",
"vX c #C3DDFE",
"bX c #C6D5F2",
"nX c #D6DCE7",
"mX c #C5D0E3",
"MX c #C4E3FD",
"NX c #CAE4FD",
"BX c #CEE7FB",
"VX c #D7E1E9",
"CX c #D3EAFE",
"ZX c #DAECFD",
"AX c #D1E4FE",
"SX c #DBF4FE",
"DX c #E7EAED",
"FX c #E4EBF4",
"GX c #E3F5FE",
"HX c #EAF3F5",
"JX c #EAF4FD",
"KX c #EBFAFE",
"LX c #E3F8FF",
"PX c #F4FDFE",
"IX c #FEFEFE",
"UX c #F4F7F7",
/* pixels */
"IXIXIXIXIXIXIXIXIXIXIXIXIXIXIXIXIXIXIXIXIXIXIXIXIXIXIXIXIXIXIXIXIXUXIXIXUXIXUXIXIXKXSX(.~.iXnXPX",
"IXIXIXIXIXIXIXIXIXIXIXIXIXIXIXIXIXIXIXIXIXIXIXIXIXIXIXIXIXIXIXIXIXIXIXIXIXIXIXIXKXhXH.B.Z 5 y b ",
"IXIXIXIXIXIXIXIXIXIXIXIXIXIXIXIXIXIXIXIXIXIXIXIXIXIXIXIXIXIXIXIXIXIXIXIXIXIXIXLX9Xv.B.+.e * ; k ",
"IXIXIXIXIXIXIXIXIXIXIXIXIXIXIXIXIXIXIXIXIXIXIXIXIXIXIXIXIXIXIXIXIXIXIXIXIXUXBX-XZ.c.[ G 9 + * f ",
"IXIXIXIXIXIXIXIXIXIXIXIXIXIXIXIXIXIXIXIXIXIXIXIXIXIXIXIXIXIXIXIXIXIXUXIXPXMXQ.V.B.q.q.' > # & l ",
"IXIXIXIXIXIXIXIXIXIXIXIXIXIXIXIXIXIXIXIXIXIXIXIXIXIXIXIXIXIXIXIXIXIXIXUXhXU.d.q.z.Z.!.s.: # o l ",
"IXIXIXIXIXIXIXIXIXIXIXIXIXIXIXIXIXIXIXIXIXIXIXIXIXIXIXIXIXIXIXIXIXIXKXjXh.g.q.4.c.pXkX-.: @ + c ",
"IXIXIXIXIXIXIXIXIXIXIXIXIXIXIXIXIXIXIXIXIXIXIXIXIXIXIXIXIXIXIXIXIXKXyXd.0.7.| 6.R.aXyXC : - # c ",
"IXIXIXIXIXIXIXIXIXIXIXIXIXIXIXIXIXIXIXIXIXIXIXIXIXIXUXIXIXIXIXIXPX=Xk.w.X.X.| 2.g.Z.&XM : & - c ",
"IXIXIXIXIXIXIXIXIXIXIXIXIXIXIXIXIXIXIXIXIXIXIXIXIXIXIXIXIXIXIXHX>Xh.r.8.7.j.z.3.o.f.(.N * X = ;.",
"IXIXIXIXIXIXIXIXIXIXIXIXIXIXIXIXIXIXIXIXIXIXIXIXIXIXIXIXIXIXGX0Xz.0.r.q.h.9XP.X.X.k.(.M O & = t.",
"IXIXIXIXIXIXIXIXIXIXIXIXIXIXIXIXIXIXIXIXIXIXIXIXIXIXIXIXIXGX7Xd.7.2.w.l.^.hXn.2.7.j./.M O & . `.",
"IXIXIXIXIXIXIXIXIXIXIXIXIXIXIXIXIXIXIXIXIXIXIXIXIXIXIXIXJX8XM.l.} 8.z.6X&X7X6.3.7.x.Q.r + < o ].",
"IXIXIXIXIXIXIXIXIXIXIXIXIXIXIXIXIXIXIXIXIXIXIXIXIXIXIXLX>XV.z.g.1.w.P./.=XC.` | 7.z.~.5 & 2 < |.",
"IXIXIXIXIXIXIXIXIXIXIXIXIXIXIXIXIXIXIXIXIXIXIXIXIXUXJXtXZ.q.g.g.B.V.!.m.*X0./ _ ..B.W.; . 1 = <X",
"IXIXIXIXIXIXIXIXIXIXIXIXIXIXIXIXIXIXIXIXIXIXIXIXIXJXtXm.x.g.X.g.C.*XK.V.).w./ X. .A.G.; . 4 < xX",
"IXIXIXIXIXIXIXIXIXIXIXIXIXIXIXIXIXIXIXIXIXUXIXIXPXaXZ.j.x.g.{ 7.A.Z.T.^.=Xr.W 7.} K.G.7 = 3 6 FX",
"IXIXIXIXIXIXIXIXIXIXIXIXIXIXIXIXIXIXIXIXIXIXIXUXvXE.P.z.q.7.X.q.} 4.^.8XpX[ ) 2.} Y.OX7 2 5 6 DX",
"IXIXIXIXIXIXIXIXIXIXIXIXIXIXIXIXIXIXIXUXIXIXIXMXU.V.j.q.3.| q.| ~ z.yXBXaX~ _ q.o.^.G.y = 3 a UX",
"IXIXIXIXIXIXIXIXIXIXIXIXIXIXIXIXIXIXUXIXIXIXBX~.z.0.7.{ ^ 2.) ( 3.V.vXJX0X6.X.q...^.a.; = - a IX",
"IXIXIXIXIXIXIXIXIXIXIXIXIXIXIXIXIXIXUXIXIXSX%Xc.g.8.{ / ( Q / 2.r.~.GXPX>XC.0.q.4.~.u.- # & f IX",
"IXIXIXIXIXIXIXIXIXIXIXIXIXIXIXIXIXUXIXIXGX%XN.g.e.2.{ / Y I ) 2.j.yXJXJXyXP.0.z.r.-X*.= 1 1 v IX",
"IXIXIXIXIXIXIXIXIXIXIXIXIXIXIXIXIXIXUXLX-Xk.q.q.8.} { Y P P Q  .T.yXbXCXtXx.q.6.f.>Xh + = = ;.IX",
"IXIXIXIXIXIXIXIXIXIXIXIXIXIXIXIXIXIXKX8Xd.g.g.g.7._ Q P P R Q q.P.%XvXCX=X .2. .h.;Xi O = = ].IX",
"IXIXIXIXIXIXIXIXIXIXIXIXIXIXIXIXIXPXaXM.7.q.w.l.e./ Y Y Y Y 3.8.C.7XdXMXU...e.l.v.+X1 & 1 1 2XIX",
"IXIXIXIXIXIXIXIXIXIXIXIXUXIXIXIXPXgXm.7.7.7.X.7.| / ) ) / / 8.l.M.>XSXBXM.X.l.q.J.+X- X 2 < rXIX",
"IXIXIXIXIXIXIXIXIXIXIXIXUXIXIXIXNXH.0.| ) ) { / Y Y ) _ ` g.S.n.~.SXIXvX+.{ x...(.OX1 X 2 u VXIX",
"IXIXIXIXIXIXIXIXIXIXIXIXIXIXUXSXE.l.2./ R / / Y Y Y R ) 6.I.K.-XCXIXIXfX[ } q...*Xa.; = 4 k ZXIX",
"IXIXIXIXIXIXIXIXIXIXIXIXUXIXKX>XM.3.) / ` / Y Y L L P ) 2.9.(.CXIXIXIXhXO.3.l...&Xi.1 3 y >.HXIX",
"IXIXIXIXIXIXIXIXIXIXIXUXIXIXfXJ.z.2./ ) Q Y P P P P Q / U 9.aXLXJXUXIXfX[ 8.B.k.9XF.7 s f [.PXIX",
"IXIXIXIXIXIXIXIXIXIXIXIXIXNXK.B.2./ I Y Y Y P K P Q P P ~ &XgXhX,XSXKXhXg.z.K.C.9X1Xp &.z XXUXIX",
"IXIXIXIXIXIXIXIXIXIXIXPXNX/.z.q./ Y Y Y P K K Y Y P P / (.MXfX%X!.aXbXaXV.Y.H.*XaX1Xk :.]..XUXIX",
"IXIXIXIXIXIXIXIXIXIXPXMXU.g.8.( L Y Y R P P K P Y Y R g.J.Q.&X*XU.H.0XkXE.7XL.pXiX1X&.i.<XoXIXIX",
"IXIXIXIXUXIXIXIXIXUXNX/.z.8./ Y P P Y P P P / Y Q +.S.l...x.z.m.*X(.iXdXtXjX%X9X>X#X$.:.1X XIXIX",
"IXIXIXIXIXIXIXIXUXvXH.k.7.^ I P L P K K P Y Y { j.).c.7.X.W W n.7X>XgXNXyXfX7X7XgX#Xz c .X'.IXIX",
"IXIXPXIXIXIXUXIXfXJ.k.X.) P P K K P K K I I Q 5.6XI.| Q Q Y W r.~.AXJXCX$X9X&X^.uX5Xl &..X XPXIX",
"IXIXIXIXIXUXPXfXV.q.7.Y P I K K K K P P P T  .6X6X} R R / / / 4.>XIXPXNXE.Q.Y.v.6X+Xm t.}.2XIXIX",
"IXIXIXIXIXUXyXh.7.3.U P P P K K I I P P U h.pXyX4.Y L R ( ) ..&XKXUXPXgX:XY.C.j.^.D.B i.}.eXIXUX",
"IXUXIXIXKXaX5.q.2./ P P P T L P P I T I j.kXaXO.W I K Y } B.=XLXIXIXIXsXyXQ.V.l.Y.H.-.i.<XlXIXIX",
"IXIXIXKXuXd.} | ` Y Y Y P P P K K P P Q 0.z...L I P K ) x.(.BXIXIXIXUXZXvX:X^.9.I.D.=.|.xXlXPXIX",
"IXIXIXdXd.7.| | ^ Q P P P P P P K K L Y P K P K P P U } j./.hXKXIXIXIXPXZXvXyXb.-XF.{.rXVXcXIXIX",
"IXPXfXv.X.2.o.C.A.o.Y P L Y P P P Y Y R Y P P P K U g.z.d.W.ZXIXIXIXIXIXHXJXNX;XkX{.<X.XzXDXIXIX",
"IXMXs.O.~ ( k.8XqXq._ Q Y T K K P P K P Y P K K P ` S.S.^.fXKXPXJXHXnXxXeX3XzXnXGXy.;.[.lXDXIXIX",
"PXy.w n n Z ] ] ] ' E E F D H D D H H D F F A A A S C V V u.@XxXmX#Xy.<.p.1XsX<X|.c f t.,. XIXIX",
"KX#.9 , : + : $ > q 9 8 w 8 8 8 8 q 8 q q > $ $ $ + + + : + 7 i g *.<.u.%.s s s x t.,.2X`.3XIXIX",
"PXl , : & & O +   & & + O O     O O O + * + + * @ @ * @ : 5 r d #.*.=.m r r g $.i.eXFXKXHXUXIXIX",
"IX>.i k 6 X #   & *   # O       O O O - & +   O +       #     # 3 s m m %.=.i.}.zXHXIXIXIXIXIXIX",
"IXUXzX4Xb &.h y 7 4 < # @ # .   O O - 3 3 4 1 1 = = + - u y j &.].<XsXvXsXsXbXHXIXIXIXIXIXIXIXIX"
};
