/* XPM */
static char *privdest[] = {
/* columns rows colors chars-per-pixel */
"48 48 256 2",
"   c #060B0A",
".  c #090E11",
"X  c #0A120E",
"o  c #031214",
"O  c #0C1314",
"+  c #0C161A",
"@  c #0C181B",
"#  c #041719",
"$  c #131414",
"%  c #13191B",
"&  c #1A1B1B",
"*  c #151617",
"=  c #180F10",
"-  c #041C21",
";  c #0B1D24",
":  c #191E21",
">  c #18201D",
",  c #0A2429",
"<  c #0D2C33",
"1  c #0C3237",
"2  c #142429",
"3  c #1C2123",
"4  c #172223",
"5  c #172D33",
"6  c #183439",
"7  c #3C0304",
"8  c #3F0908",
"9  c #221918",
"0  c #251F20",
"q  c #21201D",
"w  c #232222",
"e  c #292A2A",
"r  c #2B312F",
"t  c #263434",
"y  c #302C2C",
"u  c #362528",
"i  c #3B3B3C",
"p  c #353737",
"a  c #2D2D32",
"s  c #163A44",
"d  c #0A3542",
"f  c #223D44",
"g  c #3A3C41",
"h  c #3E413F",
"j  c #17424B",
"k  c #1B4A55",
"l  c #1E525A",
"z  c #224448",
"x  c #254D53",
"c  c #27555D",
"v  c #3B484A",
"b  c #265965",
"n  c #2B6269",
"m  c #2B6874",
"M  c #356A73",
"N  c #430304",
"B  c #420806",
"V  c #440A0A",
"C  c #470808",
"Z  c #490E10",
"A  c #4B120B",
"S  c #4A1516",
"D  c #531B1B",
"F  c #521619",
"G  c #500E11",
"H  c #561E21",
"J  c #423536",
"K  c #532323",
"L  c #582828",
"P  c #572F2E",
"I  c #622928",
"U  c #673737",
"Y  c #672F31",
"T  c #4C231E",
"R  c #423F40",
"E  c #643C42",
"W  c #41433E",
"Q  c #6D403D",
"!  c #484747",
"~  c #5A5A5A",
"^  c #545556",
"/  c #504E4F",
"(  c #55696E",
")  c #6A4345",
"_  c #6B5254",
"`  c #734847",
"'  c #795254",
"]  c #764F51",
"[  c #676768",
"{  c #747473",
"}  c #7C7B7A",
"|  c #686F71",
" . c #3A7A86",
".. c #327183",
"X. c #447983",
"o. c #398693",
"O. c #39818C",
"+. c #46838B",
"@. c #468A97",
"#. c #42929E",
"$. c #548D97",
"%. c #56919B",
"&. c #52838B",
"*. c #4897A6",
"=. c #589BA9",
"-. c #5AAEBC",
";. c #55A8B6",
":. c #51A9B3",
">. c #6B9DA8",
",. c #69A9B1",
"<. c #5BB4C4",
"1. c #58B5C8",
"2. c #64B9C6",
"3. c #6FBECA",
"4. c #69C1CD",
"5. c #67C9D8",
"6. c #73C9D8",
"7. c #71D2DF",
"8. c #69CEE4",
"9. c #63CEE1",
"0. c #6BD6E3",
"q. c #73CEE0",
"w. c #77D8E7",
"e. c #75DDF2",
"r. c #6EEAFC",
"t. c #6CEAF5",
"y. c #74E2F4",
"u. c #75E5FB",
"i. c #73E9FC",
"p. c #79E5FB",
"a. c #78E6F6",
"s. c #74E1ED",
"d. c #8B6C00",
"f. c #856C03",
"g. c #8E7100",
"h. c #88720C",
"j. c #8B7617",
"k. c #926D00",
"l. c #927400",
"z. c #997601",
"x. c #9B7A02",
"c. c #967908",
"v. c #947B17",
"b. c #927D2C",
"n. c #A27E02",
"m. c #866767",
"M. c #957777",
"N. c #8F7271",
"B. c #CA727C",
"V. c #9C8105",
"C. c #9A8428",
"Z. c #9B8B37",
"A. c #A38201",
"S. c #A88503",
"D. c #AC8B02",
"F. c #A8880B",
"G. c #AE9006",
"H. c #AE9116",
"J. c #B18D03",
"K. c #B18E0B",
"L. c #B49203",
"P. c #B5930C",
"I. c #BA9502",
"U. c #BA9609",
"Y. c #BD9A02",
"T. c #BD9A0A",
"R. c #BC9C12",
"E. c #B69714",
"W. c #AC8A13",
"Q. c #B3982D",
"!. c #BEA116",
"~. c #BFA00A",
"^. c #BCA226",
"/. c #BEA439",
"(. c #9E8F4A",
"). c #AA9851",
"_. c #A1817F",
"`. c #BBA64C",
"'. c #B7A668",
"]. c #C19A03",
"[. c #C19C0A",
"{. c #C19607",
"}. c #C19D12",
"|. c #C19C18",
" X c #C39C23",
".X c #C5A20C",
"XX c #C3A114",
"oX c #C4A31B",
"OX c #C8A71A",
"+X c #C3A423",
"@X c #C9A928",
"#X c #C5A937",
"$X c #D5B439",
"%X c #CFAF30",
"&X c #D8BA48",
"*X c #D5BA59",
"=X c #C4AC4E",
"-X c #C3AD68",
";X c #C6B670",
":X c #DAC267",
">X c #D8C774",
",X c #E3C664",
"<X c #9A8586",
"1X c #989897",
"2X c #888787",
"3X c #9F9CA0",
"4X c #9DA09A",
"5X c #AA9696",
"6X c #B39795",
"7X c #B49EA1",
"8X c #B0AC8F",
"9X c #A8A8AA",
"0X c #B6B7B7",
"qX c #B4ADAE",
"wX c #9BA1A5",
"eX c #BABFC0",
"rX c #BCE0E0",
"tX c #93CACA",
"yX c #C8BB87",
"uX c #CAAFB0",
"iX c #C9B7B7",
"pX c #C8A8A7",
"aX c #D29493",
"sX c #FFBEC4",
"dX c #D2BEC1",
"fX c #D8CB96",
"gX c #D6CFA8",
"hX c #E8D7AE",
"jX c #ECE2BE",
"kX c #F9EBBC",
"lX c #E7D197",
"zX c #C8C7C8",
"xX c #D9C7C6",
"cX c #D7D8D9",
"vX c #CED1D0",
"bX c #DDE3DD",
"nX c #DEE4E2",
"mX c #E1CDCD",
"MX c #E2CED1",
"NX c #E6D9D8",
"BX c #F6D6D1",
"VX c #E9E4C6",
"CX c #F4E9DC",
"ZX c #F9F3DA",
"AX c #EFE8CF",
"SX c #E9E7E8",
"DX c #F5EAE8",
"FX c #F6ECF2",
"GX c #FDFAEB",
"HX c #F7F4EE",
"JX c #F3F3F3",
"KX c #FCF5F4",
"LX c #FDFBF4",
"PX c #FEFEFD",
"IX c #F8F8FB",
"UX c #EAEDEE",
/* pixels */
"PXPXPXPXPX2X) 5X9X1Xa $ % > $ e } { } cXPXPXPXPXPXPXPXLXPXPXjX:X$XOX].].}.].].[.@XQ.C.>X%X!.+X#X",
"PXPXPXPXPXIX_ / J & O * @ @ O $ * 0 ^ ~ zXIXPXPXPXPXPXPXPXPXfXZ.+X~.[.}.|.[.Y.L.g.V.C.:X%X|.@XR.",
"PXPXPXPXIXgX5X$   & @ 2 5 5 ; % 3 % > ! [ cXPXPXPXPXPXPXPXLXVXC.H.T.[.D.l.x.Y.D.x.n.+X#XoXXX%XT.",
"PXPXPXPXcX4X/ O O ; f s x s s f 2 4 % 3 ~ 1XJXIXIXPXPXPXPXLXGX'.V.[.T.x.f.g.D.T.J.L.T.l.F.OX%X[.",
"PXPXPXIXqX2X* O 2 s n -.6.6.=.m j 6 4 > p [ nXPXPXPXPXPXLXPXPXjXj.D.T.S.d.x.J.].Y.Y.Y.V.c.|.$X].",
"PXIXPXcXqXg . ; s M 6.i.r.i.a.q.X.j 2 > w ~ vXPXLXPXPXPXPXPXPXHX'.l.T.T.x.A.I.Y.Y.Y.T.F.c.R.%X}.",
"PXPXPXzXzX3 . - b 4.p.r.r.r.i.i.4.j 5 3 & / zXPXPXPXPXPXPXPXPXPXjXj.F.].P.D.Y.Y.Y.Y.I.A.c.#X+XXX",
"PXPXPXqX9X& o f #.a.a.i.i.i.i.i.w.k < > w i 0XPXPXPXPXPXPXPXPXPXGX'.g.L..XY.[.L.J.Y.Y.D.l.*X#XXX",
"IXIXPX9XSXt 1 @.5.u.u.i.i.p.i.i.q.l , & % r 0XPXPXPXPXPXPXPXPXPXPXAXj.S.Y.[.].D.l.I.Y.J.c.E.@X@X",
"PXPXPX9XJXp k w.t.i.r.i.i.r.u.i.6.c , % O p zXPXPXPXPXPXPXPXPXPXPXGX;Xg.Y..X[.A.l.I.Y.T.E.R.OXOX",
"LXPXPX0XIXv M e.u.i.i.i.i.i.i.i.2.b , o $ h cXPXPXPXPXPXPXPXPXPXPXPXkXZ.A.}.[.d.z.I.Y.Y.}.!.@X|.",
"PXPXPXvXPXv @.y.i.u.u.u.i.a.u.p.7.M , X & | UXIXPXPXPXPXPXPXPXPXPXIXGX;Xh.P.}.F.x.I.Y.Y.T.S.W.oX",
"IXPXIXSXJX,.:.9.1.1.;.<.;.;.;.,.,.+.6 & p dXIXIXPXPXPXPXPXPXPXPXPXPXGXhXC.A.}.}.J.I.[.T.T.n.z.R.",
"IXPXPXFXUXtX5.3.,.@.@.%.$.X.M b j 1 6 v 1XUXPXPXPXPXPXPXPXPXPXPXPXPXPXZX-Xl.P.].Y.Y.J.D.T.E.l.oX",
"PXPXPXIXIXtX,.c , - - - ; - ; ; ; # + ! nXPXPXPXPXPXPXPXPXPXPXPXPXPXPXGXlXv.n.[.Y.T.k.z.T.R.V.^.",
"PXPXPXPXIX| , # O O + O O % % ; 4 > X h JXPXPXPXPXPXPXPXPXPXPXPXPXPXPXLXZX).z.P.T.T.x.d.L.!.T.E.",
"PXIXPXIXJXcX9X/ w p h r a t 6 t 6 3 r J <XIXPXPXPXPXIXLXDXmXiXxXNXPXPXPXGXlXv.F..XT.P.g.D.Y.OXE.",
"PXPXSXvX( | rX>.>.$.%.=.=.=.,.,.>.>.[ iX_ 5XKXPXPXPXDX7X' P D D P N.MXIXLXZX-Xc.T.[.+Xx.A.T.OXoX",
"PXPXeX^ : 4 &.-.s.i.p.i.p.p.i.8...( wXSXxX_ 5XKXLXNX<X` U H D D S S U pXPXPXjX/.H.XXOXH.K.[.R.$X",
"PXPX3X! % # b *.y.u.i.r.i.i.i.0.o.< r { SXxX) <XDX5XN.m.L D D D F A A L iXPXGXhX`.R.oX.XT.}.T.&X",
"PXJX} / $ o c o.e.p.i.r.r.i.i.s.4.x / / 1XSXNX_ m.M.` S C B 7 7 8 V N A ] FXPXGXfXQ.@X.X!.oXR.&X",
"PXFX~ p & # x O.y.i.y.t.u.p.p.8.M 6 [ qXcXHXLXDXN.Q G N N C V V 7 7 N C D pXPXPXCX;X/.XX.X@XE.$X",
"PXnX[ & & + s -.a.a.5.s.e.i.u.7.j @ r 1XHXPXLXNXN.F N N C D K U H B 7 N 8 M.LXPXKXlX#X|.T.OXoX#X",
"PXPXvXp z n *.y.4.O.s M <.9.a.2.6 X $ J <XFXPXmX' A N N S T U Y F Z 7 7 7 ) DXLXVX`.^.}.].T.T.oX",
"PXPXUX^ +.6.8.u.o.6 # - M :.w.-., X = u [ cXIXxXU C N C L 6XNXpX' C N B 7 P NXGX(.c.~.[.].].Y.Y.",
"PXPXcXg *.5.9.u.+.z @ # x o.w.5.s . * & ^ qXPXiXP N N N ) NXIXxXuXZ N N N K MXVXh.A.~.].Y.].].Y.",
"PXPXqX@ *.5.9.e.m 6 4 O s ..e.0.k o O $ J 2XKXiXK C N N K 6XDX7XN.V N N 7 P xXyXQ Y.Y.Y.].].Y.Y.",
"PXLX9X@ ,.5.q.w. .f , ; l <.t.u. ., $ X w [ UXxXK N N N D U m.] L Z N N V ` jXZ.f.Y.].]..X{.Y.Y.",
"PXUX2X; =.2.-.o.j 5 2 5 $.0.y.u.=.5 O 3 y _ cXNXP V N N D Y ` Y K C N 7 S M.hXh.g.T.Y.T.[.T.Y.Y.",
"PX1X! O c ;.;.o.s @   o 1 b *.s.-.s @ 3 u ^ vXDX) S C B C H Y Y A N N 8 E uXyXf.l.~.T.~..XT.T.Y.",
"IX{ : O f -.0.3.j % o # 1 s *.a.4.k ; > 0 p zXPXM.T S V C Z Z V B B B D _.NX).f.x.T.D.P.T.I.S.T.",
"KX{ : . s :.9.2.b 6 ; s x #.w.y.5.c ; & 0 ! 0XPXxX] K K Z S V V D A A ] iXZXb.d.A.T.z.n.Y.D.d.P.",
"SX[ =   1 *.0.u.-.b M  .1.e.p.i.7.c , 4 y R 0XPXLXuX' I L H I I D D U 7XLXgXj.g.P.T.n.A.Y.D.l.Y.",
"SX[ : . < $.5.i.u.8.8.u.p.i.i.r.7.b , 4 w ! 9XPXIXPXmXm.) L H L I U 7XGXLXyXh.l.E.T.T.L.Y.J.S.Y.",
"FX[ : O ; X.*.5.y.y.u.r.i.u.i.r.6.M 5 3 w g 9XPXPXKXIXDXqX<X' m.<XxXKXIXLX(.c.x.@XT..XY.Y.I.I.Y.",
"PX{ a * O z X.@.*.1.5.s.y.a.y.y.4.b 5 $ w v 1XKXBXpXDXLXPXPXKXFXKXPXPXPXAXC.c.x.OXY.T.Y.Y.Y.Y.Y.",
"PX1XJ w + o # 1  .%.@.o.o.#.#.#.M b , % y J aXaXB.BXKXPXPXPXPXPXPXPXPXPXgXh.g.K.T.U.x.J.Y.T.Y.Y.",
"PXcX{ ! e % + O # 2 6 c M n M c z 6 # @ 9 T B.sXKXIXPXPXPXPXPXLXLXPXPXKX'.g.l.R.T.P.l.L.J.S.I.].",
"PXPXvX} / p y q * O O o o o X X O X > w J M.JXLXIXPXPXPXPXPXPXPXPXPXPXZXZ.d.x.oXT.H.l.P.A.z.T.T.",
"PXPXPXFX0X[ ! i y q & $ & % $ $ > 0 w g ~ vXPXPXPXPXPXPXPXPXPXPXIXPXLXhXj.d.F.~.T.R.n.[.A.A.Y.I.",
"PXPXPXPXPXIXzX{ / / ~ i i p y y i ^ ^ ^ zXIXPXPXPXPXPXPXPXPXPXPXPXPXPX'.h.l.E.[..XR.J.[.I.I.Y.].",
"PXPXPXPXPXPXPXIXcXzX1X| [ ~ ~ ~ [ } qXUXPXPXPXPXPXPXPXPXPXPXPXPXPXPXGX).h.n.}.[.XX.XY.{.{.Y.Y.U.",
"PXPXPXPXPXPXPXPXPXPXIXLXIXJXIXKXPXPXPXPXPXPXPXPXPXPXPXPXPXPXPXPXPXPXCX(.V.W.OX|.oXY.Y.Y.I.Y.Y.].",
"PXPXPXPXPXPXPXPXPXPXPXPXPXPXPXPXPXPXPXPXPXPXPXPXPXPXPXPXPXPXPXPXPXPXVX(.Q.#X@X+X@XT.[..X].Y.[.[.",
"PXPXPXPXPXPXPXPXPXPXPXPXPXPXPXPXPXPXPXPXPXPXPXPXPXPXPXPXPXPXPXPXPXPXVX'.`.,X%XH.x.|.!.P.P.T.{.{.",
"PXPXPXPXPXPXPXPXPXPXPXPXPXPXPXPXPXPXPXPXPXPXPXPXPXPXPXPXPXPXPXPXPXLXVX;X-X:X&XV.x.OXE.c.W.[.T.|.",
"PXPXPXPXPXPXPXPXPXPXPXPXPXPXPXPXPXPXPXPXPXPXPXPXPXPXPXPXPXPXPXPXLXGXgX;X=X*X/.V.H.%X^.`.*X@X+X&X",
"PXPXPXPXPXPXPXPXPXPXPXPXPXPXPXPXPXPXPXPXPXPXPXPXPXPXPXPXPXPXPXPXPXDXfX'.`.*X%XE.#X=X>XkXfX:X=X*X"
};
