/* XPM */
static char *privconst[] = {
/* columns rows colors chars-per-pixel */
"48 48 256 2",
"   c #090A0A",
".  c #0B0D12",
"X  c #07120E",
"o  c #0B1314",
"O  c #09151A",
"+  c #0C1A1A",
"@  c #041518",
"#  c #150809",
"$  c #131213",
"%  c #141C1C",
"&  c #1B1A1B",
"*  c #171817",
"=  c #161010",
"-  c #0B1B23",
";  c #071823",
":  c #161D22",
">  c #15211E",
",  c #0A2328",
"<  c #0A2732",
"1  c #162526",
"2  c #162C35",
"3  c #19333C",
"4  c #163338",
"5  c #260505",
"6  c #380607",
"7  c #2B1415",
"8  c #242524",
"9  c #2A2B2B",
"0  c #232627",
"q  c #2D3031",
"w  c #323232",
"e  c #3A3B3A",
"r  c #373739",
"t  c #34292C",
"y  c #1C3B43",
"u  c #0E3348",
"i  c #233C46",
"p  c #213E53",
"a  c #3F403C",
"s  c #1A4346",
"d  c #184954",
"f  c #1C525B",
"g  c #1E5866",
"h  c #244246",
"j  c #244C55",
"k  c #265259",
"l  c #3F4341",
"z  c #285A67",
"x  c #3D5C64",
"c  c #2A6B77",
"v  c #39747D",
"b  c #336870",
"n  c #480001",
"m  c #580508",
"M  c #471211",
"N  c #4C3632",
"B  c #630202",
"V  c #6B0101",
"C  c #6A0F0D",
"Z  c #6F1F22",
"A  c #61231E",
"S  c #71302E",
"D  c #483E42",
"F  c #444343",
"G  c #4C4C4C",
"H  c #41484A",
"J  c #535353",
"K  c #5C5C5B",
"L  c #565759",
"P  c #4C534F",
"I  c #46737B",
"U  c #536B72",
"Y  c #656766",
"T  c #6C7876",
"R  c #787776",
"E  c #716D6E",
"W  c #645A51",
"Q  c #387885",
"!  c #2D7583",
"~  c #467C87",
"^  c #787E80",
"/  c #7E807C",
"(  c #38828D",
")  c #3A8795",
"_  c #49838D",
"`  c #448896",
"'  c #49919C",
"]  c #578D98",
"[  c #4C9EA9",
"{  c #5297A3",
"}  c #4DA4B5",
"|  c #55A7B6",
" . c #7E848A",
".. c #7D9DA9",
"X. c #65A8B7",
"o. c #64A3AF",
"O. c #57B3C6",
"+. c #4FBEC6",
"@. c #67B9C8",
"#. c #6BB4C4",
"$. c #55C1D3",
"%. c #59C3CE",
"&. c #69C9D7",
"*. c #78CAD7",
"=. c #6EC9D5",
"-. c #6BD5E7",
";. c #76D8E8",
":. c #6BD5E9",
">. c #6DEAFB",
",. c #6FE6F5",
"<. c #7AE1EC",
"1. c #74E3F3",
"2. c #73E5FB",
"3. c #73E9FC",
"4. c #7AE3F4",
"5. c #79E4F8",
"6. c #7BE8F5",
"7. c #76E8F9",
"8. c #6EE2EF",
"9. c #850404",
"0. c #9E0806",
"q. c #B30B0A",
"w. c #89383A",
"e. c #9D5C60",
"r. c #9C6262",
"t. c #BF6469",
"y. c #814B52",
"u. c #D00F0F",
"i. c #D4292B",
"p. c #E71818",
"a. c #F50502",
"s. c #F50A05",
"d. c #F50B0B",
"f. c #FC0302",
"g. c #FD0408",
"h. c #FB0905",
"j. c #FB0A0A",
"k. c #F50709",
"l. c #F50E10",
"z. c #FB0C11",
"x. c #FA0710",
"c. c #FB110C",
"v. c #F6100B",
"b. c #F41312",
"n. c #F21A14",
"m. c #F51B1B",
"M. c #FC1312",
"N. c #FC151B",
"B. c #FC1A15",
"V. c #FD1A1A",
"C. c #F41719",
"Z. c #EB0B0B",
"A. c #FD1D21",
"S. c #F21D21",
"D. c #EA1B26",
"F. c #FD221E",
"G. c #F5201F",
"H. c #EF241C",
"J. c #EC282A",
"K. c #ED3435",
"L. c #EA373B",
"P. c #F52322",
"I. c #FC2424",
"U. c #FD2A2A",
"Y. c #F82829",
"T. c #F72E32",
"R. c #FA332D",
"E. c #F23334",
"W. c #F33B3C",
"Q. c #F73638",
"!. c #F53D43",
"~. c #F1423F",
"^. c #DE7778",
"/. c #EB4646",
"(. c #EC5757",
"). c #F34144",
"_. c #F34649",
"`. c #F54E51",
"'. c #FC5354",
"]. c #F9595A",
"[. c #F45557",
"{. c #F54F4F",
"}. c #F85C62",
"|. c #EC5C60",
" X c #FF615E",
".X c #ED6668",
"XX c #FA6D6D",
"oX c #F46667",
"OX c #FE797C",
"+X c #FA7576",
"@X c #F8746E",
"#X c #CF5657",
"$X c #F57E85",
"%X c #FD897E",
"&X c #888888",
"*X c #908E8E",
"=X c #979797",
"-X c #98A9AC",
";X c #A19898",
":X c #A8A19E",
">X c #ACABAA",
",X c #A3A4A5",
"<X c #B3B3B3",
"1X c #B8B7B8",
"2X c #B4AEAE",
"3X c #83D7E5",
"4X c #99D1D6",
"5X c #FD8283",
"6X c #F98B8B",
"7X c #FD908E",
"8X c #FA9394",
"9X c #FD9B9B",
"0X c #FE9896",
"qX c #FB8E90",
"wX c #FB9DA4",
"eX c #FFA09E",
"rX c #FDA3A4",
"tX c #FDACAA",
"yX c #FCA7A5",
"uX c #FEAAB2",
"iX c #FEB4B2",
"pX c #FEBBB9",
"aX c #FEB8AD",
"sX c #FFC2BE",
"dX c #C4C4C4",
"fX c #CBCBCA",
"gX c #D6D6D6",
"hX c #CFD1D2",
"jX c #D4DCE2",
"kX c #DCE1DE",
"lX c #FDC7C6",
"zX c #FFD1CC",
"xX c #FED4D3",
"cX c #FFDDD5",
"vX c #FFDBDB",
"bX c #FFD3D9",
"nX c #E0D1D2",
"mX c #FFE0DD",
"MX c #FEE4D9",
"NX c #ECE0DD",
"BX c #E4E5E5",
"VX c #ECECEC",
"CX c #E6E8E7",
"ZX c #FFE4E3",
"AX c #FFEAE6",
"SX c #FFECEB",
"DX c #FBE7EA",
"FX c #FEF2EC",
"GX c #F1F1F2",
"HX c #F6FDFC",
"JX c #FEF4F2",
"KX c #FEFBF5",
"LX c #FDFDFD",
"PX c #FBF6F9",
"IX c #FFEDF1",
"UX c #C7F1F2",
/* pixels */
"LXLXLXLXLXPX<X=X=XR E E *X/ &XdXHXHXPXLXHXLXKXmXsXiXlXZXLXHXLXKXLXLXLXKXLXHXHXLXLXLXLXLXLXLXLXLX",
"LXLXLXLXGX>X=XG & $ $ * & 8 J Y =XVXLXHXLXZXrX.X/.L.L.].wXZXLXHXLXLXLXLXLXHXLXLXLXLXLXLXLXLXLXLX",
"LXLXLXGX>X&X: & > $ + o % & 8 q L &XGXPXFX7XW.U.I.I.I.R.K.OXxXLXLXLXLXHXLXLXLXHXLXLXLXLXLXLXLXLX",
"LXLXHX1X=X8 o % 3 h 4 s 3 - : * : K 1XPXyXK.n.v.h.f.s.H.R.E.oXlXLXLXLXLXLXLXLXLXLXLXLXLXLXLXLXLX",
"LXLXgX>Xr . O 3 d ' | ) g s 4 > * e T lX(.v.h.h.f.f.g.j.B.Q.R.[.pXLXLXLXLXLXLXLXLXLXLXLXLXLXLXLX",
"LXLX1X*X$ $ 3 z @.4.2.7.;.' s 1 > 8 W ^.D.a.f.f.f.M.k.z.V.N.U.Q.|.lXKXLXLXLXLXLXLXLXLXLXLXLXLXLX",
"LXGXdXF . - d =.7.3.3.>.,.<.g 4 8 7 N i.x.f.f.j.I.I.A.A.M.c.V.T.K.XXcXLXLXLXHXLXLXLXLXLXLXLXLXLX",
"KXCX1Xr o < ` 8.3.3.2.3.3.6.c 3 2 * M u.f.f.f.j.G.'. XY.I.j.c.I.U.J.6XIXLXLXLXLXLXLXLXLXLXLXLXLX",
"LXgXBXY @ ` &.2.>.>.2.2.3.4.c 2 & # n q.f.f.a.b.!.9X5XE.V.M.f.M.I.Q.(.xXLXLXLXLXLXHXLXLXLXLXLXLX",
"LXBXCX/ , =.,.2.2.2.2.3.>.4.c 2 . # n u.f.f.M.W.8XvXaX/.A.V.c.j.b.I.Q.0XAXLXLXLXLXLXLXLXLXLXLXLX",
"HXCXBX .z ;.3.,.7.7.3.3.3.1.c < $ # B u.h.M.W.8XZXKXFXqXE.U.I.z.j.M.V.~.aXSXHXLXLXLXLXLXHXHXLXLX",
"HXGXjX-Xc <.7.1.1.1.1.,.>.3Xo.4   5 9.Z.z.K.qXDXLXLXLXvXXXQ.U.V.j.c.B.G.W.rXPXLXLXLXLXLXLXLXLXLX",
"HXLXjX4XX.| | } [ ) ) ! ! Q v h = m u.a.I.5XZXLXLXLXLXJXsX].I.F.B.g.B.N.N.W.9XSXLXHXLXLXLXLXLXLX",
"HXLXVXUX4XX.z d s y y 3 4 < + , M q.k.B.oXxXLXLXLXLXLXLXFX8XJ.M.z.B.z.N.M.B.W.qXFXLXHXLXLXLXLXLX",
"LXLXHX-Xs < ; @ @ @ o $ O + o X m u.j.K.iXPXLXLXLXHXLXLXLXvXoXP.c.V.x.z.j.v.N.L.yXJXLXLXLXLXLXLX",
"LXLXHXhX .q % 8 0 > o & * = 5 5 V u.J.5XDXKXHXLXLXLXLXLXLXKXlX[.C.V.B.f.h.j.z.A.(.xXKXLXLXLXLXLX",
"HXkX<X .jX-X~ I I ~ b b ~ ~ U M 0.p.(.zXLXLXKXLXLXLXLXLXLXLXJXiXL.B.M.j.f.h.j.V.W.8XJXHXLXLXLXLX",
"LX/ w @ b #.3X5.6.6.5.1.3X} ^ Z u.J.8XJXHXLXLXLXLXLXLXLXLXLXLXDX$Xm.j.v.j.f.f.M.U.XXvXLXLXLXLXLX",
"LXL 9 $ < [ ;.2.2.2.>.3.5.@.h 6 9.#XxXLXLXLXLXLXLXLXLXLXLXLXKXKXlX`.B.s.h.j.f.j.V.).tXKXLXLXLXLX",
"BXP 0 O < Q 8.2.7.3.3.2.2.=.P 7 m r.NXLXLXLXHXLXLXLXLXLXLXLXLXLXPXyXE.U.l.j.f.f.f.P.OXxXLXLXLXLX",
"<Xl 1 & u ! ;.1.2.>.>.2.,.( 2 5 y.nXHXLXLXHXLXLXLXLXLXLXLXLXLXLXLXAX6X].P.c.f.f.g.l.'.yXJXHXLXLX",
"2XG : ; u | 4.-.| ;.:.2.6.c % # t gXPXLXLXLXLXLXLXLXLXLXLXLXLXLXLXKXmXyXoXm.f.h.g.k.W.5XxXLXLXLX",
"JX,Xi ] | 4.} z , z | -.1.f o   7 N <XKXLXLXLXLXHXLXLXLXLXLXLXLXLXLXLXJXpX_.b.s.g.g.b.].wXIXLXLX",
"KX,Xk 3X+.5.` y @ @ ] O.4.z o o 1 w G <XHXLXLXLXLXLXLXLXHXLXLXLXHXLXLXLXJXyXT.j.f.f.a.T.@XpXLXHX",
"KXY k *.$.,.Q y > + v } 4._ O $ $ F J K <XHXLXLXLXLXLXLXLXHXLXLXLXLXLXLXLXSXoXl.f.f.f.b.{..XJXLX",
"LXH f 3X$.1.( 3 , - f @.6.| < . % 9 E dXY >XBXCXGXLXLXLXLXLXLXLXLXLXLXLXLXKXuXm.h.f.f.f.F.K.lXLX",
"FXr j 3XO.O.k 4 1 s #.2.,.*.d O 1 9 K VXhXJ J F *XLXLXLXLXgXdXPXLXLXLXLXLXLXvX).f.h.f.g.c.P.5XFX",
":X1 4 #.} ! h o   O z ) -.8.z - & 9 K gXLXdXY 8 R gXVXdX,XK G CXLXLXLXLXLXLXJX5Xl.f.f.g.j.M.~.cX",
"K $ , | O.*.j + @ O 4 g &.<.z , > 9 H <X*XR =Xr F F 2XR e F F hXLXLXLXLXLXLXKXsXJ.f.g.g.c.B.m.pX",
"J = - { %.%.f 3 - y f X.6.<.c 2 % w G R = & J 8 % % R =Xe K e >XLXLXLXLXHXLXLXmX(.j.c.f.M.B.m.OX",
"e $ @ { %.6.@.z Q ` &.7.>.1.v 4 > 8 e r # 8 9 9 r $ F &Xw J r >XLXLXLXHXLXLXLXPX6Xl.c.h.z.m.b.Q.",
"F + @ _ } 6.7.-.<.6.>.3.3.5.Q 4 + 9 9 * 8 J 9 e *X9 q :XF L Y dXLXLXLXLXLXLXLXKXiXP.c.c.z.U.s.H.",
"J > . x ' | -.4.5.2.>.>.2.6.( s ; 1 t F &X=Xq 9 dX*Xw K Y &X:XfXLXLXLXLXLXLXLXLXbX[.Y.M.c.z.h.n.",
"J 8 . ; j _ ) } O.&.:.:.-.*.v 3 O 0 D ;X1XkXE K gXCXY 9 G <XCXBXLXLXLXLXLXLXLXLXIXrX'.V.M.j.j.A.",
"/ N *     @ s b ~ Q ~ v v b k 1 % 9 L hXGXHXLXLXLXLXfXY &XGXLXLXLXLXLXLXLXLXLXLXLXMX}.N.j.f.b.U.",
"kXE N 5 5 # = = X , 1 4 4 , + + : w Y VXLXLXLXLXLXLXLXKXLXLXLXHXLXLXLXLXLXLXHXLXHXFXoXd.z.h.s.U.",
"HXVXr.m n 6 5 # =   = X o + % 8 w G <XKXKXLXLXLXLXLXKXLXLXLXLXLXLXLXLXLXLXLXLXLXLXSXXXP.c.j.j.I.",
"LXFXyXu.0.B n n 6 6 5 7 & 8 e D N =XIXPXKXLXLXLXLXLXLXLXLXLXLXLXLXLXLXLXLXLXLXLXLXDX5XI.c.f.c.V.",
"LXMX@XH.f.u.q.0.9.C B A A S S w.t.wXiXpXlXxXvXAXDXIXPXKXPXPXPXKXLXLXHXLXLXLXLXLXLXmXoXC.M.j.j.I.",
"KXtX~.F.j.z.V.z.Z.Z.p.i.L.L.).Q.T.I.J.K.K.!.].@X%XqX0XyX9X0XwXsXzXmXmXZXmXSXSXJXFXmX[.C.N.j.j.U.",
"LXuXQ.P.I.M.j.h.f.f.f.g.j.k.g.f.f.f.f.a.f.f.f.j.j.b.n.G.S.C.Z.p.J.{.[./.{.(.|..X.X(.'.P.I.j.m._.",
"HXbX/.P.F.V.j.g.f.f.f.f.g.f.f.f.f.f.f.f.f.f.f.f.f.f.f.f.f.f.g.f.h.g.f.g.j.c.B.B.M.M.V.U.U.E.].8X",
"HXJX0XL.I.I.C.h.f.f.f.h.a.f.f.f.f.f.f.f.f.f.f.f.f.f.f.f.f.f.f.f.f.f.f.f.f.a.f.g.h.f.j.V.'.6XzXSX",
"LXLXFXuX}.!.P.j.h.f.h.a.k.a.a.a.f.h.f.h.f.f.f.f.f.f.f.f.f.f.f.f.a.f.f.f.f.g.f.f.f.f.j.E.5XzXLXLX",
"LXHXLXKXvXrX+X[.).!._.`.[.'.`.).!.W.K.J.H.m.b.z.k.h.h.a.a.k.k.k.d.d.z.M.v.c.v.v.d.j.m.(.pXKXHXLX",
"LXLXLXLXLXKXSXZXvXvXZXSXSXJXSXDXxXzXlXaXyX0X5XXX[.!.Q.L._.].XX$X5X$XOXXX]._.W.K.E.).`.8XAXLXLXLX",
"LXLXLXLXLXLXLXLXLXLXLXLXHXLXLXLXLXLXLXLXKXJXSXAXmXxXxXxXvXSXPXKXLXLXJXSXAXmXzXsXiXtXrXsXFXLXLXLX",
"LXLXLXLXLXPXLXLXLXLXLXLXLXLXLXLXLXPXLXLXHXLXLXLXLXHXLXLXLXLXLXLXLXLXLXLXLXLXLXLXLXKXKXPXLXLXLXLX"
};
