/* XPM */
static char *protconst[] = {
/* columns rows colors chars-per-pixel */
"48 48 256 2",
"   c #171617",
".  c #0A0C0E",
"X  c #272827",
"o  c #3B3B3C",
"O  c #323232",
"+  c #2C2E2E",
"@  c #561A01",
"#  c #572406",
"$  c #572816",
"%  c #4E2816",
"&  c #5B3125",
"*  c #6F1004",
"=  c #673200",
"-  c #782F00",
";  c #6E3310",
":  c #69342F",
">  c #413F41",
",  c #794802",
"<  c #6C4236",
"1  c #75492D",
"2  c #444444",
"3  c #4D4C4C",
"4  c #5B5B5D",
"5  c #535353",
"6  c #4F4E51",
"7  c #5C615C",
"8  c #73544A",
"9  c #77615B",
"0  c #7D6049",
"q  c #646565",
"w  c #797979",
"e  c #6D726F",
"r  c #840401",
"t  c #960103",
"y  c #872B00",
"u  c #8F3D02",
"i  c #A70906",
"p  c #AB2F0B",
"a  c #892F30",
"s  c #9B6812",
"d  c #B55C01",
"f  c #A46707",
"g  c #B56E0E",
"h  c #AF7D25",
"j  c #965426",
"k  c #937056",
"l  c #987772",
"z  c #A07E54",
"x  c #A87E7A",
"c  c #CB1013",
"v  c #D12E04",
"b  c #D53535",
"n  c #E91A06",
"m  c #EA1616",
"M  c #F50B03",
"N  c #F50A0B",
"B  c #FC0302",
"V  c #FC0408",
"C  c #FA0903",
"Z  c #FB0B0A",
"A  c #F40604",
"S  c #F50E10",
"D  c #FB0C11",
"F  c #FA0313",
"G  c #FB110C",
"H  c #F51407",
"J  c #F31312",
"K  c #F51B1B",
"L  c #FC1312",
"P  c #FC151B",
"I  c #FB1A15",
"U  c #FD1B1A",
"Y  c #F31917",
"T  c #EC0A0E",
"R  c #FD1D21",
"E  c #F41D23",
"W  c #FC221D",
"Q  c #F2241D",
"!  c #F33705",
"~  c #EF241C",
"^  c #ED2728",
"/  c #EE3334",
"(  c #ED3B3D",
")  c #EA3637",
"_  c #F42322",
"`  c #F22C2B",
"'  c #FC2424",
"]  c #FD2B2A",
"[  c #FB2627",
"{  c #F32F32",
"}  c #FA332D",
"|  c #F23334",
" . c #F53B3C",
".. c #FA3638",
"X. c #E83725",
"o. c #F53D43",
"O. c #EE3F45",
"+. c #CA7604",
"@. c #D96108",
"#. c #C96730",
"$. c #F74804",
"%. c #F95603",
"&. c #E45A06",
"*. c #F1423F",
"=. c #E64A30",
"-. c #FC6808",
";. c #FC7805",
":. c #F56D0F",
">. c #DB591D",
",. c #EB4747",
"<. c #EC5757",
"1. c #F24143",
"2. c #F34749",
"3. c #F54E51",
"4. c #FC5354",
"5. c #F9595A",
"6. c #F45756",
"7. c #FD514E",
"8. c #F85C62",
"9. c #EC5C60",
"0. c #FB605D",
"q. c #ED6568",
"w. c #FA6D6D",
"e. c #F46667",
"r. c #FC7778",
"t. c #F86E68",
"y. c #CD544D",
"u. c #947F83",
"i. c #F57E85",
"p. c #AF8310",
"a. c #B58630",
"s. c #99827A",
"d. c #A08363",
"f. c #B3996F",
"g. c #A38459",
"h. c #D68D0F",
"j. c #CC9836",
"k. c #C49129",
"l. c #F98705",
"z. c #FC9805",
"x. c #FE9D1D",
"c. c #E99508",
"v. c #FBA301",
"b. c #FDA20C",
"n. c #FCAB03",
"m. c #F8A907",
"M. c #FAA613",
"N. c #FDB204",
"B. c #FEB20B",
"V. c #FDBB02",
"C. c #FDBB0B",
"Z. c #F7B904",
"A. c #FBB817",
"S. c #E9AD14",
"D. c #ECB62F",
"F. c #D7A529",
"G. c #D8B152",
"H. c #FD897E",
"J. c #E5B753",
"K. c #EDB475",
"L. c #D6945C",
"P. c #FEC304",
"I. c #FECB02",
"U. c #FDCA0B",
"Y. c #FDC50A",
"T. c #FCCB13",
"R. c #FDC819",
"E. c #F9D00E",
"W. c #FCD112",
"Q. c #FCD11B",
"!. c #F6D01E",
"~. c #F9C928",
"^. c #FAC835",
"/. c #FCD122",
"(. c #FDD32C",
"). c #F8D429",
"_. c #FBD537",
"`. c #F9D746",
"'. c #F9D959",
"]. c #F5CB54",
"[. c #EEC163",
"{. c #FADB64",
"}. c #F6DE71",
"|. c #FAE377",
" X c #F7E065",
".X c #898989",
"XX c #969797",
"oX c #8E8E90",
"OX c #B69F96",
"+X c #A0A19D",
"@X c #A7A6A7",
"#X c #B7B7B7",
"$X c #B5ADA9",
"%X c #CAB18E",
"&X c #CAB7B4",
"*X c #FD8282",
"=X c #F98B8B",
"-X c #FD8C90",
";X c #FB938F",
":X c #FA9394",
">X c #FE9A9B",
",X c #FA9A95",
"<X c #FF9DA6",
"1X c #FFA09E",
"2X c #FDA3A4",
"3X c #FDAAA7",
"4X c #FEADB1",
"5X c #FEB4B2",
"6X c #FEBBB6",
"7X c #FEBCBC",
"8X c #EAAFAB",
"9X c #D58684",
"0X c #FFC1BE",
"qX c #FFC8B8",
"wX c #EBD6B3",
"eX c #FEE487",
"rX c #FCEB9B",
"tX c #FFECA6",
"yX c #FFF1A9",
"uX c #FDF2B7",
"iX c #FBE9B6",
"pX c #E1C6A0",
"aX c #C7C6C6",
"sX c #D7D6D7",
"dX c #DACFCA",
"fX c #DEE0DE",
"gX c #DFE2E1",
"hX c #FEC6C6",
"jX c #FFD1CC",
"kX c #FED4D4",
"lX c #FFDDD5",
"zX c #FFDBDB",
"xX c #F9D8D4",
"cX c #E5D3CD",
"vX c #FFE1DD",
"bX c #F0E6DC",
"nX c #FCF6C6",
"mX c #FFFCDC",
"MX c #FEF7D8",
"NX c #E5E5E5",
"BX c #ECEAE7",
"VX c #FFE4E3",
"CX c #FFEAE4",
"ZX c #FEECEB",
"AX c #F6E9EA",
"SX c #FFEEF0",
"DX c #FEF2EC",
"FX c #FEFDE4",
"GX c #FEFAEC",
"HX c #F7F3EA",
"JX c #F5FDFA",
"KX c #FEF3F2",
"LX c #FDF6FA",
"PX c #FDFCF4",
"IX c #FDFDFD",
"UX c #F4F6F3",
/* pixels */
"JXIXIXIXIXIXPXIXPXPXIXJXPXIXIXIXIXIXIXJXPXPXIXVX7X5XhXVXPXIXIXIXPXIXIXIXIXJXJXIXIXIXIXIXIXIXIXIX",
"IXIXIXIXIXPXPXIXIXKXGXpXk .X&XHXGXIXJXIXLXVX2Xq.,.) ( 9.<XVXJXIXIXIXIXIXIXIXIXIXIXIXIXIXIXIXIXIX",
"IXIXPXIXIXIXPXFXrX}.{.].h = # < OXLXIXLXDX;X*.] ' U ] } / r.xXIXIXIXIXIXIXIXIXIXIXIXIXIXIXIXIXIX",
"IXIXIXIXIXIXKXnX{.(.Q.Q.R.D.F., # < bXDX3X( J G C V M Y } | e.hXPXIXIXIXJXIXIXIXIXIXIXIXIXIXIXIX",
"IXIXIXJXIXIXKXnX`./.Q.Q.W.W.Q.`.h @ : 8X3.N V B B B V Z U ..} <.7XLXIXIXIXIXIXIXIXIXIXIXIXIXIXIX",
"JXPXIXPXmXMXMXuX X(./.Q.T.R.Q.(._.j.@ : c B B B C L N D U P ] ..9.hXPXIXIXIXIXIXIXIXIXIXIXIXIXIX",
"PXIXIXuX|.|.rX%Xf.pXeX'.'.`._.(.Q.(.a.@ t T B N W ' R R L L U } ( w.lXIXIXIXJXIXIXIXIXIXIXIXIXIX",
"IXIXMX|._.`.J.g.s.BXFXMXuXyX|.`./.T.A.u * c B A _ 7.0.{ U Z Z ' ] ^ =XZXIXIXIXIXIXIXIXIXIXIXIXIX",
"IXIXyX`.).F.a.d.HXIXPXIXPXFXnX{.Q.P.V.g * i A S O.<XH.{ U D C L ' ..<.kXIXIXIXIXIXIXIXIXIXIXIXIX",
"IXGXeX).~.s k cXPXIXJXIXPXPXFXeX~.P.V.h.- t m  .:XzX5X,.R U L V J ' ..,XCXIXIXIXIXIXIXIXIXIXIXIX",
"IXFX X).D.= 1 GXPXIXIXPXPXIXIXK.x.n.C.M.y r b :XVXKXDX-X| [ ' Z Z L U *.3XDXIXIXIXIXIXIXIXJXIXIX",
"IXFX'.).D.= < IXPXIXIXIXIXIX0X=.;.v.n.B.u * 9XAXIXIXIXvXw...] W Z G I W O.2XKXIXIXIXIXIXIXIXIXIX",
"IXFX'.(.]., & DXIXIXIXIXIXVX5.n l.v.n.V.d ; 7XLXIXIXIXKX7X5.[ W L N U U P  .>XZXIXIXIXIXIXIXIXIX",
"IXmX'.(.`.s $ bXIXIXPXIXZXr.H H ;.n.N.V.k.$ dXJXLXIXIXIXDX:X` L L L D P L K  .-XHXIXJXIXIXIXIXIX",
"PXFX'.Q.(.J.@ s.LXLXPXKX,X_ C n l.n.N.Y.k.% dXIXIXIXIXIXIXvXe._ D U D Z Z H U ) 2XLXIXIXIXIXIXIX",
"IXFX X(.W.^.= & dXfX+X8X<.Y A ! z.z.B.Y.k.$ cXIXIXIXIXIXIXLXhX6.Y U L V V Z D R <.kXPXJXIXIXIXIX",
"IXGXeX).E.(.f $ 9 VXu.: ) L n -.M.z.Z.~.a.: sXIXIXIXIXIXIXIXDX5X) Y L Z B C Z P  .:XDXIXIXIXIXIX",
"PXIXyX_.W./.D.s ; u.8Xa r v -.z.z.n.A.'.1 k BXIXIXIXIXIXIXIXIXZXi.E Z G C V C D ] w.lXIXIXIXIXIX",
"IXIXMX|.!.W._.D.s ; j >.d h.n.z.v.A._.G.0 $XPXIXIXIXIXIXIXIXIXKXhX3.I H Z Z C C U 2.4XKXIXIXIXIX",
"PXIXIXnX'.Q.~.(.D.g +.x.b.m.c.z.B.^.J.l OXAXIXPXIXIXIXIXIXIXIXIXKX2X/ ] N Z V B V _ r.xXIXIXIXIX",
"IXIXIXPXyX_.!.!.x.m.c.c.l.z.S.S.S.j.f.&XHXIXIXIXIXIXIXIXIXIXIXIXIXCX=X8.` G B B V N 4.3XKXJXIXIX",
"IXIXPXIXFXrX`.E.Y.C.N.v.x.l.+.f , d.dXUXIXIXIXIXIXIXIXIXIXIXIXIXIXPXvX2Xe.K C B V N  .*XkXIXIXIX",
"IXIXIXIXIXGXuXD.Y.I.V.z.;.&.v h l 9 $XPXIXIXPXIXIXIXIXIXIXIXIXIXIXIXIXKX6X2.L A V C J 5.<XSXIXIX",
"IXIXIXIXIXIXiXA.N.V.c.@.! ! =.;XZXoX4 #XPXIXIXIXIXIXIXIXIXIXIXIXIXIXIXIXDX1X` Z B B V ` w.7XIXIX",
"IXIXIXIXIXPXK.b.v.m.u r n I 6.kXIXJXXX7 $XIXIXJXPXIXIXIXIXIXIXIXIXIXIXIXIXZXe.S B B B J 2.q.DXIX",
"IXIXIXIXIXvXL.B.N.m.u r m ` ,XKXIXIXJXaX7 @XNXNXBXIXIXIXIXIXIXIXIXIXIXIXIXLX4XE C B B B W / jXIX",
"IXIXIXIXPXqX:.C.V.n.h.p b y.8XHXIXIXIXIXsX5 6 2 oXIXIXIXJXsXaXUXIXIXIXIXIXIXzX1.B B B V L _ *XDX",
"IXIXIXIXAX0.:.C.n.n.B.c.u * $ < dXIXIXIXJXaXq X w sXBXaX@X4 3 BXIXIXIXIXIXIXDX*XS C B V Z L 1.lX",
"IXIXIXDX>X~ ;.B.B.n.I.Z.h.p.h , 8 BXLXsXoXl XXo 2 2 #Xe o 2 o sXIXIXIXIXIXIXIX7X^ V V V Z I ~ 7X",
"IXIXIXjXO.M -.z.n.Z.U.I.U.T._.a.k BXIX@X.   6 X     w XXo 4 > @XIXIXIXIXIXIXIXCX<.Z Z B L U K r.",
"IXIXIXi.J M $.l.v.V.I.I.I.I.W.G.f.bXNX4 . X X X o   2 oXO 5 o @XIXIXIXIXIXIXIXKX=XH G C S U J  .",
"PXIXAX2.H M $.l.n.V.P.U.E.E.!.].wXGX@X+ X 5 X > oXX O XX3 4 q #XIXIXIXPXIXIXIXLX5X_ G G D ] M ~ ",
"IXIXhX^ G C $.z.M.n.A.~.^.~.D.K.wXDXaXq .XXX+ + aX.XO 4 q .X+XaXIXIXIXIXIXIXIXIXkX<.[ L S D Z Y ",
"IXIX3XY Z C -.v.N.m.Y.~.s # # % 8 &XUXsX#XgXe 4 sXNXq + 3 #XNXNXIXIXIXIXIXIXIXIXSX2X4.U L V Z K ",
"UXIX:Xm C B ;.n.Z.P.P.T.S.p.a.k : 9 AXJXUXIXIXIXIXIXaXq .XUXIXIXIXIXIXIXIXIXIXIXIXlXe.P V C G ] ",
"PXIX-XN C B %.B.V.P.I.I.E.E.).[.1 l KXIXIXIXIXIXIXIXIXIXIXIXJXIXIXIXIXIXIXIXIXIXIXDXe.N D C G ] ",
"IXIX-XS A B ! M.Y.P.I.I.E.W.).[.j OXJXIXIXIXIXIXIXIXIXIXIXIXPXIXIXIXIXIXIXIXIXIXIXZXt.' G C Z ' ",
"IXLX>XK B C %.N.U.I.I.U.S.A.^.G.f.bXPXLXIXIXIXIXIXIXIXIXIXIXIXIXIXIXIXIXIXIXIXIXIXVX*X' G C G R ",
"IXkXr._ C M -.M.Z.C.A.+.- - h #.y.,X6X7XhXkXvXvXCXKXDXKXKXKXLXLXPXIXIXIXIXIXIXIXIXVXe.Y P Z Z R ",
"IX4X*._ L C $.:.%.%.$.v i p =.X._ [ ^ | /  .6.w.i.-X>X3X1X>X1XhXxXvXVXVXvXCXZXKXKXlX6.Y P V Z ` ",
"IX5X) U W P C M A B F N N V C V B B B B B B B N N N Y Q E Y m m ) ,.4.,.3.<.9.q.q.<.7.[ ' Z K ,.",
"PXlX,._ W U Z V B B B B V B B B B B B B B B B B B B B B B B B B V V V C Z G I L J L U [ } | 8.:X",
"JXKX>X) ' ' Y C B B A B B A B B B B B B B B B B V B B B B B B B B B B B B V V V V B Z R 4.=XjXCX",
"IXIXDX4X8.o._ N B B B M A A B A B B A B B B B B B B B B B B B B B B B B B B B B B B Z } *XjXIXIX",
"LXIXJXIXzX2Xr.5.1.o.1.3.6.5.3.1.O. ./ ` _ Y J S N A B C A V N T N N S S G G H G Z Z K <.6XLXIXIX",
"IXIXIXIXIXLXZXvXzXvXVXZXZXZXZXVXkXjXhX6X2X>X*Xw.4.o.( ( 2.5.w.r.i.*Xr.w.5.2.( ) / o.<.:XCXIXIXIX",
"IXIXIXIXIXIXIXIXIXIXIXIXIXIXIXIXIXLXIXIXLXDXCXCXvXxXkXkXzXDXKXLXIXLXKXDXCXvXjX7X5X3X2XhXDXPXIXIX",
"IXIXIXIXIXLXIXIXIXIXIXIXIXIXIXIXIXIXIXIXIXIXIXIXIXIXIXIXIXIXIXIXIXIXIXIXIXIXIXIXIXGXLXLXIXIXIXIX"
};
