/* XPM */
static char *protdest[] = {
/* columns rows colors chars-per-pixel */
"48 48 256 2",
"   c #3C0304",
".  c #3F0908",
"X  c #430304",
"o  c #420806",
"O  c #440A0A",
"+  c #470808",
"@  c #490E10",
"#  c #4B120B",
"$  c #4A1313",
"%  c #4A1718",
"&  c #551802",
"*  c #531B1B",
"=  c #521619",
"-  c #510E0A",
";  c #581E20",
":  c #592907",
">  c #572914",
",  c #4D221A",
"<  c #532323",
"1  c #582828",
"2  c #5B302C",
"3  c #55292D",
"4  c #683404",
"5  c #703903",
"6  c #652E0A",
"7  c #622928",
"8  c #633427",
"9  c #673836",
"0  c #672F31",
"q  c #653D41",
"w  c #764309",
"e  c #754412",
"r  c #6C443D",
"t  c #7A4936",
"y  c #5C4143",
"u  c #6A4444",
"i  c #734846",
"p  c #7A564E",
"a  c #7B5353",
"s  c #765456",
"d  c #715050",
"f  c #7B6257",
"g  c #853031",
"h  c #8B590A",
"j  c #8D5710",
"k  c #8B6C00",
"l  c #856C03",
"z  c #8E7100",
"x  c #88720C",
"c  c #8B7617",
"v  c #926D00",
"b  c #986417",
"n  c #927400",
"m  c #997601",
"M  c #9B7A02",
"N  c #967908",
"B  c #947B17",
"V  c #8F782B",
"C  c #A27E02",
"Z  c #AA7709",
"A  c #A0731D",
"S  c #A26911",
"D  c #A9792B",
"F  c #895739",
"G  c #91524A",
"H  c #9E784A",
"J  c #906A50",
"K  c #876566",
"L  c #97796B",
"P  c #957777",
"I  c #8E6E6D",
"U  c #B17244",
"Y  c #CD5E60",
"T  c #D67877",
"R  c #C9706D",
"E  c #987C84",
"W  c #D67C80",
"Q  c #9C8105",
"!  c #9A8428",
"~  c #9B8B37",
"^  c #A38201",
"/  c #A88503",
"(  c #AC8B02",
")  c #AB8A0A",
"_  c #A5850C",
"`  c #AE9006",
"'  c #AE9116",
"]  c #B18D03",
"[  c #B18E0B",
"{  c #B38519",
"}  c #B49203",
"|  c #B5930C",
" . c #BA9502",
".. c #BA9609",
"X. c #BD9A02",
"o. c #BD9A0A",
"O. c #BC9C12",
"+. c #B69714",
"@. c #AA8513",
"#. c #B6953D",
"$. c #B1922D",
"%. c #BFA00A",
"&. c #BEA116",
"*. c #BCA226",
"=. c #BEA439",
"-. c #9E8F4A",
";. c #998568",
":. c #AB9350",
">. c #A28177",
",. c #AD917F",
"<. c #BBA446",
"1. c #BCAB55",
"2. c #B7A668",
"3. c #C19A03",
"4. c #C19C0A",
"5. c #C19607",
"6. c #C19D12",
"7. c #C2971B",
"8. c #D89F0B",
"9. c #CE9F33",
"0. c #D69C27",
"q. c #C49224",
"w. c #C5A20C",
"e. c #C3A114",
"r. c #C4A31B",
"t. c #C8A71A",
"y. c #D9A617",
"u. c #C3A423",
"i. c #C9A928",
"p. c #C5A937",
"a. c #D5AB34",
"s. c #D9B326",
"d. c #D5B439",
"f. c #D0AD2D",
"g. c #EABA15",
"h. c #E8B429",
"j. c #E6B634",
"k. c #EAB537",
"l. c #C7934F",
"z. c #CD867C",
"x. c #C1A747",
"c. c #D9B848",
"v. c #D5BA59",
"b. c #D0AD4F",
"n. c #C5AB68",
"m. c #D2B56A",
"M. c #CAB475",
"N. c #E2BB4A",
"B. c #FDCC03",
"V. c #FCCC0B",
"C. c #F9C708",
"Z. c #FBCC13",
"A. c #FBCD1B",
"S. c #F8C418",
"D. c #FCD113",
"F. c #FBD11B",
"G. c #F7D11A",
"H. c #F3C813",
"J. c #ECC236",
"K. c #FCCD23",
"L. c #F9C827",
"P. c #F7CA35",
"I. c #FDD222",
"U. c #FDD32A",
"Y. c #FAD627",
"T. c #FBD432",
"R. c #FCD43B",
"E. c #FDD93B",
"W. c #F8D537",
"Q. c #EBC12D",
"!. c #DAC267",
"~. c #DBC476",
"^. c #F8CB45",
"/. c #FCDA43",
"(. c #FAD647",
"). c #FCDB57",
"_. c #ECC64F",
"`. c #E4C668",
"'. c #F9D965",
"]. c #F4D979",
"[. c #FCE677",
"{. c #FFE26E",
"}. c #9C8383",
"|. c #AA938B",
" X c #B89D97",
".X c #AB908C",
"XX c #BA9EA0",
"oX c #BEA698",
"OX c #BBB681",
"+X c #BDA8A8",
"@X c #BEB0AD",
"#X c #CA8682",
"$X c #C4AA98",
"%X c #C5BC88",
"&X c #D7BB86",
"*X c #C2A8A9",
"=X c #CAAFB0",
"-X c #CBB6B6",
";X c #D7BBBD",
":X c #D3AFA8",
">X c #E2908C",
",X c #E78C8E",
"<X c #EDA499",
"1X c #E5B686",
"2X c #EBA4A3",
"3X c #FABAB6",
"4X c #EDB0AC",
"5X c #D2BEC1",
"6X c #D8CB96",
"7X c #D7CCA7",
"8X c #ECD491",
"9X c #E6D7B7",
"0X c #EDD2AA",
"qX c #FEE586",
"wX c #FFED9A",
"eX c #FCE897",
"rX c #FFF498",
"tX c #ECE2BE",
"yX c #FFECA2",
"uX c #FAECBA",
"iX c #FEF2AA",
"pX c #FEF2B4",
"aX c #FEF0BC",
"sX c #D8C6C6",
"dX c #DCD0CD",
"fX c #E4CBC6",
"gX c #E2CED1",
"hX c #E7D8D8",
"jX c #FBC8C6",
"kX c #FBD4D6",
"lX c #F1D7CE",
"zX c #F5DDE6",
"xX c #E9E4C6",
"cX c #EEE6D5",
"vX c #F6E6C9",
"bX c #F7E6DB",
"nX c #FFF4C4",
"mX c #FEF8C8",
"MX c #FEFBDC",
"NX c #FBF4D6",
"BX c #F5ECE4",
"VX c #F4EBEA",
"CX c #FBEAE5",
"ZX c #FDEAEA",
"AX c #F6E3E4",
"SX c #F7ECF2",
"DX c #FDF4ED",
"FX c #FDFBEB",
"GX c #FCF8E7",
"HX c #F6FEFD",
"JX c #FDF3F3",
"KX c #FEF5F9",
"LX c #FDFCF4",
"PX c #FEFEFD",
"IX c #F6F9F7",
"UX c #EEE7E6",
/* pixels */
"PXPXHXPXPXE u BXLXPXIXsX;XFXLXPXPXPXHXPXPXPXPXPXPXPXLXLXPXHXxX`.d.t.w.3.4.3.3.4.i.*.! m.i.&.*.f.",
"PXLXPXLXPXKXP ;.pXyXwX:.6 , u fXLXKXPXPXPXPXPXPXHXPXPXPXPXPX7X! u.O.3.e.6.5.X.} z Q $.!.d.r.i.&.",
"PXPXPXPXPXLXNX~ N.T.I.L.h.m 4 : p UXKXPXLXPXPXPXPXPXPXPXPXLXxXV ' o.3.) N M ..( N Q *.=.&.r.a.o.",
"HXPXPXPXLXLXDXeXs.C.F.F.I.K.^.A : > ;XKXLXHXPXPXPXPXPXPXLXLXFX2.Q 3.o.M l z ( o.} } O.z _ r.a.%.",
"PXPXPXPXLXLXNXqXU.C.Z.H.A.Z.A.E.9.: > ;XKXHXPXPXPXPXPXPXLXPXPX9Xc ( o.( k M ] X.X.X.o._ M &.s.o.",
"PXPXFXaXiXaXaX0Xv._.y.L.I.F.Y.F.T.j.4 9 hXLXLXPXPXPXPXPXPXPXPXLX2.z o...n ^ X.X.3.X.o._ N +.f.e.",
"PXLXmX].(.'.m.,.;.0X&X~ ].'.).U.A.T.D : P PXPXPXLXPXPXPXPXPXPXPXtXc / o.o.( X.X.X.3.X.^ N p.u.r.",
"HXLXqXE.R.d.l.L VXHXKX;.H pXqX(.Z.D.L.5 9 gXPXPXPXPXPXPXPXPXPXLXFX2.z  .w.o.3. .(  .X.( k c.p.e.",
"PXMX).U.j.B H ZXPXPXPXUXf L pX(.D.V.F.D t XXPXPXPXPXPXPXPXPXPXPXLXvXc ) X.4.X.) v } X.] N +.f.t.",
"PXpX(.T.Z w L PXPXPXHXPXVXd oX[.I.D.D.7.F P JXPXPXPXPXPXPXPXPXPXPXLX2.N o.w.o./ n  .X.o.+.O.t.u.",
"LXrXW.R.h 4 fXKXPXPXPXPXKXSXy M.(.I.I.j.e s VXPXPXPXPXPXPXPXPXPXPXPXvX! ^ o.O.k M X.X.X.6.&.i.6.",
"LXqX(.R.D : fXPXKXPXHXPXKXKX5Xc P.T.K.^.j s BXPXPXPXPXPXPXPXPXPXLXHXFXM.N | O.) m  .X.X.o./ ' r.",
"LXwX(.T.0.: oXLXPXPXPXHXLXPXLX8Xs.Y.A.K.b p BXPXPXPXPXPXPXPXPXPXPXPXLX9X! ^ 6.6.]  .4.5.o.M M O.",
"LXwXR.Y.P.5 K JXPXPXPXHXPXPXPXpXj.g.Z.A.b r BXPXPXPXPXPXPXPXPXPXPXLXPXNXn.z ..X.X.X.( ) o.| v r.",
"LXyXW.F.T.b 8 =XLXPXPXPXPXPXLXyXW.g.H.S.j r VXPXPXPXPXPXPXPXPXPXPXPXHXLX0Xx C w.X.o.v m O.&.M i.",
"PXiX/.Z.Y.j.6 i cXPXPXKXPXLXGX{.T.T.H.Q.b d VXPXPXPXPXPXPXPXPXPXPXPXLXIXNX<.n ..o.o.M z } O.O.+.",
"PXaX).Z.F.T.b > P DXPXPXLXFXyX(./.E.L.s.4 I SXHXPXPXPXPXVXdX-XsXcXPXPXPXLX6X@._ %.o.+.z ( X.t.+.",
"PXGXqXU.Z.Y.0.b 8 |.DXFXmXeX)././.T.(.b.# K IXLXPXPXUX+Xs 3 ; , 3 I gXKXHXMX2.Q %.%.r.N ^ X.t.r.",
"LXPXaX).F.I.T.s.b 5 m.qX).T.E./.Y.T._.H G y .XKXPXhX}.s 9 ; * * % % 9 *XLXLXvX#.| r.r.[ ] O.&.d.",
"PXPXFXwXW.Z.A.T.J.+._.).(.R.T.U.T._.m.|.dXdXd }.VX.XI G 1 = * * = - - 2 -XPXFX0X<.+.t.e.O.O.o.d.",
"KXPXHXMXqXP.A.K.T.T.E./.(./.P.j.a.-.$XUXKXHXhXd I P i = + o     . O + + d SXLXFX6X#.i.w.O.t.O.c.",
"PXPXPXLXMXeXW.Z.Z.Z.T.T.(.N.#.D H :XZXPXKXHXHXAXI 9 $ X X + O O     X + , =XPXPXNXn.=.O.e.i.%.b.",
"HXLXPXLXKXFX[.F.C.Z.Y.).].&X:X9XCXLXLXLXLXPXHXhXI = X X + * < 9 ; O   X O P KXPXIX8X=.r.o.t.r.p.",
"PXLXPXAX;XfX'.L.F.L.@.6XNXFXFXJXDXkX2X#X:XLXPXdXa # X X $ , 9 0 = O     X q BXLXxX1.*.6.X.3.%.r.",
"PXPXPXPXJXvX).L.h.0.& G 2X2X>XT T W 4XjXJXLXKXsXq + X o <  XhX*Xa O X X   3 hXFX-.N %.w.3.3.3.3.",
"PXPXPXPXPXNX).K.U.j.5 #XjX3XjXkXZXJXKXPXPXHXLX-X3 X X + u hXKXsX=X$ X X X 3 gXvXx Q %.3.X.X.o.X.",
"PXPXHXPXPXNX'.K.F.U.p.0X$X X+XUXKXPXIXCXZXHXHX-X< o X X < XXAXoXI + X X   2 dX%Xw ` 3.3.3.3. .X.",
"PXHXHXPXLXmX(.D.Y.G.P.c.5 6 > G hXkX2XT jXKXPXsX< o X X = 9 K d 1 @ X   X i 9X~ l %.3.3.w.5.3.X.",
"KXPXPXLXbX0X^.D.K.D.V.S.y.y.q.6 G T 2XCXKXHXLXhX3 O X o ; 9 q 9 < + X o % >.0Xx l o.X.X.3.4.o.X.",
"KXLXPXPXZX0X^.K.g.C.B.B.C.g.h.S z.ZXLXKXHXHXPXUXu $ + o X ; 0 0 # X X o y =X%Xl N %...w.4.4.o.X.",
"PXPXHXPXPXNX[.(.U.V.B.B.V.Z.T.x.$XLXLXDX3X4XLXPXE < @ O O O @ O o o o , E lX:.z N 4.( | o.../ o.",
"HXPXPXPXPXNX{.(.U.Z.V.C.V.Z.U.`.vXbX3XT ,XZXPXKXsXd 1 ; $ @ @ O % $ # i sXcXV l ^ 4.m C X.( k  .",
"PXKXKXVXbXaX'.L.T.U.U.T.h.k.c.m.z.T ,XkXKXPXHXPXKX=Xs 2 < < 7 7 * = 9  XFX7Xe x ` %.^ C X.( n ..",
"PXPXKXlX;X1X^.Z.S.A.K.y.4 & - - g fXDXLXPXKXHXHXPXPXsXK u 2 , 7 7 q XXJXIX6XQ Q &.%.o.} X.( ( X.",
"HXHXKXPXKXaX^.D.Z.C.B.Z.8.q.l.G 9 }.LXHXKXPXPXKXKXJXKXSX@XE K K }.sXJXPXFX-.B M t.%.e.X.3. . .X.",
"KXPXHXLXPXNX).I.D.B.B.B.V.D.P.l.8 -XPXPXPXPXPXJXkX:XVXLXPXKXSXVXLXKXPXPXvXV N ^ &.%.o.X.X.X.X.X.",
"PXPXPXLXPXGX'.I.D.B.C.Z.V.V.T.#.p xXFXFXDXkXjX>XR kXKXLXPXPXPXPXHXPXHXPX7Xx z ) o.o.M ] X...X.X.",
"PXPXHXPXPXmX).Z.C.B.B.g.h.g.k.l.R <X4XT Y Y ,XjXJXPXPXPXPXPXPXPXHXPXHXLX2.n n O.O...z ] } /  .X.",
"PXPXPXPXPXmX).U.F.A.Q.h 4 w 9.U <X3XjXkXAXJXPXHXPXPXHXPXPXPXPXPXKXPXLXNXV n M r.o.` z ..^ m o.o.",
"PXPXPXPXPXFXeXeXwXyXaX$X>.$XkXhXKXPXPXKXPXKXKXPXPXPXPXPXPXHXPXPXPXPXLX9XV z ) %.O.O.C o./ C X.X.",
"PXPXPXLXPXPXLXPXPXPXPXLXPXPXPXPXPXPXPXPXHXHXPXPXPXPXPXPXPXPXPXPXHXPXLXOXx n | w.w.O.] 5... . .X.",
"PXPXPXPXPXPXPXPXPXPXPXPXPXPXPXPXPXPXPXPXPXPXPXPXPXPXPXPXPXPXPXPXPXHXFX:.x Q O.O.e.w.X.X.5.3.3.o.",
"PXPXPXPXPXPXPXPXPXPXPXPXPXPXPXPXPXPXPXPXPXPXPXPXPXPXPXPXPXPXPXPXPXPXbX-.Q ' t.e.r.3.3.X. .X.X.3.",
"PXPXPXPXPXPXPXPXPXPXPXPXPXPXPXPXPXPXPXPXPXPXPXPXPXPXPXPXPXPXPXPXPXPXxX-.$.i.i.*.i.o.o.w.3.o.4.4.",
"PXPXPXPXPXPXPXPXPXPXPXPXPXPXPXPXPXPXPXPXPXPXPXPXPXPXPXPXPXPXPXPXPXLXxX2.<.`.d.' M O.&.+...o.4.5.",
"PXPXPXPXPXPXPXPXPXPXPXPXPXPXPXPXPXPXPXPXPXPXPXPXPXPXPXPXPXPXPXPXPXLXxXM.b.!.c.Q M t.+.N @.o.5.6.",
"PXPXPXPXPXPXPXPXPXPXPXPXPXPXPXPXPXPXPXPXPXPXPXPXPXPXPXPXPXPXPXPXIXIX7XM.n.v.=.Q ' f.*.<.v.i.i.d.",
"PXPXPXPXPXPXPXPXPXPXPXPXPXPXPXPXPXPXPXPXPXPXPXPXPXPXPXPXPXPXPXPXHXIX6X1.<.c.p.*.p.x.~.pX6X!.1.m."
};
