/* XPM */
static char *relation[] = {
/* columns rows colors chars-per-pixel */
"48 48 120 2",
"   c #0764EE",
".  c #0E67EF",
"X  c #0E6AEB",
"o  c #0266F6",
"O  c #0165FD",
"+  c #0368F5",
"@  c #0168FD",
"#  c #0A66F3",
"$  c #0A65FA",
"%  c #0B6AF3",
"&  c #0B69FA",
"*  c #1166ED",
"=  c #156BE5",
"-  c #1469ED",
";  c #1F6FE7",
":  c #1A6DEC",
">  c #1165F4",
",  c #1165F8",
"<  c #1169F2",
"1  c #126BF9",
"2  c #1A6DF1",
"3  c #1670ED",
"4  c #1C76E1",
"5  c #1D71EB",
"6  c #1570F5",
"7  c #1772FB",
"8  c #1A71F0",
"9  c #3575D0",
"0  c #236EEC",
"q  c #2777E6",
"w  c #2575EC",
"e  c #277AEF",
"r  c #2F77E6",
"t  c #2D7AEE",
"y  c #2174F5",
"u  c #237AF2",
"i  c #2B7DF1",
"p  c #337BEC",
"a  c #3C7BE3",
"s  c #3879EC",
"d  c #307CF0",
"f  c #3583ED",
"g  c #3B83EE",
"h  c #3383F2",
"j  c #318BFE",
"k  c #3982F3",
"l  c #4E87D5",
"z  c #5484DE",
"x  c #4085E6",
"c  c #4386EF",
"v  c #458CEB",
"b  c #4E8CEA",
"n  c #4285F1",
"m  c #4F95F5",
"M  c #4A94FA",
"N  c #4E9BFD",
"B  c #518DEF",
"V  c #5592EC",
"C  c #5A9BED",
"Z  c #5394F4",
"A  c #5396FA",
"S  c #5B96F1",
"D  c #5E98F5",
"F  c #5AA0FC",
"G  c #59A9FF",
"H  c #629EF9",
"J  c #6C9CF3",
"K  c #689FF9",
"L  c #64A3FC",
"P  c #6BA2F5",
"I  c #6BA7FD",
"U  c #72ABFB",
"Y  c #7BABF6",
"T  c #78AEFB",
"R  c #7CB2FB",
"E  c #79B9FF",
"W  c #80ABF6",
"Q  c #84B6FC",
"!  c #84B9FD",
"~  c #8BB4F4",
"^  c #89B5FB",
"/  c #88BCF4",
"(  c #8BBAFC",
")  c #81C3FF",
"_  c #88C1FF",
"`  c #88C9FF",
"'  c #95C4F7",
"]  c #91C4FD",
"[  c #9CC3F7",
"{  c #9AC5FC",
"}  c #9CC9FF",
"|  c #A1C7F8",
" . c #A4CCFF",
".. c #ADC9F3",
"X. c #ABCEFF",
"o. c #A5D2FF",
"O. c #AAD3FE",
"+. c #ABDBFF",
"@. c #B2D4FE",
"#. c #B7DBFF",
"$. c #BCDDFF",
"%. c #BDE3FF",
"&. c #C1CEEE",
"*. c #C0DBFF",
"=. c #C3E3FE",
"-. c #CAE5FE",
";. c #CBE9FF",
":. c #CFF3FF",
">. c #D4ECFF",
",. c #D9EEFF",
"<. c #D5F0FF",
"1. c #D5F9FF",
"2. c #DCF3FF",
"3. c #E2EDFE",
"4. c #E4F5FF",
"5. c #EAF5FE",
"6. c #ECFBFF",
"7. c #F4FDFE",
"8. c #FDFEF5",
"9. c #FEFEFE",
/* pixels */
"9.9.9.9.9.9.9.9.9.9.9.9.9.9.9.9.9.9.9.9.9.9.9.9.9.9.9.9.9.9.9.9.9.9.9.9.9.9.9.9.9.9.9.9.9.9.9.9.",
"9.9.9.9.9.9.9.9.9.9.9.9.9.9.9.9.9.9.9.9.9.9.9.9.9.9.9.9.9.9.9.9.9.9.9.9.9.9.9.9.9.9.9.9.9.9.9.9.",
"9.9.9.9.9.9.9.9.9.9.9.9.9.9.9.9.9.9.9.9.9.9.9.9.9.9.9.9.9.9.9.9.9.9.9.9.9.9.9.9.9.9.9.9.9.9.9.9.",
"9.9.9.9.9.9.9.9.9.9.9.9.9.9.9.9.9.9.9.9.9.9.9.9.9.9.9.9.9.9.9.9.9.9.9.9.9.9.9.9.9.9.9.9.9.9.9.9.",
"9.9.9.9.9.9.9.9.9.9.9.9.9.9.9.9.9.9.9.9.9.9.9.9.9.9.9.9.9.9.9.9.9.9.9.9.9.9.9.9.9.9.9.9.9.9.9.9.",
"9.9.9.9.9.9.9.9.9.9.9.9.9.9.9.9.9.9.9.9.9.9.9.9.9.9.9.9.9.9.9.9.9.9.9.9.9.9.9.9.9.9.9.9.9.9.9.9.",
"9.9.9.9.9.9.9.9.9.9.9.9.9.9.9.9.9.9.9.9.9.9.9.9.9.9.9.9.9.9.9.9.9.9.9.9.9.9.9.9.9.9.9.9.9.9.9.9.",
"9.9.9.9.9.9.9.9.9.9.9.9.9.9.9.9.9.9.9.9.9.9.9.9.9.9.9.9.9.9.9.9.9.9.9.9.9.9.9.9.9.9.9.9.9.9.9.9.",
"9.9.9.9.9.9.9.9.9.9.9.9.9.9.9.9.9.9.9.9.9.9.9.9.9.9.9.9.9.9.9.9.9.9.9.9.9.9.9.9.9.9.9.9.9.9.9.9.",
"9.9.9.9.9.9.9.9.9.9.9.9.9.9.9.9.9.9.9.9.9.9.9.9.9.9.9.9.9.9.9.9.9.9.9.9.9.9.9.9.9.9.9.9.9.9.9.9.",
"9.9.9.9.9.9.9.9.9.9.9.9.9.9.9.9.9.9.9.9.9.9.9.9.9.9.9.9.9.9.9.9.9.9.9.9.9.9.9.9.9.9.9.9.9.9.9.9.",
"9.9.9.9.9.9.9.9.9.9.9.9.9.9.9.9.9.9.9.9.9.9.9.9.9.9.9.9.9.9.9.9.9.9.9.9.9.9.9.9.9.9.9.9.9.9.9.9.",
"9.9.9.9.9.9.9.9.9.9.9.9.9.9.9.9.9.9.9.9.9.9.9.9.9.9.9.9.9.9.9.9.9.9.9.9.9.9.9.9.9.9.9.9.9.9.9.9.",
"9.9.9.9.9.9.9.9.9.9.9.9.9.9.9.9.9.9.9.9.9.9.9.9.9.9.9.9.9.9.9.9.9.9.9.9.9.9.9.9.9.9.9.9.9.9.9.9.",
"9.9.9.9.9.9.9.9.9.9.9.9.9.9.9.9.9.9.9.9.9.9.9.9.9.9.9.9.9.9.9.9.9.9.9.9.9.9.9.9.9.9.9.9.9.9.9.9.",
"9.9.9.9.9.9.9.9.9.9.9.9.9.9.9.9.9.9.9.9.9.9.9.9.9.9.9.9.9.9.9.9.9.9.9.9.9.9.9.9.9.9.9.9.9.9.9.9.",
"9.9.9.9.9.9.9.9.9.9.9.9.9.9.9.9.9.9.9.9.9.9.9.9.9.9.9.9.9.9.9.9.9.9.9.9.8.9.9.9.9.7.9.9.9.8.9.9.",
"9.9.9.9.9.9.9.9.9.9.9.9.9.9.9.9.9.9.9.9.9.9.6.7.6.9.9.9.8.9.9.9.9.9.9.9.9.9.9.9.9.9.9.9.7.9.9.9.",
"9.9.9.9.9.9.9.9.9.9.9.9.9.9.9.9.9.9.9.9.7.%./ Q [ -.5.6.7.9.9.9.9.9.9.9.9.9.9.9.9.8.9.9.7.9.9.9.",
"9.9.9.9.9.9.9.9.9.9.9.9.9.9.9.9.8.9.8.5.$.V * $ : s A I R Q _ o.$.*.;.2.4.6.9.9.9.8.8.9.9.9.9.9.",
"9.9.9.9.9.9.9.9.9.9.9.9.9.9.9.9.9.8.7.| s # @ @ @ @ @ # + % * - 2 w t n V W  .%.>.2.2.7.9.8.8.9.",
"9.9.9.9.9.9.9.9.9.9.9.9.9.9.9.9.9.7.-.n $ O O o @ O O O O O O $ O @ O O $ $ - 5 h k l >.9.9.7.9.",
"9.9.9.9.9.9.9.9.9.9.9.9.9.9.9.9.9.7.^ , @ @ O O @ O O O O O O O O @ O O O @ O O O O r ;.5.-.[ ~ ",
"9.9.9.9.9.9.9.9.9.9.9.9.9.9.9.9.8.5.S $ O o O O O O O O O @ @ @ O O O O $ O O O O @ < E U p = B ",
"9.9.9.9.9.9.9.9.9.9.9.9.9.9.9.9.8.9.[ g t w 2 & O O O @ O O @ @ o o O O O O O O o O O O + @ X { ",
"9.9.9.9.9.9.9.8.9.9.9.9.9.9.9.9.7.8.7.>.;.*.X.N + @ @ @ O O O O O O O O O O O O O $ O O @ @ 0 $.",
"9.9.9.9.9.9.9.9.9.8.9.9.9.9.9.9.9.9.9.9.9.8.7.Q , O O O O O O O O O O O O O $ O O O O O . 0 J 4.",
"9.9.9.9.9.9.9.9.9.9.8.9.7.8.9.9.9.9.9.9.6.5.%.F 1 @ O O O $ O O O O O O $ O O O O O < p L X.5.7.",
"9.9.9.9.9.9.9.9.9.9.9.9.7.9.8.9.9.9.5.=.] C q % @ @ @ O O o O O O O O O O O O O O e R ;.4.9.9.9.",
"9.9.9.9.9.9.9.9.9.9.9.8.9.9.9.9.4.X.P t < O O O @ O O O O O o O @ @ O O O O O   f  .6.9.8.9.9.9.",
"9.9.9.9.9.9.9.9.9.7.9.8.5.,.#.Q V 5 & @ O $ O O O o O O O + 1 7 1 O O @ @ O > b %.7.9.9.9.9.9.8.",
"9.9.9.9.7.9.8.7.6.2.>.O.P g : % @ @ O @ O O O O O O # : t M G j + O O O O % B =.9.9.9.9.8.9.8.9.",
"9.9.9.7.,.$.@.{ J B s y $ O O O O O o O O O O % : h L _ ! N u % O O O O > S -.9.9.9.9.9.8.9.8.9.",
"9.8.>.^ a 3 : % + O O O O @ O O O O O O . : f U +.%. .U u # O O O O O : U 4.9.9.9.9.9.9.9.9.9.9.",
"9.3.b . o @ O O @ @ @ O O O @ O O = 0 m Q X.>.;.^ Z 5 . o O O O O # k } 5.9.8.9.9.9.9.9.9.9.9.9.",
"8.=.w @ O o O @ @ O O O O O = h F ( $.4.9.9.%.v = O @ @ O $ O O : V %.7.8.8.9.9.9.9.9.9.9.9.9.9.",
"2.Q < @ O O o O O O # : f C [ >.5.9.9.7.9.8.W # @ O @ @ O # < g { 4.7.8.9.8.7.9.9.9.9.9.9.9.9.9.",
"L # O O O O o # # : Z  .,.7.9.9.9.9.9.9.8.9.X.y O @ @ % : n ! >.7.9.9.9.9.9.9.9.9.9.9.9.9.9.9.9.",
"N + o O $ - 4 g T O.,.9.8.8.9.9.9.9.9.9.9.9.5.K $ + 5 S  .2.7.9.9.9.9.9.9.9.9.9.9.9.9.9.9.9.9.9.",
"` X . t K  .%.4.9.9.9.9.9.9.9.9.8.9.9.8.9.9.9.( % 3 ( 5.7.9.9.9.9.9.9.9.9.9.9.9.9.9.9.9.9.9.9.9.",
"1.z ( >.6.9.8.9.9.9.9.9.9.9.9.8.8.9.9.9.9.7.9...9 J 3.9.9.9.9.8.9.9.9.9.9.9.9.9.9.9.9.9.9.9.9.9.",
"9.5.7.9.9.9.9.9.9.9.9.9.9.9.9.9.8.9.9.9.8.9.9.,.&.,.9.9.9.9.9.9.9.9.9.9.9.9.9.9.9.9.9.9.9.9.9.9.",
"9.7.7.9.9.9.9.9.9.9.9.9.9.9.9.9.9.9.9.9.9.9.9.7.7.9.9.9.8.9.9.9.9.9.9.9.9.9.9.9.9.9.9.9.9.9.9.9.",
"9.9.8.8.9.9.9.9.9.9.9.9.9.9.9.9.9.9.9.9.8.8.8.9.9.9.8.8.9.9.9.9.9.9.9.9.9.9.9.9.9.9.9.9.9.9.9.9.",
"9.8.9.9.9.9.9.9.9.9.9.9.9.9.9.9.9.9.9.9.9.8.9.8.9.8.9.9.9.9.9.9.8.9.9.9.9.9.9.9.9.9.9.9.9.9.9.9.",
"9.9.9.9.9.9.9.9.9.9.9.9.9.9.9.9.9.8.9.9.9.9.9.9.9.9.9.9.9.9.9.8.9.9.9.9.9.9.9.9.9.9.9.9.9.9.9.9.",
"9.9.9.9.9.9.9.9.9.9.9.9.9.9.9.9.9.9.9.9.9.9.9.9.9.9.9.9.9.9.9.9.9.9.9.9.9.9.9.9.9.9.9.9.9.9.9.9.",
"9.9.9.9.9.9.9.9.9.9.9.9.9.9.9.9.9.9.9.9.9.9.9.9.9.9.9.9.9.9.9.9.9.9.9.9.9.9.9.9.9.9.9.9.9.9.9.9."
};
