/* XPM */
static char *retval[] = {
/* columns rows colors chars-per-pixel */
"48 48 185 2",
"   c #0F69ED",
".  c #0366F5",
"X  c #0365FC",
"o  c #0469F4",
"O  c #036AFC",
"+  c #0D67F6",
"@  c #0B66FD",
"#  c #0D6BF2",
"$  c #0B6BFB",
"%  c #0C70F6",
"&  c #0E71FA",
"*  c #1166F4",
"=  c #1466FA",
"-  c #136CF3",
";  c #126DFB",
":  c #1B6EF6",
">  c #196CFA",
",  c #1E72EE",
"<  c #1472F5",
"1  c #1472FC",
"2  c #1778FD",
"3  c #1B73F5",
"4  c #1B73FB",
"5  c #1D79F6",
"6  c #1D7AFC",
"7  c #2376ED",
"8  c #2478EC",
"9  c #2F7DE4",
"0  c #2B7AEA",
"q  c #2173F2",
"w  c #2175FB",
"e  c #257AF3",
"r  c #237BFC",
"t  c #2975F2",
"y  c #2877FE",
"u  c #2B7CF3",
"i  c #2A7CFC",
"p  c #3275E9",
"a  c #357EE7",
"s  c #367EEB",
"d  c #397FEA",
"f  c #327CF4",
"g  c #357EFB",
"h  c #397DF6",
"j  c #2F81EE",
"k  c #2481FD",
"l  c #2B81F4",
"z  c #2C82FC",
"x  c #2C8AFF",
"c  c #3282EB",
"v  c #3985E9",
"b  c #3F8AE9",
"n  c #3283F4",
"m  c #3383FC",
"M  c #3389FD",
"N  c #3A84F3",
"B  c #3A85FB",
"V  c #3B89F3",
"C  c #3B8BFC",
"Z  c #3690FF",
"A  c #3D91FE",
"S  c #4180E5",
"D  c #4585E9",
"F  c #478AE6",
"G  c #428BEB",
"H  c #4B89E6",
"J  c #4C88EB",
"K  c #4482F1",
"L  c #428AF3",
"P  c #428CFC",
"I  c #4B8CF2",
"U  c #4B8FFD",
"Y  c #4C90E7",
"T  c #4E93ED",
"R  c #4390F6",
"E  c #4392FE",
"W  c #4698FE",
"Q  c #4E92F7",
"!  c #4A93FD",
"~  c #4C9AFD",
"^  c #558EEE",
"/  c #528DF1",
"(  c #5093E5",
")  c #5395ED",
"_  c #5698ED",
"`  c #5B94EC",
"'  c #5B9AEF",
"]  c #5391F1",
"[  c #5395F9",
"{  c #5298F5",
"}  c #519BFE",
"|  c #5A95F2",
" . c #5C9CF1",
".. c #5B9AFC",
"X. c #53A0FD",
"o. c #59A0FE",
"O. c #6697E7",
"+. c #6092EB",
"@. c #649BED",
"#. c #689CEA",
"$. c #649BF3",
"%. c #6F9CF0",
"&. c #719FF7",
"*. c #65A5EC",
"=. c #6DA1E9",
"-. c #67A1F4",
";. c #65A4FC",
":. c #63AAFE",
">. c #6CA4F3",
",. c #6BA3F9",
"<. c #6CA9FF",
"1. c #66B0FF",
"2. c #6CB1FF",
"3. c #78A6EC",
"4. c #7AABEE",
"5. c #70A5F9",
"6. c #76AAF4",
"7. c #75ACFC",
"8. c #7AA6FA",
"9. c #7DACF5",
"0. c #7AACFA",
"q. c #76B0FA",
"w. c #7DB0F6",
"e. c #7CB2FC",
"r. c #7FB8FE",
"t. c #81ADEB",
"y. c #82AEF0",
"u. c #83AEF8",
"i. c #89B4EB",
"p. c #80B1F5",
"a. c #84B4FA",
"s. c #82BCFE",
"d. c #8AB4F1",
"f. c #8BB6FA",
"g. c #8CB9F4",
"h. c #8CBBFD",
"j. c #98BBF4",
"k. c #9BBEFD",
"l. c #A1BFEF",
"z. c #A8BDE5",
"x. c #A0BDF0",
"c. c #8CC1F3",
"v. c #8CC0F9",
"b. c #8EC8FD",
"n. c #9BC2EE",
"m. c #94C3FC",
"M. c #9BC5FC",
"N. c #9ECAF7",
"B. c #9CCAFD",
"V. c #A1C4F6",
"C. c #A3C5FA",
"Z. c #A6CAF3",
"A. c #A9C7FC",
"S. c #ACCCF6",
"D. c #AACCFD",
"F. c #AAD8FF",
"G. c #BACAE2",
"H. c #B2D1FD",
"J. c #B3D9FE",
"K. c #BAD8FD",
"L. c #B7E0FF",
"P. c #BDE3FF",
"I. c #C3DCFD",
"U. c #CBDDFD",
"Y. c #C4E3FE",
"T. c #C7EBFF",
"R. c #CBE3FF",
"E. c #CCEBFF",
"W. c #CDF2FF",
"Q. c #D3E4FC",
"!. c #D3EBFF",
"~. c #D9E0F7",
"^. c #DCEBFE",
"/. c #D5F1FE",
"(. c #DCF2FF",
"). c #DDFBFF",
"_. c #E1EEFE",
"`. c #E3F4FF",
"'. c #E5F9FF",
"]. c #E9F2FC",
"[. c #ECFAFE",
"{. c #F2F7FF",
"}. c #F4FCFE",
"|. c #FCFEF6",
" X c #FEFEFE",
/* pixels */
" X X X X X X X X X X X X X X X X X|.|.}. X X X X X X X X X X X X X X X X X X X X X X X X X X X X",
" X X X X X X X X X X X X X X X X X X X X X X X X X X X X X X X X X X X X X X X X X X X X X X X X",
" X X X X X X X X X X X X X X X X X X X X|. X X X X X X X X X X X X X X X X X X X X X X X X X X X",
" X X X X X X X X X X X X X X X X X X X|.|.|. X X X X X X X X X X X X X X X X X X X X X X X X X X",
" X X X X X X X X X X X X X X X X X X X X}.}. X|. X X X X X X X X X X X X X X X X X X X X X X X X",
" X X X X X X X X X X X X X X X X X X X X X X X X X X X X X X X X X X X X X X X X X X X X X X X X",
" X X X X X X X X X X X X X X X|.|.}.`.{. X|. X X X X X X X X X X X X X X X X X X X X X X X X X X",
" X X X X X X X X X X X X X X X|.{.J.@.t.R. X X X X X X X X X X X X X X X X X X X X X X X X X X X",
" X X X X X X X X X X X X X X X}.D.L y f 8.^. X X X}. X X X X X X X X X X X}.}. X X X X X X X X X",
" X X X X X X X X X|.|. X X X{.A.G r 1 = J Y.}. X X X X X X X|. X}.}.}.[.P.g.S.{. X X X X X X X|.",
" X X X X X X X X X|. X X X}.!./ < O . $ i g.[. X X X|. X X X}.}./.N.w.| v 0 Y Z.{. X X X X X X X",
" X X X X X X X X X X X}. X(.>.4 O X O O u g.}. X X X}.|.}.[.U.C. .u i i m w V 9.]. X X X X X X X",
" X X X X X X X}.}. X X X[.t.7 $ X X X $ / `.|.|.|. X}.`.C.+.s t 3 > y M z m ^ x.]. X X|. X X X}.",
" X X X X X X X X X X X}.I.-.z O @ X O : D. X|. X}.Q.H.h.;.n < 1 i m u v _ h.^.{.|.{. X X X X X X",
" X X X X X X X|. X X}.Y.0.} ; X X O # $.'.}.'.I.M.8...} N l A z k s >.Z.(.}.}. X X X X X X X X X",
" X X X X X X X X X XI.-.n w + X X O 0 J.[.P.>.K n u 7 C ~ P u u ;.F.W.`.'.}. X X|. X X X X X X X",
" X X X X X X X X X^.' k 5 i O O O ; { L.6.v i 3 n C Z e r i ~ :... .' / +.n.}.}. X X X X X X X X",
" X X X X X X|. X}.M.0 3 M < X $ $ 3 ;.$.m 2 4 i i r i 5 1 1 3 3 1 r i i i ` Q. X X X X X X X X X",
" X X X X X|. X XR.J t ! e o O @ * C :.V 5 1 $ ; + > i m i 4 y r r i m i i T Y. X X X X X X X X X",
"|. X X X|. X X{.C.{ :.P * $ 1 O 4 ~ P : -   - 5 i M E } C M e 7 n v S ^ -.d.Q. X X X X X X X X X",
" X X X X|. X{.R.N.b.*.C 1 ; $ % C ,.;...~ ! P A C u u n 8 u P X.:.s.F.Y./.).[. X X X X X X X X X",
" X X X X X}.^.j.h.h.s.V 2 1 # z :.e.-.{ P y 1 5 z m R o.E z M W R P Q ) ( =.R. X X X X X X X X X",
" X X X X X{.z.f.0.&.7.N z r q :.q.h.e.! u 4 2 1 i i E ! P 4 ; < & 4 i z 6 n k.}. X X X X X X X X",
" X|. X X|.].Y.9.h.e./ ! E C ! U ' e.;.V 6 1 1 r i 4 5 < & & 4 6 1 1 6 y r B u.[. X X X X X X X X",
"|. X X X|.}.U.3.B.>.2.E C l n U } { g 4 & $ ; ; 1 6 1 % O X O o o & ; @ y ..x.[. X X X X X X X X",
" X X X X|.{.].x.p.&.| C e - - } :.W y 4 ; o @ @ O 1 5 5 i r r 6 r i m 6 M B.].|. X X X X X X X X",
" X X X X|. X}.^.i.9.0...z i 4 e s p f M r 2 < O $ & r r i u 3 i m g n n J A. X X X X X X X X X X",
" X X X|. X X{.G.P.F.M.! i z ; < o.s.<.C r 1 1 & $ $ & ; e k 1 e o.;.r.h.N.U. X X X X X X X X X X",
" X X X X X X X~.E.Z.m.! : r 5 1 V 5.,.} M z x M C A m e A Z k 3 e U ` m.P.'.}.|. X X X X X X X X",
" X X X|.|. X X{.'.j.e.V 4 6 x < C e.h.[ f y 5 - : l M m ! E z 5 < - w n K %.U. X X X X X X X X X",
" X}. X X X X X X}.k...P : 3 i r C ;.>.7.o.0 r 1 r 5 e e B 0 n l x z i m u v M.}. X X X X X X X X",
" X|. X X X X X X XC.v W t < 3 C M Q q.7.Q P A A i i z ~ ~ C y A N P B n l N M. X X X X X X X X X",
" X X X X X X X|. XE.D B B r 5 C i r ' P.d.J s l W B g P C E 3 g ;.s.r.q.,.@.H. X X X X X X X X X",
" X X X X X X X X|.}.9.K ! r 5 5 M 1 b P.{.^.M.` Q N n X.C e 4 4 5 l { m.T.!._. X X X X X X X X X",
" X X X X X X X X X XY.) m z W : i 6 5 8.[.|.}.[.K.p.| G c V C i 3 < 4 h / f.Y.}. X X X X X X X X",
" X X X X X X X X}.|.}.d.0 X.s z - w 1 L Y.|.|. X X}.{.Y.m._ 9 u z e i m i u J H.}. X X X X X X X",
" X X X X X X X X X X X{.6.j C < $ 1 k l 9.{. X X X X X X X{.E.h.) L m i m q c m.}.}. X X X X X X",
" X X X X X X X X X X X X`.T l x $ + & k H ^. X}. X|. X X X X|. X}.T.f. .b V / D.}. X X X X X X X",
" X X X X X X X X X X X X}.E.H l k ; @ 4 p.{. X X X X X|. X X}. X X X}.[.Y.B.y.U. X X X X X X X X",
" X X X X X X X X X|. X X|.|.Y.F i i 4 q f.}.|. X X}.}. X X X X X X}. X|.|.}.{.}. X X X X X X X X",
" X X X X X X X X X}. X X X|.}.U.+.n z r D R. X X X X|. X X X X X|. X X X X}. X|. X X X X X X X X",
" X X X X X X X X X X X X X X X}.Y.@.n g #.`.}. X X X X X X X X X X X X X X X X X X X X X X X X X",
" X X X X X X X X X X X X X X X X{.W.3.O.K.}.|. X X X X X X X X X X X X X X X X X X X X X X X X X",
" X X X X X X X X X X X X X X X X X|.`.I.}.|.|. X X X X X X X X X X X X X X X X X X X X X X X X X",
" X X X X X X X X X X X X X X X X X X X X X X}. X X X X X X X X X X X X X X X X X X X X X X X X X",
" X X X X X X X X X X X X X X X X X X X|. X X X X X X X X X X X X X X X X X X X X X X X X X X X X",
" X X X X X X X X X X X X X X X X}. X X X X X X X X X X X X X X X X X X X X X X X X X X X X X X X",
" X X X X X X X X X X X X X X X X X X X X|. X X X X X X X X X X X X X X X X X X X X X X X X X X X"
};
