/* XPM */
static char * SelfTransition_xpm[] = {
"48 48 234 2",
"  	c #FFFFFF",
". 	c #FFFDFD",
"+ 	c #FFEFEF",
"@ 	c #FFE4E4",
"# 	c #FFE7E7",
"$ 	c #FFF7F7",
"% 	c #FFFEFE",
"& 	c #FFF8F8",
"* 	c #FFEBEB",
"= 	c #FFC9C9",
"- 	c #FF8282",
"; 	c #FF4E4E",
"> 	c #FF4242",
", 	c #FF4949",
"' 	c #FF5F5F",
") 	c #FF7E7E",
"! 	c #FF9898",
"~ 	c #FFA9A9",
"{ 	c #FFB8B8",
"] 	c #FFCCCC",
"^ 	c #FFE3E3",
"/ 	c #FFF5F5",
"( 	c #FFFCFC",
"_ 	c #FFE5E5",
": 	c #FFBFBF",
"< 	c #FF9B9B",
"[ 	c #FF8181",
"} 	c #FF6B6B",
"| 	c #FF4747",
"1 	c #FF2323",
"2 	c #FF1515",
"3 	c #FF1818",
"4 	c #FF1C1C",
"5 	c #FF2020",
"6 	c #FF2525",
"7 	c #FF2D2D",
"8 	c #FF3737",
"9 	c #FF5C5C",
"0 	c #FF8383",
"a 	c #FFB9B9",
"b 	c #FFE6E6",
"c 	c #FFBDBD",
"d 	c #FF7777",
"e 	c #FF4343",
"f 	c #FF1919",
"g 	c #FF1E1E",
"h 	c #FF1F1F",
"i 	c #FF1717",
"j 	c #FF0D0D",
"k 	c #FF0B0B",
"l 	c #FF0808",
"m 	c #FF0707",
"n 	c #FF0606",
"o 	c #FF0909",
"p 	c #FF1414",
"q 	c #FF2A2A",
"r 	c #FF3B3B",
"s 	c #FF4444",
"t 	c #FF6767",
"u 	c #FFA4A4",
"v 	c #FFDEDE",
"w 	c #FFFBFB",
"x 	c #FFECEC",
"y 	c #FF9E9E",
"z 	c #FF4C4C",
"A 	c #FF1B1B",
"B 	c #FF0505",
"C 	c #FF0F0F",
"D 	c #FF2121",
"E 	c #FF2727",
"F 	c #FF2424",
"G 	c #FF1313",
"H 	c #FF0C0C",
"I 	c #FF2F2F",
"J 	c #FF3131",
"K 	c #FF4D4D",
"L 	c #FFABAB",
"M 	c #FFFAFA",
"N 	c #FF9191",
"O 	c #FF3636",
"P 	c #FF0E0E",
"Q 	c #FF0404",
"R 	c #FF0303",
"S 	c #FF1D1D",
"T 	c #FF3E3E",
"U 	c #FF4A4A",
"V 	c #FF4545",
"W 	c #FF3A3A",
"X 	c #FF2E2E",
"Y 	c #FF3030",
"Z 	c #FF3232",
"` 	c #FF1616",
" .	c #FFA7A7",
"..	c #FFF1F1",
"+.	c #FF3535",
"@.	c #FF6E6E",
"#.	c #FF7F7F",
"$.	c #FF7373",
"%.	c #FF4040",
"&.	c #FF3333",
"*.	c #FF3838",
"=.	c #FF3939",
"-.	c #FF5151",
";.	c #FFDBDB",
">.	c #FFACAC",
",.	c #FF7B7B",
"'.	c #FFB2B2",
").	c #FFBEBE",
"!.	c #FFAEAE",
"~.	c #FF9292",
"{.	c #FF7979",
"].	c #FF6666",
"^.	c #FF5353",
"/.	c #FF3434",
"(.	c #FF2C2C",
"_.	c #FF6060",
":.	c #FF5656",
"<.	c #FF7D7D",
"[.	c #FFF6F6",
"}.	c #FFBCBC",
"|.	c #FF5252",
"1.	c #FFEEEE",
"2.	c #FFD9D9",
"3.	c #FFCDCD",
"4.	c #FFA5A5",
"5.	c #FF3D3D",
"6.	c #FF2929",
"7.	c #FF2828",
"8.	c #FF6464",
"9.	c #FF0202",
"0.	c #FFB5B5",
"a.	c #FFD4D4",
"b.	c #FF6565",
"c.	c #FF1A1A",
"d.	c #FF2B2B",
"e.	c #FFA2A2",
"f.	c #FFD3D3",
"g.	c #FFEDED",
"h.	c #FFF9F9",
"i.	c #FFDDDD",
"j.	c #FFC5C5",
"k.	c #FF5A5A",
"l.	c #FF4646",
"m.	c #FF0101",
"n.	c #FFE8E8",
"o.	c #FF2626",
"p.	c #FF8888",
"q.	c #FFCBCB",
"r.	c #FFC0C0",
"s.	c #FF8080",
"t.	c #FF3F3F",
"u.	c #FF0A0A",
"v.	c #FF3C3C",
"w.	c #FF9C9C",
"x.	c #FFF4F4",
"y.	c #FF9D9D",
"z.	c #FF7272",
"A.	c #FFD6D6",
"B.	c #FFDCDC",
"C.	c #FF5858",
"D.	c #FFC1C1",
"E.	c #FF5050",
"F.	c #FF1111",
"G.	c #FF6868",
"H.	c #FFF2F2",
"I.	c #FFB6B6",
"J.	c #FF8F8F",
"K.	c #FFB4B4",
"L.	c #FF8C8C",
"M.	c #FF9F9F",
"N.	c #FF4141",
"O.	c #FFC3C3",
"P.	c #FFCFCF",
"Q.	c #FF6969",
"R.	c #FFC8C8",
"S.	c #FF7C7C",
"T.	c #FFE2E2",
"U.	c #FFD1D1",
"V.	c #FF5555",
"W.	c #FF9595",
"X.	c #FFADAD",
"Y.	c #FFD8D8",
"Z.	c #FFC6C6",
"`.	c #FF5454",
" +	c #FF7474",
".+	c #FF4B4B",
"++	c #FFA6A6",
"@+	c #FF6161",
"#+	c #FF9090",
"$+	c #FF1212",
"%+	c #FF6D6D",
"&+	c #FFD7D7",
"*+	c #FF8B8B",
"=+	c #FF1010",
"-+	c #FFDADA",
";+	c #FF9999",
">+	c #FF7A7A",
",+	c #FFDFDF",
"'+	c #FFAFAF",
")+	c #FF8989",
"!+	c #FF8585",
"~+	c #FFB0B0",
"{+	c #FFE1E1",
"]+	c #FF8484",
"^+	c #FFF0F0",
"/+	c #FFEAEA",
"(+	c #FFF3F3",
"_+	c #FFA1A1",
":+	c #FF2222",
"<+	c #FFE0E0",
"[+	c #FF8E8E",
"}+	c #FF5D5D",
"|+	c #FFCACA",
"1+	c #FF7878",
"2+	c #FF5B5B",
"3+	c #FF6C6C",
"4+	c #FF6363",
"5+	c #FFE9E9",
"6+	c #FFC7C7",
"7+	c #FF0000",
"8+	c #FFBBBB",
"9+	c #FFA8A8",
"0+	c #FF4848",
"a+	c #FF6F6F",
"b+	c #FF9797",
"c+	c #FF6A6A",
"d+	c #FF8A8A",
"e+	c #FFA0A0",
"f+	c #FFB1B1",
"g+	c #FF5757",
"h+	c #FF7070",
"i+	c #FF5959",
"j+	c #FF5E5E",
"k+	c #FFB3B3",
"                                                                                                ",
"                                    . + @ # + $ .                                               ",
"                              % & * = - ; > , ' ) ! ~ { ] ^ / ( %                               ",
"                          ( _ : < [ } | 1 2 2 3 4 5 6 7 8 | 9 0 a b %                           ",
"                        / c d e 6 f g 1 h i j k k l m n o p q r s t u v w                       ",
"                      x y z A o B n C i D E F 5 5 4 G H l l H G h I J K L M                     ",
"                    * N O P Q R n S T U V W J 7 X Y Z Z q h ` G 4 2 o C W  .(                   ",
"                  ..! +.k R R H 8 @.#.$.9 %.&.&.*.O =.e z z %.&.6 F k Q C -.;.                  ",
"                & >.> j R R P Y ,.'.: ).!.~.{.].^.T /.%.V /.(.V _.:.X H R S <.[.                ",
"              . }.|.2 n B ` W #.>.= @ ..1.@ 2.3.: 4.- 9 5.Y 6.7.e 8._.6.9.n Z 0..               ",
"              a.b.c.n l d.t e.f.@ g.& % % . w h.[.1.i.j.! k.J E 6 J -.l.l m.G ].b               ",
"            n.#.o.l B g p.q.n.$ w . %             % w [.# r.s.t.7.o.8 t.p 9.u.v.w.(             ",
"          x.y./.k B A z.A.[.. %                         . / B.e.C.Z Z q p 9.n D k.@             ",
"        ( D.E.F.m o G.] $ %                               % ( x a b.Z o.G R B ` U { %           ",
"        ^ {.h B l t.}.x.%                                     % H.I.|.7 A m R C T J..           ",
"      M K.%.k B p L.n..                                           * M.; N.p Q P O z.(           ",
"      g.#.S Q m N.O.$                                             ( P.Q.> p l j 6._.x           ",
"    . R.; P n P S.T..                                               U.V.6 P o o A -.P.% & f.T.( ",
"    x.W.6.j P o.X.H.                                      ( @ c D.Y.M.s 1 C u.l f V.'.Z.,.`. +P.",
"    i.G.` H 2 .+R.h.                                      1.++|.|.@+K /.6 G u.k h Q.#+E.i j J q.",
"    D., $+k 5 %+&+w                                       1.! (.f 2 A c.A 5 G G 5 k.s P B i d 1.",
"  . 4.Z 2 F.7.*+^ .                                       h.{ N.=+m u.k S r D 4 g W H R H K -+% ",
"  $ *+D ` f F ;+* %                                         v {.A m Q B ` +.6 3 $+A Q B F  .%   ",
"  x >+A F.3 h y g.%                                         $ I.l.2 n 9.l i c.H Q n Q ` ,.*     ",
"  ,+>+6 H 3 6 +++ %                                         % ^ W.s C 9.R u.p l m.R F.`.i.      ",
"  -+0 +.j g /.'+H.%                                           w B.)+o.Q 9.u.S k R H v.a .       ",
"  ;.!+8 =+F =.~+H.%                                             & O.-.P R o 3 k u.J w.$         ",
"  {+]+Z $+7.&.~ ^+%                                             % /+y T F.n m j 1 L.(+          ",
"  @ L.O =+q I _+g.%                                               % # y.l.l m :+} @             ",
"  <+[+r C E q ~.# %                                                 . # M.O 6 }+|+.             ",
"  B.[ +.C f S 1+i.(                                                   ( @ M.) a (               ",
"  ;. +7 =+k C 2+U.w                                                     ( 1.^ &                 ",
"  v  +I 2 n u.5.D.&                                                                             ",
"  _ #.O g u.H S W./+.                                                                           ",
"  1.~.v.6.F.j F.; ).x.%                                                                         ",
"  $ ~ U (.F.n H h 3+f.h.                                                                        ",
"  % R.4+1 u.9.R p 6 !+i.M %                                     % % %                           ",
"    n.[+7 H Q 9.B 3 7.)+U.5+[.( %                         % . M 1._ + (                         ",
"    . 6+2+4 l m.7+k 2 1 2+L.8+i.+ & ( . % % % % . ( ( M x.g.{+] M.- !.5+.                       ",
"      [.9+0+i B 9.9.u.l n G J a+ .j.B.n.1.^+1.x _ B.a.= 0.b+ +l.5 6 2+8+M                       ",
"        ^+4.E.4 j n m.m.9.9.k A &.e c+d+< e.e+! ]+c+V.%.6.2 u.n u.i , !.h.                      ",
"          x.a } /.p B m.7+m.m.9.R 9.R n P i 4 3 P n R 9.9.R Q B n $+, f+/                       ",
"            w T.M.g+g o R 9.9.m.7+7+7+7+m.9.Q n B Q Q R Q Q m P i 6.:.e.1.                      ",
"                M q.h++.A p p k n B R m.m.9.R m u.k k u.o H f d.> 3+~ @ %                       ",
"                  ( 2.w.@.@+i+r E 5 ` C u.k F.f 1 6.o.D h 1 8 9 #+P.h.                          ",
"                    . x.B.= }.u ~.) j+e &.I /.=.> s r O 5.|.) c 1.%                             ",
"                        & * * x./ _ |+k+e.! N *+*+L.p.p.W.{ T.w                                 ",
"                                        % . M & [.$ & h.M %                                     "};
