/* XPM */
static char * sequence_xpm[] = {
"48 48 683 2",
"  	c None",
". 	c #E9E6E6",
"+ 	c #E5E1E1",
"@ 	c #E4E0E0",
"# 	c #E1DCDC",
"$ 	c #E2DDDD",
"% 	c #E1DDDD",
"& 	c #E3DEDE",
"* 	c #E6E2E2",
"= 	c #E0DBDB",
"- 	c #E0DADA",
"; 	c #DFDADA",
"> 	c #E2DEDE",
", 	c #DED8D8",
"' 	c #E1DBDB",
") 	c #E9E5E5",
"! 	c #EBE8E8",
"~ 	c #EDE9E9",
"{ 	c #F1EFEF",
"] 	c #F3F1F1",
"^ 	c #F6F4F4",
"/ 	c #F5F3F3",
"( 	c #F0EDED",
"_ 	c #ECE9E9",
": 	c #EDEAEA",
"< 	c #EEEBEB",
"[ 	c #DDD7D7",
"} 	c #DFD9D9",
"| 	c #E7E3E3",
"1 	c #E0DFDB",
"2 	c #AACDA7",
"3 	c #A2CD9F",
"4 	c #BFD6BC",
"5 	c #E4DFDF",
"6 	c #E3DFDF",
"7 	c #E2DCDC",
"8 	c #6FBC6D",
"9 	c #5EB65C",
"0 	c #9ACD98",
"a 	c #B9DCB8",
"b 	c #CCE3CB",
"c 	c #DCEDDB",
"d 	c #EFEEEE",
"e 	c #F2F0F0",
"f 	c #DED9D9",
"g 	c #DCD6D6",
"h 	c #D1D6CC",
"i 	c #68B865",
"j 	c #3DAB3B",
"k 	c #30A82F",
"l 	c #2EA82E",
"m 	c #37AA36",
"n 	c #3DAD3C",
"o 	c #3CAB3B",
"p 	c #3FAD3E",
"q 	c #42AE40",
"r 	c #44AF43",
"s 	c #4BB14A",
"t 	c #4AB149",
"u 	c #55B454",
"v 	c #42AF41",
"w 	c #44B043",
"x 	c #47B046",
"y 	c #3BAC3A",
"z 	c #18A118",
"A 	c #089C08",
"B 	c #0C9D0C",
"C 	c #17A217",
"D 	c #2BA92B",
"E 	c #3EB13E",
"F 	c #40B03F",
"G 	c #51B650",
"H 	c #87C785",
"I 	c #8DC98B",
"J 	c #A0D19E",
"K 	c #ACD6AB",
"L 	c #E0DCDC",
"M 	c #DDD8D8",
"N 	c #DFD8D8",
"O 	c #9BC698",
"P 	c #0F9E0F",
"Q 	c #41AC3F",
"R 	c #B6D2B3",
"S 	c #A8D3A6",
"T 	c #97CC95",
"U 	c #63BA62",
"V 	c #45AF43",
"W 	c #3DAC3C",
"X 	c #3EAB3D",
"Y 	c #36A935",
"Z 	c #38AA37",
"` 	c #50B24E",
" .	c #5DB65B",
"..	c #5DB85C",
"+.	c #51B550",
"@.	c #63BE63",
"#.	c #8BCE8A",
"$.	c #AADAA9",
"%.	c #9FD59E",
"&.	c #85CB84",
"*.	c #40B240",
"=.	c #5ABC59",
"-.	c #48B648",
";.	c #38AE38",
">.	c #44B343",
",.	c #60BC5F",
"'.	c #65BB64",
").	c #33AA32",
"!.	c #5DB95C",
"~.	c #F0EEEE",
"{.	c #EAE7E7",
"].	c #E2DFDF",
"^.	c #E3DDDD",
"/.	c #DED7D7",
"(.	c #DCD7D7",
"_.	c #80BD7D",
":.	c #F8F7F7",
"<.	c #F9F8F8",
"[.	c #FCFCFC",
"}.	c #FAF9F9",
"|.	c #FAF8F8",
"1.	c #FBFAFA",
"2.	c #FBFBFB",
"3.	c #FEFEFE",
"4.	c #FFFFFF",
"5.	c #FCFBFB",
"6.	c #FDFDFD",
"7.	c #EFF2EE",
"8.	c #CCE0CA",
"9.	c #3CAE3B",
"0.	c #64BF64",
"a.	c #ECE8E8",
"b.	c #ECEAEA",
"c.	c #E6E1E1",
"d.	c #DCD5D5",
"e.	c #DBD5D5",
"f.	c #6BB668",
"g.	c #079B07",
"h.	c #45B245",
"i.	c #FEFDFD",
"j.	c #FDFCFC",
"k.	c #F7F5F5",
"l.	c #CDDECA",
"m.	c #24A524",
"n.	c #67BD66",
"o.	c #EBE7E7",
"p.	c #F1EDED",
"q.	c #E6E3E3",
"r.	c #E8E3E3",
"s.	c #64B561",
"t.	c #059A05",
"u.	c #48B348",
"v.	c #D8EBD7",
"w.	c #1BA31A",
"x.	c #65BB63",
"y.	c #EFEDED",
"z.	c #F4F3F3",
"A.	c #F2EFEF",
"B.	c #EDEBEB",
"C.	c #65B663",
"D.	c #0A9C0A",
"E.	c #5ABC5A",
"F.	c #D9D9E5",
"G.	c #7B7BA7",
"H.	c #6E6E9E",
"I.	c #ABABC7",
"J.	c #B7B6CE",
"K.	c #B7B7CF",
"L.	c #6F6F9F",
"M.	c #E7E7EF",
"N.	c #9F9FBF",
"O.	c #D1EBD1",
"P.	c #18A218",
"Q.	c #75C073",
"R.	c #E7E4E4",
"S.	c #E8E4E4",
"T.	c #E8E5E5",
"U.	c #E7E2E2",
"V.	c #E5E0E0",
"W.	c #E0DDDD",
"X.	c #6FBA6D",
"Y.	c #15A115",
"Z.	c #67C066",
"`.	c #7979A5",
" +	c #9C9CBC",
".+	c #F0EFF3",
"++	c #404080",
"@+	c #8D8DB3",
"#+	c #E6E6EE",
"$+	c #DBDBE7",
"%+	c #8787AF",
"&+	c #8686AE",
"*+	c #8181AB",
"=+	c #4B4B87",
"-+	c #DADAE6",
";+	c #FFFEFE",
">+	c #D4EBD3",
",+	c #3BB03B",
"'+	c #84C883",
")+	c #5AB558",
"!+	c #11A011",
"~+	c #A0D49F",
"{+	c #6E6D9D",
"]+	c #B5B5CD",
"^+	c #57578F",
"/+	c #9999BB",
"(+	c #9E9EBE",
"_+	c #C5C5D8",
":+	c #D0E9D0",
"<+	c #3AAE39",
"[+	c #84C783",
"}+	c #DBD6D6",
"|+	c #30A72F",
"1+	c #119E11",
"2+	c #B8DDB7",
"3+	c #B3B3CB",
"4+	c #636397",
"5+	c #C4C4D7",
"6+	c #C8E6C8",
"7+	c #39AF39",
"8+	c #DDD6D6",
"9+	c #2AA429",
"0+	c #17A117",
"a+	c #BEE2BE",
"b+	c #CECEDE",
"c+	c #E7E6EE",
"d+	c #CFCFDF",
"e+	c #F3F3F7",
"f+	c #E6E5ED",
"g+	c #F2F1F5",
"h+	c #6BC36B",
"i+	c #3BAF3B",
"j+	c #F6F5F5",
"k+	c #F3F2F2",
"l+	c #47AE45",
"m+	c #31A930",
"n+	c #CBE4CA",
"o+	c #6AC36A",
"p+	c #4DB64C",
"q+	c #F7F6F6",
"r+	c #68B666",
"s+	c #4BAF49",
"t+	c #DEE7DB",
"u+	c #72C271",
"v+	c #79C478",
"w+	c #DCD8D8",
"x+	c #78BB75",
"y+	c #6BB969",
"z+	c #DEE7DC",
"A+	c #FAFAFA",
"B+	c #A2D3A1",
"C+	c #B1D6AF",
"D+	c #E4E1E1",
"E+	c #A5C9A2",
"F+	c #68B765",
"G+	c #D0DECD",
"H+	c #F6F5F4",
"I+	c #F7F7F6",
"J+	c #CFEACF",
"K+	c #9FD69F",
"L+	c #C2E4C1",
"M+	c #CAE6C9",
"N+	c #D1EAD0",
"O+	c #CAE7C9",
"P+	c #B6DFB5",
"Q+	c #E1EBDF",
"R+	c #E0E1DC",
"S+	c #92CC90",
"T+	c #ADD0AA",
"U+	c #C3CFBD",
"V+	c #4AAF48",
"W+	c #1BA01A",
"X+	c #129F12",
"Y+	c #14A114",
"Z+	c #129E11",
"`+	c #12A012",
" @	c #0F9F0F",
".@	c #139F13",
"+@	c #1FA41E",
"@@	c #25A625",
"#@	c #2DAA2D",
"$@	c #27A727",
"%@	c #1FA51F",
"&@	c #2EAA2E",
"*@	c #20A51F",
"=@	c #1BA21A",
"-@	c #1DA41D",
";@	c #30A92F",
">@	c #38AC37",
",@	c #5CBB5B",
"'@	c #58B958",
")@	c #4DB54C",
"!@	c #49B148",
"~@	c #69B866",
"{@	c #5FB65D",
"]@	c #AFCCAA",
"^@	c #DFDBDB",
"/@	c #DEDADA",
"(@	c #D7D5D2",
"_@	c #A7C9A2",
":@	c #5FB45D",
"<@	c #34A732",
"[@	c #31A72F",
"}@	c #24A323",
"|@	c #22A221",
"1@	c #20A31F",
"2@	c #15A015",
"3@	c #129E12",
"4@	c #1EA11D",
"5@	c #189F17",
"6@	c #169F15",
"7@	c #1AA019",
"8@	c #19A119",
"9@	c #139E13",
"0@	c #149F14",
"a@	c #21A320",
"b@	c #1DA31D",
"c@	c #23A322",
"d@	c #7ABC77",
"e@	c #A5C8A1",
"f@	c #D6D5D0",
"g@	c #D7D4D2",
"h@	c #C5D1C0",
"i@	c #B3CBAE",
"j@	c #95C191",
"k@	c #2FA62E",
"l@	c #43AB41",
"m@	c #37A835",
"n@	c #35A834",
"o@	c #41AB3F",
"p@	c #54B252",
"q@	c #75BB72",
"r@	c #8CC188",
"s@	c #8BC388",
"t@	c #96C693",
"u@	c #A5CAA2",
"v@	c #B6D0B3",
"w@	c #D8D7D2",
"x@	c #BBCDB7",
"y@	c #199F18",
"z@	c #75BA72",
"A@	c #BDCEB7",
"B@	c #23A222",
"C@	c #6DB76B",
"D@	c #E0D9D9",
"E@	c #DBD4D4",
"F@	c #DAD5D5",
"G@	c #C0CDBA",
"H@	c #2BA52A",
"I@	c #63B461",
"J@	c #DDD9D9",
"K@	c #DAD4D4",
"L@	c #A2B7E0",
"M@	c #93B1E4",
"N@	c #8BACE4",
"O@	c #BDCDB7",
"P@	c #1CA11C",
"Q@	c #55B053",
"R@	c #D4D2CD",
"S@	c #D9D5D4",
"T@	c #D9D4D3",
"U@	c #D2D7E3",
"V@	c #C1CDE4",
"W@	c #BDCBE3",
"X@	c #BDCAE2",
"Y@	c #BDC8E0",
"Z@	c #BBC6DF",
"`@	c #B8C4DE",
" #	c #BAC5DE",
".#	c #BBC6DE",
"+#	c #BBC6DD",
"@#	c #BEC5DB",
"##	c #BBC5DC",
"$#	c #B8C3DB",
"%#	c #BBC4DB",
"&#	c #BCC5DB",
"*#	c #BFC7DB",
"=#	c #CACDD9",
"-#	c #AABDE0",
";#	c #3582F5",
">#	c #1771FB",
",#	c #1872FA",
"'#	c #327FF6",
")#	c #9FB7E1",
"!#	c #C1CEBB",
"~#	c #3EAA3C",
"{#	c #70B76D",
"]#	c #27A426",
"^#	c #4DAF4B",
"/#	c #8AC287",
"(#	c #B0CCF5",
"_#	c #5898FA",
":#	c #468EFA",
"<#	c #498EF8",
"[#	c #4088F7",
"}#	c #3382F9",
"|#	c #3281F8",
"1#	c #3380F7",
"2#	c #3985F7",
"3#	c #3F88F6",
"4#	c #5190F2",
"5#	c #468BF5",
"6#	c #3481F6",
"7#	c #3A85F6",
"8#	c #3782F5",
"9#	c #3884F6",
"0#	c #488BF3",
"a#	c #649AEE",
"b#	c #8CAFE8",
"c#	c #84ABEA",
"d#	c #277AF9",
"e#	c #2378F9",
"f#	c #1B74FB",
"g#	c #0669FE",
"h#	c #3783F6",
"i#	c #7FACCC",
"j#	c #40AC3F",
"k#	c #39A937",
"l#	c #32A931",
"m#	c #27A626",
"n#	c #2BA72A",
"o#	c #2DA92C",
"p#	c #2AA92A",
"q#	c #31AA30",
"r#	c #1AA119",
"s#	c #119F11",
"t#	c #72BB70",
"u#	c #BDCDEA",
"v#	c #B8CAEA",
"w#	c #ADC3E8",
"x#	c #A4BCE6",
"y#	c #A5BDE5",
"z#	c #9FB9E5",
"A#	c #9DB9E6",
"B#	c #A3BCE6",
"C#	c #B0C2E3",
"D#	c #ADC0E3",
"E#	c #A7BDE3",
"F#	c #A3BAE2",
"G#	c #9CB7E5",
"H#	c #9BB6E4",
"I#	c #A1B9E3",
"J#	c #A2B9E1",
"K#	c #9AB6E5",
"L#	c #95B4E5",
"M#	c #3B84F5",
"N#	c #1D75FA",
"O#	c #126FFC",
"P#	c #2E7EF7",
"Q#	c #9CBACB",
"R#	c #29A528",
"S#	c #51B24F",
"T#	c #68C168",
"U#	c #78C778",
"V#	c #B4DEB3",
"W#	c #C9E5C8",
"X#	c #E4EDE2",
"Y#	c #E1DEDE",
"Z#	c #D6D3D8",
"`#	c #699CEB",
" $	c #7EA6E7",
".$	c #3983F5",
"+$	c #297BF7",
"@$	c #6B9CEB",
"#$	c #A6C7A1",
"$$	c #A2CB9E",
"%$	c #EAE6E6",
"&$	c #AAD8A9",
"*$	c #0A9D0A",
"=$	c #53B351",
"-$	c #E4DEDE",
";$	c #5A94EF",
">$	c #3C85F5",
",$	c #488AF2",
"'$	c #C1C9DC",
")$	c #D4D3D9",
"!$	c #A1C69D",
"~$	c #2EA92D",
"{$	c #AADBA9",
"]$	c #A8D9A7",
"^$	c #0E9E0E",
"/$	c #6FBB6C",
"($	c #DFDCE0",
"_$	c #98B6E8",
":$	c #B0D0AC",
"<$	c #26A826",
"[$	c #A3DAA3",
"}$	c #A6D9A6",
"|$	c #8CC689",
"1$	c #A2CB9F",
"2$	c #25A725",
"3$	c #9DD79D",
"4$	c #A2D6A1",
"5$	c #28A727",
"6$	c #A7CCA4",
"7$	c #E9E4E4",
"8$	c #EEEAEA",
"9$	c #91C58E",
"0$	c #2BA82A",
"a$	c #A7DCA7",
"b$	c #9FD39E",
"c$	c #35A934",
"d$	c #EBE9E9",
"e$	c #43B343",
"f$	c #ACDDAC",
"g$	c #ACD8AB",
"h$	c #47AF45",
"i$	c #EAE5E5",
"j$	c #EEECEC",
"k$	c #32AB31",
"l$	c #A7DBA7",
"m$	c #9ECF9C",
"n$	c #E3E0E0",
"o$	c #8CC189",
"p$	c #37AE37",
"q$	c #98CC96",
"r$	c #3EAC3D",
"s$	c #EFECEC",
"t$	c #83C280",
"u$	c #33AC33",
"v$	c #B3DFB2",
"w$	c #96CC94",
"x$	c #F1EEEE",
"y$	c #81BE7E",
"z$	c #4DB34C",
"A$	c #D0E7CE",
"B$	c #98C995",
"C$	c #44AC42",
"D$	c #F5F4F4",
"E$	c #8EC08A",
"F$	c #79BD75",
"G$	c #F4F2F2",
"H$	c #A6CCA3",
"I$	c #63B761",
"J$	c #F3F0F0",
"K$	c #CCD0DF",
"L$	c #DCDBDE",
"M$	c #77BC75",
"N$	c #1DA11C",
"O$	c #BDE0BC",
"P$	c #C4D7C1",
"Q$	c #97C894",
"R$	c #CBCFDD",
"S$	c #679CED",
"T$	c #3784F6",
"U$	c #4087F4",
"V$	c #B9C6E1",
"W$	c #64B963",
"X$	c #19A118",
"Y$	c #BBE1BA",
"Z$	c #CADFC8",
"`$	c #92CA90",
" %	c #E1E6F1",
".%	c #9BB8EA",
"+%	c #2C7DF7",
"@%	c #086AFE",
"#%	c #0569FE",
"$%	c #0969FD",
"%%	c #4086F4",
"&%	c #6EB96B",
"*%	c #24A424",
"=%	c #AFDAAE",
"-%	c #CADDC7",
";%	c #85C984",
">%	c #D8DCE7",
",%	c #5393F6",
"'%	c #3B86F7",
")%	c #1672FC",
"!%	c #1973FB",
"~%	c #0C6CFD",
"{%	c #3E87F5",
"]%	c #CDD1DE",
"^%	c #CCCFDC",
"/%	c #CBCEDB",
"(%	c #CCD0DC",
"_%	c #CACFDD",
":%	c #CBCFDC",
"<%	c #CCD0DD",
"[%	c #CCD1DE",
"}%	c #CFD3E0",
"|%	c #D8DBE6",
"1%	c #DCDDE5",
"2%	c #DEDEE3",
"3%	c #E3E3E8",
"4%	c #DBDBE1",
"5%	c #D5D5DB",
"6%	c #D9D6DB",
"7%	c #8DBF8D",
"8%	c #36A834",
"9%	c #49B549",
"0%	c #4FB74F",
"a%	c #5DBA5C",
"b%	c #53B452",
"c%	c #56B454",
"d%	c #88C285",
"e%	c #84C282",
"f%	c #81C27F",
"g%	c #EBE6E6",
"h%	c #E5E2E2",
"i%	c #CCD2E1",
"j%	c #5894F2",
"k%	c #0F6DFC",
"l%	c #0B6CFD",
"m%	c #0B6BFD",
"n%	c #0267FE",
"o%	c #0469FE",
"p%	c #116FFD",
"q%	c #3582F6",
"r%	c #3C85F4",
"s%	c #498CF2",
"t%	c #5893F0",
"u%	c #4389F3",
"v%	c #4289F4",
"w%	c #458AF2",
"x%	c #5491F0",
"y%	c #6B9FEE",
"z%	c #8BAFEB",
"A%	c #A7BEE8",
"B%	c #81AAED",
"C%	c #78A5ED",
"D%	c #8EB1EA",
"E%	c #9FBFCA",
"F%	c #1DA120",
"G%	c #28A728",
"H%	c #46B045",
"I%	c #45AD43",
"J%	c #83BE7F",
"K%	c #B1CCAD",
"L%	c #C8D5C4",
"M%	c #5391F2",
"N%	c #2278FA",
"O%	c #0A6AFD",
"P%	c #458BF4",
"Q%	c #97B5E7",
"R%	c #92B1E6",
"S%	c #8FB2E9",
"T%	c #9BB6E5",
"U%	c #A8BCE1",
"V%	c #A3B9E1",
"W%	c #A0B8E3",
"X%	c #99B4E3",
"Y%	c #93B1E5",
"Z%	c #9AB4E2",
"`%	c #A4BBE2",
" &	c #B0C1E0",
".&	c #C6CEE0",
"+&	c #CDD2E0",
"@&	c #C6CEE1",
"#&	c #C7D0E3",
"$&	c #CBD1E1",
"%&	c #D1D4D8",
"&&	c #84BF82",
"*&	c #86C083",
"=&	c #94C390",
"-&	c #A1C59B",
";&	c #CAD2C6",
">&	c #6199F0",
",&	c #2378FA",
"'&	c #5E99F2",
")&	c #689BEF",
"!&	c #BDCAE4",
"~&	c #25A424",
"{&	c #CED4C9",
"]&	c #D5D4D9",
"^&	c #6C9DEB",
"/&	c #6299EE",
"(&	c #74A3EA",
"_&	c #A9BEE3",
":&	c #D6D6DE",
"<&	c #5AB358",
"[&	c #CED3C9",
"}&	c #CDCFD9",
"|&	c #C2CADD",
"1&	c #D9D7DB",
"2&	c #6DB96A",
"3&	c #3CAC3B",
"4&	c #D5D9D0",
"5&	c #54B352",
"6&	c #41AE40",
"7&	c #D4D9CF",
"8&	c #4EAF4C",
"9&	c #51AF4F",
"0&	c #D4D6CE",
". + @ # # $ $ % & % $ + * * @ = - ; = ; > & - , % + * > $ = ; ' & $ ) ! ! ~ { ] ^ / ( ) ! _ : < ",
") @ $ = ; > @ > # # [ } [ = $ & | ! 1 2 3 4 5 = = > 6 6 > $ 7 # & @ * 8 9 0 a b c / d _ : { e e ",
"_ * # = # # $ $ = f [ g [ f , [ , h i j k l m n o p q r s t u v w x y z A B C D E F G H I J K e ",
": + # ' ; ; L # # - [ M , } N } ; O P Q R S T U V W X Y Z `  ...+.@.#.$.%.&.*.=.-.;.>.,.'.).!.~.",
"e {.' = ; - ].% $ # > & ^.f [ /.(._.B x : :.<.:.[.[.}.|.<.<.1.[.2.3.3.4.3.5.5.6.6.5.5.7.8.9.0.}.",
"a.b.c.* | * c.6 # ' f L > = , d.e.f.g.h.^ 1.2.[.i.3.3.3.i.i.i.3.3.3.3.3.3.3.3.3.6.j.[.k.l.m.n.:.",
"o._ _ p.( o.q.r.+ & = ; ; ; , } } s.t.u.1.3.3.6.3.3.3.3.3.3.3.4.4.4.4.4.4.4.3.4.4.3.3.5.v.w.x.] ",
"o.y.] k.z.A.B.. * 6 # ; ; ; M , } C.D.E.5.[.6.F.G.H.I.J.K.3.3.L.4.4.4.4.4.4.M.N.4.4.4.3.O.P.Q.a.",
"' > + * R.S.. T.S.U.V.$ # ^.; ; W.X.Y.Z.1.5.6.`. +.+++@+L.G.#+L.$+G.N.M.%+&+*+=+-+4.;+3.>+,+'+< ",
"= = = # % = [ (.} ; f f - - = % ^.)+!+~+}.j.i.{+]+6.^+%+G.N.N.++%+G.=+/+(+F._+H.3.3.3.j.:+<+[+) ",
"# # = $ ; f , g g g (.g }+g }+(.[ |+1+2+}.[.6.3+^+&+4+N.^+L.K.++I.L.G._+H.^+5+^+#+3.6.[.6+7+~.! ",
"= # ' $ = $ > = = f [ 8+[ g (.g (.9+0+a+}.2.j.}.#+b+3.c+-+-+d+++4.$+e+3.f+.+6.b+g+6.3.j.h+i+j+k+",
"$ # = - , } , } % - } f ; ; f } ; l+m+n+}.2.[.[.3.3.3.4.3.4.-+$+4.4.4.;+6.j.3.;+3.3.3.j.o+p+q+e ",
"$ = = f (.g g M g g g [ [ [ [ ; M r+s+t+}.5.1.1.j.3.3.3.3.3.3.3.4.4.4.3.6.j.3.3.4.3.j.] u+v+. + ",
"5 $ ' } } w+, , f f , f N - # = M x+y+z+1.5.<.<.}.A+2.2.5.6.6.6.3.6.i.6.5.5.j.3.3.6.}.( B+C+( { ",
") D+7 = > % # - , [ g }+[ g [ f , E+F+G+/ }.}.A+1.A+1.<./ H+I+}.5.6.j.J+K+L+M+N+O+P+Q+R+S+T+. < ",
"_ R.5 > # # ^.5 @ = } [ [ (.}+M f U+V+W+X+Y+Z+`+ @ @.@+@@@#@$@%@&@*@=@-@m.;@>@,@'@)@!@~@{@]@# T.",
"5 6 - - - ^@- ^@# 7 /@(.g g g e.g (@_@:@X <@[@}@|@1@2@3@2@4@5@6@7@8@3@9@0@a@b@X+P 6@c@d@e@f@- S.",
"# ' = ; M } ^@L # # f (.(.[ g }+g g g@}+[ [ g g g (.M h@i@j@6@k@l@m@n@o@p@q@r@s@t@u@v@f w@L + b.",
"/@[ N , , f = = } - } [ M (.}+[ g (.(.(.[ [ [ [ (.M , w+/.x@y@z@g w+}+g M [ , ; ; ; ^@= ^@' & S.",
"; f f = L = } M [ , , g (.}+g g }+e.e.g g [ (.[ (.g }+}+}+A@B@C@d.}+}+g }+(.(.M , f D@, } } = 6 ",
"= f f M } , M g e.g e.d.e.E@d.e.e.E@E@e.e.d.g }+e.g d.F@g G@H@I@d.e.d.[ g [ [ [ , ; [ M J@f # + ",
"= f [ M [ (.[ (.g e.E@g }+g e.g K@(.} 8+(.L@M@N@g g g }+g O@P@Q@R@S@T@e.E@d.g M ; } f M /., = * ",
"c.U@V@W@X@Y@Z@`@ #.#+#@###$#%###&#*#=#(.-#;#>#,#'#)#(.(.d.!#~#{#Z ]#n@^#/#g [ , /@; } , M f f $ ",
"y.(#_#:#<#[#}#|#1#2#3#4#5#6#7#8#9#0#a#b#c#d#e#f#g#h#i#j#k#l#m#n#o#p#q#r#s#t#f = ; % ' f M f ^@% ",
". _ _ u#v#w#x#y#z#A#B#C#D#E#F#G#H#I#J#K#L#M#e#N#O#P#Q#R#~#S#T#U#V#W#X#S+A v Y#$ = # = ; ; = # V.",
"U.7 5 = ; f ; f M M M (.g g (.(.g (.[ (.Z#`# $.$+$@$#$]#$$%$}.1.5.[.1.&$*$=$# ' L - # # $ 6 > @ ",
"-$% 5 $ % 7 = = ^@f [ /.g g g 8+g (.[ [ [ ;$>$,$'$)$!$~${$3.3.3.3.i.i.]$^$/$f f = $ ^.> V.> $ 5 ",
"^.# - f # $ # > % = ; # L # > = # $ ^.; $ ($_$6 6 $ :$<$[$4.4.4.4.i.6.}$2@|$* | %$b.y.( ~ | * ) ",
"+ # - } $ & & % # - f f f /@= } f ; ; M = ' = /@} f 1$2$3$4.4.;+6.5.<.4$5$6$V.U.7$%$~ < < : a.8$",
"S.$ = ; = - # $ # M [ e.8+[ g g g d.g M [ [ ; ; [ [ 9$0$a$4.4.4.[.}.:.b$c$(.(.(.M , f } , = @ o.",
"d$+ $ = - - 7 # = M g (.(.g }+g g g e.; } , # % M M 6$e$f$;+4.4.6.5.<.g$h$g [ [ M , } ; ' ' i$~ ",
"j$r.* D+V.@ + > $ , f f [ g }+d.e.e.e.g f M 8+[ - # O k$l$;+4.4.6.[.<.m$m@g , } # = - ; - $ %$:.",
"~.~ S.n$@ > | | @ # = - } , [ [ [ 8+, 8+N M (.g [ } o$p$f$3.3.3.[.1.j+q$r$; # % > $ # - = + b.<.",
"] s$S.# $ $ = # & # = ' # ; } = = = & $ & $ $ % # # t$u$v$3.4.3.2.}.q+w$m $ & $ # # ' = % 5 . j+",
"x$~.| = } # % # - f , } ; [ g [ 8+g (.g [ [ [ (.[ M y$z$A$:.j.[.}.|.^ B$C$# $ # ; = ; > 6 c.%$D$",
"! %$c.' ; f ; = /@} , (.[ [ }+g g d.g }+(.M (.}+g /.E$F$] G$1.2.}.5.z.H$I$5 5 V.U.* + S.%$: ( k.",
"J$x$. ^.- } ' K$L$' = f f [ (.[ g M N g J@= f J@f - M$N$O$1.6.6.1.2.G$P$Q$%$: y.x$G$A.{ x$( G$}.",
"j.[.A.& R$S$T$U$V$# ; M , g M M g [ N M f ^@; ; = > W$X$Y$5.i.[.5.2.D$Z$`$s$] ^ D$( %$. | | . < ",
"2.|. %.%+%@%#%$%%%' = /.g [ , , [ [ , ; - = # , [ [ &%*%=%1.1.j+< B.%$-%;%] ^ :./ ( _ ( ] ] ] ^ ",
"! >%,%'%)%)%!%~%{%]%^%/%/%(%_%:%<%[%}%|%1%2%3%4%5%6%7%8%i+9%0%a%b%c%d%e%f%) : ( B._ g%_ { ] q+}.",
"h%i%j%k%l%m%n%o%p%q%q%r%s%t%u%u%v%r%w%x%y%z%A%B%C%D%E%F%.@X$G%H%I%C$J%K%L%' & + + 6 & @ S.! J$}.",
"* = # M%N%>#O%N#P%Q%R%S%T%U%V%W%X%Y%Z%`% &.&+&@&#&$&%&&&*&=&-&H@;&e.g (., , ; # # # ; - # V.( A+",
"& ; # = >&2#,&'&)&!&# /@[ 8+[ M [ f , M N ; # 7 /@@ %$@ 5 + t#~&{&} , [ g , = # $ # ; ; $ > ~.[.",
"6 ; - , ]&^&/&(&_&:&# } L } M , , , J@(.[ [ [ , [ - > # = - <&]#[&, , g [ , ; # # > % = = $ o.:.",
"V.= - , [ 8+}&|&1&; , [ M [ M , ; = $ ^@= = & $ # $ 6 + V.$ 2&3&4&& & # > = # 6 # & $ } % @ {.j+",
"| $ # , [ g g f 5 c.L = (.(.M } = $ = # $ @ + * @ c.+ . ) 6 5&6&7&# # ' % ' $ > # L # # $ @ T.j+",
"s$@ ' } f f g , 5 6 % - , (.g (.} } } f [ = 5 + ' } L @ $ ; 8&9&0&f M [ $ > 6 $ & $ $ 5 | @ {.G$"};
