/* XPM */
static char * specrelation_xpm[] = {
"48 48 506 2",
"  	c None",
". 	c #FFFFFF",
"+ 	c #FEFFFF",
"@ 	c #EDF4FF",
"# 	c #D4E5FF",
"$ 	c #D9E8FF",
"% 	c #ECF4FF",
"& 	c #FCFDFF",
"* 	c #FEFEFF",
"= 	c #DBEAFF",
"- 	c #3C8AFF",
"; 	c #1D77FF",
"> 	c #237BFF",
", 	c #448FFF",
"' 	c #97C1FF",
") 	c #C5DCFF",
"! 	c #CEE2FF",
"~ 	c #D5E6FF",
"{ 	c #DDEBFF",
"] 	c #F2F7FF",
"^ 	c #F8FBFF",
"/ 	c #F9FBFF",
"( 	c #FDFEFF",
"_ 	c #B2D1FF",
": 	c #3E8BFF",
"< 	c #0367FF",
"[ 	c #0166FF",
"} 	c #0267FF",
"| 	c #0569FF",
"1 	c #0D6EFF",
"2 	c #1271FF",
"3 	c #1774FF",
"4 	c #2F82FF",
"5 	c #4D95FF",
"6 	c #569AFF",
"7 	c #579AFF",
"8 	c #86B7FF",
"9 	c #90BDFF",
"0 	c #B6D3FF",
"a 	c #FAFCFF",
"b 	c #217AFF",
"c 	c #0066FF",
"d 	c #0167FF",
"e 	c #0469FF",
"f 	c #1A75FF",
"g 	c #2A7FFF",
"h 	c #60A0FF",
"i 	c #75ACFF",
"j 	c #67A4FF",
"k 	c #B7D4FF",
"l 	c #F3F8FF",
"m 	c #83B5FF",
"n 	c #88B8FF",
"o 	c #EFF5FF",
"p 	c #E0ECFF",
"q 	c #EBF3FF",
"r 	c #EAF2FF",
"s 	c #0F6FFF",
"t 	c #0065FF",
"u 	c #9EC5FF",
"v 	c #3F8CFF",
"w 	c #1572FF",
"x 	c #A5C9FF",
"y 	c #E0EDFF",
"z 	c #267DFF",
"A 	c #0368FF",
"B 	c #086BFF",
"C 	c #1673FF",
"D 	c #3E8CFF",
"E 	c #E1EDFF",
"F 	c #C1D9FF",
"G 	c #70A9FF",
"H 	c #65A3FF",
"I 	c #5599FF",
"J 	c #3888FF",
"K 	c #1473FF",
"L 	c #0468FF",
"M 	c #61A0FF",
"N 	c #F8FAFF",
"O 	c #F5F9FF",
"P 	c #E2EEFF",
"Q 	c #277DFF",
"R 	c #87B7FF",
"S 	c #E5F0FF",
"T 	c #458FFF",
"U 	c #096CFF",
"V 	c #599BFF",
"W 	c #D3E4FF",
"X 	c #F0F6FF",
"Y 	c #CCE0FF",
"Z 	c #89B8FF",
"` 	c #3385FF",
" .	c #0E6FFF",
"..	c #2E82FF",
"+.	c #9DC5FF",
"@.	c #DEEBFF",
"#.	c #93BEFF",
"$.	c #1E79FF",
"%.	c #1F79FF",
"&.	c #F4F8FF",
"*.	c #BCD7FF",
"=.	c #7CB1FF",
"-.	c #0066FD",
";.	c #0669FF",
">.	c #066AFF",
",.	c #0266FF",
"'.	c #297FFF",
").	c #C6DCFF",
"!.	c #FBFDFF",
"~.	c #F7FAFF",
"{.	c #98C2FF",
"].	c #5D9DFF",
"^.	c #1B76FF",
"/.	c #0A6DFF",
"(.	c #0268FF",
"_.	c #325BBD",
":.	c #0A8162",
"<.	c #62A32C",
"[.	c #BFBB13",
"}.	c #63A053",
"|.	c #6FA26F",
"1.	c #4E8BD1",
"2.	c #CBE0FF",
"3.	c #DFECFF",
"4.	c #90BCFF",
"5.	c #6EA8FF",
"6.	c #4E94FF",
"7.	c #287EFF",
"8.	c #0A6CFF",
"9.	c #016AE9",
"0.	c #A82E88",
"a.	c #288028",
"b.	c #02980C",
"c.	c #05980E",
"d.	c #10992F",
"e.	c #108D71",
"f.	c #5F8CA1",
"g.	c #2F83FF",
"h.	c #C1DAFF",
"i.	c #6DA7FF",
"j.	c #3787FF",
"k.	c #247CFF",
"l.	c #4598D4",
"m.	c #B03474",
"n.	c #168F12",
"o.	c #039A06",
"p.	c #049811",
"q.	c #008F2F",
"r.	c #639E49",
"s.	c #5E8BA1",
"t.	c #428EFF",
"u.	c #CFE3FF",
"v.	c #1A76FF",
"w.	c #247BFF",
"x.	c #4B93FF",
"y.	c #CFE2FF",
"z.	c #8AC4C6",
"A.	c #9E3D67",
"B.	c #009903",
"C.	c #009904",
"D.	c #00970B",
"E.	c #00902D",
"F.	c #AAB32A",
"G.	c #608D9F",
"H.	c #5FA0FF",
"I.	c #E2EDFF",
"J.	c #1573FF",
"K.	c #5B9CFF",
"L.	c #ACCDFF",
"M.	c #D5E5FF",
"N.	c #3A89FF",
"O.	c #097AB4",
"P.	c #953E61",
"Q.	c #009803",
"R.	c #008F32",
"S.	c #ABB12B",
"T.	c #2072DF",
"U.	c #B4D2FF",
"V.	c #2D81FF",
"W.	c #7EB1FF",
"X.	c #BDD8FF",
"Y.	c #F7FBFF",
"Z.	c #5498FF",
"`.	c #0179A9",
" +	c #91405E",
".+	c #009807",
"++	c #009419",
"@+	c #008F3B",
"#+	c #AAB12E",
"$+	c #076BFF",
"%+	c #C4DCFF",
"&+	c #68A4FF",
"*+	c #1070FF",
"=+	c #4790FF",
"-+	c #C9DFFF",
";+	c #FBFCFF",
">+	c #5C4DA4",
",+	c #8D435D",
"'+	c #009806",
")+	c #01902C",
"!+	c #028E42",
"~+	c #BBBA2C",
"{+	c #A0C6FF",
"]+	c #3184FF",
"^+	c #3083FF",
"/+	c #CADFFF",
"(+	c #EFF6FF",
"_+	c #2E81FF",
":+	c #7541A2",
"<+	c #874659",
"[+	c #009804",
"}+	c #019905",
"|+	c #0A981F",
"1+	c #2FA93B",
"2+	c #D6CE31",
"3+	c #7AAFFF",
"4+	c #257CFF",
"5+	c #4691FF",
"6+	c #B9D5FF",
"7+	c #7FB3FE",
"8+	c #764399",
"9+	c #874756",
"0+	c #029905",
"a+	c #039A04",
"b+	c #20A421",
"c+	c #48B648",
"d+	c #C8DE93",
"e+	c #D0ECD0",
"f+	c #A6DBA6",
"g+	c #90D390",
"h+	c #85CE85",
"i+	c #7DCB7D",
"j+	c #77C977",
"k+	c #82CD82",
"l+	c #87CF87",
"m+	c #B6E1B6",
"n+	c #E0F3E0",
"o+	c #FDFEFD",
"p+	c #C6DDFF",
"q+	c #8DBBFC",
"r+	c #79478A",
"s+	c #884854",
"t+	c #059B05",
"u+	c #049A04",
"v+	c #21A521",
"w+	c #2EAC2E",
"x+	c #43B443",
"y+	c #40B340",
"z+	c #33AD33",
"A+	c #34AD34",
"B+	c #2DAB2D",
"C+	c #2BAA2B",
"D+	c #2BAB2B",
"E+	c #31AD31",
"F+	c #37B037",
"G+	c #3FB23F",
"H+	c #47B647",
"I+	c #9FD37F",
"J+	c #E2ECBD",
"K+	c #C6DFFC",
"L+	c #965990",
"M+	c #8C4856",
"N+	c #0D9D0D",
"O+	c #079B07",
"P+	c #19A319",
"Q+	c #1BA41B",
"R+	c #23A723",
"S+	c #29AA29",
"T+	c #1FA61F",
"U+	c #0E9F0E",
"V+	c #089C08",
"W+	c #0B9D0B",
"X+	c #14A114",
"Y+	c #4FB94A",
"Z+	c #D6C91B",
"`+	c #E1F2DE",
" @	c #FAFDFC",
".@	c #CF76A0",
"+@	c #6C7B4F",
"@@	c #22A722",
"#@	c #17A217",
"$@	c #2AAA2A",
"%@	c #20A620",
"&@	c #18A318",
"*@	c #15A115",
"=@	c #1AA41A",
"-@	c #1CA41C",
";@	c #12A012",
">@	c #0F9E0F",
",@	c #19A219",
"'@	c #45B545",
")@	c #60B632",
"!@	c #D5C816",
"~@	c #E0EAB7",
"{@	c #DC7BAD",
"]@	c #53B953",
"^@	c #33AE33",
"/@	c #25A725",
"(@	c #45B445",
"_@	c #3EB23E",
":@	c #22A622",
"<@	c #27A927",
"[@	c #25A925",
"}@	c #20A520",
"|@	c #1DA41D",
"1@	c #3AB03A",
"2@	c #3BB13B",
"3@	c #16A116",
"4@	c #0F9F0F",
"5@	c #38AF38",
"6@	c #DDCD26",
"7@	c #E57EB5",
"8@	c #49B749",
"9@	c #1DA51D",
"0@	c #129F12",
"a@	c #25A825",
"b@	c #2CAB2C",
"c@	c #18A218",
"d@	c #28A928",
"e@	c #62C062",
"f@	c #75C875",
"g@	c #42B442",
"h@	c #0D9E0D",
"i@	c #0A9D0A",
"j@	c #049B04",
"k@	c #0C9E0C",
"l@	c #35AE35",
"m@	c #8EBF31",
"n@	c #D7DC7E",
"o@	c #EDF8ED",
"p@	c #CF759F",
"q@	c #13A013",
"r@	c #30AD30",
"s@	c #49B642",
"t@	c #8BD18B",
"u@	c #C1E6C1",
"v@	c #CFEBCF",
"w@	c #D5EED5",
"x@	c #D9F0D9",
"y@	c #DDF1DD",
"z@	c #93D493",
"A@	c #069C06",
"B@	c #079D07",
"C@	c #12A112",
"D@	c #35AF35",
"E@	c #D3CD33",
"F@	c #F8FBF2",
"G@	c #C6D8C0",
"H@	c #B74378",
"I@	c #16A216",
"J@	c #0B9E0B",
"K@	c #10A010",
"L@	c #2DAA2D",
"M@	c #ECD959",
"N@	c #FDFFFD",
"O@	c #FCFEFC",
"P@	c #4EB94E",
"Q@	c #039A03",
"R@	c #029A02",
"S@	c #84BF3C",
"T@	c #F2ECAE",
"U@	c #B1C7A7",
"V@	c #C3327B",
"W@	c #11A011",
"X@	c #69C369",
"Y@	c #F7DB54",
"Z@	c #FFF0B3",
"`@	c #E0F2E0",
" #	c #069B06",
".#	c #0E9E0E",
"+#	c #40AF32",
"@#	c #ECEAA7",
"##	c #9CBF92",
"$#	c #BC3275",
"%#	c #2FAC2F",
"&#	c #D1E29E",
"*#	c #FEDC51",
"=#	c #F8FCF8",
"-#	c #51B951",
";#	c #099C09",
">#	c #15A215",
",#	c #29A61B",
"'#	c #F0DB5C",
")#	c #99BD8F",
"!#	c #9F4464",
"~#	c #22A822",
"{#	c #46B346",
"]#	c #EFEAA8",
"^#	c #FFFDF4",
"/#	c #7AC97A",
"(#	c #089D08",
"_#	c #24A416",
":#	c #F0D63F",
"<#	c #90B886",
"[#	c #527D3A",
"}#	c #099D09",
"|#	c #50B950",
"1#	c #F4D94D",
"2#	c #FFF3C4",
"3#	c #B9E3B9",
"4#	c #24A824",
"5#	c #11A111",
"6#	c #2BA81D",
"7#	c #D7CB23",
"8#	c #9ABD90",
"9#	c #678750",
"0#	c #059A05",
"a#	c #F0D025",
"b#	c #FFEC9D",
"c#	c #E8F6E8",
"d#	c #4EB84E",
"e#	c #B5CB47",
"f#	c #A3C098",
"g#	c #688750",
"h#	c #039B03",
"i#	c #C3CD3F",
"j#	c #FCFBF0",
"k#	c #E6F5E6",
"l#	c #46B546",
"m#	c #B5CC49",
"n#	c #587F40",
"o#	c #019901",
"p#	c #B6CB3F",
"q#	c #F1F8E6",
"r#	c #DFF2DF",
"s#	c #079C07",
"t#	c #B9CE49",
"u#	c #94BB8A",
"v#	c #4E7B36",
"w#	c #019A01",
"x#	c #1EA51E",
"y#	c #DBCD27",
"z#	c #EEF7E3",
"A#	c #DEF2DE",
"B#	c #1FA51F",
"C#	c #109F10",
"D#	c #27A827",
"E#	c #63C163",
"F#	c #CBD45E",
"G#	c #AFC3A4",
"H#	c #CA257C",
"I#	c #13A113",
"J#	c #CEC81E",
"K#	c #ECF5E1",
"L#	c #E4F4E4",
"M#	c #41B441",
"N#	c #17A317",
"O#	c #78C978",
"P#	c #DBDA6C",
"Q#	c #D2D1C7",
"R#	c #D22883",
"S#	c #029902",
"T#	c #0A9E0A",
"U#	c #C9C71A",
"V#	c #EDF6E2",
"W#	c #DEF1DE",
"X#	c #3CB03C",
"Y#	c #8BCE7C",
"Z#	c #FBD940",
"`#	c #F0DFE6",
" $	c #DA348F",
".$	c #019801",
"+$	c #56BB56",
"@$	c #3CB13C",
"#$	c #87CC78",
"$$	c #FBD739",
"%$	c #F9EAF2",
"&$	c #C86C96",
"*$	c #1BA31B",
"=$	c #30AB30",
"-$	c #DFCC22",
";$	c #F8FAEC",
">$	c #F2FAF2",
",$	c #B1E0B1",
"'$	c #88CF88",
")$	c #8CD18C",
"!$	c #70C670",
"~$	c #4AB64A",
"{$	c #A8DA99",
"]$	c #F9EFAD",
"^$	c #FDFAFB",
"/$	c #BEC6B2",
"($	c #A46173",
"_$	c #A25E71",
":$	c #C96B96",
"<$	c #F276BD",
"[$	c #FA989E",
"}$	c #FFF9FA",
"|$	c #FAFCFA",
"1$	c #D786AE",
"2$	c #E87AB7",
"3$	c #E174AE",
"4$	c #A9AC96",
"5$	c #ECE381",
"6$	c #FEF1BD",
"7$	c #FEFEFD",
"8$	c #F1F6F0",
"9$	c #DCF1DC",
"0$	c #CEECCE",
"a$	c #F7FCF7",
"b$	c #FF8CD2",
"c$	c #FF78C9",
"d$	c #F973C2",
"e$	c #EAC0D4",
"f$	c #FBF2C7",
"g$	c #FFFCE9",
". . . . . . . . . . . . . . . . . . . . . . . . . . . . . . . . . . . . . . . . . . . . . . . . ",
". . . . . . . . . . . . . . . . . . . . . . . . . . . . . . . . . . . . . . . . . . . . . . . . ",
". . . . . . . . . . . . . . . . . . . . . . . . . . . . . . . . . . . . . . . . . . . . . . . . ",
". . . . . . . . . . . . . . . . . . . . . . . . . . . . . . . . . . . . . . . . . . . . . . . . ",
". . . . . . . . . . . . . . . . . . . . . . . . . . . . . . . . . . . . . . . . . . . . . . . . ",
". . . . . . . . . . . . . . . . . . . . + @ # $ % & . . . . . . . . . . . . . . . . . . . . . . ",
". . . . . . . . . . . . . . . . . . . * = - ; > , ' ) ! ~ { ] ^ ^ / ( . . . . . . . . . . . . . ",
". . . . . . . . . . . . . . . . . . . _ : < [ } } | 1 2 3 3 4 5 6 7 8 9 0 { a . . . . . . . . . ",
". . . . . . . . . . . . . . . . . . . b [ c c c d d [ [ [ } } } } } e 1 f g - h i j k l . . . . ",
". . . . . . . . . . . . . . . . . . m | d c c c c c c c c [ d [ [ } } } } [ } } } < n o . . p q ",
". . . . . . . . . . . . . . . . . r s } [ c c c c c c c c c c c c c c c c t t [ c d i a u v w x ",
". . . . . . . . . . . . . . . . . y z | A } } d c t c t d d c c c c c c c c t d c c B C e } D E ",
". . . . . . . . . . . . . . . . . & F G H I J K c c c c c c c c c c c c t c t c c t c c } L M N ",
". . . . . . . . . . . . . . . . . . . . . O P Q } d d c c c c c c c c c c c c c c c c c } B R ( ",
". . . . . . . . . . . . . . . . . . . . . * S T B d c c c c c c t c c c c c t c c c c } U V W . ",
". . . . . . . . . . . . . . . . . . . X Y Z `  .d } } t t c c c c c c t c c c c c A ..+.@.& . . ",
". . . . . . . . . . . . . . . . O $ #.7 $.< A } } [ c c c t c c c c c t c c c c %.R r . . . . . ",
". . . . . . . . . . . . & &.P *.=.b A A } } c c c -.c c c d A ;.>.,.t c c c c '.).!.. . . . . . ",
". . . . . . . . . . ~.{ {.].^./.A A (.c c c c c -._.:.<.[.}.|.1.} c c c c c z 2.+ . . . . . . . ",
". . . . . a 3.2.4.5.6.7.8.} [ (.d c c c c c c [ 9.0.a.b.c.d.e.f.c c c c d g.h.!.. . . . . . . . ",
". . @ ) i.j...k.;.A } [ [ d c c c c c c c A 1 Q l.m.n.o.p.q.r.s.c c c e t.u.( . . . . . . . . . ",
". ] i v.A A } } t t c c c c c c c c } /.w.x.4.y.z.A.B.C.D.E.F.G.c c >.H.I.. . . . . . . . . . . ",
". P J.} d [ c c c c c c c c c [ 1 ; K.L.q ~.M.N.O.P.C.Q.D.R.S.T.c U ' ^ . . . . . . . . . . . . ",
". U.C c c c c c c c c d | 8.V.W.X.P * . . Y.Z.;.`. +.+C.++@+#+$+6.%+& . . . . . . . . . . . . . ",
"&+*+d c c c c c c c 1 =+n -+. . . . . . . ;+H A >+,+'+'+)+!+~+{++ . . . . . . . . . . . . . . . ",
"]+d c c c c t d B ^+/+. . . . . . . . . . . (+_+:+<+[+}+|+1+2+. . . . . . . . . . . . . . . . . ",
"3+[ c | f 4+5+6+p & . . . . . . . . . . . . . 7+8+9+0+a+b+c+d+e+f+g+h+i+j+k+l+m+n+o+. . . . . . ",
"/+ .- m p+% . . . . . . . . . . . . . . . . + q+r+s+t+u+v+w+x+y+z+A+B+C+D+E+F+G+H+I+J+. . . . . ",
". 6+. . . . . . . . . . . . . . . . . . . . . K+L+M+N+O+P+Q+R+S+w+T+U+V+W+W+X+z+x+Y+Z+`+. . . . ",
". . . . . . . . . . . . . . . . . . . . . . .  @.@+@@@#@$@w+%@Q+&@&@*@=@&@-@;@>@,@'@)@!@~@. . . ",
". . . . . . . . . . . . . . . . . . . . . . . o+{@]@^@/@(@_@:@<@[@}@P+|@1@y+2@3@O+4@<@5@6@. . . ",
". . . . . . . . . . . . . . . . . . . . . . . o+7@8@%@9@0@a@b@P+c@<@d@$@e@f@g@h@i@j@k@l@m@n@. . ",
". . . . . . . . . . . . . . . . . . . . . . . o@p@1@q@X+W+<@r@s@t@u@v@w@x@y@z@b@>@A@B@C@D@E@F@. ",
". . . . . . . . . . . . . . . . . . . . . . . G@H@I@J@K@4@L@f@M@N@. . . . . O@P@4@Q@R@A@U+S@T@. ",
". . . . . . . . . . . . . . . . . . . . . . . U@V@W@O+U+q@X@Y@Z@. . . . . . `@E+ # #Q@u+.#+#@#. ",
". . . . . . . . . . . . . . . . . . . . . . . ##$#4@V+I@%#&#*#. . . . . . . =#-#i@;#V+t+>#,#'#. ",
". . . . . . . . . . . . . . . . . . . . . . . )#!#W@i@~#{#]#^#. . . . . . . . /#k@(#K@k@W@_#:#. ",
". . . . . . . . . . . . . . . . . . . . . . . <#[#4@}#d@|#1#2#. . . . . . . . 3#4#5#*@K@J@6#7#. ",
". . . . . . . . . . . . . . . . . . . . . . . 8#9#*@0#%@1@a#b#. . . . . . . . c#d#|@-@;@4@:@e#. ",
". . . . . . . . . . . . . . . . . . . . . . . f#g#C@h#W+c@i#j#. . . . . . . . k#l#Q+9@q@W@$@m#. ",
". . . . . . . . . . . . . . . . . . . . . . . 8#n#A@o#Q@&@p#q#. . . . . . . . r#R+s#k@X+=@g@t#. ",
". . . . . . . . . . . . . . . . . . . . . . . u#v#h#w#t+x#y#z#. . . . . . . . A#B#i@C#D#S+E#F#. ",
". . . . . . . . . . . . . . . . . . . . . . . G#H#j@w#Q@I#J#K#. . . . . . . . L#M#B#N#r@5@O#P#. ",
". . . . . . . . . . . . . . . . . . . . . . . Q#R# #S#w#T#U#V#. . . . . . . . W#B+|@I@b@X#Y#Z#. ",
". . . . . . . . . . . . . . . . . . . . . . . `# $W+S#.$#@J#z#. . . . . . . . r#+$|#1@@$l@#$$$. ",
". . . . . . . . . . . . . . . . . . . . . . . %$&$*$}#;#=$-$;$. . . . . . . . >$,$'$)$!$~${$]$. ",
". . . . . . . . . . . . . . . . . . . . . . . ^$/$($_$:$<$[$}$. . . . . . . . |$c#1$2$3$4$5$6$. ",
". . . . . . . . . . . . . . . . . . . . . . . 7$8$9$0$a$. . . . . . . . . . . . . b$c$d$e$f$g$. "};
