/* XPM */
static char * specrelation_xpm[] = {
"48 48 142 2",
"  	c None",
". 	c #0066FF",
"+ 	c #0065FF",
"@ 	c #0067FF",
"# 	c #0066FD",
"$ 	c #0064FF",
"% 	c #325BBD",
"& 	c #0A8162",
"* 	c #62A32C",
"= 	c #BFBB13",
"- 	c #5D9C4C",
"; 	c #609860",
"> 	c #347ACA",
", 	c #0069E9",
"' 	c #A72D87",
") 	c #267F26",
"! 	c #00970A",
"~ 	c #009609",
"{ 	c #009221",
"] 	c #008567",
"^ 	c #5E8BA0",
"/ 	c #0072C4",
"( 	c #AE2E70",
"_ 	c #128D0E",
": 	c #009903",
"< 	c #00960D",
"[ 	c #008F2F",
"} 	c #639E49",
"| 	c #5E8BA1",
"1 	c #9C3964",
"2 	c #009904",
"3 	c #00970B",
"4 	c #00902D",
"5 	c #AAB32A",
"6 	c #608D9F",
"7 	c #0075B1",
"8 	c #953E61",
"9 	c #009803",
"0 	c #008F32",
"a 	c #ABB12B",
"b 	c #2072DF",
"c 	c #0078A8",
"d 	c #91405E",
"e 	c #009807",
"f 	c #009419",
"g 	c #008F3B",
"h 	c #AAB12E",
"i 	c #5C4DA4",
"j 	c #8D435D",
"k 	c #009806",
"l 	c #008F2B",
"m 	c #008D40",
"n 	c #B8B724",
"o 	c #7440A1",
"p 	c #874659",
"q 	c #009804",
"r 	c #009415",
"s 	c #00950E",
"t 	c #CCC200",
"u 	c #0067FD",
"v 	c #754198",
"w 	c #874756",
"x 	c #009901",
"y 	c #009701",
"z 	c #009900",
"A 	c #009A00",
"B 	c #774488",
"C 	c #874753",
"D 	c #009800",
"E 	c #009700",
"F 	c #3FA700",
"G 	c #86407F",
"H 	c #8A4553",
"I 	c #079C00",
"J 	c #D1C200",
"K 	c #B52C6D",
"L 	c #546633",
"M 	c #39A400",
"N 	c #D1C300",
"O 	c #C52376",
"P 	c #D7C400",
"Q 	c #D11C7D",
"R 	c #73B000",
"S 	c #B0BA00",
"T 	c #B62C6C",
"U 	c #099C00",
"V 	c #C8C000",
"W 	c #AF2F6A",
"X 	c #E2C500",
"Y 	c #5EAB00",
"Z 	c #BF2673",
"` 	c #F3C900",
" .	c #119B00",
"..	c #B9296F",
"+.	c #FECC00",
"@.	c #0F9B00",
"#.	c #E7C700",
"$.	c #327A1E",
"%.	c #9B3C5D",
"&.	c #009600",
"*.	c #EBC800",
"=.	c #307B1D",
"-.	c #427128",
";.	c #EFC800",
">.	c #0F9D00",
",.	c #476E2B",
"'.	c #EDC800",
").	c #98B700",
"!.	c #486E2B",
"~.	c #AFBC00",
"{.	c #97B700",
"].	c #347A20",
"^.	c #447029",
"/.	c #9EBA00",
"(.	c #9DBA00",
"_.	c #317C1E",
":.	c #417127",
"<.	c #D4C400",
"[.	c #ACBB00",
"}.	c #C91F79",
"|.	c #C7C100",
"1.	c #C0BF00",
"2.	c #CF1C7C",
"3.	c #C3C100",
"4.	c #1D9F00",
"5.	c #FACC00",
"6.	c #D51880",
"7.	c #1C9E00",
"8.	c #FACB00",
"9.	c #B12E6A",
"0.	c #DAC400",
"a.	c #924157",
"b.	c #914158",
"c.	c #B32E6B",
"d.	c #E80E8B",
"e.	c #F7515B",
"f.	c #B92A70",
"g.	c #D71882",
"h.	c #CE1D7B",
"i.	c #5C6238",
"j.	c #FF0099",
"k.	c #F40793",
"                                                                                                ",
"                                                                                                ",
"                                                                                                ",
"                                                                                                ",
"                                                                                                ",
"                                                                                                ",
"                                          . + . .                                               ",
"                                        + + + + + . . . . . + @ . +                             ",
"                                      . + . . . . . + + + + + + + + . . + + . . + .             ",
"                                      . . . . . . . . . . + . + + + + + + + + + + +             ",
"                                    . + + . . . . . . . . . . . . . . . . + + + . . +     . +   ",
"                                    . . . + + . . + . + . . . . . . . . . . + . . . . + . + @   ",
"                                      + . . . @ . . . . . . . . . . . . + . + . . + . . + + +   ",
"                                              + + . . . . . . . . . . . . . . . . . . . + .     ",
"                                              + . . . . . . . . + . . . . . + . . . . + . +     ",
"                                            . . . + + + + . . . . . . + . . . . . . .           ",
"                                      + @ + . + + + . . . + . . . . . + . . . . .               ",
"                                @ . . . + + . . . # . . . . . + . $ + . . . . .                 ",
"                          $ + @ . . @ . . . . . # % & * = - ; > + . . . . . .                   ",
"                  . + . . + + @ . . . . . . . + , ' ) ! ~ { ] ^ . . . . . @                     ",
"        + . . . + . + + + . . . . . . . . . . + / ( _ : < [ } | . . . . .                       ",
"    + . . . + + + + . . . . . . . . + @ + .       1 : 2 3 4 5 6 . . . @                         ",
"    . + . + . . . . . . . . . + . + +         . 7 8 2 9 3 0 a b . .                             ",
"    + . . . . . . . . . . . . +             + + c d e 2 f g h @ +                               ",
"+ . . . . . . . . . . +                     . . i j k k l m n                                   ",
". . . . . . + . . .                           + o p q q r s t                                   ",
"+ + . . + + @                                 u v w 9 x y z           z A                       ",
"  . .                                           B C z D E A z z D D z z A z A z A F             ",
"                                                G H D D z z z A A z z z D D z D z I J           ",
"                                                K L z z z A z z z z D z z z z D D z M N         ",
"                                                O E A D D z D z A D z D z z z D D z z D P       ",
"                                                Q A z z D z z z D z z z D z A z z z z z R S     ",
"                                                T z D z D z A U               z D z A A A V     ",
"                                                W z z z z D z X               A z z z z z Y     ",
"                                                Z z D z D z `                 z D D z D D  .    ",
"                                                ..z z z z   +.                D z D z z z @.#.  ",
"                                              $.%.z z A &.                    E z A z z z @.*.  ",
"                                              =.-.z z z z ;.                    z A D z z >.N   ",
"                                                ,.D D z z '.                    z D z z z D ).  ",
"                                                !.A A D D ~.                    z z z D z z {.  ",
"                                              ].^.z D z z /.                    z z z z z A (.  ",
"                                              _.:.A z z z <.                    D z D D A z [.  ",
"                                                }.z z z z |.                    A D A A D z 1.  ",
"                                                2.D D z A 3.                    z D z z E 4.5.  ",
"                                                6.D D E z |.                    D z z z z 7.8.  ",
"                                                9.D z D E 0.                          z D       ",
"                                                  a.b.c.d.e.                      f.g.h.i.      ",
"                                                                                    j.k.        "};
