/* XPM */
static char * target_xpm[] = {
"48 47 593 2",
"  	c None",
". 	c #FFFFFF",
"+ 	c #FDFDFD",
"@ 	c #D0D0D0",
"# 	c #9A9A9A",
"$ 	c #838383",
"% 	c #989898",
"& 	c #CFCFCF",
"* 	c #E1E1E1",
"= 	c #D1D1D1",
"- 	c #BFBFBF",
"; 	c #ADADAD",
"> 	c #AEAEAE",
", 	c #C1C1C1",
"' 	c #E9E9E9",
") 	c #FCFCFC",
"! 	c #ECECEC",
"~ 	c #A9A9A9",
"{ 	c #7B7B7B",
"] 	c #999999",
"^ 	c #E4E4E4",
"/ 	c #CDCDCD",
"( 	c #B9B9B9",
"_ 	c #AAAAAA",
": 	c #919191",
"< 	c #7E7E7E",
"[ 	c #FEFEFE",
"} 	c #A2A2A2",
"| 	c #828282",
"1 	c #DBDBDB",
"2 	c #F6F6F6",
"3 	c #A6A6A6",
"4 	c #7A7A7A",
"5 	c #6F6F6F",
"6 	c #A3A3A3",
"7 	c #F5F5F5",
"8 	c #DADADA",
"9 	c #6E6E6E",
"0 	c #555555",
"a 	c #AFAFAF",
"b 	c #FBFBFB",
"c 	c #7D7D7D",
"d 	c #575757",
"e 	c #767676",
"f 	c #F3F3F3",
"g 	c #B1B1B1",
"h 	c #CECECE",
"i 	c #FDFBFF",
"j 	c #EAD4FF",
"k 	c #D8B1FF",
"l 	c #D1A3FF",
"m 	c #CB99FF",
"n 	c #D0A3FF",
"o 	c #D0A2FF",
"p 	c #DFBEFF",
"q 	c #E8D2FF",
"r 	c #EEDDFF",
"s 	c #F9F3FF",
"t 	c #616161",
"u 	c #545454",
"v 	c #CACACA",
"w 	c #FFFEFF",
"x 	c #EAD5FF",
"y 	c #CF9FFF",
"z 	c #C082FF",
"A 	c #C68FFF",
"B 	c #CE9EFF",
"C 	c #C78FFF",
"D 	c #BE7EFF",
"E 	c #CA94FF",
"F 	c #D4A9FF",
"G 	c #DDBCFF",
"H 	c #E8D3FF",
"I 	c #F5EBFF",
"J 	c #C4C4C4",
"K 	c #656565",
"L 	c #4D4D4D",
"M 	c #E7E7E7",
"N 	c #DCDCDC",
"O 	c #E9D4FF",
"P 	c #C58AFF",
"Q 	c #CD9BFF",
"R 	c #F2E5FF",
"S 	c #F6ECFF",
"T 	c #F3E6FF",
"U 	c #F2E6FF",
"V 	c #E8D1FF",
"W 	c #E1C3FF",
"X 	c #E4CAFF",
"Y 	c #D7AFFF",
"Z 	c #D7B1FF",
"` 	c #FFF6F6",
" .	c #FF9A9A",
"..	c #FFB6B6",
"+.	c #B8B8B8",
"@.	c #5A5A5A",
"#.	c #4C4C4C",
"$.	c #E5E5E5",
"%.	c #FAFAFA",
"&.	c #DFDFDF",
"*.	c #F8F8F8",
"=.	c #F3E7FF",
"-.	c #D0A1FF",
";.	c #D8B2FF",
">.	c #FEFDFF",
",.	c #FAF6FF",
"'.	c #F6EDFF",
").	c #E3C7FF",
"!.	c #DBB6FF",
"~.	c #C995FF",
"{.	c #FFE6E6",
"].	c #FF1F1F",
"^.	c #FF6B6B",
"/.	c #A8A8A8",
"(.	c #505050",
"_.	c #717171",
":.	c #EAEAEA",
"<.	c #F9F9F9",
"[.	c #FBF8FF",
"}.	c #E3C6FF",
"|.	c #D9B3FF",
"1.	c #FCF9FF",
"2.	c #ECDAFF",
"3.	c #CD9CFF",
"4.	c #B771FF",
"5.	c #C475EA",
"6.	c #FA2A33",
"7.	c #FF5F5F",
"8.	c #7C7C7C",
"9.	c #3E3E3E",
"0.	c #ACACAC",
"a.	c #F4F4F4",
"b.	c #F5ECFF",
"c.	c #DAB6FF",
"d.	c #F8F2FF",
"e.	c #F4E9FF",
"f.	c #E7CEFF",
"g.	c #E0C0FF",
"h.	c #EDDDFF",
"i.	c #FE5C5E",
"j.	c #F43B51",
"k.	c #BD70F3",
"l.	c #DD2367",
"m.	c #E65A8B",
"n.	c #FFF3C2",
"o.	c #D7D7D7",
"p.	c #595959",
"q.	c #444444",
"r.	c #E8E8E8",
"s.	c #D5D5D5",
"t.	c #FEFEFF",
"u.	c #EDDCFF",
"v.	c #DFBFFF",
"w.	c #C286FF",
"x.	c #C489FF",
"y.	c #D6AEFF",
"z.	c #DEBEFF",
"A.	c #D9B1FF",
"B.	c #E6CCFF",
"C.	c #FF5151",
"D.	c #FF4343",
"E.	c #EDDBFE",
"F.	c #CC6ACF",
"G.	c #C035B5",
"H.	c #E3B5A5",
"I.	c #FDD741",
"J.	c #FFDE5C",
"K.	c #909090",
"L.	c #323232",
"M.	c #9F9F9F",
"N.	c #A0A0A0",
"O.	c #F0F0F0",
"P.	c #F0E0FF",
"Q.	c #FCFAFF",
"R.	c #E4C8FF",
"S.	c #C48AFF",
"T.	c #CFA0FF",
"U.	c #FAF5FF",
"V.	c #EFE0FF",
"W.	c #F1E4FF",
"X.	c #E7D0FF",
"Y.	c #D26BC4",
"Z.	c #FE3134",
"`.	c #FF9E9E",
" +	c #FF6868",
".+	c #FF6161",
"++	c #FFF3BB",
"@+	c #F5DAA7",
"#+	c #E9B726",
"$+	c #665004",
"%+	c #927408",
"&+	c #FCD12E",
"*+	c #D6D6D6",
"=+	c #525252",
"-+	c #4B4B4B",
";+	c #B2B2B2",
">+	c #898989",
",+	c #FBF7FF",
"'+	c #F0E1FF",
")+	c #C58CFF",
"!+	c #D4AAFF",
"~+	c #FEFCFF",
"{+	c #E2C5FF",
"]+	c #CD5DC1",
"^+	c #EF1331",
"/+	c #F58498",
"(+	c #FFCAA6",
"_+	c #FFBD17",
":+	c #FFCE0B",
"<+	c #BB9706",
"[+	c #342A03",
"}+	c #3D1702",
"|+	c #A05437",
"1+	c #E7CCFB",
"2+	c #2E2E2E",
"3+	c #727272",
"4+	c #EFE1FF",
"5+	c #F8F0FF",
"6+	c #D5ADFF",
"7+	c #C387FF",
"8+	c #FDFCFF",
"9+	c #EBB7E0",
"0+	c #DF3A74",
"a+	c #EA8C3F",
"b+	c #FFCC0A",
"c+	c #FFCD04",
"d+	c #796105",
"e+	c #231B07",
"f+	c #71572C",
"g+	c #E9202A",
"h+	c #E91944",
"i+	c #BE2DB0",
"j+	c #F9EDFA",
"k+	c #B4B4B4",
"l+	c #3D3D3D",
"m+	c #666666",
"n+	c #C6C6C6",
"o+	c #535353",
"p+	c #BCBCBC",
"q+	c #E9D3FF",
"r+	c #D9B4FF",
"s+	c #F2E7FF",
"t+	c #FFE490",
"u+	c #FCC016",
"v+	c #FDC304",
"w+	c #DE9302",
"x+	c #281E07",
"y+	c #2F271E",
"z+	c #943030",
"A+	c #FF7A7A",
"B+	c #FF8A8A",
"C+	c #E93A67",
"D+	c #B427BD",
"E+	c #C685F7",
"F+	c #4F4F4F",
"G+	c #424242",
"H+	c #F2F2F2",
"I+	c #F3E8FF",
"J+	c #C68DFF",
"K+	c #D6ADFF",
"L+	c #EEDEFF",
"M+	c #FFF4C8",
"N+	c #FFD52A",
"O+	c #FFCF06",
"P+	c #FFCD06",
"Q+	c #A9780F",
"R+	c #3F0308",
"S+	c #520D13",
"T+	c #CF3232",
"U+	c #FF2828",
"V+	c #FF3B3B",
"W+	c #FFA0A0",
"X+	c #FFD2D2",
"Y+	c #AD58FC",
"Z+	c #9B37FF",
"`+	c #F4EAFF",
" @	c #6D6D6D",
".@	c #2D2D2D",
"+@	c #B5B5B5",
"@@	c #404040",
"#@	c #EDEDED",
"$@	c #E0C1FF",
"%@	c #AA57FF",
"&@	c #E5CAFF",
"*@	c #ECDBFF",
"=@	c #FCF8FF",
"-@	c #FFF5CE",
";@	c #FFE479",
">@	c #FFD010",
",@	c #FFCD08",
"'@	c #BB9806",
")@	c #493E15",
"!@	c #312D34",
"~@	c #681849",
"{@	c #DB1051",
"]@	c #FF4B4B",
"^@	c #FF9494",
"/@	c #FF9D9D",
"(@	c #FFDDDD",
"_@	c #FFFDFD",
":@	c #952CFF",
"<@	c #E6CEFF",
"[@	c #ABABAB",
"}@	c #949494",
"|@	c #4A4A4A",
"1@	c #A750FF",
"2@	c #E9D2FF",
"3@	c #FFFCEE",
"4@	c #FFE062",
"5@	c #FFD118",
"6@	c #FFCC04",
"7@	c #EDC00A",
"8@	c #635004",
"9@	c #302910",
"0@	c #5E5E5E",
"a@	c #BB76FF",
"b@	c #9933FF",
"c@	c #D88ADA",
"d@	c #FFD9D9",
"e@	c #9D3CFF",
"f@	c #B468FF",
"g@	c #3A3A3A",
"h@	c #383838",
"i@	c #696969",
"j@	c #B162FF",
"k@	c #A64EFF",
"l@	c #F5EDFF",
"m@	c #FFEEAE",
"n@	c #FFCF0E",
"o@	c #FECC02",
"p@	c #FECC08",
"q@	c #D5AC07",
"r@	c #50430F",
"s@	c #625D47",
"t@	c #C7C7C7",
"u@	c #9C38FF",
"v@	c #B66EFF",
"w@	c #A245FF",
"x@	c #2C2C2C",
"y@	c #2F2F2F",
"z@	c #AB58FF",
"A@	c #AA55FF",
"B@	c #FFE88C",
"C@	c #FDCC03",
"D@	c #FFCA01",
"E@	c #E6BA09",
"F@	c #A98C13",
"G@	c #9D8D4D",
"H@	c #CFCECB",
"I@	c #A041FF",
"J@	c #9833FF",
"K@	c #A449FF",
"L@	c #2A2A2A",
"M@	c #242424",
"N@	c #A347FF",
"O@	c #B367FF",
"P@	c #B061FF",
"Q@	c #D7B0FF",
"R@	c #F9F2D3",
"S@	c #ECBE08",
"T@	c #ECBE03",
"U@	c #B39107",
"V@	c #6D5F27",
"W@	c #66655E",
"X@	c #AD5AFF",
"Y@	c #972EFF",
"Z@	c #9226FF",
"`@	c #EDDBFF",
" #	c #222222",
".#	c #F0E2FF",
"+#	c #B265FF",
"@#	c #A246FF",
"##	c #BDBDBA",
"$#	c #7D6918",
"%#	c #776210",
"&#	c #201B06",
"*#	c #403F3D",
"=#	c #303030",
"-#	c #972FFF",
";#	c #AA54FF",
">#	c #9831FF",
",#	c #BBBBBB",
"'#	c #414141",
")#	c #686868",
"!#	c #9A36FF",
"~#	c #B263FF",
"{#	c #BA76FF",
"]#	c #9F41FF",
"^#	c #2D2D2A",
"/#	c #343330",
"(#	c #1A1A1A",
"_#	c #0B0B0B",
":#	c #434343",
"<#	c #1E1E1E",
"[#	c #333333",
"}#	c #BEBEBE",
"|#	c #AF5EFF",
"1#	c #9832FF",
"2#	c #AD5BFF",
"3#	c #3F3F3F",
"4#	c #EEEEEE",
"5#	c #B66DFF",
"6#	c #B266FF",
"7#	c #EFEFEF",
"8#	c #161616",
"9#	c #111111",
"0#	c #191919",
"a#	c #202020",
"b#	c #AF5FFF",
"c#	c #9D3DFF",
"d#	c #A146FF",
"e#	c #A144FF",
"f#	c #353535",
"g#	c #9D3BFF",
"h#	c #BA77FF",
"i#	c #B66CFF",
"j#	c #9934FF",
"k#	c #2B2B2B",
"l#	c #0F0F0F",
"m#	c #262626",
"n#	c #212121",
"o#	c #373737",
"p#	c #B3B3B3",
"q#	c #A954FF",
"r#	c #A142FF",
"s#	c #9E3CFF",
"t#	c #AB57FF",
"u#	c #D4D4D4",
"v#	c #9B9B9B",
"w#	c #9B38FF",
"x#	c #787878",
"y#	c #171717",
"z#	c #3C3C3C",
"A#	c #5B5B5B",
"B#	c #DEDEDE",
"C#	c #ECD9FF",
"D#	c #A143FF",
"E#	c #B56BFF",
"F#	c #C284FF",
"G#	c #BD7DFF",
"H#	c #474747",
"I#	c #313131",
"J#	c #AC5AFF",
"K#	c #9A35FF",
"L#	c #D8D8D8",
"M#	c #141414",
"N#	c #393939",
"O#	c #454545",
"P#	c #6A6A6A",
"Q#	c #C891FF",
"R#	c #962DFF",
"S#	c #C993FF",
"T#	c #B56AFF",
"U#	c #EFDFFF",
"V#	c #B7B7B7",
"W#	c #484848",
"X#	c #878787",
"Y#	c #A54AFF",
"Z#	c #BB77FF",
"`#	c #CE9CFF",
" $	c #C0C0C0",
".$	c #292929",
"+$	c #9E9E9E",
"@$	c #D2D2D2",
"#$	c #F9F4FF",
"$$	c #8B8B8B",
"%$	c #3B3B3B",
"&$	c #B0B0B0",
"*$	c #585858",
"=$	c #B974FF",
"-$	c #E1C4FF",
";$	c #9F40FF",
">$	c #C5C5C5",
",$	c #E3E3E3",
"'$	c #B56CFF",
")$	c #9E3EFF",
"!$	c #BF81FF",
"~$	c #C081FF",
"{$	c #9B39FF",
"]$	c #C48BFF",
"^$	c #E0E0E0",
"/$	c #808080",
"($	c #CC9AFF",
"_$	c #9C39FF",
":$	c #D2A6FF",
"<$	c #A043FF",
"[$	c #A44BFF",
"}$	c #9C3AFF",
"|$	c #A851FF",
"1$	c #F7EFFF",
"2$	c #962CFF",
"3$	c #8F20FF",
"4$	c #B163FF",
"5$	c #E5CCFF",
"6$	c #B062FF",
"7$	c #AF60FF",
"8$	c #BE7CFF",
"9$	c #9830FF",
"0$	c #D3A7FF",
"a$	c #FAF4FF",
"b$	c #A54DFF",
"c$	c #9123FF",
"d$	c #9225FF",
"e$	c #A145FF",
"f$	c #C285FF",
"g$	c #C183FF",
"h$	c #BF80FF",
"i$	c #B770FF",
"j$	c #A54BFF",
"k$	c #952BFF",
"l$	c #A348FF",
"m$	c #CCCCCC",
"n$	c #A74FFF",
"o$	c #D1A2FF",
"p$	c #952AFF",
"q$	c #9328FF",
"r$	c #9021FF",
"s$	c #8F1FFF",
"t$	c #9F3FFF",
"u$	c #DAB4FF",
"v$	c #A7A7A7",
"w$	c #494949",
"x$	c #BC7AFF",
"y$	c #8E1EFF",
"z$	c #DDBBFF",
"A$	c #CA95FF",
"B$	c #C388FF",
"C$	c #C790FF",
"D$	c #EAD6FF",
"E$	c #A751FF",
"F$	c #CA96FF",
"G$	c #8E8E8E",
"H$	c #8C19FF",
"I$	c #CE9DFF",
"J$	c #EBD6FF",
"K$	c #CB96FF",
"L$	c #7F7F7F",
"M$	c #646464",
"N$	c #C182FF",
"O$	c #9023FF",
"P$	c #A852FF",
"Q$	c #D2A8FF",
"R$	c #8D8D8D",
"S$	c #B469FF",
"T$	c #8D1CFF",
"U$	c #8A16FF",
"V$	c #9326FF",
"W$	c #B66FFF",
"X$	c #D2A4FF",
"Y$	c #B873FF",
"Z$	c #9E3DFF",
"`$	c #A44AFF",
" %	c #E2C4FF",
".%	c #969696",
"+%	c #BE7FFF",
"@%	c #9D3AFF",
"#%	c #8E1CFF",
"$%	c #AB56FF",
"%%	c #BE7DFF",
"&%	c #B76EFF",
"*%	c #952DFF",
"=%	c #A042FF",
"-%	c #AD5DFF",
";%	c #A1A1A1",
">%	c #232323",
",%	c #252525",
"'%	c #FBF6FF",
")%	c #F6EEFF",
"!%	c #AE5EFF",
"~%	c #9B36FF",
"{%	c #8813FF",
"]%	c #8C1AFF",
"^%	c #9223FF",
"/%	c #9428FF",
"(%	c #F7F0FF",
"_%	c #F2E4FF",
":%	c #F1E3FF",
"<%	c #BD7BFF",
"[%	c #9C9C9C",
"}%	c #F1F1F1",
"|%	c #9D9D9D",
"1%	c #464646",
"2%	c #151515",
"3%	c #1B1B1B",
"4%	c #A5A5A5",
"5%	c #6C6C6C",
"6%	c #4E4E4E",
"7%	c #1F1F1F",
"8%	c #272727",
"9%	c #DDDDDD",
"0%	c #5D5D5D",
"a%	c #343434",
"b%	c #C9C9C9",
". . . . . . . . + @ # $ % & . . . . . . . . . * = @ - ; > , ' ) . . . . . . . . . . . . . . . . ",
". . . . . . . ! ~ { ] ^ . . . . . . . . . . . . . . . / ( _ : < , [ . . . . . . . . . . . . . . ",
". . . . . . * } | 1 [ . . . . . . . . . . . . . . . . . [ 2 = 3 4 5 ; . . . . . . . . . . . . . ",
". . . . . * 3 6 7 . . . . . . . . . . . . . . . . . . . . . . ) 8 % 9 0 a . . . . . . . . . . . ",
". . . . ^ > - b . . . . . . . . . . . . . . . . . . . . . . . . . b = c d e f . . . . . . . . . ",
". . + ' g h + . . . . . . . i j k l m n o p q r s . . . . . . . . . . f 6 t u ! . . . . . . . . ",
". [ f v ^ + . . . . . . w x y z A B C D C E B y F G H I . . . . . . . . . J K L M . . . . . . . ",
". 7 N f . . . . . . . w O P Q R s . . . S T U V W X p Y Z x . . `  .... . . +.@.#.$.. . . . . . ",
"%.&.*.[ [ . . . . . . =.-.;.>.. . . . . . . . . . ,.'.).!.~.P ).{.].^.. . . . /.(._.. . . . . . ",
":.<.[ 2 [ . . . . . [.}.|.. . . . . . . . . . . . . . . 1.2.3.4.5.6.7.. . . . . 8.9.0.. . . . . ",
"<.. a.! [ . . . . . b.c.d.. . . . . . e.f.g.p h.I i . . . . i.j.k.l.m.. . n.. . o.p.q.r.. . . . ",
". <.s.8 . . . . . t.=.u.. . . . . . v.w.x.-.y.z.k A.B.,.. . C.D.E.F.G.H.I.J.. . . K.L.M.. . . . ",
". ^ N.O.. . . . . t.P.Q.. . . . t.R.S.T.B.U.V.W.X.!.z Y.Z.`. +.+++@+#+$+%+&+. . . *+=+-+. . . . ",
". ;+>+2 . . . . . ,+'+. . . . . P.)+!+~+. . . . . [.{+]+^+/+(+_+:+<+[+}+|+1+. . . . < 2+, . . . ",
"2 3+% . . . . . [.4+5+. . . . i 6+7+8+. . . . . . . . 9+0+a+b+c+d+e+f+g+h+i+j+. . . k+l+m+. . . ",
"n+o+p+. . . . >.q+r+. . . . . U B s+. . . . . . . . . t+u+v+w+x+y+z+A+B+C+D+E+. . . . F+G+H+. . ",
"# q.' . . . . I+J+K+. . . . w L+z.. . . . . . . . M+N+O+P+Q+R+S+T+U+V+W+X+Y+Z+`+. . .  @.@+@. . ",
"9 @@#@. . . . $@%@&@. . . . t.*@=@. . . . . . -@;@>@,@'@)@!@~@{@]@^@/@(@_@w.:@<@. . . [@2+}@. . ",
"|@(.H+. . . . P 1@2@. . . . ~+=.. . . . . 3@4@5@6@7@8@9@0@. a@b@c@d@. . . o e@f@. . . p+g@9.. . ",
"h@i@. . . . . j@k@. . . 1.l@Q.t.. . . . m@n@o@p@q@r@s@t@. . O u@v@. . . . . w@w@. . . . F+x@[ . ",
"y@e . . . . . z@A@. . 1.g.y.. . . . . B@C@D@E@F@G@H@. . . . 2.I@J@. . . . . K@J@V.. . . K L@a . ",
"M@4 . . . . . N@O@. . h.P@Q@. . . . R@S@T@U@V@W@_.{ %.. . . . X@Y@. . . . . k@Z@`@. . . g L.M.. ",
" #m+. . . . .#Z++#. . C @#{+. . . . ##$#%#&#*#K.F+=#4 2 . . . P@-#. . . . . ;#>#r . . . ,#'#)#. ",
"x@=+. . . . O !#~#. . {#]#. . . . + K ^#/#(#_#:#m+<#[#}#. . . |#1#. . . . . 2#e@r . . . , q.(.. ",
"3#3#4#. . . <@!#5#. . 6#I@. . . . 7#.@8#x@=#M@9#F+0#a#% . . . b#c#. . . . . d#e#. . . . , '#|@. ",
"3+f#' . . . &@g#h#. . i#j#. . . . 7#k#l#m#<#n#m#o#a#y@p#. . e.q#r#. . . . . s#t#. . . . u#:#L . ",
"v#[#: . . . q w#O@. . Y 1#o . . . . x#(#y#z#=+=#(#f#A#B#. . C#D#E#. . . . F#e@G#. . . . ,#H#0@. ",
". I#0 f . . . K@J#. . `@K#J#. . . . L#[#M#n#N#o+O#P#, . . . Q#R#S#. . . . T#Z+U#. . . . V#W#X#. ",
". 5 .@+.. . . J#Y#. . . Z#1#`#. . . .  $#..$K < +$@$. . . =.D#j#`@. . . . K@1@#$. . . . $$%$&$. ",
". *+@@*$H+. . =$1#-$. . S N@;$).. . . . 7#>$- ,$+ . . . . '$)$!$. . . . ~${$]$. . . . . 0 :#^$. ",
". . /$.@,#. . |.R#($. . . Q@_$)$Q#. . . . . . . . . . I :$<${#. . . . . [$}$'.. . . . k+'#| . . ",
". . h N#0@2 . u.D#|$1$. . . :$2$3$4$B.i . . . . . I 5$6$K@7$`@. . . 8+7$R#T.. . . . M @.l+u#. . ",
". . . P#[#o.. . 8$9$0$. . . . a$b$c$d$e$=$f$g$h$i$|$R#j$z . . . . . X k$l$,.. . . . K.[#/$. . . ",
". . . v#y@m$. . 5$b@n$b.. . . . . o$|$p$q$r$s$d$q$k$+#R.. . . . . j t$k$u$. . . . v$l+w$N . . . ",
". . . } [# $. . . x$y$n$=.. . . . . . . z$A$B$C$C#. . . . . . . D$E$_$F$. . . . #@W#k# $. . . . ",
". . . 6 =#G$. . . . +#H$K#I$d.. . . . . . . . . . . . . . . ~+J$Y#t#K$. . . . . L$k# @. . . . . ",
". . . . [#M$) . . . . N$O$Z@c#f$U.. . . . . . . . . . . . U.w.k@P$Q$. . . . . R$L.#.&.. . . . . ",
". . . . 0 [#] . . . . . . S$T$U$V$W$X$>.. . . . . . >.>.Y$|$Z$`$ %. . . . . # l+o#*+. . . . . . ",
". . . . ) .$.@.%. . . . . . Q.+%@%#%:@Y@$%%%7+)+S.&%g#*%=%-%F 8+. . . . . . G+H#u#. . . . . . . ",
". . . . . ;%>%,%i@u#. . . . . . '%)%!%~%{%]%^%d$/%s$b@P@!+=@. . . . . . . O#d % + . . . . . . . ",
". . . . . . ' '#8#3#: . . . . . . . . (%I+_%:%<%_%U `+. . . . . . . . ~ -+|@[%) . . . . . . . . ",
". . . . . . . }%|%.$ #N#K +$. . . . . . . . . . . . . . . . . . . . M.p.1%/.) . . . . . . . . . ",
". . . . . . . . . B#6 h@2%3%L.P#N.,#. . . . . . . . . . . . . . 4%5%6%O#8 . . . . . . . . . . . ",
". . . . . . . . . . . H+& 3+3#7%8%h@@@d $$3 :.. . . . . . ,#|%K H#H#)#9%. . . . . . . . . . . . ",
". . . . . . . . . . . . . . *./ +@=+N#>%0#M@f#:#o+0%0@*$W#[#f#w$)#@ . . . . . . . . . . . . . . ",
". . . . . . . . . . . . . . . . . . . >$+@9 W#l+[#=#[#a%N#6%,#b%. . . . . . . . . . . . . . . . ",
". . . . . . . . . . . . . . . . . . . . . . . . . 9%. . . . . . . . . . . . . . . . . . . . . . "};
