/* XPM */
static char *target[] = {
/* columns rows colors chars-per-pixel */
"32 32 161 2",
"   c #1C1D1C",
".  c #1F201F",
"X  c #292927",
"o  c #2C2B2A",
"O  c #34312E",
"+  c #36322F",
"@  c #3A332F",
"#  c #3D332D",
"$  c #43332A",
"%  c #5B3527",
"&  c #703926",
"*  c #773D27",
"=  c #50504F",
"-  c #515150",
";  c #525251",
":  c #555451",
">  c #555555",
",  c #585757",
"<  c #5A5A5A",
"1  c #5D5D5D",
"2  c #5F5F5F",
"3  c #636362",
"4  c #676565",
"5  c #696668",
"6  c #6C686A",
"7  c #6D6A6B",
"8  c #6E6C6D",
"9  c gray43",
"0  c gray44",
"q  c gray45",
"w  c #777777",
"e  c gray48",
"r  c gray49",
"t  c #834B27",
"y  c #854D27",
"u  c #8A4F2E",
"i  c #937F3A",
"p  c #857763",
"a  c #E0677F",
"s  c #E16E7E",
"d  c #E17B7C",
"f  c #B4748C",
"g  c #A158EB",
"h  c #A25BE9",
"j  c #A55CED",
"k  c #A65DEE",
"l  c #A75EEE",
"z  c #A86FDE",
"x  c #A961EF",
"c  c #AC64ED",
"v  c #AE67ED",
"b  c #B06BEE",
"n  c #B16FF0",
"m  c #B475F1",
"M  c #B679F2",
"N  c #B97DF2",
"B  c #C45B83",
"V  c #C75A83",
"C  c #CC5B82",
"Z  c #D25B81",
"A  c #D96080",
"S  c #A48A33",
"D  c #AC8F33",
"F  c #BB9C32",
"G  c #87847E",
"H  c #DFB83A",
"J  c #E1867A",
"K  c #E29B76",
"L  c #E7C13D",
"P  c #ECCA49",
"I  c #EDCC4D",
"U  c #EFD16D",
"Y  c #F0D365",
"T  c #818181",
"R  c #838383",
"E  c gray53",
"W  c #9E989A",
"Q  c #9E9A99",
"!  c #9E9D9C",
"~  c #A09498",
"^  c #A0A0A0",
"/  c #A2A2A2",
"(  c #A4A4A4",
")  c gray65",
"_  c #A8A7A7",
"`  c #AAA8A8",
"'  c #AEAAAA",
"]  c #B1ACAC",
"[  c #B3AFAE",
"{  c #B8B2B1",
"}  c #BAB4B3",
"|  c #BDB6B4",
" . c #BEB8B7",
".. c #BBB8BB",
"X. c #BDBBBB",
"o. c #BEBDBC",
"O. c #BB80F2",
"+. c #BD83F2",
"@. c #BF88F3",
"#. c #B9A5C3",
"$. c #C0BFBF",
"%. c #C2BFBF",
"&. c #C18BF3",
"*. c #C38FF3",
"=. c #C692F3",
"-. c #C896F3",
";. c #CB9AF4",
":. c #CC9DF3",
">. c #CEA1F3",
",. c #D0A7F3",
"<. c #D1AAF3",
"1. c #D3ACF4",
"2. c #D4AEF5",
"3. c #D6B1F5",
"4. c #D9B6F5",
"5. c #DABAF5",
"6. c #DEBFF3",
"7. c #DCBCF5",
"8. c #C3C2C2",
"9. c #C4C4C3",
"0. c #DBD2DD",
"q. c #DDD7DC",
"w. c #DFDBDC",
"e. c #DEC6EB",
"r. c #DCCBE5",
"t. c #DFC2F0",
"y. c #E0DDDD",
"u. c #E2DFDE",
"i. c #E6D1F7",
"p. c #E7D5F4",
"a. c #E7D1F8",
"s. c #E9D3F9",
"d. c #EAD5FA",
"f. c #ECD8FA",
"g. c #EDDCFA",
"h. c #E5E0E1",
"j. c #E4E1E5",
"k. c #E6E0E9",
"l. c #F0E2FA",
"z. c #F1E5F9",
"x. c #F0EBF2",
"c. c #F1E8F6",
"v. c #F1EDF2",
"b. c #F3EEF4",
"n. c #F4EFF5",
"m. c #F6F1F6",
"M. c #F7F2F5",
"N. c #F7F4F5",
"B. c #F7F5F6",
"V. c #F8F3F7",
"C. c #F9F4F6",
"Z. c #F9F6F8",
"A. c #FBF9F9",
"S. c #FBFBFB",
"D. c #FDFCFB",
"F. c gray99",
"G. c #FCFCFD",
"H. c #FDFCFC",
"J. c #FDFCFD",
"K. c #FDFDFD",
"L. c #FDFCFE",
/* pixels */
"K.K.K.K.x...) 9.x.S.K.K.K.K.K.C.v.q.$.| ..0.v.K.K.K.K.K.K.K.K.K.",
"K.K.K.k.} o.x.S.K.K.K.K.K.K.K.K.K.L.B.k.9.! ! 9.B.K.K.K.K.K.K.K.",
"K.K.x.8.0.S.K.K.K.K.K.C.V.C.K.D.D.K.K.K.S.x.X.T Q h.L.K.K.K.K.K.",
"K.v.0.j.K.K.K.K.V.a.4.<.,.2.7.a.l.V.S.K.K.L.L.w.W G y.K.K.K.K.K.",
"B.k.v.K.K.K.S.V.7.<.i.f.d.a.i.t.i.t.i.l.D.y.0.C.k.W r h.K.K.K.K.",
"v.B.K.K.K.K.S.i.7.V.S.K.K.K.S.S.V.z.i.2.<.d s b.L.h.r W C.K.K.K.",
"S.v.C.K.K.K.n.i.V.K.K.K.c.d.d.z.n.D.K.r.a C a w.C.L.9.2 o.K.K.K.",
"v.0.C.K.K.K.n.n.D.D.K.f.:.1.7.t.7.t.t.{ a #.f K U L.B.E w C.K.K.",
"0.X.D.K.K.L.n.L.K.K.z.1.i.V.C.V.l.>.Z K I H u * K C.S.9.< 9.K.K.",
"Q $.K.K.L.z.z.K.K.L.e.6.K.D.K.K.K.h.J H F t u C V e.K.v.9 ~ S.L.",
"q 0.K.D.z.2.z.K.K.m.a.m.K.K.S.L.C.Y L S & u a K z &.K.K.Q 5 v.K.",
"3 y.K.D.e.@.V.K.L.V.n.L.K.D.C.U P F y 6 B s { h.3.x l.K.$.= 0.K.",
"5 v.K.K.:.&.L.L.V.C.K.K.S.U P L S p | p.c :.C.D.s.g t.L.y.= ` K.",
"9 B.K.K.*.=.L.s.7.S.K.S.U L F i Q x.F.C.+.N D.D.f.g ,.K.V.q E K.",
"5 n.K.K.N -.L.=.,.K.K.u.D y % q : { S.F.;.M L.L.g.l :.K.K.~ q y.",
"< k.K.C.m -.m.m 2.K.K.$.# X   - O 2 k.K.:.N S.K.g.l 2.K.K.Q 1 ' ",
": 0.S.n.b :.C.b 2.K.K.' X X o o X > j.K.=.@.K.S.s.g e.L.L./ 1 [ ",
"5 ' L.L.N -.K.*.N V.K.0.#   @ + # Q S.n.b ,.K.K.3.x l.K.L.W 8 8.",
"Q 8 x.L.*.&.S.t.l 7.S.C.` = = e ' v.L.4.g i.S.L.@.@.K.K.B.R E C.",
"q.1 [ L.,.n c.V.*.v a.S.M.y.9.j.C.F.g.b =.V.S.s.x 7.K.K.y.2 | K.",
"S.~ 6 x.s.l 6.S.z.N h ;.d.V.V.V.l.4.m @.l.L.n.N M n.K.B.Q 0 b.F.",
"L.0., 0.K.N M V.K.V.:.g h b b m l l :.z.S.S.,.g 7.S.K.8.> { S.K.",
"K.k.2 $.K.t.g *.b.K.L.f.1.&.M N :.i.S.K.C.4.l >.S.S.j.3 e v.K.K.",
"K.v.5 ) L.A.1.g n 7.C.K.L.L.S.S.K.K.F.n.,.b ,.V.D.C.E > q.K.K.K.",
"K.K.E 6 j.K.S.a.N g b >.d.n.K.K.V.f.4.+.b 3.C.K.B./ > } F.K.K.K.",
"K.K.y., 6 0.S.D.K.i.&.l h x M N b h v >.f.S.K.S.X.3 ) C.K.K.K.K.",
"K.K.K.9.3 = ~ h.C.K.K.z.4.=.@.N =.2.g.K.K.K.B.} 6 ) v.K.K.K.K.K.",
"K.K.K.K.k.! , - q ' y.B.K.K.L.L.K.K.K.K.K.u.! 4 [ v.K.K.K.K.K.K.",
"K.K.K.K.F.S.j._ 0 = > 9 E ' 0.j.k.k.j.8./ 6 9 ..S.K.K.K.K.K.K.K.",
"K.K.K.K.K.K.K.K.B.w. .E 3 = = - < 2 > = 9 ) j.S.K.K.K.K.K.K.K.K.",
"K.K.K.K.K.K.K.K.K.K.K.K.v.j.9...' { ..9.v.S.K.K.K.K.K.K.K.K.K.K.",
"K.K.K.K.K.K.K.K.K.K.K.K.K.K.K.F.S.K.K.K.K.K.K.K.K.K.K.K.K.K.K.K."
};
