/* XPM */
static char * Type_xpm[] = {
"41 48 801 2",
"  	c None",
". 	c #FFFFFF",
"+ 	c #FFFDF6",
"@ 	c #FFFAE3",
"# 	c #FFF9E0",
"$ 	c #FFFDF3",
"% 	c #FFFDF8",
"& 	c #FAF2EA",
"* 	c #F5E7EB",
"= 	c #F2DCD5",
"- 	c #F7D99F",
"; 	c #FBE08E",
"> 	c #FDECB8",
", 	c #FFF7D5",
"' 	c #FFF8DD",
") 	c #FFFBEB",
"! 	c #FFFDF5",
"~ 	c #FFFEFB",
"{ 	c #FCF4E5",
"] 	c #EFCFB4",
"^ 	c #D69FB1",
"/ 	c #CB8AB7",
"( 	c #DA9D89",
"_ 	c #EBB867",
": 	c #F2C76D",
"< 	c #F6D375",
"[ 	c #FADC85",
"} 	c #FCE79F",
"| 	c #FEF1BB",
"1 	c #FFF9E4",
"2 	c #FFFDF4",
"3 	c #FBEBC4",
"4 	c #EBBF86",
"5 	c #CD868E",
"6 	c #B760B6",
"7 	c #BC67A7",
"8 	c #C97C91",
"9 	c #D28E8A",
"0 	c #DFA474",
"a 	c #ECB75E",
"b 	c #F6CA53",
"c 	c #FDE175",
"d 	c #FFF5CB",
"e 	c #FEF7DE",
"f 	c #F8DA8A",
"g 	c #EBB657",
"h 	c #D28975",
"i 	c #AF54C0",
"j 	c #9C35EB",
"k 	c #9930F2",
"l 	c #A444DE",
"m 	c #BE6DA5",
"n 	c #DB9964",
"o 	c #F3C14A",
"p 	c #FDE077",
"q 	c #FFF7D1",
"r 	c #FFFCF0",
"s 	c #FBEABB",
"t 	c #F2C971",
"u 	c #E5A851",
"v 	c #C87984",
"w 	c #A443D8",
"x 	c #942AFE",
"y 	c #9225FF",
"z 	c #9429FC",
"A 	c #A646D7",
"B 	c #CB7E87",
"C 	c #EEB64C",
"D 	c #FBDA68",
"E 	c #FFF0B6",
"F 	c #FFFBF1",
"G 	c #FFFEF3",
"H 	c #FFF1B7",
"I 	c #FAD96C",
"J 	c #EEBB4D",
"K 	c #DE9C51",
"L 	c #C57189",
"M 	c #A340DB",
"N 	c #952BFF",
"O 	c #9328FF",
"P 	c #9227FF",
"Q 	c #A23FDC",
"R 	c #C8798A",
"S 	c #E8AE48",
"T 	c #F8CD47",
"U 	c #FFE580",
"V 	c #FFF6D7",
"W 	c #FFF7D6",
"X 	c #FEE172",
"Y 	c #FACE38",
"Z 	c #EBB137",
"` 	c #D48962",
" .	c #B75DA5",
"..	c #9D36E4",
"+.	c #9022FD",
"@.	c #8E1EFF",
"#.	c #8B19FF",
"$.	c #9C32D9",
"%.	c #C47189",
"&.	c #E3A350",
"*.	c #F2BF45",
"=.	c #FDDF71",
"-.	c #FFF5D0",
";.	c #FFFBED",
">.	c #FFECA1",
",.	c #FED744",
"'.	c #F5C129",
").	c #E5A53E",
"!.	c #CA7A77",
"~.	c #A847C4",
"{.	c #9224F0",
"].	c #8B18FB",
"^.	c #8914FE",
"/.	c #860EFF",
"(.	c #9120E5",
"_.	c #B65AA4",
":.	c #D99160",
"<.	c #EFB944",
"[.	c #FCDB65",
"}.	c #FFFDF0",
"|.	c #FFFCF4",
"1.	c #FFF1B8",
"2.	c #FFDD58",
"3.	c #FCCE2A",
"4.	c #F0B82C",
"5.	c #E19F47",
"6.	c #CB7D73",
"7.	c #AB4ABA",
"8.	c #9221EB",
"9.	c #8A15F9",
"0.	c #8A15FF",
"a.	c #8811F9",
"b.	c #A039D0",
"c.	c #CB7C7F",
"d.	c #E7AD4B",
"e.	c #F6CB5A",
"f.	c #FDE48C",
"g.	c #FFF2C0",
"h.	c #FEE273",
"i.	c #FBCF3E",
"j.	c #F3BE36",
"k.	c #ECB23A",
"l.	c #E19E4A",
"m.	c #CA7977",
"n.	c #A743B6",
"o.	c #8F1BE7",
"p.	c #8811FB",
"q.	c #8914FF",
"r.	c #8913FF",
"s.	c #860DFF",
"t.	c #982BDC",
"u.	c #C3708C",
"v.	c #DE9B5C",
"w.	c #E8B25F",
"x.	c #F6D478",
"y.	c #FEEEB8",
"z.	c #FFFCF1",
"A.	c #FFF8D9",
"B.	c #FEE276",
"C.	c #FAD145",
"D.	c #F0BD43",
"E.	c #ECB242",
"F.	c #EBAE39",
"G.	c #DB9551",
"H.	c #BA5F94",
"I.	c #9C30D1",
"J.	c #8C18F2",
"K.	c #8811FE",
"L.	c #8A14FF",
"M.	c #850BFF",
"N.	c #9424DE",
"O.	c #BF6994",
"P.	c #D99367",
"Q.	c #DE9F67",
"R.	c #EBBB6F",
"S.	c #FBDF93",
"T.	c #FFF7D8",
"U.	c #FEEAA1",
"V.	c #FCD447",
"W.	c #F2C035",
"X.	c #EAB040",
"Y.	c #EDB232",
"Z.	c #EAAC33",
"`.	c #CE8065",
" +	c #A740B9",
".+	c #901FEE",
"++	c #8C19FC",
"@+	c #8B15FF",
"#+	c #8811FF",
"$+	c #8308FF",
"%+	c #8E1AEA",
"&+	c #B154B0",
"*+	c #CF857C",
"=+	c #D8946C",
"-+	c #E1A56D",
";+	c #F1C97D",
">+	c #FDEDB6",
",+	c #FFFDF1",
"'+	c #FFEEAE",
")+	c #FEDB55",
"!+	c #F7C630",
"~+	c #ECB237",
"{+	c #EDB130",
"]+	c #F1B821",
"^+	c #E19E41",
"/+	c #B65897",
"(+	c #9424E1",
"_+	c #8D1DFD",
":+	c #9022FF",
"<+	c #8D1BFF",
"[+	c #850CFF",
"}+	c #840AFF",
"|+	c #8811FA",
"1+	c #9F37D6",
"2+	c #C37192",
"3+	c #D6916B",
"4+	c #DC9A6B",
"5+	c #E9B56E",
"6+	c #F9DC8D",
"7+	c #FFFCF2",
"8+	c #FFF2BC",
"9+	c #FEDF68",
"0+	c #FACD36",
"a+	c #EEB634",
"b+	c #EBAE35",
"c+	c #F2B921",
"d+	c #EBAC2F",
"e+	c #C6737D",
"f+	c #9C32D3",
"g+	c #8F1FF9",
"h+	c #9329FF",
"i+	c #9832FF",
"j+	c #9A35FF",
"k+	c #9023FF",
"l+	c #8711FF",
"m+	c #8710FF",
"n+	c #9323E9",
"o+	c #B154AE",
"p+	c #D08575",
"q+	c #DA9765",
"r+	c #E1A465",
"s+	c #F1C774",
"t+	c #FDECB3",
"u+	c #FFFDF7",
"v+	c #FFF5CC",
"w+	c #FFE682",
"x+	c #FDD54A",
"y+	c #F3C037",
"z+	c #EBB039",
"A+	c #EEB42B",
"B+	c #F1B824",
"C+	c #D78F59",
"D+	c #A948C0",
"E+	c #9529F7",
"F+	c #962CFF",
"G+	c #9934FF",
"H+	c #A042FF",
"I+	c #9731FF",
"J+	c #8915FF",
"K+	c #870EFF",
"L+	c #8812FF",
"M+	c #8C18F9",
"N+	c #9F35D1",
"O+	c #C57289",
"P+	c #DA9561",
"Q+	c #DB9963",
"R+	c #E6AF66",
"S+	c #F6D485",
"T+	c #FDF0C3",
"U+	c #FFF8DC",
"V+	c #FFE894",
"W+	c #FEDC62",
"X+	c #F9CD40",
"Y+	c #F1BD38",
"Z+	c #EDB439",
"`+	c #EEB539",
" @	c #E2A153",
".@	c #BF6B9A",
"+@	c #9E38E5",
"@@	c #972EFF",
"#@	c #9020FF",
"$@	c #8F21FF",
"%@	c #952CFF",
"&@	c #860CFF",
"*@	c #8D1AFF",
"=@	c #9425E7",
"-@	c #B254A9",
";@	c #D08572",
">@	c #D7936A",
",@	c #DD9E6E",
"'@	c #ECBD76",
")@	c #F9E099",
"!@	c #FFF5D2",
"~@	c #FFFEF7",
"{@	c #FFFFFB",
"]@	c #FFFAE8",
"^@	c #FEF0BD",
"/@	c #FCDD75",
"(@	c #F9D157",
"_@	c #F7C83F",
":@	c #F2C03B",
"<@	c #EDB749",
"[@	c #E4AA6E",
"}@	c #C87FA3",
"|@	c #A647DB",
"1@	c #9831F9",
"2@	c #972FFF",
"3@	c #9123FF",
"4@	c #8A16FF",
"5@	c #8B17FF",
"6@	c #870FFF",
"7@	c #8C19FF",
"8@	c #9326FF",
"9@	c #9222F8",
"0@	c #9A2EDA",
"a@	c #B65CA6",
"b@	c #CE8585",
"c@	c #D89987",
"d@	c #E4B08E",
"e@	c #F2D098",
"f@	c #F9E4B9",
"g@	c #FDF5E3",
"h@	c #FFFEFA",
"i@	c #FFFEFF",
"j@	c #FFFFFC",
"k@	c #FFFAEA",
"l@	c #FEF3CD",
"m@	c #FBE8B2",
"n@	c #F5D382",
"o@	c #F1C35F",
"p@	c #F3C043",
"q@	c #EDB84C",
"r@	c #DDA079",
"s@	c #CA85B5",
"t@	c #B05BE4",
"u@	c #9932FA",
"v@	c #942BFF",
"w@	c #8E1CFF",
"x@	c #8A17FF",
"y@	c #9428FF",
"z@	c #9122FF",
"A@	c #8C19F8",
"B@	c #9A31DE",
"C@	c #B965B9",
"D@	c #D191A9",
"E@	c #DEACAD",
"F@	c #EBC6AF",
"G@	c #EED1B9",
"H@	c #F4E0CE",
"I@	c #FBF1E2",
"J@	c #FBF6F7",
"K@	c #FCF9FF",
"L@	c #FEFDFF",
"M@	c #FFFFFE",
"N@	c #FFFEF6",
"O@	c #FEF6D9",
"P@	c #FDEEBB",
"Q@	c #F8DE9E",
"R@	c #EFC88A",
"S@	c #EAB867",
"T@	c #EBB354",
"U@	c #D99876",
"V@	c #BA68BA",
"W@	c #A64AEB",
"X@	c #9A35FC",
"Y@	c #9327FF",
"Z@	c #8D1DFF",
"`@	c #8F20FF",
" #	c #8E1DFF",
".#	c #8C18FF",
"+#	c #8E1CFB",
"@#	c #A64AE9",
"##	c #C583D0",
"$#	c #D9A9C5",
"%#	c #E4BCBE",
"&#	c #E5BFBB",
"*#	c #EAC7B8",
"=#	c #F0D4BF",
"-#	c #F3DFDF",
";#	c #F6EDF9",
">#	c #FDFAFF",
",#	c #FFFEF4",
"'#	c #FFF8DA",
")#	c #FEEFBA",
"!#	c #F9DD93",
"~#	c #EEC47E",
"{#	c #E5AD6E",
"]#	c #DA9C81",
"^#	c #BD6DB7",
"/#	c #9E3AEA",
"(#	c #9429FD",
"_#	c #9935FF",
":#	c #9226FF",
"<#	c #8D1CFF",
"[#	c #8810FF",
"}#	c #A346FD",
"|#	c #B76EF0",
"1#	c #C789DC",
"2#	c #D19AC6",
"3#	c #D59FB9",
"4#	c #DBA6AF",
"5#	c #DEB0B0",
"6#	c #E4BFC9",
"7#	c #F1E0ED",
"8#	c #FCF9FC",
"9#	c #FFFCE8",
"0#	c #FEF5D4",
"a#	c #F6E0B9",
"b#	c #E4B59E",
"c#	c #CF8B9F",
"d#	c #BE72C4",
"e#	c #A94EEB",
"f#	c #982FFC",
"g#	c #9429FF",
"h#	c #9B37FF",
"i#	c #A349FF",
"j#	c #8F1FFF",
"k#	c #9831FF",
"l#	c #962DFF",
"m#	c #8409FF",
"n#	c #9F40FF",
"o#	c #A64DFD",
"p#	c #A950F2",
"q#	c #B667DC",
"r#	c #C17ACA",
"s#	c #CB89B3",
"t#	c #D195AA",
"u#	c #DBACC4",
"v#	c #EED8E5",
"w#	c #FBF5F6",
"x#	c #FEFDFE",
"y#	c #FFFEF9",
"z#	c #FFFCEC",
"A#	c #FCF4DC",
"B#	c #EBD0D4",
"C#	c #C888DC",
"D#	c #AD56E3",
"E#	c #A344F3",
"F#	c #9B36FD",
"G#	c #9B38FF",
"H#	c #9F3DFF",
"I#	c #A74FFF",
"J#	c #AD5CFF",
"K#	c #A143FF",
"L#	c #9830FF",
"M#	c #9124FF",
"N#	c #8E1FFF",
"O#	c #9730FF",
"P#	c #9C3AFF",
"Q#	c #8408FF",
"R#	c #9B37FD",
"S#	c #A950F0",
"T#	c #BE75CE",
"U#	c #CD8BA0",
"V#	c #D49696",
"W#	c #DDADB1",
"X#	c #EDD4CE",
"Y#	c #FBF2E8",
"Z#	c #FEFDFB",
"`#	c #FBE8B6",
" $	c #E3B8AC",
".$	c #B769D7",
"+$	c #9B37FA",
"@$	c #A549FF",
"#$	c #AA54FF",
"$$	c #AF5FFF",
"%$	c #AF60FF",
"&$	c #9F3EFF",
"*$	c #9D3AFF",
"=$	c #942AFF",
"-$	c #9A37FF",
";$	c #9C3BFF",
">$	c #850DFF",
",$	c #8307FF",
"'$	c #9933FF",
")$	c #A345F8",
"!$	c #B768D6",
"~$	c #D194A2",
"{$	c #DEA680",
"]$	c #E1AB7F",
"^$	c #E8BD8E",
"/$	c #F3D8A4",
"($	c #FDF2D5",
"_$	c #FEFDF8",
":$	c #FFFEFD",
"<$	c #FFFAE9",
"[$	c #FBE5A9",
"}$	c #E9BA7F",
"|$	c #C87E95",
"1$	c #A544D9",
"2$	c #962EFA",
"3$	c #9932FF",
"4$	c #A74EFF",
"5$	c #B163FF",
"6$	c #A953FF",
"7$	c #9E3EFF",
"8$	c #9D3CFF",
"9$	c #9A36FF",
"0$	c #9B39FF",
"a$	c #8206FF",
"b$	c #9C39F7",
"c$	c #B35FD4",
"d$	c #D08D99",
"e$	c #E2AB74",
"f$	c #E9B76E",
"g$	c #EDC072",
"h$	c #F3D07A",
"i$	c #FCE59E",
"j$	c #FEF0CA",
"k$	c #F3CC6F",
"l$	c #E2A45C",
"m$	c #C27195",
"n$	c #A949D0",
"o$	c #A03BE4",
"p$	c #9932F9",
"q$	c #9F3FFF",
"r$	c #AC59FF",
"s$	c #9125FF",
"t$	c #A343EA",
"u$	c #C477A3",
"v$	c #DD9E6B",
"w$	c #E3AA66",
"x$	c #EDBC66",
"y$	c #F6CF6A",
"z$	c #FBDE7B",
"A$	c #FFF1BF",
"B$	c #FFF9E5",
"C$	c #FBE08A",
"D$	c #F2C24D",
"E$	c #E1A154",
"F$	c #CA7A7D",
"G$	c #BA62A2",
"H$	c #A543D7",
"I$	c #9A35F8",
"J$	c #A244FF",
"K$	c #A348FF",
"L$	c #9021FF",
"M$	c #860FFF",
"N$	c #8B18FF",
"O$	c #9831F7",
"P$	c #B158CD",
"Q$	c #CF8683",
"R$	c #DB9960",
"S$	c #E2A763",
"T$	c #F1C362",
"U$	c #FAD96A",
"V$	c #FEE892",
"W$	c #FEF3C8",
"X$	c #FBDB75",
"Y$	c #F3C144",
"Z$	c #E3A148",
"`$	c #CE816D",
" %	c #BC669C",
".%	c #A84AD7",
"+%	c #9C39F8",
"@%	c #A041FF",
"#%	c #A54AFF",
"$%	c #9124F9",
"%%	c #A94BD9",
"&%	c #C3739B",
"*%	c #D48C6C",
"=%	c #DD9A61",
"-%	c #E9B45F",
";%	c #F8D266",
">%	c #FEE689",
",%	c #FFF4C7",
"'%	c #FFF0BA",
")%	c #FCD75B",
"!%	c #F0BA41",
"~%	c #DC9754",
"{%	c #D0836D",
"]%	c #C37199",
"^%	c #AB50D4",
"/%	c #962AF8",
"(%	c #A853FF",
"_%	c #AD5DFF",
":%	c #B266FF",
"<%	c #B56BFF",
"[%	c #B062FF",
"}%	c #850AFF",
"|%	c #8813FF",
"1%	c #9E38ED",
"2%	c #BB67B0",
"3%	c #CE8276",
"4%	c #D69069",
"5%	c #E4A862",
"6%	c #F5CA63",
"7%	c #FDE385",
"8%	c #FFF4C6",
"9%	c #FFF9DF",
"0%	c #FEE683",
"a%	c #FAD250",
"b%	c #ECB647",
"c%	c #DE9B53",
"d%	c #D79169",
"e%	c #C57897",
"f%	c #A646D6",
"g%	c #9226F7",
"h%	c #AB58FF",
"i%	c #B772FF",
"j%	c #BD7CFF",
"k%	c #B973FF",
"l%	c #9C39FF",
"m%	c #8E1CF8",
"n%	c #A849D4",
"o%	c #C57692",
"p%	c #D48E6E",
"q%	c #DDA06F",
"r%	c #EEC170",
"s%	c #FBDF87",
"t%	c #FFF3C3",
"u%	c #FFFCF3",
"v%	c #FFF4C5",
"w%	c #FFE47D",
"x%	c #FAD457",
"y%	c #EEBB4B",
"z%	c #E3A657",
"A%	c #D5906D",
"B%	c #BE6A9D",
"C%	c #A23ED7",
"D%	c #952AF8",
"E%	c #9F41FF",
"F%	c #A245FF",
"G%	c #8C1AFF",
"H%	c #9A32E8",
"I%	c #BB66A8",
"J%	c #D48E73",
"K%	c #E0A469",
"L%	c #EBBC6D",
"M%	c #F8D87E",
"N%	c #FEF0BA",
"O%	c #FFE278",
"P%	c #F9D35F",
"Q%	c #EAB55B",
"R%	c #DB9867",
"S%	c #CD8078",
"T%	c #B75DA6",
"U%	c #972BE7",
"V%	c #8C1BFF",
"W%	c #9428F9",
"X%	c #AB4ED0",
"Y%	c #CD8386",
"Z%	c #E5A95D",
"`%	c #EFBE61",
" &	c #F8D56C",
".&	c #FDE78E",
"+&	c #FFF7D7",
"@&	c #FFF8E2",
"#&	c #FFEB99",
"$&	c #FDDE73",
"%&	c #F1C367",
"&&	c #DEA06D",
"*&	c #D08570",
"=&	c #C26D8A",
"-&	c #A43FCE",
";&	c #9021F7",
">&	c #9D36E7",
",&	c #BD6AA6",
"'&	c #DE9D69",
")&	c #F0BD51",
"!&	c #FAD45C",
"~&	c #FEE587",
"{&	c #FFF3C5",
"]&	c #FFF6CF",
"^&	c #FFE78F",
"/&	c #F8D56E",
"(&	c #E9B46B",
"_&	c #D7926B",
":&	c #CD7F70",
"<&	c #C06C99",
"[&	c #AE56D4",
"}&	c #A243F8",
"|&	c #9A2FE2",
"1&	c #BF6A9C",
"2&	c #E4A967",
"3&	c #F6CC5C",
"4&	c #FEE173",
"5&	c #FFF1BA",
"6&	c #FFF4CB",
"7&	c #FEE58A",
"8&	c #F5CD6A",
"9&	c #E5AD65",
"0&	c #DA9567",
"a&	c #D38B6D",
"b&	c #CD8796",
"c&	c #C079D4",
"d&	c #AE5CF8",
"e&	c #A144FF",
"f&	c #8B19FC",
"g&	c #992DE5",
"h&	c #BF6BA5",
"i&	c #E8B36D",
"j&	c #FBD96C",
"k&	c #FFE893",
"l&	c #FEFDF6",
"m&	c #FEF4CA",
"n&	c #FDE286",
"o&	c #F5CC68",
"p&	c #E8B269",
"q&	c #DEA066",
"r&	c #DD9F6D",
"s&	c #DAA29F",
"t&	c #CB92E2",
"u&	c #B267FF",
"v&	c #A44AFF",
"w&	c #8D1EFF",
"x&	c #9020F6",
"y&	c #A542D7",
"z&	c #CC87AA",
"A&	c #F1C986",
"B&	c #FEE793",
"C&	c #FFF4C4",
"D&	c #FDE180",
"E&	c #F6D076",
"F&	c #EABB79",
"G&	c #E7B371",
"H&	c #E3B291",
"I&	c #D8A9D6",
"J&	c #CE9DFB",
"K&	c #BE7FFF",
"L&	c #A54BFF",
"M&	c #9124FD",
"N&	c #982EEE",
"O&	c #B560CB",
"P&	c #DFADAB",
"Q&	c #FAE2A9",
"R&	c #FFF3C0",
"S&	c #FFEA99",
"T&	c #FDE287",
"U&	c #F7D788",
"V&	c #F1C97C",
"W&	c #E7B98B",
"X&	c #D6A2BD",
"Y&	c #C78DEB",
"Z&	c #B670FF",
"`&	c #9931F5",
" *	c #A94DD8",
".*	c #CA88B6",
"+*	c #EECBA6",
"@*	c #FFEFBB",
"#*	c #FFF9E2",
"$*	c #FFFFF8",
"%*	c #FEEDAD",
"&*	c #FCE9A7",
"**	c #F7DCA7",
"=*	c #EBC5A4",
"-*	c #D8A5BD",
";*	c #C485E8",
">*	c #AE5EFD",
",*	c #9B35F4",
"'*	c #B35ECF",
")*	c #DBA6AD",
"!*	c #F7DDAA",
"~*	c #FFFCEB",
"{*	c #FFF4CC",
"]*	c #FDECBB",
"^*	c #F4DBAD",
"/*	c #EAC7B9",
"(*	c #D8A9D8",
"_*	c #BC74EE",
":*	c #A446EF",
"<*	c #9D38EB",
"[*	c #A03EE8",
"}*	c #B96AD4",
"|*	c #E2B7B9",
"1*	c #FBEBBD",
"2*	c #FFF8E1",
"3*	c #FFFBEC",
"4*	c #FEF4CF",
"5*	c #FDEAB1",
"6*	c #F9E1A4",
"7*	c #EBCCBE",
"8*	c #D8A7C6",
"9*	c #D6968C",
"0*	c #D8936A",
"a*	c #D28E8B",
"b*	c #D8A2B3",
"c*	c #EED3C8",
"d*	c #FFF4D5",
"e*	c #FFFCEF",
"f*	c #FEEA9F",
"g*	c #F7E0AB",
"h*	c #F1D3B4",
"i*	c #F2CA79",
"j*	c #F5C955",
"k*	c #F1CA80",
"l*	c #F2D8BD",
"m*	c #FAEFE4",
"n*	c #FFFEFC",
"o*	c #FFFAE4",
"p*	c #FEEEB5",
"q*	c #FDF1D4",
"r*	c #FEF5DF",
"s*	c #FDF6DC",
"t*	c #FDF6E5",
"u*	c #FDF8F1",
"v*	c #FFF8DE",
"w*	c #FFFAEB",
"x*	c #FFFDF2",
"y*	c #FFFEF8",
"z*	c #FFFFFD",
". . . . . . . . . . . . . . . . . . . . . . . . . . . . . . . . . . . . . . . . . ",
". . . . . . . . . . . . . . . . . . . . . . . . . . . . . . . . . . . . . . . . . ",
". . . . . . . . . . . . . . . . . . + @ # $ . . . . . . . . . . . . . . . . . . . ",
". . . . . . . . . . . . . . . % & * = - ; > , ' ) ! ~ . . . . . . . . . . . . . . ",
". . . . . . . . . . . . . . . { ] ^ / ( _ : < [ } | 1 . . . . . . . . . . . . . . ",
". . . . . . . . . . . . . . 2 3 4 5 6 7 8 9 0 a b c d . . . . . . . . . . . . . . ",
". . . . . . . . . . . . . . e f g h i j k l m n o p q . . . . . . . . . . . . . . ",
". . . . . . . . . . . . . r s t u v w x y z A B C D E F . . . . . . . . . . . . . ",
". . . . . . . . . . . . G H I J K L M N O P Q R S T U V . . . . . . . . . . . . . ",
". . . . . . . . . . . . W X Y Z `  ...+.@.#.$.%.&.*.=.-.. . . . . . . . . . . . . ",
". . . . . . . . . . . ;.>.,.'.).!.~.{.].^./.(._.:.<.[.E }.. . . . . . . . . . . . ",
". . . . . . . . . . |.1.2.3.4.5.6.7.8.9.0./.a.b.c.d.e.f., . . . . . . . . . . . . ",
". . . . . . . . . $ g.h.i.j.k.l.m.n.o.p.q.r.s.t.u.v.w.x.y.z.. . . . . . . . . . . ",
". . . . . . . . . A.B.C.D.E.F.G.H.I.J.K.0.L.M.N.O.P.Q.R.S.T.. . . . . . . . . . . ",
". . . . . . . . ;.U.V.W.X.Y.Z.`. +.+++@+#+/.$+%+&+*+=+-+;+>+}.. . . . . . . . . . ",
". . . . . . . ,+'+)+!+~+{+]+^+/+(+_+:+<+#+[+}+|+1+2+3+4+5+6+W . . . . . . . . . . ",
". . . . . . 7+8+9+0+a+b+c+d+e+f+g+h+i+j+k+l+/.m+n+o+p+q+r+s+t+r . . . . . . . . . ",
". . . . . u+v+w+x+y+z+A+B+C+D+E+F+N G+H+I+J+K+L+M+N+O+P+Q+R+S+T+7+. . . . . . . . ",
". . . . ~ U+V+W+X+Y+Z+`+ @.@+@@@F+#@$@%@:+#+&@q.*@=@-@;@>@,@'@)@!@~@. . . . . . . ",
". . . {@]@^@/@(@_@:@<@[@}@|@1@2@3@4@4@5@L+6@6@7@8@9@0@a@b@c@d@e@f@g@h@i@i@. . . . ",
". . j@k@l@m@n@o@p@q@r@s@t@u@v@%@w@r.4@#+m+0.x@@.y@z@A@B@C@D@E@F@G@H@I@J@K@L@. . . ",
". M@N@O@P@Q@R@S@T@U@V@W@X@Y@v@O 0.m+0.6@L+Z@`@ #<+.#r.+#@###$#%#&#*#=#-#;#>#. . . ",
". M@,#'#)#!#~#{#]#^#/#(#:+Y@_#O r.r.4@/.J+y :#<#L+s.[#Z@}#|#1#2#3#4#5#6#7#8#. . . ",
". M@~@9#0#a#b#c#d#e#f#v@g#h#i#i+ #j#<+q.$@k#l#`@L+m#K+`@n#o#p#q#r#s#t#u#v#w#x#. . ",
". M@y#z#A#B#C#D#E#F#2@G#H#I#J#K#k#L#M#N#O#P#2@j##+Q#&@5@N j+R#S#T#U#V#W#X#Y#Z#. . ",
". . h@1 `# $.$+$l#:#L#@$#$$$%$i#&$*$=$:#-$;$v@7@>$,$m#6@j#'$)$!$~${$]$^$/$($_$. . ",
". . :$<$[$}$|$1$2$:#3$4$%$5$6$7$8$G#O Y@9$0$O r.}+a$Q#6@#@b$c$d$e$f$g$h$i$' j@. . ",
". . . y#j$k$l$m$n$o$p$q$r$J#H+i+G#9$Y@Y@j+G#y #+m#$+M.L.s$t$u$v$w$x$y$z$A$! . . . ",
". . . . B$C$D$E$F$G$H$I$J$K$I+l#P#_#g#F+P#-$L$M$M.M.s.N$O$P$Q$R$S$T$U$V$' . . . . ",
". . . . + W$X$Y$Z$`$ %.%+%l#3@I+@%;$G#@%#%;$<#[+s.[+6@$%%%&%*%=%-%;%>%,%2 . . . . ",
". . . . . N@'%)%!%~%{%]%^%/%j#-$(%_%:%<%[%n#5@}%M.}+|%1%2%3%4%5%6%7%8%2 . . . . . ",
". . . . . . 9%0%a%b%c%d%e%f%g%_#h%i%j%k%J#l%.#>$[+&@m%n%o%p%q%r%s%t%u%. . . . . . ",
". . . . . . ! v%w%x%y%z%A%B%C%D%I+E%F%*$l#y j#G%r.4@H%I%J%K%L%M%N%$ . . . . . . . ",
". . . . . . . ! g.O%P%Q%R%S%T%U%r.0.4@l+L+7@z@`@V%W%X%Y%Z%`% &.&+&. . . . . . . . ",
". . . . . . . . @&#&$&%&&&*&=&-&;&7@4@J+7@w@*@N$<#>&,&'&)&!&~&{&u%. . . . . . . . ",
". . . . . . . . ~@]&^&/&(&_&:&<&[&}&O#:#g#g#w@q.N$|&1&2&3&4&5&2 . . . . . . . . . ",
". . . . . . . . . + 6&7&8&9&0&a&b&c&d&e&q$P#8@#.f&g&h&i&j&k&V . . . . . . . . . . ",
". . . . . . . . . . l&m&n&o&p&q&r&s&t&j%u&v&l#w&x&y&z&A&B&6&|.. . . . . . . . . . ",
". . . . . . . . . . . ! C&D&E&F&G&H&I&J&K&L&g#M&N&O&P&Q&R&]@. . . . . . . . . . . ",
". . . . . . . . . . . . 9%S&T&U&V&W&X&Y&Z&e&N `& *.*+*@*#*h@. . . . . . . . . . . ",
". . . . . . . . . . . . $*, %*&***=*-*;*>*l%=$,*'*)*!*{&~*. . . . . . . . . . . . ",
". . . . . . . . . . . . . % #*{*]*^*/*(*_*:*<*[*}*|*1*2*h@. . . . . . . . . . . . ",
". . . . . . . . . . . . . . ~ 3*4*5*6*7*8*9*0*a*b*c*d*e*. . . . . . . . . . . . . ",
". . . . . . . . . . . . . . . j@3*{&f*g*h*i*j*k*l*m*;.u+. . . . . . . . . . . . . ",
". . . . . . . . . . . . . . . . n*o*5&p*q*r*s*t*u*_$h@M@. . . . . . . . . . . . . ",
". . . . . . . . . . . . . . . . . ! v*T.w*h@:$. . M@M@. . . . . . . . . . . . . . ",
". . . . . . . . . . . . . . . . . n*2 x*y*z*M@. . . . . . . . . . . . . . . . . . ",
". . . . . . . . . . . . . . . . . M@n*~ :$. . . . . . . . . . . . . . . . . . . . "};
