/* XPM */
static char * unknown_xpm[] = {
"48 48 18 1",
" 	c None",
".	c #FFFFFF",
"+	c #FFEFEF",
"@	c #FF9F9F",
"#	c #FF6F6F",
"$	c #FF3F3F",
"%	c #FF5F5F",
"&	c #FF8F8F",
"*	c #FFDFDF",
"=	c #FF7F7F",
"-	c #FFBFBF",
";	c #FFAFAF",
">	c #FF0F0F",
",	c #FF0000",
"'	c #FFCFCF",
")	c #FF4F4F",
"!	c #FF2F2F",
"~	c #FF1F1F",
"....+@#$%&*...........*&=$$%+.........-=$$=;....",
"...->,,,,,>@.........',,,,,,#.......+),,,,,,%+..",
"..@,,,,,,,,,@........$,,,,,,)......'>,,,,,,,,!..",
".-,,,,,,,,,,>+.......>,!,,,,=.....+!,,,,,,,,,,@.",
"+>,,,,,,,,,,,=.......$,$,,,,=.....#,,,,,,,,,,,~.",
";,,,$=!,,,,,,!.......$,$,,,,;.....>,,~=%,,,,,,,-",
"#,,&..+>,,,,,,.......$,>,,,,-....',,!+..#,,,,,,@",
"=,#....#,!,,,,*......=,,,,,,*....*,!+...-,,,,,,=",
".'.....=,,,,,,*......=,,,,,,......*......,,!,,,=",
".......=,,,,,>.......&,,,,,>............+,,>,,,;",
".......%,,,,,$.......-,,,,,$............-,,,,,,+",
".......$,,,,,=.......-,,,,,$............;,,,,,~.",
".......~,,,,,'.......',,,,,#............=,,,,,%.",
"......*,,,,,$.........,,,,,=............$,,,,,*.",
"......&,,,,,-.........,,,,,@...........+,,,,,%..",
"......),,,,!..........~,,,,-...........;,,,,,-..",
"......>,,,,@..........$,,,,-...........#,,,,$...",
".....',,,,~...........$,,,,............!,,,,-...",
".....=,,,,-...........#,,,,...........*,,,,)....",
".....$,,,)............=,,,!...........@,,,>*....",
"....+,,,,'............=,,,$...........%,,,%.....",
"....;,,,$.............;,,,)...........>,,,*.....",
"....=,,,-.............-,,,=..........',,,%......",
"....),,$..............-,,,=..........-,,,'......",
"....$,,=...............,,,-..........=,,>.......",
"....,,,@...............,,,-..........=,,$.......",
"....~,,-...............>,,*..........=,,#.......",
"....$,,-...............$,,...........&,,=.......",
"....#,,-...............$,>...........',,).......",
"....-,,-...............=,)............~,).......",
".....#)................+)'............-$;.......",
"................................................",
"................................................",
"................................................",
"................................................",
"....+$~-..............+$>;............&,#.......",
"....),,>+.............#,,>*..........;,,,&......",
"...&,,,,)............-,,,,$.........+>,,,>*.....",
"..'>,,,,,&..........+~,,,,,&........$,,,,,!.....",
"..!,,,,,,>*.........#,,,,,,,*......&,,>,,,,=....",
".;,,!,,,,,#........-,,>,,,,,#......>,~,,,,,>....",
".&,>!,,,,,)........;,,$,,,,,)......,,$,,,,,,....",
".*,,$,,,,>'........*>,$,,,,,@......$,~>,,,,=....",
"..&,,>,,,&..........&,,>,,,$.......*>,~,,,!.....",
"...$,,,,$............$,,,,>+........;,,,,,'.....",
"...*>,,,'............+>,,,;..........),,,=......",
"....;,,=..............;,,#...........+>,~+......",
".....'-................'-.............+-+......."};
