/* XPM */
static char * usecase_xpm[] = {
"48 33 841 2",
"  	c None",
". 	c #FFFFFF",
"+ 	c #FEFEFF",
"@ 	c #FEFFFF",
"# 	c #FDFEFF",
"$ 	c #FCFDFF",
"% 	c #FBFDFF",
"& 	c #FAFCFF",
"* 	c #F9FCFF",
"= 	c #F7FAFF",
"- 	c #F5F9FE",
"; 	c #F8FBFE",
"> 	c #F8FBFF",
", 	c #F9FBFE",
"' 	c #FFFEFE",
") 	c #FEFEFE",
"! 	c #F3FAFF",
"~ 	c #C5DAFD",
"{ 	c #A9CBFF",
"] 	c #89BAFF",
"^ 	c #76ACFF",
"/ 	c #7AAEFE",
"( 	c #7AAFFE",
"_ 	c #73ABFF",
": 	c #6CA5FA",
"< 	c #609FFF",
"[ 	c #5397FE",
"} 	c #5196FF",
"| 	c #438EFF",
"1 	c #418DFF",
"2 	c #4791FC",
"3 	c #468FFE",
"4 	c #3988FF",
"5 	c #4B93FF",
"6 	c #3C8AFF",
"7 	c #3384FF",
"8 	c #65A0FC",
"9 	c #97C1FD",
"0 	c #A7CBFB",
"a 	c #F7FAFD",
"b 	c #FCFCFE",
"c 	c #FDFDFD",
"d 	c #E0EEFE",
"e 	c #86B6FE",
"f 	c #4D94FB",
"g 	c #3B89FF",
"h 	c #3487FF",
"i 	c #3687FC",
"j 	c #3182FD",
"k 	c #3082FE",
"l 	c #3987FF",
"m 	c #3787FF",
"n 	c #2E81FC",
"o 	c #3686FF",
"p 	c #2E80FF",
"q 	c #3885FD",
"r 	c #2D7CF7",
"s 	c #397DE9",
"t 	c #377BE8",
"u 	c #2773EF",
"v 	c #4D89E6",
"w 	c #4588F0",
"x 	c #3884F8",
"y 	c #3181FC",
"z 	c #3183FF",
"A 	c #3F8BFF",
"B 	c #3989FF",
"C 	c #257CFD",
"D 	c #3A88FE",
"E 	c #89B6FE",
"F 	c #CAE0FF",
"G 	c #FDFEFD",
"H 	c #EEF5FD",
"I 	c #A2C7FE",
"J 	c #4A92FD",
"K 	c #2679F7",
"L 	c #136CF6",
"M 	c #1969E8",
"N 	c #1460DB",
"O 	c #1560DA",
"P 	c #1768E7",
"Q 	c #126BF4",
"R 	c #0E6CFC",
"S 	c #136FFA",
"T 	c #126CF9",
"U 	c #106CF6",
"V 	c #0C65F2",
"W 	c #0E65EF",
"X 	c #0D60E5",
"Y 	c #1759CB",
"Z 	c #1A61D7",
"` 	c #1A59C9",
" .	c #1C5ED0",
"..	c #1162EA",
"+.	c #186AEF",
"@.	c #2570EB",
"#.	c #357CEE",
"$.	c #3F86F2",
"%.	c #4A91FD",
"&.	c #3886FE",
"*.	c #3587FF",
"=.	c #3788FE",
"-.	c #5799FE",
";.	c #B4D2FE",
">.	c #EAF3FF",
",.	c #FCFDFE",
"'.	c #FDFDFE",
").	c #E6DFDF",
"!.	c #907B7D",
"~.	c #5E4858",
"{.	c #344A94",
"].	c #214FB0",
"^.	c #1D4EB4",
"/.	c #1A50B9",
"(.	c #174FB8",
"_.	c #1754C1",
":.	c #1359CE",
"<.	c #1460DC",
"[.	c #1964D9",
"}.	c #286EDA",
"|.	c #2565CD",
"1.	c #195BCB",
"2.	c #125AD4",
"3.	c #0D56D0",
"4.	c #1053CB",
"5.	c #1C46A3",
"6.	c #2C4999",
"7.	c #3A488B",
"8.	c #364A92",
"9.	c #2951AB",
"0.	c #1C53BD",
"a.	c #1E5ACA",
"b.	c #1158D2",
"c.	c #0F60E4",
"d.	c #2174F4",
"e.	c #3B87FB",
"f.	c #5196FE",
"g.	c #6CA8FF",
"h.	c #68A5FD",
"i.	c #7CB0FF",
"j.	c #D1E4FD",
"k.	c #F4F8FE",
"l.	c #FDFDFF",
"m.	c #FBFAFA",
"n.	c #A99E9E",
"o.	c #735050",
"p.	c #572525",
"q.	c #471616",
"r.	c #441112",
"s.	c #441B22",
"t.	c #452534",
"u.	c #472632",
"v.	c #401A28",
"w.	c #431A26",
"x.	c #4A2331",
"y.	c #4D2D3E",
"z.	c #58435B",
"A.	c #6A6581",
"B.	c #6D708C",
"C.	c #514458",
"D.	c #483443",
"E.	c #433341",
"F.	c #471C1C",
"G.	c #491A1A",
"H.	c #491717",
"I.	c #511F1F",
"J.	c #572626",
"K.	c #472A43",
"L.	c #3F2541",
"M.	c #3B1F3F",
"N.	c #392C55",
"O.	c #2C3E85",
"P.	c #2151B5",
"Q.	c #1C5ACC",
"R.	c #165BCF",
"S.	c #125CD9",
"T.	c #1868E9",
"U.	c #2376F8",
"V.	c #599BFF",
"W.	c #81B2FD",
"X.	c #83B5FD",
"Y.	c #C9DDFC",
"Z.	c #ECF3FE",
"`.	c #FCFCFC",
" +	c #FBFBFB",
".+	c #FEFDFD",
"++	c #EEE9E9",
"@+	c #7C5C5C",
"#+	c #481414",
"$+	c #451313",
"%+	c #451817",
"&+	c #4A1E1F",
"*+	c #5B2828",
"=+	c #4B1212",
"-+	c #552121",
";+	c #5A2828",
">+	c #50191A",
",+	c #623232",
"'+	c #876060",
")+	c #977877",
"!+	c #B7A1A1",
"~+	c #D9CDCD",
"{+	c #CDC6C7",
"]+	c #B5AFAD",
"^+	c #A89D9D",
"/+	c #9C8D8B",
"(+	c #918180",
"_+	c #A09191",
":+	c #746565",
"<+	c #5A4848",
"[+	c #553E3E",
"}+	c #5C3B3C",
"|+	c #643B3B",
"1+	c #704748",
"2+	c #5D2C2C",
"3+	c #420E10",
"4+	c #490D0E",
"5+	c #481312",
"6+	c #4A304A",
"7+	c #41365D",
"8+	c #424F8B",
"9+	c #36529C",
"0+	c #3A6BC9",
"a+	c #5F98F4",
"b+	c #8DBDFF",
"c+	c #B0D0FE",
"d+	c #CDE1FB",
"e+	c #D6E5FE",
"f+	c #FDFBFB",
"g+	c #B6ABAB",
"h+	c #5E3131",
"i+	c #481212",
"j+	c #4B1A1A",
"k+	c #531F20",
"l+	c #562424",
"m+	c #653636",
"n+	c #9D7E7E",
"o+	c #977372",
"p+	c #9F7F7F",
"q+	c #A88E8E",
"r+	c #C6B1B1",
"s+	c #E6E0E0",
"t+	c #FCFCFD",
"u+	c #FCFDFD",
"v+	c #D3D3D3",
"w+	c #C3C3C3",
"x+	c #C1C1C1",
"y+	c #CCCCCC",
"z+	c #AFAFAF",
"A+	c #C4C3C4",
"B+	c #A89D9F",
"C+	c #7E6766",
"D+	c #481817",
"E+	c #430D0F",
"F+	c #461414",
"G+	c #481515",
"H+	c #623736",
"I+	c #764B4D",
"J+	c #4B222E",
"K+	c #3E2543",
"L+	c #8599CD",
"M+	c #B9D5FA",
"N+	c #AFCEFD",
"O+	c #6FABFD",
"P+	c #89B9FF",
"Q+	c #A79D9D",
"R+	c #582B2B",
"S+	c #4B1818",
"T+	c #582323",
"U+	c #490D0D",
"V+	c #521C1C",
"W+	c #5D2727",
"X+	c #AC9091",
"Y+	c #D6C9CA",
"Z+	c #F9F8F8",
"`+	c #FCFBFB",
" @	c #E4E4E4",
".@	c #EAEBEA",
"+@	c #EAEAEB",
"@@	c #F2F2F2",
"#@	c #C5C4C4",
"$@	c #A99C9C",
"%@	c #704E4D",
"&@	c #512C2A",
"*@	c #552C2C",
"=@	c #502424",
"-@	c #622D2E",
";@	c #623533",
">@	c #674550",
",@	c #7086C0",
"'@	c #4290FF",
")@	c #297FFF",
"!@	c #4991FF",
"~@	c #EDE6E6",
"{@	c #623A3A",
"]@	c #491616",
"^@	c #4F1817",
"/@	c #4D1312",
"(@	c #6F3F42",
"_@	c #9B7A7B",
":@	c #EBE4E4",
"<@	c #FBF9F9",
"[@	c #F1F0F0",
"}@	c #C3BDBD",
"|@	c #8C7777",
"1@	c #512D2D",
"2@	c #491212",
"3@	c #5A2626",
"4@	c #774B4B",
"5@	c #454274",
"6@	c #176AED",
"7@	c #1070FD",
"8@	c #247BFE",
"9@	c #EBE5E5",
"0@	c #6E4B4B",
"a@	c #471212",
"b@	c #531E1D",
"c@	c #531A1A",
"d@	c #784E51",
"e@	c #CBBABC",
"f@	c #FDFCFC",
"g@	c #ECEBEB",
"h@	c #A19696",
"i@	c #593535",
"j@	c #552323",
"k@	c #613134",
"l@	c #6A4854",
"m@	c #1A54C0",
"n@	c #156EF9",
"o@	c #1C78FF",
"p@	c #7F6060",
"q@	c #440909",
"r@	c #400505",
"s@	c #491518",
"t@	c #554466",
"u@	c #A0AED2",
"v@	c #EBF0FD",
"w@	c #E5E5EE",
"x@	c #7B7BA7",
"y@	c #404080",
"z@	c #4B4B87",
"A@	c #ABABC7",
"B@	c #F6F4F4",
"C@	c #C0B8B8",
"D@	c #704848",
"E@	c #552221",
"F@	c #704243",
"G@	c #414986",
"H@	c #0C62E9",
"I@	c #0D6DFF",
"J@	c #E9E0E0",
"K@	c #552424",
"L@	c #420404",
"M@	c #430606",
"N@	c #402946",
"O@	c #2E6ED8",
"P@	c #3C8AFC",
"Q@	c #6DA7FD",
"R@	c #D3E4FD",
"S@	c #F2F2F6",
"T@	c #8787AF",
"U@	c #9393B7",
"V@	c #C3C3D7",
"W@	c #E9E9E9",
"X@	c #A9A0A0",
"Y@	c #5C2C2C",
"Z@	c #4E1515",
"`@	c #5E4A63",
" #	c #125DDA",
".#	c #076BFA",
"+#	c #8B7979",
"@#	c #481010",
"##	c #400404",
"$#	c #44090A",
"%#	c #2E4894",
"&#	c #2075F9",
"*#	c #277CFC",
"=#	c #539AFF",
"-#	c #DBECFF",
";#	c #6F6F9F",
">#	c #B7B7CF",
",#	c #E7E7EF",
"'#	c #F3F3F7",
")#	c #C2C2D6",
"!#	c #FAFAFA",
"~#	c #E8E7E7",
"{#	c #978382",
"]#	c #602F30",
"^#	c #602E2C",
"/#	c #335CB8",
"(#	c #0A65F4",
"_#	c #6C4544",
":#	c #440D0D",
"<#	c #480D0E",
"[#	c #4A1F2C",
"}#	c #2B67D2",
"|#	c #2F7FF8",
"1#	c #3285FF",
"2#	c #6AA3FD",
"3#	c #CFCFDF",
"4#	c #57578F",
"5#	c #DBDBE7",
"6#	c #9F9FBF",
"7#	c #636397",
"8#	c #CFCFCF",
"9#	c #808080",
"0#	c #755453",
"a#	c #592322",
"b#	c #5D6EA6",
"c#	c #0E63EB",
"d#	c #5F2F2F",
"e#	c #400708",
"f#	c #605373",
"g#	c #3181FB",
"h#	c #2980FE",
"i#	c #3889FE",
"j#	c #9AC3FE",
"k#	c #6E6E9E",
"l#	c #6D6D6D",
"m#	c #978889",
"n#	c #6F4040",
"o#	c #725B70",
"p#	c #2D61C4",
"q#	c #714A4B",
"r#	c #460909",
"s#	c #582524",
"t#	c #585078",
"u#	c #2C81FE",
"v#	c #1774FF",
"w#	c #3284FE",
"x#	c #B7B7B7",
"y#	c #5B5A5A",
"z#	c #605859",
"A#	c #745050",
"B#	c #75565F",
"C#	c #4C66AE",
"D#	c #764F4E",
"E#	c #480D0D",
"F#	c #612D2E",
"G#	c #574868",
"H#	c #3886FD",
"I#	c #1A75FE",
"J#	c #73ABFE",
"K#	c #E6E6EE",
"L#	c #B3B2B3",
"M#	c #5B4E4E",
"N#	c #623535",
"O#	c #5C3540",
"P#	c #3E5BAA",
"Q#	c #5D3434",
"R#	c #460B0B",
"S#	c #663738",
"T#	c #573445",
"U#	c #3883F3",
"V#	c #1773FE",
"W#	c #3786FE",
"X#	c #408EFF",
"Y#	c #BABBBA",
"Z#	c #583B3B",
"`#	c #4F1919",
" $	c #4F1D23",
".$	c #2657BC",
"+$	c #6C494A",
"@$	c #420B0B",
"#$	c #613032",
"$$	c #3875DF",
"%$	c #1A76FF",
"&$	c #2E83FD",
"*$	c #D8E7FF",
"=$	c #FBFCFD",
"-$	c #AAAAC6",
";$	c #8686AE",
">$	c #B6B6CE",
",$	c #B4B2B1",
"'$	c #4D2122",
")$	c #572425",
"!$	c #205FCF",
"~$	c #907D7C",
"{$	c #502626",
"]$	c #643537",
"^$	c #445EA5",
"/$	c #408BFE",
"($	c #3386FD",
"_$	c #418BFE",
":$	c #5498FE",
"<$	c #F1F6FE",
"[$	c #F1F1F1",
"}$	c #908382",
"|$	c #471617",
"1$	c #491010",
"2$	c #572122",
"3$	c #1F5CC8",
"4$	c #FAF8F8",
"5$	c #684B4A",
"6$	c #431111",
"7$	c #5E2E2D",
"8$	c #482739",
"9$	c #4B80DF",
"0$	c #428EFE",
"a$	c #4F96FF",
"b$	c #1B74FF",
"c$	c #80B2FD",
"d$	c #FBFBFE",
"e$	c #C2C2C2",
"f$	c #5B4040",
"g$	c #4F1616",
"h$	c #451B2B",
"i$	c #2A60C4",
"j$	c #937E7E",
"k$	c #451111",
"l$	c #5A292A",
"m$	c #584E78",
"n$	c #6195EA",
"o$	c #1978FF",
"p$	c #4992FF",
"q$	c #3284FF",
"r$	c #93BFFF",
"s$	c #FCFDFC",
"t$	c #FEFDFE",
"u$	c #D1D1D1",
"v$	c #684849",
"w$	c #5B2827",
"x$	c #5A2628",
"y$	c #3A2547",
"z$	c #3566C3",
"A$	c #F2ECEC",
"B$	c #7B5D5D",
"C$	c #4A1414",
"D$	c #491B1B",
"E$	c #582A2D",
"F$	c #394989",
"G$	c #327BEF",
"H$	c #2C80FE",
"I$	c #4890FC",
"J$	c #277BFE",
"K$	c #5FA1FD",
"L$	c #CFE0FD",
"M$	c #F2F8FF",
"N$	c #E6F0FE",
"O$	c #D7E6FF",
"P$	c #E4EFFC",
"Q$	c #F9FAFD",
"R$	c #FAFBFC",
"S$	c #F8F7F7",
"T$	c #A88C8B",
"U$	c #7B5353",
"V$	c #6B4141",
"W$	c #5A2726",
"X$	c #5C3B4A",
"Y$	c #49324F",
"Z$	c #5B88D8",
"`$	c #CCBEBE",
" %	c #6D4444",
".%	c #461214",
"+%	c #4A1E1E",
"@%	c #442433",
"#%	c #2D53A9",
"$%	c #1C6EEE",
"%%	c #196AEE",
"&%	c #2C6CD8",
"*%	c #3C6ECB",
"=%	c #4D7ACD",
"-%	c #85A1D9",
";%	c #A8B8DC",
">%	c #A2C1F0",
",%	c #97BFFC",
"'%	c #8DBAFD",
")%	c #BCD7FE",
"!%	c #F1F7FE",
"~%	c #F3EEEF",
"{%	c #947676",
"]%	c #5B2726",
"^%	c #460B0A",
"/%	c #450A0C",
"(%	c #501F22",
"_%	c #4D293E",
":%	c #5B5178",
"<%	c #79ABFA",
"[%	c #BBA5A5",
"}%	c #582727",
"|%	c #481110",
"1%	c #4B1C1C",
"2%	c #513C4D",
"3%	c #204EAB",
"4%	c #0E5BDA",
"5%	c #0B5EE4",
"6%	c #1159D3",
"7%	c #204FB4",
"8%	c #334488",
"9%	c #3E3A68",
"0%	c #2C4998",
"a%	c #3E579E",
"b%	c #51598F",
"c%	c #6A607A",
"d%	c #977F83",
"e%	c #C2AEAF",
"f%	c #CDBEBE",
"g%	c #E2D9D9",
"h%	c #F7F4F4",
"i%	c #F5F1F1",
"j%	c #F0EBEB",
"k%	c #F4F0F0",
"l%	c #DAD0D0",
"m%	c #8C6A6A",
"n%	c #511A1D",
"o%	c #450A0A",
"p%	c #400509",
"q%	c #49181F",
"r%	c #513A53",
"s%	c #3B396A",
"t%	c #8FA6D6",
"u%	c #63A3FE",
"v%	c #B59F9F",
"w%	c #5E2F2F",
"x%	c #470F0F",
"y%	c #441516",
"z%	c #472221",
"A%	c #2B2859",
"B%	c #233783",
"C%	c #1E419A",
"D%	c #1F3D8E",
"E%	c #2A2E68",
"F%	c #362E5A",
"G%	c #3C3965",
"H%	c #3A427A",
"I%	c #413F6C",
"J%	c #4E2634",
"K%	c #643636",
"L%	c #5D292A",
"M%	c #5E2A2A",
"N%	c #693E3F",
"O%	c #8D7575",
"P%	c #A49B9B",
"Q%	c #9A8B8B",
"R%	c #A39797",
"S%	c #A59E9E",
"T%	c #A7A3A2",
"U%	c #A39595",
"V%	c #967F7F",
"W%	c #816262",
"X%	c #724E4E",
"Y%	c #795B5A",
"Z%	c #846869",
"`%	c #886F6E",
" &	c #5D2F2F",
".&	c #501717",
"+&	c #441723",
"@&	c #39142B",
"#&	c #2C2761",
"$&	c #273F8E",
"%&	c #2B4695",
"&&	c #2C50A7",
"*&	c #6085CC",
"=&	c #79ADFD",
"-&	c #8FB9FD",
";&	c #C4BBBB",
">&	c #643838",
",&	c #5E3837",
"'&	c #633839",
")&	c #633836",
"!&	c #532120",
"~&	c #43111B",
"{&	c #481315",
"]&	c #480F12",
"^&	c #562322",
"/&	c #58292A",
"(&	c #552223",
"_&	c #663737",
":&	c #6D3F3F",
"<&	c #6C4343",
"[&	c #5E4240",
"}&	c #583A3A",
"|&	c #574244",
"1&	c #594242",
"2&	c #4B2323",
"3&	c #481919",
"4&	c #4C2625",
"5&	c #523636",
"6&	c #502828",
"7&	c #4C1819",
"8&	c #450D0E",
"9&	c #420D0E",
"0&	c #43161E",
"a&	c #401923",
"b&	c #3C2B4F",
"c&	c #27387C",
"d&	c #17409F",
"e&	c #0D54D3",
"f&	c #0A5BDB",
"g&	c #1357D2",
"h&	c #1D52BA",
"i&	c #34509A",
"j&	c #3F7AE3",
"k&	c #5C9EFF",
"l&	c #96C0FD",
"m&	c #A7CCFF",
"n&	c #E0D7D7",
"o&	c #D2C3C2",
"p&	c #BCA7A7",
"q&	c #B9A4A3",
"r&	c #9B7C7C",
"s&	c #7D5756",
"t&	c #835959",
"u&	c #673535",
"v&	c #4A1111",
"w&	c #7F5D65",
"x&	c #6073AE",
"y&	c #3959A9",
"z&	c #3854A0",
"A&	c #2C4594",
"B&	c #2C3A78",
"C&	c #383B6C",
"D&	c #464B7B",
"E&	c #626991",
"F&	c #5E5672",
"G&	c #533E52",
"H&	c #4B3246",
"I&	c #4C3B4A",
"J&	c #504857",
"K&	c #535169",
"L&	c #575C85",
"M&	c #394E8C",
"N&	c #2753AF",
"O&	c #0B5CE2",
"P&	c #0D5FE4",
"Q&	c #1C60D4",
"R&	c #1459CF",
"S&	c #0F52CC",
"T&	c #134AB4",
"U&	c #1D4BAD",
"V&	c #2C6ADE",
"W&	c #1571F8",
"X&	c #257DFD",
"Y&	c #4992FD",
"Z&	c #96C0FF",
"`&	c #E3ECFE",
" *	c #E5F1FF",
".*	c #F6F5F5",
"+*	c #EFEBED",
"@*	c #DDCED0",
"#*	c #B19A98",
"$*	c #BDA5A5",
"%*	c #E7DEDE",
"&*	c #F2EFEF",
"**	c #E8EAF1",
"=*	c #80AEF5",
"-*	c #3E86F9",
";*	c #2C78F2",
">*	c #1C6CEC",
",*	c #2D77EC",
"'*	c #206FEC",
")*	c #2C7AF2",
"!*	c #3783F8",
"~*	c #2776F4",
"{*	c #1F70F2",
"]*	c #1469EA",
"^*	c #186CEF",
"/*	c #1C6CF0",
"(*	c #156AEE",
"_*	c #1066E9",
":*	c #1456D0",
"<*	c #1554C4",
"[*	c #1656CD",
"}*	c #1958CB",
"|*	c #1958CC",
"1*	c #135AD1",
"2*	c #105FDF",
"3*	c #1568E9",
"4*	c #1068F6",
"5*	c #2F87FF",
"6*	c #4792FF",
"7*	c #73ACFC",
"8*	c #C7DDFC",
"9*	c #FAF9F9",
"0*	c #F1EDED",
"a*	c #F3EFF0",
"b*	c #A4C8FF",
"c*	c #408CFE",
"d*	c #267EFD",
"e*	c #247CFE",
"f*	c #2C80FF",
"g*	c #3283FF",
"h*	c #3184FD",
"i*	c #2178FF",
"j*	c #2079FE",
"k*	c #277CFD",
"l*	c #297EFB",
"m*	c #287BFA",
"n*	c #2F82FD",
"o*	c #3986FD",
"p*	c #2478F8",
"q*	c #2F7AEF",
"r*	c #2976F1",
"s*	c #3F87F7",
"t*	c #237AFB",
"u*	c #287CFD",
"v*	c #418AFC",
"w*	c #458FFE",
"x*	c #3182FC",
"y*	c #589AFF",
"z*	c #90BBFB",
"A*	c #E0ECFE",
"B*	c #F5F8FD",
"C*	c #FEFFFE",
"D*	c #E3EEFF",
"E*	c #98C1FF",
"F*	c #6DA8FF",
"G*	c #5197FF",
"H*	c #458FFF",
"I*	c #428DFF",
"J*	c #3484FF",
"K*	c #257CFF",
"L*	c #1D78FF",
"M*	c #1F78FF",
"N*	c #1E77FF",
"O*	c #1573FF",
"P*	c #1E79FF",
"Q*	c #3888FF",
"R*	c #5D9DFF",
"S*	c #65A4FF",
"T*	c #8EBBFF",
"U*	c #8AB8FF",
"V*	c #97C2FF",
"W*	c #B1D0FF",
"X*	c #CDE1FF",
"Y*	c #E1EDFF",
"Z*	c #FAFBFF",
"`*	c #F1F6FF",
" =	c #E7F2FF",
".=	c #DDECFF",
"+=	c #BCD8FF",
"@=	c #A9CAFF",
"#=	c #9FC5FF",
"$=	c #91BCFF",
"%=	c #7DB2FF",
"&=	c #6AA5FF",
"*=	c #70A9FF",
"==	c #91BDFF",
"-=	c #BAD6FF",
";=	c #E3F1FF",
">=	c #FAFAFF",
". . . . . . . . . . . . . . . + @ # @ @ # $ % & * = = = - ; > , . . . . . . . . . . . . . . . . ",
". . . . . . . . ' + ) ! ~ { ] ^ / ( _ ^ : < [ } | 1 2 3 4 5 6 7 8 9 0 a . . ) b . . . . + # . . ",
". . . . . . . . ) c d e f g h i j k l m n o p q r s t u v w x y z A B C D 3 E F . . . + + . . . ",
". . . . . . . ) ) G H I J K L M N O P Q R S T U V W X Y Z `  ...+.@.#.$.%.&.*.=.-.;.>.,.'.+ . . ",
". ) . . ) . . c ) ).!.~.{.].^./.(._.:.<.[.}.|.1.2.3.4.5.6.7.8.9.0.a.b.c.W d.e.f.g.h.i.j.k.l.+ . ",
") . . ) ' . m.n.o.p.q.r.s.t.u.v.w.x.y.z.A.B.C.D.E.F.G.H.I.J.K.L.M.N.O.P.Q.R.S.T.U.V.W.X.Y.Z.) + ",
"c `.c  +.+++@+#+$+%+&+*+=+-+;+>+,+'+)+!+~+{+]+^+/+(+_+:+<+[+}+|+1+2+3+4+5+6+7+8+9+0+a+b+c+d+e+. ",
".+) f+`.g+h+i+j+k+l+m+n+o+p+q+r+s+b t+u+`.) . . ) '. +v+w+x+y+z+A+B+C+D+E+F+G+H+I+J+K+L+M+N+O+P+",
". ) `.Q+R+S+T+U+V+W+X+Y+Z+`+) ) ' t+'.) ) . . . c . c c c ) `. @.@+@@@#@$@%@&@*@=@-@;@>@,@'@)@!@",
") ) ~@{@]@^@/@(@_@:@<@c . `.. ) ) `.. c c . ) ) ) ) ) ) . . c . ) ) c c . [@}@|@1@2@3@4@5@6@7@8@",
"`.9@0@a@b@c@d@e@f@c . .+`.) c ) c c ) ) ) ) ) . . c ) ) ) . . ) . . ) . c ) ) g@h@i@j@k@l@m@n@o@",
"m.p@q@r@s@t@u@v@@ ) ) + w@x@y@y@z@A@. . . . . . . . . . . . . . . . . . ) . ) ) B@C@D@E@F@G@H@I@",
"J@K@L@M@N@O@P@Q@R@+ + S@z@y@T@U@z@y@V@. . . . . . . . . . . . . . . . . . . . `.f@W@X@Y@Z@`@ #.#",
"+#@###$#%#&#*#=#-#+ . A@y@T@. . V@;#>#. ,#U@;#U@V@. . >#x@;#U@'#. . V@x@T@)#!#) . `.~#{#]#^#/#(#",
"_#:#<#[#}#|#1#2#& . . ;#y@3#. . . . . . 4#z@T@z@y@5#A@y@x@U@y@;#. 6#y@7#7#y@V@) c . 8#9#0#a#b#c#",
"d#e#b@f#g#h#i#j#. . . ;#y@3#. . . . . . 5#5#5#x@y@>#6#y@;#>#3#. . z@y@'#'#y@k#) . ) x+l#m#n#o#p#",
"q#r#s#t#u#v#w#j#. . . x@y@V@. . ,#A@,#. U@4#y@4#y@>#'#x@y@y@z@U@. y@y@y@y@y@y@) . ) x#y#z#A#B#C#",
"D#E#F#G#H#I#)@J#. . . >#y@;#. . T@y@T@5#y@;#. 6#y@V@5#V@,#>#4#y@5#z@y@'#'#3#K#) ) c . L#M#N#O#P#",
"Q#R#S#T#U#V#W#X#= . . + ;#y@4#4#y@z@5#5#y@4#6#z@y@6#6#y@;#6#z@z@. U@y@;#x@y@U@) `.) ) Y#Z#`# $.$",
"+$@$Y@#$$$%$J &$*$c + =$. -$x@;#;$,#. . >$;#x@A@;#6#. >#;#;#T@,#. . A@x@;#6#. ) . ) ) ,$'$V+)$!$",
"~${$H.]$^$/$($_$:$<$@ # . ) . ) . c `.) . . . . . . . . . . . . . . . . . . . . ) `.[$}$|$1$2$3$",
"4$5$6$7$8$9$0$a$b$c$d$+ d$!#. . . ) ) . ) ) . . . . . . . . . . . . . . . . ) . ) ) e$f$5+g$h$i$",
"c j$*@k$l$m$n$o$p$q$r$s$) c ) . . . c '.. c ) ' . . ) . . . ) ) . . c `.. ) . ) t$c u$v$w$x$y$z$",
"`.A$B$C$D$E$F$G$H$I$J$K$L$M$N$O$P$Q$R$u+c ) ) . ' ) . . . ) ) . ' . . . ' ) ) c S$T$U$V$W$X$Y$Z$",
".+) `$ %.%+%@%#%$%%%&%*%=%-%;%>%,%'%)%!%c ) . . ) ) . . . ) ) ) ) . c ' c ) ) ~%{%]%^%/%(%_%:%<%",
"c .+.+[%}%|%1%2%3%4%5%6%7%8%9%0%a%b%c%d%e%f%g%h%i%j%) ) . ) . ) . ) . ' c k%l%m%n%o%p%q%r%s%t%u%",
". c ' . v%w%x%y%z%A%B%C%D%E%F%G%H%I%J%K%L%M%N%O%P%Q+Q%R%S%T%U%V%W%X%Y%Z%`% &.&+&@&#&$&%&&&*&=&-&",
") ) ) ) .+;&p@>&,&'&)&!&~&{&]&.%^&/&(&_&:&<&[&}&|&1&2&3&4&5&6&7&8&9&0&a&b&c&d&e&f&g&h&i&j&k&l&m&",
". ) ) . !#c c n&o&p&q&r&s&t&u&v&w&x&y&z&A&B&C&D&E&F&G&H&I&J&K&L&M&N&O&P&Q&R&S&T&U&V&W&X&Y&Z&`& *",
". ) c ) !#. ) ) `..*+*@*#*$*%*&***=*-*;*>*,*'*)*!*~*{*]*^*/*(*_*:*<*[*}*|*1*2*3*4*5*6*7*8*> . + ",
". . . . ) ) . ) + . ) .+9*0*a*. > b*c*d*e*f*g*h*i*j*k*l*m*n*o*p*q*r*s*t*u*v*w*x*y*z*A*B*C*+ ) . ",
". . . . . . . . . . . . . . . . . D*E*F*G*H*I*J*K*L*M*N*o@O*P*Q*R*S*T*U*V*W*X*Y*# . . . . . . . ",
". . . . . . . . . . . . . . . . . . Z*`* =.=X*+=@=#=$=V*%=&=*===-=O$;=Z*>=@ l.+ + . + . . . . . "};
