/* XPM */
static char * usecaseDiagram_xpm[] = {
"48 48 897 2",
"  	c None",
". 	c #FFFFFF",
"+ 	c #FFFDFD",
"@ 	c #FFFEFE",
"# 	c #FDE3E3",
"$ 	c #FEE9E9",
"% 	c #DA9F9F",
"& 	c #B95F5F",
"* 	c #CA8F8F",
"= 	c #CC9898",
"- 	c #FEFBFB",
"; 	c #FEFDFD",
"> 	c #FFFCFC",
", 	c #FC9D9D",
"' 	c #FE3D3D",
") 	c #FE6565",
"! 	c #FE4E4E",
"~ 	c #FF2323",
"{ 	c #F57B7B",
"] 	c #E09595",
"^ 	c #B15959",
"/ 	c #E8CCCC",
"( 	c #FEFEFE",
"_ 	c #FFE9E9",
": 	c #FF2D2D",
"< 	c #E22929",
"[ 	c #B73E3E",
"} 	c #EC4444",
"| 	c #FE1818",
"1 	c #FD3737",
"2 	c #FD9999",
"3 	c #FF8C8C",
"4 	c #B04C4C",
"5 	c #FF7474",
"6 	c #FD3939",
"7 	c #B03838",
"8 	c #FFFAFA",
"9 	c #FE6363",
"0 	c #FF3A3A",
"a 	c #FE4B4B",
"b 	c #FF7070",
"c 	c #D12828",
"d 	c #F0DBDB",
"e 	c #FFFBFB",
"f 	c #FF3535",
"g 	c #D92323",
"h 	c #E4AAAA",
"i 	c #FE4242",
"j 	c #FF8181",
"k 	c #CD2020",
"l 	c #EFD6D6",
"m 	c #FF1717",
"n 	c #AE1313",
"o 	c #ECD4D4",
"p 	c #FDFCFC",
"q 	c #FF8282",
"r 	c #FE2A2A",
"s 	c #D92525",
"t 	c #F3E1E1",
"u 	c #FF5D5D",
"v 	c #F42626",
"w 	c #C62626",
"x 	c #B76363",
"y 	c #FEFCFC",
"z 	c #FEACAC",
"A 	c #FE2C2C",
"B 	c #E26C6C",
"C 	c #FCF8F8",
"D 	c #FFF3F3",
"E 	c #FF3131",
"F 	c #FD2727",
"G 	c #E72121",
"H 	c #FF6060",
"I 	c #FE3C3C",
"J 	c #E24C4C",
"K 	c #F0D6D6",
"L 	c #FDFBFB",
"M 	c #CCB9B9",
"N 	c #DED2D2",
"O 	c #FFEEEE",
"P 	c #FF3F3F",
"Q 	c #FF4646",
"R 	c #FF4242",
"S 	c #FF3D3D",
"T 	c #FA8484",
"U 	c #F1D7D7",
"V 	c #FCFCFC",
"W 	c #BCA6A6",
"X 	c #440707",
"Y 	c #764B4B",
"Z 	c #DED3D3",
"` 	c #FDFDFD",
" .	c #FDC2C2",
"..	c #FF4B4B",
"+.	c #FD4848",
"@.	c #FF5454",
"#.	c #FF4343",
"$.	c #CB7272",
"%.	c #E8CFCF",
"&.	c #C8B6B6",
"*.	c #470E0E",
"=.	c #440303",
"-.	c #410202",
";.	c #623030",
">.	c #A78C8C",
",.	c #F2EDED",
"'.	c #FFB3B3",
").	c #FE2828",
"!.	c #FF2424",
"~.	c #FE2525",
"{.	c #FE2E2E",
"].	c #F62727",
"^.	c #C74949",
"/.	c #B26060",
"(.	c #F5EEEE",
"_.	c #643333",
":.	c #420303",
"<.	c #440404",
"[.	c #420202",
"}.	c #4B0E0E",
"|.	c #6A3939",
"1.	c #B9A1A1",
"2.	c #FFBFBF",
"3.	c #FC4F4F",
"4.	c #ED2323",
"5.	c #CE3A3A",
"6.	c #FF3333",
"7.	c #FC4646",
"8.	c #FE8282",
"9.	c #FF2929",
"0.	c #FE3232",
"a.	c #F04242",
"b.	c #B95656",
"c.	c #CC9696",
"d.	c #EBE5E5",
"e.	c #825A5A",
"f.	c #551B1B",
"g.	c #420404",
"h.	c #3F0101",
"i.	c #430303",
"j.	c #4E1414",
"k.	c #764848",
"l.	c #CCBEBE",
"m.	c #FAF8F8",
"n.	c #FD9090",
"o.	c #F33232",
"p.	c #B33232",
"q.	c #FBD8D8",
"r.	c #FF3C3C",
"s.	c #FDC7C7",
"t.	c #FF6363",
"u.	c #FE3A3A",
"v.	c #F64242",
"w.	c #AD4B4B",
"x.	c #C08181",
"y.	c #F6F2F2",
"z.	c #C1AEAE",
"A.	c #6F4242",
"B.	c #480A0A",
"C.	c #440505",
"D.	c #511818",
"E.	c #926D6D",
"F.	c #FDE1E1",
"G.	c #FEB3B3",
"H.	c #FF7676",
"I.	c #F93434",
"J.	c #BB3737",
"K.	c #FEE4E4",
"L.	c #FE3838",
"M.	c #FD5959",
"N.	c #FFEAEA",
"O.	c #FF7F7F",
"P.	c #FF5C5C",
"Q.	c #FE9C9C",
"R.	c #EA8686",
"S.	c #C38686",
"T.	c #E5DEDE",
"U.	c #9F7E7E",
"V.	c #501919",
"W.	c #420101",
"X.	c #3F0303",
"Y.	c #A08282",
"Z.	c #FBDBDB",
"`.	c #F78787",
" +	c #D07979",
".+	c #C27878",
"++	c #FDE6E6",
"@+	c #FE8D8D",
"#+	c #D18282",
"$+	c #FEEFEF",
"%+	c #EAA4A4",
"&+	c #C47171",
"*+	c #EAD3D3",
"=+	c #F8F6F6",
"-+	c #CCBBBB",
";+	c #855959",
">+	c #7D5555",
",+	c #EFEAEA",
"'+	c #FAFBFD",
")+	c #F9FBFE",
"!+	c #FAFCFF",
"~+	c #F9FBFF",
"{+	c #F8FAFE",
"]+	c #F9E1E1",
"^+	c #EACECE",
"/+	c #EBD6D6",
"(+	c #FE8888",
"_+	c #FF3838",
":+	c #FE3131",
"<+	c #FE2323",
"[+	c #D82626",
"}+	c #C27171",
"|+	c #E7DEDE",
"1+	c #9F8181",
"2+	c #E4D9D9",
"3+	c #BBD4FE",
"4+	c #6DA9FE",
"5+	c #5498FC",
"6+	c #5295FF",
"7+	c #5196FE",
"8+	c #4E97FF",
"9+	c #448FFF",
"0+	c #3F89F8",
"a+	c #3E83ED",
"b+	c #4788F0",
"c+	c #4B92FD",
"d+	c #4A94FF",
"e+	c #66A2FE",
"f+	c #86B5FE",
"g+	c #97C2FF",
"h+	c #B0CDFA",
"i+	c #FEFFFF",
"j+	c #FCFFFC",
"k+	c #FEF3F3",
"l+	c #FE5E5E",
"m+	c #FF2E2E",
"n+	c #F37B7B",
"o+	c #FD6161",
"p+	c #FD2323",
"q+	c #E12222",
"r+	c #AF3535",
"s+	c #CC9E9E",
"t+	c #FBFAFA",
"u+	c #FCF9F9",
"v+	c #ECE7E7",
"w+	c #8C9AC8",
"x+	c #3777E2",
"y+	c #2063D7",
"z+	c #1D5CC8",
"A+	c #1B62D9",
"B+	c #1A6CE7",
"C+	c #216EE9",
"D+	c #1761DE",
"E+	c #155BD3",
"F+	c #2356BC",
"G+	c #2758BB",
"H+	c #1E5FD2",
"I+	c #2065D8",
"J+	c #2372EE",
"K+	c #2C7CF5",
"L+	c #559BFF",
"M+	c #81B2FE",
"N+	c #CFE2FE",
"O+	c #FDFEFE",
"P+	c #FFFEFF",
"Q+	c #FDFEFD",
"R+	c #FEF9F9",
"S+	c #FF3B3B",
"T+	c #FC2A2A",
"U+	c #F1A4A4",
"V+	c #DEBDBD",
"W+	c #FF6868",
"X+	c #FD4343",
"Y+	c #F73131",
"Z+	c #CA3939",
"`+	c #C28585",
" @	c #EDE9E9",
".@	c #987F7F",
"+@	c #694342",
"@@	c #451E24",
"#@	c #412138",
"$@	c #491716",
"%@	c #4D1B1C",
"&@	c #663D3C",
"*@	c #977F7E",
"=@	c #654E4E",
"-@	c #4D2E2E",
";@	c #471F20",
">@	c #4A2626",
",@	c #5D2F2E",
"'@	c #52262B",
")@	c #3A3C6C",
"!@	c #314287",
"~@	c #2F51A6",
"{@	c #245FC7",
"]@	c #4687EB",
"^@	c #7FAEF7",
"/@	c #C4DBFE",
"(@	c #ECF2FD",
"_@	c #FEFEFF",
":@	c #FFCBCB",
"<@	c #FF2A2A",
"[@	c #FD3838",
"}@	c #F33B3B",
"|@	c #B55757",
"1@	c #CC9D9D",
"2@	c #FFC2C2",
"3@	c #C14747",
"4@	c #B56565",
"5@	c #E5DDDD",
"6@	c #714747",
"7@	c #481313",
"8@	c #572424",
"9@	c #7B5355",
"0@	c #9D7D7B",
"a@	c #A78B8B",
"b@	c #F4F1F3",
"c@	c #F9F7F7",
"d@	c #F8F7F7",
"e@	c #FAFAF9",
"f@	c #FCFBFB",
"g@	c #B7B6B6",
"h@	c #ACAAAB",
"i@	c #ABA9A9",
"j@	c #B8B6B5",
"k@	c #522D2C",
"l@	c #481C1C",
"m@	c #56282B",
"n@	c #614654",
"o@	c #626591",
"p@	c #A6C4FD",
"q@	c #60A1FF",
"r@	c #E3EEFF",
"s@	c #FEFFFD",
"t@	c #FEE0E0",
"u@	c #FD6060",
"v@	c #FE4040",
"w@	c #BA2727",
"x@	c #C17E7E",
"y@	c #FFCACA",
"z@	c #FE5151",
"A@	c #FF9E9E",
"B@	c #C05555",
"C@	c #F5E9E9",
"D@	c #EDE6E6",
"E@	c #623A3A",
"F@	c #491312",
"G@	c #724544",
"H@	c #D2C5C6",
"I@	c #EEEAEB",
"J@	c #FDFDFE",
"K@	c #FCFDFD",
"L@	c #F4F1F1",
"M@	c #998B8B",
"N@	c #4C1E1E",
"O@	c #603337",
"P@	c #3B63BB",
"Q@	c #1974FD",
"R@	c #79AEFD",
"S@	c #F89393",
"T@	c #E58282",
"U@	c #B14343",
"V@	c #C89090",
"W@	c #FDF5F5",
"X@	c #F0A4A4",
"Y@	c #FEABAB",
"Z@	c #DDA2A2",
"`@	c #6E4545",
" #	c #410907",
".#	c #504C79",
"+#	c #C3D2EC",
"@#	c #9393B7",
"##	c #6F6F9F",
"$#	c #8787AF",
"%#	c #F2F2F6",
"&#	c #B7AAAA",
"*#	c #613637",
"=#	c #573A4C",
"-#	c #1069ED",
";#	c #3283FE",
">#	c #E2EEFD",
",#	c #FFD3D3",
"'#	c #F99898",
")#	c #E0A1A1",
"!#	c #F6EFEF",
"~#	c #F0E2E2",
"{#	c #DCADAD",
"]#	c #F5E3E3",
"^#	c #4A1616",
"/#	c #401B32",
"(#	c #2572EB",
"_#	c #5397FD",
":#	c #D8E8FF",
"<#	c #AAAAC7",
"[#	c #636397",
"}#	c #F1F3F7",
"|#	c #CFCFDF",
"1#	c #9F9FBF",
"2#	c #B7B7CF",
"3#	c #F3F3F7",
"4#	c #ABABC7",
"5#	c #E7E7EF",
"6#	c #B6B6CE",
"7#	c #AFA2A1",
"8#	c #602D31",
"9#	c #265BC0",
"0#	c #1974FA",
"a#	c #A1C5FF",
"b#	c #FFF6F6",
"c#	c #B6A1A1",
"d#	c #AA8C8C",
"e#	c #AE9494",
"f#	c #DBCDCD",
"g#	c #A78987",
"h#	c #440C0C",
"i#	c #5C4B6E",
"j#	c #2A7EFE",
"k#	c #78AEFE",
"l#	c #FDFFFF",
"m#	c #7A7AA7",
"n#	c #FCFCFF",
"o#	c #404080",
"p#	c #57578F",
"q#	c #9E9EBE",
"r#	c #DADAE6",
"s#	c #C4C4C4",
"t#	c #735458",
"u#	c #4A5D9C",
"v#	c #2F7BF1",
"w#	c #E9E1E1",
"x#	c #592121",
"y#	c #430202",
"z#	c #410303",
"A#	c #410101",
"B#	c #693838",
"C#	c #F2EEEE",
"D#	c #A58888",
"E#	c #4A1312",
"F#	c #717198",
"G#	c #1F78FD",
"H#	c #7FB2FE",
"I#	c #FDFDFF",
"J#	c #DBDBE7",
"K#	c #8686AE",
"L#	c #7B7BA7",
"M#	c #BFBFBF",
"N#	c #564141",
"O#	c #784C4D",
"P#	c #3378E9",
"Q#	c #579BFE",
"R#	c #F5F1F1",
"S#	c #7D5454",
"T#	c #3E0202",
"U#	c #886161",
"V#	c #F7F4F4",
"W#	c #8D7172",
"X#	c #4D1918",
"Y#	c #686083",
"Z#	c #1E78FF",
"`#	c #6BA6FE",
" $	c #F2F3F6",
".$	c #D0D0DF",
"+$	c #C2C2D6",
"@$	c #AAAAC6",
"#$	c #F2F2F7",
"$$	c #522B2A",
"%$	c #532429",
"&$	c #236FE9",
"*$	c #5396FE",
"=$	c #F7F5F5",
"-$	c #916D6D",
";$	c #400101",
">$	c #7C5151",
",$	c #F3EFEF",
"'$	c #FBFBFB",
")$	c #492121",
"!$	c #5B445D",
"~$	c #4B90FB",
"{$	c #468FFC",
"]$	c #B6D3FE",
"^$	c #F8F8F8",
"/$	c #FDFCFE",
"($	c #F9F9F9",
"_$	c #421714",
":$	c #4E2A37",
"<$	c #125FE8",
"[$	c #589EFF",
"}$	c #F7F6F6",
"|$	c #977474",
"1$	c #6C3A3A",
"2$	c #F0EAEA",
"3$	c #674C4B",
"4$	c #441615",
"5$	c #566AAA",
"6$	c #307CF6",
"7$	c #589AFD",
"8$	c #BBD9FD",
"9$	c #FEFEFD",
"0$	c #E6E1E0",
"a$	c #998485",
"b$	c #562523",
"c$	c #473E6C",
"d$	c #3075E7",
"e$	c #8AB9FD",
"f$	c #FAF9F9",
"g$	c #9F7D7D",
"h$	c #400202",
"i$	c #5C2828",
"j$	c #E9E3E3",
"k$	c #E3DADA",
"l$	c #5C3031",
"m$	c #461518",
"n$	c #3360B8",
"o$	c #2170EB",
"p$	c #4A86EC",
"q$	c #8AA3DA",
"r$	c #94ADDC",
"s$	c #8FAEE5",
"t$	c #DDEAFF",
"u$	c #FAFBFC",
"v$	c #D8D1CF",
"w$	c #916C6E",
"x$	c #4B1312",
"y$	c #4F2734",
"z$	c #59689D",
"A$	c #669EF8",
"B$	c #BFD8FD",
"C$	c #9C7A7A",
"D$	c #430505",
"E$	c #5C2626",
"F$	c #E8E0E0",
"G$	c #DFD7D6",
"H$	c #5C2E2E",
"I$	c #481C1A",
"J$	c #243A84",
"K$	c #1948A8",
"L$	c #233981",
"M$	c #31346F",
"N$	c #43487B",
"O$	c #5C404A",
"P$	c #845C5D",
"Q$	c #A78C8D",
"R$	c #D5C6C5",
"S$	c #C4B3B3",
"T$	c #DBD1D1",
"U$	c #BCA7A7",
"V$	c #A08080",
"W$	c #A98C8D",
"X$	c #9A7E82",
"Y$	c #643F4B",
"Z$	c #3C121D",
"`$	c #332E65",
" %	c #475A97",
".%	c #84ADF2",
"+%	c #78AFFC",
"@%	c #D8E4FE",
"#%	c #6F4545",
"$%	c #400303",
"%%	c #4D1414",
"&%	c #E2D8D8",
"*%	c #E7E3E3",
"=%	c #A58E8E",
"-%	c #8F7071",
";%	c #714F55",
">%	c #5D2E32",
",%	c #62363A",
"'%	c #665169",
")%	c #3F4178",
"!%	c #3B3971",
"~%	c #3A3D68",
"{%	c #454163",
"]%	c #512B2B",
"^%	c #4D2D2A",
"/%	c #4E3131",
"(%	c #4E2D34",
"_%	c #293974",
":%	c #243E8F",
"<%	c #214399",
"[%	c #124AB3",
"}%	c #1959C8",
"|%	c #2C73E3",
"1%	c #4A8FF5",
"2%	c #B1D0FC",
"3%	c #E4F0FF",
"4%	c #D6C8C8",
"5%	c #C1ACAC",
"6%	c #B19696",
"7%	c #7B4F4F",
"8%	c #E4DBDB",
"9%	c #F3F0F0",
"0%	c #E5DCDC",
"a%	c #D3C5C4",
"b%	c #F1EDEE",
"c%	c #B7CEF4",
"d%	c #347EF2",
"e%	c #2B7AF4",
"f%	c #2D78EF",
"g%	c #327EF3",
"h%	c #2C76EC",
"i%	c #2A71E7",
"j%	c #307AEA",
"k%	c #2C70E0",
"l%	c #2867D6",
"m%	c #1B68E3",
"n%	c #2772EC",
"o%	c #307BF2",
"p%	c #448AF7",
"q%	c #97C1FD",
"r%	c #DDE9FC",
"s%	c #E1ECFF",
"t%	c #C8DDFE",
"u%	c #C6DDFD",
"v%	c #BDD6FE",
"w%	c #B9D4FD",
"x%	c #BBD5FD",
"y%	c #B9D3FC",
"z%	c #BAD6FF",
"A%	c #B3D0FE",
"B%	c #BDD7FF",
"C%	c #FDFCFD",
"D%	c #E8F2FD",
"E%	c #A1C8FF",
"F%	c #8CB7FD",
"G%	c #69A6FC",
"H%	c #4A92FD",
"I%	c #3A8BFF",
"J%	c #3687FD",
"K%	c #3384FE",
"L%	c #579BFD",
"M%	c #94C0FE",
"N%	c #9DC5FF",
"O%	c #AECFFF",
"P%	c #B8D5FF",
"Q%	c #FEFFFE",
"R%	c #FCFDFC",
"S%	c #FCFDFE",
"T%	c #B6D1FF",
"U%	c #5698FB",
"V%	c #3483F9",
"W%	c #347FF7",
"X%	c #3382F9",
"Y%	c #2E81FB",
"Z%	c #277BFC",
"`%	c #2477F6",
" &	c #2270E8",
".&	c #2E72E5",
"+&	c #357EF0",
"@&	c #3283F8",
"#&	c #4B8FF7",
"$&	c #5496FB",
"%&	c #66A5FE",
"&&	c #86B3FA",
"*&	c #E2EEFF",
"=&	c #F9FCFF",
"-&	c #ECE7E8",
";&	c #7A6779",
">&	c #2F5CB9",
",&	c #295ABD",
"'&	c #1E4AA8",
")&	c #1A53BA",
"!&	c #1E61CF",
"~&	c #2A6CD4",
"{&	c #1D59C6",
"]&	c #184FB7",
"^&	c #26459F",
"/&	c #2D4A9C",
"(&	c #2053BA",
"_&	c #1C58C9",
":&	c #1164E8",
"<&	c #1468EA",
"[&	c #408FFD",
"}&	c #64A1FE",
"|&	c #ABCAFD",
"1&	c #FBFDFB",
"2&	c #D9CECE",
"3&	c #826060",
"4&	c #4B1F1F",
"5&	c #461A1B",
"6&	c #441921",
"7&	c #522324",
"8&	c #552928",
"9&	c #957273",
"0&	c #C5B1B1",
"a&	c #8B7D7F",
"b&	c #695658",
"c&	c #5C4446",
"d&	c #5D4343",
"e&	c #4F302E",
"f&	c #5D3437",
"g&	c #624555",
"h&	c #422137",
"i&	c #473455",
"j&	c #3E5597",
"k&	c #436AC0",
"l&	c #6E9CE7",
"m&	c #C6DBFF",
"n&	c #D3C7C7",
"o&	c #562B2B",
"p&	c #481212",
"q&	c #6E3E3E",
"r&	c #A88A8C",
"s&	c #C9B9B8",
"t&	c #D3C3C3",
"u&	c #FCFCFD",
"v&	c #D0D0D0",
"w&	c #CECFCE",
"x&	c #867474",
"y&	c #5A4241",
"z&	c #512727",
"A&	c #613A3F",
"B&	c #65516B",
"C&	c #779DE6",
"D&	c #3E8BFE",
"E&	c #CDE1FE",
"F&	c #603434",
"G&	c #491619",
"H&	c #886465",
"I&	c #E6E7EF",
"J&	c #532E2E",
"K&	c #562626",
"L&	c #425599",
"M&	c #1571F9",
"N&	c #5095FD",
"O&	c #FBFBFC",
"P&	c #6B4345",
"Q&	c #485490",
"R&	c #82B1FB",
"S&	c #4B4B87",
"T&	c #C3C3D7",
"U&	c #714F4F",
"V&	c #522B39",
"W&	c #1666E7",
"X&	c #2178FD",
"Y&	c #BCD7FF",
"Z&	c #DED4D5",
"`&	c #471312",
" *	c #460F10",
".*	c #296DDE",
"+*	c #4F95FF",
"@*	c #EBF3FF",
"#*	c #EEEEF2",
"$*	c #DFDBDB",
"%*	c #663B3C",
"&*	c #3257B8",
"**	c #1D76FA",
"=*	c #9FC4FE",
"-*	c #C4B2B2",
";*	c #440A0B",
">*	c #784E52",
",*	c #2B7CFA",
"'*	c #69A6FF",
")*	c #9E9EBF",
"!*	c #E4E4EF",
"~*	c #B4B4CD",
"{*	c #B5B5CD",
"]*	c #7D6769",
"^*	c #67617E",
"/*	c #397EEE",
"(*	c #64A2FD",
"_*	c #C9B5B5",
":*	c #4B1414",
"<*	c #866166",
"[*	c #267EFE",
"}*	c #5F9FFE",
"|*	c #CECEDF",
"1*	c #B6B6CF",
"2*	c #E6E6EE",
"3*	c #F7F7F7",
"4*	c #53383A",
"5*	c #683639",
"6*	c #2872E6",
"7*	c #579AFF",
"8*	c #B7A9A8",
"9*	c #481615",
"0*	c #764C4E",
"a*	c #2676F4",
"b*	c #5197FE",
"c*	c #FDFFFD",
"d*	c #B6B6CD",
"e*	c #C1C2D5",
"f*	c #A9A9C5",
"g*	c #E5E4EC",
"h*	c #FAFAFE",
"i*	c #4D2121",
"j*	c #56232A",
"k*	c #2071ED",
"l*	c #4D94FF",
"m*	c #725150",
"n*	c #542925",
"o*	c #5273BC",
"p*	c #72AAFE",
"q*	c #FAFAFD",
"r*	c #B9B2B2",
"s*	c #461314",
"t*	c #4C2F43",
"u*	c #1C6AE7",
"v*	c #69A5FF",
"w*	c #D4CBCA",
"x*	c #461617",
"y*	c #503C56",
"z*	c #316FDA",
"A*	c #3E88FA",
"B*	c #76AEFD",
"C*	c #E1ECFE",
"D*	c #E4EEFC",
"E*	c #E3EEFD",
"F*	c #F1F5FA",
"G*	c #D2C5C5",
"H*	c #836061",
"I*	c #582A28",
"J*	c #45437A",
"K*	c #4784EB",
"L*	c #A1C8FD",
"M*	c #FAFAFA",
"N*	c #967D79",
"O*	c #461113",
"P*	c #453B62",
"Q*	c #185FD7",
"R*	c #1B5FD5",
"S*	c #4566B3",
"T*	c #5F70A6",
"U*	c #5176C0",
"V*	c #B6C7EA",
"W*	c #EBEBEE",
"X*	c #F6F3F4",
"Y*	c #FAF7F7",
"Z*	c #F6F3F3",
"`*	c #A7938F",
" =	c #5F2B2C",
".=	c #440F12",
"+=	c #4B2F49",
"@=	c #7C94C5",
"#=	c #C7DDFF",
"$=	c #9A8383",
"%=	c #4B1D1D",
"&=	c #3C1B28",
"*=	c #302C61",
"==	c #2E214F",
"-=	c #382040",
";=	c #483957",
">=	c #572F37",
",=	c #6E4140",
"'=	c #714A4A",
")=	c #7B6865",
"!=	c #725859",
"~=	c #6E4F4F",
"{=	c #766263",
"]=	c #694244",
"^=	c #562726",
"/=	c #5B302F",
"(=	c #543847",
"_=	c #273878",
":=	c #25367C",
"<=	c #2C499B",
"[=	c #4471C7",
"}=	c #89B7F8",
"|=	c #9DC5FD",
"1=	c #F7F9FE",
"2=	c #E2DADA",
"3=	c #D1C2C1",
"4=	c #AD9393",
"5=	c #947170",
"6=	c #AB9292",
"7=	c #9D9BB3",
"8=	c #335CB7",
"9=	c #2E57B4",
"0=	c #3057AB",
"a=	c #4A6FBD",
"b=	c #4F6097",
"c=	c #3A4880",
"d=	c #374C7F",
"e=	c #3D4C83",
"f=	c #234FAA",
"g=	c #1B54C1",
"h=	c #1F59C2",
"i=	c #1358CE",
"j=	c #1A66E7",
"k=	c #3984F4",
"l=	c #7FB1FC",
"m=	c #DEEBFE",
"n=	c #F6FAFE",
"o=	c #EEEAE9",
"p=	c #FAF8F9",
"q=	c #599CFE",
"r=	c #3887FE",
"s=	c #3889FE",
"t=	c #2D80FF",
"u=	c #2179FE",
"v=	c #237BFE",
"w=	c #2379FB",
"x=	c #2F7DF4",
"y=	c #3E7FE7",
"z=	c #3780F0",
"A=	c #468CFC",
"B=	c #5B9CFF",
"C=	c #90BAFA",
"D=	c #D9E8FE",
". . + @ . @ # $ % & * = @ + - ; + @ . . . . . . . . . . . . . . . . . . . . . . . . . . . . . . ",
". . . + > , ' ) ! ~ { ] ^ / ( @ . . . . . . . . . . . . . . . . . . . . . . . . . . . . . . . . ",
". . . > _ : < [ } | 1 2 3 4 @ . . . . . . . . . . . . . . . . . . . . . . . . . . . . . . . . . ",
". . + . 5 6 7 8 8 9 0 a b c d ; . . . . . . . . . . . . . . . . . . . . . . . . . . . . . . . . ",
". . e 8 f g h @ ; + i j 0 k l ; @ . . . . . . . . . . . . . . . . . . . . . . . . . . . . . . . ",
". . . 8 m n o ; p . + q r s t . . > . . . . . . . . . . . . . . . . . . . . . . . . . . . . . . ",
". . @ @ u v w x y . z 0 A B C . ( . . . . @ . ( ( . . . . . . . . . . . . . . . . . . . . . . . ",
". . . . D E F G ) H i I J K . L ( ( ( M N ; @ ( ( . . . . . . . . . . . . . . . . . . . . . . . ",
". . @ > + O b P Q R S T U ; ( V ( ( W X Y Z . @ ` . . . . . . . . . . . . . . . . . . . . . . . ",
". . @ 8 . ;  ...+.@.#.$.%.y ` ( . &.*.=.-.;.>.,.V . . . . . . . . . . . . . . . . . . . . . . . ",
". . . @ @ '.).!.m ~.{.].^./.(.. . _.:.<.-.[.}.|.1.. . . . . . . . . . . . . . . . . . . . . . . ",
"@ ; ( ( 2.3.4.5.6.7.8.9.0.a.b.c.d.e.f.g.h.i.[.[.j.k.l.m.@ . . . . . . . . . . . . . . . . . . . ",
"@ ( + n.6.o.p.q.r.Q @ s.t.u.v.w.x.y.z.A.B.-.C.[.[.D.E.. @ . . . . . . . . . . . . . . . . . . . ",
"@ F.G.H.I.J.. K.L.M.. + N.O.P.Q.R.S.. T.U.V.W.X.<.Y.. . ` . . . . . . . . . . . . . . . . . . . ",
"+ Z.`. +.++ e ++@+a #+; @ @ $+%+&+*+( ( =+-+;+X >+,+( '+)+!+!+!+~+~+~+~+~+{+~+. . . . . . . . . ",
"+ ]+^+/+. ( (+_+:+<+[+}+@ + ` ( . ; . . V ( |+1+2+!+3+4+5+6+7+8+9+0+a+b+c+d+e+f+g+h+i+i+j+. i+( ",
". . y . k+l+!.m+n+o+p+q+r+s+@ @ + ( . . . t+` u+V v+w+x+y+z+A+B+C+D+E+F+G+H+I+J+K+L+M+N+( O+P+Q+",
"@ ; . R+t.S+T+U+V+y W+X+Y+Z+`+. . ( . . ` ( `  @.@+@@@#@$@%@&@*@=@-@;@>@,@'@)@!@~@{@]@^@/@(@_@_@",
". ` :@<@[@}@|@1@@ + @ 2@I r.3@4@. @ . . V V 5@6@7@8@9@0@a@b@c@d@p e@f@g@h@i@j@k@l@m@n@o@p@q@r@s@",
"+ t@u@v@w@x@( @ ( . @ @ y@z@A@B@C@( . . ` D@E@F@G@H@I@J@K@. . V . . ( ( ` ( ( V L@M@N@O@P@Q@R@( ",
"2@S@T@U@V@f@` ( . ( L p L W@X@Y@Z@. . . V `@ #.#+#J@_@@###$#%#. ( . ` ( . ( . . ; @ &#*#=#-#;#>#",
",#'#)#!#@ ; . V . ; @ ` ` + ~#{#]#+ . . =+^#/#(#_#:#<#[#}#$#|#|#1#2#3#4#1#3#5#1#6#; ( 7#8#9#0#a#",
"b#> @ @ @ @ ( . c#d#e#f#u++ ; @ + . . . g#h#i#j#k#l#m#@#. n#. 4#1#o#2#p#@#|#p#q#p#r#( s#t#u#v#k#",
". . . . . . w#x#y#z#A#B#C#( ( ; . . . . D#E#F#G#H#_@<#[#I#$#|#p#1#o#J#1#[#$#p#K#L#r#( M#N#O#P#Q#",
". . . . . . R#S#T#y#T#U#V#( ` . . . . . W#X#Y#Z#`#(  $L#o#L#%#######.$####+$@$[#L##$V ( $$%$&$*$",
". . . . . . =$-$;$-.;$>$,$. . . . . . . '$)$!$~${$]$` . ( _@^$. /$. . @ . . . P+( . ` ($_$:$<$[$",
". . . . . . }$|$z#z#z#1$2$. . . . . . . V 3$4$5$6$7$8$` V . ` 9$` ( . . ( ( ( i+( ` 0$a$b$c$d$e$",
". . . . . . f$g$g.z#h$i$j$. . ( . . . . Q+k$l$m$n$o$p$q$r$s$t$u$( . ( . ( @ ` . ; v$w$x$y$z$A$B$",
". . . . . . p C$D$:.A#E$F$. ` . . . . . . ( G$H$I$J$K$L$M$N$O$P$Q$R$S$T$k$U$V$W$X$Y$Z$`$ %.%+%@%",
". . . . . . f$#%$%A#z#%%&%. . . . . . . ` ` ` *%=%-%;%>%,%'%)%!%~%{%]%^%/%(%_%:%<%[%}%|%1%2%3%. ",
". . . . . . . 4%5%6%-$7%8%. ( @ . . . . ( V '$` ; 9%0%a%b%c%d%e%f%g%h%i%j%k%l%m%n%o%p%q%r%. ( . ",
". ( . @ ( @ . s%t%u%t%/@v%w%x%y%z%A%B%_@( ` C%( . ( Q+K@_@D%E%F%G%H%I%J%K%L%M%N%O%P%Q%J@( R%. Q%",
"( ( ; @ @ S%T%U%V%W%X%Y%Z%`% &.&+&@&#&$&%&&&*&=&j+i+i+( . . . . . . . . . . . . . . . . . . . . ",
"@ ` . p ` -&;&>&,&'&)&!&~&{&]&^&/&(&_&:&<&[&}&|&V . . 1&. . . . . . . . . . . . . . . . . . . . ",
"; ( V 2&3&4&5&6&7&8&9&0&a&b&c&d&e&f&g&h&i&j&k&l&3+m&Q%. . . . . . . . . . . . . . . . . . . . . ",
". ( n&o&p&q&r&s&t&_@( '$. Q+` ( u&v&w&x&y&z&A&B&C&D&E&9$. . . . . . . . . . . . . . . . . . . . ",
"( &%F&G&H&_@( J@I&_@. ($. . . ( . . . ` ` y J&K&L&M&N&( . . . . . . . . . . . . . . . . . . . . ",
"O&P&[.Q&R&. 3#[#[#S&T&. . . . . . . . @ . y m.U&V&W&X&Y&. . . . . . . . . . . . . . . . . . . . ",
"Z&`& *.*+*@*4#p#i+|#J#4#L#L#5#L#L#2#2#[#L##*. $*%*&***=*. . . . . . . . . . . . . . . . . . . . ",
"-*;*>*,*'*i+)*##_@!*. |#@#o#~*S&L#5#[#L#p#{*. s#]*^*/*(*. . . . . . . . . . . . . . . . . . . . ",
"_*:*<*[*}*_@|*o#1*[#1#p#1#o#~*1#$###L#1#4#2*` 3*4*5*6*7*. . . . . . . . . . . . . . . . . . . . ",
"8*9*0*a*b*. c*|#1#d*. e*1#f*5#4#1#5#g*q#4#h*R%` i*j*k*l*. . . . . . . . . . . . . . . . . . . . ",
"Q%m*n*o*D&p*q*C%( ( V O+J@. . . . ( ( ( O+O&` r*s*t*u*v*. . . . . . . . . . . . . . . . . . . . ",
"P+w*x*y*z*A*B*C*D*E*F*` V ( . . ( . ( _@@ ` G*H*I*J*K*L*. . . . . . . . . . . . . . . . . . . . ",
". M*N*O*P*Q*R*S*T*U*V*W*X*t+f$p '$Y*V#=$Z*`* =.=+=@=}&#=. . . . . . . . . . . . . . . . . . . . ",
". ( . $=%=&=*===-=;=>=,='=)=!=~={=]=^=/=(=_=:=<=[=}=|=1=. . . . . . . . . . . . . . . . . . . . ",
". ` p '$2=3=4=5=6=7=8=9=0=a=b=c=d=e=f=g=h=i=j=k=l=m=n=_@. . . . . . . . . . . . . . . . . . . . ",
"( . . ` ` ( . o=p=m=q=r=s=t=u=v=w=x=y=z=A=B=C=D=s@( . . . . . . . . . . . . . . . . . . . . . . "};
