/* XPM */
static char * Astade_xpm[] = {
"32 32 460 2",
"  	c None",
". 	c #F8E5FA",
"+ 	c #C890EE",
"@ 	c #C37FDC",
"# 	c #E6AFE8",
"$ 	c #DDB5F1",
"% 	c #BA81E4",
"& 	c #CD95E6",
"* 	c #C27DD9",
"= 	c #E7AAD3",
"- 	c #F8C6DE",
"; 	c #DB60AF",
"> 	c #D1368F",
", 	c #BB44AF",
"' 	c #F9DCF9",
") 	c #E9B7DA",
"! 	c #BC63DF",
"~ 	c #B965D8",
"{ 	c #F1A3B0",
"] 	c #EA7498",
"^ 	c #D5619A",
"/ 	c #E3A2D4",
"( 	c #FA7E81",
"_ 	c #F62122",
": 	c #E90E30",
"< 	c #B0119B",
"[ 	c #EDBBEE",
"} 	c #F2A5A4",
"| 	c #F39B9F",
"1 	c #BE51BC",
"2 	c #C569D9",
"3 	c #F26E72",
"4 	c #F55067",
"5 	c #BA28A4",
"6 	c #F05858",
"7 	c #FA1513",
"8 	c #EC0E2C",
"9 	c #B41098",
"0 	c #E495D1",
"a 	c #FAA8A9",
"b 	c #F97B7D",
"c 	c #BB3EA3",
"d 	c #D079D3",
"e 	c #FEDCDA",
"f 	c #F95956",
"g 	c #F13F5B",
"h 	c #B524AD",
"i 	c #FDB8B4",
"j 	c #F52F30",
"k 	c #FA0E0C",
"l 	c #F30F24",
"m 	c #BC108A",
"n 	c #D985B7",
"o 	c #FA7F83",
"p 	c #F8585D",
"q 	c #D04086",
"r 	c #E896C8",
"s 	c #FFC5C8",
"t 	c #F13E40",
"u 	c #F2384F",
"v 	c #B22DAE",
"w 	c #FB9A9D",
"x 	c #F71D1C",
"y 	c #FC0F0B",
"z 	c #F40C1B",
"A 	c #C40C7B",
"B 	c #D163A5",
"C 	c #F95858",
"D 	c #F73C3C",
"E 	c #E54369",
"F 	c #D771B2",
"G 	c #FCBEC5",
"H 	c #ED2F2E",
"I 	c #F22F4C",
"J 	c #AF28B5",
"K 	c #FC9094",
"L 	c #F6181B",
"M 	c #F82332",
"N 	c #F60F21",
"O 	c #C91078",
"P 	c #CE4697",
"Q 	c #F39090",
"R 	c #F72A27",
"S 	c #F92128",
"T 	c #F32D3E",
"U 	c #CD1D73",
"V 	c #B84EB9",
"W 	c #FBAFAE",
"X 	c #F22223",
"Y 	c #F22A4A",
"Z 	c #AC29BA",
"` 	c #F47A79",
" .	c #F11929",
"..	c #D71869",
"+.	c #EF152D",
"@.	c #D0186A",
"#.	c #D43D8A",
"$.	c #F88388",
"%.	c #F82E2D",
"&.	c #FB2A2B",
"*.	c #FB2B2F",
"=.	c #E8204A",
"-.	c #B31E8F",
";.	c #E4A0CC",
">.	c #FCA7AA",
",.	c #F42B28",
"'.	c #EE304D",
").	c #AF32BB",
"!.	c #F9676D",
"~.	c #E2214A",
"{.	c #BC1793",
"].	c #F7415B",
"^.	c #E02F65",
"/.	c #D7337E",
"(.	c #F8B8C2",
"_.	c #FCA19D",
":.	c #F03535",
"<.	c #F52020",
"[.	c #E42154",
"}.	c #E2446C",
"|.	c #E587B7",
"1.	c #FAABA8",
"2.	c #F94F4F",
"3.	c #F43A5C",
"4.	c #B939B0",
"5.	c #F75758",
"6.	c #DC1F5E",
"7.	c #BD1788",
"8.	c #F85164",
"9.	c #E63858",
"0.	c #E03469",
"a.	c #F7A3A7",
"b.	c #FEDBE0",
"c.	c #FD7171",
"d.	c #F32937",
"e.	c #BD1E8C",
"f.	c #E292CA",
"g.	c #FFE4E1",
"h.	c #FDADAC",
"i.	c #FB4A4C",
"j.	c #F03859",
"k.	c #B438B8",
"l.	c #FCC4DB",
"m.	c #D373B8",
"n.	c #E59FEA",
"o.	c #F24649",
"p.	c #EA2B51",
"q.	c #DD3169",
"r.	c #FB5E63",
"s.	c #F33349",
"t.	c #EA3561",
"u.	c #FA7A84",
"v.	c #F89B9E",
"w.	c #EA86A8",
"x.	c #DC4B8D",
"y.	c #EC214C",
"z.	c #B1199E",
"A.	c #DF9EDA",
"B.	c #FDC3C9",
"C.	c #EAA4D0",
"D.	c #C175DD",
"E.	c #E7A8E7",
"F.	c #FEBAC7",
"G.	c #F86C68",
"H.	c #F63635",
"I.	c #F92F2E",
"J.	c #E93264",
"K.	c #B234BC",
"L.	c #E29ED0",
"M.	c #F19496",
"N.	c #E84B60",
"O.	c #DC2344",
"P.	c #DF1D50",
"Q.	c #B7329D",
"R.	c #C977D7",
"S.	c #FEBDB8",
"T.	c #F7373F",
"U.	c #F8323A",
"V.	c #F23854",
"W.	c #FA6064",
"X.	c #F83537",
"Y.	c #F63240",
"Z.	c #F93437",
"`.	c #F63E41",
" +	c #F03C67",
".+	c #B9199A",
"++	c #D1176E",
"@+	c #B92098",
"#+	c #E686B2",
"$+	c #FB898E",
"%+	c #EA6184",
"&+	c #CB2D83",
"*+	c #DD4387",
"=+	c #D05AA5",
"-+	c #EE4A62",
";+	c #F62A29",
">+	c #F51819",
",+	c #F92125",
"'+	c #E4316A",
")+	c #B236BC",
"!+	c #ED96B6",
"~+	c #F26866",
"{+	c #FC5255",
"]+	c #E3174F",
"^+	c #ED0A30",
"/+	c #DF1142",
"(+	c #AC14A1",
"_+	c #FAB6B0",
":+	c #F33332",
"<+	c #F94B47",
"[+	c #F8393C",
"}+	c #FD3C3A",
"|+	c #FB2F2C",
"1+	c #FA2528",
"2+	c #F92924",
"3+	c #F83134",
"4+	c #F03954",
"5+	c #C71E85",
"6+	c #CE1775",
"7+	c #C51B8F",
"8+	c #F14765",
"9+	c #F84A4F",
"0+	c #F5333B",
"a+	c #F92734",
"b+	c #E8204E",
"c+	c #BE0E83",
"d+	c #EB182D",
"e+	c #FA1C1E",
"f+	c #FA232A",
"g+	c #FB262A",
"h+	c #E22B68",
"i+	c #B534BA",
"j+	c #EC6D8E",
"k+	c #FC585A",
"l+	c #F62129",
"m+	c #D5095A",
"n+	c #E5123B",
"o+	c #F71924",
"p+	c #BE2488",
"q+	c #F0393A",
"r+	c #FC6667",
"s+	c #FA3F3F",
"t+	c #FB2729",
"u+	c #FB292B",
"v+	c #F8201E",
"w+	c #FA2A28",
"x+	c #F82E37",
"y+	c #F2698C",
"z+	c #E83761",
"A+	c #E51B57",
"B+	c #C5168A",
"C+	c #F4314C",
"D+	c #F12C3A",
"E+	c #D31D6E",
"F+	c #E62C59",
"G+	c #D2176E",
"H+	c #BB0E87",
"I+	c #F11831",
"J+	c #EC3050",
"K+	c #ED436E",
"L+	c #FA3138",
"M+	c #EA3769",
"N+	c #B83DB3",
"O+	c #F46E85",
"P+	c #FC3839",
"Q+	c #F72729",
"R+	c #F41A2E",
"S+	c #F21535",
"T+	c #DB2168",
"U+	c #AB27AE",
"V+	c #F4B2B5",
"W+	c #F16666",
"X+	c #F7788C",
"Y+	c #F3424F",
"Z+	c #FB3939",
"`+	c #FA3335",
" @	c #F9222A",
".@	c #F82428",
"+@	c #F93A48",
"@@	c #D6337E",
"#@	c #D32981",
"$@	c #E61E4A",
"%@	c #DD2260",
"&@	c #F62530",
"*@	c #E92A4E",
"=@	c #B71AA3",
"-@	c #EE4A7B",
";@	c #C81A75",
">@	c #CC1379",
",@	c #F4273D",
"'@	c #C32493",
")@	c #D559BE",
"!@	c #EE4143",
"~@	c #EC4971",
"{@	c #C558B5",
"]@	c #F56A7B",
"^@	c #F92527",
"/@	c #F93A47",
"(@	c #CE3687",
"_@	c #BA40B9",
":@	c #B560DD",
"<@	c #CF96F3",
"[@	c #F3B8B7",
"}@	c #F0717D",
"|@	c #C249B6",
"1@	c #DB599C",
"2@	c #FC6067",
"3@	c #F03B44",
"4@	c #F35071",
"5@	c #F94044",
"6@	c #FA3539",
"7@	c #E83562",
"8@	c #B5119A",
"9@	c #DC1E62",
"0@	c #E73968",
"a@	c #F82534",
"b@	c #E72E53",
"c@	c #BE1C8D",
"d@	c #F14871",
"e@	c #C9197F",
"f@	c #D51A6C",
"g@	c #F62731",
"h@	c #C31E8E",
"i@	c #D555A6",
"j@	c #ED5457",
"k@	c #F4678D",
"l@	c #DB82C9",
"m@	c #F97282",
"n@	c #F83032",
"o@	c #E94566",
"p@	c #D576C9",
"q@	c #D9ACF6",
"r@	c #F2AFB3",
"s@	c #F1789C",
"t@	c #972CCB",
"u@	c #D195E6",
"v@	c #FAADAE",
"w@	c #DB4073",
"x@	c #BD51C0",
"y@	c #F98899",
"z@	c #F63F3E",
"A@	c #FB3C42",
"B@	c #B71794",
"C@	c #CA266E",
"D@	c #FA7896",
"E@	c #F64A59",
"F@	c #F22D3D",
"G@	c #D52870",
"H@	c #F03F65",
"I@	c #C41D91",
"J@	c #DC2973",
"K@	c #FA2328",
"L@	c #E02C67",
"M@	c #D54796",
"N@	c #F8636D",
"O@	c #F8738B",
"P@	c #DB97CC",
"Q@	c #FA96A1",
"R@	c #FA4C4B",
"S@	c #E55F93",
"T@	c #AA4FDA",
"U@	c #CC8FEB",
"V@	c #F595B6",
"W@	c #C465CD",
"X@	c #E4B8EF",
"Y@	c #F6999B",
"Z@	c #D83A7B",
"`@	c #D177CA",
" #	c #F9B5C0",
".#	c #FA6C6B",
"+#	c #FA3E45",
"@#	c #C51C97",
"##	c #D52772",
"$#	c #EF7EB1",
"%#	c #E86096",
"&#	c #F52D3F",
"*#	c #F34D65",
"=#	c #F15372",
"-#	c #C22392",
";#	c #E95A8E",
">#	c #F73634",
",#	c #F53841",
"'#	c #F06984",
")#	c #F65C70",
"!#	c #F55168",
"~#	c #D573B3",
"{#	c #F9B7C4",
"]#	c #F45F61",
"^#	c #FC707D",
"/#	c #D474C6",
"(#	c #B15AD4",
"_#	c #B368E7",
":#	c #B472E0",
"<#	c #FEE8F4",
"[#	c #F48387",
"}#	c #F05D70",
"|#	c #F18CA1",
"1#	c #F99293",
"2#	c #F86976",
"3#	c #DB3D71",
"4#	c #B52FAA",
"5#	c #DD467A",
"6#	c #EF789C",
"7#	c #B949C3",
"8#	c #DA3882",
"9#	c #F04862",
"0#	c #F67685",
"a#	c #D3407F",
"b#	c #F4ADC5",
"c#	c #F98789",
"d#	c #F34440",
"e#	c #FA6D6C",
"f#	c #F87F81",
"g#	c #F5586A",
"h#	c #DC80B9",
"i#	c #F6AFAD",
"j#	c #EF7274",
"k#	c #F38088",
"l#	c #F89AAB",
"m#	c #E395CF",
"n#	c #BA67D9",
"o#	c #F0999B",
"p#	c #F1999F",
"q#	c #F29CA0",
"r#	c #F18486",
"s#	c #E15B90",
"t#	c #D5579F",
"u#	c #EBA2CE",
"v#	c #EE858B",
"w#	c #F17075",
"x#	c #E780B8",
"y#	c #B644CE",
"z#	c #DE5398",
"A#	c #ED6766",
"B#	c #E45177",
"C#	c #D68ABA",
"D#	c #F4C5D7",
"E#	c #F7A6A0",
"F#	c #EB6F6B",
"G#	c #F17877",
"H#	c #F16A6B",
"I#	c #F2A5AE",
"J#	c #F39C9A",
"K#	c #F48D8C",
"L#	c #DE8BB1",
"M#	c #CF86CD",
"N#	c #FCCDD1",
"O#	c #EEBAD5",
"P#	c #F8D1E3",
"Q#	c #FCAFB2",
"R#	c #EC9CB4",
"S#	c #B25FD7",
"T#	c #CE99EF",
"U#	c #FEE4E0",
"V#	c #FAAEC3",
"W#	c #FAADC4",
"X#	c #FEE6DF",
"Y#	c #FECAC9",
"Z#	c #F9B2AE",
"`#	c #F8E0F9",
"                                                                ",
"                                                                ",
"                                                                ",
"                                                                ",
"                                                                ",
"                                              .                 ",
"      + @ #           $ % &                   * =               ",
"    - ; > , '         ) ! ~                 { ] ^ /             ",
"    ( _ : < [       } | 1 2                 3 4 5               ",
"    6 7 8 9 0       a b c d               e f g h               ",
"  i j k l m n       o p q r               s t u v               ",
"  w x y z A B       C D E F               G H I J               ",
"  K L M N O P     Q R S T U V             W X Y Z               ",
"  `  ...+.@.#.    $.%.&.*.=.-.;.          >.,.'.).              ",
"  !.~.{.].^./.(.  _.:.<.[.}.|.            1.2.3.4.              ",
"  5.6.7.8.9.0.a.  b.c.d.e.f.            g.h.i.j.k.    l.m.n.    ",
"  o.p.q.r.s.t.u.v.w.x.y.z.A.B.C.D.E.  F.G.H.I.J.K.L.M.N.O.P.Q.R.",
"S.T.U.V.W.X.Y.Z.`. +.+++@+#+$+%+&+*+=+-+;+>+,+'+)+!+~+{+]+^+/+(+",
"_+:+<+[+}+|+1+2+3+4+5+6+7+8+9+0+a+b+c+d+e+f+g+h+i+j+k+l+m+n+o+p+",
"  q+r+s+t+u+v+w+x+y+z+A+B+C+D+E+F+G+H+I+J+K+L+M+N+O+P+Q+R+S+T+U+",
"V+W+X+Y+Z+`+ @.@+@@@#@$@%@&@*@=@-@;@>@,@'@)@!@~@{@]@^@/@(@_@:@<@",
"[@}@|@1@2@3@4@5@6@7@8@9@0@a@b@c@d@e@f@g@h@i@j@k@l@m@n@o@p@q@    ",
"r@s@t@u@v@w@x@y@z@A@B@C@D@E@F@G@H@I@J@K@L@M@N@O@P@Q@R@S@T@U@    ",
"  V@W@X@Y@Z@`@ #.#+#@###$#%#&#*#=#-#;#>#,#'#)#!#~#{#]#^#/#(#_#:#",
"  <#    [#}#|#1#2#3#4#5#6#7#8#9#0#a#b#c#d#e#f#g#h#  i#j#k#l#m#n#",
"        o#p#q#r#s#t#u#v#w#x#y#z#A#B#C#D#E#F#G#H#I#      J#K#L#M#",
"              N#O#P#    Q#R#S#T#U#V#W#      X#Y#Z#          `#`#",
"                                                                ",
"                                                                ",
"                                                                ",
"                                                                ",
"                                                                "};
